<svg width="236" height="47" viewBox="0 0 236 47" fill="none" xmlns="http://www.w3.org/2000/svg">
<path d="M186.926 31.7109H177.595V34.3029H180.917V42.1193H183.624V34.3029H186.926V31.7109Z" fill="#5FAF2D"/>
<path d="M57.9336 36.9154C57.9336 33.8172 60.2922 31.4277 63.4916 31.4277C65.563 31.4277 67.3473 32.501 68.2087 34.121L65.8707 35.4777C65.44 34.6272 64.5376 34.0805 63.4711 34.0805C61.8509 34.0805 60.6408 35.2752 60.6408 36.9357C60.6408 38.5759 61.8509 39.7706 63.4711 39.7706C64.5581 39.7706 65.481 39.2441 65.8912 38.3936L68.2498 39.7301C67.3473 41.3501 65.563 42.4233 63.4916 42.4233C60.2922 42.4031 57.9336 40.0136 57.9336 36.9154Z" fill="#5FAF2D"/>
<path d="M79.5504 31.7109L75.7151 42.1193C74.6281 45.1163 72.6798 46.4325 70.1571 46.2705V43.7798C71.5928 43.8 72.3516 43.2938 72.8438 41.9978L68.5984 31.7312H71.4902L74.3205 38.7173L76.6586 31.7312H79.5504V31.7109Z" fill="#5FAF2D"/>
<path d="M90.4593 42.1193H87.7316V34.2219H83.5477V42.1193H80.82V31.7109H90.4593V42.1193Z" fill="#5FAF2D"/>
<path d="M97.7801 39.9734C98.8261 39.9734 99.667 39.5279 100.139 38.9406L102.333 40.1961C101.349 41.6136 99.7695 42.4236 97.7391 42.4236C94.191 42.4236 91.976 40.0341 91.976 36.9359C91.976 33.8377 94.232 31.4482 97.534 31.4482C100.651 31.4482 102.866 33.8782 102.866 36.9359C102.866 37.3409 102.825 37.6852 102.764 38.0294H94.8268C95.196 39.3861 96.3445 39.9734 97.7801 39.9734ZM100.139 35.9437C99.8106 34.4452 98.662 33.8377 97.534 33.8377C96.0779 33.8377 95.0934 34.6072 94.7653 35.9437H100.139Z" fill="#5FAF2D"/>
<path d="M115.602 36.9154C115.602 40.0136 113.284 42.4031 110.454 42.4031C108.916 42.4031 107.808 41.8361 107.049 40.8844V46.2708H104.342V31.7112H107.049V32.9465C107.808 31.9947 108.936 31.4277 110.454 31.4277C113.284 31.4277 115.602 33.8172 115.602 36.9154ZM112.894 36.9154C112.894 35.1739 111.643 33.9792 109.962 33.9792C108.3 33.9792 107.049 35.1739 107.049 36.9154C107.049 38.6569 108.3 39.8516 109.962 39.8516C111.643 39.8516 112.894 38.6569 112.894 36.9154Z" fill="#5FAF2D"/>
<path d="M128.05 42.1193H125.424V36.0444L122.738 40.1956H122.41L119.702 36.0039V42.1193H117.098V31.7109H119.764L122.574 36.0849L125.383 31.7109H128.05V42.1193Z" fill="#5FAF2D"/>
<path d="M140.846 31.7112V42.1196H138.119V40.8844C137.36 41.8159 136.232 42.4031 134.694 42.4031C131.884 42.4031 129.566 40.0136 129.566 36.9154C129.566 33.8172 131.884 31.4277 134.694 31.4277C136.232 31.4277 137.36 32.015 138.119 32.9465V31.7112H140.846ZM138.119 36.9154C138.119 35.1739 136.868 33.9792 135.186 33.9792C133.525 33.9792 132.273 35.1739 132.273 36.9154C132.273 38.6569 133.525 39.8516 135.186 39.8516C136.868 39.8516 138.119 38.6569 138.119 36.9154Z" fill="#5FAF2D"/>
<path d="M154.156 36.9154C154.156 40.0136 151.838 42.4031 149.008 42.4031C147.47 42.4031 146.362 41.8361 145.603 40.8844V46.2708H142.896V31.7112H145.603V32.9465C146.362 31.9947 147.49 31.4277 149.008 31.4277C151.838 31.4277 154.156 33.8172 154.156 36.9154ZM151.428 36.9154C151.428 35.1739 150.177 33.9792 148.495 33.9792C146.834 33.9792 145.583 35.1739 145.583 36.9154C145.583 38.6569 146.834 39.8516 148.495 39.8516C150.177 39.8516 151.428 38.6569 151.428 36.9154Z" fill="#5FAF2D"/>
<path d="M171.669 39.9734C172.715 39.9734 173.555 39.5279 174.027 38.9406L176.222 40.1961C175.237 41.6136 173.658 42.4236 171.628 42.4236C168.079 42.4236 165.864 40.0341 165.864 36.9359C165.864 33.8377 168.12 31.4482 171.422 31.4482C174.54 31.4482 176.755 33.8782 176.755 36.9359C176.755 37.3409 176.714 37.6852 176.652 38.0294H168.715C169.064 39.3861 170.233 39.9734 171.669 39.9734ZM174.027 35.9437C173.699 34.4452 172.55 33.8377 171.422 33.8377C169.966 33.8377 168.982 34.6072 168.654 35.9437H174.027Z" fill="#5FAF2D"/>
<path d="M162.543 42.1193H165.701L161.661 36.8544L165.578 31.7109H162.338L159.282 35.9431H158.359V31.7109H155.652V42.1193H158.359V38.0086H159.487L162.543 42.1193Z" fill="#5FAF2D"/>
<path d="M204.152 6.94629H191.622V10.409H196.051V20.9186H199.702V10.409H204.152V6.94629Z" fill="#005A28"/>
<path d="M83.3424 18.0424C84.7574 18.0424 85.8853 17.4552 86.521 16.6452L89.4741 18.3259C88.1411 20.2294 86.0289 21.3229 83.3014 21.3229C78.5436 21.3229 75.5495 18.1032 75.5495 13.952C75.5495 9.78051 78.5846 6.58105 83.0143 6.58105C87.1978 6.58105 90.1714 9.86151 90.1714 13.952C90.1714 14.4785 90.1098 14.9644 90.0278 15.4302H79.3639C79.8561 17.2527 81.4147 18.0424 83.3424 18.0424ZM86.521 12.6155C86.0699 10.6108 84.5318 9.80076 83.0143 9.80076C81.066 9.80076 79.7331 10.8335 79.3024 12.6155H86.521Z" fill="#005A28"/>
<path d="M107.869 13.9322C107.869 18.1036 104.752 21.3031 100.958 21.3031C98.887 21.3031 97.39 20.5538 96.3646 19.2578V26.487H92.7143V6.94601H96.3646V8.58624C97.39 7.29026 98.887 6.54102 100.958 6.54102C104.752 6.56127 107.869 9.76072 107.869 13.9322ZM104.219 13.9322C104.219 11.5832 102.537 9.98347 100.282 9.98347C98.0462 9.98347 96.3851 11.5832 96.3851 13.9322C96.3851 16.2811 98.0462 17.8809 100.282 17.8809C102.537 17.8809 104.219 16.2811 104.219 13.9322Z" fill="#005A28"/>
<path d="M117.528 18.0424C118.943 18.0424 120.071 17.4552 120.707 16.6452L123.66 18.3259C122.327 20.2294 120.215 21.3229 117.487 21.3229C112.73 21.3229 109.735 18.1032 109.735 13.952C109.735 9.78051 112.771 6.58105 117.2 6.58105C121.384 6.58105 124.357 9.86151 124.357 13.952C124.357 14.4785 124.296 14.9644 124.214 15.4302H113.55C114.042 17.2527 115.601 18.0424 117.528 18.0424ZM120.687 12.6155C120.235 10.6108 118.697 9.80076 117.18 9.80076C115.232 9.80076 113.899 10.8335 113.468 12.6155H120.687Z" fill="#005A28"/>
<path d="M157.949 13.9322C157.949 18.1036 154.831 21.3031 151.038 21.3031C148.966 21.3031 147.469 20.5538 146.444 19.2578V26.487H142.794V6.94601H146.444V8.58624C147.469 7.29026 148.966 6.54102 151.038 6.54102C154.831 6.56127 157.949 9.76072 157.949 13.9322ZM154.298 13.9322C154.298 11.5832 152.617 9.98347 150.361 9.98347C148.125 9.98347 146.464 11.5832 146.464 13.9322C146.464 16.2811 148.125 17.8809 150.361 17.8809C152.617 17.8809 154.298 16.2811 154.298 13.9322Z" fill="#005A28"/>
<path d="M167.608 18.0434C169.023 18.0434 170.151 17.4562 170.786 16.6462L173.739 18.3269C172.406 20.2304 170.294 21.3239 167.567 21.3239C162.809 21.3239 159.815 18.1042 159.815 13.953C159.815 9.78153 162.85 6.58208 167.279 6.58208C171.463 6.58208 174.437 9.86253 174.437 13.953C174.437 14.4795 174.375 14.9655 174.293 15.4312H163.629C164.121 17.2537 165.68 18.0434 167.608 18.0434ZM162.481 3.58512C162.481 2.55238 163.363 1.68164 164.408 1.68164C165.454 1.68164 166.295 2.55238 166.295 3.58512C166.295 4.61785 165.454 5.46834 164.408 5.46834C163.363 5.46834 162.481 4.61785 162.481 3.58512ZM170.766 12.6165C170.315 10.6118 168.777 9.80178 167.259 9.80178C165.311 9.80178 163.978 10.8345 163.547 12.6165H170.766ZM167.854 3.58512C167.854 2.55238 168.735 1.68164 169.781 1.68164C170.827 1.68164 171.689 2.55238 171.689 3.58512C171.689 4.61785 170.848 5.46834 169.781 5.46834C168.735 5.46834 167.854 4.61785 167.854 3.58512Z" fill="#005A28"/>
<path d="M176.139 13.9324C176.139 9.76098 179.317 6.56152 183.603 6.56152C186.372 6.56152 188.792 8.0195 189.94 10.166L186.803 11.9885C186.228 10.8342 185.018 10.1255 183.583 10.1255C181.409 10.1255 179.789 11.7252 179.789 13.9527C179.789 16.1599 181.409 17.7596 183.583 17.7596C185.059 17.7596 186.269 17.0509 186.844 15.9169L190.022 17.6989C188.812 19.8858 186.392 21.3236 183.624 21.3236C179.297 21.3033 176.139 18.1039 176.139 13.9324Z" fill="#005A28"/>
<path d="M205.341 13.9324C205.341 9.76098 208.643 6.56152 212.806 6.56152C216.969 6.56152 220.312 9.78123 220.312 13.9324C220.312 18.1039 216.969 21.3033 212.806 21.3033C208.664 21.3033 205.341 18.1039 205.341 13.9324ZM216.661 13.9324C216.661 11.6645 215 10.085 212.806 10.085C210.653 10.085 208.992 11.6847 208.992 13.9324C208.992 16.2004 210.653 17.8001 212.806 17.8001C215 17.8001 216.661 16.2004 216.661 13.9324Z" fill="#005A28"/>
<path d="M136.17 20.9186H140.415L134.98 13.8514L140.23 6.94629H135.883L131.802 12.6162H130.551V6.94629H126.9V20.9186H130.551V15.4107H132.068L136.17 20.9186Z" fill="#005A28"/>
<path d="M231.468 6.94629L227.387 12.6162H226.136V6.94629H222.486V20.9186H226.136V15.4107H227.674L231.755 20.9186H236L230.586 13.8514L235.836 6.94629H231.468Z" fill="#005A28"/>
<path d="M73.1297 20.9189H69.2332V5.30634H62.2402V20.9189H58.3233V1.68164H73.1297V20.9189Z" fill="#005A28"/>
<path d="M30.0434 14.8431L23.8092 20.999L17.5749 14.8431C14.1296 11.4411 14.1296 5.93317 17.5749 2.55147C21.0202 -0.850489 26.5982 -0.850489 30.0434 2.55147C33.4887 5.95342 33.4887 11.4614 30.0434 14.8431Z" fill="#5FAF2D"/>
<path d="M17.5749 32.1364L23.8092 25.9805L30.0435 32.1364C33.4887 35.5383 33.4887 41.0463 30.0435 44.4482C26.5982 47.8502 21.0202 47.8502 17.5954 44.4482C14.1502 41.0463 14.1502 35.5383 17.5749 32.1364Z" fill="#005A28"/>
<path d="M32.5659 29.6455L26.3316 23.4896L32.5659 17.3337C36.0111 13.9317 41.5892 13.9317 45.0344 17.3337C48.4797 20.7356 48.4797 26.2436 45.0344 29.6455C41.5892 33.0475 36.0111 33.0475 32.5659 29.6455Z" fill="#1E8737"/>
<path d="M15.0525 17.3332L21.2868 23.4891L15.0525 29.645C11.6072 33.047 6.0292 33.047 2.58394 29.645C-0.861314 26.243 -0.861314 20.7351 2.58394 17.3332C6.04971 13.9514 11.6277 13.9514 15.0525 17.3332Z" fill="#AAE641"/>
</svg>
