<svg width="118" height="120" viewBox="0 0 118 120" fill="none" xmlns="http://www.w3.org/2000/svg">
<ellipse rx="43.5385" ry="44.8887" transform="matrix(0.896325 0.443397 -0.444807 0.895626 58.9916 59.5084)" fill="#FBFBFB"/>
<path d="M73.9802 15.5407C51.9066 7.90804 27.8892 17.9023 17.4886 38.0103L17.4686 38.0003C17.4485 38.0502 17.4385 38.1 17.4185 38.1498C16.4666 40.0131 15.6249 41.9562 14.9135 43.9889C6.51693 68.0328 19.3523 94.3785 43.52 102.729C67.6978 111.079 94.1901 98.3145 102.587 74.2805C110.993 50.2365 98.158 23.8908 73.9802 15.5407ZM66.9563 94.1494C65.1628 92.9237 61.0446 89.8747 58.7401 86.2676C61.2751 80.2591 65.5335 69.9061 66.2249 68.2321C69.3611 67.4549 77.7977 65.2926 81.1443 63.8379C84.1002 66.3489 89.8014 71.3908 92.5168 74.4997C91.8856 79.0534 89.5109 83.7765 87.9478 86.4967C81.1443 92.306 70.343 93.8106 66.9563 94.1494ZM52.4176 52.5981C46.3957 52.9668 36.436 53.2458 33.881 53.3155C32.4482 51.2928 29.2218 46.5597 28.1497 43.6401C31.1957 34.6922 37.2176 27.7769 39.0312 25.8239C42.4179 24.9769 50.1932 23.2631 54.9226 24.0602C56.4556 26.2922 60.5537 32.4602 62.6578 37.821C60.6439 40.6309 54.1711 49.7184 52.4176 52.5981ZM19.192 47.4465C18.7812 46.47 18.4104 45.1547 18.3603 43.5305C21.9574 34.2936 28.4703 26.9598 36.4761 22.1969L37.1174 25.1762C34.8329 27.7072 29.6827 33.9947 26.6868 42.1953C24.8932 43.132 21.4063 45.1149 19.192 47.4465ZM64.261 36.8843C62.1067 31.5135 58.2291 25.6147 56.5758 23.2232C58.3293 21.9279 64.0406 19.2873 64.0406 19.2873C64.1708 19.3072 76.7958 21.7186 84.4609 27.2687C86.515 29.5107 89.6912 33.337 90.4026 36.2067C87.4368 38.3491 83.499 41.1192 80.9239 42.7732C78.0382 41.0195 68.0084 37.0338 64.261 36.8843ZM93.4787 72.8356C90.3125 69.3282 84.6813 64.4457 82.497 62.5823C82.477 60.2009 82.3267 47.9547 81.8958 44.3177C84.9018 42.4046 89.2003 39.3356 91.3545 37.7811C93.1781 39.6544 98.8092 46.3106 98.8092 46.3106C98.8293 46.4202 101.214 57.1219 98.9195 68.9097C98.9295 68.9097 94.9216 72.0784 93.4787 72.8356ZM100.843 68.7004C101.996 62.4129 101.905 56.5539 101.535 52.349C102.406 57.7496 102.266 63.3695 100.953 68.9396C100.913 68.8499 100.873 68.7702 100.843 68.7004ZM84.1503 24.2197C84.03 24.3492 83.9198 24.4787 83.7996 24.5983C75.8439 19.656 64.8922 17.5635 64.3913 17.4738L64.3812 17.5137L62.1669 16.1685C65.774 16.4475 69.4011 17.1848 72.9782 18.4204C77.0663 19.8453 80.8137 21.8083 84.1503 24.2197ZM18.0798 49.3497C17.5387 51.8806 16.0658 60.0215 18.0297 65.8606C17.7491 66.7973 17.2882 68.4414 16.8774 70.1951C14.9035 62.8514 14.8634 54.9198 17.1179 47.1675C17.4185 48.0543 17.7692 48.7917 18.0798 49.3497ZM18.0597 73.8819C18.3102 72.0784 18.8814 69.667 19.4525 67.6143C21.1358 68.4812 24.8532 70.2051 28.2699 70.4841C28.2699 70.4841 32.2277 58.6066 34.0213 55.139C36.6965 55.0692 46.3155 54.8002 52.3174 54.4315C54.0107 57.6301 61.5657 65.9802 64.2911 68.0627C63.2189 70.6634 59.5717 79.5217 57.2271 85.0918C55.4937 85.6597 50.5339 86.9053 41.7465 86.2377C36.4661 82.6007 28.6406 68.8798 28.5605 68.7503L28.2599 70.4741L27.0876 70.1453C27.3882 70.6634 34.4621 82.8299 39.983 87.2142C39.943 89.1273 39.8628 93.0134 39.953 95.0262C36.8468 94.9864 33.7708 93.8205 31.847 92.9138C25.5145 87.9216 20.7751 81.2854 18.0597 73.8819ZM37.408 96.6404C38.7406 96.8596 40.1333 96.9493 41.5261 96.7999C44.4318 97.8661 51.0449 100.228 54.6019 100.915C54.9025 101.304 55.3835 101.742 56.145 102.151C52.2773 101.922 48.3796 101.164 44.542 99.839C42.0171 98.9721 39.6424 97.8959 37.408 96.6404ZM64.241 101.872C60.3332 101.772 58.2491 101.154 57.1469 100.576C59.2912 99.6297 63.8201 97.587 66.2449 96.0625C68.1186 95.933 79.3308 94.9465 87.3666 89.2768L88.8596 90.1238C82.1463 96.5508 73.4792 100.686 64.241 101.872Z" fill="#323232"/>
<path d="M58.2091 47.4564C58.2091 47.4564 64.3112 38.9868 65.6939 39.2757C68.7099 39.9134 78.7096 43.7995 79.4911 45.0451C80.2827 46.2906 80.7236 56.2151 80.7236 56.2151C80.7236 56.2151 78.9801 46.0415 78.379 45.7426C74.0504 43.5903 66.2249 40.6508 64.8422 41.6971C59.2912 45.9319 59.662 46.6693 58.2091 47.4564Z" fill="#FBFBFB"/>
<path d="M47.3977 88.4197C47.9187 88.4894 56.3153 87.2937 57.0067 87.9613C57.6981 88.6289 62.5977 93.2424 62.5977 93.2424C62.5977 93.2424 57.648 89.5357 56.2452 89.2069C54.8424 88.888 47.3977 88.4197 47.3977 88.4197Z" fill="#FBFBFB"/>
<path d="M21.1459 47.5261C21.1459 47.5261 25.8953 43.5005 26.3261 44.1283C26.757 44.766 32.1977 52.9567 32.0875 53.7339C31.9773 54.5111 30.825 59.2043 30.825 59.2043C30.825 59.2043 31.1456 54.0827 30.8951 53.4051C30.4442 52.1396 25.9454 45.6628 25.4644 45.6528C24.9734 45.6528 21.1459 47.5261 21.1459 47.5261Z" fill="#FBFBFB"/>
</svg>
