<svg width="159" height="29" viewBox="0 0 159 29" fill="none" xmlns="http://www.w3.org/2000/svg">
<path d="M84.8873 24.1353V4.86462H97.2379V9.34109H90.037V24.1353H84.8873Z" fill="#E30613"/>
<path d="M112.773 24.1353V16.5872H105.125V24.1353H99.9769V4.86462H105.125V12.0569H112.773V4.86462H117.923V24.1353H112.773Z" fill="#E30613"/>
<path d="M141.791 4.86462V9.33955H147.806V24.1369H152.958V9.33955H159V4.86462H141.791Z" fill="#E30613"/>
<path d="M134.215 24.1338V13.1521L126.019 24.1338H121.711V4.86621H126.862V15.7324L134.92 4.86621H139.366V24.1338H134.215Z" fill="#E30613"/>
<path d="M55.296 24.1353V12.6838L50.1557 18.733L45.0154 12.6838V24.1353H39.8672V4.86462H44.9466L50.1557 11.4915L55.3664 4.86462H60.4457V24.1353H55.296Z" fill="#E30613"/>
<path d="M70.2214 17.359H75.0085L72.615 11.3128L70.2214 17.359ZM77.6896 24.1353L76.6203 21.4334H68.6081L67.5387 24.1353H62.3546L70.2746 4.86462H75.0366L82.9566 24.1353H77.6896Z" fill="#E30613"/>
<path d="M0 8.78195C0 6.44205 0.928636 4.23924 2.61706 2.57713C4.30237 0.915011 6.53797 0 8.91272 0H29.4912V4.4626H8.91272C7.74958 4.4626 6.65053 4.91395 5.81883 5.73191C4.98712 6.55296 4.52905 7.63588 4.52905 8.78195L4.50248 16.273C4.29142 18.2617 2.77027 19.8684 0.802004 20.1641L0 20.2843V8.78195Z" fill="#E30613"/>
<path d="M0 29V24.5374H20.5785C21.7417 24.5374 22.8407 24.0861 23.6708 23.2666C24.5025 22.4486 24.9606 21.3657 24.9606 20.2196L24.9653 13.109C24.9653 10.9925 26.5662 9.15477 28.6892 8.83744L29.4897 8.71729V20.2196C29.4897 22.5595 28.561 24.7623 26.8726 26.4229C25.1857 28.085 22.9501 29 20.5769 29H0Z" fill="#E30613"/>
<path d="M17.4283 20.2997V14.5308L14.7456 17.6887L12.0629 14.5308V20.2997H8.50937V8.94525H11.8753L14.7456 12.5961L17.6144 8.94525H20.9803V20.2997H17.4283Z" fill="#E30613"/>
</svg>
