<svg width="184" height="34" viewBox="0 0 184 34" fill="none" xmlns="http://www.w3.org/2000/svg">
<path d="M98.2379 28.2977V5.70264H112.528V10.9507H104.197V28.2977H98.2379Z" fill="#E30613"/>
<path d="M130.507 28.2977V19.4484H121.654V28.2977H115.696V5.70264H121.654V14.135H130.507V5.70264H136.465V28.2977H130.507Z" fill="#E30613"/>
<path d="M171.045 28.2977V10.9507H164.085V5.70264H184V10.9507H177.006V28.2977H171.045Z" fill="#E30613"/>
<path d="M155.317 28.2945V15.4203L145.831 28.2945H140.849V5.70557H146.807V18.4458L156.134 5.70557H161.278V28.2945H155.317Z" fill="#E30613"/>
<path d="M63.9949 28.2977V14.8695L58.0455 21.9635L52.0963 14.8695V28.2977H46.1376V5.70264H52.0183L58.0455 13.4719L64.0729 5.70264H69.9534V28.2977H63.9949Z" fill="#E30613"/>
<path fill-rule="evenodd" clip-rule="evenodd" d="M88.662 25.1287L89.9092 28.2944H96.0019L86.8348 5.70239H81.3252L72.1612 28.2944H78.1508L79.3982 25.1287H88.662ZM84.0343 13.2662L86.8032 20.3507H81.2655L84.0343 13.2662Z" fill="#E30613"/>
<path d="M0 10.2937C0.00576945 7.56488 1.09443 4.94951 3.02763 3.02022C4.96082 1.09093 7.58102 0.00493448 10.3146 0H34.1273V5.23244H10.3208C8.97763 5.23817 7.69107 5.77315 6.74101 6.721C5.79096 7.66883 5.25427 8.95285 5.24771 10.2937L5.21652 19.0778C5.10784 20.2032 4.62883 21.2609 3.85431 22.0861C3.0798 22.911 2.05341 23.4566 0.93542 23.6379L0 23.7811V10.2937Z" fill="#E30613"/>
<path d="M0.000976562 34.0001V28.7675H23.8136C25.1572 28.7611 26.4436 28.2253 27.3937 27.277C28.3435 26.3286 28.8802 25.0443 28.8868 23.7033V15.3674C28.8933 14.158 29.3304 12.9904 30.1197 12.0729C30.9091 11.1555 31.9994 10.5481 33.1959 10.3591L34.1313 10.219V23.7033C34.1255 26.4324 33.037 29.0481 31.1038 30.9779C29.1708 32.9076 26.5506 33.9942 23.8167 34.0001H0.000976562Z" fill="#E30613"/>
<path d="M20.1734 23.7996V17.0358L17.0678 20.7367L13.9653 17.0358V23.7996H9.85255V10.4897H13.747L17.0678 14.7697L20.3885 10.4897H24.283V23.7996H20.1734Z" fill="#E30613"/>
</svg>
