<svg width="173" height="50" viewBox="0 0 173 50" fill="none" xmlns="http://www.w3.org/2000/svg">
<path fill-rule="evenodd" clip-rule="evenodd" d="M25.237 0C11.3206 0 0 11.2143 0 25C0 38.7857 11.3206 50 25.237 50C39.1534 50 50.474 38.7857 50.474 25C50.474 11.2143 39.1534 0 25.237 0ZM144.5 18.9286C143.851 18.2143 142.985 17.7143 141.76 17.7143C139.741 17.6429 138.299 19.3572 138.226 21.6429V21.9286C138.226 24.3572 139.669 26 141.688 26C142.913 26 143.779 25.5715 144.428 24.7857L144.5 24.7143C144.86 24.1429 145.581 23.9286 146.158 24.2857L150.268 26.6429L149.475 27.7857C147.889 29.9286 145.509 31.5 141.543 31.5C136.424 31.5 132.025 27.6429 132.025 22V21.5715C132.025 15.9286 136.496 12.1429 141.615 12.1429C145.509 12.1429 147.961 13.7143 149.547 15.9286L150.34 17.0715L146.23 19.4286C145.653 19.7857 144.932 19.5715 144.572 19L144.5 18.9286ZM86.0216 34.2142C85.589 34 85.6611 33.3571 85.6611 33.3571V27.1428C85.6611 26.5 85.1564 25.8571 84.4353 25.8571C83.2816 25.8571 83.2095 25.2857 83.2095 24.5714V14.3571V14C83.2095 13.2857 82.6327 12.7143 81.9116 12.7143H65.6879C65.4715 12.7143 65.2552 12.8571 65.2552 13.0714V13.5714C65.2552 13.8571 65.3994 13.9285 65.6879 14.0714C65.9763 14.2143 66.0484 14.5714 66.0484 14.7857V18.5714C66.0484 22.7857 65.2552 24.0714 63.8131 25.8571H62.9478C62.2268 25.8571 61.6499 26.4285 61.6499 27.1428V35.5714H66.0484C66.7694 35.5714 67.3463 35 67.3463 34.2857V32.2857C67.3463 31.5714 67.9231 31 68.6442 31H78.8111C79.5321 31 80.109 31.5714 80.109 32.2857V34.2857C80.109 35 80.6858 35.5714 81.4069 35.5714H86.1659C86.3822 35.5714 86.5985 35.4285 86.5985 35.2142V34.7857C86.48 34.4922 86.3128 34.3917 86.137 34.2859C86.0988 34.2629 86.0602 34.2397 86.0216 34.2142ZM77.0082 24.5713C77.0082 25.2856 76.9361 25.8571 75.7824 25.8571H70.3745C71.5282 24.3571 72.105 22.2142 72.105 19.2142V17.6428H75.7824C76.5035 17.6428 77.0803 17.7142 77.0803 18.8571V24.5713H77.0082ZM172.621 29.6428C172.188 29.4285 172.261 28.7857 172.261 28.7857V28.3571V12.7143H169.088C168.223 12.7143 167.502 13.0714 166.925 13.5714L166.708 13.7857L160.579 19.8571C160.507 19.9285 160.435 20 160.291 20C160.075 20 159.858 19.7857 159.858 19.5714V14.4285V14.0714C159.858 13.3571 159.282 12.7857 158.561 12.7857H153.441C153.225 12.7857 153.008 12.9285 153.008 13.1428V13.5714C153.008 13.8571 153.153 13.9285 153.441 14.0714C153.874 14.2857 153.802 14.9285 153.802 14.9285V31H156.974C157.839 31 158.561 30.6428 159.137 30.1428L159.354 29.9285L165.411 23.9285C165.483 23.8571 165.627 23.7857 165.699 23.7857C165.915 23.7857 166.132 24 166.132 24.2143V29.2857V29.6428C166.132 30.3571 166.708 30.9285 167.429 30.9285H172.549C172.765 30.9285 172.982 30.7857 172.982 30.5714V30.1428C173.046 29.9525 172.939 29.8749 172.712 29.7098L172.712 29.7094C172.683 29.6887 172.653 29.6667 172.621 29.6428ZM107.798 28.7857C107.798 28.7857 107.726 29.4285 108.158 29.6428C108.202 29.6756 108.245 29.705 108.284 29.7324C108.503 29.884 108.63 29.9722 108.447 30.2143V30.6428C108.447 30.8571 108.23 31 108.014 31H102.894C102.173 31 101.597 30.4285 101.597 29.7143V24.2143C101.597 24 101.38 23.7857 101.164 23.7857C101.092 23.7857 100.948 23.8571 100.876 23.9285L94.8187 29.9285L94.6023 30.1428C94.0976 30.6428 93.3044 31 92.4392 31H89.3386V14.9285C89.3386 14.9285 89.4107 14.2857 88.9781 14.0714C88.6897 13.9285 88.5455 13.8571 88.5455 13.5714V13.1428C88.5455 12.9285 88.7618 12.7857 88.9781 12.7857H94.0976C94.8187 12.7857 95.3955 13.3571 95.3955 14.0714V19.5714C95.3955 19.7857 95.6118 20 95.8281 20C95.9724 20 96.0445 19.9285 96.1166 19.8571L102.246 13.7857L102.462 13.5714C102.967 13.0714 103.76 12.7143 104.625 12.7143H107.798V28.3571V28.7857ZM124.382 22.5C123.877 22 123.877 21.2143 124.382 20.7143L132.458 12.7143H125.536C124.814 12.7143 123.877 13.1429 123.372 13.5715L120.632 16.2858C120.128 16.7858 119.767 16.6429 119.767 15.9286V13.9286C119.767 13.2143 119.19 12.6429 118.469 12.6429H113.35C113.133 12.6429 112.917 12.7858 112.917 13V13.5715C112.917 13.8572 113.061 13.9286 113.35 14.0715C113.782 14.2858 113.71 14.9286 113.71 14.9286V28.7858V31H118.469C119.19 31 119.767 30.4286 119.767 29.7143V28.7143V25.9286L123.949 30.0715C124.454 30.5715 125.391 30.9286 126.112 30.9286H131.809C132.53 30.9286 132.674 30.5 132.169 30.0715L124.382 22.5ZM23.6509 17.6428H27.3282C28.0493 17.6428 28.6261 17.7856 28.6261 18.7856V24.5713C28.6261 25.2856 28.554 25.8571 27.4003 25.8571H21.9203C23.074 24.3571 23.6509 22.2142 23.6509 19.2142V17.6428ZM37.6391 35.6427C37.8554 35.6427 38.0717 35.4999 38.0717 35.2856H37.9275V34.857C37.9275 34.5713 37.7833 34.4999 37.4948 34.357C37.0622 34.1427 37.1343 33.4999 37.1343 33.4999V27.2856C37.1343 26.5713 36.5575 25.9999 35.9085 25.9999C34.7548 25.9999 34.6827 25.4285 34.6827 24.7142V14.4285V14.0713C34.6827 13.357 34.1059 12.7856 33.3848 12.7856H17.1611C16.9447 12.7856 16.7284 12.9285 16.7284 13.1427V13.5713C16.7284 13.857 16.8726 13.9285 17.1611 14.0713C17.4495 14.2142 17.5216 14.5713 17.5216 14.7856V18.5713C17.5216 22.7856 16.7284 24.1427 15.2863 25.9285H14.421C13.7 25.9285 13.1231 26.4999 13.1231 27.2142V35.6427H17.5216C18.2426 35.6427 18.8195 35.0713 18.8195 34.357V33.357V32.2856C18.8195 31.5713 19.3963 30.9999 20.1174 30.9999H30.2843C31.0053 30.9999 31.5822 31.5713 31.5822 32.2856V33.357V34.357C31.5822 35.0713 32.159 35.6427 32.8801 35.6427H37.6391Z" fill="#FF6600"/>
</svg>
