<svg width="142" height="109" viewBox="0 0 142 109" fill="none" xmlns="http://www.w3.org/2000/svg">
<g filter="url(#filter0_d)">
<path d="M20.5891 102.116H92.7794C94.6277 102.116 96.126 100.617 96.126 98.769C96.126 96.9207 97.6244 95.4223 99.4727 95.4223H125.161C130.722 95.4223 135.23 90.9145 135.23 85.3537V17.7432C135.23 13.171 131.523 9.46451 126.951 9.46451H122.371C120.329 9.46451 118.672 7.80839 118.672 5.76546C118.672 3.72253 117.016 2.06641 114.973 2.06641H44.8684C42.8255 2.06641 41.1694 3.72253 41.1694 5.76546C41.1694 7.80839 39.5133 9.46451 37.4703 9.46451H15.9808C12.9651 9.46451 10.5204 11.9092 10.5204 14.9249V16.5102C10.5204 18.6504 8.78547 20.3853 6.64529 20.3853C4.5051 20.3853 2.77014 22.1203 2.77014 24.2605V53.8525C2.77014 55.9927 4.5051 57.7276 6.64529 57.7276C8.78547 57.7276 10.5204 59.4626 10.5204 61.6028V92.047C10.5204 97.6077 15.0283 102.116 20.5891 102.116Z" fill="white"/>
</g>
<path d="M15.3698 19.721C15.3698 16.9406 17.6237 14.6866 20.4041 14.6866H126.125C128.905 14.6866 131.159 16.9406 131.159 19.721V85.1673C131.159 87.9477 128.905 90.2016 126.125 90.2016H20.4041C17.6237 90.2016 15.3698 87.9477 15.3698 85.1673V19.721Z" fill="#FF6600"/>
<path fill-rule="evenodd" clip-rule="evenodd" d="M14.1112 19.721C14.1112 16.2455 16.9286 13.4281 20.4041 13.4281H126.125C129.601 13.4281 132.418 16.2455 132.418 19.721V85.1673C132.418 88.6428 129.601 91.4602 126.125 91.4602H20.4041C16.9286 91.4602 14.1112 88.6428 14.1112 85.1673V19.721ZM20.4041 15.9453C18.3188 15.9453 16.6284 17.6357 16.6284 19.721V85.1673C16.6284 87.2526 18.3188 88.9431 20.4041 88.9431H126.125C128.21 88.9431 129.901 87.2526 129.901 85.1673V19.721C129.901 17.6357 128.21 15.9453 126.125 15.9453H20.4041Z" fill="black"/>
<path fill-rule="evenodd" clip-rule="evenodd" d="M30.4727 98.5438H20.4041V96.0266H30.4727V98.5438Z" fill="black"/>
<path fill-rule="evenodd" clip-rule="evenodd" d="M55.6446 7.85789H45.5759V5.34073H55.6446V7.85789Z" fill="black"/>
<path fill-rule="evenodd" clip-rule="evenodd" d="M45.5757 98.5438H35.5071V96.0266H45.5757V98.5438Z" fill="black"/>
<path fill-rule="evenodd" clip-rule="evenodd" d="M70.7474 7.85789H60.6787V5.34073H70.7474V7.85789Z" fill="black"/>
<path fill-rule="evenodd" clip-rule="evenodd" d="M90.8848 98.5438H50.6101V96.0266H90.8848V98.5438Z" fill="black"/>
<path fill-rule="evenodd" clip-rule="evenodd" d="M116.056 7.85789H75.7817V5.34073H116.056V7.85789Z" fill="black"/>
<path fill-rule="evenodd" clip-rule="evenodd" d="M6.63774 40.831L6.63774 23.3584L9.15491 23.3584L9.15491 40.831L6.63774 40.831Z" fill="black"/>
<path fill-rule="evenodd" clip-rule="evenodd" d="M6.63774 50.7661L6.63774 44.3687L9.15491 44.3687L9.15491 50.7661L6.63774 50.7661Z" fill="black"/>
<path d="M47.9467 31.4755H36.9726V36.5707H42.8516V68.7093H36.5247V73.4125H54.2737V68.7093H47.9467V31.4755Z" fill="#FBFBFB"/>
<path d="M73.9513 73.6365L80.2783 66.8616V37.6905L73.8953 31.2516H65.7767L59.3378 37.6905V66.8616L65.7207 73.6365H73.9513ZM74.1753 38.6983L64.4329 58.911V39.7622L67.9043 36.3467H71.7677L74.1753 38.6983ZM65.4967 66.0218L75.2391 45.8091V64.846L71.7117 68.5973H67.9043L65.4967 66.0218Z" fill="#FBFBFB"/>
<path d="M102.712 73.6365L109.039 66.8616V37.6905L102.656 31.2516H94.5375L88.0986 37.6905V66.8616L94.4815 73.6365H102.712ZM102.936 38.6983L93.1937 58.911V39.7622L96.6652 36.3467H100.529L102.936 38.6983ZM94.2576 66.0218L104 45.8091V64.846L100.473 68.5973H96.6652L94.2576 66.0218Z" fill="#FBFBFB"/>
<defs>
<filter id="filter0_d" x="0.770142" y="0.0664062" width="140.46" height="108.049" filterUnits="userSpaceOnUse" color-interpolation-filters="sRGB">
<feFlood flood-opacity="0" result="BackgroundImageFix"/>
<feColorMatrix in="SourceAlpha" type="matrix" values="0 0 0 0 0 0 0 0 0 0 0 0 0 0 0 0 0 0 127 0"/>
<feOffset dx="2" dy="2"/>
<feGaussianBlur stdDeviation="2"/>
<feColorMatrix type="matrix" values="0 0 0 0 0 0 0 0 0 0 0 0 0 0 0 0 0 0 0.25 0"/>
<feBlend mode="normal" in2="BackgroundImageFix" result="effect1_dropShadow"/>
<feBlend mode="normal" in="SourceGraphic" in2="effect1_dropShadow" result="shape"/>
</filter>
</defs>
</svg>
