<svg width="182" height="39" viewBox="0 0 182 39" fill="none" xmlns="http://www.w3.org/2000/svg">
<path d="M33.3546 5.32225C33.5358 4.91973 33.5358 4.91973 34.5328 2.54931C32.131 2.28096 30.8167 2.05734 28.732 2.10206C26.0129 0.760321 22.9766 0 19.759 0C8.83714 0 0 8.72133 0 19.5C0 30.2787 8.83714 39 19.759 39C30.6808 39 39.5179 30.2787 39.5179 19.5C39.5179 13.9094 37.116 8.90023 33.3546 5.32225Z" fill="white"/>
<path d="M31.9028 8.04951C31.8574 8.00479 31.8121 8.00479 31.7668 8.00479C31.7214 8.00479 31.6762 8.04951 31.6308 8.04951C30.8152 8.98873 29.8634 9.8385 28.8211 10.5094C26.7365 11.8064 24.3799 12.522 21.8873 12.522C17.2648 12.522 14.6363 10.2857 12.5064 8.67565C12.461 8.63093 12.4157 8.5862 12.4157 8.54148C12.4157 8.49675 12.461 8.45203 12.5064 8.4073C15.8147 5.90272 18.5338 4.29263 21.2982 3.35341C21.3888 3.30868 21.4342 3.26396 21.4342 3.17451C21.4342 3.08506 21.3435 3.04033 21.2528 2.99561C20.7544 2.95088 20.2558 2.95088 19.7574 2.95088C10.467 2.90616 2.94412 10.3305 2.94412 19.499C2.94412 24.553 5.21006 29.0702 8.83555 32.1114C8.88087 32.1562 8.92619 32.1562 9.01683 32.1562C9.06215 32.1562 9.10746 32.1114 9.15278 32.022L9.83256 29.8752C9.87788 29.7857 9.96851 29.741 10.0592 29.741C19.0322 31.6642 22.8843 26.8787 22.2499 23.8821C21.706 21.3328 17.4914 19.0965 11.3281 22.5403C11.2828 22.585 11.2374 22.585 11.1921 22.5403C11.1921 22.5403 11.1468 22.5403 11.1468 22.4956C11.1015 22.4509 11.0562 22.4062 11.0562 22.3167L13.1408 11.8064C13.1408 11.7617 13.1861 11.7169 13.2315 11.6722C13.2768 11.6275 13.3674 11.6722 13.4127 11.6722C14.0019 12.03 15.7693 13.1482 17.6727 14.2663C17.718 14.311 17.7633 14.3557 17.7633 14.4452C17.718 14.8924 17.4461 16.5472 17.3555 17.2628C17.3555 17.3075 17.3555 17.397 17.4008 17.4417C17.4461 17.4864 17.4914 17.4864 17.5821 17.4864C27.9147 14.7582 30.09 21.1538 29.8181 24.1952C29.1836 31.1275 21.4342 34.7949 14.5457 34.8843C14.4551 34.8843 14.3645 34.9291 14.3645 35.0185C14.3645 35.108 14.4097 35.1975 14.5003 35.1975C16.1772 35.7342 17.9446 36.0472 19.7574 36.0472C29.0477 36.0472 36.5705 28.6229 36.5705 19.4544C36.5705 15.0713 34.7579 11.0013 31.9028 8.04951Z" fill="#E61801"/>
<path d="M15.4093 8.49733C20.9835 12.6567 29.1409 10.5547 31.86 4.06958C26.8296 6.43999 21.2554 7.96064 15.4093 8.49733Z" fill="#78B617"/>
<path d="M15.4093 8.49742C21.2554 8.00545 26.7843 6.48481 31.86 4.06967C26.1951 3.44352 20.3037 4.82999 15.4093 8.49742Z" fill="#28A62A"/>
<path fill-rule="evenodd" clip-rule="evenodd" d="M74.5038 9.88488C87.7369 9.34819 108.629 11.7633 108.629 11.7633C108.901 11.808 109.127 11.6739 109.218 11.4502L109.445 10.7794L109.807 9.66126C109.844 9.58769 109.82 9.54437 109.785 9.48154C109.778 9.46798 109.77 9.45351 109.762 9.43763L109.761 9.43734C109.716 9.39272 109.671 9.34809 109.58 9.30347C106.997 8.94566 87.9182 6.53053 74.0507 6.8436C60.9989 7.15667 50.0317 9.70598 47.086 10.4663C46.8594 10.511 46.6781 10.6899 46.6328 10.9583L46.3156 12.6131C46.3156 12.7025 46.3156 12.792 46.4062 12.8367C46.4516 12.8814 46.5422 12.9262 46.6328 12.8814C48.9894 12.3447 52.2977 11.808 56.6482 11.2713L53.7479 27.2828C53.6572 27.5511 53.6572 27.8643 54.2011 27.8643H57.0108C57.192 27.8643 57.4186 27.8195 57.5093 27.3723L60.2284 11.8975C60.2284 11.8528 60.4097 11.0477 61.3161 10.8241C61.9142 10.756 62.7342 10.6994 63.5568 10.6426C64.3546 10.5876 65.1548 10.5324 65.7573 10.4663L62.7209 27.2828C62.6363 27.8257 62.8678 27.8227 63.0833 27.8199L63.1029 27.8197L63.1289 27.8195H66.0746C66.3012 27.8195 66.6637 27.7748 66.7544 27.2381L69.6094 11.0925C69.6094 11.0925 69.7907 10.2427 70.6971 10.0638C71.4222 10.0414 72.0114 10.0079 72.6006 9.97433C73.1897 9.94079 73.7788 9.90724 74.5038 9.88488ZM115.608 12.7922L114.52 12.6133C114.157 12.5685 114.067 12.3896 114.112 12.0765L114.52 10.6901C114.599 10.2608 114.885 10.2742 115.107 10.2846C115.14 10.2861 115.171 10.2876 115.2 10.2876L116.197 10.4665C116.605 10.5559 116.741 10.6454 116.65 11.0479L116.287 12.3896C116.198 12.8755 115.931 12.8379 115.619 12.7938L115.608 12.7922ZM96.2115 18.2038C97.2538 16.549 98.5228 15.2073 100.653 15.2073C102.375 15.2073 103.372 16.2806 103.417 18.338C103.417 18.8299 103.372 19.4114 103.236 20.0375L101.831 27.8196H99.3384C99.1572 27.8196 98.9759 27.7302 98.84 27.596C98.704 27.4171 98.6586 27.2383 98.704 27.0593L99.9729 20.1717C100.2 18.9195 100.064 18.0696 99.1572 18.0696C97.7976 18.0696 96.1208 19.9928 94.8972 26.791L94.7159 27.8196H92.3141C92.0875 27.8196 91.8609 27.7302 91.7249 27.5513C91.5436 27.3724 91.4983 27.1487 91.5436 26.9251L92.8125 20.2164C93.0391 19.0089 92.9032 18.1144 91.9515 18.1144C90.5919 18.1144 88.9152 19.9928 87.6916 26.8357L87.5102 27.8644H85.0631C84.8365 27.8644 84.6552 27.775 84.5192 27.6408C84.3833 27.4619 84.3379 27.2383 84.3833 27.0593L86.468 15.5651H88.7792C89.0058 15.5651 89.2324 15.6545 89.3684 15.8334C89.5043 15.9676 89.5949 16.1912 89.5496 16.4148C89.4986 16.6498 89.4475 16.9038 89.3965 17.1577C89.3116 17.5802 89.2267 18.0027 89.1418 18.338H89.187C90.0028 16.9068 91.2264 15.2073 93.5377 15.2073C95.4863 15.2073 96.1661 16.5042 96.1661 18.2038H96.2115ZM82.7968 15.5649H78.0383C74.5035 15.5649 72.1469 17.0408 72.1469 19.8138C72.1469 21.2897 73.1892 22.2289 74.2315 22.3184V22.3631C73.8331 22.4942 73.3914 23.0095 72.9064 23.5753L72.872 23.6154C72.011 24.6888 71.3765 25.4044 70.8326 25.4044C70.742 25.4044 70.6514 25.4938 70.606 25.5833L70.3342 27.5065C70.3342 27.5959 70.3342 27.6853 70.4248 27.7301C70.4701 27.7748 70.5608 27.8195 70.6514 27.8195H71.6484C73.2799 27.8195 73.8237 27.1934 75.4099 25.2254C76.6335 23.6154 77.0867 23.1234 77.8571 23.1234H78.4009L77.6305 27.4617C77.6305 27.5511 77.6305 27.6407 77.6758 27.6853C77.7211 27.7748 77.8117 27.7748 77.9024 27.7748H80.6668C80.8028 27.7748 80.9388 27.6853 80.9388 27.5511L83.0687 15.8333C83.0687 15.7438 83.0687 15.6544 83.0234 15.6097C83.0046 15.6097 82.978 15.602 82.9469 15.593C82.9029 15.5803 82.8498 15.5649 82.7968 15.5649ZM77.1319 20.9321H78.8541L79.4432 18.025H77.8117C76.3163 18.025 75.5458 18.6511 75.5458 19.8586C75.5458 20.5743 76.0443 20.9321 77.1319 20.9321ZM112.299 12.3451L111.075 12.1662C110.668 12.0767 110.577 11.8978 110.713 11.6295L111.121 10.1983C111.257 9.7063 111.619 9.75103 111.846 9.79575L112.979 9.92993C113.387 10.0194 113.523 10.1088 113.432 10.5561L113.024 11.9425C112.89 12.4285 112.623 12.3908 112.311 12.3467L112.299 12.3451ZM115.834 18.4276C115.834 16.415 114.429 15.2522 112.027 15.2522C108.039 15.2522 104.867 18.6513 104.867 23.258C104.867 26.165 106.498 28.1776 109.625 28.1776C112.073 28.1776 113.659 27.2385 114.611 26.3886L113.296 24.1971C112.526 24.868 111.438 25.4942 110.124 25.4942C108.764 25.4942 108.221 24.6444 108.175 23.258C112.345 22.8107 115.834 21.4242 115.834 18.4276ZM111.483 17.7568C109.897 17.7568 108.855 19.3668 108.402 21.1558C110.894 20.9322 112.616 20.0825 112.662 18.7854C112.662 18.0698 112.254 17.7568 111.483 17.7568ZM125.668 15.2073C123.493 15.2073 122.36 16.6832 121.318 18.4274H121.272C121.408 17.9802 121.499 17.5777 121.59 17.1305C121.68 16.7279 121.59 16.3254 121.318 16.0123C121.046 15.6992 120.683 15.5203 120.275 15.5203H118.689L115.381 33.3208H117.239C118.055 33.3208 118.78 32.7394 118.916 31.9343L119.641 27.9538C119.913 28.0432 120.457 28.1327 121.363 28.1327C125.668 28.1327 128.795 24.689 128.795 19.3667C128.886 16.8621 127.617 15.2073 125.668 15.2073ZM120.186 25.5835C120.367 25.6282 120.73 25.7175 121.454 25.7175C123.629 25.7175 125.397 23.526 125.487 19.948C125.487 18.8298 125.125 18.1143 124.354 18.1143C122.859 18.1143 121.273 20.3952 120.321 24.9125L120.185 25.5833L120.186 25.5835ZM177.695 15.2073C173.073 15.2073 169.855 18.8299 169.855 24.1075C169.855 26.6121 171.169 28.1327 173.073 28.1327C175.112 28.1327 176.335 26.6568 177.287 24.8678H177.332C177.207 25.3615 177.12 25.9688 177.036 26.5504L177.015 26.7015C176.97 26.9699 177.06 27.2829 177.287 27.5066C177.468 27.7302 177.74 27.8644 178.057 27.8644H180.188C180.232 26.9699 180.369 24.9573 180.958 21.5582L182 15.9676C181.456 15.6992 179.961 15.2073 177.695 15.2073ZM174.431 25.315C175.791 25.315 177.422 23.1235 178.283 18.5168L178.374 17.8012L178.371 17.8007C178.144 17.7559 177.692 17.667 177.196 17.667C175.156 17.667 173.298 20.0822 173.298 23.526C173.298 24.7335 173.661 25.315 174.431 25.315ZM165.503 22.9893C165.14 22.2736 164.777 21.7816 164.415 21.4686L169.898 15.5649H166.908C166.409 15.5649 165.91 15.7886 165.548 16.1911L161.696 20.5741H161.016L161.742 16.5489C161.786 16.3253 161.742 16.0569 161.56 15.878C161.424 15.6991 161.152 15.5649 160.926 15.5649H158.524L156.348 27.8643H158.75C159.294 27.8643 159.747 27.4617 159.838 26.9698L160.609 22.8103H160.971C161.696 22.8103 162.149 23.5706 162.919 25.2254C163.825 27.1486 164.279 27.8643 165.866 27.8643H167.18L167.632 25.4044H167.361C166.772 25.4044 166.273 24.6441 165.503 22.9893ZM148.282 21.5134C149.869 21.5134 151.5 19.456 151.998 16.3253L152.09 15.5203H155.397L154.31 21.5134C153.721 24.9125 153.494 26.9251 153.448 27.8196H150.232C150.413 26.0753 150.911 23.3023 151.273 21.4239H151.228C150.322 22.9893 148.872 24.4205 146.651 24.4205C144.883 24.4205 143.886 23.3023 143.886 21.245C143.886 20.7978 143.932 20.2611 144.023 19.7244L144.793 15.565H146.47C146.877 15.565 147.24 15.7439 147.512 16.057C147.784 16.37 147.874 16.7725 147.829 17.1751L147.422 19.5902C147.195 20.932 147.466 21.5134 148.282 21.5134ZM137.135 15.2073C133.101 15.2073 130.065 18.7405 130.065 22.9894C130.065 25.807 131.833 28.1327 135.05 28.1327C139.174 28.1327 142.029 24.7784 142.029 20.3506C142.075 17.4435 140.262 15.2073 137.135 15.2073ZM133.463 22.9448C133.463 24.5549 134.098 25.6283 135.367 25.6283C137.587 25.6283 138.765 22.6318 138.765 20.3955C138.765 18.6959 138.131 17.7568 136.862 17.7568C134.777 17.7568 133.463 20.6638 133.463 22.9448Z" fill="#E61801"/>
</svg>
