<svg width="148" height="59" viewBox="0 0 148 59" fill="none" xmlns="http://www.w3.org/2000/svg">
<path d="M29.519 11.4039C29.8577 9.71063 29.5755 8.18671 28.616 6.88855C27.6564 5.59039 25.9068 4.91309 23.3104 4.91309H16.0295C12.3607 5.02597 10.5546 5.98548 9.70798 10.275L5.86994 29.5781H17.6098C21.2785 29.5781 23.8184 28.8444 25.2295 27.4333C26.6405 25.9658 27.5436 24.329 27.8822 22.5229C28.5031 19.475 27.2614 17.556 24.2135 16.7658C25.681 16.3708 26.8098 15.6935 27.7129 14.7339C28.6724 13.718 29.2368 12.6456 29.519 11.4039ZM20.7141 21.902C20.6012 22.4665 20.2626 22.9744 19.7546 23.426C19.2466 23.8775 18.5129 24.1033 17.6098 24.1033H13.9411L14.8442 19.6444H18.2871C19.416 19.6444 20.0933 19.8701 20.4319 20.3781C20.7706 20.8297 20.827 21.3376 20.7141 21.902ZM22.238 12.307C22.1252 12.8149 21.843 13.2665 21.3914 13.718C20.9399 14.1695 20.2626 14.3953 19.416 14.3953H15.9166L16.4245 11.6861C16.8196 10.5573 17.5534 10.275 18.7951 10.2186H20.0933C21.7865 10.2186 22.4638 10.8959 22.238 12.307Z" fill="#D5181F"/>
<path d="M71.0601 13.6048C70.1571 11.9116 68.6331 11.0649 66.4319 11.0649C63.892 11.0649 61.973 12.0809 60.6749 14.0564L61.1828 11.46H59.546C56.0466 11.6294 54.2969 12.5889 53.5068 16.822L49.7252 36.0122H50.9669C54.8614 36.0122 56.8368 35.3349 57.8528 31.4968L58.5865 27.8846C59.3203 29.4649 60.7313 30.2551 62.8196 30.2551C64.908 30.2551 66.7706 29.4085 68.3509 27.6588C69.9877 25.9091 71.0601 23.595 71.6245 20.66C72.0761 17.6122 71.9632 15.2981 71.0601 13.6048ZM64.0614 20.7165C63.7227 22.3533 63.3276 23.595 62.8196 24.3852C62.3117 25.1754 61.6908 25.5705 60.7877 25.5705C60.2233 25.5705 59.8282 25.3447 59.546 24.8932C59.2638 24.4416 59.2074 23.8208 59.3767 22.9741L60.4491 17.7251C60.6184 16.9349 60.9571 16.3705 61.465 16.0318C61.973 15.6932 62.4245 15.5238 62.8761 15.5238C63.6098 15.5238 64.1178 15.9189 64.3436 16.7091C64.5693 17.4993 64.4564 18.8539 64.0614 20.7165Z" fill="#D5181F"/>
<path d="M110.852 19.1926C109.892 18.1202 108.255 17.5558 105.941 17.5558H102.611L103.853 11.3472H101.764C98.265 11.4601 96.4589 12.4196 95.6123 16.4269L93.016 29.5778H103.571C104.643 29.5778 105.885 29.4085 107.183 29.0134C108.537 28.6183 109.553 27.941 110.287 26.9251C111.021 25.9091 111.529 24.8367 111.755 23.6515C112.093 21.7889 111.811 20.265 110.852 19.1926ZM105.49 23.5386C105.377 24.1594 105.151 24.6674 104.812 25.0061C104.474 25.3447 103.909 25.514 103.119 25.514H100.748L101.256 22.9177C101.539 21.9018 102.103 21.6196 103.119 21.6196H103.853C104.53 21.6196 105.038 21.7324 105.264 22.0147C105.546 22.2404 105.602 22.7484 105.49 23.5386Z" fill="#D5181F"/>
<path d="M83.9288 29.6345C88.0491 29.6345 90.081 28.8443 90.9276 24.3854L93.5239 11.4038H91.4356C87.8798 11.5167 86.0736 12.4762 85.227 16.7658L85.0012 17.951H81.6147L82.9129 11.4038H80.8245C77.2687 11.5167 75.4626 12.4762 74.616 16.7658L72.0761 29.6909H73.3178C77.3252 29.6909 79.3006 28.9572 80.2601 24.8369L80.7681 22.2406H84.1546L82.6871 29.6909" fill="#D5181F"/>
<path d="M113.109 29.6345C117.286 29.6345 119.261 28.8443 120.164 24.2725L122.704 11.4038H120.616C117.06 11.5167 115.254 12.4762 114.407 16.7658L111.867 29.6909L113.109 29.6345Z" fill="#D5181F"/>
<path d="M133.259 29.6345H134.501C138.508 29.6345 140.483 28.9007 141.443 24.7805L144.096 11.4038H142.402C137.774 11.4038 137.153 12.7584 134.106 16.7658C134.106 16.7658 131.791 20.0394 130.719 21.6762C131.227 19.8136 132.977 11.4038 132.977 11.4038H130.888C127.389 11.5167 125.583 12.4762 124.736 16.54L122.14 29.6345H124.059C128.687 29.6345 129.308 28.2799 132.299 24.2725L135.178 20.0958" fill="#D5181F"/>
<path d="M139.863 38.2138C143.362 38.3832 146.579 38.1574 147.2 36.1819C72.0761 30.6506 16.3681 43.7451 15.9166 43.858C8.07117 45.269 1.3546 49.1071 0 54.7513C40.1301 41.2617 95.1608 35.8997 139.75 38.2138H139.863Z" fill="#D5181F"/>
<path d="M146.692 0.454102C145.281 1.07496 140.596 3.33263 137.266 3.67128C134.896 3.89705 134.049 3.84061 132.017 3.05042C131.791 3.5584 133.202 10.7265 139.919 6.9449C140.371 6.66269 146.692 2.37312 146.692 0.454102Z" fill="#D5181F"/>
<path d="M44.4761 23.5954H43.7423C43.3472 23.6518 42.8393 23.7647 42.5006 24.0469C42.2749 24.2727 42.2184 24.442 41.8233 24.7807C41.2589 25.2322 40.5252 25.3451 39.5656 25.3451C38.4933 25.3451 37.816 25.0629 37.5337 24.4985C37.2515 23.934 37.2515 23.0874 37.4209 21.9021H43.3472C48.3706 21.9021 50.854 21.9021 50.0074 16.5402C49.7816 15.4113 49.3301 14.3954 48.6528 13.5488C47.1853 11.7426 44.9841 10.896 42.0491 10.896C39.0012 10.896 36.4049 11.8555 34.2037 13.7181C32.0025 15.6371 30.6479 17.9512 30.0834 20.6604C29.5755 23.3132 30.027 25.5144 31.5509 27.3205C33.0184 29.1267 35.3325 30.0297 38.4368 30.0297C41.2025 30.0297 43.573 29.4089 45.4356 28.1107C47.2982 26.8126 48.4834 25.5708 49.2172 23.5954H44.4761ZM41.2589 15.1291C41.9926 15.1291 42.5571 15.3549 42.9522 15.75C43.2344 16.0886 43.4037 16.8224 43.2908 17.6126C43.2908 17.8383 43.1779 18.2334 42.6699 18.2334C42.162 18.2334 38.0417 18.2334 38.0417 18.2334C38.4933 16.2015 39.5656 15.1291 41.2589 15.1291Z" fill="#D5181F"/>
<path d="M59.8847 46.6232C59.7153 46.5668 59.4896 46.5668 59.0945 46.5668C58.8123 46.5668 58.6429 46.5668 58.4736 46.5668C58.3043 46.5668 58.1914 46.6232 58.0785 46.6232C57.9656 46.6232 57.9092 46.6797 57.8528 46.7361C57.7963 46.7926 57.7963 46.849 57.7963 46.9054C57.627 47.4134 57.5141 47.9214 57.3448 48.3729C57.1755 48.8809 57.0061 49.3324 56.7804 49.8404C56.5546 50.3484 56.3288 50.7999 56.1031 51.2514C55.8773 51.703 55.5951 52.1545 55.2564 52.6061L54.4098 46.9619C54.4098 46.849 54.3534 46.7926 54.3534 46.7361C54.3534 46.6797 54.2969 46.6232 54.1841 46.6232C54.1276 46.5668 54.0147 46.5668 53.8454 46.5668C53.6761 46.5668 53.5068 46.5668 53.281 46.5668C53.0552 46.5668 52.8859 46.5668 52.7166 46.5668C52.5472 46.5668 52.4344 46.6232 52.3215 46.6232C52.2086 46.6797 52.1522 46.7361 52.0957 46.7926C52.0393 46.849 52.0393 46.9619 52.0393 47.0748C52.0393 47.1312 52.0393 47.1876 52.0393 47.3005C52.0393 47.4134 52.0393 47.4699 52.0957 47.5263L53.4503 55.3153L51.362 58.0245C51.3055 58.1373 51.2491 58.1938 51.2491 58.3067C51.2491 58.3631 51.2491 58.4195 51.362 58.476C51.4184 58.5324 51.5313 58.5324 51.7006 58.5889C51.8699 58.5889 52.0957 58.6453 52.3215 58.6453C52.5472 58.6453 52.773 58.6453 52.9423 58.6453C53.1117 58.6453 53.281 58.5889 53.3939 58.5889C53.5068 58.5324 53.6196 58.5324 53.6761 58.476C53.7325 58.4195 53.8454 58.3631 53.9018 58.3067L56.1031 55.1459C56.611 54.4122 57.0626 53.7349 57.4577 53.0576C57.8528 52.3803 58.1914 51.7594 58.5301 51.0821C58.8123 50.4613 59.0945 49.8404 59.3767 49.276C59.6025 48.7116 59.8282 48.0907 60.054 47.5263C60.1104 47.4134 60.1104 47.3005 60.1104 47.2441C60.1104 47.1312 60.1104 47.0748 60.1104 46.9619C60.054 46.7361 59.9975 46.6232 59.8847 46.6232ZM69.4798 46.9054C69.4798 46.849 69.4798 46.7926 69.4798 46.7361C69.4798 46.6797 69.4233 46.6797 69.3104 46.6232C69.254 46.5668 69.1411 46.5668 68.9718 46.5668C68.8025 46.5668 68.6331 46.5668 68.4074 46.5668C68.1816 46.5668 68.0123 46.5668 67.8429 46.5668C67.6736 46.5668 67.5607 46.6232 67.4479 46.6232C67.335 46.6797 67.2785 46.6797 67.2221 46.7361C67.1656 46.7926 67.1656 46.849 67.1656 46.9054L66.5448 49.9533H63.3276L63.9485 46.9054C63.9485 46.849 63.9485 46.7926 63.9485 46.7361C63.9485 46.6797 63.892 46.6797 63.7791 46.6232C63.7227 46.5668 63.6098 46.5668 63.4405 46.5668C63.2712 46.5668 63.1018 46.5668 62.8761 46.5668C62.6503 46.5668 62.481 46.5668 62.3117 46.5668C62.1423 46.5668 62.0295 46.6232 61.973 46.6232C61.8601 46.6797 61.8037 46.6797 61.7472 46.7361C61.6908 46.7926 61.6908 46.849 61.6344 46.9054L59.9976 54.9766C59.9976 55.033 59.9976 55.0895 59.9976 55.1459C59.9976 55.2024 60.054 55.2024 60.1669 55.2588C60.2233 55.3153 60.3362 55.3153 60.5055 55.3153C60.6748 55.3153 60.8442 55.3153 61.0699 55.3153C61.2957 55.3153 61.465 55.3153 61.6344 55.3153C61.8037 55.3153 61.9166 55.2588 62.0295 55.2588C62.1423 55.2024 62.1988 55.2024 62.2552 55.1459C62.3117 55.0895 62.3117 55.033 62.3681 54.9766L62.989 51.8159H66.2061L65.5853 54.9766C65.5853 55.033 65.5853 55.0895 65.5853 55.1459C65.5853 55.2024 65.6417 55.2024 65.7546 55.2588C65.811 55.3153 65.9239 55.3153 66.0933 55.3153C66.2626 55.3153 66.4319 55.3153 66.6577 55.3153C66.8834 55.3153 67.0528 55.3153 67.2221 55.3153C67.3914 55.3153 67.5043 55.2588 67.5607 55.2588C67.6736 55.2024 67.7301 55.2024 67.7865 55.1459C67.8429 55.0895 67.843 55.033 67.8994 54.9766L69.4798 46.9054ZM79.3006 46.9054C79.3006 46.849 79.3006 46.7926 79.3006 46.7361C79.3006 46.6797 79.2442 46.6797 79.1313 46.6232C79.0749 46.6232 78.962 46.5668 78.7926 46.5668C78.6233 46.5668 78.454 46.5668 78.2282 46.5668C78.0025 46.5668 77.8331 46.5668 77.6638 46.5668C77.4945 46.5668 77.3816 46.6232 77.3252 46.6232C77.2123 46.6232 77.1558 46.6797 77.0994 46.7361C77.043 46.7926 77.043 46.849 77.043 46.9054L76.3657 50.4048C76.2528 50.8564 76.1399 51.2514 75.9141 51.6465C75.7448 52.0416 75.519 52.3803 75.2933 52.6625C75.0675 52.9447 74.7853 53.1705 74.5031 53.3398C74.2209 53.5091 73.9951 53.5656 73.7129 53.5656C73.6 53.5656 73.4871 53.5656 73.3742 53.5091C73.2614 53.4527 73.2049 53.3962 73.1485 53.3398C73.092 53.2833 73.0356 53.1705 73.0356 53.0576C73.0356 52.9447 72.9791 52.8318 72.9791 52.6625C72.9791 52.5496 72.9791 52.3803 72.9791 52.2674C72.9791 52.0981 73.0356 51.9852 73.0356 51.8723L73.9951 47.0183C73.9951 46.9619 73.9951 46.9054 73.9951 46.849C73.9951 46.7926 73.9387 46.7926 73.8258 46.7361C73.7693 46.7361 73.6564 46.6797 73.4871 46.6797C73.3178 46.6797 73.1485 46.6797 72.9227 46.6797C72.6969 46.6797 72.5276 46.6797 72.3583 46.6797C72.189 46.6797 72.0761 46.7361 71.9632 46.7361C71.8503 46.7361 71.7939 46.7926 71.7374 46.849C71.681 46.9054 71.681 46.9619 71.6245 47.0183L70.6086 52.0416C70.5522 52.2674 70.5522 52.4932 70.4957 52.7189C70.4957 52.9447 70.4393 53.1705 70.4393 53.3398C70.4393 53.6784 70.4957 53.9607 70.5522 54.2429C70.6086 54.5251 70.7779 54.7508 70.9472 54.9766C71.1166 55.2024 71.3423 55.3153 71.681 55.4846C71.9632 55.5975 72.3583 55.6539 72.7534 55.6539C73.092 55.6539 73.4307 55.5975 73.7693 55.4846C74.108 55.3717 74.3902 55.2588 74.6724 55.033C74.9546 54.8637 75.1804 54.6379 75.4061 54.4686C75.6319 54.2429 75.8012 54.0171 75.9141 53.8478L75.6884 55.1459C75.6884 55.2024 75.6884 55.2588 75.6884 55.3153C75.6884 55.3717 75.7448 55.3717 75.8012 55.4281C75.8577 55.4281 75.9706 55.4846 76.0834 55.4846C76.1963 55.4846 76.3657 55.4846 76.535 55.4846C76.7043 55.4846 76.8736 55.4846 76.9865 55.4846C77.0994 55.4846 77.2123 55.4281 77.3252 55.4281C77.3816 55.4281 77.4945 55.3717 77.4945 55.3153C77.5509 55.2588 77.5509 55.2024 77.5509 55.1459L79.3006 46.9054ZM87.8233 51.7594C87.7669 51.5901 87.654 51.4208 87.5411 51.2514C87.4282 51.0821 87.2589 50.9692 87.0896 50.8564C86.9203 50.7435 86.638 50.687 86.3558 50.6306C86.638 50.5741 86.8638 50.4613 87.146 50.3484C87.3718 50.2355 87.5976 50.0662 87.7669 49.8968C87.9362 49.7275 88.0491 49.5018 88.162 49.276C88.2749 49.0502 88.3313 48.768 88.3313 48.4858C88.3313 48.2036 88.2749 47.9214 88.162 47.6956C88.0491 47.4134 87.8798 47.2441 87.5976 47.0183C87.3153 46.849 87.0331 46.6797 86.638 46.5668C86.243 46.4539 85.7914 46.3975 85.227 46.3975C84.4933 46.3975 83.9288 46.5103 83.3644 46.7361C82.8564 46.9619 82.4049 47.2441 82.0098 47.5827C81.6147 47.9214 81.3325 48.3165 81.1068 48.768C80.881 49.2195 80.6552 49.6711 80.5423 50.1226C80.4295 50.5741 80.3166 51.0257 80.2601 51.4208C80.2037 51.8159 80.2037 52.211 80.2037 52.4932C80.2037 53.0011 80.2601 53.3962 80.4295 53.7913C80.5988 54.1864 80.7681 54.4686 81.0503 54.7508C81.3325 54.9766 81.6712 55.2024 82.1227 55.3153C82.5742 55.4281 83.0258 55.4846 83.6466 55.4846C84.211 55.4846 84.6626 55.4281 85.1141 55.3717C85.5657 55.2588 85.9043 55.1459 86.243 55.033C86.5816 54.8637 86.8638 54.6944 87.0896 54.5251C87.3153 54.2993 87.4847 54.0735 87.654 53.8478C87.8233 53.622 87.8798 53.3398 87.9926 53.114C88.1055 52.8883 88.1055 52.6061 88.1055 52.3238C87.9362 52.0981 87.8798 51.9288 87.8233 51.7594ZM86.0172 49.276C85.9607 49.4453 85.8479 49.5582 85.6785 49.6711C85.5092 49.784 85.3399 49.8404 85.1141 49.9533C84.8884 50.0097 84.6061 50.0662 84.3239 50.0662H82.8C82.9129 49.7275 83.0258 49.4453 83.1951 49.1631C83.3644 48.8809 83.5338 48.6551 83.7031 48.4858C83.8724 48.3165 84.0982 48.2036 84.3239 48.0907C84.5497 47.9778 84.7755 47.9778 85.0577 47.9778C85.2834 47.9778 85.4528 47.9778 85.5657 48.0343C85.6785 48.0907 85.7914 48.1472 85.9043 48.2036C86.0172 48.26 86.0736 48.3729 86.1301 48.4858C86.1865 48.5987 86.1865 48.6551 86.1865 48.768C86.1301 48.9373 86.0736 49.1631 86.0172 49.276ZM85.5092 52.9447C85.4528 53.114 85.3399 53.2834 85.1706 53.4527C85.0012 53.622 84.8319 53.7349 84.6061 53.7913C84.3804 53.8478 84.0982 53.9042 83.7595 53.9042C83.2515 53.9042 82.9129 53.7913 82.6871 53.5656C82.4614 53.3398 82.3485 53.0011 82.3485 52.4932C82.3485 52.3238 82.3485 52.1545 82.3485 51.9852C82.3485 51.8159 82.4049 51.6465 82.4049 51.4772H83.9288C84.2675 51.4772 84.5497 51.4772 84.7755 51.5337C85.0012 51.5901 85.1706 51.6465 85.2834 51.7594C85.3963 51.8159 85.5092 51.9288 85.5092 52.0416C85.5657 52.1545 85.5657 52.2674 85.5657 52.3803C85.6221 52.5496 85.6221 52.7189 85.5092 52.9447ZM97.362 47.8085C97.2491 47.5263 97.0233 47.3005 96.7976 47.0748C96.5153 46.849 96.2331 46.6797 95.838 46.5668C95.443 46.4539 94.9914 46.3975 94.427 46.3975C93.8061 46.3975 93.2417 46.5103 92.7338 46.6797C92.2258 46.849 91.7742 47.1312 91.4356 47.4134C91.0405 47.7521 90.7583 48.0907 90.4761 48.4858C90.1939 48.8809 89.9681 49.3324 89.7988 49.784C89.6295 50.2355 89.5166 50.687 89.4037 51.1386C89.3472 51.5901 89.2908 52.0416 89.2908 52.4367C89.2908 52.9447 89.3473 53.3962 89.5166 53.7913C89.6859 54.1864 89.8552 54.4686 90.1939 54.7508C90.4761 54.9766 90.8712 55.2024 91.2663 55.3153C91.7178 55.4281 92.2258 55.4846 92.7902 55.4846C93.1288 55.4846 93.4675 55.4846 93.8061 55.4281C94.1448 55.3717 94.427 55.3153 94.7092 55.2588C94.9914 55.2024 95.2172 55.1459 95.3865 55.033C95.5558 54.9766 95.7252 54.8637 95.7816 54.8073C95.838 54.7508 95.8945 54.638 95.9509 54.5251C96.0074 54.4122 96.0638 54.2993 96.0638 54.1864C96.1203 54.0735 96.1203 53.9042 96.1203 53.7913C96.1203 53.6784 96.1203 53.5656 96.1203 53.4527C96.1203 53.3398 96.1203 53.2834 96.0638 53.2269C96.0074 53.1705 96.0074 53.1705 95.8945 53.1705C95.7816 53.1705 95.7252 53.2269 95.5558 53.2833C95.3865 53.3398 95.2172 53.3962 94.935 53.4527C94.7092 53.5091 94.427 53.5656 94.0883 53.622C93.7497 53.6784 93.4111 53.7349 93.016 53.7349C92.4515 53.7349 92.0565 53.622 91.7742 53.3398C91.5485 53.114 91.3791 52.7189 91.3791 52.211C91.3791 52.0981 91.3791 51.9852 91.3791 51.8159C91.3791 51.703 91.4356 51.5337 91.4356 51.4208H92.2822C93.1853 51.4208 93.919 51.3643 94.5399 51.195C95.1607 51.0821 95.7252 50.8564 96.1203 50.6306C96.5153 50.4048 96.854 50.0662 97.0233 49.7275C97.1926 49.3889 97.3055 48.9938 97.3055 48.5422C97.5313 48.3729 97.4749 48.0907 97.362 47.8085ZM95.1607 49.3324C95.0479 49.5018 94.935 49.6146 94.7092 49.7275C94.4834 49.8404 94.2577 49.8968 93.919 50.0097C93.5804 50.0662 93.1853 50.1226 92.6773 50.1226H92C92.0564 49.8404 92.1693 49.5582 92.3387 49.3324C92.4515 49.1067 92.6209 48.8809 92.7902 48.6551C92.9595 48.4858 93.1853 48.3165 93.4111 48.2036C93.6368 48.0907 93.919 48.0343 94.2012 48.0343C94.5399 48.0343 94.8221 48.0907 95.0479 48.26C95.2172 48.4294 95.3301 48.5987 95.3301 48.8809C95.3301 48.9938 95.2736 49.1631 95.1607 49.3324ZM107.07 48.26C106.957 47.8649 106.844 47.5827 106.618 47.3005C106.449 47.0183 106.167 46.7926 105.828 46.6232C105.49 46.4539 105.094 46.3975 104.643 46.3975C104.304 46.3975 103.966 46.4539 103.627 46.5668C103.288 46.6797 103.006 46.849 102.724 47.0183C102.442 47.1876 102.216 47.4134 101.99 47.5827C101.821 47.8085 101.652 47.9778 101.539 48.2036L101.821 46.9054C101.821 46.849 101.821 46.7926 101.821 46.7361C101.821 46.6797 101.764 46.6797 101.652 46.6232C101.595 46.6232 101.482 46.5668 101.369 46.5668C101.256 46.5668 101.087 46.5668 100.918 46.5668C100.523 46.5668 100.297 46.5668 100.128 46.6232C99.9583 46.6797 99.8454 46.7926 99.8454 46.9054L97.5877 58.1938C97.5877 58.2502 97.5877 58.3067 97.5877 58.3631C97.5877 58.4195 97.6442 58.476 97.7571 58.476C97.8135 58.5324 97.9264 58.5324 98.0957 58.5324C98.2086 58.5324 98.4344 58.5324 98.6601 58.5324C98.8859 58.5324 99.0552 58.5324 99.2245 58.5324C99.3939 58.5324 99.5068 58.476 99.6196 58.476C99.7325 58.4195 99.789 58.4195 99.8454 58.3631C99.9018 58.3067 99.9019 58.2502 99.9583 58.1938L100.692 54.5251C100.805 54.638 100.918 54.8073 101.087 54.9202C101.256 55.033 101.369 55.1459 101.595 55.2024C101.764 55.3153 101.99 55.3717 102.16 55.4281C102.385 55.4846 102.611 55.4846 102.837 55.4846C103.345 55.4846 103.853 55.3717 104.248 55.2024C104.699 55.033 105.038 54.7508 105.377 54.4686C105.715 54.13 105.998 53.7913 106.223 53.3962C106.449 53.0011 106.675 52.5496 106.788 52.0981C106.957 51.6465 107.07 51.195 107.126 50.7435C107.183 50.2919 107.239 49.8404 107.239 49.4453C107.183 49.0502 107.126 48.6551 107.07 48.26ZM104.756 50.4613C104.699 50.7435 104.643 51.0257 104.587 51.3079C104.53 51.5901 104.417 51.8723 104.304 52.1545C104.191 52.4367 104.022 52.6625 103.853 52.8318C103.683 53.0576 103.514 53.1705 103.288 53.3398C103.063 53.4527 102.837 53.5091 102.611 53.5091C102.272 53.5091 101.99 53.4527 101.708 53.2833C101.426 53.114 101.2 52.8883 101.031 52.5496L101.313 51.3079C101.369 50.9128 101.539 50.5177 101.708 50.1226C101.877 49.784 102.103 49.4453 102.329 49.1631C102.555 48.8809 102.837 48.6551 103.119 48.4858C103.401 48.3165 103.683 48.26 103.966 48.26C104.135 48.26 104.304 48.3165 104.417 48.3729C104.53 48.4294 104.643 48.5422 104.699 48.6551C104.756 48.768 104.812 48.9373 104.869 49.1067C104.925 49.276 104.925 49.4453 104.925 49.6711C104.812 49.8968 104.812 50.1791 104.756 50.4613ZM115.423 47.2441C115.423 47.1876 115.367 47.1312 115.31 47.0748C115.254 47.0183 115.141 46.9054 114.972 46.849C114.802 46.7361 114.633 46.6797 114.464 46.6232C114.294 46.5668 114.069 46.5103 113.843 46.4539C113.617 46.3975 113.391 46.3975 113.109 46.3975C112.488 46.3975 111.924 46.5103 111.472 46.6797C111.021 46.849 110.569 47.1312 110.231 47.4699C109.892 47.8085 109.553 48.1472 109.328 48.5987C109.102 48.9938 108.876 49.4453 108.707 49.8968C108.537 50.3484 108.425 50.7999 108.368 51.2514C108.312 51.703 108.255 52.0981 108.255 52.4932C108.255 53.5091 108.537 54.2993 109.045 54.8073C109.553 55.3153 110.344 55.5975 111.36 55.5975C111.642 55.5975 111.924 55.5975 112.206 55.541C112.488 55.4846 112.714 55.4281 112.94 55.3717C113.166 55.3153 113.391 55.2024 113.561 55.0895C113.73 54.9766 113.843 54.9202 113.956 54.8073C114.012 54.7508 114.125 54.6379 114.182 54.4686C114.238 54.3557 114.294 54.1864 114.294 54.0171C114.351 53.8478 114.351 53.6784 114.407 53.5656C114.407 53.3962 114.464 53.2834 114.464 53.1705C114.464 53.0576 114.464 53.0011 114.407 52.9447C114.407 52.8883 114.351 52.8883 114.294 52.8883C114.182 52.8883 114.069 52.9447 113.956 53.0011C113.843 53.114 113.674 53.1705 113.504 53.2833C113.335 53.3962 113.109 53.5091 112.883 53.5656C112.658 53.6784 112.375 53.6784 112.037 53.6784C111.585 53.6784 111.247 53.5656 111.021 53.2833C110.795 53.0576 110.682 52.6625 110.682 52.1545C110.682 51.9852 110.682 51.7594 110.739 51.4772C110.795 51.195 110.852 50.9128 110.908 50.6306C110.964 50.3484 111.077 50.0662 111.19 49.784C111.303 49.5018 111.472 49.276 111.642 49.0502C111.811 48.8245 112.037 48.6551 112.263 48.4858C112.488 48.3729 112.771 48.26 113.109 48.26C113.391 48.26 113.674 48.3165 113.843 48.3729C114.012 48.4294 114.182 48.5422 114.294 48.5987C114.407 48.7116 114.52 48.768 114.633 48.8245C114.746 48.8809 114.802 48.9373 114.915 48.9373C115.028 48.9373 115.085 48.8809 115.198 48.768C115.254 48.6551 115.367 48.5422 115.423 48.3729C115.48 48.2036 115.536 48.0343 115.536 47.8649C115.593 47.6956 115.593 47.5263 115.593 47.4134C115.48 47.357 115.48 47.3005 115.423 47.2441ZM124.849 46.9054C124.849 46.849 124.849 46.7926 124.849 46.7361C124.849 46.6797 124.793 46.6797 124.68 46.6232C124.623 46.6232 124.51 46.5668 124.398 46.5668C124.285 46.5668 124.115 46.5668 123.946 46.5668C123.551 46.5668 123.325 46.5668 123.156 46.6232C122.987 46.6797 122.874 46.7926 122.874 46.9054L122.704 47.6392C122.422 47.2441 122.083 46.9619 121.688 46.7361C121.293 46.5103 120.842 46.3975 120.334 46.3975C119.769 46.3975 119.318 46.5103 118.866 46.6797C118.415 46.849 118.076 47.1312 117.737 47.4699C117.399 47.8085 117.117 48.1472 116.891 48.5987C116.665 48.9938 116.439 49.4453 116.326 49.8968C116.157 50.3484 116.044 50.7999 115.988 51.2514C115.931 51.703 115.875 52.0981 115.875 52.4932C115.875 52.8883 115.931 53.2834 115.988 53.6784C116.044 54.0735 116.214 54.3557 116.383 54.638C116.552 54.9202 116.834 55.1459 117.173 55.3153C117.512 55.4846 117.907 55.5975 118.358 55.5975C118.697 55.5975 119.036 55.541 119.374 55.4281C119.713 55.3153 119.995 55.1459 120.277 54.9766C120.56 54.8073 120.785 54.5815 121.011 54.4122C121.237 54.2429 121.35 54.0171 121.463 53.7913L121.18 55.0895C121.18 55.1459 121.18 55.2024 121.18 55.2588C121.18 55.3153 121.237 55.3153 121.35 55.3717C121.406 55.3717 121.519 55.4281 121.632 55.4281C121.745 55.4281 121.914 55.4281 122.083 55.4281C122.479 55.4281 122.704 55.4281 122.874 55.3717C123.043 55.3153 123.156 55.2024 123.156 55.0895L124.849 46.9054ZM121.801 50.5177C121.745 50.9128 121.575 51.3079 121.406 51.703C121.237 52.0416 121.011 52.3803 120.785 52.6625C120.56 52.9447 120.277 53.1705 119.995 53.3398C119.713 53.5091 119.431 53.5656 119.205 53.5656C119.036 53.5656 118.866 53.5091 118.753 53.4527C118.64 53.3962 118.528 53.2834 118.471 53.1705C118.415 53.0576 118.358 52.8883 118.302 52.7189C118.302 52.5496 118.245 52.3803 118.245 52.211C118.245 51.9852 118.245 51.703 118.302 51.4208C118.358 51.1386 118.415 50.8564 118.471 50.5741C118.528 50.2919 118.64 50.0097 118.753 49.7275C118.866 49.4453 119.036 49.2195 119.205 49.0502C119.374 48.8245 119.544 48.7116 119.769 48.5422C119.995 48.4294 120.221 48.3729 120.447 48.3729C120.785 48.3729 121.067 48.4294 121.35 48.5987C121.632 48.768 121.858 48.9938 122.027 49.3324L121.801 50.5177ZM137.605 47.357C137.661 47.0748 137.605 46.9054 137.492 46.7926C137.379 46.6797 137.153 46.6232 136.871 46.6232H135.629C135.404 46.6232 135.178 46.6232 135.009 46.6797C134.839 46.7361 134.67 46.7926 134.557 46.9054C134.444 47.0183 134.331 47.1312 134.218 47.3005C134.106 47.4699 133.993 47.6392 133.88 47.8649L132.412 50.6306C132.299 50.7999 132.243 50.9692 132.13 51.195C132.017 51.3643 131.961 51.5901 131.848 51.7594C131.735 51.9852 131.679 52.1545 131.566 52.3238C131.509 52.4932 131.396 52.7189 131.34 52.8318C131.34 52.6625 131.34 52.4932 131.34 52.3238C131.34 52.1545 131.34 51.9288 131.34 51.7594C131.34 51.5901 131.34 51.3643 131.283 51.195C131.283 51.0257 131.227 50.7999 131.227 50.6306L130.888 47.8649C130.888 47.6392 130.832 47.4134 130.775 47.3005C130.719 47.1312 130.663 47.0183 130.55 46.9054C130.437 46.7926 130.324 46.7361 130.155 46.7361C129.985 46.7361 129.816 46.6797 129.534 46.6797H128.461C128.179 46.6797 127.953 46.7361 127.784 46.849C127.615 46.9619 127.502 47.1876 127.389 47.4134L125.075 54.9766C125.075 55.033 125.018 55.1459 125.075 55.1459C125.075 55.2024 125.131 55.2588 125.188 55.2588C125.244 55.3153 125.357 55.3153 125.47 55.3153C125.583 55.3153 125.752 55.3153 125.978 55.3153C126.204 55.3153 126.429 55.3153 126.542 55.3153C126.712 55.3153 126.825 55.3153 126.881 55.2588C126.994 55.2024 127.05 55.2024 127.107 55.1459C127.163 55.0895 127.163 55.033 127.22 54.9766L128.518 50.687C128.574 50.5177 128.631 50.3484 128.687 50.1226C128.744 49.8968 128.8 49.6711 128.856 49.5018C128.913 49.276 128.969 49.0502 129.026 48.8245C129.082 48.5987 129.139 48.4294 129.195 48.2036C129.195 48.3729 129.195 48.5422 129.195 48.7116C129.195 48.8809 129.195 49.1067 129.252 49.276C129.252 49.5018 129.308 49.6711 129.308 49.8968C129.308 50.1226 129.364 50.2919 129.364 50.4613L129.872 54.9202C129.872 54.9766 129.929 55.0895 129.929 55.1459C129.985 55.2024 130.042 55.2588 130.098 55.2588C130.155 55.3153 130.267 55.3153 130.38 55.3153C130.493 55.3153 130.663 55.3153 130.832 55.3153C131.058 55.3153 131.227 55.3153 131.34 55.3153C131.509 55.3153 131.622 55.2588 131.679 55.2588C131.791 55.2024 131.848 55.2024 131.904 55.1459C131.961 55.0895 132.017 55.033 132.017 54.9766L134.331 50.5177C134.388 50.3484 134.501 50.1791 134.614 50.0097C134.726 49.8404 134.783 49.6146 134.896 49.3889C135.009 49.1631 135.065 48.9938 135.178 48.8245C135.291 48.6551 135.347 48.4294 135.46 48.3165C135.404 48.5422 135.404 48.7116 135.347 48.9373C135.291 49.1631 135.291 49.3889 135.234 49.6146C135.178 49.8404 135.178 50.0662 135.178 50.2355C135.178 50.4613 135.121 50.5741 135.121 50.7435L134.726 55.0895C134.726 55.1459 134.726 55.2024 134.726 55.2588C134.726 55.3153 134.783 55.3153 134.839 55.3717C134.896 55.3717 135.009 55.4281 135.178 55.4281C135.291 55.4281 135.517 55.4281 135.742 55.4281C136.137 55.4281 136.42 55.3717 136.589 55.3153C136.758 55.2588 136.871 55.1459 136.871 54.9766L137.605 47.357Z" fill="#D5181F"/>
</svg>
