<svg width="94" height="108" viewBox="0 0 94 108" fill="none" xmlns="http://www.w3.org/2000/svg">
<path d="M0 106.5C2.6226e-06 107.328 0.671578 108 1.5 108C2.32843 108 3 107.328 3 106.5L0 106.5ZM93.5607 13.0607C94.1464 12.4749 94.1464 11.5251 93.5607 10.9393L84.0147 1.3934C83.4289 0.807611 82.4792 0.807611 81.8934 1.3934C81.3076 1.97919 81.3076 2.92893 81.8934 3.51472L90.3787 12L81.8934 20.4853C81.3076 21.0711 81.3076 22.0208 81.8934 22.6066C82.4792 23.1924 83.4289 23.1924 84.0147 22.6066L93.5607 13.0607ZM3 106.5C2.99993 84.9013 12.2168 61.6226 28.0602 43.7449C43.889 25.8837 66.2507 13.5 92.5 13.5V10.5C65.2498 10.5 42.1114 23.3663 25.815 41.7551C9.53334 60.1274 -6.99759e-05 84.0987 0 106.5L3 106.5Z" fill="white"/>
</svg>
