<svg width="29" height="29" viewBox="0 0 29 29" fill="none" xmlns="http://www.w3.org/2000/svg">
<ellipse rx="10.6753" ry="10.9591" transform="matrix(0.898041 0.439912 -0.448312 0.893877 14.5 14.4923)" fill="#FBFBFB"/>
<path d="M18.1852 3.78899C12.7655 1.9282 6.86841 4.36472 4.31475 9.2669L4.30983 9.26447C4.30491 9.27662 4.30245 9.28876 4.29753 9.30091C4.06382 9.75517 3.85716 10.2289 3.68249 10.7244C1.62086 16.5862 4.77235 23.009 10.7063 25.0447C16.6427 27.0804 23.1474 23.9686 25.209 18.1093C27.2731 12.2476 24.1216 5.82468 18.1852 3.78899ZM16.4606 22.9532C16.0203 22.6544 15.0091 21.911 14.4433 21.0316C15.0657 19.5668 16.1113 17.0429 16.281 16.6347C17.0511 16.4453 19.1225 15.9181 19.9442 15.5635C20.67 16.1756 22.0698 17.4048 22.7365 18.1627C22.5815 19.2729 21.9985 20.4243 21.6147 21.0875C19.9442 22.5038 17.2922 22.8706 16.4606 22.9532ZM12.8909 12.8233C11.4124 12.9132 8.96694 12.9812 8.3396 12.9982C7.98779 12.5051 7.19562 11.3512 6.93238 10.6394C7.68027 8.45797 9.15884 6.77208 9.60413 6.29595C10.4357 6.08947 12.3448 5.67164 13.506 5.86598C13.8824 6.41013 14.8886 7.91382 15.4052 9.22074C14.9107 9.90579 13.3215 12.1212 12.8909 12.8233ZM4.73298 11.5674C4.63212 11.3293 4.54109 11.0087 4.52879 10.6127C5.41199 8.3608 7.0111 6.57289 8.97678 5.41171L9.13424 6.13805C8.57332 6.75508 7.30879 8.28792 6.57319 10.2872C6.13282 10.5155 5.27668 10.9989 4.73298 11.5674ZM15.7988 8.9924C15.2699 7.68304 14.3178 6.24494 13.9119 5.66192C14.3424 5.34613 15.7447 4.70238 15.7447 4.70238C15.7767 4.70724 18.8765 5.29511 20.7586 6.64819C21.2629 7.19477 22.0428 8.12759 22.2174 8.82721C21.4892 9.34949 20.5224 10.0248 19.8901 10.4281C19.1816 10.0005 16.719 9.02883 15.7988 8.9924ZM22.9727 17.757C22.1953 16.902 20.8127 15.7116 20.2764 15.2574C20.2714 14.6768 20.2345 11.6913 20.1288 10.8046C20.8668 10.3382 21.9222 9.58999 22.4512 9.21103C22.8989 9.66772 24.2815 11.2904 24.2815 11.2904C24.2864 11.3172 24.872 13.9262 24.3086 16.7999C24.3111 16.7999 23.327 17.5724 22.9727 17.757ZM24.7809 16.7489C25.0639 15.2161 25.0417 13.7877 24.9507 12.7626C25.1647 14.0792 25.1303 15.4493 24.808 16.8072C24.7982 16.7854 24.7883 16.7659 24.7809 16.7489ZM20.6823 5.90485C20.6528 5.93643 20.6257 5.96801 20.5962 5.99716C18.6428 4.79226 15.9538 4.28212 15.8308 4.26026L15.8284 4.26998L15.2847 3.94203C16.1703 4.01005 17.0609 4.18981 17.9392 4.49104C18.9429 4.83842 19.8631 5.31697 20.6823 5.90485ZM4.4599 12.0314C4.32706 12.6484 3.96541 14.6331 4.4476 16.0566C4.37872 16.2849 4.26555 16.6858 4.16468 17.1133C3.68003 15.323 3.67019 13.3893 4.22373 11.4994C4.29753 11.7156 4.38364 11.8953 4.4599 12.0314ZM4.45498 18.0121C4.51649 17.5724 4.65672 16.9846 4.79695 16.4841C5.21026 16.6955 6.12298 17.1157 6.9619 17.1838C6.9619 17.1838 7.93367 14.2881 8.37404 13.4427C9.03091 13.4257 11.3927 13.3601 12.8663 13.2703C13.2821 14.05 15.1371 16.0857 15.8062 16.5934C15.543 17.2275 14.6475 19.3871 14.0718 20.745C13.6462 20.8835 12.4284 21.1871 10.2708 21.0244C8.97432 20.1377 7.05293 16.7926 7.03325 16.7611L6.95944 17.1813L6.6716 17.1012C6.74541 17.2275 8.48229 20.1936 9.83784 21.2624C9.828 21.7288 9.80832 22.6762 9.83046 23.1669C9.06781 23.1572 8.31254 22.873 7.84018 22.6519C6.28535 21.4349 5.12169 19.817 4.45498 18.0121ZM9.20558 23.5605C9.53278 23.6139 9.87475 23.6358 10.2167 23.5993C10.9302 23.8593 12.5539 24.435 13.4272 24.6026C13.501 24.6974 13.6191 24.8042 13.8061 24.9038C12.8565 24.848 11.8995 24.6633 10.9572 24.3403C10.3373 24.1289 9.7542 23.8666 9.20558 23.5605ZM15.7939 24.8358C14.8345 24.8115 14.3227 24.6609 14.0521 24.52C14.5786 24.2892 15.6906 23.7912 16.286 23.4196C16.746 23.388 19.4989 23.1475 21.472 21.7653L21.8386 21.9718C20.1903 23.5386 18.0622 24.5467 15.7939 24.8358Z" fill="#010D18"/>
<path d="M14.3125 11.57C14.3125 11.57 15.8107 9.50517 16.1503 9.57562C16.8908 9.73109 19.346 10.6785 19.5379 10.9821C19.7323 11.2858 19.8405 13.7053 19.8405 13.7053C19.8405 13.7053 19.4124 11.2251 19.2648 11.1522C18.202 10.6275 16.2806 9.91085 15.9411 10.1659C14.5782 11.1983 14.6692 11.3781 14.3125 11.57Z" fill="#FBFBFB"/>
<path d="M11.6582 21.5567C11.7861 21.5737 13.8478 21.2822 14.0175 21.445C14.1873 21.6077 15.3903 22.7325 15.3903 22.7325C15.3903 22.7325 14.175 21.8288 13.8305 21.7486C13.4861 21.6709 11.6582 21.5567 11.6582 21.5567Z" fill="#FBFBFB"/>
<path d="M5.21289 11.5871C5.21289 11.5871 6.3786 10.6057 6.48435 10.7588C6.59011 10.9142 7.92551 12.9111 7.89846 13.1005C7.87141 13.29 7.58859 14.4342 7.58859 14.4342C7.58859 14.4342 7.66728 13.1856 7.6058 13.0204C7.49513 12.7119 6.3909 11.1329 6.27285 11.1304C6.15235 11.1304 5.21289 11.5871 5.21289 11.5871Z" fill="#FBFBFB"/>
</svg>
