<svg width="87" height="140" viewBox="0 0 87 140" fill="none" xmlns="http://www.w3.org/2000/svg">
<g opacity="0.6" filter="url(#filter0_f)">
<ellipse cx="16.0511" cy="69.9399" rx="36.657" ry="37.921" transform="rotate(-26.548 16.0511 69.9399)" fill="#FBFBFB"/>
<path d="M-5.93848 37.4842C-22.2825 48.4011 -27.7204 69.6115 -19.4292 86.8438L-19.4461 86.8522C-19.4227 86.891 -19.3941 86.9232 -19.3707 86.962C-18.5964 88.5509 -17.7123 90.1065 -16.7018 91.6204C-4.73898 109.516 19.5444 114.34 37.4345 102.384C55.3296 90.4209 60.1538 66.1375 48.1978 48.2474C36.2401 30.3456 11.9566 25.5214 -5.93848 37.4842ZM43.5322 82.2848C41.7958 82.8631 37.6502 84.0711 34.048 83.7777C31.28 79.0127 26.4551 70.876 25.6764 69.5585C26.7425 67.058 29.5624 60.2951 30.2782 57.3079C33.4713 56.6053 39.7642 55.3516 43.2387 55.1152C45.9907 57.861 47.9728 61.8629 49.0153 64.2988C49.484 71.8258 45.0212 79.8399 43.5322 82.2848ZM8.12658 70.849C5.3213 75.0771 0.458482 81.9015 -0.790256 83.6513C-2.88156 83.581 -7.71095 83.3319 -10.2243 82.5623C-14.7162 75.9555 -16.3276 68.3887 -16.7254 66.176C-15.5792 63.4719 -12.7922 57.3813 -9.85593 54.6149C-7.57264 54.7246 -1.33314 55.1206 3.35063 56.4428C4.22495 59.227 7.07308 68.204 8.12658 70.849ZM-12.1993 90.5132C-13.0664 90.2909 -14.1418 89.8688 -15.2629 89.0742C-19.6703 81.9502 -21.315 73.8407 -20.4681 66.0405L-18.1329 67.1297C-17.584 69.9531 -15.9541 76.6148 -11.941 82.8069C-12.2187 84.4879 -12.6493 87.8385 -12.1993 90.5132ZM3.53177 54.8895C-1.18413 53.5959 -7.13033 53.1892 -9.58216 53.0788C-9.5668 51.2418 -8.45175 46.0634 -8.45175 46.0634C-8.37225 45.9862 -0.342686 38.7457 7.28906 36.4335C9.84331 36.1988 14.0356 36.0191 16.3324 37.0053C16.2736 40.0876 16.1453 44.1422 15.9553 46.7134C13.3087 47.7551 5.5331 52.4516 3.53177 54.8895ZM42.6039 53.6213C38.6319 53.9568 32.4821 55.2449 30.1172 55.7601C28.5004 54.559 20.1624 48.4147 17.4902 46.849C17.7239 43.8566 17.8334 39.4076 17.8773 37.1696C20.0659 36.9014 27.4123 36.5179 27.4123 36.5179C27.4964 36.5603 35.9257 40.418 42.7146 47.9689C42.7196 47.9622 42.8247 52.267 42.6039 53.6213ZM43.549 46.5715C39.8916 42.5919 35.8931 39.6645 32.8682 37.7688C36.9539 39.9382 40.6741 42.8983 43.7663 46.6195C43.6854 46.6006 43.6113 46.5869 43.549 46.5715ZM5.07448 35.087C5.10089 35.2337 5.13239 35.3737 5.15208 35.5154C-2.21697 38.3325 -9.18279 44.6129 -9.49737 44.9033L-9.47556 44.9304L-11.5061 45.73C-9.48852 43.4522 -7.15155 41.3948 -4.50387 39.625C-1.4693 37.6089 1.75551 36.0958 5.07448 35.087ZM-11.4794 92.23C-10.0463 93.8837 -5.30107 99.0235 -0.365773 100.684C0.123846 101.35 0.999289 102.497 1.97408 103.667C-3.98137 101.246 -9.35271 97.2285 -13.4394 91.7625C-12.6886 92.0131 -12.0133 92.1538 -11.4794 92.23ZM5.06099 104.754C3.97127 103.666 2.63411 102.053 1.53895 100.624C2.97749 99.9362 6.02571 98.3213 7.94675 96.1713C7.94675 96.1713 1.94088 87.4588 0.511082 84.4871C1.8208 82.6566 6.51757 76.0659 9.31269 71.8512C12.3293 72.3463 21.7942 71.536 24.5813 70.7695C25.7922 72.8151 29.9187 79.7795 32.4874 84.1931C31.9915 85.6458 30.3164 89.6085 25.4095 95.1636C20.2779 96.8515 7.05246 95.1044 6.92442 95.0921L7.93494 96.1729L7.11856 96.7918C7.62057 96.8543 19.4162 98.3129 25.1739 96.8447C26.4443 97.8473 29.0254 99.8828 30.429 100.849C28.8269 102.912 26.4803 104.382 24.8929 105.21C18.3135 106.913 11.4328 106.708 5.06099 104.754ZM30.2274 103.38C31.0511 102.597 31.8179 101.709 32.4234 100.698C34.6164 99.2922 39.5634 96.0597 41.8312 94.0239C42.2458 94.0204 42.7855 93.9213 43.4473 93.6187C41.3312 96.0967 38.8436 98.3255 36.0033 100.224C34.1379 101.476 32.2076 102.521 30.2274 103.38ZM47.365 88.0448C45.3159 90.6157 43.8422 91.6989 42.8933 92.1436C43.3422 90.2223 44.2609 86.1421 44.4621 83.7378C45.325 82.4146 50.3457 74.3892 50.5961 66.1065L51.9246 65.5367C52.8559 73.3183 51.2502 81.242 47.365 88.0448Z" fill="#010D18"/>
<path d="M7.59488 64.3414C7.59488 64.3414 4.97551 55.9282 5.87171 55.1478C7.83149 53.4496 15.5246 48.7225 16.7612 48.8333C18.003 48.9375 24.9221 53.7029 24.9221 53.7029C24.9221 53.7029 17.1743 49.6843 16.6678 49.9352C13.0205 51.7417 7.06872 55.4928 7.07332 56.9541C7.11516 62.8379 7.80063 62.9652 7.59488 64.3414Z" fill="#FBFBFB"/>
<path d="M29.7478 92.4848C30.0591 92.1708 33.5108 85.9277 34.3118 85.8043C35.1128 85.6809 40.7102 84.7464 40.7102 84.7464C40.7102 84.7464 35.6992 86.1769 34.7659 86.9504C33.8394 87.7289 29.7478 92.4848 29.7478 92.4848Z" fill="#FBFBFB"/>
<path d="M-11.155 89.2433C-11.155 89.2433 -11.4622 84.0039 -10.8202 84.035C-10.1715 84.0711 -1.88638 84.5979 -1.41793 85.0682C-0.949479 85.5385 1.63239 88.705 1.63239 88.705C1.63239 88.705 -1.66031 85.878 -2.24447 85.7005C-3.32688 85.3576 -9.97804 85.073 -10.2287 85.3906C-10.4777 85.72 -11.155 89.2433 -11.155 89.2433Z" fill="#FBFBFB"/>
</g>
<defs>
<filter id="filter0_f" x="-42.9266" y="11.2563" width="117.35" height="117.351" filterUnits="userSpaceOnUse" color-interpolation-filters="sRGB">
<feFlood flood-opacity="0" result="BackgroundImageFix"/>
<feBlend mode="normal" in="SourceGraphic" in2="BackgroundImageFix" result="shape"/>
<feGaussianBlur stdDeviation="2" result="effect1_foregroundBlur"/>
</filter>
</defs>
</svg>
