<svg width="141" height="141" viewBox="0 0 141 141" fill="none" xmlns="http://www.w3.org/2000/svg">
<ellipse cx="70.7654" cy="70.8661" rx="36.657" ry="37.921" transform="rotate(-26.548 70.7654 70.8661)" fill="#FBFBFB"/>
<path d="M48.7759 38.4104C32.4319 49.3273 26.994 70.5377 35.2851 87.77L35.2682 87.7784C35.2917 87.8173 35.3202 87.8494 35.3437 87.8882C36.118 89.4771 37.002 91.0327 38.0126 92.5466C49.9754 110.442 74.2588 115.266 92.1488 103.31C110.044 91.3471 114.868 67.0637 102.912 49.1736C90.9544 31.2718 66.671 26.4476 48.7759 38.4104ZM98.2466 83.211C96.5101 83.7893 92.3646 84.9973 88.7623 84.7039C85.9943 79.939 81.1695 71.8022 80.3907 70.4847C81.4569 67.9842 84.2768 61.2213 84.9926 58.2341C88.1857 57.5315 94.4786 56.2778 97.9531 56.0414C100.705 58.7872 102.687 62.7891 103.73 65.225C104.198 72.752 99.7356 80.7661 98.2466 83.211ZM62.8409 71.7752C60.0357 76.0034 55.1728 82.8277 53.9241 84.5775C51.8328 84.5072 47.0034 84.2581 44.49 83.4885C39.9981 76.8817 38.3868 69.3149 37.989 67.1022C39.1351 64.3981 41.9221 58.3075 44.8584 55.5411C47.1417 55.6508 53.3812 56.0468 58.065 57.369C58.9393 60.1532 61.7874 69.1302 62.8409 71.7752ZM42.5151 91.4395C41.6479 91.2171 40.5726 90.795 39.4514 90.0004C35.044 82.8764 33.3994 74.7669 34.2462 66.9667L36.5814 68.0559C37.1303 70.8793 38.7602 77.541 42.7734 83.7331C42.4957 85.4141 42.0651 88.7647 42.5151 91.4395ZM58.2461 55.8157C53.5302 54.5221 47.584 54.1154 45.1322 54.005C45.1476 52.168 46.2626 46.9896 46.2626 46.9896C46.3421 46.9124 54.3717 39.6719 62.0034 37.3597C64.5577 37.125 68.7499 36.9453 71.0467 37.9315C70.9879 41.0139 70.8597 45.0684 70.6697 47.6396C68.023 48.6813 60.2475 53.3778 58.2461 55.8157ZM97.3183 54.5475C93.3462 54.883 87.1964 56.1711 84.8316 56.6863C83.2147 55.4853 74.8767 49.3409 72.2045 47.7752C72.4383 44.7828 72.5478 40.3338 72.5916 38.0958C74.7803 37.8276 82.1266 37.4441 82.1266 37.4441C82.2108 37.4866 90.64 41.3442 97.4289 48.8951C97.434 48.8884 97.5391 53.1932 97.3183 54.5475ZM98.2634 47.4977C94.6059 43.5182 90.6075 40.5907 87.5826 38.695C91.6682 40.8644 95.3885 43.8245 98.4806 47.5457C98.3998 47.5268 98.3257 47.5131 98.2634 47.4977ZM59.7888 36.0132C59.8152 36.1599 59.8467 36.2999 59.8664 36.4416C52.4974 39.2587 45.5316 45.5391 45.217 45.8295L45.2388 45.8566L43.2083 46.6562C45.2258 44.3784 47.5628 42.321 50.2105 40.5512C53.2451 38.5351 56.4699 37.022 59.7888 36.0132ZM43.235 93.1562C44.6681 94.8099 49.4133 99.9497 54.3486 101.61C54.8382 102.276 55.7136 103.424 56.6884 104.593C50.733 102.173 45.3616 98.1547 41.275 92.6887C42.0257 92.9393 42.701 93.08 43.235 93.1562ZM59.7753 105.68C58.6856 104.593 57.3485 102.98 56.2533 101.55C57.6918 100.862 60.7401 99.2475 62.6611 97.0975C62.6611 97.0975 56.6552 88.385 55.2254 85.4133C56.5352 83.5828 61.2319 76.9921 64.027 72.7774C67.0437 73.2725 76.5085 72.4622 79.2957 71.6957C80.5065 73.7413 84.633 80.7057 87.2018 85.1193C86.7058 86.572 85.0308 90.5347 80.1239 96.0898C74.9922 97.7777 61.7668 96.0306 61.6388 96.0184L62.6493 97.0991L61.8329 97.718C62.3349 97.7805 74.1305 99.2391 79.8883 97.7709C81.1587 98.7735 83.7397 100.809 85.1434 101.775C83.5412 103.839 81.1947 105.308 79.6073 106.136C73.0278 107.839 66.1472 107.634 59.7753 105.68ZM84.9417 104.306C85.7654 103.523 86.5323 102.635 87.1378 101.624C89.3307 100.218 94.2777 96.9859 96.5455 94.9501C96.9602 94.9466 97.4999 94.8475 98.1617 94.545C96.0456 97.0229 93.558 99.2517 90.7177 101.151C88.8523 102.403 86.9219 103.447 84.9417 104.306ZM102.079 88.971C100.03 91.5419 98.5566 92.6251 97.6077 93.0698C98.0565 91.1485 98.9753 87.0683 99.1765 84.664C100.039 83.3408 105.06 75.3154 105.31 67.0327L106.639 66.463C107.57 74.2445 105.965 82.1682 102.079 88.971Z" fill="#010D18"/>
<path d="M62.3092 65.2675C62.3092 65.2675 59.6898 56.8543 60.586 56.074C62.5458 54.3758 70.2389 49.6486 71.4756 49.7595C72.7173 49.8636 79.6364 54.629 79.6364 54.629C79.6364 54.629 71.8887 50.6105 71.3821 50.8614C67.7348 52.6678 61.783 56.419 61.7876 57.8802C61.8295 63.7641 62.515 63.8914 62.3092 65.2675Z" fill="#FBFBFB"/>
<path d="M84.4622 93.411C84.7735 93.097 88.2252 86.8538 89.0262 86.7304C89.8272 86.6071 95.4246 85.6726 95.4246 85.6726C95.4246 85.6726 90.4135 87.1031 89.4803 87.8765C88.5538 88.6551 84.4622 93.411 84.4622 93.411Z" fill="#FBFBFB"/>
<path d="M43.5593 90.1694C43.5593 90.1694 43.2521 84.9301 43.8942 84.9611C44.5429 84.9973 52.828 85.5241 53.2964 85.9944C53.7649 86.4647 56.3467 89.6312 56.3467 89.6312C56.3467 89.6312 53.054 86.8041 52.4699 86.6266C51.3875 86.2838 44.7363 85.9991 44.4857 86.3167C44.2367 86.6461 43.5593 90.1694 43.5593 90.1694Z" fill="#FBFBFB"/>
</svg>
