<svg width="72" height="98" viewBox="0 0 72 98" fill="none" xmlns="http://www.w3.org/2000/svg">
<g filter="url(#filter0_f)">
<ellipse cx="49.8769" cy="49.143" rx="26.1691" ry="27.0715" transform="rotate(-32.8372 49.8769 49.143)" fill="#FBFBFB"/>
<path d="M31.7351 27.8322C20.9913 36.857 18.7913 52.333 26.0223 63.9126L26.011 63.9198C26.0306 63.9456 26.0534 63.9661 26.0731 63.9919C26.7468 65.0588 27.4958 66.0935 28.3312 67.0887C38.2195 78.8515 55.8281 80.3756 67.5878 70.4926C79.3505 60.6043 80.8747 42.9957 70.9917 31.236C61.1065 19.4681 43.4978 17.9439 31.7351 27.8322ZM70.3429 55.7536C69.156 56.2998 66.3088 57.4811 63.7297 57.5547C61.3929 54.39 57.3328 48.9935 56.6772 48.1195C57.2382 46.2618 58.7103 41.2423 58.9846 39.0667C61.1955 38.3184 65.5628 36.9366 68.0098 36.4972C70.1774 38.2303 71.8968 40.915 72.8271 42.562C73.7484 47.8665 71.2083 53.9023 70.3429 55.7536ZM44.3249 50.4077C42.6649 53.6274 39.748 58.8502 38.9988 60.1895C37.5093 60.3032 34.0629 60.5041 32.2192 60.1546C28.5151 55.8177 26.7799 50.5744 26.3246 49.0353C26.9264 47.0269 28.4278 42.4871 30.295 40.2944C31.9238 40.1937 36.3823 39.9867 39.8093 40.5586C40.6474 42.4659 43.3705 48.6132 44.3249 50.4077ZM31.4396 65.951C30.8069 65.861 30.0108 65.6456 29.1531 65.1694C25.4685 60.459 23.6673 54.8331 23.6582 49.2319L25.4004 49.8221C26.0107 51.7827 27.6883 56.3824 31.0202 60.4624C30.9546 61.6769 30.9111 64.0882 31.4396 65.951ZM39.8163 39.4423C36.3688 38.8932 32.1176 39.0696 30.3691 39.183C30.2364 37.8783 30.6226 34.1165 30.6226 34.1165C30.673 34.0555 35.8045 28.2897 41.0391 26.0522C42.8333 25.6858 45.794 25.2305 47.501 25.7507C47.7003 27.9425 47.9264 30.8296 47.9926 32.669C46.196 33.6151 41.0458 37.5558 39.8163 39.4423ZM67.4425 35.4867C64.6502 36.0355 60.3871 37.4304 58.7493 37.9809C57.5081 37.2551 51.1109 33.5472 49.0923 32.6451C49.0242 30.5035 48.754 27.3379 48.61 25.7464C50.1421 25.385 55.3251 24.5383 55.3251 24.5383C55.3881 24.5618 61.6711 26.64 67.079 31.4672C67.0821 31.462 67.4933 34.5085 67.4425 35.4867ZM67.5619 30.4103C64.6554 27.8725 61.5891 26.1079 59.2944 24.9993C62.3632 26.2191 65.2346 28.0286 67.7198 30.4274C67.661 30.4203 67.6073 30.4164 67.5619 30.4103ZM39.3624 25.2698C39.3926 25.3719 39.4259 25.4688 39.4509 25.5678C34.4422 28.1431 29.9905 33.1444 29.7899 33.3751L29.8075 33.3926L28.4292 34.1188C29.6827 32.3447 31.1801 30.702 32.9205 29.2391C34.9162 27.5712 37.0861 26.2453 39.3624 25.2698ZM32.0847 67.1129C33.231 68.1743 37.0001 71.4503 40.632 72.2424C41.0315 72.6767 41.7425 73.4226 42.5257 74.1766C38.1104 72.9245 33.9847 70.4934 30.6573 66.9344C31.2096 67.0535 31.6999 67.1006 32.0847 67.1129ZM44.8011 74.7064C43.9428 74.0197 42.8678 72.9798 41.9788 72.0508C42.9459 71.4506 44.9826 70.0663 46.1776 68.3904C46.1776 68.3904 41.2345 62.6777 39.9875 60.6808C40.7738 59.2795 43.5911 54.2355 45.2449 51.0261C47.4243 51.1415 54.0771 49.8263 55.9949 49.0645C57.0141 50.4213 60.4869 55.0405 62.6548 57.9715C62.4165 59.0411 61.5378 61.984 58.4903 66.3096C54.9809 67.9087 45.4596 67.7033 45.3678 67.7046L46.1694 68.3925L45.6385 68.8954C45.9996 68.9006 54.4837 69.0131 58.4546 67.521C59.4345 68.133 61.4252 69.3756 62.4967 69.9513C61.5212 71.5409 59.971 72.767 58.9094 73.4789C54.3738 75.2016 49.4753 75.5946 44.8011 74.7064ZM62.5515 71.7628C63.0749 71.1433 63.5495 70.4527 63.9002 69.6882C65.3463 68.5192 68.6039 65.8386 70.0539 64.2167C70.3478 64.1817 70.7231 64.0692 71.169 63.8028C69.8612 65.7266 68.2703 67.5027 66.4034 69.0722C65.1776 70.1065 63.8895 70.9986 62.5515 71.7628ZM73.5131 59.5411C72.2601 61.5257 71.2991 62.4096 70.6606 62.7994C70.8288 61.4009 71.1616 58.4337 71.1164 56.7119C71.6252 55.7055 74.5603 49.6181 74.0902 43.7211L74.9883 43.213C76.2577 48.6619 75.738 54.4101 73.5131 59.5411Z" fill="#010D18"/>
<path d="M43.4386 45.8316C43.4386 45.8316 40.9219 40.0664 41.4969 39.4426C42.7547 38.0843 47.844 34.1283 48.7302 34.1103C49.6195 34.0871 54.9019 36.9275 54.9019 36.9275C54.9019 36.9275 49.0899 34.6818 48.75 34.8995C46.3032 36.4666 42.3732 39.5938 42.4908 40.6304C42.9806 44.8022 43.477 44.839 43.4386 45.8316Z" fill="#FBFBFB"/>
<path d="M61.3592 64.0695C61.5555 63.8224 63.5165 59.1223 64.0753 58.9721C64.6341 58.8219 68.5328 57.7211 68.5328 57.7211C68.5328 57.7211 65.0889 59.1281 64.4872 59.7499C63.8906 60.3748 61.3592 64.0695 61.3592 64.0695Z" fill="#FBFBFB"/>
<path d="M32.0812 64.9682C32.0812 64.9682 31.4534 61.2744 31.9114 61.2462C32.3746 61.2211 38.2949 60.947 38.664 61.2441C39.0332 61.5412 41.1129 63.5862 41.1129 63.5862C41.1129 63.5862 38.5554 61.8376 38.127 61.7574C37.3321 61.5987 32.5902 61.9169 32.4372 62.1619C32.2863 62.4151 32.0812 64.9682 32.0812 64.9682Z" fill="#FBFBFB"/>
</g>
<defs>
<filter id="filter0_f" x="7.45886" y="6.95769" width="84.4055" height="84.4061" filterUnits="userSpaceOnUse" color-interpolation-filters="sRGB">
<feFlood flood-opacity="0" result="BackgroundImageFix"/>
<feBlend mode="normal" in="SourceGraphic" in2="BackgroundImageFix" result="shape"/>
<feGaussianBlur stdDeviation="2" result="effect1_foregroundBlur"/>
</filter>
</defs>
</svg>
