<svg width="91" height="140" viewBox="0 0 91 140" fill="none" xmlns="http://www.w3.org/2000/svg">
<g filter="url(#filter0_f)">
<ellipse cx="20.0511" cy="69.9399" rx="36.657" ry="37.921" transform="rotate(-26.548 20.0511 69.9399)" fill="#FBFBFB"/>
<path d="M-1.93848 37.4842C-18.2825 48.4011 -23.7204 69.6115 -15.4292 86.8438L-15.4461 86.8522C-15.4227 86.891 -15.3941 86.9232 -15.3707 86.962C-14.5964 88.5509 -13.7123 90.1065 -12.7018 91.6204C-0.738983 109.516 23.5444 114.34 41.4345 102.384C59.3296 90.4209 64.1538 66.1375 52.1978 48.2474C40.2401 30.3456 15.9566 25.5214 -1.93848 37.4842ZM47.5322 82.2848C45.7958 82.8631 41.6502 84.0711 38.048 83.7777C35.28 79.0127 30.4551 70.876 29.6764 69.5585C30.7425 67.058 33.5624 60.2951 34.2782 57.3079C37.4713 56.6053 43.7642 55.3516 47.2387 55.1152C49.9907 57.861 51.9728 61.8629 53.0153 64.2988C53.484 71.8258 49.0212 79.8399 47.5322 82.2848ZM12.1266 70.849C9.3213 75.0771 4.45848 81.9015 3.20974 83.6513C1.11844 83.581 -3.71095 83.3319 -6.22433 82.5623C-10.7162 75.9555 -12.3276 68.3887 -12.7254 66.176C-11.5792 63.4719 -8.79221 57.3813 -5.85593 54.6149C-3.57264 54.7246 2.66686 55.1206 7.35063 56.4428C8.22495 59.227 11.0731 68.204 12.1266 70.849ZM-8.19928 90.5132C-9.06641 90.2909 -10.1418 89.8688 -11.2629 89.0742C-15.6703 81.9502 -17.315 73.8407 -16.4681 66.0405L-14.1329 67.1297C-13.584 69.9531 -11.9541 76.6148 -7.94098 82.8069C-8.21867 84.4879 -8.64929 87.8385 -8.19928 90.5132ZM7.53177 54.8895C2.81587 53.5959 -3.13033 53.1892 -5.58216 53.0788C-5.5668 51.2418 -4.45175 46.0634 -4.45175 46.0634C-4.37225 45.9862 3.65731 38.7457 11.2891 36.4335C13.8433 36.1988 18.0356 36.0191 20.3324 37.0053C20.2736 40.0876 20.1453 44.1422 19.9553 46.7134C17.3087 47.7551 9.5331 52.4516 7.53177 54.8895ZM46.6039 53.6213C42.6319 53.9568 36.4821 55.2449 34.1172 55.7601C32.5004 54.559 24.1624 48.4147 21.4902 46.849C21.7239 43.8566 21.8334 39.4076 21.8773 37.1696C24.0659 36.9014 31.4123 36.5179 31.4123 36.5179C31.4964 36.5603 39.9257 40.418 46.7146 47.9689C46.7196 47.9622 46.8247 52.267 46.6039 53.6213ZM47.549 46.5715C43.8916 42.5919 39.8931 39.6645 36.8682 37.7688C40.9539 39.9382 44.6741 42.8983 47.7663 46.6195C47.6854 46.6006 47.6113 46.5869 47.549 46.5715ZM9.07448 35.087C9.10089 35.2337 9.13239 35.3737 9.15208 35.5154C1.78303 38.3325 -5.18279 44.6129 -5.49737 44.9033L-5.47556 44.9304L-7.5061 45.73C-5.48852 43.4522 -3.15155 41.3948 -0.503867 39.625C2.5307 37.6089 5.75551 36.0958 9.07448 35.087ZM-7.47935 92.23C-6.04627 93.8837 -1.30107 99.0235 3.63423 100.684C4.12385 101.35 4.99929 102.497 5.97408 103.667C0.0186256 101.246 -5.35271 97.2285 -9.43938 91.7625C-8.68864 92.0131 -8.01333 92.1538 -7.47935 92.23ZM9.06099 104.754C7.97127 103.666 6.63411 102.053 5.53895 100.624C6.97749 99.9362 10.0257 98.3213 11.9467 96.1713C11.9467 96.1713 5.94088 87.4588 4.51108 84.4871C5.8208 82.6566 10.5176 76.0659 13.3127 71.8512C16.3293 72.3463 25.7942 71.536 28.5813 70.7695C29.7922 72.8151 33.9187 79.7795 36.4874 84.1931C35.9915 85.6458 34.3164 89.6085 29.4095 95.1636C24.2779 96.8515 11.0525 95.1044 10.9244 95.0921L11.9349 96.1729L11.1186 96.7918C11.6206 96.8543 23.4162 98.3129 29.1739 96.8447C30.4443 97.8473 33.0254 99.8828 34.429 100.849C32.8269 102.912 30.4803 104.382 28.8929 105.21C22.3135 106.913 15.4328 106.708 9.06099 104.754ZM34.2274 103.38C35.0511 102.597 35.8179 101.709 36.4234 100.698C38.6164 99.2922 43.5634 96.0597 45.8312 94.0239C46.2458 94.0204 46.7855 93.9213 47.4473 93.6187C45.3312 96.0967 42.8436 98.3255 40.0033 100.224C38.1379 101.476 36.2076 102.521 34.2274 103.38ZM51.365 88.0448C49.3159 90.6157 47.8422 91.6989 46.8933 92.1436C47.3422 90.2223 48.2609 86.1421 48.4621 83.7378C49.325 82.4146 54.3457 74.3892 54.5961 66.1065L55.9246 65.5367C56.8559 73.3183 55.2502 81.242 51.365 88.0448Z" fill="#010D18"/>
<path d="M11.5949 64.3414C11.5949 64.3414 8.97551 55.9282 9.87171 55.1478C11.8315 53.4496 19.5246 48.7225 20.7612 48.8333C22.003 48.9375 28.9221 53.7029 28.9221 53.7029C28.9221 53.7029 21.1743 49.6843 20.6678 49.9352C17.0205 51.7417 11.0687 55.4928 11.0733 56.9541C11.1152 62.8379 11.8006 62.9652 11.5949 64.3414Z" fill="#FBFBFB"/>
<path d="M33.7478 92.4848C34.0591 92.1708 37.5108 85.9276 38.3118 85.8043C39.1128 85.6809 44.7102 84.7464 44.7102 84.7464C44.7102 84.7464 39.6992 86.1769 38.7659 86.9504C37.8394 87.7289 33.7478 92.4848 33.7478 92.4848Z" fill="#FBFBFB"/>
<path d="M-7.15502 89.2433C-7.15502 89.2433 -7.46221 84.0039 -6.82019 84.035C-6.17145 84.0712 2.11362 84.5979 2.58207 85.0683C3.05052 85.5386 5.63239 88.705 5.63239 88.705C5.63239 88.705 2.33969 85.878 1.75553 85.7005C0.673118 85.3577 -5.97804 85.073 -6.22868 85.3906C-6.47767 85.72 -7.15502 89.2433 -7.15502 89.2433Z" fill="#FBFBFB"/>
</g>
<defs>
<filter id="filter0_f" x="-38.9266" y="11.2563" width="117.35" height="117.351" filterUnits="userSpaceOnUse" color-interpolation-filters="sRGB">
<feFlood flood-opacity="0" result="BackgroundImageFix"/>
<feBlend mode="normal" in="SourceGraphic" in2="BackgroundImageFix" result="shape"/>
<feGaussianBlur stdDeviation="2" result="effect1_foregroundBlur"/>
</filter>
</defs>
</svg>
