<svg width="24" height="24" viewBox="0 0 24 24" fill="none" xmlns="http://www.w3.org/2000/svg">
<path fill-rule="evenodd" clip-rule="evenodd" d="M8 0H6.4V4.8H8V0ZM24 6.4C24 3.74903 21.851 1.6 19.2 1.6V3.2C20.9673 3.2 22.4 4.63269 22.4 6.4H1.6C1.6 4.63269 3.03269 3.2 4.8 3.2V1.6C2.14903 1.6 0 3.74903 0 6.4V19.2C0 21.851 2.14903 24 4.8 24H19.2C21.851 24 24 21.851 24 19.2V6.4ZM9.6 3.2H14.4V1.6H9.6V3.2ZM1.6 8V19.2C1.6 20.9673 3.03269 22.4 4.8 22.4H19.2C20.9673 22.4 22.4 20.9673 22.4 19.2V8H1.6ZM16 0H17.6V4.8H16V0ZM8 9.6H3.2V14.4H8V9.6ZM9.6 9.6H14.4V14.4H9.6V9.6ZM8 16H3.2V20.8H8V16ZM9.6 16H14.4V20.8H9.6V16ZM20.8 9.6H16V14.4H20.8V9.6Z" fill="#0878CA"/>
</svg>
