<svg width="31" height="26" viewBox="0 0 31 26" fill="none" xmlns="http://www.w3.org/2000/svg">
<path d="M30 22.3333C30 23.0406 29.7222 23.7189 29.2278 24.219C28.7334 24.719 28.0628 25 27.3636 25H3.63636C2.93716 25 2.26659 24.719 1.77217 24.219C1.27776 23.7189 1 23.0406 1 22.3333V7.66667C1 6.95942 1.27776 6.28115 1.77217 5.78105C2.26659 5.28095 2.93716 5 3.63636 5H8.90909L11.5455 1H19.4545L22.0909 5H27.3636C28.0628 5 28.7334 5.28095 29.2278 5.78105C29.7222 6.28115 30 6.95942 30 7.66667V22.3333Z" stroke="#0280DB" stroke-width="2" stroke-linecap="round" stroke-linejoin="round"/>
<path d="M15.6509 19.768C18.5629 19.768 20.9236 17.3802 20.9236 14.4347C20.9236 11.4891 18.5629 9.10132 15.6509 9.10132C12.7389 9.10132 10.3782 11.4891 10.3782 14.4347C10.3782 17.3802 12.7389 19.768 15.6509 19.768Z" stroke="#0280DB" stroke-width="2" stroke-linecap="round" stroke-linejoin="round"/>
</svg>
