<svg width="139" height="136" viewBox="0 0 139 136" fill="none" xmlns="http://www.w3.org/2000/svg">
<path d="M104.79 73.9093L111.751 79.852L94.0708 100.559L92.4156 99.1459L108.682 80.094L105.032 76.9778L84.208 101.368L87.8578 104.484L90.225 101.712L91.8803 103.125L88.0998 107.553L81.1395 101.61L104.79 73.9093Z" fill="#323232"/>
<path d="M52.4982 29.1336L74.4138 55.2861C78.4434 60.086 78.4015 67.0904 74.3383 71.8493C70.2187 76.6743 63.299 77.7063 57.9765 74.5213L28.7273 56.9748L33.9987 50.8007L35.654 52.214L32.0502 56.4349L59.0954 72.6577C69.2772 78.7323 80.4506 65.8636 72.7487 56.6834L52.4858 32.5L37.9858 49.4828L36.3306 48.0696L52.4982 29.1336Z" fill="#323232"/>
<path d="M57.2581 44.9606C56.6119 44.6951 55.8768 44.8688 55.4246 45.3985L52.2942 49.0649L47.8419 47.2238C47.1957 46.9583 46.4607 47.132 46.0084 47.6617C45.5562 48.1914 45.4998 48.9446 45.8633 49.5411L48.3795 53.6499L45.2492 57.3162C44.7969 57.8459 44.7405 58.5991 45.1041 59.1957C45.4676 59.7922 46.1693 60.0765 46.8442 59.923L51.5328 58.789L54.0572 62.9048C54.3237 63.347 54.7775 63.6199 55.291 63.6721C56.1445 63.7283 56.9483 63.0551 57.0186 62.185L57.3965 57.3849L62.0934 56.258C62.957 56.051 63.4747 55.1765 63.2759 54.3199C63.1439 53.8209 62.8032 53.4155 62.3248 53.2217L57.8641 51.3735L58.2491 46.5652C58.295 45.8745 57.9042 45.2261 57.2581 44.9606ZM55.6679 51.6162C55.615 52.3151 56.0058 52.9635 56.6519 53.2291L59.8592 54.5508L56.4884 55.3647C55.8218 55.5253 55.3131 56.1212 55.2589 56.8047L54.9835 60.2614L53.1753 57.301C52.8118 56.7044 52.1101 56.4201 51.4282 56.5819L48.0491 57.3887L50.3033 54.7486C50.7555 54.219 50.8273 53.4646 50.4567 52.8763L48.6403 49.9088L51.8558 51.2376C52.502 51.5031 53.2287 51.3223 53.681 50.7926L55.9351 48.1525L55.6679 51.6162Z" fill="#323232"/>
<path d="M63.1574 13.3643L55.4127 22.435L53.9138 20.6544C55.5964 17.9126 55.1007 14.2698 52.5765 12.1146L50.1764 10.0654L9.53824 57.6619L11.9383 59.7111C14.4626 61.8663 18.131 61.7932 20.5751 59.7016L22.5758 60.8946L14.8311 69.9653C11.7502 73.5738 12.8445 79.13 17.118 81.2476C19.474 81.8569 39.1498 96.6385 60.5225 82.4329C63.64 83.1056 66.9035 82.9871 70.0274 82.077C72.7723 83.605 74.4473 86.051 75.122 89.5176L71.5465 93.7054L76.0322 97.5353L71.9338 102.336L87.1703 115.345L83.8633 119.218L88.2745 122.984L89.9439 124.381C134.596 72.0834 100.572 111.933 128.688 79.0023L127.019 77.6056L122.608 73.8393L119.301 77.7126L104.064 64.7036L99.9657 69.5038L95.48 65.6739L91.9044 69.8616C88.1542 69.7791 85.4771 68.5237 83.7525 66.0352C84.1842 62.7978 83.7954 59.5325 82.6329 56.5366C93.3223 33.2237 75.6297 16.0858 74.6587 13.8544C71.882 9.96687 66.2171 9.78067 63.1574 13.3643ZM13.3516 58.0559L12.6067 57.4199L50.4184 13.1339L51.1632 13.7698C53.0419 15.3739 53.2563 18.1898 51.6593 20.0602L19.642 57.5598C18.038 59.4385 15.2303 59.6599 13.3516 58.0559ZM18.0916 79.3029C15.0705 77.7966 14.3382 73.8945 16.4864 71.3786L24.4642 62.0347L26.3597 63.1666L18.1416 72.7918C16.8768 74.2733 17.3709 76.5268 19.0569 77.351C22.0757 78.2399 36.9099 90.1614 55.2968 80.4753C56.0956 80.914 56.9202 81.2889 57.7636 81.6084C37.9677 93.2968 20.704 80.0308 18.0916 79.3029ZM28.2481 64.3067L53.041 79.1788C36.2265 87.0737 23.2348 76.3963 20.0222 75.3992C19.6052 75.2005 19.4435 74.6189 19.7969 74.2051L28.2481 64.3067ZM122.85 76.9078L125.606 79.2609L89.6877 121.329L86.9318 118.976L122.85 76.9078ZM104.306 67.7721L117.887 79.3678L88.5835 113.689L75.0023 102.094L104.306 67.7721ZM95.722 68.7424L98.5524 71.159L77.4455 95.8801L74.615 93.4634L95.722 68.7424ZM72.6011 81.1407C74.9858 80.0572 77.3963 78.3233 79.3042 76.0888C81.1555 73.9204 82.4597 71.3706 83.1761 68.9058C83.1808 68.8669 83.2007 68.8267 83.2137 68.7948C84.9652 70.5478 87.2784 71.5927 90.1379 71.9307L76.8674 87.4734C76.0632 84.812 74.6379 82.6937 72.6011 81.1407ZM77.7525 52.4985C83.1025 58.8693 83.1394 68.2449 77.6489 74.6755C72.1867 81.073 62.9331 82.5592 55.7552 78.2624L22.0745 58.0627L52.5302 22.3922L77.7525 52.4985ZM59.6648 27.5107L68.1231 17.604C68.4623 17.2068 69.0608 17.2599 69.3461 17.6465C70.8451 20.7008 83.3751 31.8855 78.2405 49.6812L59.6648 27.5107ZM72.8906 15.1208C74.0321 17.6552 89.8424 32.5564 81.3874 53.9563C80.9397 53.1734 80.433 52.426 79.8816 51.6976C86.5447 32.0446 72.438 19.1703 71.1224 16.3872C70.0193 14.8301 67.7186 14.7259 66.4679 16.1908L58.2427 25.8243L56.8277 24.1297L64.8126 14.7775C66.9537 12.2698 70.9294 12.3731 72.8906 15.1208Z" fill="#323232"/>
<path d="M122.849 76.9079L86.9316 118.976L89.6876 121.329L125.605 79.261L122.849 76.9079Z" fill="#CCCDCD"/>
<path d="M75.002 102.094L88.5832 113.689L117.887 79.368L104.306 67.7722L75.002 102.094ZM111.75 79.8519L94.0702 100.559L92.415 99.1458L108.682 80.0939L105.032 76.9777L84.2074 101.368L87.8573 104.484L90.2245 101.711L91.8797 103.125L88.0992 107.552L81.1389 101.61L104.79 73.9092L111.75 79.8519Z" fill="#CCCDCD"/>
<path d="M95.7215 68.7426L74.6146 93.4636L77.445 95.8803L98.552 71.1592L95.7215 68.7426Z" fill="#CCCDCD"/>
<path d="M76.8672 87.474C76.063 84.8126 74.6378 82.6943 72.601 81.1413C74.9856 80.0578 77.3961 78.3239 79.304 76.0894C81.1554 73.921 82.4595 71.3712 83.1759 68.9064C83.1806 68.8674 83.2006 68.8273 83.2135 68.7954C84.965 70.5484 87.2782 71.5933 90.1377 71.9313L76.8672 87.474Z" fill="#CCCDCD"/>
<path d="M57.7635 81.6084C37.9676 93.2969 20.7039 80.0309 18.0915 79.3029C15.0704 77.7967 14.3381 73.8946 16.4862 71.3787L24.4641 62.0348L26.3596 63.1667L18.1415 72.7919C16.8766 74.2733 17.3708 76.5269 19.0568 77.3511C22.0755 78.24 36.9098 90.1615 55.2967 80.4753C56.0955 80.9141 56.9201 81.289 57.7635 81.6084Z" fill="#CCCDCD"/>
<path d="M72.8902 15.1212C74.0318 17.6556 89.8421 32.5568 81.387 53.9567C80.9393 53.1738 80.4327 52.4265 79.8812 51.6981C86.5443 32.045 72.4377 19.1708 71.1221 16.3876C70.019 14.8305 67.7183 14.7263 66.4675 16.1912L58.2424 25.8247L56.8274 24.1301L64.8123 14.7779C66.9534 12.2702 70.9291 12.3735 72.8902 15.1212Z" fill="#CCCDCD"/>
<path d="M22.0744 58.0627L55.7551 78.2624C62.9329 82.5593 72.1866 81.0731 77.6488 74.6756C83.1393 68.245 83.1023 58.8693 77.7524 52.4986L52.53 22.3922L22.0744 58.0627ZM45.1044 59.1952C44.7409 58.5986 44.7973 57.8454 45.2495 57.3158L48.3799 53.6494L45.8637 49.5406C45.5002 48.9441 45.5566 48.1909 46.0088 47.6612C46.461 47.1315 47.1961 46.9578 47.8423 47.2233L52.2946 49.0644L55.425 45.398C55.8772 44.8683 56.6123 44.6946 57.2584 44.9601C57.9046 45.2256 58.2954 45.8741 58.2495 46.5647L57.8645 51.3731L62.3252 53.2212C62.8036 53.415 63.1443 53.8204 63.2763 54.3195C63.4751 55.176 62.9574 56.0505 62.0938 56.2575L57.3969 57.3844L57.019 62.1845C56.9486 63.0546 56.1449 63.7278 55.2914 63.6716C54.7779 63.6195 54.3241 63.3465 54.0576 62.9044L51.5331 58.7886L46.8445 59.9225C46.1697 60.0761 45.468 59.7918 45.1044 59.1952ZM74.4138 55.286C78.4434 60.0858 78.4014 67.0902 74.3383 71.8491C70.2187 76.6741 63.299 77.7061 57.9764 74.5211L28.7272 56.9746L33.9987 50.8005L35.6539 52.2138L32.0501 56.4347L59.0954 72.6575C69.2771 78.7321 80.4505 65.8634 72.7486 56.6832L52.4858 32.4998L37.9858 49.4826L36.3305 48.0694L52.4982 29.1334L74.4138 55.286Z" fill="#CCCDCD"/>
<path d="M56.6521 53.2289L59.8594 54.5506L56.4886 55.3645C55.822 55.5251 55.3132 56.121 55.2591 56.8046L54.9836 60.2612L53.1755 57.3008C52.812 56.7042 52.1103 56.4199 51.4283 56.5818L48.0493 57.3886L50.3035 54.7485C50.7557 54.2188 50.8274 53.4644 50.4568 52.8761L48.6404 49.9086L51.856 51.2374C52.5021 51.5029 53.2289 51.3221 53.6811 50.7924L55.9353 48.1523L55.6681 51.616C55.6152 52.3149 56.0059 52.9634 56.6521 53.2289Z" fill="#CCCDCD"/>
<path d="M50.418 13.1344L51.1629 13.7703C53.0416 15.3744 53.2559 18.1903 51.659 20.0607L19.6417 57.5603C18.0376 59.439 15.2299 59.6604 13.3512 58.0564L12.6064 57.4204L50.418 13.1344Z" fill="#CCCDCD"/>
</svg>
