<svg width="110" height="165" viewBox="0 0 110 165" fill="none" xmlns="http://www.w3.org/2000/svg">
<g opacity="0.3" filter="url(#filter0_f)">
<path d="M119.983 94.8275L126.813 102.567L103.788 122.886L102.163 121.046L123.348 102.351L119.767 98.2923L92.6461 122.226L96.2275 126.284L99.3105 123.563L100.935 125.404L96.0112 129.749L89.1813 122.009L119.983 94.8275Z" fill="#323232"/>
<path d="M68.6909 36.5375L89.0163 69.2156C92.7549 75.2143 91.5974 83.0291 86.3058 87.6988C80.9406 92.4335 73.05 92.4887 67.6116 88.0882L37.7327 63.8573L44.598 57.7989L46.2222 59.6394L41.5288 63.7812L69.1566 86.1847C79.5629 94.5823 94.0801 81.9841 86.9353 70.5118L68.1433 40.2946L49.2591 56.9594L47.6349 55.1189L68.6909 36.5375Z" fill="#323232"/>
<path d="M71.4968 54.9653C70.8174 54.5664 69.969 54.6439 69.3801 55.1636L65.3032 58.7613L60.6234 55.9996C59.9439 55.6006 59.0956 55.6781 58.5066 56.1979C57.9177 56.7176 57.7353 57.5497 58.0466 58.2735L60.2049 63.2605L56.128 66.8582C55.539 67.378 55.3567 68.2101 55.668 68.9339C55.9793 69.6577 56.7178 70.0864 57.4957 70.0219L62.9111 69.4991L65.0775 74.4953C65.3049 75.0312 65.7683 75.408 66.3335 75.5476C67.2777 75.7457 68.2819 75.1215 68.4984 74.161L69.6814 68.8609L75.1049 68.3473C76.1021 68.2531 76.8188 67.3587 76.7327 66.3707C76.6644 65.7925 76.3482 65.2858 75.8447 64.9935L71.1568 62.2225L72.3491 56.9142C72.5098 56.1503 72.1763 55.3643 71.4968 54.9653ZM68.6659 62.1452C68.496 62.9172 68.8295 63.7033 69.509 64.1022L72.8808 66.0867L68.9878 66.461C68.218 66.5347 67.5554 67.1195 67.3865 67.8741L66.5309 71.6903L64.9812 68.0979C64.6699 67.3741 63.9314 66.9454 63.1442 67.018L59.2431 67.3831L62.1788 64.7925C62.7678 64.2727 62.9675 63.4417 62.647 62.726L61.0892 59.1243L64.4691 61.118C65.1486 61.5169 65.9888 61.4303 66.5778 60.9105L69.5134 58.3198L68.6659 62.1452Z" fill="#323232"/>
<path d="M83.0938 20.6189L73.0076 29.5197L71.6161 27.2937C73.9297 24.499 73.9538 20.3526 71.4768 17.5457L69.1217 14.8769L16.1964 61.5821L18.5515 64.251C21.0285 67.0578 25.1365 67.5578 28.1973 65.6097L30.2422 67.2591L20.1559 76.16C16.1435 79.7008 16.4844 86.0787 20.9206 89.121C23.4549 90.1748 43.0821 109.8 69.2004 97.3265C72.5748 98.572 76.2378 98.9572 79.8704 98.4362C82.6933 100.578 84.1757 103.575 84.3796 107.553L79.7229 111.662L84.1247 116.65L78.787 121.36L93.7382 138.303L89.4313 142.103L93.7599 147.008L95.4026 148.833C153.555 97.5146 109.244 136.618 145.862 104.304L144.219 102.48L139.89 97.5745L135.583 101.375L120.632 84.4329L115.295 89.1432L110.893 84.1553L106.236 88.2646C102.062 87.5779 99.2713 85.7515 97.7401 82.6994C98.7354 79.1528 98.8191 75.4449 97.9959 71.9152C113.629 47.5777 96.5895 25.6354 95.859 22.9898C93.3749 18.2085 87.0786 17.1024 83.0938 20.6189ZM20.3921 62.6267L19.6612 61.7985L68.9054 18.3417L69.6363 19.17C71.4798 21.259 71.2727 24.4374 69.1928 26.2728L27.4949 63.0702C25.4059 64.9137 22.2356 64.7157 20.3921 62.6267ZM22.3162 87.1037C19.1815 84.9428 18.9825 80.4694 21.7801 78.0005L32.1701 68.8317L34.1072 70.3961L23.4044 79.8411C21.7571 81.2948 21.9516 83.8896 23.7036 85.0773C26.9335 86.5485 41.608 102.213 63.6755 94.312C64.4978 94.9286 65.3592 95.478 66.2503 95.9684C42.292 105.882 25.1179 88.3308 22.3162 87.1037ZM36.0352 71.9687L61.362 92.5067C41.3343 98.6564 28.5201 84.6736 25.091 83.0508C24.6568 82.7628 24.5685 82.0877 25.0286 81.6817L36.0352 71.9687ZM139.674 101.039L142.378 104.104L95.6005 145.384L92.8961 142.32L139.674 101.039ZM120.416 87.8977L133.743 103L95.5788 136.678L82.2518 121.576L120.416 87.8977ZM110.677 87.6201L113.454 90.7675L85.9652 115.026L83.1878 111.878L110.677 87.6201ZM82.8928 97.7988C85.7274 96.967 88.694 95.4131 91.1788 93.2203C93.5899 91.0926 95.4504 88.4522 96.6413 85.8134C96.6527 85.7707 96.6813 85.729 96.7008 85.6954C98.3787 87.9306 100.796 89.4642 103.936 90.295L86.6527 105.547C86.1766 102.447 84.921 99.8558 82.8928 97.7988ZM93.1866 66.6322C98.1504 74.5944 96.7051 85.0696 89.5545 91.3798C82.4408 97.6575 71.8721 97.8498 64.5382 91.9136L30.1315 64.0174L69.7956 29.0149L93.1866 66.6322ZM76.9508 35.8617L87.9666 26.1406C88.4083 25.7507 89.0683 25.905 89.3254 26.3819C90.5151 30.0301 102.733 44.5062 94.1781 63.5637L76.9508 35.8617ZM93.6839 24.1235C94.5568 27.1346 109.849 46.2809 97.0142 68.8365C96.6384 67.8912 96.1912 66.9764 95.6909 66.0755C106.247 45.1865 92.5365 28.5737 91.5087 25.2573C90.5238 23.3436 87.9712 22.8625 86.3423 24.3L75.6303 33.7531L74.3189 31.6364L84.7181 22.4594C87.5065 19.9987 91.9296 20.7444 93.6839 24.1235Z" fill="#323232"/>
<path d="M139.674 101.039L92.8958 142.32L95.6001 145.384L142.378 104.104L139.674 101.039Z" fill="#CCCCCC"/>
<path d="M82.2517 121.577L95.5787 136.678L133.743 103L120.416 87.8978L82.2517 121.577ZM126.813 102.567L103.788 122.886L102.163 121.046L123.348 102.351L119.767 98.2923L92.6461 122.226L96.2276 126.284L99.3105 123.563L100.935 125.404L96.0113 129.749L89.1813 122.009L119.983 94.8275L126.813 102.567Z" fill="#CCCCCC"/>
<path d="M110.676 87.6202L83.1874 111.878L85.9648 115.026L113.454 90.7675L110.676 87.6202Z" fill="#CCCCCC"/>
<path d="M86.6522 105.547C86.1761 102.448 84.9205 99.8563 82.8924 97.7992C85.7269 96.9675 88.6936 95.4135 91.1783 93.2208C93.5894 91.093 95.45 88.4526 96.6408 85.8139C96.6522 85.7711 96.6809 85.7294 96.7003 85.6958C98.3782 87.9311 100.796 89.4646 103.935 90.2954L86.6522 105.547Z" fill="#CCCCCC"/>
<path d="M66.2502 95.9685C42.2918 105.882 25.1177 88.3309 22.316 87.1038C19.1813 84.9428 18.9823 80.4695 21.78 78.0006L32.1699 68.8317L34.1071 70.3962L23.4042 79.8412C21.7569 81.2949 21.9514 83.8897 23.7034 85.0773C26.9333 86.5486 41.6078 102.213 63.6753 94.3121C64.4977 94.9286 65.359 95.4781 66.2502 95.9685Z" fill="#CCCCCC"/>
<path d="M93.6834 24.124C94.5563 27.135 109.848 46.2813 97.0138 68.8369C96.638 67.8917 96.1908 66.9768 95.6905 66.0759C106.247 45.1869 92.536 28.5741 91.5083 25.2577C90.5234 23.344 87.9708 22.8629 86.3419 24.3004L75.6298 33.7535L74.3185 31.6368L84.7176 22.4598C87.5061 19.9991 91.9292 20.7448 93.6834 24.124Z" fill="#CCCCCC"/>
<path d="M30.1312 64.0176L64.538 91.9138C71.8718 97.8501 82.4405 97.6577 89.5543 91.38C96.7048 85.0698 98.1501 74.5946 93.1863 66.6324L69.7953 29.0151L30.1312 64.0176ZM55.6682 68.9337C55.3568 68.2099 55.5392 67.3778 56.1282 66.858L60.205 63.2603L58.0468 58.2733C57.7354 57.5495 57.9178 56.7174 58.5068 56.1977C59.0958 55.6779 59.9441 55.6004 60.6236 55.9994L65.3034 58.7611L69.3802 55.1634C69.9692 54.6437 70.8175 54.5662 71.497 54.9652C72.1764 55.3641 72.51 56.1501 72.3492 56.914L71.1569 62.2223L75.8449 64.9933C76.3484 65.2856 76.6646 65.7923 76.7328 66.3705C76.819 67.3585 76.1023 68.2529 75.1051 68.3471L69.6816 68.8607L68.4985 74.1608C68.2821 75.1213 67.2778 75.7455 66.3337 75.5475C65.7685 75.4078 65.305 75.0311 65.0776 74.4951L62.9112 69.4989L57.4959 70.0217C56.718 70.0862 55.9795 69.6575 55.6682 68.9337ZM89.0163 69.2156C92.7549 75.2143 91.5974 83.0291 86.3058 87.6989C80.9405 92.4335 73.05 92.4887 67.6116 88.0883L37.7326 63.8574L44.5979 57.7989L46.2222 59.6395L41.5287 63.7813L69.1566 86.1847C79.5629 94.5823 94.0801 81.9841 86.9353 70.5118L68.1433 40.2947L49.2591 56.9595L47.6349 55.1189L68.6909 36.5375L89.0163 69.2156Z" fill="#CCCCCC"/>
<path d="M69.5088 64.1023L72.8806 66.0867L68.9876 66.4611C68.2178 66.5347 67.5552 67.1195 67.3863 67.8742L66.5307 71.6904L64.981 68.0979C64.6697 67.3741 63.9312 66.9454 63.1441 67.018L59.243 67.3831L62.1786 64.7925C62.7676 64.2727 62.9673 63.4417 62.6468 62.726L61.089 59.1244L64.469 61.118C65.1484 61.517 65.9886 61.4303 66.5776 60.9105L69.5133 58.3198L68.6657 62.1452C68.4958 62.9173 68.8294 63.7033 69.5088 64.1023Z" fill="#CCCDCD"/>
<path d="M68.905 18.342L69.6359 19.1703C71.4794 21.2593 71.2723 24.4377 69.1924 26.2731L27.4945 63.0705C25.4055 64.914 22.2352 64.7161 20.3917 62.627L19.6608 61.7988L68.905 18.342Z" fill="#CCCCCC"/>
</g>
<defs>
<filter id="filter0_f" x="0" y="-0.00012207" width="163.278" height="164.81" filterUnits="userSpaceOnUse" color-interpolation-filters="sRGB">
<feFlood flood-opacity="0" result="BackgroundImageFix"/>
<feBlend mode="normal" in="SourceGraphic" in2="BackgroundImageFix" result="shape"/>
<feGaussianBlur stdDeviation="2.5" result="effect1_foregroundBlur"/>
</filter>
</defs>
</svg>
