<svg width="125" height="135" viewBox="0 0 125 135" fill="none" xmlns="http://www.w3.org/2000/svg">
<g filter="url(#filter0_f)">
<path d="M71.1785 102.503L68.6092 111.424L42.0694 103.78L42.6805 101.659L67.0988 108.692L68.446 104.014L37.1859 95.0106L35.8387 99.6884L39.3922 100.712L38.7811 102.833L33.1062 101.199L35.6754 92.2781L71.1785 102.503Z" fill="#323232"/>
<path d="M90.5999 35.4282L75.6379 66.6377C72.8949 72.3725 66.4082 75.2715 60.3089 73.5149C54.1248 71.7338 50.2694 65.7758 50.9786 59.5242L54.9165 25.1511L62.8296 27.4301L62.2186 29.5516L56.8088 27.9935L53.1691 59.776C51.8292 71.7274 68.4007 76.6495 73.649 65.6858L87.4855 36.8287L65.7191 30.5598L66.3301 28.4383L90.5999 35.4282Z" fill="#323232"/>
<path d="M77.979 46.4626C77.9533 45.7544 77.4845 45.1484 76.8056 44.9529L72.1065 43.5995L71.9395 38.7153C71.9137 38.0071 71.4449 37.4011 70.766 37.2056C70.0872 37.0101 69.3679 37.2739 68.9694 37.8599L66.23 41.9071L61.5309 40.5537C60.852 40.3582 60.1328 40.622 59.7343 41.2079C59.3358 41.7939 59.3675 42.5612 59.7924 43.1201L62.8061 46.9748L60.0637 51.0326C59.7671 51.4641 59.7053 51.9977 59.8726 52.4939C60.1787 53.3057 61.1375 53.7657 61.9706 53.4657L66.5623 51.8014L69.573 55.6667C70.1265 56.3775 71.1513 56.4889 71.859 55.946C72.2645 55.6148 72.496 55.1301 72.4744 54.607L72.3104 49.7121L76.9128 48.0509C77.5698 47.8036 78.0048 47.1707 77.979 46.4626ZM71.1651 47.7855C70.4975 48.0297 70.0625 48.6626 70.0883 49.3708L70.2127 52.8873L68.0473 50.1155C67.6194 49.5672 66.8556 49.3472 66.2016 49.5839L62.8936 50.7793L64.8694 47.8677C65.2679 47.2817 65.2362 46.5144 64.8007 45.9525L62.6383 43.1701L66.0221 44.1446C66.701 44.3402 67.4278 44.09 67.8157 43.501L69.7945 40.5788L69.916 44.1059C69.9418 44.814 70.4136 45.4094 71.0924 45.6049L74.4762 46.5795L71.1651 47.7855Z" fill="#323232"/>
<path d="M109.635 38.6588L98.0088 35.3105L99.0247 33.1793C102.263 33.5834 105.419 31.5977 106.351 28.3624L107.237 25.2863L46.2335 7.71682L45.3476 10.793C44.4158 14.0282 46.022 17.3856 48.9788 18.7657L48.7161 21.1138L37.0903 17.7655C32.4655 16.4335 27.7928 19.7746 27.6295 24.6096C28.0549 27.0411 22.6554 51.4128 44.7395 65.194C45.4257 68.3554 46.9039 71.3198 49.0547 73.8232C48.7948 76.9992 47.2382 79.5721 44.3195 81.6492L38.9521 80.1034L37.2963 85.8526L31.144 84.0807L25.5197 103.609L20.5554 102.179L18.9271 107.833L18.3373 109.961C85.3656 129.265 34.2909 114.555 76.4978 126.711L77.0876 124.584L78.7159 118.93L73.7517 117.5L79.376 97.9719L73.2237 96.2L74.8795 90.4508L69.5121 88.9049C68.0154 85.4068 68.0521 82.4076 69.627 79.7712C72.798 78.812 75.6508 77.0834 77.9301 74.7532C103.945 74.8478 112.352 51.3194 114.006 49.4867C116.432 45.2918 114.228 39.9816 109.635 38.6588ZM47.4691 11.404L47.744 10.4493L104.504 26.7968L104.229 27.7514C103.536 30.1593 101.025 31.5384 98.6278 30.8479L50.5655 17.0056C48.1577 16.3121 46.7756 13.8119 47.4691 11.404ZM29.8339 24.6931C29.9579 21.2712 33.2547 18.9583 36.4793 19.887L48.4551 23.3361L48.2048 25.5615L35.8683 22.0085C33.9696 21.4616 32.0955 22.8632 32.0415 24.766C32.4866 27.9269 27.698 46.6275 44.3557 59.5466C44.2855 60.4684 44.2851 61.3872 44.3438 62.3001C25.2459 48.9195 30.2573 27.4112 29.8339 24.6931ZM47.9438 27.7838L44.6069 56.9195C30.2631 44.7013 34.6755 28.2242 34.249 24.839C34.2576 24.3704 34.7269 23.9772 35.2573 24.13L47.9438 27.7838ZM75.9835 120.44L74.9661 123.973L21.0486 108.444L22.0659 104.912L75.9835 120.44ZM76.6435 99.4824L71.6302 116.889L27.6412 104.22L32.6545 86.8132L76.6435 99.4824ZM72.147 91.9613L71.1022 95.589L39.4178 86.4636L40.4626 82.8359L72.147 91.9613ZM50.9989 75.8076C52.9997 77.5555 55.6121 79.0546 58.4761 79.8794C61.2553 80.6799 64.1571 80.8149 66.7341 80.4428C66.772 80.4307 66.8175 80.4324 66.8523 80.4309C65.9679 82.7838 65.9731 85.3585 66.8603 88.1412L46.9395 82.4038C49.0602 80.5448 50.4189 78.34 50.9989 75.8076ZM79.6127 68.5522C75.9727 76.1653 67.3291 80.1317 59.0871 77.758C50.8876 75.3964 45.6338 67.4734 46.5918 59.0419L51.1214 19.4631L96.8394 32.6303L79.6127 68.5522ZM95.1045 41.3664L107.802 45.0233C108.311 45.1699 108.513 45.745 108.275 46.1706C106.083 48.8361 101.009 65.0995 82.4193 67.8212L95.1045 41.3664ZM112.095 48.3849C110.233 50.5022 103.101 71.354 79.7908 72.5207C80.3261 71.7788 80.8039 70.9974 81.2453 70.1826C102.191 68.0936 108.165 49.6654 110.183 47.283C111.159 45.6111 110.29 43.4425 108.413 42.9018L96.0655 39.3457L97.0372 37.3281L109.024 40.7803C112.238 41.706 113.81 45.4211 112.095 48.3849Z" fill="#323232"/>
<path d="M75.9833 120.44L22.0657 104.912L21.0484 108.444L74.966 123.973L75.9833 120.44Z" fill="#D28F00"/>
<path d="M32.6544 86.8132L27.6411 104.22L71.6301 116.889L76.6434 99.4824L32.6544 86.8132ZM68.6092 111.424L42.0694 103.78L42.6804 101.659L67.0987 108.692L68.4459 104.014L37.1858 95.0106L35.8386 99.6885L39.3921 100.712L38.7811 102.833L33.1061 101.199L35.6754 92.2782L71.1784 102.503L68.6092 111.424Z" fill="#D28F00"/>
<path d="M72.1469 91.961L40.4625 82.8356L39.4177 86.4634L71.1021 95.5887L72.1469 91.961Z" fill="#D28F00"/>
<path d="M46.9389 82.4038C49.0595 80.5448 50.4182 78.34 50.9983 75.8075C52.9991 77.5555 55.6115 79.0545 58.4755 79.8794C61.2546 80.6798 64.1565 80.8148 66.7334 80.4427C66.7713 80.4307 66.8168 80.4323 66.8517 80.4309C65.9673 82.7838 65.9724 85.3584 66.8596 88.1411L46.9389 82.4038Z" fill="#D28F00"/>
<path d="M44.3436 62.3C25.2457 48.9194 30.2571 27.4111 29.8338 24.693C29.9578 21.271 33.2545 18.9581 36.4792 19.8869L48.455 23.336L48.2046 25.5613L35.8682 22.0083C33.9694 21.4615 32.0954 22.8631 32.0413 24.7659C32.4865 27.9268 27.6979 46.6274 44.3555 59.5465C44.2854 60.4682 44.2849 61.3871 44.3436 62.3Z" fill="#D28F00"/>
<path d="M112.094 48.3847C110.232 50.5021 103.101 71.3539 79.7905 72.5205C80.3258 71.7787 80.8035 70.9973 81.245 70.1825C102.191 68.0935 108.164 49.6652 110.183 47.2829C111.159 45.611 110.29 43.4424 108.412 42.9017L96.0652 39.3456L97.0368 37.328L109.023 40.7802C112.237 41.7059 113.809 45.421 112.094 48.3847Z" fill="#D28F00"/>
<path d="M51.1212 19.463L46.5917 59.0418C45.6337 67.4732 50.8875 75.3963 59.087 77.7578C67.329 80.1316 75.9726 76.1651 79.6126 68.5521L96.8393 32.6302L51.1212 19.463ZM59.7346 41.2079C60.1331 40.622 60.8524 40.3582 61.5312 40.5537L66.2303 41.9071L68.9697 37.8599C69.3682 37.2739 70.0875 37.0101 70.7664 37.2056C71.4452 37.4011 71.914 38.0071 71.9398 38.7153L72.1069 43.5995L76.8059 44.9529C77.4848 45.1484 77.9536 45.7544 77.9794 46.4626C78.0052 47.1707 77.5702 47.8036 76.9131 48.0509L72.3107 49.7121L72.4747 54.6069C72.4964 55.1301 72.2649 55.6148 71.8593 55.946C71.1516 56.4889 70.1268 56.3775 69.5734 55.6667L66.5627 51.8014L61.9709 53.4657C61.1378 53.7656 60.179 53.3057 59.8729 52.4938C59.7057 51.9977 59.7674 51.4641 60.064 51.0326L62.8065 46.9748L59.7927 43.1201C59.3678 42.5612 59.3361 41.7939 59.7346 41.2079ZM75.6379 66.6377C72.895 72.3725 66.4083 75.2715 60.309 73.5149C54.1249 71.7338 50.2695 65.7757 50.9787 59.5241L54.9166 25.151L62.8297 27.4301L62.2187 29.5515L56.8089 27.9935L53.1692 59.7759C51.8293 71.7274 68.4008 76.6495 73.6491 65.6858L87.4856 36.8286L65.7191 30.5597L66.3301 28.4382L90.6 35.4281L75.6379 66.6377Z" fill="#D28F00"/>
<path d="M70.0882 49.3706L70.2126 52.8871L68.0472 50.1153C67.6192 49.5671 66.8555 49.3471 66.2015 49.5838L62.8935 50.7792L64.8693 47.8676C65.2678 47.2816 65.2361 46.5143 64.8006 45.9524L62.6382 43.17L66.022 44.1445C66.7008 44.34 67.4277 44.0899 67.8156 43.5009L69.7944 40.5787L69.9158 44.1058C69.9416 44.8139 70.4135 45.4093 71.0923 45.6048L74.4761 46.5794L71.165 47.7854C70.4974 48.0296 70.0624 48.6625 70.0882 49.3706Z" fill="#D28F00"/>
<path d="M104.504 26.7967L104.229 27.7513C103.536 30.1592 101.025 31.5383 98.6276 30.8478L50.5653 17.0055C48.1574 16.312 46.7753 13.8118 47.4688 11.4039L47.7437 10.4492L104.504 26.7967Z" fill="#D28F00"/>
</g>
<defs>
<filter id="filter0_f" x="0" y="0" width="124.138" height="134.833" filterUnits="userSpaceOnUse" color-interpolation-filters="sRGB">
<feFlood flood-opacity="0" result="BackgroundImageFix"/>
<feBlend mode="normal" in="SourceGraphic" in2="BackgroundImageFix" result="shape"/>
<feGaussianBlur stdDeviation="2" result="effect1_foregroundBlur"/>
</filter>
</defs>
</svg>
