<svg width="258" height="261" viewBox="0 0 258 261" fill="none" xmlns="http://www.w3.org/2000/svg">
<g filter="url(#filter0_f)">
<path d="M189.845 150.507L200.759 162.874L163.965 195.344L161.37 192.403L195.222 162.529L189.499 156.044L146.162 194.288L151.885 200.773L156.811 196.426L159.407 199.367L151.539 206.309L140.625 193.942L189.845 150.507Z" fill="#323232"/>
<path d="M107.883 57.3627L140.362 109.581C146.336 119.166 144.486 131.654 136.03 139.116C127.457 146.682 114.848 146.77 106.158 139.738L58.4131 101.018L69.3835 91.3373L71.979 94.2784L64.4791 100.897L108.627 136.696C125.256 150.115 148.453 129.984 137.036 111.652L107.008 63.3665L76.8318 89.9959L74.2364 87.0548L107.883 57.3627Z" fill="#323232"/>
<path d="M112.366 86.8095C111.281 86.172 109.925 86.2958 108.984 87.1264L102.469 92.8753L94.9913 88.4621C93.9056 87.8247 92.55 87.9485 91.6088 88.779C90.6677 89.6095 90.3762 90.9392 90.8737 92.0958L94.3225 100.065L87.8079 105.814C86.8668 106.644 86.5753 107.974 87.0728 109.13C87.5703 110.287 88.7504 110.972 89.9935 110.869L98.6469 110.034L102.109 118.017C102.472 118.874 103.213 119.476 104.116 119.699C105.625 120.015 107.229 119.018 107.575 117.483L109.466 109.014L118.132 108.193C119.725 108.043 120.871 106.613 120.733 105.035C120.624 104.111 120.119 103.301 119.314 102.834L111.823 98.406L113.728 89.9237C113.985 88.7031 113.452 87.447 112.366 86.8095ZM107.843 98.2826C107.571 99.5162 108.104 100.772 109.19 101.41L114.578 104.581L108.357 105.179C107.127 105.297 106.068 106.231 105.798 107.437L104.431 113.535L101.955 107.795C101.457 106.638 100.277 105.953 99.0195 106.069L92.7857 106.652L97.4768 102.513C98.418 101.682 98.7371 100.354 98.2249 99.2106L95.7356 93.4554L101.137 96.6411C102.222 97.2786 103.565 97.1401 104.506 96.3096L109.197 92.1698L107.843 98.2826Z" fill="#323232"/>
<path d="M130.898 31.9257L114.781 46.1488L112.557 42.5917C116.254 38.1259 116.293 31.5002 112.334 27.015L108.571 22.7504L23.9992 97.3829L27.7626 101.648C31.7207 106.133 38.285 106.932 43.176 103.819L46.4436 106.454L30.3263 120.678C23.9146 126.336 24.4595 136.527 31.5483 141.388C35.5979 143.073 66.9612 174.433 108.697 154.501C114.089 156.491 119.942 157.106 125.747 156.274C130.258 159.696 132.627 164.485 132.952 170.841L125.511 177.408L132.545 185.378L124.016 192.905L147.907 219.978L141.025 226.051L147.942 233.89L150.567 236.805C243.491 154.801 172.684 217.287 231.197 165.65L228.573 162.735L221.656 154.897L214.773 160.97L190.882 133.897L182.353 141.424L175.319 133.454L167.878 140.02C161.207 138.923 156.749 136.004 154.302 131.127C155.892 125.46 156.026 119.535 154.711 113.895C179.691 75.0046 152.463 39.9419 151.296 35.7143C147.326 28.0741 137.265 26.3065 130.898 31.9257ZM30.7037 99.052L29.5358 97.7285L108.225 28.287L109.393 29.6105C112.339 32.9486 112.008 38.0276 108.685 40.9605L42.0537 99.7606C38.7155 102.706 33.6496 102.39 30.7037 99.052ZM33.7783 138.165C28.7692 134.712 28.4512 127.564 32.9217 123.619L49.5244 108.967L52.6198 111.467L35.5172 126.56C32.8849 128.883 33.1958 133.029 35.9953 134.927C41.1566 137.278 64.6056 162.308 99.8683 149.683C101.182 150.669 102.559 151.547 103.983 152.33C65.6986 168.171 38.2553 140.126 33.7783 138.165ZM55.7006 113.98L96.1716 146.799C64.1684 156.626 43.6919 134.282 38.2123 131.689C37.5185 131.228 37.3774 130.15 38.1127 129.501L55.7006 113.98ZM221.31 160.433L225.631 165.33L150.883 231.294L146.561 226.397L221.31 160.433ZM190.537 139.434L211.832 163.566L150.848 217.383L129.552 193.251L190.537 139.434ZM174.974 138.99L179.412 144.02L135.486 182.783L131.048 177.753L174.974 138.99ZM130.577 155.255C135.106 153.926 139.847 151.443 143.817 147.939C147.67 144.539 150.643 140.32 152.546 136.103C152.564 136.035 152.61 135.968 152.641 135.915C155.322 139.486 159.185 141.937 164.202 143.264L136.585 167.636C135.824 162.683 133.818 158.542 130.577 155.255ZM147.025 105.453C154.957 118.176 152.648 134.915 141.222 144.998C129.854 155.029 112.966 155.337 101.247 145.851L46.2668 101.274L109.648 45.3421L147.025 105.453ZM121.082 56.2829L138.684 40.7491C139.39 40.1262 140.445 40.3726 140.856 41.1347C142.757 46.9644 162.281 70.0964 148.61 100.549L121.082 56.2829ZM147.82 37.526C149.215 42.3375 173.651 72.9322 153.142 108.975C152.541 107.464 151.827 106.003 151.027 104.563C167.896 71.1834 145.987 44.6371 144.344 39.3377C142.771 36.2797 138.692 35.511 136.089 37.8079L118.971 52.9135L116.876 49.5312L133.493 34.8668C137.949 30.9347 145.017 32.1263 147.82 37.526Z" fill="#323232"/>
<path d="M221.309 160.434L146.561 226.397L150.882 231.294L225.631 165.331L221.309 160.434Z" fill="#CCCCCC"/>
<path d="M129.552 193.251L150.848 217.383L211.832 163.566L190.536 139.434L129.552 193.251ZM200.759 162.874L163.965 195.344L161.37 192.403L195.222 162.529L189.499 156.044L146.162 194.288L151.885 200.773L156.811 196.426L159.407 199.367L151.539 206.31L140.625 193.942L189.845 150.507L200.759 162.874Z" fill="#CCCCCC"/>
<path d="M174.973 138.99L131.047 177.753L135.486 182.783L179.411 144.02L174.973 138.99Z" fill="#CCCCCC"/>
<path d="M136.584 167.637C135.823 162.684 133.817 158.543 130.576 155.256C135.106 153.927 139.846 151.444 143.817 147.94C147.669 144.54 150.642 140.32 152.545 136.104C152.563 136.036 152.609 135.969 152.64 135.915C155.322 139.487 159.184 141.938 164.201 143.265L136.584 167.637Z" fill="#CCCCCC"/>
<path d="M103.983 152.33C65.6985 168.171 38.2551 140.126 33.7782 138.165C28.7691 134.712 28.4511 127.564 32.9216 123.619L49.5242 108.967L52.6197 111.467L35.5171 126.56C32.8848 128.883 33.1956 133.029 35.9952 134.927C41.1564 137.278 64.6055 162.308 99.8682 149.683C101.182 150.669 102.559 151.547 103.983 152.33Z" fill="#CCCCCC"/>
<path d="M147.82 37.5265C149.215 42.338 173.65 72.9328 153.141 108.975C152.541 107.465 151.826 106.003 151.027 104.564C167.895 71.184 145.986 44.6377 144.344 39.3382C142.77 36.2803 138.691 35.5115 136.088 37.8085L118.971 52.9141L116.875 49.5317L133.493 34.8674C137.949 30.9352 145.016 32.1268 147.82 37.5265Z" fill="#CCCCCC"/>
<path d="M46.2665 101.274L101.247 145.851C112.966 155.337 129.854 155.03 141.221 144.998C152.648 134.915 154.957 118.176 147.025 105.453L109.648 45.3422L46.2665 101.274ZM87.0732 109.13C86.5757 107.974 86.8671 106.644 87.8083 105.813L94.3229 100.064L90.8741 92.0954C90.3766 90.9388 90.668 89.6092 91.6092 88.7786C92.5503 87.9481 93.9059 87.8243 94.9916 88.4618L102.47 92.8749L108.984 87.126C109.925 86.2954 111.281 86.1716 112.367 86.8091C113.453 87.4466 113.986 88.7027 113.729 89.9234L111.823 98.4057L119.315 102.834C120.119 103.301 120.624 104.11 120.733 105.034C120.871 106.613 119.726 108.042 118.132 108.193L109.466 109.014L107.575 117.483C107.23 119.018 105.625 120.015 104.116 119.699C103.213 119.475 102.472 118.873 102.109 118.017L98.6472 110.033L89.9938 110.869C88.7507 110.972 87.5707 110.287 87.0732 109.13ZM140.362 109.581C146.336 119.166 144.486 131.654 136.031 139.116C127.457 146.682 114.849 146.77 106.158 139.738L58.4132 101.018L69.3835 91.3373L71.979 94.2785L64.4791 100.897L108.627 136.696C125.256 150.115 148.453 129.984 137.036 111.652L107.008 63.3665L76.8318 89.9959L74.2364 87.0548L107.883 57.3627L140.362 109.581Z" fill="#CCCCCC"/>
<path d="M109.19 101.41L114.578 104.581L108.357 105.179C107.127 105.297 106.068 106.231 105.798 107.437L104.431 113.535L101.955 107.795C101.457 106.638 100.277 105.953 99.0193 106.069L92.7855 106.652L97.4766 102.513C98.4177 101.682 98.7369 100.354 98.2246 99.2106L95.7354 93.4553L101.136 96.6411C102.222 97.2786 103.565 97.1401 104.506 96.3095L109.197 92.1698L107.843 98.2826C107.571 99.5162 108.104 100.772 109.19 101.41Z" fill="#CCCDCD"/>
<path d="M108.225 28.2874L109.393 29.6109C112.339 32.9491 112.008 38.028 108.684 40.9609L42.0532 99.7611C38.715 102.707 33.6491 102.391 30.7032 99.0525L29.5353 97.729L108.225 28.2874Z" fill="#CCCCCC"/>
</g>
<defs>
<filter id="filter0_f" x="0.107971" y="0.967407" width="256.93" height="259.378" filterUnits="userSpaceOnUse" color-interpolation-filters="sRGB">
<feFlood flood-opacity="0" result="BackgroundImageFix"/>
<feBlend mode="normal" in="SourceGraphic" in2="BackgroundImageFix" result="shape"/>
<feGaussianBlur stdDeviation="3" result="effect1_foregroundBlur"/>
</filter>
</defs>
</svg>
