<svg width="192" height="379" viewBox="0 0 192 379" fill="none" xmlns="http://www.w3.org/2000/svg">
<g opacity="0.15" filter="url(#filter0_f)">
<path d="M16.6984 283.509L5.57005 305.039L-58.4826 271.932L-55.8362 266.812L3.09638 297.273L8.93181 285.983L-66.5132 246.988L-72.3486 258.277L-63.7724 262.71L-66.4188 267.83L-80.1152 260.751L-68.9868 239.221L16.6984 283.509Z" fill="#323232"/>
<path d="M100.636 121.679L46.4094 193.955C36.4614 207.239 18.3745 211.353 3.6542 203.745C-11.271 196.03 -18.1032 178.809 -13.0987 163.165L14.5155 77.1655L33.6135 87.0368L30.9671 92.1569L17.9108 85.4085L-7.61876 164.926C-17.1453 194.843 22.7732 215.898 41.8028 190.504L91.9477 123.676L39.4153 96.5236L42.0618 91.4035L100.636 121.679Z" fill="#323232"/>
<path d="M62.694 143.494C62.9892 141.667 62.0981 139.877 60.4596 139.03L49.1186 133.168L51.1821 120.577C51.4772 118.751 50.5861 116.96 48.9477 116.114C47.3092 115.267 45.3331 115.575 44.0139 116.872L34.9358 125.837L23.5948 119.975C21.9563 119.129 19.9802 119.437 18.661 120.734C17.3418 122.031 17.0317 124.012 17.8345 125.66L23.5847 137.066L14.4934 146.057C13.5139 147.01 13.0836 148.345 13.2588 149.701C13.6284 151.935 15.8487 153.602 18.1347 153.259L30.7401 151.34L36.477 162.772C37.5315 164.874 40.0985 165.682 42.1874 164.653C43.3947 164.012 44.2347 162.889 44.4461 161.539L46.5229 148.922L59.1539 147.016C60.9623 146.719 62.3989 145.32 62.694 143.494ZM44.5732 143.405C42.7392 143.69 41.3026 145.089 41.0075 146.915L39.5326 155.982L35.4021 147.781C34.586 146.159 32.7428 145.206 30.9475 145.478L21.8682 146.852L28.412 140.405C29.7312 139.108 30.0413 137.127 29.2129 135.466L25.0956 127.239L33.2622 131.46C34.9006 132.307 36.8892 132.037 38.1827 130.727L44.7398 124.255L43.2517 133.347C42.9565 135.173 43.8608 136.938 45.4993 137.785L53.6659 142.006L44.5732 143.405Z" fill="#323232"/>
<path d="M147.723 139.659L119.665 125.156L123.353 120.218C131.437 122.904 140.532 119.43 144.568 111.622L148.405 104.198L1.17614 28.0987L-2.66122 35.5229C-6.69706 43.3311 -4.29707 52.7465 2.56963 57.7879L0.699241 63.666L-27.359 49.1634C-38.5209 43.3942 -52.1886 49.5652 -55.0731 61.8613C-55.2239 68.3038 -81.4795 127.95 -31.9654 174.499C-31.8208 182.943 -29.5482 191.287 -25.3182 198.794C-27.6037 206.793 -32.9014 212.586 -41.4337 216.416L-54.3876 209.72L-61.5595 223.596L-76.4079 215.921L-100.768 263.052L-112.75 256.859L-119.802 270.504L-122.398 275.651C39.3726 359.266 -83.8943 295.552 17.9705 348.203L20.5657 343.057L27.6185 329.412L15.6374 323.219L39.9981 276.088L25.1497 268.414L32.3216 254.538L19.3677 247.843C17.3198 238.123 18.9434 230.462 24.3205 224.515C32.9287 223.677 41.1144 220.706 48.1389 215.903C114.697 229.413 148.224 173.461 153.393 169.612C161.743 160.108 158.809 145.389 147.723 139.659ZM2.4589 38.1694L3.64981 35.8653L140.639 106.671L139.448 108.975C136.444 114.787 129.312 117.037 123.526 114.046L7.52991 54.0908C1.71858 51.0871 -0.544826 43.9807 2.4589 38.1694ZM-49.4714 63.1995C-47.4086 54.5013 -37.7881 50.2609 -30.0055 54.2836L-1.1024 69.2228L-2.87843 74.7928L-32.6519 59.4037C-37.2344 57.0351 -42.7476 59.6679 -43.8565 64.5122C-44.329 72.8321 -66.1278 118.27 -30.0675 159.844C-30.7174 162.168 -31.1871 164.52 -31.5024 166.888C-73.5751 122.888 -49.7739 70.3746 -49.4714 63.1995ZM-4.68007 80.3496L-28.0844 153.245C-58.5778 114.646 -38.8763 74.7097 -38.2416 65.8248C-37.9807 64.6296 -36.5784 63.8622 -35.2984 64.5238L-4.68007 80.3496ZM19.852 331.885L15.4456 340.41L-114.682 273.151L-110.276 264.626L19.852 331.885ZM32.2315 278.562L10.5173 320.573L-95.6484 265.698L-73.9342 223.688L32.2315 278.562ZM24.555 257.012L20.0296 265.767L-56.4394 226.242L-51.914 217.487L24.555 257.012ZM-21.3524 204.866C-17.1212 210.362 -11.1971 215.532 -4.28498 219.105C2.42238 222.572 9.78331 224.398 16.571 224.759C16.6742 224.748 16.7899 224.775 16.8799 224.789C13.4154 230.363 12.1154 236.957 12.9676 244.534L-35.1104 219.684C-28.7326 216.006 -24.1292 211.054 -21.3524 204.866ZM55.6097 200.884C42.4069 218.52 18.2531 224.266 -1.63852 213.985C-21.4278 203.756 -30.8382 180.791 -24.085 159.692L7.69953 60.6665L118.038 117.698L55.6097 200.884ZM109.14 139.18L139.784 155.019C141.013 155.654 141.237 157.23 140.412 158.198C133.44 163.905 112.152 202.957 63.1686 200.444L109.14 139.18ZM149.061 165.816C143.214 170.287 114.32 220.038 54.0416 211.136C55.7905 209.509 57.4123 207.752 58.9581 205.891C113.652 211.226 138.346 167.09 144.73 162.02C148.08 158.237 146.962 152.241 142.431 149.899L112.631 134.497L116.148 129.827L145.077 144.779C152.834 148.788 154.964 159.102 149.061 165.816Z" fill="#323232"/>
<path d="M19.8516 331.885L-110.276 264.625L-114.683 273.15L15.4452 340.41L19.8516 331.885Z" fill="#FEBD2C"/>
<path d="M-73.9341 223.688L-95.6482 265.698L10.5174 320.573L32.2316 278.562L-73.9341 223.688ZM5.57012 305.039L-58.4826 271.932L-55.8361 266.812L3.09646 297.273L8.93189 285.983L-66.5131 246.987L-72.3485 258.277L-63.7723 262.71L-66.4188 267.83L-80.1151 260.751L-68.9868 239.221L16.6985 283.509L5.57012 305.039Z" fill="#FEBD2C"/>
<path d="M24.5548 257.011L-51.9142 217.486L-56.4396 226.242L20.0294 265.767L24.5548 257.011Z" fill="#FEBD2C"/>
<path d="M-35.1115 219.684C-28.7337 216.006 -24.1304 211.054 -21.3536 204.866C-17.1224 210.361 -11.1983 215.532 -4.28613 219.105C2.42122 222.572 9.78215 224.397 16.5698 224.759C16.6731 224.748 16.7887 224.775 16.8787 224.789C13.4142 230.362 12.1142 236.957 12.9664 244.534L-35.1115 219.684Z" fill="#FEBD2C"/>
<path d="M-31.5023 166.888C-73.5749 122.888 -49.7737 70.3748 -49.4713 63.1997C-47.4084 54.5015 -37.7879 50.2611 -30.0053 54.2837L-1.10226 69.2229L-2.87829 74.793L-32.6518 59.4038C-37.2343 57.0352 -42.7474 59.668 -43.8564 64.5123C-44.3288 72.8323 -66.1276 118.27 -30.0674 159.844C-30.7172 162.168 -31.187 164.52 -31.5023 166.888Z" fill="#FEBD2C"/>
<path d="M149.06 165.815C143.213 170.287 114.319 220.038 54.0408 211.135C55.7897 209.509 57.4115 207.752 58.9573 205.891C113.651 211.226 138.345 167.09 144.729 162.02C148.079 158.236 146.961 152.241 142.43 149.899L112.631 134.496L116.148 129.826L145.076 144.779C152.833 148.788 154.963 159.102 149.06 165.815Z" fill="#FEBD2C"/>
<path d="M7.69946 60.6665L-24.085 159.692C-30.8382 180.791 -21.4278 203.756 -1.63858 213.985C18.2531 224.266 42.4068 218.52 55.6096 200.884L118.038 117.698L7.69946 60.6665ZM18.6617 120.735C19.9809 119.438 21.9571 119.129 23.5955 119.976L34.9366 125.838L44.0146 116.873C45.3338 115.576 47.31 115.267 48.9484 116.114C50.5868 116.961 51.478 118.751 51.1828 120.578L49.1193 133.168L60.4604 139.03C62.0988 139.877 62.9899 141.668 62.6948 143.494C62.3996 145.32 60.9631 146.719 59.1546 147.017L46.5236 148.923L44.4468 161.539C44.2354 162.889 43.3955 164.012 42.1882 164.653C40.0992 165.682 37.5323 164.875 36.4778 162.772L30.7408 151.34L18.1354 153.259C15.8494 153.602 13.6291 151.936 13.2595 149.701C13.0843 148.345 13.5147 147.011 14.4941 146.057L23.5854 137.066L17.8352 125.66C17.0324 124.012 17.3425 122.032 18.6617 120.735ZM46.4096 193.955C36.4616 207.239 18.3747 211.353 3.65433 203.745C-11.2708 196.03 -18.1031 178.809 -13.0986 163.165L14.5156 77.1656L33.6137 87.0369L30.9672 92.157L17.9109 85.4085L-7.61863 164.927C-17.1452 194.843 22.7733 215.898 41.8029 190.504L91.9479 123.676L39.4154 96.5237L42.0619 91.4035L100.636 121.679L46.4096 193.955Z" fill="#FEBD2C"/>
<path d="M41.0074 146.915L39.5325 155.982L35.402 147.78C34.5859 146.158 32.7427 145.206 30.9475 145.478L21.8681 146.851L28.4119 140.404C29.7311 139.107 30.0412 137.127 29.2128 135.466L25.0955 127.239L33.2621 131.46C34.9005 132.307 36.8891 132.037 38.1827 130.727L44.7397 124.254L43.2516 133.347C42.9564 135.173 43.8608 136.938 45.4992 137.785L53.6658 142.006L44.5732 143.405C42.7391 143.69 41.3026 145.088 41.0074 146.915Z" fill="#FE6B2C"/>
<path d="M140.638 106.671L139.447 108.975C136.443 114.786 129.311 117.036 123.525 114.046L7.52916 54.0905C1.71782 51.0868 -0.545583 43.9804 2.45814 38.169L3.64905 35.865L140.638 106.671Z" fill="#FEBD2C"/>
</g>
<defs>
<filter id="filter0_f" x="-169" y="0" width="360.541" height="378.056" filterUnits="userSpaceOnUse" color-interpolation-filters="sRGB">
<feFlood flood-opacity="0" result="BackgroundImageFix"/>
<feBlend mode="normal" in="SourceGraphic" in2="BackgroundImageFix" result="shape"/>
<feGaussianBlur stdDeviation="6" result="effect1_foregroundBlur"/>
</filter>
</defs>
</svg>
