<svg width="101" height="161" viewBox="0 0 101 161" fill="none" xmlns="http://www.w3.org/2000/svg">
<g opacity="0.15" filter="url(#filter0_f)">
<path d="M84.4045 120.964L81.4059 131.376L50.4311 122.455L51.1442 119.979L79.643 128.186L81.2154 122.727L44.7315 112.219L43.1591 117.679L47.3064 118.873L46.5933 121.349L39.97 119.442L42.9686 109.03L84.4045 120.964Z" fill="#323232"/>
<path d="M107.071 42.68L89.6092 79.105C86.4078 85.7981 78.8372 89.1816 71.7186 87.1314C64.5011 85.0527 60.0014 78.099 60.8292 70.8027L65.425 30.6855L74.6605 33.3454L73.9474 35.8214L67.6336 34.003L63.3857 71.0966C61.8219 85.0452 81.1626 90.7898 87.288 77.994L103.437 44.3146L78.0328 36.9981L78.7459 34.5221L107.071 42.68Z" fill="#323232"/>
<path d="M92.3416 55.5585C92.3115 54.732 91.7644 54.0247 90.972 53.7966L85.4877 52.217L85.2927 46.5165C85.2626 45.6901 84.7155 44.9828 83.9232 44.7546C83.1309 44.5264 82.2914 44.8343 81.8263 45.5182L78.6292 50.2417L73.1448 48.6622C72.3525 48.434 71.513 48.7419 71.0479 49.4258C70.5828 50.1096 70.6199 51.0051 71.1158 51.6574L74.6331 56.1563L71.4324 60.8922C71.0863 61.3958 71.0142 62.0185 71.2094 62.5976C71.5666 63.5452 72.6857 64.082 73.6579 63.7319L79.017 61.7895L82.5308 66.3007C83.1768 67.1303 84.3728 67.2603 85.1988 66.6267C85.6721 66.2401 85.9423 65.6744 85.917 65.0638L85.7256 59.351L91.0971 57.4122C91.864 57.1236 92.3717 56.385 92.3416 55.5585ZM84.389 57.1025C83.6098 57.3875 83.1021 58.1261 83.1322 58.9526L83.2774 63.0568L80.7501 59.8218C80.2507 59.1819 79.3593 58.9252 78.596 59.2014L74.7352 60.5965L77.0412 57.1984C77.5063 56.5145 77.4693 55.619 76.961 54.9631L74.4373 51.7158L78.3865 52.8532C79.1788 53.0814 80.0271 52.7894 80.4798 52.102L82.7894 48.6915L82.9311 52.808C82.9612 53.6345 83.5118 54.3293 84.3042 54.5575L88.2534 55.6949L84.389 57.1025Z" fill="#323232"/>
<path d="M129.287 46.4506L115.718 42.5427L116.904 40.0554C120.683 40.527 124.367 38.2095 125.455 34.4336L126.489 30.8434L55.2911 10.3379L54.2571 13.9281C53.1696 17.704 55.0442 21.6225 58.4952 23.2331L58.1885 25.9737L44.62 22.0658C39.2223 20.5112 33.7688 24.4106 33.5781 30.0536C34.0747 32.8914 27.7729 61.3359 53.5474 77.42C54.3483 81.1097 56.0735 84.5695 58.5837 87.4912C58.2803 91.198 56.4636 94.2008 53.0572 96.6251L46.7929 94.8209L44.8604 101.531L37.68 99.4628L31.1158 122.254L25.322 120.586L23.4215 127.184L22.7332 129.667C100.962 152.198 41.3527 135.03 90.6128 149.217L91.3012 146.734L93.2016 140.136L87.4077 138.467L93.9719 115.675L86.7915 113.607L88.724 106.897L82.4597 105.093C80.7129 101.01 80.7557 97.5102 82.5938 94.4331C86.2948 93.3137 89.6242 91.2963 92.2845 88.5766C122.646 88.687 132.459 61.2268 134.389 59.0879C137.22 54.1919 134.648 47.9945 129.287 46.4506ZM56.7331 14.6412L57.054 13.527L123.299 32.6063L122.979 33.7205C122.169 36.5307 119.239 38.1402 116.441 37.3344L60.347 21.1789C57.5368 20.3696 55.9237 17.4515 56.7331 14.6412ZM36.151 30.1511C36.2957 26.1573 40.1434 23.4579 43.9069 24.5418L57.8839 28.5673L57.5918 31.1646L43.1938 27.0178C40.9778 26.3796 38.7905 28.0154 38.7274 30.2362C39.247 33.9253 33.6582 55.751 53.0995 70.8289C53.0176 71.9047 53.0171 72.9771 53.0856 74.0426C30.7963 58.4259 36.6451 33.3234 36.151 30.1511ZM57.2872 33.7582L53.3927 67.7627C36.6519 53.5028 41.8016 34.2722 41.3039 30.3213C41.3139 29.7745 41.8617 29.3156 42.4807 29.4938L57.2872 33.7582ZM90.0125 141.899L88.8252 146.021L25.8975 127.897L27.0848 123.775L90.0125 141.899ZM90.7828 117.438L84.9317 137.754L33.5918 122.968L39.4429 102.652L90.7828 117.438ZM85.5349 108.66L84.3155 112.894L47.3364 102.244L48.5558 98.01L85.5349 108.66ZM60.8528 89.8072C63.188 91.8472 66.2369 93.5968 69.5795 94.5595C72.8231 95.4937 76.2099 95.6513 79.2174 95.217C79.2617 95.2029 79.3148 95.2048 79.3555 95.2031C78.3233 97.9492 78.3293 100.954 79.3647 104.202L56.1151 97.5057C58.5901 95.3361 60.1759 92.7628 60.8528 89.8072ZM94.2482 81.3394C89.9999 90.2246 79.9119 94.8539 70.2926 92.0835C60.7229 89.3273 54.5912 80.0803 55.7092 70.2398L60.9957 24.0471L114.354 39.4146L94.2482 81.3394ZM112.329 49.6106L127.148 53.8786C127.742 54.0497 127.978 54.7209 127.7 55.2176C125.142 58.3286 119.219 77.3097 97.5239 80.4863L112.329 49.6106ZM132.158 57.8019C129.985 60.2731 121.662 84.6094 94.456 85.971C95.0808 85.1052 95.6384 84.1932 96.1536 83.2422C120.599 80.8042 127.571 59.2964 129.927 56.516C131.066 54.5647 130.052 52.0337 127.861 51.4026L113.45 47.2523L114.584 44.8975L128.574 48.9266C132.325 50.0069 134.16 54.3429 132.158 57.8019Z" fill="#323232"/>
<path d="M90.0122 141.898L27.0846 123.775L25.8973 127.897L88.8249 146.021L90.0122 141.898Z" fill="#D28F00"/>
<path d="M39.4427 102.652L33.5917 122.967L84.9316 137.754L90.7827 117.438L39.4427 102.652ZM81.4058 131.376L50.431 122.455L51.1441 119.979L79.6429 128.186L81.2153 122.727L44.7314 112.219L43.159 117.679L47.3063 118.873L46.5932 121.349L39.9699 119.442L42.9685 109.03L84.4045 120.964L81.4058 131.376Z" fill="#D28F00"/>
<path d="M85.5348 108.66L48.5557 98.0098L47.3362 102.244L84.3154 112.894L85.5348 108.66Z" fill="#D28F00"/>
<path d="M56.1142 97.5057C58.5893 95.3361 60.175 92.7628 60.852 89.8072C63.1871 91.8472 66.2361 93.5968 69.5787 94.5595C72.8222 95.4937 76.209 95.6512 79.2166 95.217C79.2609 95.2029 79.314 95.2048 79.3547 95.2031C78.3224 97.9492 78.3285 100.954 79.3639 104.202L56.1142 97.5057Z" fill="#D28F00"/>
<path d="M53.0854 74.0424C30.796 58.4258 36.6449 33.3233 36.1508 30.151C36.2955 26.1572 40.1431 23.4578 43.9067 24.5417L57.8837 28.5672L57.5915 31.1644L43.1936 27.0177C40.9775 26.3795 38.7903 28.0153 38.7272 30.2361C39.2467 33.9251 33.6579 55.7508 53.0992 70.8288C53.0173 71.9045 53.0168 72.977 53.0854 74.0424Z" fill="#D28F00"/>
<path d="M132.158 57.8019C129.985 60.273 121.662 84.6094 94.4556 85.971C95.0804 85.1052 95.638 84.1932 96.1532 83.2422C120.599 80.8041 127.571 59.2964 129.927 56.5159C131.066 54.5647 130.052 52.0337 127.86 51.4026L113.45 47.2523L114.584 44.8975L128.573 48.9266C132.325 50.0069 134.159 54.3429 132.158 57.8019Z" fill="#D28F00"/>
<path d="M60.9956 24.047L55.7091 70.2397C54.591 80.0801 60.7228 89.3272 70.2925 92.0833C79.9118 94.8538 89.9998 90.2245 94.2481 81.3392L114.353 39.4145L60.9956 24.047ZM71.0483 49.4257C71.5134 48.7418 72.3529 48.4339 73.1452 48.6621L78.6295 50.2416L81.8267 45.5181C82.2918 44.8342 83.1313 44.5263 83.9236 44.7545C84.7159 44.9827 85.263 45.69 85.2931 46.5165L85.4881 52.2169L90.9724 53.7965C91.7647 54.0247 92.3118 54.7319 92.3419 55.5584C92.372 56.3849 91.8644 57.1235 91.0975 57.4121L85.726 59.3509L85.9174 65.0638C85.9427 65.6743 85.6725 66.2401 85.1992 66.6266C84.3732 67.2602 83.1772 67.1302 82.5312 66.3006L79.0174 61.7894L73.6583 63.7318C72.686 64.0819 71.567 63.5451 71.2097 62.5975C71.0145 62.0185 71.0866 61.3957 71.4328 60.8921L74.6335 56.1562L71.1161 51.6573C70.6202 51.0051 70.5832 50.1095 71.0483 49.4257ZM89.6092 79.1049C86.4079 85.7981 78.8372 89.1815 71.7187 87.1313C64.5012 85.0526 60.0015 78.099 60.8293 70.8027L65.4251 30.6855L74.6606 33.3454L73.9475 35.8214L67.6337 34.003L63.3858 71.0965C61.8219 85.0452 81.1627 90.7898 87.288 77.994L103.437 44.3145L78.0329 36.998L78.746 34.522L107.072 42.68L89.6092 79.1049Z" fill="#D28F00"/>
<path d="M83.132 58.9524L83.2772 63.0565L80.7499 59.8216C80.2505 59.1817 79.3591 58.9249 78.5958 59.2012L74.735 60.5963L77.041 57.1982C77.5061 56.5143 77.469 55.6188 76.9608 54.9629L74.4371 51.7156L78.3863 52.853C79.1786 53.0812 80.0269 52.7892 80.4796 52.1018L82.7892 48.6912L82.9308 52.8077C82.961 53.6342 83.5116 54.3291 84.3039 54.5573L88.2532 55.6947L84.3888 57.1022C83.6095 57.3873 83.1019 58.1259 83.132 58.9524Z" fill="#D28F00"/>
<path d="M123.299 32.6062L122.978 33.7204C122.169 36.5307 119.239 38.1402 116.441 37.3343L60.3467 21.1789C57.5365 20.3695 55.9234 17.4514 56.7328 14.6412L57.0537 13.527L123.299 32.6062Z" fill="#D28F00"/>
</g>
<defs>
<filter id="filter0_f" x="0" y="0" width="147.545" height="160.028" filterUnits="userSpaceOnUse" color-interpolation-filters="sRGB">
<feFlood flood-opacity="0" result="BackgroundImageFix"/>
<feBlend mode="normal" in="SourceGraphic" in2="BackgroundImageFix" result="shape"/>
<feGaussianBlur stdDeviation="3" result="effect1_foregroundBlur"/>
</filter>
</defs>
</svg>
