<svg width="339" height="379" viewBox="0 0 339 379" fill="none" xmlns="http://www.w3.org/2000/svg">
<g opacity="0.6" filter="url(#filter0_f)">
<path d="M163.698 283.509L152.57 305.039L88.5174 271.932L91.1639 266.812L150.096 297.273L155.932 285.983L80.4869 246.988L74.6515 258.277L83.2277 262.71L80.5812 267.83L66.8849 260.751L78.0132 239.221L163.698 283.509Z" fill="#323232"/>
<path d="M247.636 121.679L193.41 193.955C183.462 207.239 165.375 211.353 150.654 203.745C135.729 196.03 128.897 178.809 133.901 163.165L161.516 77.1656L180.614 87.0368L177.967 92.157L164.911 85.4085L139.381 164.927C129.855 194.843 169.773 215.898 188.803 190.504L238.948 123.676L186.415 96.5236L189.062 91.4035L247.636 121.679Z" fill="#323232"/>
<path d="M209.694 143.494C209.989 141.667 209.098 139.877 207.46 139.03L196.119 133.168L198.182 120.577C198.477 118.751 197.586 116.96 195.948 116.114C194.309 115.267 192.333 115.575 191.014 116.872L181.936 125.837L170.595 119.975C168.956 119.129 166.98 119.437 165.661 120.734C164.342 122.031 164.032 124.012 164.835 125.66L170.585 137.066L161.493 146.057C160.514 147.01 160.084 148.345 160.259 149.701C160.628 151.935 162.849 153.602 165.135 153.259L177.74 151.34L183.477 162.772C184.532 164.874 187.099 165.682 189.187 164.653C190.395 164.012 191.235 162.889 191.446 161.539L193.523 148.922L206.154 147.017C207.962 146.719 209.399 145.32 209.694 143.494ZM191.573 143.405C189.739 143.69 188.303 145.089 188.008 146.915L186.533 155.982L182.402 147.781C181.586 146.159 179.743 145.206 177.948 145.478L168.868 146.852L175.412 140.405C176.731 139.108 177.041 137.127 176.213 135.466L172.096 127.239L180.262 131.46C181.901 132.307 183.889 132.037 185.183 130.727L191.74 124.255L190.252 133.347C189.957 135.173 190.861 136.938 192.499 137.785L200.666 142.006L191.573 143.405Z" fill="#323232"/>
<path d="M294.724 139.659L266.665 125.156L270.353 120.218C278.437 122.904 287.532 119.43 291.568 111.622L295.405 104.198L148.176 28.0987L144.339 35.5229C140.303 43.3311 142.703 52.7465 149.57 57.7879L147.699 63.666L119.641 49.1634C108.479 43.3942 94.8114 49.5652 91.927 61.8613C91.7761 68.3038 65.5206 127.95 115.035 174.499C115.179 182.943 117.452 191.287 121.682 198.794C119.396 206.793 114.099 212.586 105.566 216.416L92.6124 209.72L85.4405 223.596L70.5922 215.921L46.2316 263.052L34.2505 256.859L27.1977 270.504L24.6024 275.651C186.373 359.266 63.1057 295.552 164.971 348.203L167.566 343.057L174.619 329.412L162.638 323.219L186.998 276.088L172.15 268.414L179.322 254.538L166.368 247.843C164.32 238.123 165.943 230.462 171.321 224.515C179.929 223.677 188.114 220.706 195.139 215.903C261.697 229.413 295.224 173.461 300.393 169.612C308.743 160.108 305.809 145.389 294.724 139.659ZM149.459 38.1694L150.65 35.8653L287.639 106.671L286.448 108.975C283.444 114.787 276.312 117.037 270.526 114.046L154.53 54.0908C148.719 51.0871 146.455 43.9807 149.459 38.1694ZM97.5286 63.1995C99.5915 54.5013 109.212 50.2609 116.995 54.2836L145.898 69.2228L144.122 74.7928L114.348 59.4037C109.766 57.0351 104.252 59.6679 103.144 64.5122C102.671 72.8321 80.8723 118.27 116.933 159.844C116.283 162.168 115.813 164.52 115.498 166.888C73.425 122.888 97.2262 70.3746 97.5286 63.1995ZM142.32 80.3496L118.916 153.245C88.4223 114.646 108.124 74.7097 108.758 65.8248C109.019 64.6296 110.422 63.8622 111.702 64.5238L142.32 80.3496ZM166.852 331.885L162.446 340.41L32.3178 273.151L36.7242 264.626L166.852 331.885ZM179.232 278.562L157.517 320.573L51.3517 265.698L73.0659 223.688L179.232 278.562ZM171.555 257.012L167.03 265.767L90.5607 226.242L95.0861 217.487L171.555 257.012ZM125.648 204.866C129.879 210.362 135.803 215.532 142.715 219.105C149.422 222.572 156.783 224.398 163.571 224.759C163.674 224.748 163.79 224.775 163.88 224.789C160.415 230.363 159.115 236.957 159.968 244.534L111.89 219.684C118.268 216.006 122.871 211.054 125.648 204.866ZM202.61 200.884C189.407 218.52 165.253 224.266 145.362 213.985C125.572 203.756 116.162 180.791 122.915 159.692L154.7 60.6665L265.038 117.698L202.61 200.884ZM256.14 139.18L286.784 155.019C288.013 155.654 288.237 157.23 287.412 158.198C280.44 163.905 259.152 202.957 210.169 200.444L256.14 139.18ZM296.061 165.816C290.214 170.287 261.32 220.038 201.042 211.136C202.791 209.509 204.412 207.752 205.958 205.891C260.652 211.226 285.346 167.09 291.73 162.02C295.08 158.237 293.962 152.241 289.431 149.899L259.632 134.497L263.148 129.827L292.077 144.779C299.834 148.788 301.964 159.102 296.061 165.816Z" fill="#323232"/>
<path d="M166.852 331.885L36.7238 264.625L32.3174 273.15L162.445 340.41L166.852 331.885Z" fill="#FEBD2C"/>
<path d="M73.0659 223.688L51.3518 265.698L157.517 320.573L179.232 278.562L73.0659 223.688ZM152.57 305.039L88.5174 271.932L91.1639 266.812L150.096 297.273L155.932 285.983L80.4869 246.987L74.6515 258.277L83.2277 262.71L80.5812 267.83L66.8849 260.751L78.0132 239.221L163.698 283.509L152.57 305.039Z" fill="#FEBD2C"/>
<path d="M171.555 257.011L95.0858 217.486L90.5604 226.242L167.029 265.767L171.555 257.011Z" fill="#FEBD2C"/>
<path d="M111.889 219.684C118.266 216.006 122.87 211.054 125.646 204.866C129.878 210.362 135.802 215.532 142.714 219.105C149.421 222.572 156.782 224.398 163.57 224.759C163.673 224.748 163.789 224.775 163.879 224.789C160.414 230.362 159.114 236.957 159.966 244.534L111.889 219.684Z" fill="#FEBD2C"/>
<path d="M115.498 166.888C73.4252 122.888 97.2264 70.3748 97.5288 63.1997C99.5917 54.5015 109.212 50.2611 116.995 54.2837L145.898 69.2229L144.122 74.793L114.348 59.4038C109.766 57.0352 104.253 59.668 103.144 64.5123C102.671 72.8323 80.8725 118.27 116.933 159.844C116.283 162.168 115.813 164.52 115.498 166.888Z" fill="#FEBD2C"/>
<path d="M296.06 165.815C290.213 170.287 261.319 220.038 201.041 211.135C202.79 209.509 204.412 207.752 205.957 205.891C260.651 211.226 285.346 167.09 291.729 162.02C295.079 158.236 293.961 152.241 289.43 149.899L259.631 134.496L263.148 129.826L292.076 144.779C299.833 148.788 301.963 159.102 296.06 165.815Z" fill="#FEBD2C"/>
<path d="M154.699 60.6665L122.915 159.692C116.162 180.791 125.572 203.756 145.361 213.985C165.253 224.266 189.407 218.52 202.61 200.884L265.038 117.698L154.699 60.6665ZM165.662 120.734C166.981 119.437 168.957 119.129 170.595 119.976L181.937 125.838L191.015 116.873C192.334 115.576 194.31 115.267 195.948 116.114C197.587 116.961 198.478 118.751 198.183 120.578L196.119 133.168L207.46 139.03C209.099 139.877 209.99 141.668 209.695 143.494C209.4 145.32 207.963 146.719 206.155 147.017L193.524 148.923L191.447 161.539C191.235 162.889 190.395 164.012 189.188 164.653C187.099 165.682 184.532 164.875 183.478 162.772L177.741 151.34L165.135 153.259C162.849 153.602 160.629 151.936 160.259 149.701C160.084 148.345 160.515 147.011 161.494 146.057L170.585 137.066L164.835 125.66C164.032 124.012 164.343 122.031 165.662 120.734ZM193.41 193.955C183.462 207.239 165.375 211.353 150.654 203.745C135.729 196.03 128.897 178.809 133.901 163.165L161.516 77.1656L180.614 87.0369L177.967 92.157L164.911 85.4085L139.381 164.927C129.855 194.843 169.773 215.898 188.803 190.504L238.948 123.676L186.415 96.5236L189.062 91.4035L247.636 121.679L193.41 193.955Z" fill="#FEBD2C"/>
<path d="M188.007 146.915L186.533 155.982L182.402 147.78C181.586 146.158 179.743 145.206 177.948 145.478L168.868 146.851L175.412 140.404C176.731 139.107 177.041 137.127 176.213 135.466L172.096 127.239L180.262 131.46C181.901 132.307 183.889 132.037 185.183 130.727L191.74 124.254L190.252 133.347C189.956 135.173 190.861 136.938 192.499 137.785L200.666 142.006L191.573 143.405C189.739 143.69 188.303 145.088 188.007 146.915Z" fill="#FE6B2C"/>
<path d="M287.638 106.671L286.447 108.975C283.443 114.786 276.311 117.036 270.526 114.046L154.529 54.0905C148.718 51.0868 146.455 43.9804 149.458 38.169L150.649 35.865L287.638 106.671Z" fill="#FEBD2C"/>
</g>
<defs>
<filter id="filter0_f" x="-22" y="0" width="360.541" height="378.056" filterUnits="userSpaceOnUse" color-interpolation-filters="sRGB">
<feFlood flood-opacity="0" result="BackgroundImageFix"/>
<feBlend mode="normal" in="SourceGraphic" in2="BackgroundImageFix" result="shape"/>
<feGaussianBlur stdDeviation="6" result="effect1_foregroundBlur"/>
</filter>
</defs>
</svg>
