<svg width="161" height="173" viewBox="0 0 161 173" fill="none" xmlns="http://www.w3.org/2000/svg">
<path d="M89.1217 133.653L84.9196 145.216L50.5193 132.715L51.5186 129.965L83.1691 141.467L85.3725 135.404L44.8539 120.679L42.6504 126.743L47.2564 128.417L46.2571 131.166L38.9013 128.493L43.1033 116.93L89.1217 133.653Z" fill="#323232"/>
<path d="M120.853 46.7215L98.2539 86.6357C94.1097 93.9705 85.2716 97.2182 77.3659 94.3452C69.3501 91.4323 64.7903 83.2068 66.2922 75.0052L74.6004 29.9135L84.8573 33.6408L83.858 36.3906L76.8459 33.8424L69.1656 75.5358C66.3155 91.2167 87.7817 99.2199 95.7102 85.1977L116.608 48.2922L88.3952 38.0395L89.3945 35.2896L120.853 46.7215Z" fill="#323232"/>
<path d="M103.17 60.172C103.2 59.2334 102.635 58.3899 101.755 58.0701L95.664 55.8567L95.8838 49.3838C95.9136 48.4451 95.3485 47.6016 94.4686 47.2818C93.5886 46.9621 92.6138 47.246 92.0341 47.9848L88.0469 53.0886L81.9561 50.8752C81.0761 50.5554 80.1013 50.8393 79.5216 51.5781C78.9418 52.3169 78.9145 53.3342 79.4258 54.1115L83.0627 59.48L79.0706 64.5976C78.6395 65.1414 78.5096 65.8413 78.686 66.5125C79.0174 67.6135 80.2437 68.3081 81.3722 67.9867L87.5935 66.2006L91.2253 71.5829C91.8929 72.5726 93.2378 72.8123 94.2225 72.1585C94.7886 71.7571 95.1384 71.1372 95.157 70.4435L95.3819 63.9569L101.617 62.1758C102.508 61.9082 103.14 61.1106 103.17 60.172ZM94.0416 61.3062C93.1367 61.5689 92.5045 62.3664 92.4747 63.305L92.3219 67.9657L89.709 64.1055C89.1927 63.342 88.2027 62.9822 87.3166 63.2361L82.835 64.5181L85.7101 60.8468C86.2899 60.108 86.3172 59.0906 85.7921 58.3084L83.1841 54.4344L87.5701 56.0283C88.4501 56.3481 89.4336 56.0829 89.9996 55.3392L92.8797 51.6541L92.722 56.3285C92.6922 57.2671 93.2623 58.0969 94.1422 58.4166L98.5282 60.0105L94.0416 61.3062Z" fill="#323232"/>
<path d="M145.728 52.7107L130.659 47.2345L132.195 44.5083C136.439 45.3349 140.792 42.9943 142.316 38.8008L143.765 34.8135L64.6936 6.07889L63.2446 10.0661C61.7207 14.2596 63.5414 18.8436 67.3263 20.935L66.767 24.016L51.698 18.5399C45.7034 16.3614 39.2238 20.3572 38.5715 26.7352C38.9146 29.9884 29.5762 61.7247 57.5316 81.9386C58.1536 86.1804 59.8405 90.2332 62.4583 93.7372C61.828 97.913 59.5378 101.174 55.4913 103.657L48.5343 101.129L45.8262 108.581L37.8517 105.683L28.6532 130.995L22.2186 128.657L19.5555 135.985L18.5837 138.745C105.464 170.318 39.2624 146.26 93.9702 166.141L94.942 163.381L97.6051 156.053L91.1705 153.714L100.369 128.402L92.3945 125.504L95.1026 118.052L88.1455 115.524C86.4823 110.764 86.8014 106.802 89.1216 103.458C93.4008 102.476 97.3286 100.448 100.553 97.5725C134.94 100.045 148.179 69.6953 150.531 67.4214C154.117 62.0939 151.682 54.8741 145.728 52.7107ZM65.9945 11.0654L66.4441 9.82801L140.016 36.5641L139.566 37.8015C138.432 40.9225 134.988 42.5193 131.88 41.3901L69.5831 18.7511C66.462 17.6169 64.8603 14.1865 65.9945 11.0654ZM41.4787 27.0445C41.9514 22.5313 46.519 19.7708 50.6987 21.2897L66.2215 26.9307L65.6896 29.8504L49.6994 24.0395C47.2383 23.1451 44.634 24.8292 44.3908 27.3401C44.6942 31.5595 36.6753 55.8528 57.5338 74.4372C57.3578 75.6495 57.2743 76.8644 57.2695 78.0767C33.2264 58.6619 41.7931 30.6765 41.4787 27.0445ZM65.1441 32.7651L58.103 70.9863C40.2406 53.5374 47.5614 32.1501 47.303 27.6358C47.3566 27.0171 48.0127 26.5395 48.7001 26.7893L65.1441 32.7651ZM93.856 157.803L92.1922 162.382L22.3053 136.985L23.9692 132.406L93.856 157.803ZM96.6199 130.153L88.4207 152.715L31.403 131.995L39.6022 109.432L96.6199 130.153ZM91.3535 119.803L89.6447 124.505L48.576 109.58L50.2848 104.878L91.3535 119.803ZM64.8498 96.5363C67.3375 99.028 70.6562 101.246 74.3685 102.595C77.9708 103.904 81.7953 104.344 85.2361 104.085C85.2873 104.072 85.3473 104.079 85.3935 104.08C84.0118 107.111 83.7863 110.515 84.7082 114.275L58.8874 104.891C61.859 102.625 63.8544 99.8323 64.8498 96.5363ZM103.337 89.5256C97.8371 99.2629 86.0509 103.727 75.3678 99.8449C64.7397 95.9827 58.5083 85.033 60.5357 73.9716L70.0962 22.0506L129.355 43.5853L103.337 89.5256ZM126.273 54.9794L142.73 60.9601C143.39 61.2 143.606 61.9786 143.253 62.5198C140.114 65.8462 131.937 86.8913 107.114 88.8124L126.273 54.9794ZM148.103 65.7921C145.45 68.4235 134.14 95.3496 103.214 94.7886C103.989 93.8561 104.691 92.8661 105.348 91.8286C133.23 90.9567 142.792 67.1305 145.676 64.1628C147.116 62.0403 146.163 59.0947 143.73 58.2103L127.726 52.3944L129.192 49.8145L144.729 55.4605C148.895 56.9744 150.638 62.0283 148.103 65.7921Z" fill="#323232"/>
<path d="M93.8558 157.803L23.969 132.406L22.3052 136.984L92.192 162.381L93.8558 157.803Z" fill="#D28F00"/>
<path d="M39.6025 109.432L31.4033 131.995L88.4209 152.715L96.6201 130.153L39.6025 109.432ZM84.9199 145.217L50.5195 132.715L51.5188 129.966L83.1693 141.468L85.3728 135.404L44.8541 120.68L42.6506 126.743L47.2566 128.417L46.2573 131.167L38.9015 128.493L43.1035 116.93L89.1219 133.654L84.9199 145.217Z" fill="#D28F00"/>
<path d="M91.3533 119.802L50.2846 104.878L48.5758 109.58L89.6445 124.505L91.3533 119.802Z" fill="#D28F00"/>
<path d="M58.8868 104.891C61.8584 102.625 63.8538 99.8322 64.8493 96.5362C67.3369 99.0279 70.6557 101.246 74.368 102.595C77.9702 103.904 81.7948 104.344 85.2355 104.085C85.2867 104.072 85.3467 104.078 85.393 104.08C84.0113 107.111 83.7858 110.515 84.7077 114.275L58.8868 104.891Z" fill="#D28F00"/>
<path d="M57.2695 78.0767C33.2263 58.6618 41.7931 30.6764 41.4786 27.0445C41.9514 22.5313 46.5189 19.7707 50.6987 21.2896L66.2214 26.9306L65.6896 29.8504L49.6994 24.0395C47.2383 23.1451 44.634 24.8292 44.3908 27.3401C44.6941 31.5595 36.6753 55.8528 57.5337 74.4371C57.3578 75.6495 57.2743 76.8643 57.2695 78.0767Z" fill="#D28F00"/>
<path d="M148.102 65.792C145.45 68.4234 134.139 95.3495 103.213 94.7885C103.988 93.856 104.69 92.866 105.348 91.8285C133.23 90.9566 142.791 67.1304 145.675 64.1627C147.116 62.0402 146.163 59.0946 143.729 58.2102L127.725 52.3943L129.192 49.8144L144.728 55.4604C148.894 56.9743 150.638 62.0282 148.102 65.792Z" fill="#D28F00"/>
<path d="M70.0957 22.0504L60.5352 73.9714C58.5078 85.0328 64.7392 95.9825 75.3673 99.8448C86.0504 103.727 97.8366 99.2627 103.336 89.5254L129.354 43.5852L70.0957 22.0504ZM79.5217 51.5781C80.1015 50.8393 81.0763 50.5554 81.9562 50.8752L88.0471 53.0886L92.0343 47.9848C92.614 47.246 93.5888 46.9621 94.4688 47.2819C95.3487 47.6016 95.9138 48.4451 95.884 49.3838L95.6641 55.8567L101.755 58.0701C102.635 58.3899 103.2 59.2334 103.17 60.172C103.14 61.1106 102.508 61.9082 101.617 62.1758L95.3821 63.9569L95.1572 70.4435C95.1386 71.1372 94.7888 71.7572 94.2227 72.1585C93.238 72.8123 91.8931 72.5726 91.2255 71.5829L87.5936 66.2007L81.3724 67.9867C80.2438 68.3081 79.0176 67.6135 78.6862 66.5125C78.5098 65.8413 78.6397 65.1414 79.0707 64.5976L83.0629 59.48L79.426 54.1115C78.9147 53.3342 78.942 52.3169 79.5217 51.5781ZM98.2539 86.6356C94.1097 93.9705 85.2716 97.2181 77.3659 94.3451C69.3501 91.4322 64.7903 83.2068 66.2922 75.0051L74.6004 29.9134L84.8573 33.6407L83.858 36.3906L76.8459 33.8424L69.1656 75.5357C66.3155 91.2166 87.7817 99.2198 95.7102 85.1976L116.608 48.2921L88.3952 38.0394L89.3945 35.2896L120.853 46.7215L98.2539 86.6356Z" fill="#D28F00"/>
<path d="M92.4746 63.3047L92.3218 67.9654L89.7089 64.1052C89.1926 63.3416 88.2026 62.9819 87.3165 63.2358L82.8349 64.5178L85.71 60.8465C86.2898 60.1077 86.3171 59.0903 85.792 58.308L83.184 54.4341L87.57 56.028C88.45 56.3478 89.4335 56.0826 89.9995 55.3388L92.8796 51.6537L92.7219 56.3281C92.6921 57.2668 93.2622 58.0965 94.1421 58.4163L98.5281 60.0102L94.0415 61.3059C93.1366 61.5686 92.5044 62.3661 92.4746 63.3047Z" fill="#D28F00"/>
<path d="M140.015 36.5638L139.566 37.8012C138.431 40.9223 134.987 42.519 131.88 41.3898L69.5826 18.7508C66.4615 17.6166 64.8598 14.1862 65.994 11.0652L66.4437 9.82773L140.015 36.5638Z" fill="#D28F00"/>
</svg>
