<svg width="357" height="405" viewBox="0 0 357 405" fill="none" xmlns="http://www.w3.org/2000/svg">
<g filter="url(#filter0_f)">
<path d="M282.683 248.97L295.894 270.691L231.271 309.993L228.129 304.828L287.586 268.667L280.659 257.277L204.542 303.569L211.47 314.96L220.122 309.697L223.264 314.863L209.446 323.267L196.235 301.545L282.683 248.97Z" fill="#323232"/>
<path d="M183.544 85.4375L218.684 173.467C225.152 189.63 218.964 208.078 204.112 217.11C189.054 226.268 169.899 222.987 158.617 209.963L96.6575 138.28L115.926 126.562L119.067 131.728L105.895 139.739L163.187 206.017C184.784 230.882 225.436 206.618 213.077 175.71L180.591 94.3104L127.591 126.544L124.449 121.378L183.544 85.4375Z" fill="#323232"/>
<path d="M182.372 131.333C180.897 130.072 178.807 129.892 177.154 130.898L165.712 137.857L155.56 129.135C154.085 127.873 151.995 127.694 150.342 128.699C148.689 129.705 147.886 131.643 148.328 133.533L151.403 146.559L139.961 153.518C138.308 154.523 137.505 156.462 137.947 158.351C138.389 160.241 139.994 161.6 141.908 161.781L155.264 162.857L158.355 175.908C158.674 177.306 159.635 178.42 160.945 179.003C163.148 179.892 165.853 178.813 166.794 176.578L171.956 164.239L185.329 165.341C187.787 165.544 189.912 163.686 190.131 161.253C190.216 159.822 189.668 158.456 188.574 157.53L178.407 148.782L183.595 136.427C184.315 134.645 183.847 132.594 182.372 131.333ZM172.401 147.517C171.654 149.315 172.123 151.365 173.598 152.627L180.914 158.898L171.313 158.12C169.415 157.966 167.555 159.097 166.819 160.854L163.093 169.736L160.89 160.355C160.449 158.465 158.844 157.106 156.904 156.942L147.287 156.139L155.526 151.128C157.179 150.122 158.023 148.194 157.555 146.32L155.337 136.913L162.669 143.21C164.144 144.471 166.219 144.624 167.872 143.619L176.111 138.608L172.401 147.517Z" fill="#323232"/>
<path d="M225.356 53.0737L197.048 70.29L194.637 64.2904C201.457 58.5155 203.31 48.4723 198.519 40.5946L193.963 33.1044L45.4236 123.443L49.979 130.933C54.77 138.811 64.5141 141.801 72.7786 138.402L77.0229 143.286L48.7149 160.503C37.4537 167.352 35.52 182.963 44.9597 192.26C50.6483 195.912 89.7437 251.992 158.47 233.051C166.113 237.531 174.828 240.05 183.861 240.359C189.779 246.773 192.076 254.681 190.849 264.415L177.78 272.363L186.294 286.362L171.313 295.473L200.232 343.023L188.144 350.375L196.517 364.141L199.71 369.276C362.92 270.015 238.556 345.65 341.328 283.147L338.134 278.013L329.762 264.246L317.674 271.598L288.755 224.047L273.775 233.158L265.261 219.159L252.192 227.108C242.367 223.636 236.392 218 234 209.937C237.948 201.768 239.756 192.814 239.288 183.899C287.725 131.655 255.907 71.078 255.281 64.347C251.327 51.679 236.54 46.272 225.356 53.0737ZM55.1447 127.791L53.731 125.467L191.939 41.4117L193.353 43.7363C196.919 49.5994 195.041 57.2163 189.204 60.7664L72.1748 131.941C66.3117 135.506 58.7105 133.654 55.1447 127.791ZM49.2164 187.973C42.5511 181.376 44.0047 170.444 51.8565 165.668L81.0169 147.934L85.0367 152.565L54.9982 170.834C50.3749 173.646 49.7236 180.022 53.4575 183.66C60.6522 188.625 89.4534 232.956 146.379 223.35C148.106 225.201 149.957 226.906 151.905 228.481C89.524 242.148 55.4785 192.16 49.2164 187.973ZM89.0307 157.213L141.551 217.972C90.3291 224.215 65.3107 184.765 57.6985 179.347C56.7703 178.46 56.8484 176.785 58.1399 176L89.0307 157.213ZM327.738 272.553L332.969 281.154L201.683 361L196.452 352.399L327.738 272.553ZM286.731 232.355L312.508 274.739L205.398 339.882L179.62 297.497L286.731 232.355ZM263.237 227.467L268.609 236.3L191.459 283.221L186.087 274.387L263.237 227.467ZM191.465 240.122C198.698 239.332 206.564 236.848 213.538 232.607C220.305 228.491 225.959 222.894 229.988 217.012C230.034 216.913 230.122 216.824 230.183 216.751C233.284 222.897 238.482 227.661 245.734 231.035L197.229 260.535C197.416 252.814 195.493 245.987 191.465 240.122ZM229.913 169.009C238.503 190.462 230.465 215.236 210.396 227.441C190.431 239.583 164.722 235.476 149.509 217.908L78.1576 135.378L189.478 67.6757L229.913 169.009ZM203.864 87.3736L234.781 68.5708C236.021 67.8168 237.554 68.4764 237.971 69.7441C239.277 79.1047 262.636 119.492 233.645 161.997L203.864 87.3736ZM249.516 66.1547C250.33 73.8333 279.121 126.875 238.24 176.01C237.738 173.555 237.049 171.143 236.226 168.743C270.863 122.662 244.808 76.4482 243.752 67.9623C242.192 62.896 236.211 60.6247 231.639 63.4051L201.575 81.6896L199.311 75.9898L228.498 58.2394C236.324 53.4798 246.725 57.2022 249.516 66.1547Z" fill="#323232"/>
<path d="M327.737 272.553L196.451 352.399L201.682 361L332.968 281.154L327.737 272.553Z" fill="#FEBD2C"/>
<path d="M179.62 297.497L205.397 339.881L312.508 274.739L286.73 232.355L179.62 297.497ZM295.893 270.691L231.27 309.993L228.128 304.828L287.585 268.667L280.658 257.277L204.542 303.569L211.469 314.959L220.121 309.697L223.263 314.863L209.445 323.267L196.234 301.545L282.682 248.969L295.893 270.691Z" fill="#FEBD2C"/>
<path d="M263.236 227.467L186.086 274.387L191.458 283.221L268.608 236.3L263.236 227.467Z" fill="#FEBD2C"/>
<path d="M197.228 260.535C197.415 252.815 195.492 245.988 191.464 240.122C198.697 239.332 206.563 236.848 213.537 232.607C220.304 228.492 225.958 222.895 229.987 217.012C230.033 216.913 230.121 216.825 230.182 216.752C233.283 222.898 238.481 227.662 245.733 231.035L197.228 260.535Z" fill="#FEBD2C"/>
<path d="M151.905 228.481C89.5241 242.148 55.4786 192.16 49.2165 187.973C42.5512 181.376 44.0048 170.444 51.8566 165.668L81.017 147.934L85.0368 152.565L54.9983 170.834C50.375 173.646 49.7237 180.022 53.4576 183.66C60.6523 188.625 89.4535 232.956 146.379 223.35C148.106 225.201 149.957 226.906 151.905 228.481Z" fill="#FEBD2C"/>
<path d="M249.515 66.1556C250.328 73.8342 279.12 126.876 238.239 176.01C237.736 173.556 237.048 171.144 236.225 168.743C270.861 122.663 244.807 76.4491 243.75 67.9632C242.191 62.8969 236.21 60.6256 231.638 63.406L201.574 81.6905L199.31 75.9907L228.496 58.2403C236.322 53.4807 246.724 57.2031 249.515 66.1556Z" fill="#FEBD2C"/>
<path d="M78.1578 135.379L149.509 217.909C164.722 235.476 190.431 239.584 210.396 227.441C230.465 215.236 238.503 190.463 229.913 169.009L189.479 67.6758L78.1578 135.379ZM137.948 158.351C137.507 156.461 138.309 154.522 139.962 153.517L151.404 146.558L148.33 133.532C147.888 131.643 148.69 129.704 150.343 128.699C151.996 127.693 154.087 127.873 155.562 129.134L165.713 137.856L177.155 130.897C178.808 129.892 180.899 130.071 182.373 131.332C183.848 132.594 184.317 134.644 183.596 136.427L178.408 148.781L188.576 157.529C189.67 158.456 190.217 159.821 190.132 161.252C189.914 163.685 187.789 165.544 185.33 165.341L171.958 164.239L166.795 176.578C165.855 178.813 163.15 179.892 160.946 179.003C159.636 178.42 158.676 177.306 158.356 175.908L155.266 162.856L141.909 161.78C139.995 161.599 138.39 160.24 137.948 158.351ZM218.684 173.467C225.153 189.63 218.964 208.077 204.113 217.11C189.055 226.268 169.899 222.986 158.617 209.963L96.658 138.28L115.926 126.562L119.068 131.727L105.895 139.738L163.187 206.016C184.784 230.881 225.436 206.618 213.078 175.709L180.591 94.3101L127.591 126.543L124.449 121.378L183.545 85.4372L218.684 173.467Z" fill="#FEBD2C"/>
<path d="M173.598 152.626L180.915 158.897L171.314 158.12C169.415 157.966 167.556 159.097 166.82 160.853L163.093 169.736L160.891 160.355C160.449 158.465 158.844 157.106 156.904 156.941L147.287 156.138L155.526 151.127C157.179 150.122 158.023 148.194 157.556 146.32L155.338 136.913L162.67 143.209C164.145 144.471 166.219 144.624 167.872 143.619L176.112 138.608L172.401 147.516C171.655 149.315 172.124 151.365 173.598 152.626Z" fill="#FE6B2C"/>
<path d="M191.938 41.4123L193.352 43.7369C196.918 49.6 195.04 57.2169 189.203 60.767L72.1737 131.941C66.3107 135.507 58.7095 133.655 55.1437 127.792L53.7299 125.467L191.938 41.4123Z" fill="#FEBD2C"/>
</g>
<defs>
<filter id="filter0_f" x="0" y="-2.67029e-05" width="390.175" height="404.507" filterUnits="userSpaceOnUse" color-interpolation-filters="sRGB">
<feFlood flood-opacity="0" result="BackgroundImageFix"/>
<feBlend mode="normal" in="SourceGraphic" in2="BackgroundImageFix" result="shape"/>
<feGaussianBlur stdDeviation="7" result="effect1_foregroundBlur"/>
</filter>
</defs>
</svg>
