<svg width="221" height="327" viewBox="0 0 221 327" fill="none" xmlns="http://www.w3.org/2000/svg">
<g opacity="0.1" filter="url(#filter0_f)">
<path d="M137.032 188.613L150.993 204.433L103.928 245.967L100.608 242.205L143.911 203.991L136.59 195.695L81.1538 244.616L88.4745 252.912L94.7762 247.351L98.0963 251.113L88.0324 259.994L74.0715 244.174L137.032 188.613Z" fill="#323232"/>
<path d="M32.1879 69.4649L73.7342 136.261C81.3761 148.523 79.0102 164.496 68.1938 174.042C57.227 183.72 41.0983 183.832 29.9819 174.838L-31.0925 125.308L-17.0595 112.924L-13.7394 116.687L-23.3331 125.153L33.1399 170.947C54.411 188.112 84.0849 162.36 69.4806 138.91L31.0686 77.1447L-7.53176 111.209L-10.8518 107.446L32.1879 69.4649Z" fill="#323232"/>
<path d="M37.9235 107.133C36.5347 106.317 34.8006 106.476 33.5967 107.538L25.2634 114.892L15.6976 109.247C14.3087 108.431 12.5747 108.59 11.3708 109.652C10.1669 110.714 9.79409 112.415 10.4305 113.895L14.8421 124.088L6.50878 131.442C5.30488 132.505 4.93207 134.206 5.56846 135.685C6.20486 137.165 7.71432 138.041 9.30449 137.909L20.3737 136.841L24.802 147.053C25.2668 148.149 26.2141 148.919 27.3694 149.204C29.2994 149.609 31.352 148.333 31.7945 146.37L34.2128 135.536L45.2986 134.486C47.337 134.294 48.802 132.465 48.6259 130.446C48.4864 129.264 47.8401 128.228 46.8109 127.631L37.2285 121.967L39.6656 111.116C39.9941 109.555 39.3123 107.948 37.9235 107.133ZM32.137 121.809C31.7896 123.387 32.4714 124.994 33.8602 125.809L40.7524 129.865L32.7949 130.631C31.2213 130.781 29.8669 131.976 29.5218 133.519L27.7728 141.32L24.6052 133.976C23.9688 132.497 22.4593 131.621 20.8503 131.769L12.8762 132.515L18.877 127.22C20.0809 126.157 20.4891 124.459 19.8339 122.996L16.6497 115.634L23.5585 119.709C24.9473 120.525 26.6647 120.347 27.8687 119.285L33.8694 113.989L32.137 121.809Z" fill="#323232"/>
<path d="M61.6285 36.9263L41.0115 55.1202L38.1672 50.5701C42.8965 44.8575 42.9457 36.382 37.8826 30.6446L33.0685 25.1894L-75.114 120.658L-70.2999 126.113C-65.2368 131.85 -56.8398 132.872 -50.5834 128.89L-46.4035 132.262L-67.0205 150.456C-75.2221 157.693 -74.5252 170.73 -65.4572 176.949C-60.2771 179.103 -20.1579 219.219 33.2294 193.721C40.127 196.267 47.6143 197.055 55.0395 195.989C60.8096 200.367 63.8399 206.493 64.2566 214.624L54.7382 223.024L63.7355 233.219L52.8251 242.847L83.3862 277.479L74.5827 285.248L83.4306 295.274L86.7883 299.003C205.655 194.106 115.08 274.036 189.929 207.984L186.572 204.255L177.724 194.228L168.92 201.997L138.359 167.366L127.449 176.994L118.451 166.799L108.933 175.198C100.4 173.795 94.6961 170.061 91.5662 163.823C93.6008 156.573 93.7718 148.994 92.0892 141.779C124.043 92.0318 89.2145 47.1804 87.7213 41.7725C82.6436 31.9994 69.7737 29.7384 61.6285 36.9263ZM-66.5377 122.793L-68.0317 121.1L32.6264 32.2717L34.1204 33.9647C37.8886 38.2348 37.4653 44.7317 33.214 48.4833L-52.019 123.699C-56.2891 127.468 -62.7694 127.063 -66.5377 122.793ZM-62.6047 172.825C-69.0122 168.408 -69.419 159.264 -63.7004 154.218L-42.4627 135.476L-38.5031 138.674L-60.3804 157.98C-63.7475 160.952 -63.3499 166.255 -59.7688 168.683C-53.1666 171.69 -23.1711 203.709 21.9361 187.559C23.6171 188.82 25.3778 189.943 27.1993 190.945C-21.773 211.208 -56.8779 175.334 -62.6047 172.825ZM-34.5623 141.888L17.2074 183.869C-23.7304 196.44 -49.9234 167.858 -56.9328 164.541C-57.8204 163.952 -58.0008 162.572 -57.0603 161.742L-34.5623 141.888ZM177.282 201.311L182.809 207.575L87.1928 291.954L81.6649 285.69L177.282 201.311ZM137.917 174.448L165.158 205.317L87.1484 274.159L59.9074 243.29L137.917 174.448ZM118.009 173.881L123.686 180.314L67.4977 229.899L61.8204 223.466L118.009 173.881ZM61.2176 194.687C67.0116 192.986 73.0756 189.81 78.1546 185.328C83.0831 180.979 86.8861 175.582 89.3202 170.188C89.3435 170.1 89.4021 170.015 89.442 169.947C92.8716 174.516 97.8128 177.65 104.23 179.348L68.9029 210.524C67.9298 204.188 65.3632 198.891 61.2176 194.687ZM82.2586 130.98C92.405 147.256 89.4507 168.667 74.8345 181.566C60.2936 194.398 38.6905 194.791 23.6997 182.657L-46.6297 125.635L34.446 54.0882L82.2586 130.98ZM49.0718 68.0835L71.5886 48.2129C72.4916 47.4161 73.8405 47.7314 74.3662 48.7063C76.7979 56.1635 101.773 85.7534 84.2854 124.708L49.0718 68.0835ZM83.2751 44.0901C85.0594 50.2448 116.317 89.3809 90.0825 135.486C89.3144 133.554 88.4003 131.684 87.3776 129.842C108.956 87.1439 80.9298 53.1865 78.829 46.4076C76.8158 42.4959 71.5981 41.5125 68.2686 44.4507L46.3725 63.7735L43.692 59.4468L64.9485 40.6885C70.6483 35.6586 79.6893 37.1829 83.2751 44.0901Z" fill="#323232"/>
<path d="M177.281 201.311L81.6642 285.69L87.1921 291.954L182.809 207.575L177.281 201.311Z" fill="#CCCCCC"/>
<path d="M59.9071 243.29L87.1482 274.159L165.158 205.318L137.917 174.449L59.9071 243.29ZM150.993 204.433L103.928 245.967L100.608 242.205L143.911 203.991L136.59 195.695L81.1539 244.617L88.4746 252.912L94.7763 247.351L98.0964 251.113L88.0325 259.994L74.0716 244.174L137.032 188.613L150.993 204.433Z" fill="#CCCCCC"/>
<path d="M118.008 173.881L61.8197 223.466L67.497 229.899L123.686 180.314L118.008 173.881Z" fill="#CCCCCC"/>
<path d="M68.902 210.525C67.9288 204.19 65.3623 198.892 61.2167 194.688C67.0107 192.987 73.0746 189.811 78.1536 185.329C83.0821 180.98 86.8852 175.583 89.3193 170.189C89.3425 170.101 89.4012 170.016 89.441 169.948C92.8707 174.517 97.8119 177.651 104.229 179.349L68.902 210.525Z" fill="#CCCCCC"/>
<path d="M27.199 190.945C-21.7733 211.208 -56.8782 175.334 -62.605 172.826C-69.0125 168.408 -69.4193 159.265 -63.7007 154.218L-42.463 135.476L-38.5034 138.674L-60.3807 157.98C-63.7478 160.952 -63.3502 166.256 -59.7691 168.683C-53.1669 171.691 -23.1714 203.709 21.9358 187.56C23.6168 188.82 25.3775 189.943 27.199 190.945Z" fill="#CCCCCC"/>
<path d="M83.2742 44.0908C85.0585 50.2456 116.316 89.3817 90.0816 135.487C89.3135 133.555 88.3993 131.684 87.3767 129.843C108.955 87.1446 80.9288 53.1872 78.828 46.4083C76.8149 42.4966 71.5972 41.5132 68.2676 44.4515L46.3715 63.7742L43.691 59.4476L64.9476 40.6892C70.6473 35.6594 79.6883 37.1836 83.2742 44.0908Z" fill="#CCCCCC"/>
<path d="M-46.6302 125.636L23.6992 182.658C38.69 194.791 60.293 194.398 74.834 181.566C89.4502 168.668 92.4045 147.256 82.2581 130.981L34.4455 54.0886L-46.6302 125.636ZM5.56877 135.685C4.93238 134.205 5.30518 132.504 6.50909 131.442L14.8424 124.088L10.4308 113.894C9.7944 112.415 10.1672 110.714 11.3711 109.652C12.575 108.589 14.3091 108.431 15.6979 109.246L25.2637 114.891L33.597 107.537C34.8009 106.475 36.535 106.317 37.9238 107.132C39.3127 107.948 39.9944 109.554 39.6659 111.116L37.2288 121.966L46.8112 127.63C47.8404 128.228 48.4867 129.263 48.6262 130.445C48.8023 132.465 47.3373 134.293 45.299 134.486L34.2131 135.536L31.7948 146.369C31.3523 148.332 29.2997 149.609 27.3697 149.204C26.2144 148.918 25.2671 148.148 24.8023 147.053L20.3741 136.84L9.3048 137.909C7.71462 138.04 6.20517 137.164 5.56877 135.685ZM73.7343 136.261C81.3762 148.523 79.0103 164.497 68.1939 174.042C57.227 183.72 41.0983 183.833 29.9819 174.838L-31.0925 125.308L-17.0594 112.925L-13.7394 116.687L-23.333 125.153L33.1399 170.947C54.411 188.112 84.085 162.361 69.4807 138.91L31.0686 77.1449L-7.53173 111.209L-10.8518 107.446L32.188 69.465L73.7343 136.261Z" fill="#CCCCCC"/>
<path d="M33.8598 125.809L40.752 129.865L32.7945 130.63C31.2209 130.781 29.8665 131.976 29.5214 133.519L27.7724 141.319L24.6048 133.976C23.9684 132.497 22.4589 131.62 20.8499 131.769L12.8758 132.515L18.8766 127.22C20.0805 126.157 20.4887 124.459 19.8335 122.996L16.6493 115.634L23.5581 119.709C24.9469 120.524 26.6643 120.347 27.8683 119.285L33.869 113.989L32.1366 121.809C31.7892 123.387 32.471 124.993 33.8598 125.809Z" fill="#CCCDCD"/>
<path d="M32.6256 32.2725L34.1196 33.9654C37.8879 38.2356 37.4645 44.7324 33.2132 48.4841L-52.0198 123.7C-56.2899 127.468 -62.7702 127.064 -66.5384 122.794L-68.0325 121.101L32.6256 32.2725Z" fill="#CCCCCC"/>
</g>
<defs>
<filter id="filter0_f" x="-103" y="0.00012207" width="323.309" height="326.44" filterUnits="userSpaceOnUse" color-interpolation-filters="sRGB">
<feFlood flood-opacity="0" result="BackgroundImageFix"/>
<feBlend mode="normal" in="SourceGraphic" in2="BackgroundImageFix" result="shape"/>
<feGaussianBlur stdDeviation="2.5" result="effect1_foregroundBlur"/>
</filter>
</defs>
</svg>
