<svg width="67" height="67" viewBox="0 0 67 67" fill="none" xmlns="http://www.w3.org/2000/svg">
<g filter="url(#filter0_f)">
<path d="M30.8707 46.9809L28.6297 49.696L20.5522 43.0289L21.0852 42.3832L28.517 48.5174L29.6921 47.0936L20.178 39.2408L19.0029 40.6645L20.0844 41.5572L19.5514 42.2028L17.8242 40.7772L20.0652 38.0621L30.8707 46.9809Z" fill="#323232"/>
<path d="M47.7566 26.5819L37.8386 35.1785C36.0184 36.7591 33.3241 36.7878 31.4678 35.2556C29.5856 33.7021 29.1444 31.0473 30.3352 28.9798L36.8963 17.6179L39.3047 19.6057L38.7717 20.2514L37.1253 18.8924L31.0592 29.3982C28.7881 33.3532 33.8091 37.5681 37.2906 34.547L46.4618 26.5987L39.8371 21.1308L40.3701 20.4851L47.7566 26.5819Z" fill="#323232"/>
<path d="M41.6999 28.514C41.7979 28.2638 41.7263 27.9822 41.5197 27.8116L40.0895 26.6312L40.7691 24.907C40.8671 24.6567 40.7955 24.3751 40.5889 24.2046C40.3823 24.0341 40.0922 24.0172 39.8651 24.1608L38.301 25.1549L36.8708 23.9745C36.6642 23.8039 36.3742 23.7871 36.147 23.9307C35.9199 24.0744 35.8151 24.346 35.8785 24.6046L36.3446 26.4006L34.7778 27.398C34.6095 27.5033 34.5074 27.6796 34.4907 27.8774C34.4745 28.206 34.7386 28.5108 35.0737 28.5323L36.9223 28.6469L37.3858 30.4461C37.4709 30.777 37.8106 30.9705 38.1388 30.8885C38.3299 30.8346 38.4836 30.7009 38.5551 30.5157L39.2373 28.7882L41.0891 28.9055C41.355 28.9187 41.6019 28.7642 41.6999 28.514ZM39.1299 27.9451C38.8607 27.9292 38.6138 28.0837 38.5159 28.3339L38.0281 29.5759L37.6934 28.2847C37.6274 28.0293 37.3949 27.8375 37.1317 27.821L35.8005 27.7373L36.9275 27.0229C37.1546 26.8792 37.2595 26.6075 37.1928 26.3463L36.8609 25.0518L37.8907 25.9019C38.0974 26.0724 38.388 26.0952 38.6118 25.9489L39.7415 25.2312L39.2511 26.4765C39.1531 26.7267 39.2273 27.0051 39.4339 27.1756L40.4638 28.0256L39.1299 27.9451Z" fill="#323232"/>
<path d="M53.89 30.5804L50.3516 27.6599L51.0269 27.072C52.0921 27.7016 53.49 27.4876 54.3028 26.5029L55.0755 25.5667L36.509 10.2419L35.7362 11.1782C34.9235 12.1628 34.9752 13.5733 35.7953 14.4999L35.3492 15.277L31.8109 12.3565C30.4033 11.1947 28.2734 11.6512 27.4863 13.3084C27.2671 14.2184 21.708 21.8807 27.3087 30.0098C27.0699 31.2131 27.1364 32.4675 27.5065 33.6631C26.9364 34.7286 26.0063 35.3885 24.6774 35.6703L23.0438 34.3219L21.5995 36.0717L19.7271 34.5262L14.8213 40.4697L13.3104 39.2226L11.8902 40.9433L11.3637 41.5943C31.7639 58.4326 16.2192 45.6021 29.065 56.2049L29.5915 55.5539L31.0118 53.8332L29.5009 52.5861L34.4066 46.6426L32.5341 45.0971L33.9784 43.3473L32.3448 41.9989C32.3525 40.556 32.8182 39.5183 33.7642 38.8391C35.0121 38.9844 36.2655 38.8139 37.4103 38.3476C46.4452 42.3094 52.9232 35.3948 53.7752 35.0071C55.2525 33.9142 55.2879 31.7342 53.89 30.5804ZM36.3819 11.7111L36.6217 11.4206L53.8969 25.6794L53.6571 25.97C53.0522 26.7028 51.9705 26.8033 51.2409 26.2011L36.613 14.1273C35.8802 13.5224 35.777 12.444 36.3819 11.7111ZM28.2405 13.6704C28.8005 12.4988 30.2965 12.1921 31.278 13.0022L34.9228 16.0106L34.4997 16.7469L30.745 13.6479C30.1671 13.1709 29.3036 13.3754 28.9974 14.0291C28.6749 15.1959 24.1848 20.9777 28.0281 27.9873C27.8645 28.2974 27.7255 28.6169 27.6081 28.9434C22.9857 21.4046 27.9773 14.6798 28.2405 13.6704ZM34.0733 17.4805L28.5122 27.1114C25.368 20.695 29.3914 15.6298 29.7543 14.3879C29.828 14.2262 30.0507 14.1603 30.2121 14.2935L34.0733 17.4805ZM29.8332 53.9459L28.9458 55.021L12.5358 41.4763L13.4232 40.4012L29.8332 53.9459ZM33.228 46.7553L28.8552 52.0531L15.467 41.0026L19.8398 35.7048L33.228 46.7553ZM32.7998 43.46L31.8884 44.5641L22.2452 36.6047L23.1565 35.5005L32.7998 43.46ZM27.8831 34.647C28.3151 35.5572 28.9974 36.4732 29.869 37.1927C30.7149 37.8908 31.7039 38.3761 32.6565 38.6358C32.6715 38.6374 32.6871 38.6448 32.6994 38.6496C32.0364 39.3344 31.6494 40.2308 31.5377 41.3328L25.4748 36.3284C26.4932 36.0021 27.2988 35.4403 27.8831 34.647ZM38.9321 36.4447C36.5162 38.5432 32.9105 38.6175 30.402 36.547C27.9064 34.4872 27.2755 30.9377 28.8821 28.1495L36.4352 15.0661L50.3496 26.551L38.9321 36.4447ZM48.4267 29.3278L52.2911 32.5175C52.4461 32.6454 52.4295 32.8759 52.2826 32.9881C51.1175 33.5842 46.8961 38.475 40.0188 36.6143L48.4267 29.3278ZM53.2768 34.3351C52.3093 34.7905 46.6795 40.9667 38.3947 37.852C38.693 37.6748 38.9772 37.4752 39.2538 37.2584C46.8552 39.6951 51.7164 34.1871 52.7784 33.6632C53.3702 33.229 53.3955 32.3434 52.8241 31.8718L49.0662 28.7701L49.7089 28.215L53.357 31.2261C54.3352 32.0335 54.321 33.5632 53.2768 34.3351Z" fill="#323232"/>
<path d="M29.833 53.9459L13.4231 40.4012L12.5357 41.4762L28.9457 55.0209L29.833 53.9459Z" fill="#FEBD2C"/>
<path d="M19.8397 35.7047L15.4669 41.0025L28.8551 52.053L33.2278 46.7552L19.8397 35.7047ZM28.6296 49.6958L20.5521 43.0287L21.0851 42.383L28.5168 48.5172L29.692 47.0935L20.1779 39.2406L19.0027 40.6643L20.0843 41.557L19.5513 42.2027L17.8241 40.777L20.0651 38.062L30.8706 46.9807L28.6296 49.6958Z" fill="#FEBD2C"/>
<path d="M32.7997 43.4598L23.1564 35.5004L22.2451 36.6045L31.8883 44.564L32.7997 43.4598Z" fill="#FEBD2C"/>
<path d="M25.4746 36.3284C26.4931 36.002 27.2987 35.4403 27.8829 34.647C28.3149 35.5572 28.9972 36.4732 29.8689 37.1926C30.7147 37.8908 31.7038 38.376 32.6563 38.6358C32.6713 38.6373 32.6869 38.6447 32.6993 38.6495C32.0363 39.3344 31.6492 40.2307 31.5376 41.3327L25.4746 36.3284Z" fill="#FEBD2C"/>
<path d="M27.608 28.9433C22.9856 21.4045 27.9772 14.6797 28.2404 13.6703C28.8004 12.4987 30.2965 12.192 31.2779 13.0021L34.9228 16.0106L34.4996 16.7468L30.745 13.6478C30.1671 13.1708 29.3035 13.3753 28.9973 14.0291C28.6748 15.1958 24.1848 20.9776 28.028 27.9873C27.8644 28.2973 27.7255 28.6169 27.608 28.9433Z" fill="#FEBD2C"/>
<path d="M53.2767 34.335C52.3092 34.7903 46.6794 40.9666 38.3946 37.8519C38.6929 37.6747 38.9771 37.475 39.2537 37.2582C46.8551 39.695 51.7163 34.1869 52.7782 33.6631C53.3701 33.2288 53.3954 32.3433 52.824 31.8716L49.0661 28.7699L49.7088 28.2148L53.3569 31.2259C54.3351 32.0333 54.3209 33.5631 53.2767 34.335Z" fill="#FEBD2C"/>
<path d="M36.4352 15.066L28.8821 28.1494C27.2755 30.9376 27.9064 34.4871 30.402 36.5469C32.9104 38.6174 36.5161 38.5431 38.9321 36.4446L50.3496 26.5509L36.4352 15.066ZM36.1473 23.9309C36.3744 23.7872 36.6644 23.8041 36.871 23.9746L38.3012 25.1551L39.8653 24.161C40.0925 24.0174 40.3825 24.0342 40.5891 24.2048C40.7957 24.3753 40.8673 24.6569 40.7693 24.9071L40.0897 26.6313L41.5199 27.8118C41.7265 27.9823 41.7981 28.2639 41.7001 28.5142C41.6021 28.7644 41.3552 28.9188 41.0893 28.9056L39.2375 28.7884L38.5553 30.5158C38.4838 30.7011 38.3301 30.8347 38.139 30.8887C37.8108 30.9706 37.4712 30.7771 37.386 30.4463L36.9225 28.647L35.0739 28.5325C34.7388 28.511 34.4747 28.2062 34.4909 27.8776C34.5076 27.6797 34.6097 27.5034 34.7781 27.3981L36.3449 26.4008L35.8787 24.6048C35.8153 24.3462 35.9201 24.0745 36.1473 23.9309ZM37.8386 35.1784C36.0184 36.759 33.3242 36.7878 31.4678 35.2556C29.5857 33.7021 29.1444 31.0473 30.3353 28.9798L36.8963 17.6178L39.3047 19.6057L38.7718 20.2514L37.1253 18.8924L31.0592 29.3982C28.7881 33.3531 33.8091 37.568 37.2906 34.547L46.4618 26.5987L39.8372 21.1307L40.3701 20.485L47.7567 26.5819L37.8386 35.1784Z" fill="#FEBD2C"/>
<path d="M38.516 28.334L38.0282 29.576L37.6936 28.2848C37.6275 28.0295 37.3951 27.8376 37.1318 27.8211L35.8006 27.7374L36.9276 27.023C37.1547 26.8793 37.2596 26.6076 37.193 26.3464L36.861 25.0519L37.8909 25.902C38.0975 26.0725 38.3881 26.0953 38.612 25.949L39.7417 25.2313L39.2512 26.4766C39.1532 26.7268 39.2274 27.0052 39.434 27.1757L40.4639 28.0258L39.13 27.9452C38.8609 27.9293 38.614 28.0838 38.516 28.334Z" fill="#FE6B2C"/>
<path d="M53.8967 25.6792L53.6569 25.9698C53.052 26.7026 51.9703 26.8031 51.2407 26.2009L36.6128 14.1271C35.88 13.5223 35.7768 12.4438 36.3817 11.711L36.6215 11.4204L53.8967 25.6792Z" fill="#FEBD2C"/>
</g>
<defs>
<filter id="filter0_f" x="9.15527e-05" y="0" width="66.0018" height="66.8001" filterUnits="userSpaceOnUse" color-interpolation-filters="sRGB">
<feFlood flood-opacity="0" result="BackgroundImageFix"/>
<feBlend mode="normal" in="SourceGraphic" in2="BackgroundImageFix" result="shape"/>
<feGaussianBlur stdDeviation="3.5" result="effect1_foregroundBlur"/>
</filter>
</defs>
</svg>
