<svg width="228" height="275" viewBox="0 0 228 275" fill="none" xmlns="http://www.w3.org/2000/svg">
<g opacity="0.15" filter="url(#filter0_f)">
<path d="M185.698 283.509L174.57 305.039L110.517 271.932L113.164 266.812L172.096 297.273L177.932 285.983L102.487 246.988L96.6514 258.277L105.228 262.71L102.581 267.83L88.8848 260.751L100.013 239.221L185.698 283.509Z" fill="#323232"/>
<path d="M269.636 121.679L215.409 193.955C205.461 207.239 187.375 211.353 172.654 203.745C157.729 196.03 150.897 178.809 155.901 163.165L183.516 77.1655L202.614 87.0368L199.967 92.1569L186.911 85.4085L161.381 164.926C151.855 194.843 191.773 215.898 210.803 190.504L260.948 123.676L208.415 96.5236L211.062 91.4035L269.636 121.679Z" fill="#323232"/>
<path d="M231.694 143.494C231.989 141.668 231.098 139.877 229.46 139.03L218.119 133.168L220.182 120.577C220.477 118.751 219.586 116.961 217.948 116.114C216.309 115.267 214.333 115.575 213.014 116.872L203.936 125.837L192.595 119.976C190.956 119.129 188.98 119.437 187.661 120.734C186.342 122.031 186.032 124.012 186.834 125.66L192.585 137.066L183.493 146.057C182.514 147.01 182.084 148.345 182.259 149.701C182.628 151.936 184.849 153.602 187.135 153.259L199.74 151.34L205.477 162.772C206.532 164.874 209.099 165.682 211.187 164.653C212.395 164.012 213.235 162.889 213.446 161.539L215.523 148.922L228.154 147.017C229.962 146.719 231.399 145.32 231.694 143.494ZM213.573 143.406C211.739 143.69 210.303 145.089 210.007 146.915L208.533 155.982L204.402 147.781C203.586 146.159 201.743 145.206 199.948 145.478L190.868 146.852L197.412 140.405C198.731 139.108 199.041 137.127 198.213 135.466L194.096 127.239L202.262 131.46C203.901 132.307 205.889 132.037 207.183 130.727L213.74 124.255L212.252 133.347C211.956 135.174 212.861 136.939 214.499 137.785L222.666 142.007L213.573 143.406Z" fill="#323232"/>
<path d="M316.723 139.659L288.665 125.156L292.353 120.218C300.437 122.904 309.532 119.43 313.568 111.622L317.405 104.198L170.176 28.0987L166.339 35.5229C162.303 43.3311 164.703 52.7465 171.57 57.7879L169.699 63.666L141.641 49.1634C130.479 43.3942 116.811 49.5652 113.927 61.8613C113.776 68.3038 87.5205 127.95 137.035 174.499C137.179 182.943 139.452 191.287 143.682 198.794C141.396 206.793 136.099 212.586 127.566 216.416L114.612 209.72L107.44 223.596L92.5921 215.921L68.2315 263.052L56.2504 256.859L49.1976 270.504L46.6024 275.651C208.373 359.266 85.1057 295.552 186.97 348.203L189.566 343.057L196.619 329.412L184.637 323.219L208.998 276.088L194.15 268.414L201.322 254.538L188.368 247.843C186.32 238.123 187.943 230.462 193.321 224.515C201.929 223.677 210.114 220.706 217.139 215.903C283.697 229.413 317.224 173.461 322.393 169.612C330.743 160.108 327.809 145.389 316.723 139.659ZM171.459 38.1694L172.65 35.8653L309.639 106.671L308.448 108.975C305.444 114.787 298.312 117.037 292.526 114.046L176.53 54.0908C170.719 51.0871 168.455 43.9807 171.459 38.1694ZM119.529 63.1995C121.591 54.5013 131.212 50.2609 138.995 54.2836L167.898 69.2228L166.122 74.7928L136.348 59.4037C131.766 57.0351 126.252 59.6679 125.143 64.5122C124.671 72.8321 102.872 118.27 138.932 159.844C138.283 162.168 137.813 164.52 137.498 166.888C95.4249 122.888 119.226 70.3746 119.529 63.1995ZM164.32 80.3496L140.916 153.245C110.422 114.646 130.124 74.7097 130.758 65.8248C131.019 64.6296 132.422 63.8622 133.702 64.5238L164.32 80.3496ZM188.852 331.885L184.446 340.41L54.3178 273.151L58.7241 264.626L188.852 331.885ZM201.231 278.562L179.517 320.573L73.3516 265.698L95.0658 223.688L201.231 278.562ZM193.555 257.012L189.03 265.767L112.561 226.242L117.086 217.487L193.555 257.012ZM147.648 204.866C151.879 210.362 157.803 215.532 164.715 219.105C171.422 222.572 178.783 224.398 185.571 224.759C185.674 224.748 185.79 224.775 185.88 224.789C182.415 230.363 181.115 236.957 181.968 244.534L133.89 219.684C140.267 216.006 144.871 211.054 147.648 204.866ZM224.61 200.884C211.407 218.52 187.253 224.266 167.361 213.985C147.572 203.756 138.162 180.791 144.915 159.692L176.7 60.6665L287.038 117.698L224.61 200.884ZM278.14 139.18L308.784 155.019C310.013 155.654 310.237 157.23 309.412 158.198C302.44 163.905 281.152 202.957 232.169 200.444L278.14 139.18ZM318.061 165.816C312.214 170.287 283.32 220.038 223.042 211.136C224.79 209.509 226.412 207.752 227.958 205.891C282.652 211.226 307.346 167.09 313.73 162.02C317.08 158.237 315.962 152.241 311.431 149.899L281.631 134.497L285.148 129.827L314.077 144.779C321.834 148.788 323.964 159.102 318.061 165.816Z" fill="#323232"/>
<path d="M188.852 331.885L58.7238 264.625L54.3174 273.15L184.445 340.41L188.852 331.885Z" fill="#FEBD2C"/>
<path d="M95.0659 223.688L73.3518 265.698L179.517 320.573L201.232 278.562L95.0659 223.688ZM174.57 305.039L110.517 271.932L113.164 266.812L172.096 297.273L177.932 285.983L102.487 246.987L96.6515 258.277L105.228 262.71L102.581 267.83L88.8849 260.751L100.013 239.221L185.698 283.509L174.57 305.039Z" fill="#FEBD2C"/>
<path d="M193.555 257.011L117.086 217.486L112.56 226.242L189.029 265.767L193.555 257.011Z" fill="#FEBD2C"/>
<path d="M133.888 219.684C140.266 216.006 144.87 211.054 147.646 204.866C151.878 210.361 157.802 215.532 164.714 219.105C171.421 222.572 178.782 224.397 185.57 224.759C185.673 224.748 185.789 224.775 185.879 224.789C182.414 230.362 181.114 236.957 181.966 244.534L133.888 219.684Z" fill="#FEBD2C"/>
<path d="M137.498 166.888C95.4251 122.888 119.226 70.3749 119.529 63.1998C121.592 54.5016 131.212 50.2612 138.995 54.2838L167.898 69.2231L166.122 74.7931L136.348 59.4039C131.766 57.0354 126.253 59.6681 125.144 64.5124C124.671 72.8324 102.872 118.27 138.933 159.844C138.283 162.168 137.813 164.521 137.498 166.888Z" fill="#FEBD2C"/>
<path d="M318.06 165.815C312.213 170.287 283.319 220.038 223.041 211.135C224.79 209.509 226.411 207.752 227.957 205.891C282.651 211.226 307.345 167.09 313.729 162.02C317.079 158.236 315.961 152.241 311.43 149.899L281.631 134.496L285.148 129.826L314.076 144.779C321.833 148.788 323.963 159.102 318.06 165.815Z" fill="#FEBD2C"/>
<path d="M176.699 60.6665L144.915 159.692C138.162 180.791 147.572 203.756 167.361 213.985C187.253 224.266 211.407 218.52 224.61 200.884L287.038 117.698L176.699 60.6665ZM187.662 120.735C188.981 119.438 190.957 119.129 192.595 119.976L203.937 125.838L213.015 116.873C214.334 115.576 216.31 115.267 217.948 116.114C219.587 116.961 220.478 118.751 220.183 120.578L218.119 133.168L229.46 139.03C231.099 139.877 231.99 141.668 231.695 143.494C231.4 145.32 229.963 146.719 228.155 147.017L215.524 148.923L213.447 161.539C213.235 162.889 212.395 164.012 211.188 164.653C209.099 165.682 206.532 164.875 205.478 162.772L199.741 151.34L187.135 153.259C184.849 153.602 182.629 151.936 182.259 149.701C182.084 148.345 182.515 147.011 183.494 146.057L192.585 137.066L186.835 125.66C186.032 124.012 186.343 122.032 187.662 120.735ZM215.41 193.955C205.462 207.239 187.375 211.353 172.654 203.745C157.729 196.03 150.897 178.809 155.901 163.165L183.516 77.1656L202.614 87.0369L199.967 92.157L186.911 85.4085L161.381 164.927C151.855 194.843 191.773 215.898 210.803 190.504L260.948 123.676L208.415 96.5237L211.062 91.4035L269.636 121.679L215.41 193.955Z" fill="#FEBD2C"/>
<path d="M210.007 146.915L208.532 155.982L204.402 147.78C203.586 146.158 201.743 145.206 199.947 145.478L190.868 146.851L197.412 140.404C198.731 139.107 199.041 137.127 198.213 135.466L194.096 127.239L202.262 131.46C203.901 132.307 205.889 132.037 207.183 130.727L213.74 124.254L212.252 133.347C211.956 135.173 212.861 136.938 214.499 137.785L222.666 142.006L213.573 143.405C211.739 143.69 210.303 145.088 210.007 146.915Z" fill="#FE6B2C"/>
<path d="M309.638 106.671L308.447 108.975C305.443 114.786 298.311 117.036 292.525 114.046L176.529 54.0905C170.718 51.0868 168.454 43.9804 171.458 38.169L172.649 35.865L309.638 106.671Z" fill="#FEBD2C"/>
</g>
<defs>
<filter id="filter0_f" x="0" y="0" width="360.541" height="378.056" filterUnits="userSpaceOnUse" color-interpolation-filters="sRGB">
<feFlood flood-opacity="0" result="BackgroundImageFix"/>
<feBlend mode="normal" in="SourceGraphic" in2="BackgroundImageFix" result="shape"/>
<feGaussianBlur stdDeviation="6" result="effect1_foregroundBlur"/>
</filter>
</defs>
</svg>
