<svg width="327" height="94" viewBox="0 0 327 94" fill="none" xmlns="http://www.w3.org/2000/svg">
<path fill-rule="evenodd" clip-rule="evenodd" d="M48.3258 0C22.1631 0 0.880432 21.0828 0.880432 46.9999C0.880432 72.9169 22.1631 93.9997 48.3258 93.9997C74.4886 93.9997 95.7712 72.9169 95.7712 46.9999C95.7712 21.0828 74.4886 0 48.3258 0ZM272.539 35.5856C271.319 34.2427 269.692 33.3027 267.388 33.3027C263.592 33.1684 260.881 36.3913 260.746 40.6884V41.2255C260.746 45.7912 263.457 48.8798 267.252 48.8798C269.557 48.8798 271.184 48.0741 272.404 46.597L272.539 46.4627C273.217 45.3884 274.572 44.9855 275.657 45.657L283.384 50.0884L281.893 52.2369C278.91 56.2655 274.437 59.2198 266.981 59.2198C257.357 59.2198 249.088 51.9684 249.088 41.3598V40.5541C249.088 29.9456 257.492 22.8284 267.117 22.8284C274.437 22.8284 279.046 25.7827 282.028 29.9456L283.519 32.0941L275.792 36.5256C274.708 37.197 273.352 36.7941 272.675 35.7198L272.539 35.5856ZM162.601 64.3226C161.787 63.9197 161.923 62.7112 161.923 62.7112V51.0283C161.923 49.8198 160.974 48.6112 159.618 48.6112C157.449 48.6112 157.314 47.5369 157.314 46.1941V26.9913V26.3198C157.314 24.977 156.229 23.9027 154.874 23.9027H124.373C123.967 23.9027 123.56 24.1713 123.56 24.5741V25.5141C123.56 26.0513 123.831 26.1855 124.373 26.4541C124.915 26.7227 125.051 27.3941 125.051 27.797V34.9141C125.051 42.8369 123.56 45.2541 120.849 48.6112H119.222C117.866 48.6112 116.782 49.6855 116.782 51.0283V66.874H125.051C126.407 66.874 127.491 65.7997 127.491 64.4569V60.6969C127.491 59.354 128.576 58.2797 129.931 58.2797H149.045C150.4 58.2797 151.485 59.354 151.485 60.6969V64.4569C151.485 65.7997 152.569 66.874 153.925 66.874H162.872C163.278 66.874 163.685 66.6054 163.685 66.2026V65.3969C163.462 64.8452 163.148 64.6561 162.817 64.4573C162.746 64.4141 162.673 64.3705 162.601 64.3226ZM145.655 46.1941C145.655 47.537 145.52 48.6112 143.351 48.6112H133.184C135.353 45.7912 136.438 41.7627 136.438 36.1227V33.1684H143.351C144.707 33.1684 145.791 33.3027 145.791 35.4513V46.1941H145.655ZM325.407 55.7283C324.594 55.3255 324.729 54.1169 324.729 54.1169V53.3112V23.9027H318.765C317.138 23.9027 315.783 24.5741 314.698 25.5141L314.291 25.917L302.769 37.3312C302.633 37.4655 302.498 37.5998 302.227 37.5998C301.82 37.5998 301.413 37.1969 301.413 36.7941V27.1255V26.4541C301.413 25.1113 300.329 24.037 298.973 24.037H289.349C288.942 24.037 288.535 24.3056 288.535 24.7084V25.5141C288.535 26.0513 288.807 26.1855 289.349 26.4541C290.162 26.857 290.027 28.0655 290.027 28.0655V58.2798H295.991C297.618 58.2798 298.973 57.6083 300.058 56.6683L300.465 56.2655L311.851 44.9855C311.987 44.8512 312.258 44.7169 312.394 44.7169C312.8 44.7169 313.207 45.1198 313.207 45.5226V55.0569V55.7283C313.207 57.0712 314.291 58.1455 315.647 58.1455H325.272C325.678 58.1455 326.085 57.8769 326.085 57.474V56.6683C326.205 56.3105 326.005 56.1646 325.579 55.8542C325.525 55.8151 325.468 55.7734 325.407 55.7283ZM203.54 54.1169C203.54 54.1169 203.404 55.3255 204.217 55.7283C204.3 55.7899 204.38 55.8452 204.454 55.8967C204.865 56.1817 205.104 56.3476 204.76 56.8026V57.6083C204.76 58.0112 204.353 58.2798 203.946 58.2798H194.322C192.966 58.2798 191.882 57.2055 191.882 55.8626V45.5226C191.882 45.1198 191.475 44.7169 191.068 44.7169C190.933 44.7169 190.661 44.8512 190.526 44.9855L179.139 56.2655L178.732 56.6683C177.783 57.6083 176.292 58.2798 174.666 58.2798H168.837V28.0655C168.837 28.0655 168.972 26.857 168.159 26.4541C167.617 26.1855 167.345 26.0513 167.345 25.5141V24.7084C167.345 24.3056 167.752 24.037 168.159 24.037H177.783C179.139 24.037 180.224 25.1113 180.224 26.4541V36.7941C180.224 37.1969 180.63 37.5998 181.037 37.5998C181.308 37.5998 181.444 37.4655 181.579 37.3312L193.102 25.917L193.508 25.5141C194.457 24.5741 195.948 23.9027 197.575 23.9027H203.54V53.3112V54.1169ZM234.718 42.3001C233.769 41.3601 233.769 39.8829 234.718 38.9429L249.9 23.903H236.887C235.531 23.903 233.769 24.7087 232.82 25.5144L227.669 30.6172C226.72 31.5572 226.042 31.2887 226.042 29.9458V26.1858C226.042 24.843 224.957 23.7687 223.602 23.7687H213.977C213.571 23.7687 213.164 24.0372 213.164 24.4401V25.5144C213.164 26.0515 213.435 26.1858 213.977 26.4544C214.791 26.8572 214.655 28.0658 214.655 28.0658V54.1172V58.28H223.602C224.957 58.28 226.042 57.2057 226.042 55.8629V53.9829V48.7458L233.904 56.5343C234.853 57.4743 236.616 58.1457 237.971 58.1457H248.68C250.036 58.1457 250.307 57.34 249.358 56.5343L234.718 42.3001ZM45.3439 33.1684H52.2574C53.613 33.1684 54.6974 33.437 54.6974 35.317V46.1941C54.6974 47.537 54.5619 48.6112 52.3929 48.6112H42.0905C44.2594 45.7912 45.3439 41.7627 45.3439 36.1227V33.1684ZM71.6417 67.0083C72.0483 67.0083 72.455 66.7397 72.455 66.3368H72.1839V65.5311C72.1839 64.994 71.9128 64.8597 71.3706 64.5911C70.5572 64.1883 70.6928 62.9797 70.6928 62.9797V51.2969C70.6928 49.954 69.6083 48.8797 68.3883 48.8797C66.2193 48.8797 66.0838 47.8055 66.0838 46.4626V27.1255V26.4541C66.0838 25.1112 64.9993 24.0369 63.6437 24.0369H33.1431C32.7364 24.0369 32.3298 24.3055 32.3298 24.7084V25.5141C32.3298 26.0512 32.6009 26.1855 33.1431 26.4541C33.6854 26.7227 33.8209 27.3941 33.8209 27.7969V34.9141C33.8209 42.8369 32.3298 45.3883 29.6186 48.7455H27.9919C26.6363 48.7455 25.5519 49.8197 25.5519 51.1626V67.0083H33.8209C35.1765 67.0083 36.261 65.934 36.261 64.5911V62.7111V60.6968C36.261 59.354 37.3454 58.2797 38.701 58.2797H57.8147C59.1703 58.2797 60.2548 59.354 60.2548 60.6968V62.7111V64.5911C60.2548 65.934 61.3392 67.0083 62.6948 67.0083H71.6417Z" fill="white"/>
</svg>
