<svg width="63" height="66" viewBox="0 0 63 66" fill="none" xmlns="http://www.w3.org/2000/svg">
<g filter="url(#filter0_d)">
<path d="M55.6977 35.4485V35.4372V35.4485C55.4807 35.1496 55.2581 34.8676 54.9965 34.6082L53.7221 33.3168C53.5607 33.1533 53.2936 33.1533 53.1322 33.3168C52.4699 33.9879 51.4014 34.0161 50.7058 33.3732L50.6836 33.3507C49.9434 32.6683 49.9156 31.4954 50.6279 30.7792L51.3013 30.0968C52.7872 28.5911 52.7872 26.1437 51.3013 24.638L41.5067 14.7072C40.8111 14.0023 39.8316 13.5963 38.8132 13.5963C37.7948 13.5963 36.8153 14.0023 36.1197 14.7072C35.7468 15.085 35.1235 15.0061 34.862 14.5437C32.5747 10.5398 30.9497 6.47385 29.9201 2.20491L29.7087 1.33646C29.3915 0.0112245 27.7609 -0.451197 26.8092 0.513121L7.1032 20.4706C6.6246 21.4743 6.67469 22.6586 7.23676 23.6173L8.22735 25.3203C9.11777 26.8486 8.45552 28.8111 6.84164 29.4934C3.71962 30.8186 2 32.7022 2 34.9297V50.5279C2 55.6879 10.5146 58 18.9513 58C27.388 58 35.8971 55.6879 35.8971 50.5279V39.317C35.8971 38.2287 37.2049 37.6817 37.9562 38.4599C39.6591 40.2137 41.2785 41.9901 42.8312 43.7495C42.0187 44.5729 42.0187 45.9094 42.8312 46.7383L42.9369 46.8455C44.2225 48.1482 45.9643 48.8813 47.7786 48.8813C49.5928 48.8813 51.3347 48.1482 52.6202 46.8511L54.9965 44.4432C56.2876 43.1292 56.9999 41.3867 56.9999 39.5313C57.0055 38.0313 56.5436 36.6215 55.6977 35.4485Z" fill="white"/>
</g>
<path d="M18.8734 39.9431C26.9783 39.9431 33.5486 37.5269 33.5486 34.5463C33.5486 31.5658 26.9783 29.1495 18.8734 29.1495C10.7685 29.1495 4.19824 31.5658 4.19824 34.5463C4.19824 37.5269 10.7685 39.9431 18.8734 39.9431Z" fill="#C4C4C4"/>
<path d="M23.3421 29.3807L23.2252 30.503C29.7197 31.2135 33.1144 33.2662 33.1144 34.9298C33.1144 37.1348 27.2989 39.5878 18.9512 39.5878C10.6036 39.5878 4.78245 37.1348 4.78245 34.9298C4.78245 33.317 7.79874 31.6759 12.2787 30.8526L12.0783 29.7417C6.81372 30.706 3.66943 32.6515 3.66943 34.9298V50.5281C3.66943 53.8214 10.2418 56.3083 18.9512 56.3083C27.6606 56.3083 34.2274 53.8214 34.2274 50.5281V34.9298C34.2274 32.2793 29.959 30.1026 23.3421 29.3807ZM28.1893 39.6048V51.5036C26.6645 51.9548 24.8335 52.3044 22.7744 52.5074V40.6198H21.8172C24.1991 40.4619 26.3639 40.1123 28.1893 39.6048ZM16.2466 40.6311C17.1203 40.6875 18.0218 40.7157 18.9512 40.7157C19.8806 40.7157 20.7821 40.6875 21.6614 40.6311V52.5977C20.7933 52.6541 19.8862 52.6879 18.9512 52.6879C18.0163 52.6879 17.1147 52.6541 16.2466 52.5977V40.6311ZM9.7187 39.6048C11.5385 40.1123 13.6978 40.4619 16.0852 40.6198H15.1336V52.5074C13.0689 52.3101 11.2435 51.9548 9.7187 51.5036V39.6048ZM4.78245 37.1799C5.63392 37.9863 6.94172 38.6968 8.60568 39.2608V51.1371C6.19043 50.2517 4.78245 49.1126 4.78245 48.0299V37.1799ZM33.1144 50.5281C33.1144 52.7274 27.2989 55.1805 18.9512 55.1805C10.6036 55.1805 4.78245 52.7274 4.78245 50.5281V50.2743C7.0085 52.3947 12.3677 53.8158 18.9512 53.8158C25.5347 53.8158 30.8884 52.3947 33.1144 50.2743V50.5281ZM33.1144 48.0299C33.1144 49.1126 31.712 50.2517 29.3023 51.1315V39.2608C30.9607 38.6968 32.263 37.9863 33.1144 37.1799V48.0299Z" fill="#323232"/>
<path d="M33.1147 50.2742V50.5279C33.1147 52.7273 27.2991 55.1803 18.9515 55.1803C10.6038 55.1803 4.78271 52.7273 4.78271 50.5279V50.2742C7.00876 52.3945 12.368 53.8156 18.9515 53.8156C25.535 53.8156 30.8886 52.3945 33.1147 50.2742Z" fill="#C4C4C4"/>
<path d="M8.60594 39.2607V51.137C6.19069 50.2517 4.78271 49.1125 4.78271 48.0298V37.1798C5.63418 37.9862 6.94198 38.6968 8.60594 39.2607Z" fill="#B1161B"/>
<path d="M16.0852 40.6198H15.1336V52.5074C13.0689 52.31 11.2436 51.9548 9.71875 51.5036V39.6047C11.5385 40.1123 13.6978 40.4619 16.0852 40.6198Z" fill="#3160F4"/>
<path d="M21.6619 40.631V52.5975C20.7938 52.6539 19.8866 52.6878 18.9517 52.6878C18.0168 52.6878 17.1152 52.6539 16.2471 52.5975V40.631C17.1208 40.6874 18.0223 40.7156 18.9517 40.7156C19.8811 40.7156 20.7826 40.6874 21.6619 40.631Z" fill="#B1161B"/>
<path d="M28.1894 39.6047V51.5036C26.6646 51.9548 24.8337 52.3044 22.7746 52.5074V40.6198H21.8174C24.1992 40.4619 26.3641 40.1123 28.1894 39.6047Z" fill="#3160F4"/>
<path d="M33.1143 37.1798V48.0298C33.1143 49.1125 31.7119 50.2517 29.3022 51.1314V39.2607C30.9606 38.6968 32.2629 37.9862 33.1143 37.1798Z" fill="#B1161B"/>
<path d="M20.6933 29.1834C18.7844 29.1044 16.7643 29.1608 14.8833 29.3469L14.9946 30.4691C16.82 30.2887 18.7844 30.2323 20.6488 30.3112L20.6933 29.1834Z" fill="#323232"/>
<path d="M5.94531 35.2228C6.28478 35.7924 7.21972 36.3056 7.93762 36.6327L8.39396 35.6007C7.39781 35.1495 6.98042 34.7717 6.89695 34.6364L5.94531 35.2228Z" fill="#323232"/>
<path d="M9.4458 37.2137C11.26 37.8114 14.382 38.522 18.951 38.522C23.3363 38.522 26.386 37.8622 28.1668 37.3039L27.8385 36.2268C26.13 36.7569 23.1972 37.3941 18.9454 37.3941C14.5212 37.3941 11.5216 36.7118 9.78527 36.1422L9.4458 37.2137Z" fill="#323232"/>
<path d="M31.9514 35.2228L30.9998 34.6364C30.9218 34.7717 30.4265 35.2341 29.1021 35.7755L29.5194 36.8188C30.2485 36.5255 31.5396 35.9165 31.9514 35.2228Z" fill="#323232"/>
<path d="M17.0479 32.471C16.7752 31.9973 16.4246 31.8958 16.1798 31.8958C15.9071 31.8958 15.6678 32.0198 15.4396 32.1608L9.59069 22.1003L8.62793 22.6755L14.4769 32.7304C14.1819 32.8883 13.8925 33.08 13.7868 33.4409C13.7089 33.706 13.7534 33.9936 13.9259 34.2981C14.3043 34.9523 15.3673 35.8715 16.2466 35.8715C16.458 35.8715 16.6472 35.8207 16.8198 35.7249C17.8493 35.1215 17.4431 33.1703 17.0479 32.471ZM16.2688 34.7436C16.2688 34.7436 16.2633 34.7436 16.2466 34.7436C15.8904 34.7436 15.1725 34.1797 14.9165 33.768C15.3617 33.5086 14.9332 33.8244 16.1019 33.0744C16.369 33.5819 16.4302 34.5744 16.2688 34.7436Z" fill="#323232"/>
<path d="M16.2688 34.7436C16.2688 34.7436 16.2633 34.7436 16.2466 34.7436C15.8904 34.7436 15.1725 34.1796 14.9165 33.768C15.3617 33.5086 14.9332 33.8244 16.1019 33.0743C16.369 33.5819 16.4302 34.5744 16.2688 34.7436Z" fill="#FEBD2C"/>
<path d="M22.0343 31.9071L23.587 25.811L22.5074 25.5291L20.9603 31.6138C20.7822 31.5574 20.6041 31.5123 20.426 31.5123C20.2034 31.5123 19.6691 31.5913 19.4744 32.33C19.2685 33.1083 19.3798 35.0989 20.5262 35.4091C20.6152 35.4316 20.7098 35.4429 20.8044 35.4429C21.8228 35.4429 22.7578 34.0105 22.9526 33.2718C23.0416 32.9334 23.0138 32.6458 22.8691 32.409C22.6799 32.0932 22.3515 31.9804 22.0343 31.9071ZM20.8156 34.3151C20.5985 34.1741 20.4149 33.2154 20.5429 32.6627C20.5985 32.6797 21.8062 33.0067 21.8674 33.0237C21.7004 33.565 21.066 34.2981 20.8156 34.3151Z" fill="#323232"/>
<path d="M21.8677 33.0236C21.7008 33.565 21.0663 34.2981 20.8159 34.315C20.5989 34.174 20.4152 33.2154 20.5432 32.6627C20.5989 32.6796 21.8065 33.0067 21.8677 33.0236Z" fill="#FEBD2C"/>
<path d="M29.7812 12.13L28.7739 12.6037C28.44 11.8819 28.1228 11.1375 27.8223 10.4044L28.8518 9.97583C29.1412 10.692 29.4584 11.4195 29.7812 12.13Z" fill="#323232"/>
<path d="M34.9898 21.1021L34.0827 21.7563C32.3186 19.2581 30.777 16.6866 29.4971 14.1207L30.4932 13.6132C31.7454 16.1283 33.2591 18.649 34.9898 21.1021Z" fill="#323232"/>
<path d="M43.1542 37.3321L42.3417 38.1047C40.8781 36.5313 39.5091 35.1271 38.1567 33.8132L38.9247 32.9955C40.2937 34.3264 41.6739 35.7418 43.1542 37.3321Z" fill="#323232"/>
<path d="M38.2235 32.3187L37.4611 33.142C37.155 32.8488 36.8434 32.5612 36.5317 32.2736L37.283 31.439C37.6002 31.7322 37.9119 32.0255 38.2235 32.3187Z" fill="#323232"/>
<path d="M53.8168 35.8037L53.4273 35.409L52.0193 36.8357C50.3331 35.3244 48.6301 33.7566 46.9383 32.1213L50.1216 28.8956C50.9563 28.0497 50.9563 26.6737 50.1216 25.8278L40.327 15.897C39.5201 15.0793 38.1065 15.0793 37.2996 15.897L35.0902 18.1358C32.1073 13.5342 29.6976 8.4137 28.2952 2.5996L28.0615 1.62964L10.3867 19.5344L11.3495 19.7712C26.2528 23.465 36.6039 34.0612 45.1297 43.8115L43.7217 45.2382L44.1168 45.6386C46.137 47.6857 49.4148 47.697 51.4461 45.6386L53.8168 43.2363C55.8369 41.1836 55.8425 37.8508 53.8168 35.8037ZM38.0843 16.6978C38.4738 16.3031 39.1528 16.3031 39.5367 16.6978L49.3369 26.623C49.7376 27.029 49.7376 27.6888 49.3369 28.0948L46.137 31.3374C45.8142 31.0216 45.4914 30.7002 45.1742 30.3787L48.1404 27.373L38.8022 17.9103L36.5093 20.2336C36.2422 19.8558 35.9806 19.478 35.7191 19.0945L38.0843 16.6978ZM44.3895 29.5779C41.8518 26.9669 39.3976 24.1811 37.1716 21.1528L38.8022 19.5062L46.5655 27.373L44.3895 29.5779ZM16.8255 20.3013L18.5786 18.5249L17.7883 17.7242L15.6624 19.8784C14.6496 19.5287 13.62 19.2073 12.5682 18.9253L27.4605 3.8346C27.7387 4.90606 28.0559 5.94933 28.401 6.97004L18.9625 16.5343L19.7528 17.3294L28.8128 8.14865C33.4207 20.7525 42.6476 29.9276 51.229 37.6308L45.9199 43.0107C38.3124 34.3149 29.2636 24.9706 16.8255 20.3013ZM53.0321 42.4355L50.6614 44.8378C49.2033 46.3153 46.9272 46.445 45.3245 45.21C45.97 44.5559 46.4876 44.0314 46.8938 43.6254C46.8938 43.6254 46.9216 43.5916 46.9996 43.5182C47.0163 43.5013 47.0329 43.4844 47.0496 43.4675C47.0663 43.4449 47.0886 43.4224 47.122 43.3942C47.122 43.3885 47.3112 43.1968 47.5282 42.9825C47.5616 42.943 47.6062 42.8979 47.6562 42.8528C47.9568 42.5427 48.2016 42.2945 48.2016 42.2945C49.1811 41.302 50.8061 39.6553 53.3994 37.0274C53.6276 37.3376 53.7946 37.676 53.9281 38.0256L50.8784 41.1159L51.6687 41.9111L54.2008 39.3452C54.2509 40.4561 53.8669 41.5896 53.0321 42.4355Z" fill="#323232"/>
<path d="M51.6684 41.9112L50.8782 41.1161L53.9279 38.0257C53.7943 37.6761 53.6274 37.3377 53.3992 37.0276C50.8059 39.6555 49.1808 41.3022 48.2014 42.2947C48.2014 42.2947 47.9565 42.5428 47.656 42.853C47.6059 42.8981 47.5614 42.9432 47.528 42.9827C47.311 43.197 47.1218 43.3887 47.1218 43.3943C47.0884 43.4225 47.0661 43.4451 47.0494 43.4676C47.0327 43.4846 47.016 43.5015 46.9993 43.5184C46.9214 43.5917 46.8936 43.6256 46.8936 43.6256C46.4873 44.0316 45.9698 44.556 45.3242 45.2102C46.927 46.4452 49.2031 46.3155 50.6612 44.838L53.0319 42.4357C53.8667 41.5898 54.2507 40.4563 54.2006 39.3453L51.6684 41.9112ZM49.9433 43.6594L49.153 42.8642L50.2883 41.7138L51.0785 42.509L49.9433 43.6594Z" fill="#FEBD2C"/>
<path d="M49.3371 28.0949L46.1371 31.3375C45.8143 31.0217 45.4916 30.7003 45.1744 30.3788L48.1406 27.3731L38.8023 17.9104L36.5095 20.2337C36.2424 19.8559 35.9808 19.4781 35.7192 19.0946L38.0844 16.6979C38.474 16.3032 39.1529 16.3032 39.5369 16.6979L49.3371 26.6231C49.7377 27.0291 49.7377 27.6889 49.3371 28.0949Z" fill="#FEBD2C"/>
<path d="M28.8129 8.14877L19.7529 17.3295L18.9627 16.5344L28.4011 6.97016C28.0561 5.94945 27.7388 4.90618 27.4606 3.83472L12.5684 18.9254C13.6202 19.2074 14.6497 19.5288 15.6626 19.8785L17.7884 17.7243L18.5787 18.5251L16.8257 20.3014C29.2637 24.9708 38.3125 34.3151 45.92 43.0108L51.2292 37.631C42.6478 29.9277 33.4208 20.7526 28.8129 8.14877ZM27.8223 10.4045L28.8519 9.9759C29.1412 10.6921 29.4585 11.4196 29.7812 12.1301L28.774 12.6038C28.44 11.882 28.1228 11.1376 27.8223 10.4045ZM34.0831 21.7564C32.3189 19.2582 30.7774 16.6866 29.4974 14.1208L30.4936 13.6132C31.7457 16.1284 33.2594 18.6491 34.9902 21.1022L34.0831 21.7564ZM36.5317 32.2736L37.283 31.439C37.6002 31.7323 37.9119 32.0255 38.2235 32.3188L37.4611 33.1421C37.155 32.8488 36.8434 32.5612 36.5317 32.2736ZM42.3417 38.1047C40.8781 36.5313 39.509 35.1271 38.1567 33.8132L38.9247 32.9955C40.2937 34.3263 41.6739 35.7418 43.1542 37.3321L42.3417 38.1047Z" fill="#FEBD2C"/>
<path d="M51.0784 42.5089L49.9431 43.6593L49.1528 42.8642L50.2881 41.7137L51.0784 42.5089Z" fill="#323232"/>
<defs>
<filter id="filter0_d" x="0" y="0" width="63" height="66" filterUnits="userSpaceOnUse" color-interpolation-filters="sRGB">
<feFlood flood-opacity="0" result="BackgroundImageFix"/>
<feColorMatrix in="SourceAlpha" type="matrix" values="0 0 0 0 0 0 0 0 0 0 0 0 0 0 0 0 0 0 127 0"/>
<feOffset dx="2" dy="4"/>
<feGaussianBlur stdDeviation="2"/>
<feColorMatrix type="matrix" values="0 0 0 0 0 0 0 0 0 0 0 0 0 0 0 0 0 0 0.25 0"/>
<feBlend mode="normal" in2="BackgroundImageFix" result="effect1_dropShadow"/>
<feBlend mode="normal" in="SourceGraphic" in2="effect1_dropShadow" result="shape"/>
</filter>
</defs>
</svg>
