<svg width="32" height="32" viewBox="0 0 32 32" fill="none" xmlns="http://www.w3.org/2000/svg">
<path d="M31.9998 15.7901L31.9902 15.7853C31.7458 -1.53715 7.87963 -6.1926 1.23869 9.87853C-3.48088 21.299 5.96306 33.4626 18.1142 31.8565C23.9597 31.0846 28.7655 27.014 30.7875 22.1141C32.1291 18.8634 31.9902 15.8908 31.9998 15.7901ZM30.984 14.7785L28.7703 12.5634L29.5849 9.54291C30.3611 11.1826 30.8354 12.9566 30.984 14.7785ZM28.9237 8.30593L27.8456 12.3141L22.2683 13.8148L18.1908 9.73469L19.6953 4.12993L23.6722 3.06556C25.7757 4.30733 27.5773 6.05732 28.9237 8.30593ZM21.588 14.4908L20.093 20.0764L14.511 21.5723L10.4335 17.497L11.9332 11.9162L17.5152 10.4155L21.588 14.4908ZM22.4312 2.40392L19.4222 3.20939L17.2325 1.01352C19.0341 1.16215 20.7974 1.63201 22.4312 2.40392ZM8.67022 2.87857C10.8935 1.63201 13.3227 0.999133 15.8286 0.965571L18.7466 3.89021L17.2517 9.47579L11.6697 10.9717L7.59694 6.89636L8.67022 2.87857ZM7.48194 3.62172L6.67219 6.65184L3.64879 7.45731C4.68374 5.96143 5.91993 4.70527 7.48194 3.62172ZM2.90612 8.64634L6.91655 7.57717L10.9893 11.6525L9.49435 17.2381L3.91232 18.7339L0.989538 15.8093C1.01829 13.3018 1.65555 10.8758 2.90612 8.64634ZM1.03745 17.2141L3.23193 19.41L2.42697 22.4209C1.65555 20.786 1.18599 19.0216 1.03745 17.2141ZM3.08819 23.6627L4.15189 19.6833L9.75788 18.1778L13.8306 22.2531L12.3309 27.8387L8.32045 28.9127C6.18826 27.6373 4.38667 25.8634 3.08819 23.6627ZM9.55664 29.5743L12.58 28.764L14.7937 30.9791C12.9729 30.8305 11.1953 30.3558 9.55664 29.5743ZM23.356 29.114C21.0849 30.3894 18.6364 30.9983 16.1976 31.027L13.2604 28.0928L14.7601 22.5024L20.3422 21.0065L20.6249 21.2894L24.4293 25.0962L23.356 29.114ZM24.5491 28.3709L25.354 25.3456L28.3774 24.5353C27.3233 26.0647 26.0727 27.3113 24.5491 28.3709ZM29.1249 23.3415L25.1049 24.4202L21.0178 20.3305L22.5175 14.7401L28.0995 13.2443L31.0319 16.1833C31.0031 18.6429 30.3994 21.0641 29.1249 23.3415Z" fill="white"/>
</svg>
