<svg width="117" height="118" viewBox="0 0 117 118" fill="none" xmlns="http://www.w3.org/2000/svg">
<g filter="url(#filter0_d)">
<path d="M102.012 5.19914H89.123C87.6909 5.19914 86.526 4.03068 86.526 2.59421C86.5367 1.16847 85.3718 0 83.9397 0H47.2394H43.4241H38.9247H34.8849H31.2084C29.7763 0 28.6114 1.16847 28.6114 2.60493C28.6114 4.0414 27.4465 5.20986 26.0144 5.20986H10.9987C6.02912 5.19914 2 9.24054 2 14.2253V77.8264C2 82.8111 6.02912 86.8525 10.9987 86.8525H11.4369C13.5423 86.8525 15.2523 88.5677 15.2523 90.6795V95.0746V102.171C15.2523 103.951 16.6844 105.387 18.4585 105.387C20.2326 105.387 21.6647 106.824 21.6647 108.603C21.6647 109.804 23.0861 110.447 23.9731 109.643L45.9997 90.0577C46.4699 89.6397 47.2181 89.972 47.2181 90.6045C47.2181 92.0838 48.415 93.2737 49.8792 93.2737H52.2304C53.7053 93.2737 54.8915 94.4743 54.8915 95.943C54.8915 97.4223 56.0885 98.6122 57.5527 98.6122H71.9378H76.4799H78.9487H83.6725H85.9382C87.4131 98.6122 88.5994 97.4116 88.5994 95.943C88.5994 94.4636 89.7963 93.2737 91.2605 93.2737H92.8743C94.3491 93.2737 95.5354 92.0731 95.5354 90.6045V89.511C95.5354 88.0317 96.7324 86.8418 98.1966 86.8418H102.001C106.971 86.8418 111 82.8004 111 77.8156V14.2253C111.011 9.24054 106.982 5.19914 102.012 5.19914Z" fill="white"/>
</g>
<path d="M55.7257 87.9243H50.4248V90.0681H55.7257V87.9243Z" fill="#FC9B27"/>
<path d="M63.0245 87.9243H58.0977V90.0681H63.0245V87.9243Z" fill="#FC9B27"/>
<path d="M92.3397 87.9243H64.9268V90.0681H92.3397V87.9243Z" fill="#D01319"/>
<path d="M20.5955 89.3716H18.458V91.8584H20.5955V89.3716Z" fill="#0094FF"/>
<path d="M20.5955 93.8955H18.458V102.171H20.5955V93.8955Z" fill="#D01319"/>
<path d="M102.012 8.41431H10.9986C7.80307 8.41431 5.20605 11.0192 5.20605 14.2245V77.8256C5.20605 81.0201 7.80307 83.6357 10.9986 83.6357H24.8707V104.561L48.3935 83.6357H102.012C105.207 83.6357 107.804 81.0201 107.804 77.8256V14.2245C107.804 11.0192 105.207 8.41431 102.012 8.41431ZM105.667 77.8256C105.667 79.8409 104.032 81.4918 102.012 81.4918H47.5813L27.0082 99.7906V81.4918H10.9986C8.98937 81.4918 7.34352 79.8409 7.34352 77.8256V14.2245C7.34352 12.1984 8.98937 10.5583 10.9986 10.5583H102.012C104.032 10.5583 105.667 12.1984 105.667 14.2245V77.8256Z" fill="#323232"/>
<path d="M102.012 10.5591H10.9988C8.9896 10.5591 7.34375 12.1992 7.34375 14.2253V77.8264C7.34375 79.8417 8.9896 81.4926 10.9988 81.4926H27.0084V99.7914L47.5815 81.4926H102.012C104.032 81.4926 105.667 79.8417 105.667 77.8264V14.2253C105.667 12.1992 104.032 10.5591 102.012 10.5591ZM11.6187 14.847H14.2157V16.991H13.7561V18.674H11.6187V14.847ZM11.6187 22.962H13.7561V27.2499H11.6187V22.962ZM11.6187 31.5379H13.7561V35.8258H11.6187V31.5379ZM11.6187 40.1138H13.7561V44.4018H11.6187V40.1138ZM11.6187 48.6897H13.7561V52.9777H11.6187V48.6897ZM11.6187 57.2656H13.7561V61.5536H11.6187V57.2656ZM11.6187 65.8415H13.7561V70.1295H11.6187V65.8415ZM15.2524 77.2046H11.6187V74.4174H13.7561V75.0606H15.2524V77.2046ZM18.4906 14.847H22.7656V16.991H18.4906V14.847ZM23.8022 77.2046H19.5273V75.0606H23.8022V77.2046ZM95.4393 14.847H99.7142V16.991H95.4393V14.847ZM78.3396 14.847H82.6145V16.991H78.3396V14.847ZM69.7898 14.847H74.0647V16.991H69.7898V14.847ZM61.2399 14.847H65.5148V16.991H61.2399V14.847ZM52.69 14.847H56.965V16.991H52.69V14.847ZM44.1402 14.847H48.4151V16.991H44.1402V14.847ZM35.5903 14.847H39.8653V16.991H35.5903V14.847ZM27.0405 14.847H31.3154V16.991H27.0405V14.847ZM28.0771 75.0606H33.4208V79.831H31.2833V77.2046H28.0771V75.0606ZM31.2833 90.2614V84.1189H33.4208V87.8709H33.0681L33.4636 88.3211L31.2833 90.2614ZM36.6591 85.4804L35.2377 83.8724L38.4332 81.0209L39.8546 82.6289L36.6591 85.4804ZM43.0501 79.7881L41.6287 78.1801L44.8349 75.3393L46.2456 76.9366L43.0501 79.7881ZM54.0901 77.2046H49.8152V75.0606H54.0901V77.2046ZM62.6399 77.2046H58.365V75.0606H62.6399V77.2046ZM71.1898 77.2046H66.9149V75.0606H71.1898V77.2046ZM79.7396 77.2046H75.4647V75.0606H79.7396V77.2046ZM83.5764 45.924C83.5871 50.5121 82.3794 55.0252 80.103 58.9915L79.8786 59.3667L79.8572 59.3774C78.7671 61.1998 77.4632 62.8936 75.9563 64.4051C74.4387 65.9166 72.7608 67.2244 70.9547 68.3071L70.944 68.3285L70.5592 68.5537C70.0676 68.8431 69.5653 69.1111 69.0523 69.3576C67.1714 70.2903 65.1835 70.9763 63.1422 71.4266C62.4262 71.5874 61.6995 71.7267 60.962 71.8232C59.8399 71.9733 58.707 72.0483 57.5635 72.0483H57.0932L57.0718 72.0376C52.7969 71.9519 48.6182 70.8263 44.9097 68.7573L44.8883 68.7681L44.5142 68.5537C44.5142 68.5429 44.5036 68.5429 44.5036 68.5429C43.0394 67.6853 41.65 66.6884 40.3783 65.5628C39.9508 65.1876 39.534 64.8017 39.1385 64.4051C37.5568 62.8078 36.1888 61.039 35.0773 59.1416L34.7033 58.82L34.7674 58.5627C32.7154 54.8429 31.604 50.6622 31.5292 46.4064L31.5078 46.3957V45.9454C31.5078 42.5043 32.1811 39.1061 33.4849 35.9545C33.9231 34.8932 34.4254 33.8748 34.9918 32.8779L35.2163 32.492H35.2377C36.3278 30.6803 37.6316 28.9866 39.1385 27.4751C40.6454 25.9636 42.3233 24.6557 44.1402 23.5516L44.1509 23.5301L44.5142 23.3157C44.5249 23.3157 44.5249 23.3157 44.5356 23.3157C47.4853 21.6006 50.7556 20.4964 54.1221 20.0462C55.2443 19.8961 56.3879 19.8211 57.5207 19.8211H57.9696L57.9803 19.8425C62.2552 19.9175 66.4232 21.0324 70.1317 23.0906L70.1531 23.0799L70.5272 23.305H70.5379C72.002 24.1519 73.4021 25.1488 74.6952 26.2852C75.1227 26.6711 75.5395 27.0677 75.9563 27.4751C76.822 28.3434 77.6129 29.276 78.3503 30.2515C78.9488 31.0555 79.5045 31.8702 80.0068 32.7385L80.3488 33.0708L80.3061 33.2638C82.358 36.9836 83.4802 41.1858 83.5657 45.463L83.5764 45.4845V45.924ZM88.2895 77.2046H84.0146V75.0606H88.2895V77.2046ZM91.1644 16.991H86.8895V14.847H91.1644V16.991ZM96.8394 77.2046H92.5644V75.0606H96.8394V77.2046ZM101.392 75.3393H99.2547V71.0514H101.392V75.3393ZM101.392 66.7634H99.2547V62.4755H101.392V66.7634ZM101.392 58.1875H99.2547V53.8996H101.392V58.1875ZM101.392 49.6116H99.2547V45.3237H101.392V49.6116ZM101.392 41.0357H99.2547V36.7478H101.392V41.0357ZM101.392 32.4598H99.2547V28.1719H101.392V32.4598ZM101.392 23.8839H99.2547V19.5959H101.392V23.8839Z" fill="#EDEDED"/>
<path d="M83.5658 45.463C83.4803 41.1858 82.3581 36.9836 80.3061 33.2638L80.3489 33.0708L80.0069 32.7385C79.5046 31.8702 78.9488 31.0555 78.3503 30.2515C77.6129 29.276 76.822 28.3434 75.9564 27.475C75.5396 27.0677 75.1228 26.6711 74.6953 26.2851C73.4021 25.1488 72.0021 24.1519 70.5379 23.305H70.5272L70.1532 23.0799L70.1318 23.0906C66.4233 21.0324 62.2552 19.9175 57.9803 19.8425L57.9696 19.821H57.5208C56.3879 19.821 55.2444 19.8961 54.1222 20.0462C50.7557 20.4964 47.4854 21.6005 44.5357 23.3157C44.525 23.3157 44.525 23.3157 44.5143 23.3157L44.1509 23.5301L44.1402 23.5516C42.3234 24.6557 40.6455 25.9635 39.1386 27.475C37.6316 28.9865 36.3278 30.6803 35.2377 32.4919H35.2163L34.9919 32.8779C34.4255 33.8748 33.9231 34.8932 33.485 35.9545C32.1811 39.1061 31.5078 42.5043 31.5078 45.9454V46.3956L31.5292 46.4064C31.604 50.6622 32.7155 54.8429 34.7674 58.5627L34.7033 58.82L35.0774 59.1416C36.1889 61.039 37.5568 62.8078 39.1386 64.405C39.534 64.8017 39.9508 65.1876 40.3783 65.5628C41.6501 66.6884 43.0394 67.6853 44.5036 68.5429C44.5036 68.5429 44.5143 68.5429 44.5143 68.5536L44.8883 68.768L44.9097 68.7573C48.6182 70.8263 52.797 71.9518 57.0719 72.0376L57.0933 72.0483H57.5635C58.707 72.0483 59.8399 71.9733 60.9621 71.8232C61.6995 71.7267 62.4262 71.5874 63.1423 71.4266C65.1836 70.9763 67.1714 70.2903 69.0524 69.3576C69.5654 69.1111 70.0677 68.8431 70.5593 68.5536L70.944 68.3285L70.9547 68.3071C72.7609 67.2244 74.4388 65.9166 75.9564 64.405C77.4633 62.8935 78.7671 61.1998 79.8572 59.3774L79.8786 59.3667L80.1031 58.9915C82.3795 55.0251 83.5871 50.5121 83.5764 45.924V45.4844L83.5658 45.463ZM79.4618 36.4047C80.3916 38.5594 81.0008 40.832 81.268 43.169L78.4145 40.3067L79.4618 36.4047ZM70.3776 25.7277C70.5593 25.8349 70.741 25.9528 70.9226 26.0815C71.1685 26.2423 71.4143 26.4245 71.6601 26.6067C71.8204 26.7247 71.9914 26.8426 72.1517 26.9712C72.4189 27.1749 72.6754 27.3893 72.9319 27.6144C73.0601 27.7216 73.199 27.8288 73.3273 27.936C73.7014 28.279 74.0754 28.6221 74.4388 28.9865C74.7915 29.3403 75.1334 29.7155 75.4648 30.0907C75.593 30.2193 75.6999 30.3694 75.8174 30.5088C76.0205 30.7553 76.2342 31.0019 76.4266 31.2484C76.5549 31.42 76.6831 31.5915 76.8007 31.7737C76.9717 31.9988 77.1427 32.2347 77.3137 32.4705C77.4419 32.6635 77.5595 32.8564 77.677 33.0494C77.7946 33.2209 77.9015 33.3924 78.0083 33.5747L76.3518 39.7493L67.7058 42.0755L61.3896 35.7401L63.7194 27.0248L69.8325 25.3847C70.0142 25.4919 70.1959 25.6098 70.3776 25.7277ZM66.1882 43.5977L63.869 52.2809L55.2123 54.6071L48.8961 48.2716L51.2152 39.5885L59.872 37.2623L66.1882 43.5977ZM66.9897 23.9268L63.1209 24.9666L60.2995 22.1365C62.6079 22.4045 64.8629 23.0049 66.9897 23.9268ZM45.9784 24.9666C46.1601 24.8594 46.3525 24.7629 46.5342 24.6664C46.7372 24.57 46.9296 24.4628 47.1327 24.3663C47.3999 24.2376 47.667 24.1197 47.9449 23.9911C48.1266 23.916 48.3083 23.8303 48.5006 23.7445C48.8106 23.6159 49.1312 23.5087 49.4411 23.3908C49.6014 23.3372 49.7511 23.2728 49.9114 23.2192C50.8626 22.8977 51.8351 22.6404 52.829 22.4367C52.9786 22.4045 53.139 22.3831 53.2886 22.3617C53.6306 22.2973 53.9726 22.233 54.3146 22.1901C54.5069 22.1687 54.71 22.1473 54.9024 22.1258C55.2123 22.0937 55.5115 22.0615 55.8215 22.0401C56.0352 22.0186 56.2596 22.0186 56.4734 22.0079C56.6871 21.9972 56.9116 21.9865 57.1253 21.9865L61.614 26.4888L59.2948 35.1612L50.6381 37.4981L44.3219 31.1627L45.9784 24.9666ZM40.6455 28.9865C41.4791 28.1611 42.3661 27.4 43.3066 26.6925L42.2593 30.6052L38.3691 31.6558C39.0637 30.7124 39.8119 29.8227 40.6455 28.9865ZM33.688 44.8413C33.6987 44.6376 33.6987 44.4232 33.7094 44.2195C33.7308 43.9086 33.7735 43.6085 33.8056 43.2976C33.827 43.1046 33.8376 42.901 33.8697 42.708C33.9125 42.3757 33.9766 42.0541 34.03 41.7218C34.0621 41.5502 34.0835 41.3787 34.1155 41.2072C34.2117 40.7463 34.3186 40.2853 34.4361 39.8244C34.4575 39.76 34.4789 39.6957 34.4896 39.6314C34.6178 39.1812 34.7461 38.7309 34.8957 38.2914C34.9491 38.1199 35.0239 37.9484 35.0774 37.7769C35.1949 37.4767 35.3018 37.1765 35.4194 36.8764C35.5049 36.6727 35.5904 36.4905 35.6759 36.2868C35.7934 36.0188 35.911 35.7508 36.0392 35.4935C36.1354 35.2898 36.2423 35.0862 36.3492 34.8825C36.4454 34.7002 36.5415 34.518 36.6377 34.3358L42.815 32.6742L49.1312 39.0096L46.8121 47.6927L38.1553 50.019L33.6666 45.5166C33.6666 45.2915 33.6773 45.0664 33.688 44.8413ZM35.6011 55.4111C34.6819 53.2778 34.0835 51.0159 33.8163 48.7004L36.6377 51.5305L35.6011 55.4111ZM44.6532 66.1095C44.4715 65.9916 44.3005 65.8844 44.1295 65.7665C43.873 65.595 43.6272 65.4127 43.3707 65.2198C43.2211 65.1126 43.0608 65.0054 42.9112 64.8874C42.644 64.673 42.3768 64.4479 42.1096 64.2228C41.9921 64.1263 41.8638 64.0299 41.7463 63.9226C41.3722 63.5903 40.9982 63.2366 40.6455 62.8828C40.2821 62.5183 39.9401 62.1431 39.5981 61.768C39.4912 61.6393 39.3844 61.5 39.2775 61.3713C39.0531 61.114 38.8393 60.8568 38.6363 60.5888C38.508 60.428 38.3904 60.2565 38.2729 60.0956C38.0912 59.8491 37.9202 59.6133 37.7492 59.356C37.621 59.1737 37.5034 58.9808 37.3858 58.7985C37.279 58.6163 37.1614 58.4341 37.0545 58.2626L38.6897 52.1308L47.3892 49.7831L53.7054 56.1186L51.3755 64.8017L45.209 66.4633C45.0273 66.3453 44.8349 66.2274 44.6532 66.1095ZM48.0304 67.9212L51.9313 66.8706L54.7848 69.7328C52.455 69.4648 50.1786 68.8538 48.0304 67.9212ZM69.1165 66.9028C68.9241 67.01 68.7317 67.1065 68.5394 67.2137C68.347 67.3101 68.1546 67.4066 67.9623 67.5031C67.6951 67.6317 67.4172 67.7604 67.1393 67.8783C66.9577 67.9641 66.776 68.0498 66.5836 68.1248C66.2844 68.2428 65.9744 68.3607 65.6645 68.4679C65.5042 68.5322 65.3439 68.5965 65.1729 68.6501C64.7561 68.7895 64.3286 68.9181 63.9011 69.036C63.8476 69.0575 63.7835 69.0789 63.7301 69.0896C63.2492 69.2183 62.7575 69.3362 62.2659 69.4327C62.1056 69.4648 61.956 69.4863 61.7957 69.5184C61.4537 69.572 61.1224 69.6364 60.7804 69.6792C60.5773 69.7114 60.3849 69.7221 60.1819 69.7435C59.8826 69.7864 59.5834 69.8186 59.2735 69.84C59.0597 69.8507 58.846 69.8615 58.6322 69.8722C58.4078 69.8829 58.1834 69.8829 57.9589 69.8936L53.4489 65.3591L55.768 56.676L64.4248 54.3498L65.3759 55.3146L70.7623 60.7067L69.1165 66.9028ZM74.4388 62.8828C73.6052 63.719 72.7181 64.4801 71.7883 65.1769L72.825 61.2641L76.7259 60.2136C76.0312 61.1569 75.2724 62.0574 74.4388 62.8828ZM81.4069 47.0388C81.3962 47.2425 81.3855 47.4462 81.3748 47.6499C81.3535 47.9715 81.3214 48.2823 81.2787 48.5932C81.2573 48.7862 81.2466 48.9791 81.2252 49.1614C81.1718 49.5044 81.1184 49.8582 81.0542 50.2012C81.0222 50.3513 81.0008 50.5014 80.9687 50.6622C80.8725 51.1553 80.7657 51.6484 80.6267 52.1415C80.4985 52.6239 80.3596 53.1063 80.1992 53.578C80.1351 53.7495 80.071 53.921 80.0069 54.0818C79.9 54.3927 79.7931 54.6928 79.6649 54.993C79.5901 55.1967 79.5046 55.3896 79.4191 55.5826C79.3015 55.8506 79.1839 56.1186 79.0557 56.3759C78.9595 56.5795 78.8526 56.7832 78.7458 56.9869C78.6496 57.1691 78.5534 57.3514 78.4465 57.5336L72.2693 59.1952L66.4981 53.4064L65.9317 52.8383L68.2615 44.1552L76.9075 41.829L81.4283 46.3528C81.4176 46.5886 81.4176 46.8137 81.4069 47.0388Z" fill="black"/>
<path d="M54.7847 69.7326C52.4548 69.4646 50.1784 68.8536 48.0303 67.9211L51.9311 66.8706L54.7847 69.7326Z" fill="#606060"/>
<path d="M76.7256 60.2136C76.0309 61.1569 75.2721 62.0573 74.4385 62.8827C73.6049 63.7188 72.7179 64.4799 71.7881 65.1766L72.8247 61.2641L76.7256 60.2136Z" fill="#606060"/>
<path d="M70.7617 60.7067L69.1159 66.9028C68.9235 67.01 68.7311 67.1065 68.5387 67.2137C68.3464 67.3102 68.154 67.4067 67.9616 67.5032C67.6944 67.6318 67.4166 67.7604 67.1387 67.8783C66.957 67.9641 66.7753 68.0499 66.583 68.1249C66.2837 68.2428 65.9738 68.3607 65.6638 68.4679C65.5035 68.5323 65.3432 68.5966 65.1722 68.6502C64.7554 68.7895 64.3279 68.9182 63.9004 69.0361C63.847 69.0575 63.7829 69.079 63.7294 69.0897C63.2485 69.2183 62.7569 69.3362 62.2653 69.4327C62.105 69.4649 61.9554 69.4863 61.795 69.5185C61.453 69.5721 61.1217 69.6364 60.7797 69.6793C60.5767 69.7114 60.3843 69.7222 60.1813 69.7436C59.882 69.7865 59.5828 69.8186 59.2728 69.8401C59.0591 69.8508 58.8453 69.8615 58.6316 69.8722C58.4072 69.883 58.1827 69.883 57.9583 69.8937L53.4482 65.3592L55.7674 56.6761L64.4241 54.3499L65.3753 55.3146L70.7617 60.7067Z" fill="#FBFBFB"/>
<path d="M53.7055 56.1187L51.3757 64.8018L45.2091 66.4633C45.0274 66.3454 44.8351 66.2275 44.6534 66.1096C44.4717 65.9917 44.3007 65.8845 44.1297 65.7665C43.8732 65.595 43.6274 65.4128 43.3709 65.2198C43.2213 65.1126 43.061 65.0054 42.9113 64.8875C42.6442 64.6731 42.377 64.448 42.1098 64.2229C41.9922 64.1264 41.864 64.0299 41.7464 63.9227C41.3724 63.5904 40.9983 63.2367 40.6456 62.8829C40.2823 62.5184 39.9403 62.1432 39.5983 61.768C39.4914 61.6394 39.3845 61.5 39.2777 61.3714C39.0532 61.1141 38.8395 60.8568 38.6364 60.5888C38.5082 60.428 38.3906 60.2565 38.273 60.0957C38.0914 59.8492 37.9204 59.6133 37.7494 59.3561C37.6211 59.1738 37.5036 58.9809 37.386 58.7986C37.2791 58.6164 37.1616 58.4341 37.0547 58.2626L38.6898 52.1309L47.3893 49.7832L53.7055 56.1187Z" fill="#FBFBFB"/>
<path d="M36.6379 51.5303L35.6012 55.4106C34.6821 53.2775 34.0836 51.0158 33.8164 48.7004L36.6379 51.5303Z" fill="#606060"/>
<path d="M49.1306 39.0095L46.8114 47.6926L38.1547 50.0188L33.666 45.5165C33.666 45.2914 33.6767 45.0663 33.6874 44.8411C33.6981 44.6375 33.6981 44.4231 33.7088 44.2194C33.7301 43.9085 33.7729 43.6083 33.805 43.2975C33.8263 43.1045 33.837 42.9008 33.8691 42.7079C33.9118 42.3756 33.9759 42.054 34.0294 41.7216C34.0614 41.5501 34.0828 41.3786 34.1149 41.2071C34.2111 40.7461 34.3179 40.2852 34.4355 39.8242C34.4569 39.7599 34.4783 39.6956 34.4889 39.6313C34.6172 39.181 34.7454 38.7308 34.8951 38.2913C34.9485 38.1198 35.0233 37.9483 35.0767 37.7767C35.1943 37.4766 35.3012 37.1764 35.4187 36.8763C35.5042 36.6726 35.5897 36.4903 35.6752 36.2867C35.7928 36.0187 35.9104 35.7507 36.0386 35.4934C36.1348 35.2897 36.2417 35.086 36.3485 34.8824C36.4447 34.7001 36.5409 34.5179 36.6371 34.3357L42.8144 32.6741L49.1306 39.0095Z" fill="#FBFBFB"/>
<path d="M43.3067 26.6926L42.2593 30.6051L38.3691 31.6556C39.0638 30.7123 39.8119 29.8226 40.6455 28.9865C41.4792 28.1612 42.3662 27.4001 43.3067 26.6926Z" fill="#606060"/>
<path d="M66.9901 23.9266L63.1213 24.9663L60.2998 22.1365C62.6083 22.4045 64.8633 23.0047 66.9901 23.9266Z" fill="#606060"/>
<path d="M61.6144 26.4889L59.2952 35.1613L50.6385 37.4982L44.3223 31.1628L45.9788 24.9667C46.1605 24.8595 46.3529 24.763 46.5345 24.6665C46.7376 24.5701 46.93 24.4629 47.133 24.3664C47.4002 24.2377 47.6674 24.1198 47.9453 23.9912C48.127 23.9161 48.3086 23.8304 48.501 23.7446C48.8109 23.616 49.1316 23.5088 49.4415 23.3909C49.6018 23.3373 49.7514 23.273 49.9117 23.2194C50.8629 22.8978 51.8355 22.6405 52.8294 22.4368C52.979 22.4046 53.1393 22.3832 53.2889 22.3618C53.6309 22.2974 53.9729 22.2331 54.3149 22.1903C54.5073 22.1688 54.7103 22.1474 54.9027 22.1259C55.2126 22.0938 55.5119 22.0616 55.8218 22.0402C56.0356 22.0187 56.26 22.0187 56.4738 22.008C56.6875 21.9973 56.9119 21.9866 57.1257 21.9866L61.6144 26.4889Z" fill="#FBFBFB"/>
<path d="M78.0084 33.5748L76.3519 39.7494L67.7059 42.0756L61.3896 35.7402L63.7195 27.0249L69.8326 25.3848C70.0143 25.492 70.196 25.6099 70.3777 25.7278C70.5594 25.835 70.7411 25.9529 70.9227 26.0816C71.1685 26.2424 71.4144 26.4246 71.6602 26.6068C71.8205 26.7248 71.9915 26.8427 72.1518 26.9713C72.419 27.175 72.6755 27.3894 72.932 27.6145C73.0602 27.7217 73.1991 27.8289 73.3274 27.9361C73.7014 28.2791 74.0755 28.6222 74.4389 28.9866C74.7915 29.3404 75.1335 29.7156 75.4648 30.0908C75.5931 30.2194 75.7 30.3695 75.8175 30.5089C76.0206 30.7554 76.2343 31.002 76.4267 31.2485C76.555 31.4201 76.6832 31.5916 76.8008 31.7738C76.9718 31.9989 77.1428 32.2348 77.3138 32.4706C77.442 32.6636 77.5596 32.8565 77.6771 33.0495C77.7947 33.221 77.9016 33.3925 78.0084 33.5748Z" fill="#FBFBFB"/>
<path d="M81.2676 43.1686L78.4141 40.3066L79.4614 36.4048C80.3912 38.5593 81.0004 40.8318 81.2676 43.1686Z" fill="#606060"/>
<path d="M81.4283 46.3529C81.4176 46.5887 81.4176 46.8138 81.4069 47.039C81.3962 47.2426 81.3855 47.4463 81.3748 47.65C81.3534 47.9716 81.3214 48.2825 81.2786 48.5933C81.2573 48.7863 81.2466 48.9793 81.2252 49.1615C81.1718 49.5045 81.1183 49.8583 81.0542 50.2013C81.0221 50.3514 81.0008 50.5015 80.9687 50.6623C80.8725 51.1554 80.7656 51.6485 80.6267 52.1416C80.4985 52.624 80.3595 53.1064 80.1992 53.5781C80.1351 53.7496 80.071 53.9211 80.0068 54.0819C79.9 54.3928 79.7931 54.693 79.6649 54.9931C79.59 55.1968 79.5045 55.3897 79.419 55.5827C79.3015 55.8507 79.1839 56.1187 79.0557 56.376C78.9595 56.5797 78.8526 56.7833 78.7457 56.987C78.6496 57.1693 78.5534 57.3515 78.4465 57.5337L72.2692 59.1953L66.4981 53.4066L65.9316 52.8384L68.2615 44.1553L76.9075 41.8291L81.4283 46.3529Z" fill="#FBFBFB"/>
<path d="M66.1886 43.5977L63.8694 52.2808L55.2127 54.607L48.8965 48.2715L51.2156 39.5884L59.8724 37.2622L66.1886 43.5977Z" fill="#606060"/>
<path d="M83.3302 3.21582H46.6406V5.35965H83.3302V3.21582Z" fill="#D01319"/>
<path d="M44.0437 3.21582H38.0908V5.35965H44.0437V3.21582Z" fill="#FC9B27"/>
<path d="M35.7183 3.21582H31.8174V5.35965H35.7183V3.21582Z" fill="#FC9B27"/>
<path d="M71.19 75.0605H66.915V77.2044H71.19V75.0605Z" fill="#0094FF"/>
<path d="M79.7398 75.0605H75.4648V77.2044H79.7398V75.0605Z" fill="#0094FF"/>
<path d="M99.7144 14.8472H95.4395V16.991H99.7144V14.8472Z" fill="#0094FF"/>
<path d="M101.392 19.5959H99.2549V23.8836H101.392V19.5959Z" fill="#0094FF"/>
<path d="M54.0904 75.0605H49.8154V77.2044H54.0904V75.0605Z" fill="#0094FF"/>
<path d="M46.2458 76.9365L43.0503 79.7878L41.6289 78.1799L44.8351 75.3394L46.2458 76.9365Z" fill="#0094FF"/>
<path d="M62.6402 75.0605H58.3652V77.2044H62.6402V75.0605Z" fill="#0094FF"/>
<path d="M96.8394 75.0605H92.5645V77.2044H96.8394V75.0605Z" fill="#0094FF"/>
<path d="M39.8648 14.8472H35.5898V16.991H39.8648V14.8472Z" fill="#0094FF"/>
<path d="M101.392 62.4756H99.2549V66.7632H101.392V62.4756Z" fill="#0094FF"/>
<path d="M101.392 71.0513H99.2549V75.3389H101.392V71.0513Z" fill="#0094FF"/>
<path d="M101.392 53.8997H99.2549V58.1873H101.392V53.8997Z" fill="#0094FF"/>
<path d="M39.8542 82.6289L36.6587 85.4802L35.2373 83.8723L38.4328 81.021L39.8542 82.6289Z" fill="#0094FF"/>
<path d="M48.4146 14.8472H44.1396V16.991H48.4146V14.8472Z" fill="#0094FF"/>
<path d="M13.7556 31.5381H11.6182V35.8257H13.7556V31.5381Z" fill="#0094FF"/>
<path d="M13.7556 22.9619H11.6182V27.2496H13.7556V22.9619Z" fill="#0094FF"/>
<path d="M22.7652 14.8472H18.4902V16.991H22.7652V14.8472Z" fill="#0094FF"/>
<path d="M13.7556 48.6897H11.6182V52.9774H13.7556V48.6897Z" fill="#0094FF"/>
<path d="M13.7556 40.1138H11.6182V44.4014H13.7556V40.1138Z" fill="#0094FF"/>
<path d="M33.4208 75.0605V79.8306H31.2833V77.2044H28.0771V75.0605H33.4208Z" fill="#0094FF"/>
<path d="M33.4634 88.3208L31.2832 90.261V84.1189H33.4207V87.8706H33.068L33.4634 88.3208Z" fill="#0094FF"/>
<path d="M13.7556 57.2656H11.6182V61.5533H13.7556V57.2656Z" fill="#0094FF"/>
<path d="M15.2519 75.0606V77.2045H11.6182V74.4175H13.7556V75.0606H15.2519Z" fill="#0094FF"/>
<path d="M13.7556 65.8416H11.6182V70.1292H13.7556V65.8416Z" fill="#0094FF"/>
<path d="M14.2152 14.8472V16.991H13.7556V18.6739H11.6182V14.8472H14.2152Z" fill="#0094FF"/>
<path d="M101.392 45.3237H99.2549V49.6114H101.392V45.3237Z" fill="#0094FF"/>
<path d="M91.1646 14.8472H86.8896V16.991H91.1646V14.8472Z" fill="#0094FF"/>
<path d="M23.8023 75.0605H19.5273V77.2044H23.8023V75.0605Z" fill="#0094FF"/>
<path d="M101.392 36.7476H99.2549V41.0352H101.392V36.7476Z" fill="#0094FF"/>
<path d="M74.065 14.8472H69.79V16.991H74.065V14.8472Z" fill="#0094FF"/>
<path d="M65.5152 14.8472H61.2402V16.991H65.5152V14.8472Z" fill="#0094FF"/>
<path d="M88.2896 75.0605H84.0146V77.2044H88.2896V75.0605Z" fill="#0094FF"/>
<path d="M101.392 28.1719H99.2549V32.4595H101.392V28.1719Z" fill="#0094FF"/>
<path d="M31.315 14.8472H27.04V16.991H31.315V14.8472Z" fill="#0094FF"/>
<path d="M56.9644 14.8472H52.6895V16.991H56.9644V14.8472Z" fill="#0094FF"/>
<path d="M82.6148 14.8472H78.3398V16.991H82.6148V14.8472Z" fill="#0094FF"/>
<path d="M73.2737 93.2629H58.0977V95.4068H73.2737V93.2629Z" fill="#0094FF"/>
<path d="M80.4775 93.2629H75.1445V95.4068H80.4775V93.2629Z" fill="#FC9B27"/>
<path d="M85.4032 93.2629H82.1543V95.4068H85.4032V93.2629Z" fill="#FC9B27"/>
<defs>
<filter id="filter0_d" x="0" y="0" width="117" height="118" filterUnits="userSpaceOnUse" color-interpolation-filters="sRGB">
<feFlood flood-opacity="0" result="BackgroundImageFix"/>
<feColorMatrix in="SourceAlpha" type="matrix" values="0 0 0 0 0 0 0 0 0 0 0 0 0 0 0 0 0 0 127 0"/>
<feOffset dx="2" dy="4"/>
<feGaussianBlur stdDeviation="2"/>
<feColorMatrix type="matrix" values="0 0 0 0 0 0 0 0 0 0 0 0 0 0 0 0 0 0 0.25 0"/>
<feBlend mode="normal" in2="BackgroundImageFix" result="effect1_dropShadow"/>
<feBlend mode="normal" in="SourceGraphic" in2="effect1_dropShadow" result="shape"/>
</filter>
</defs>
</svg>
