<svg width="690" height="566" viewBox="0 0 690 566" fill="none" xmlns="http://www.w3.org/2000/svg">
<path d="M232 176H690L670 252H212L232 176Z" fill="#0878CA"/>
<path d="M266.85 194.3L265.15 206.1H260.5L259.9 210.1H264.6L263.7 216.25H259L258.4 220.3H263.15L261.4 232H265.65L267.4 220.3H271.8L270.1 232H274.35L276.05 220.3H280.65L281.35 216.25H276.65L277.55 210.1H282.2L282.8 206.1H278.15L279.8 194.3H275.5L273.85 206.1H269.45L271.15 194.3H266.85ZM268.85 210.1H273.25L272.4 216.25H267.9L268.85 210.1ZM298.139 232H302.689V228.7H307.189L312.839 222.7V203.75L307.189 198.1H302.689V194.5H298.139V198.1H293.589L287.939 203.75V222.7L293.589 228.7H298.139V232ZM292.489 205.6L295.489 202.6H298.139V224.2H295.539L292.489 220.95V205.6ZM305.239 224.2H302.689V202.6H305.289L308.289 205.6V220.95L305.239 224.2ZM328.026 212.5H327.926L324.726 203.1L321.926 194.5H316.976L325.576 218.9L321.476 232H326.276L338.476 194.5H333.676L330.726 203.05L328.026 212.5ZM346.428 198.6V232H350.978V198.6H357.628V194.5H339.828V198.6H346.428ZM362.458 194.5V232H374.208L380.008 226.3V214.6L374.258 208.55H367.008V199.05H378.808V194.5H362.458ZM367.008 213.1H372.308L375.408 216.4V224.4L372.358 227.45H367.008V213.1ZM404.975 226.15V199.7L399.325 194.05H392.175L386.525 199.7V226.15L392.125 232.15H399.325L404.975 226.15ZM400.425 224.4L397.375 227.65H394.075L391.025 224.4V201.55L394.025 198.55H397.425L400.425 201.55V224.4ZM416.915 194.55L412.115 227.8H409.215V232H416.165L420.865 199H425.365V232H429.915V194.55H416.915ZM437.067 194.5V232H448.817L454.617 226.3V214.6L448.867 208.55H441.617V199.05H453.417V194.5H437.067ZM441.617 213.1H446.917L450.017 216.4V224.4L446.967 227.45H441.617V213.1ZM474.935 211.2H465.885V199.1H476.685V194.55H461.335V232H477.385V227.45H465.885V215.75H474.935V211.2ZM488.493 209.65V214.25H492.743L495.943 217.4V224.55L493.093 227.55H489.943L487.143 224.55V219.6H482.593V226.35L487.993 232.1H495.093L500.543 226.35V215.3L496.793 211.6L499.543 208.3V200.05L494.343 194.4H487.993L482.893 200.05V204.15H487.493V201.95L489.893 199.05H492.443L494.943 201.95V206.5L492.293 209.65H488.493ZM512.076 232V199.2H522.826V194.7H507.526V232H512.076ZM545.291 200.25L539.491 194.55H527.741V232H532.291V219.7H539.541L545.291 213.65V200.25ZM537.591 215.15H532.291V199.1H537.641L540.691 202.15V211.85L537.591 215.15ZM554.909 194.55L549.359 232H553.959L555.409 222.25H563.209L564.659 232H569.259L563.709 194.55H554.909ZM559.759 199.1L562.559 217.7H556.059L558.809 199.1H559.759ZM574.227 232H578.777V215.5H587.227V232H591.777V194.65H587.227V211.15H578.777V194.65H574.227V232ZM598.981 232H603.831L609.681 213.6L613.131 200.55H613.281L612.531 214V232H617.081V194.65H610.931L606.681 208.05L602.981 223.5H602.831L603.531 207.8V194.65H598.981V232ZM624.224 232H640.174V235.75H644.474V227.8H641.774V194.6H637.224V227.65H628.774V194.65H624.224V232Z" fill="white"/>
<path d="M20 0H257L237 76H0L20 0Z" fill="#D01319"/>
<path d="M47.7 18.6V56H59.7L65.3 50.4V40.4L61.55 36.7L64.3 33.4V24.25L58.7 18.6H47.7ZM57.05 34.75H52.3V23.25H56.8L59.7 26.15V31.6L57.05 34.75ZM52.3 51.4V39.35H57.5L60.7 42.5V48.5L57.8 51.4H52.3ZM94.8582 56H99.4082V18.5H94.8582V56ZM83.9082 56L89.7082 50.3V36.9L83.9582 30.85H76.7082V18.55H72.1582V56H83.9082ZM76.7082 35.4H82.0082L85.1082 38.7V48.4L82.0582 51.45H76.7082V35.4ZM111.337 18.55L106.537 51.8H103.637V56H110.587L115.287 23H119.787V56H124.337V18.55H111.337ZM149.739 50.15V23.7L144.089 18.05H136.939L131.289 23.7V50.15L136.889 56.15H144.089L149.739 50.15ZM145.189 48.4L142.139 51.65H138.839L135.789 48.4V25.55L138.789 22.55H142.189L145.189 25.55V48.4ZM174.679 33.7H173.179V18.5H168.629V33.7H167.129L160.379 18.5H155.379L163.179 36L154.079 56H159.079L167.129 38.25H168.629V56H173.179V38.25H174.679L182.729 56H187.729L178.629 36L186.429 18.5H181.429L174.679 33.7ZM192.427 56H197.277L203.127 37.6L206.577 24.55H206.727L205.977 38V56H210.527V18.65H204.377L200.127 32.05L196.427 47.5H196.277L196.977 31.8V18.65H192.427V56Z" fill="white"/>
<path d="M286.704 32H289.616V29.888H292.496L296.112 26.048V13.92L292.496 10.304H289.616V8H286.704V10.304H283.792L280.176 13.92V26.048L283.792 29.888H286.704V32ZM283.088 15.104L285.008 13.184H286.704V27.008H285.04L283.088 24.928V15.104ZM291.248 27.008H289.616V13.184H291.28L293.2 15.104V24.928L291.248 27.008ZM312.392 28.256V11.328L308.776 7.712H304.2L300.584 11.328V28.256L304.168 32.096H308.776L312.392 28.256ZM309.48 27.136L307.528 29.216H305.416L303.464 27.136V12.512L305.384 10.592H307.56L309.48 12.512V27.136ZM319.265 10.624V32H322.177V10.624H326.433V8H315.041V10.624H319.265ZM341.204 28.256V11.328L337.588 7.712H333.012L329.396 11.328V28.256L332.98 32.096H337.588L341.204 28.256ZM338.292 27.136L336.34 29.216H334.228L332.276 27.136V12.512L334.196 10.592H336.372L338.292 12.512V27.136ZM351.618 32H354.722L358.466 20.224L360.674 11.872H360.77L360.29 20.48V32H363.202V8.096H359.266L356.546 16.672L354.178 26.56H354.082L354.53 16.512V8.096H351.618V32ZM370.846 8.032L367.774 29.312H365.918V32H370.366L373.374 10.88H376.254V32H379.166V8.032H370.846ZM383.743 32H386.847L390.591 20.224L392.799 11.872H392.895L392.415 20.48V32H395.327V8.096H391.391L388.671 16.672L386.303 26.56H386.207L386.655 16.512V8.096H383.743V32ZM405.743 8.064V32H413.423L417.007 28.416V22.016L414.607 19.648L416.367 17.536V11.68L412.783 8.064H405.743ZM411.727 18.4H408.687V11.04H411.567L413.423 12.896V16.384L411.727 18.4ZM408.687 29.056V21.344H412.015L414.063 23.36V27.2L412.207 29.056H408.687ZM421.524 32H424.628L428.372 20.224L430.58 11.872H430.676L430.196 20.48V32H433.108V8.096H429.172L426.452 16.672L424.084 26.56H423.988L424.436 16.512V8.096H421.524V32ZM436.08 34.4H438.896V32H449.008V34.4H451.824V29.44H449.776V8.032H441.424L438.384 29.44H436.08V34.4ZM446.864 10.88V29.44H441.328L443.984 10.88H446.864ZM463.697 18.688H457.905V10.944H464.817V8.032H454.993V32H465.265V29.088H457.905V21.6H463.697V18.688ZM481.111 28.256V11.328L477.495 7.712H472.919L469.303 11.328V28.256L472.887 32.096H477.495L481.111 28.256ZM478.199 27.136L476.247 29.216H474.135L472.183 27.136V12.512L474.103 10.592H476.279L478.199 12.512V27.136ZM483.472 35.04L485.808 35.808L487.28 32.128V28.896H484.304V31.744L483.472 35.04ZM287.792 46.032V59.216H284.784L282.8 57.104V46.096H279.888V58.256L283.536 62.128H287.792V70H290.704V46.032H287.792ZM297.578 48.624V70H300.49V48.624H304.746V46H293.354V48.624H297.578ZM319.517 66.256V49.328L315.901 45.712H311.325L307.709 49.328V66.256L311.293 70.096H315.901L319.517 66.256ZM316.605 65.136L314.653 67.216H312.541L310.589 65.136V50.512L312.509 48.592H314.685L316.605 50.512V65.136ZM328.299 72.4H331.115V70H341.227V72.4H344.043V67.44H341.995V46.032H333.643L330.603 67.44H328.299V72.4ZM339.083 48.88V67.44H333.547L336.203 48.88H339.083ZM350.252 46.032L347.18 67.312H345.324V70H349.772L352.78 48.88H355.66V70H358.572V46.032H350.252ZM370.765 61.936V70H373.677V46.032H366.637L362.957 49.744V58.032L365.549 60.816L361.293 70H364.493L368.237 61.936H370.765ZM370.765 48.976V59.024H367.853L365.869 56.88V50.928L367.821 48.976H370.765ZM386.359 48.624V70H389.271V48.624H393.527V46H382.135V48.624H386.359ZM405.322 56.688H399.53V48.944H406.442V46.032H396.618V70H406.89V67.088H399.53V59.6H405.322V56.688ZM411.056 46V70H418.576L422.288 66.352V58.864L418.608 54.992H413.968V48.912H421.52V46H411.056ZM413.968 57.904H417.36L419.344 60.016V65.136L417.392 67.088H413.968V57.904ZM434.203 61.936V70H437.115V46.032H430.075L426.395 49.744V58.032L428.987 60.816L424.731 70H427.931L431.675 61.936H434.203ZM434.203 48.976V59.024H431.291L429.307 56.88V50.928L431.259 48.976H434.203ZM453.86 70H456.772V67.888H459.652L463.268 64.048V51.92L459.652 48.304H456.772V46H453.86V48.304H450.948L447.332 51.92V64.048L450.948 67.888H453.86V70ZM450.244 53.104L452.164 51.184H453.86V65.008H452.196L450.244 62.928V53.104ZM458.404 65.008H456.772V51.184H458.436L460.356 53.104V62.928L458.404 65.008ZM472.988 57.52H472.924L470.876 51.504L469.084 46H465.916L471.42 61.616L468.796 70H471.868L479.676 46H476.604L474.716 51.472L472.988 57.52ZM484.765 48.624V70H487.677V48.624H491.933V46H480.541V48.624H484.765ZM495.024 46V70H502.544L506.256 66.352V58.864L502.576 54.992H497.936V48.912H505.488V46H495.024ZM497.936 57.904H501.328L503.312 60.016V65.136L501.36 67.088H497.936V57.904ZM522.236 66.256V49.328L518.62 45.712H514.044L510.428 49.328V66.256L514.012 70.096H518.62L522.236 66.256ZM519.324 65.136L517.372 67.216H515.26L513.308 65.136V50.512L515.228 48.592H517.404L519.324 50.512V65.136ZM529.877 46.032L526.805 67.312H524.949V70H529.397L532.405 48.88H535.285V70H538.197V46.032H529.877Z" fill="#373737"/>
<path d="M131.368 115.064V139H139.048L142.632 135.416V129.016L140.232 126.648L141.992 124.536V118.68L138.408 115.064H131.368ZM137.352 125.4H134.312V118.04H137.192L139.048 119.896V123.384L137.352 125.4ZM134.312 136.056V128.344H137.64L139.688 130.36V134.2L137.832 136.056H134.312Z" fill="#373737"/>
<path d="M228.368 139H231.472L235.216 127.224L237.424 118.872H237.52L237.04 127.48V139H239.952V115.096H236.016L233.296 123.672L230.928 133.56H230.832L231.28 123.512V115.096H228.368V139ZM247.596 115.032L244.524 136.312H242.668V139H247.116L250.124 117.88H253.004V139H255.916V115.032H247.596ZM260.493 139H263.597L267.341 127.224L269.549 118.872H269.645L269.165 127.48V139H272.077V115.096H268.141L265.421 123.672L263.053 133.56H262.957L263.405 123.512V115.096H260.493V139Z" fill="#373737"/>
<path d="M59.848 205.608V208.072H62.76V204.456L59.272 200.808H54.728L51.24 204.456V221.288L54.696 225.16H59.272L62.76 221.288V217.512L59.848 217.544V220.2L57.992 222.248H55.976L54.152 220.2V205.608L55.944 203.72H58.024L59.848 205.608ZM77.7625 213.672L81.5385 225H84.6105L80.0985 211.912L83.7785 201.032H80.7385L77.7625 210.12H77.6345L74.6265 201.032H71.5225L75.3305 211.912L70.7225 225H73.7945L77.6345 213.672H77.7625ZM89.579 208.072V205.608L91.403 203.72H93.483L95.275 205.608V211.336H89.675V214.12H95.275V220.2L93.451 222.248H91.435L89.579 220.2V217.544L86.667 217.512V221.288L90.155 225.16H94.731L98.187 221.288V204.456L94.699 200.808H90.155L86.667 204.456V208.072H89.579ZM102.806 201.096V225H120.438V201.064H117.526V222.248H113.078V201.064H110.166V222.248H105.718V201.096H102.806ZM127.328 203.624V225H130.24V203.624H134.496V201H123.104V203.624H127.328ZM146.291 211.688H140.499V203.944H147.411V201.032H137.587V225H147.859V222.088H140.499V214.6H146.291V211.688ZM154.936 225V204.008H161.816V201.128H152.024V225H154.936ZM176.642 221.256V204.328L173.026 200.712H168.45L164.834 204.328V221.256L168.418 225.096H173.026L176.642 221.256ZM173.73 220.136L171.778 222.216H169.666L167.714 220.136V205.512L169.634 203.592H171.81L173.73 205.512V220.136ZM194.363 203.88V224.968H197.275V201.032H191.483L190.139 210.536L189.307 219.24H189.211L188.347 210.408L187.003 201.032H181.211V224.968H184.123V203.88H184.475L187.451 223.144H191.131L194.011 203.88H194.363Z" fill="#373737"/>
<path d="M111.077 296H510.38L476.684 424H77.38L111.077 296Z" fill="#D01319"/>
<path d="M156.068 329.664V391H175.748L184.932 381.816V365.416L178.782 359.348L183.292 353.936V338.93L174.108 329.664H156.068ZM171.402 356.15H163.612V337.29H170.992L175.748 342.046V350.984L171.402 356.15ZM163.612 383.456V363.694H172.14L177.388 368.86V378.7L172.632 383.456H163.612ZM233.407 391H240.869V329.5H233.407V391ZM215.449 391L224.961 381.652V359.676L215.531 349.754H203.641V329.582H196.179V391H215.449ZM203.641 357.216H212.333L217.417 362.628V378.536L212.415 383.538H203.641V357.216ZM252.642 391H260.596L270.19 360.824L275.848 339.422H276.094L274.864 361.48V391H282.326V329.746H272.24L265.27 351.722L259.202 377.06H258.956L260.104 351.312V329.746H252.642V391ZM301.585 391V337.208H319.215V329.828H294.123V391H301.585ZM356.057 338.93L346.545 329.582H327.275V391H334.737V370.828H346.627L356.057 360.906V338.93ZM343.429 363.366H334.737V337.044H343.511L348.513 342.046V357.954L343.429 363.366ZM371.83 329.582L362.728 391H370.272L372.65 375.01H385.442L387.82 391H395.364L386.262 329.582H371.83ZM379.784 337.044L384.376 367.548H373.716L378.226 337.044H379.784ZM408.349 319.988L413.023 325.072H423.191L427.783 319.988L423.847 315.478L420.567 318.102H415.565L412.449 315.478L408.349 319.988ZM403.429 391H411.383L420.977 360.824L426.635 339.422H426.881L425.651 361.48V391H433.113V329.746H423.027L416.057 351.722L409.989 377.06H409.743L410.891 351.312V329.746H403.429V391Z" fill="white"/>
<path d="M286.077 438H620.38L586.684 566H252.38L286.077 438Z" fill="#D01319"/>
<path d="M336.986 533H344.448V478.798H358.306V533H365.768V471.664H336.986V533ZM406.37 480.93L396.858 471.582H377.588V533H385.05V512.828H396.94L406.37 502.906V480.93ZM393.742 505.366H385.05V479.044H393.824L398.826 484.046V499.954L393.742 505.366ZM417.386 533H425.34L434.934 502.824L440.592 481.422H440.838L439.608 503.48V533H447.07V471.746H436.984L430.014 493.722L423.946 519.06H423.7L424.848 493.312V471.746H417.386V533ZM466.411 496.346V503.89H473.381L478.629 509.056V520.782L473.955 525.702H468.789L464.197 520.782V512.664H456.735V523.734L465.591 533.164H477.235L486.173 523.734V505.612L480.023 499.544L484.533 494.132V480.602L476.005 471.336H465.591L457.227 480.602V487.326H464.771V483.718L468.707 478.962H472.889L476.989 483.718V491.18L472.643 496.346H466.411ZM534.525 533H541.987V471.5H534.525V533ZM516.567 533L526.079 523.652V501.676L516.649 491.754H504.759V471.582H497.297V533H516.567ZM504.759 499.216H513.451L518.535 504.628V520.536L513.533 525.538H504.759V499.216Z" fill="white"/>
<path d="M35.62 352.64H41.02V353.06L38.8 354.38V392H44.62L51.64 369.92L55.9 354.8H56.08L55.06 370.4V392H60.52V347.18H53.14L48.04 363.26L43.6 381.02H43.42L44.26 362.96V347.18H35.62V352.64Z" fill="#373737"/>
<path d="M214.918 110.222H204.541C204.117 110.222 203.701 110.337 203.338 110.553C202.974 110.77 202.677 111.08 202.476 111.452C202.476 111.452 198.337 119.045 197.008 121.603C193.431 128.483 191.115 126.323 191.115 123.13V112.12C191.115 111.2 190.748 110.318 190.095 109.667C189.442 109.017 188.556 108.651 187.633 108.651H179.83C178.768 108.573 177.702 108.766 176.736 109.213C175.769 109.659 174.934 110.345 174.308 111.204C174.308 111.204 178.27 110.566 178.27 115.884C178.27 117.202 178.338 120.996 178.4 124.178C178.412 124.647 178.279 125.108 178.019 125.499C177.759 125.89 177.385 126.192 176.948 126.365C176.51 126.538 176.03 126.573 175.571 126.465C175.113 126.357 174.699 126.112 174.385 125.762C171.192 121.337 168.546 116.544 166.506 111.488C166.331 111.109 166.051 110.789 165.698 110.565C165.346 110.34 164.936 110.222 164.518 110.222C162.268 110.222 157.764 110.222 155.089 110.222C154.83 110.22 154.574 110.281 154.344 110.4C154.113 110.518 153.915 110.691 153.766 110.902C153.618 111.114 153.523 111.358 153.489 111.615C153.456 111.871 153.486 112.131 153.577 112.374C156.44 120.197 168.773 144.78 182.849 144.78H188.774C189.395 144.78 189.991 144.535 190.43 144.098C190.869 143.66 191.115 143.067 191.115 142.449V138.885C191.115 138.438 191.246 138.001 191.493 137.627C191.739 137.253 192.09 136.96 192.502 136.782C192.914 136.605 193.369 136.551 193.811 136.628C194.253 136.705 194.663 136.909 194.99 137.215L202.082 143.853C202.719 144.449 203.56 144.78 204.434 144.78H213.746C218.238 144.78 218.238 141.676 215.789 139.273C214.066 137.583 207.847 131.053 207.847 131.053C207.314 130.503 206.997 129.782 206.951 129.019C206.906 128.257 207.136 127.503 207.6 126.895C209.61 124.26 212.898 119.946 214.292 118.099C216.198 115.573 219.648 110.222 214.918 110.222Z" fill="#0878CA"/>
<path d="M338.529 107.651C337.815 105.811 336.862 104.253 335.304 102.696C333.747 101.138 332.189 100.185 330.349 99.4714C328.575 98.779 326.519 98.3029 323.555 98.1731C320.569 98.0433 319.617 98 312 98C304.383 98 303.431 98.0216 300.445 98.1731C297.459 98.3029 295.425 98.779 293.651 99.4714C291.811 100.185 290.253 101.138 288.696 102.696C287.138 104.253 286.185 105.811 285.471 107.651C284.779 109.425 284.303 111.481 284.173 114.445C284.043 117.431 284 118.383 284 126C284 133.617 284.022 134.569 284.173 137.555C284.303 140.541 284.779 142.575 285.471 144.349C286.185 146.189 287.138 147.747 288.696 149.304C290.253 150.862 291.811 151.815 293.651 152.529C295.425 153.221 297.481 153.697 300.445 153.827C303.431 153.957 304.383 154 312 154C319.617 154 320.569 153.978 323.555 153.827C326.541 153.697 328.575 153.221 330.349 152.529C332.189 151.815 333.747 150.862 335.304 149.304C336.862 147.747 337.815 146.189 338.529 144.349C339.221 142.575 339.697 140.519 339.827 137.555C339.957 134.569 340 133.617 340 126C340 118.383 339.978 117.431 339.827 114.445C339.697 111.459 339.221 109.425 338.529 107.651ZM334.785 137.317C334.655 140.043 334.201 141.536 333.811 142.51C333.314 143.808 332.686 144.76 331.713 145.734C330.739 146.708 329.808 147.314 328.488 147.833C327.493 148.223 326.022 148.677 323.295 148.807C320.331 148.937 319.465 148.98 311.978 148.98C304.492 148.98 303.604 148.958 300.662 148.807C297.935 148.677 296.442 148.223 295.468 147.833C294.17 147.335 293.218 146.708 292.244 145.734C291.27 144.76 290.665 143.83 290.145 142.51C289.756 141.515 289.301 140.043 289.172 137.317C289.042 134.352 288.998 133.465 288.998 126C288.998 118.535 289.02 117.626 289.172 114.683C289.301 111.957 289.756 110.464 290.145 109.49C290.643 108.192 291.27 107.24 292.244 106.266C293.218 105.292 294.148 104.686 295.468 104.167C296.464 103.777 297.935 103.323 300.662 103.193C303.626 103.063 304.513 103.02 311.978 103.02C319.444 103.02 320.352 103.042 323.295 103.193C326.022 103.323 327.515 103.777 328.488 104.167C329.787 104.665 330.739 105.292 331.713 106.266C332.686 107.24 333.292 108.17 333.811 109.49C334.201 110.485 334.655 111.957 334.785 114.683C334.915 117.648 334.958 118.535 334.958 126C334.958 133.465 334.915 134.374 334.785 137.317Z" fill="#D01319"/>
<path d="M311.978 111.611C304.037 111.611 297.589 118.059 297.589 126C297.589 133.941 304.037 140.39 311.978 140.39C319.92 140.39 326.368 133.941 326.368 126C326.368 118.059 319.92 111.611 311.978 111.611ZM311.978 135.348C306.828 135.348 302.631 131.172 302.631 126C302.631 120.85 306.807 116.652 311.978 116.652C317.15 116.652 321.326 120.829 321.326 126C321.326 131.15 317.128 135.348 311.978 135.348Z" fill="#D01319"/>
<path d="M326.93 114.402C328.783 114.402 330.284 112.9 330.284 111.048C330.284 109.196 328.783 107.694 326.93 107.694C325.078 107.694 323.577 109.196 323.577 111.048C323.577 112.9 325.078 114.402 326.93 114.402Z" fill="#D01319"/>
</svg>
