<svg width="272" height="177" viewBox="0 0 272 177" fill="none" xmlns="http://www.w3.org/2000/svg">
<path d="M148.63 49.7147C148.63 49.7147 94.9472 101.843 34.6707 66.4947C34.6707 66.4947 99.5482 102.909 155.572 28.1248C155.567 28.1338 146.711 49.0731 148.63 49.7147Z" fill="white"/>
<path d="M175.666 95.3059C175.666 95.3059 98.2489 133.146 28.4468 68.1031C28.4468 68.1031 93.6704 127.445 162.746 87.2128C162.75 87.2037 173.826 91.4679 175.666 95.3059Z" fill="#E30613"/>
<path d="M153.88 78.1421C153.88 78.1421 112.251 104.798 55.2676 81.0507C55.2676 81.0507 113.749 101.756 149.332 64.951C149.323 64.9468 151.426 73.3991 153.88 78.1421Z" fill="#0878CA"/>
<ellipse cx="192.5" cy="53" rx="43.5" ry="45" fill="#FBFBFB"/>
<path d="M186.371 6.88367C163.231 9.80405 146.209 29.4358 145.87 52.1264L145.848 52.1263C145.852 52.18 145.866 52.2292 145.87 52.2829C145.849 54.3803 145.962 56.5005 146.232 58.6436C149.44 83.9851 172.66 101.986 197.992 98.7823C223.334 95.5744 241.334 72.3549 238.131 47.0224C234.932 21.6764 211.712 3.67577 186.371 6.88367ZM215.125 80.6804C212.975 80.3733 207.934 79.4569 204.266 77.2349C203.854 70.7085 203.048 59.5119 202.92 57.7002C205.378 55.6113 211.959 49.9277 214.303 47.1363C218.065 48.0841 225.41 50.0908 229.224 51.6827C230.689 56.0571 230.671 61.3565 230.485 64.4954C226.991 72.7343 218.003 78.8747 215.125 80.6804ZM183.606 49.7621C178.385 52.7627 169.604 57.4279 167.35 58.6231C165.167 57.4393 160.173 54.6134 157.913 52.4634C156.648 43.0675 158.951 34.1803 159.702 31.6204C162.353 29.3578 168.542 24.3705 173.127 22.9911C175.492 24.3186 181.906 28.0483 186.177 31.936C185.628 35.3553 183.89 46.3955 183.606 49.7621ZM151.599 59.8563C150.797 59.1603 149.879 58.142 149.11 56.7037C148.21 46.8037 150.765 37.3227 155.801 29.4915L157.702 31.8863C156.788 35.1746 154.985 43.1109 155.961 51.8126C154.774 53.4498 152.54 56.7783 151.599 59.8563ZM187.193 30.3833C182.873 26.5088 176.776 22.9233 174.232 21.5057C175.223 19.5637 179.153 14.658 179.153 14.658C179.278 14.6182 191.642 11.1908 200.97 12.784C203.806 13.8895 208.352 15.9223 210.267 18.1874C208.569 21.4283 206.283 25.6644 204.717 28.2931C201.355 27.9952 190.61 28.8567 187.193 30.3833ZM229.343 49.7601C224.948 48.0096 217.737 46.1152 214.953 45.4078C213.874 43.2753 208.281 32.3304 206.275 29.2511C208.11 26.1985 210.586 21.5337 211.82 19.1811C214.285 20.0573 222.287 23.5466 222.287 23.5466C222.354 23.6362 229.256 32.2021 232.458 43.8185C232.467 43.814 230.295 48.4396 229.343 49.7601ZM234.085 42.7776C232.313 36.6133 229.621 31.3849 227.415 27.7682C230.602 32.238 232.981 37.3535 234.29 42.9438C234.214 42.8809 234.143 42.827 234.085 42.7776ZM199.333 10.18C199.283 10.3498 199.243 10.5151 199.188 10.6759C189.872 9.75801 179.146 12.7305 178.658 12.8719L178.667 12.9122L176.087 12.6841C179.437 11.3362 183.009 10.3916 186.758 9.91714C191.049 9.38645 195.275 9.49058 199.333 10.18ZM151.453 62.0606C152.097 64.5762 154.408 72.5491 158.767 76.9291C158.933 77.8957 159.254 79.5783 159.668 81.3373C154.63 75.6089 151.059 68.4947 149.62 60.5247C150.284 61.1889 150.926 61.6965 151.453 62.0606ZM162.369 84.1284C161.789 82.3957 161.225 79.9743 160.821 77.8754C162.712 77.9088 166.805 77.8112 169.984 76.5477C169.984 76.5477 168.23 64.1135 168.288 60.2005C170.649 58.9521 179.131 54.4468 184.333 51.4551C187.273 53.5807 197.75 57.7404 201.116 58.405C201.316 61.2187 202.003 70.8005 202.389 76.8482C201.092 78.1272 197.212 81.4455 189.056 84.7399C182.714 83.81 169.601 74.9409 169.471 74.8599L169.971 76.5432L168.776 76.7671C169.276 77.0998 181.024 84.9043 187.915 86.3996C188.732 88.1377 190.392 91.6675 191.37 93.4374C188.574 94.7783 185.304 95.0934 183.18 95.1307C175.292 93.4486 168.096 89.582 162.369 84.1284ZM189.813 96.0169C191.103 95.6234 192.388 95.0867 193.567 94.335C196.64 94.0058 203.606 93.1982 207.093 92.2398C207.535 92.456 208.161 92.6371 209.024 92.6669C205.463 94.1751 201.64 95.2217 197.618 95.731C194.974 96.0706 192.371 96.1555 189.813 96.0169ZM216.139 88.8277C212.6 90.4701 210.461 90.8384 209.218 90.8072C210.714 89.0056 213.853 85.1615 215.342 82.716C216.96 81.769 226.546 75.9125 231.205 67.2527L232.917 67.3526C229.779 76.1071 223.872 83.6669 216.139 88.8277Z" fill="#323232"/>
<path d="M186.493 42.5719C186.493 42.5719 188.175 32.2516 189.54 31.8985C192.521 31.1352 203.195 30.1974 204.449 30.971C205.712 31.7401 210.529 40.4686 210.529 40.4686C210.529 40.4686 204.436 32.0934 203.765 32.0911C198.935 32.0743 190.628 32.8996 189.857 34.4532C186.781 40.7215 187.441 41.2202 186.493 42.5719Z" fill="#FBFBFB"/>
<path d="M195.082 84.1976C195.579 84.0294 202.555 79.2326 203.471 79.5265C204.386 79.8204 210.824 81.7971 210.824 81.7971C210.824 81.7971 204.746 80.6579 203.345 80.984C201.948 81.319 195.082 84.1976 195.082 84.1976Z" fill="#FBFBFB"/>
<path d="M153.382 59.0621C153.382 59.0621 155.835 53.3373 156.5 53.7108C157.169 54.0932 165.685 59.0467 165.933 59.7944C166.18 60.5421 167.242 65.2729 167.242 65.2729C167.242 65.2729 165.246 60.5255 164.72 60.0272C163.753 59.0892 156.843 55.2593 156.409 55.4636C155.97 55.6812 153.382 59.0621 153.382 59.0621Z" fill="#FBFBFB"/>
</svg>
