<svg width="382" height="119" viewBox="0 0 382 119" fill="none" xmlns="http://www.w3.org/2000/svg">
<g opacity="0.05" filter="url(#filter0_d)">
<rect x="2" y="2" width="378" height="115" rx="50" fill="#FEBD2C"/>
</g>
<g opacity="0.1" filter="url(#filter1_d)">
<rect x="9.99988" y="9" width="362" height="101" rx="50" fill="#FEBD2C"/>
</g>
<g opacity="0.2" filter="url(#filter2_d)">
<rect x="17.9999" y="16" width="346" height="87" rx="43.5" fill="#FEBD2C"/>
</g>
<g opacity="0.5" filter="url(#filter3_d)">
<rect x="26.9999" y="23" width="328" height="73" rx="36.5" fill="#FEBD2C"/>
</g>
<rect x="34.9999" y="29" width="312" height="61" rx="30.5" fill="#FEBD2C"/>
<path d="M88.6675 57.6132V59.5452H90.4525L91.7965 60.8682V63.8712L90.5995 65.1312H89.2765L88.1005 63.8712V61.7922H86.1895V64.6272L88.4575 67.0422H91.4395L93.7285 64.6272V59.9862L92.1535 58.4322L93.3085 57.0462V53.5812L91.1245 51.2082H88.4575L86.3155 53.5812V55.3032H88.2475V54.3792L89.2555 53.1612H90.3265L91.3765 54.3792V56.2902L90.2635 57.6132H88.6675ZM97.8793 51.2712L95.5483 67.0002H97.4803L98.0893 62.9052H101.365L101.974 67.0002H103.906L101.575 51.2712H97.8793ZM99.9163 53.1822L101.092 60.9942H98.3623L99.5173 53.1822H99.9163ZM113.343 53.6652L110.907 51.2712H105.972V67.0002H107.883V61.8342H110.928L113.343 59.2932V53.6652ZM110.109 59.9232H107.883V53.1822H110.13L111.411 54.4632V58.5372L110.109 59.9232ZM121.162 61.7082V67.0002H123.073V51.2712H118.453L116.038 53.7072V59.1462L117.739 60.9732L114.946 67.0002H117.046L119.503 61.7082H121.162ZM121.162 53.2032V59.7972H119.251L117.949 58.3902V54.4842L119.23 53.2032H121.162ZM125.019 68.5752H126.867V67.0002H133.503V68.5752H135.351V65.3202H134.007V51.2712H128.526L126.531 65.3202H125.019V68.5752ZM132.096 53.1402V65.3202H128.463L130.206 53.1402H132.096ZM137.431 67.0002H139.468L141.925 59.2722L143.374 53.7912H143.437L143.122 59.4402V67.0002H145.033V51.3132H142.45L140.665 56.9412L139.111 63.4302H139.048L139.342 56.8362V51.3132H137.431V67.0002ZM157.433 54.2742V55.8912H159.344V53.5182L157.055 51.1242H154.073L151.784 53.5182V64.5642L154.052 67.1052H157.055L159.344 64.5642V62.0862L157.433 62.1072V63.8502L156.215 65.1942H154.892L153.695 63.8502V54.2742L154.871 53.0352H156.236L157.433 54.2742ZM162.204 51.2502V67.0002H167.139L169.575 64.6062V59.6922L167.16 57.1512H164.115V53.1612H169.071V51.2502H162.204ZM164.115 59.0622H166.341L167.643 60.4482V63.8082L166.362 65.0892H164.115V59.0622ZM180.062 64.5432V53.4342L177.689 51.0612H174.686L172.313 53.4342V64.5432L174.665 67.0632H177.689L180.062 64.5432ZM178.151 63.8082L176.87 65.1732H175.484L174.203 63.8082V54.2112L175.463 52.9512H176.891L178.151 54.2112V63.8082ZM190.452 53.6652L188.016 51.2712H183.081V67.0002H184.992V61.8342H188.037L190.452 59.2932V53.6652ZM187.218 59.9232H184.992V53.1822H187.239L188.52 54.4632V58.5372L187.218 59.9232ZM193.295 67.0002H195.206V60.0702H198.755V67.0002H200.666V51.3132H198.755V58.2432H195.206V51.3132H193.295V67.0002ZM207.052 58.8102H207.01L205.666 54.8622L204.49 51.2502H202.411L206.023 61.4982L204.301 67.0002H206.317L211.441 51.2502H209.425L208.186 54.8412L207.052 58.8102ZM224.86 64.5432V53.4342L222.487 51.0612H219.652L217.279 53.4342V58.2432H215.2V51.3132H213.289V67.0002H215.2V60.0702H217.279V64.5432L219.631 67.0632H222.487L224.86 64.5432ZM222.949 63.8082L221.668 65.1732H220.45L219.169 63.8082V54.2112L220.429 52.9512H221.689L222.949 54.2112V63.8082ZM231.726 67.0002H233.637V60.0702H237.186V67.0002H239.097V51.3132H237.186V58.2432H233.637V51.3132H231.726V67.0002ZM243.341 51.2712L241.01 67.0002H242.942L243.551 62.9052H246.827L247.436 67.0002H249.368L247.037 51.2712H243.341ZM245.378 53.1822L246.554 60.9942H243.824L244.979 53.1822H245.378ZM255.227 67.0002H257.138V53.1192H260.687V67.0002H262.598V51.2922H255.227V67.0002ZM273.29 64.5432V53.4342L270.917 51.0612H267.914L265.541 53.4342V64.5432L267.893 67.0632H270.917L273.29 64.5432ZM271.379 63.8082L270.098 65.1732H268.712L267.431 63.8082V54.2112L268.691 52.9512H270.119L271.379 54.2112V63.8082ZM276.31 51.2502V67.0002H281.245L283.681 64.6062V59.6922L281.266 57.1512H278.221V53.1612H283.177V51.2502H276.31ZM278.221 59.0622H280.447L281.749 60.4482V63.8082L280.468 65.0892H278.221V59.0622ZM292.214 58.2642H288.413V53.1822H292.949V51.2712H286.502V67.0002H293.243V65.0892H288.413V60.1752H292.214V58.2642ZM294.906 68.5752H296.754V67.0002H303.39V68.5752H305.238V65.3202H303.894V51.2712H298.413L296.418 65.3202H294.906V68.5752ZM301.983 53.1402V65.3202H298.35L300.093 53.1402H301.983ZM316.768 67.0002H318.679V51.2502H316.768V67.0002ZM312.169 67.0002L314.605 64.6062V58.9782L312.19 56.4372H309.145V51.2712H307.234V67.0002H312.169ZM309.145 58.3482H311.371L312.673 59.7342V63.8082L311.392 65.0892H309.145V58.3482ZM323.521 63.7452V51.1872H321.589V63.7452H323.521ZM321.463 67.0842H323.584V65.1942H321.463V67.0842Z" fill="#D01319"/>
<g filter="url(#filter4_d)">
<path d="M59.5049 51.4371L66.0065 20L40 64.5629H55.0647H66.0065L73.7767 51.4371H59.5049Z" fill="#D01319"/>
<path d="M54.274 64.5629L47.7724 96L73.7788 51.4371L58.7141 51.4371L47.7724 51.4371L40.0021 64.5629L54.274 64.5629Z" fill="#D01319"/>
<path d="M55.2232 54.3539L66.4821 51.4371H59.5047L66.0063 20L55.2232 54.3539Z" fill="#95050A"/>
<path d="M58.8696 61.4839L47.6107 64.5628L54.2709 64.5628L47.7693 95.9999L58.8696 61.4839Z" fill="#95050A"/>
</g>
<defs>
<filter id="filter0_d" x="0" y="0" width="382" height="119" filterUnits="userSpaceOnUse" color-interpolation-filters="sRGB">
<feFlood flood-opacity="0" result="BackgroundImageFix"/>
<feColorMatrix in="SourceAlpha" type="matrix" values="0 0 0 0 0 0 0 0 0 0 0 0 0 0 0 0 0 0 127 0"/>
<feOffset/>
<feGaussianBlur stdDeviation="1"/>
<feColorMatrix type="matrix" values="0 0 0 0 1 0 0 0 0 1 0 0 0 0 1 0 0 0 1 0"/>
<feBlend mode="normal" in2="BackgroundImageFix" result="effect1_dropShadow"/>
<feBlend mode="normal" in="SourceGraphic" in2="effect1_dropShadow" result="shape"/>
</filter>
<filter id="filter1_d" x="7.99988" y="7" width="366" height="105" filterUnits="userSpaceOnUse" color-interpolation-filters="sRGB">
<feFlood flood-opacity="0" result="BackgroundImageFix"/>
<feColorMatrix in="SourceAlpha" type="matrix" values="0 0 0 0 0 0 0 0 0 0 0 0 0 0 0 0 0 0 127 0"/>
<feOffset/>
<feGaussianBlur stdDeviation="1"/>
<feColorMatrix type="matrix" values="0 0 0 0 1 0 0 0 0 1 0 0 0 0 1 0 0 0 1 0"/>
<feBlend mode="normal" in2="BackgroundImageFix" result="effect1_dropShadow"/>
<feBlend mode="normal" in="SourceGraphic" in2="effect1_dropShadow" result="shape"/>
</filter>
<filter id="filter2_d" x="15.9999" y="14" width="350" height="91" filterUnits="userSpaceOnUse" color-interpolation-filters="sRGB">
<feFlood flood-opacity="0" result="BackgroundImageFix"/>
<feColorMatrix in="SourceAlpha" type="matrix" values="0 0 0 0 0 0 0 0 0 0 0 0 0 0 0 0 0 0 127 0"/>
<feOffset/>
<feGaussianBlur stdDeviation="1"/>
<feColorMatrix type="matrix" values="0 0 0 0 1 0 0 0 0 1 0 0 0 0 1 0 0 0 1 0"/>
<feBlend mode="normal" in2="BackgroundImageFix" result="effect1_dropShadow"/>
<feBlend mode="normal" in="SourceGraphic" in2="effect1_dropShadow" result="shape"/>
</filter>
<filter id="filter3_d" x="24.9999" y="21" width="332" height="77" filterUnits="userSpaceOnUse" color-interpolation-filters="sRGB">
<feFlood flood-opacity="0" result="BackgroundImageFix"/>
<feColorMatrix in="SourceAlpha" type="matrix" values="0 0 0 0 0 0 0 0 0 0 0 0 0 0 0 0 0 0 127 0"/>
<feOffset/>
<feGaussianBlur stdDeviation="1"/>
<feColorMatrix type="matrix" values="0 0 0 0 1 0 0 0 0 1 0 0 0 0 1 0 0 0 1 0"/>
<feBlend mode="normal" in2="BackgroundImageFix" result="effect1_dropShadow"/>
<feBlend mode="normal" in="SourceGraphic" in2="effect1_dropShadow" result="shape"/>
</filter>
<filter id="filter4_d" x="35" y="19" width="43.7788" height="86" filterUnits="userSpaceOnUse" color-interpolation-filters="sRGB">
<feFlood flood-opacity="0" result="BackgroundImageFix"/>
<feColorMatrix in="SourceAlpha" type="matrix" values="0 0 0 0 0 0 0 0 0 0 0 0 0 0 0 0 0 0 127 0"/>
<feOffset dy="4"/>
<feGaussianBlur stdDeviation="2.5"/>
<feColorMatrix type="matrix" values="0 0 0 0 0.3 0 0 0 0 0.3 0 0 0 0 0.3 0 0 0 0.5 0"/>
<feBlend mode="normal" in2="BackgroundImageFix" result="effect1_dropShadow"/>
<feBlend mode="normal" in="SourceGraphic" in2="effect1_dropShadow" result="shape"/>
</filter>
</defs>
</svg>
