<svg width="402" height="119" viewBox="0 0 402 119" fill="none" xmlns="http://www.w3.org/2000/svg">
<g opacity="0.05" filter="url(#filter0_d)">
<rect x="2" y="2" width="398" height="115" rx="50" fill="#FEBD2C"/>
</g>
<g opacity="0.1" filter="url(#filter1_d)">
<rect x="10" y="9" width="382" height="101" rx="50" fill="#FEBD2C"/>
</g>
<g opacity="0.2" filter="url(#filter2_d)">
<rect x="19" y="16" width="364" height="87" rx="43.5" fill="#FEBD2C"/>
</g>
<g opacity="0.5" filter="url(#filter3_d)">
<rect x="28" y="23" width="346" height="73" rx="36.5" fill="#FEBD2C"/>
</g>
<rect x="37" y="29" width="328" height="61" rx="30.5" fill="#FEBD2C"/>
<path d="M75.1672 64.5432V53.4342L72.7942 51.0612H69.7912L67.4182 53.4342V64.5432L69.7702 67.0632H72.7942L75.1672 64.5432ZM73.2562 63.8082L71.9752 65.1732H70.5892L69.3082 63.8082V54.2112L70.5682 52.9512H71.9962L73.2562 54.2112V63.8082ZM83.7518 54.2742V55.8912H85.6628V53.5182L83.3738 51.1242H80.3918L78.1028 53.5182V64.5642L80.3708 67.1052H83.3738L85.6628 64.5642V62.0862L83.7518 62.1072V63.8502L82.5338 65.1942H81.2108L80.0138 63.8502V54.2742L81.1898 53.0352H82.5548L83.7518 54.2742ZM90.0138 52.9722V67.0002H91.9248V52.9722H94.7178V51.2502H87.2418V52.9722H90.0138ZM97.9644 51.2712L95.6334 67.0002H97.5654L98.1744 62.9052H101.45L102.059 67.0002H103.991L101.66 51.2712H97.9644ZM100.001 53.1822L101.177 60.9942H98.4474L99.6024 53.1822H100.001ZM106.057 51.2922V67.0002H111.097L113.449 64.6482V60.4482L111.874 58.8942L113.029 57.5082V53.6652L110.677 51.2922H106.057ZM109.984 58.0752H107.989V53.2452H109.879L111.097 54.4632V56.7522L109.984 58.0752ZM107.989 65.0682V60.0072H110.173L111.517 61.3302V63.8502L110.299 65.0682H107.989ZM121.264 67.0002L123.7 64.6062V58.9782L121.285 56.4372H118.24V51.2712H116.329V67.0002H121.264ZM118.24 58.3482H120.466L121.768 59.7342V63.8082L120.487 65.0892H118.24V58.3482ZM130.317 67.0002H132.228V53.1192H135.777V67.0002H137.688V51.2922H130.317V67.0002ZM148.38 64.5432V53.4342L146.007 51.0612H143.004L140.631 53.4342V64.5432L142.983 67.0632H146.007L148.38 64.5432ZM146.469 63.8082L145.188 65.1732H143.802L142.521 63.8082V54.2112L143.781 52.9512H145.209L146.469 54.2112V63.8082ZM158.855 57.6342H158.225V51.2502H156.314V57.6342H155.684L152.849 51.2502H150.749L154.025 58.6002L150.203 67.0002H152.303L155.684 59.5452H156.314V67.0002H158.225V59.5452H158.855L162.236 67.0002H164.336L160.514 58.6002L163.79 51.2502H161.69L158.855 57.6342ZM172.021 58.2642H168.22V53.1822H172.756V51.2712H166.309V67.0002H173.05V65.0892H168.22V60.1752H172.021V58.2642ZM177.778 51.2712L175.762 65.2362H174.544V67.0002H177.463L179.437 53.1402H181.327V67.0002H183.238V51.2712H177.778ZM187.46 51.2712L185.129 67.0002H187.061L187.67 62.9052H190.946L191.555 67.0002H193.487L191.156 51.2712H187.46ZM189.497 53.1822L190.673 60.9942H187.943L189.098 53.1822H189.497ZM195.574 67.0002H197.485V60.0702H201.034V67.0002H202.945V51.3132H201.034V58.2432H197.485V51.3132H195.574V67.0002ZM205.971 67.0002H208.008L210.465 59.2722L211.914 53.7912H211.977L211.662 59.4402V67.0002H213.573V51.3132H210.99L209.205 56.9412L207.651 63.4302H207.588L207.882 56.8362V51.3132H205.971V67.0002ZM222.306 58.2642H218.505V53.1822H223.041V51.2712H216.594V67.0002H223.335V65.0892H218.505V60.1752H222.306V58.2642ZM228.812 68.5752H230.66V67.0002H237.296V68.5752H239.144V65.3202H237.8V51.2712H232.319L230.324 65.3202H228.812V68.5752ZM235.889 53.1402V65.3202H232.256L233.999 53.1402H235.889ZM243.219 51.2712L241.203 65.2362H239.985V67.0002H242.904L244.878 53.1402H246.768V67.0002H248.679V51.2712H243.219ZM256.681 61.7082V67.0002H258.592V51.2712H253.972L251.557 53.7072V59.1462L253.258 60.9732L250.465 67.0002H252.565L255.022 61.7082H256.681ZM256.681 53.2032V59.7972H254.77L253.468 58.3902V54.4842L254.749 53.2032H256.681ZM270.988 54.2742V55.8912H272.899V53.5182L270.61 51.1242H267.628L265.339 53.5182V64.5642L267.607 67.1052H270.61L272.899 64.5642V62.0862L270.988 62.1072V63.8502L269.77 65.1942H268.447L267.25 63.8502V54.2742L268.426 53.0352H269.791L270.988 54.2742ZM275.759 51.2502V67.0002H280.694L283.13 64.6062V59.6922L280.715 57.1512H277.67V53.1612H282.626V51.2502H275.759ZM277.67 59.0622H279.896L281.198 60.4482V63.8082L279.917 65.0892H277.67V59.0622ZM293.616 64.5432V53.4342L291.243 51.0612H288.24L285.867 53.4342V64.5432L288.219 67.0632H291.243L293.616 64.5432ZM291.705 63.8082L290.424 65.1732H289.038L287.757 63.8082V54.2112L289.017 52.9512H290.445L291.705 54.2112V63.8082ZM304.007 53.6652L301.571 51.2712H296.636V67.0002H298.547V61.8342H301.592L304.007 59.2932V53.6652ZM300.773 59.9232H298.547V53.1822H300.794L302.075 54.4632V58.5372L300.773 59.9232ZM306.849 67.0002H308.76V60.0702H312.309V67.0002H314.22V51.3132H312.309V58.2432H308.76V51.3132H306.849V67.0002ZM324.911 64.5432V53.4342L322.538 51.0612H319.535L317.162 53.4342V64.5432L319.514 67.0632H322.538L324.911 64.5432ZM323 63.8082L321.719 65.1732H320.333L319.052 63.8082V54.2112L320.312 52.9512H321.74L323 54.2112V63.8082ZM329.191 48.8142L330.388 50.1162H332.992L334.168 48.8142L333.16 47.6592L332.32 48.3312H331.039L330.241 47.6592L329.191 48.8142ZM327.931 67.0002H329.968L332.425 59.2722L333.874 53.7912H333.937L333.622 59.4402V67.0002H335.533V51.3132H332.95L331.165 56.9412L329.611 63.4302H329.548L329.842 56.8362V51.3132H327.931V67.0002Z" fill="#D01319"/>
<g filter="url(#filter4_d)">
<path d="M43.5049 51.4371L50.0065 20L24 64.5629H39.0647H50.0065L57.7767 51.4371H43.5049Z" fill="#D01319"/>
<path d="M38.274 64.5629L31.7724 96L57.7788 51.4371L42.7141 51.4371L31.7724 51.4371L24.0021 64.5629L38.274 64.5629Z" fill="#D01319"/>
<path d="M39.2232 54.3539L50.4821 51.4371H43.5047L50.0063 20L39.2232 54.3539Z" fill="#95050A"/>
<path d="M42.8696 61.4839L31.6107 64.5628L38.2709 64.5628L31.7693 95.9999L42.8696 61.4839Z" fill="#95050A"/>
</g>
<defs>
<filter id="filter0_d" x="0" y="0" width="402" height="119" filterUnits="userSpaceOnUse" color-interpolation-filters="sRGB">
<feFlood flood-opacity="0" result="BackgroundImageFix"/>
<feColorMatrix in="SourceAlpha" type="matrix" values="0 0 0 0 0 0 0 0 0 0 0 0 0 0 0 0 0 0 127 0"/>
<feOffset/>
<feGaussianBlur stdDeviation="1"/>
<feColorMatrix type="matrix" values="0 0 0 0 1 0 0 0 0 1 0 0 0 0 1 0 0 0 1 0"/>
<feBlend mode="normal" in2="BackgroundImageFix" result="effect1_dropShadow"/>
<feBlend mode="normal" in="SourceGraphic" in2="effect1_dropShadow" result="shape"/>
</filter>
<filter id="filter1_d" x="8" y="7" width="386" height="105" filterUnits="userSpaceOnUse" color-interpolation-filters="sRGB">
<feFlood flood-opacity="0" result="BackgroundImageFix"/>
<feColorMatrix in="SourceAlpha" type="matrix" values="0 0 0 0 0 0 0 0 0 0 0 0 0 0 0 0 0 0 127 0"/>
<feOffset/>
<feGaussianBlur stdDeviation="1"/>
<feColorMatrix type="matrix" values="0 0 0 0 1 0 0 0 0 1 0 0 0 0 1 0 0 0 1 0"/>
<feBlend mode="normal" in2="BackgroundImageFix" result="effect1_dropShadow"/>
<feBlend mode="normal" in="SourceGraphic" in2="effect1_dropShadow" result="shape"/>
</filter>
<filter id="filter2_d" x="17" y="14" width="368" height="91" filterUnits="userSpaceOnUse" color-interpolation-filters="sRGB">
<feFlood flood-opacity="0" result="BackgroundImageFix"/>
<feColorMatrix in="SourceAlpha" type="matrix" values="0 0 0 0 0 0 0 0 0 0 0 0 0 0 0 0 0 0 127 0"/>
<feOffset/>
<feGaussianBlur stdDeviation="1"/>
<feColorMatrix type="matrix" values="0 0 0 0 1 0 0 0 0 1 0 0 0 0 1 0 0 0 1 0"/>
<feBlend mode="normal" in2="BackgroundImageFix" result="effect1_dropShadow"/>
<feBlend mode="normal" in="SourceGraphic" in2="effect1_dropShadow" result="shape"/>
</filter>
<filter id="filter3_d" x="26" y="21" width="350" height="77" filterUnits="userSpaceOnUse" color-interpolation-filters="sRGB">
<feFlood flood-opacity="0" result="BackgroundImageFix"/>
<feColorMatrix in="SourceAlpha" type="matrix" values="0 0 0 0 0 0 0 0 0 0 0 0 0 0 0 0 0 0 127 0"/>
<feOffset/>
<feGaussianBlur stdDeviation="1"/>
<feColorMatrix type="matrix" values="0 0 0 0 1 0 0 0 0 1 0 0 0 0 1 0 0 0 1 0"/>
<feBlend mode="normal" in2="BackgroundImageFix" result="effect1_dropShadow"/>
<feBlend mode="normal" in="SourceGraphic" in2="effect1_dropShadow" result="shape"/>
</filter>
<filter id="filter4_d" x="19" y="19" width="43.7788" height="86" filterUnits="userSpaceOnUse" color-interpolation-filters="sRGB">
<feFlood flood-opacity="0" result="BackgroundImageFix"/>
<feColorMatrix in="SourceAlpha" type="matrix" values="0 0 0 0 0 0 0 0 0 0 0 0 0 0 0 0 0 0 127 0"/>
<feOffset dy="4"/>
<feGaussianBlur stdDeviation="2.5"/>
<feColorMatrix type="matrix" values="0 0 0 0 0.3 0 0 0 0 0.3 0 0 0 0 0.3 0 0 0 0.5 0"/>
<feBlend mode="normal" in2="BackgroundImageFix" result="effect1_dropShadow"/>
<feBlend mode="normal" in="SourceGraphic" in2="effect1_dropShadow" result="shape"/>
</filter>
</defs>
</svg>
