<svg width="312" height="86" viewBox="0 0 312 86" fill="none" xmlns="http://www.w3.org/2000/svg">
<rect x="-0.00012207" y="10" width="312" height="61" rx="30.5" fill="#FEBD2C"/>
<path d="M53.6675 38.6132V40.5452H55.4525L56.7965 41.8682V44.8712L55.5995 46.1312H54.2765L53.1005 44.8712V42.7922H51.1895V45.6272L53.4575 48.0422H56.4395L58.7285 45.6272V40.9862L57.1535 39.4322L58.3085 38.0462V34.5812L56.1245 32.2082H53.4575L51.3155 34.5812V36.3032H53.2475V35.3792L54.2555 34.1612H55.3265L56.3765 35.3792V37.2902L55.2635 38.6132H53.6675ZM62.8793 32.2712L60.5483 48.0002H62.4803L63.0893 43.9052H66.3653L66.9743 48.0002H68.9063L66.5753 32.2712H62.8793ZM64.9163 34.1822L66.0923 41.9942H63.3623L64.5173 34.1822H64.9163ZM78.3428 34.6652L75.9068 32.2712H70.9718V48.0002H72.8828V42.8342H75.9278L78.3428 40.2932V34.6652ZM75.1088 40.9232H72.8828V34.1822H75.1298L76.4108 35.4632V39.5372L75.1088 40.9232ZM86.1622 42.7082V48.0002H88.0732V32.2712H83.4532L81.0382 34.7072V40.1462L82.7392 41.9732L79.9462 48.0002H82.0462L84.5032 42.7082H86.1622ZM86.1622 34.2032V40.7972H84.2512L82.9492 39.3902V35.4842L84.2302 34.2032H86.1622ZM90.019 49.5752H91.867V48.0002H98.503V49.5752H100.351V46.3202H99.007V32.2712H93.526L91.531 46.3202H90.019V49.5752ZM97.096 34.1402V46.3202H93.463L95.206 34.1402H97.096ZM102.431 48.0002H104.468L106.925 40.2722L108.374 34.7912H108.437L108.122 40.4402V48.0002H110.033V32.3132H107.45L105.665 37.9412L104.111 44.4302H104.048L104.342 37.8362V32.3132H102.431V48.0002ZM122.433 35.2742V36.8912H124.344V34.5182L122.055 32.1242H119.073L116.784 34.5182V45.5642L119.052 48.1052H122.055L124.344 45.5642V43.0862L122.433 43.1072V44.8502L121.215 46.1942H119.892L118.695 44.8502V35.2742L119.871 34.0352H121.236L122.433 35.2742ZM127.204 32.2502V48.0002H132.139L134.575 45.6062V40.6922L132.16 38.1512H129.115V34.1612H134.071V32.2502H127.204ZM129.115 40.0622H131.341L132.643 41.4482V44.8082L131.362 46.0892H129.115V40.0622ZM145.062 45.5432V34.4342L142.689 32.0612H139.686L137.313 34.4342V45.5432L139.665 48.0632H142.689L145.062 45.5432ZM143.151 44.8082L141.87 46.1732H140.484L139.203 44.8082V35.2112L140.463 33.9512H141.891L143.151 35.2112V44.8082ZM155.452 34.6652L153.016 32.2712H148.081V48.0002H149.992V42.8342H153.037L155.452 40.2932V34.6652ZM152.218 40.9232H149.992V34.1822H152.239L153.52 35.4632V39.5372L152.218 40.9232ZM158.295 48.0002H160.206V41.0702H163.755V48.0002H165.666V32.3132H163.755V39.2432H160.206V32.3132H158.295V48.0002ZM172.052 39.8102H172.01L170.666 35.8622L169.49 32.2502H167.411L171.023 42.4982L169.301 48.0002H171.317L176.441 32.2502H174.425L173.186 35.8412L172.052 39.8102ZM189.86 45.5432V34.4342L187.487 32.0612H184.652L182.279 34.4342V39.2432H180.2V32.3132H178.289V48.0002H180.2V41.0702H182.279V45.5432L184.631 48.0632H187.487L189.86 45.5432ZM187.949 44.8082L186.668 46.1732H185.45L184.169 44.8082V35.2112L185.429 33.9512H186.689L187.949 35.2112V44.8082ZM196.726 48.0002H198.637V41.0702H202.186V48.0002H204.097V32.3132H202.186V39.2432H198.637V32.3132H196.726V48.0002ZM208.341 32.2712L206.01 48.0002H207.942L208.551 43.9052H211.827L212.436 48.0002H214.368L212.037 32.2712H208.341ZM210.378 34.1822L211.554 41.9942H208.824L209.979 34.1822H210.378ZM220.227 48.0002H222.138V34.1192H225.687V48.0002H227.598V32.2922H220.227V48.0002ZM238.29 45.5432V34.4342L235.917 32.0612H232.914L230.541 34.4342V45.5432L232.893 48.0632H235.917L238.29 45.5432ZM236.379 44.8082L235.098 46.1732H233.712L232.431 44.8082V35.2112L233.691 33.9512H235.119L236.379 35.2112V44.8082ZM241.31 32.2502V48.0002H246.245L248.681 45.6062V40.6922L246.266 38.1512H243.221V34.1612H248.177V32.2502H241.31ZM243.221 40.0622H245.447L246.749 41.4482V44.8082L245.468 46.0892H243.221V40.0622ZM257.214 39.2642H253.413V34.1822H257.949V32.2712H251.502V48.0002H258.243V46.0892H253.413V41.1752H257.214V39.2642ZM259.906 49.5752H261.754V48.0002H268.39V49.5752H270.238V46.3202H268.894V32.2712H263.413L261.418 46.3202H259.906V49.5752ZM266.983 34.1402V46.3202H263.35L265.093 34.1402H266.983ZM281.768 48.0002H283.679V32.2502H281.768V48.0002ZM277.169 48.0002L279.605 45.6062V39.9782L277.19 37.4372H274.145V32.2712H272.234V48.0002H277.169ZM274.145 39.3482H276.371L277.673 40.7342V44.8082L276.392 46.0892H274.145V39.3482ZM288.521 44.7452V32.1872H286.589V44.7452H288.521ZM286.463 48.0842H288.584V46.1942H286.463V48.0842Z" fill="#D01319"/>
<g filter="url(#filter0_d)">
<path d="M24.5049 32.4371L31.0065 1L5 45.5629H20.0647H31.0065L38.7767 32.4371H24.5049Z" fill="#D01319"/>
<path d="M19.274 45.5629L12.7724 77L38.7788 32.4371L23.7141 32.4371L12.7724 32.4371L5.00214 45.5629L19.274 45.5629Z" fill="#D01319"/>
<path d="M20.2232 35.3539L31.4821 32.4371H24.5047L31.0063 1L20.2232 35.3539Z" fill="#95050A"/>
<path d="M23.8696 42.4839L12.6107 45.5628L19.2709 45.5628L12.7693 76.9999L23.8696 42.4839Z" fill="#95050A"/>
</g>
<defs>
<filter id="filter0_d" x="0" y="0" width="43.7788" height="86" filterUnits="userSpaceOnUse" color-interpolation-filters="sRGB">
<feFlood flood-opacity="0" result="BackgroundImageFix"/>
<feColorMatrix in="SourceAlpha" type="matrix" values="0 0 0 0 0 0 0 0 0 0 0 0 0 0 0 0 0 0 127 0"/>
<feOffset dy="4"/>
<feGaussianBlur stdDeviation="2.5"/>
<feColorMatrix type="matrix" values="0 0 0 0 0.3 0 0 0 0 0.3 0 0 0 0 0.3 0 0 0 0.5 0"/>
<feBlend mode="normal" in2="BackgroundImageFix" result="effect1_dropShadow"/>
<feBlend mode="normal" in="SourceGraphic" in2="effect1_dropShadow" result="shape"/>
</filter>
</defs>
</svg>
