<svg width="606" height="253" viewBox="0 0 606 253" fill="none" xmlns="http://www.w3.org/2000/svg">
<path d="M21.9995 20.4818L25.3899 23.8793L21.9995 27.2767H3.39034L0 23.8793L3.39034 20.4818H21.9995ZM21.9995 45.3963L25.3899 48.7937L21.9995 52.1912H5.42454L2.0342 48.7937L5.42454 45.3963H21.9995ZM29.3829 52.7952V69.7068L25.9926 73.1042L22.6022 69.7068V52.7952L25.9926 49.3977L29.3829 52.7952ZM29.3829 27.8807V44.7923L25.9926 48.1898L22.6022 44.7923V27.8807L25.9926 24.4833L29.3829 27.8807ZM21.9995 77.1057H3.39034L0 73.7082L3.39034 70.3108H21.9995L25.3899 73.7082L21.9995 77.1057Z" fill="#D01319"/>
<path d="M43.5823 20.4818H68.3694L61.5888 27.2767H43.5823L40.192 23.8793L43.5823 20.4818ZM43.5823 45.3963H61.5888L64.9791 48.7937L61.5888 52.1912H43.5823L40.192 48.7937L43.5823 45.3963ZM36.1989 52.7952L39.5892 49.3977L42.9796 52.7952V73.7082L39.5892 77.1057L36.1989 73.7082V52.7952ZM62.1915 27.8807L68.9722 21.0858V44.7923L65.5818 48.1898L62.1915 44.7923V27.8807ZM36.1989 27.8807L39.5892 24.4833L42.9796 27.8807V44.7923L39.5892 48.1898L36.1989 44.7923V27.8807ZM62.1915 52.7952L65.5818 49.3977L68.9722 52.7952V73.7082L65.5818 77.1057L62.1915 73.7082V52.7952Z" fill="#D01319"/>
<path d="M76.385 20.4818H101.775L105.165 23.8793L101.775 27.2767H83.1657L76.385 20.4818ZM83.1657 45.3963H101.775L105.165 48.7937L101.775 52.1912H83.1657L79.7753 48.7937L83.1657 45.3963ZM75.7823 52.7952L79.1726 49.3977L82.5629 52.7952V73.7082L79.1726 77.1057L75.7823 73.7082V52.7952ZM75.7823 21.0858L82.5629 27.8807V44.7923L79.1726 48.1898L75.7823 44.7923V21.0858ZM109.158 44.7923L105.768 48.1898L102.378 44.7923V27.8807L105.768 24.4833L109.158 27.8807V44.7923Z" fill="#D01319"/>
<path d="M141.344 52.1912H123.338L119.947 48.7937L123.338 45.3963H141.344L144.734 48.7937L141.344 52.1912ZM148.727 44.7923L145.337 48.1898L141.947 44.7923V27.8807L148.727 21.0858V44.7923ZM148.727 52.7952V73.7082L145.337 77.1057L141.947 73.7082V52.7952L145.337 49.3977L148.727 52.7952ZM122.735 44.7923L119.345 48.1898L115.954 44.7923V27.8807L119.345 24.4833L122.735 27.8807V44.7923ZM136.522 53.0972H141.043V57.6271L121.605 77.1057H117.084V72.5758L136.522 53.0972ZM148.125 20.4818L141.344 27.2767H123.338L119.947 23.8793L123.338 20.4818H148.125Z" fill="#D01319"/>
<path d="M171.887 27.2767L168.496 23.8793L171.811 20.4818H196.674L189.893 27.2767H171.887ZM190.496 45.3963V27.8807L197.276 21.0858V45.3963L193.886 48.7937L197.276 52.1912V69.7068L193.886 73.1042L190.496 69.7068V52.0402L193.886 48.7937L190.496 45.3963ZM164.503 45.3963V27.8807L167.893 24.4833L171.284 27.8807V45.3963L167.893 48.7937L171.284 52.1912V69.7068L167.893 73.1042L164.503 69.7068V52.1912L167.893 48.7937L164.503 45.3963ZM171.887 70.3108H189.893L193.283 73.7082L189.893 77.1057H171.811L168.496 73.7082L171.887 70.3108ZM155.538 73.7082L158.928 70.3108H163.9L167.291 73.7082L163.9 77.1057H158.928L155.538 73.7082ZM194.489 73.7082L197.879 70.3108H202.852L206.242 73.7082L202.852 77.1057H197.879L194.489 73.7082Z" fill="#D01319"/>
<path d="M238.992 73.7082V52.1912L242.383 48.7937L238.992 45.3963V23.8793L242.383 20.4818L245.773 23.8793V45.3963L242.383 48.7937L245.773 52.1912V73.7082L242.383 77.1057L238.992 73.7082ZM219.78 52.1912V73.7082L216.39 77.1057L213 73.7082V52.1912L216.39 48.7937L213 45.3963V23.8793L216.39 20.4818L219.78 23.8793V45.3963L216.39 48.7937L219.78 52.1912ZM238.088 52.1912V56.7211L225.205 73.7082H220.684V69.1783L233.568 52.1912H238.088Z" fill="#D01319"/>
<path d="M331.427 20.4818H349.336L352.708 23.8793L349.336 27.2767H331.427L328.054 23.8793L331.427 20.4818ZM324.083 27.8807L327.455 24.4833L330.827 27.8807V45.3963L327.455 48.7937L330.827 52.1912V69.7068L327.455 73.1042L324.083 69.7068V52.1912L327.455 48.7937L324.083 45.3963V27.8807ZM331.427 70.3108H349.336L352.708 73.7082L349.336 77.1057H331.427L328.054 73.7082L331.427 70.3108ZM353.307 59.5145L356.68 62.912V69.7068L353.307 73.1042L349.935 69.7068V62.912L353.307 59.5145ZM356.68 27.8807V34.6755L353.307 38.073L349.935 34.6755V27.8807L353.307 24.4833L356.68 27.8807Z" fill="#D01319"/>
<path d="M364.052 20.4818H392.677L396.05 23.8793L392.677 27.2767H370.797L364.052 20.4818ZM370.797 45.3963H388.706L392.078 48.7937L388.706 52.1912H370.797L367.424 48.7937L370.797 45.3963ZM363.453 52.7952L366.825 49.3977L370.197 52.7952V69.7068L363.453 76.5017V52.7952ZM370.797 70.3108H388.706L392.078 73.7082L388.706 77.1057H364.052L370.797 70.3108ZM363.453 21.0858L370.197 27.8807V44.7923L366.825 48.1898L363.453 44.7923V21.0858ZM389.305 52.7952L392.677 49.3977L396.05 52.7952V69.7068L392.677 73.1042L389.305 69.7068V52.7952Z" fill="#D01319"/>
<path d="M410.167 20.4818H428.076L431.448 23.8793L428.076 27.2767H410.167L406.794 23.8793L410.167 20.4818ZM410.167 70.3108H428.076L431.448 73.7082L428.076 77.1057H410.092L406.794 73.7082L410.167 70.3108ZM428.675 52.1912L432.047 48.7937L428.675 45.5473V27.8807L432.047 24.4833L435.419 27.8807V45.3963L432.047 48.7937L435.419 52.1912V69.7068L432.047 73.1042L428.675 69.7068V52.1912ZM402.823 52.1912L406.195 48.7937L402.823 45.3963V27.8807L406.195 24.4833L409.567 27.8807V45.3963L406.195 48.7937L409.567 52.1912V69.7068L406.195 73.1042L402.823 69.7068V52.1912Z" fill="#D01319"/>
<path d="M442.792 20.4818H468.045L471.417 23.8793L468.045 27.2767H449.536L442.792 20.4818ZM449.536 45.3963H468.045L471.417 48.7937L468.045 52.1912H449.536L446.164 48.7937L449.536 45.3963ZM442.193 52.7952L445.565 49.3977L448.937 52.7952V73.7082L445.565 77.1057L442.193 73.7082V52.7952ZM442.193 21.0858L448.937 27.8807V44.7923L445.565 48.1898L442.193 44.7923V21.0858ZM475.389 44.7923L472.017 48.1898L468.645 44.7923V27.8807L472.017 24.4833L475.389 27.8807V44.7923Z" fill="#D01319"/>
<path d="M489.492 45.3963H507.401L510.773 48.7937L507.401 52.1912H489.492L486.12 48.7937L489.492 45.3963ZM482.148 52.7952L485.52 49.3977L488.892 52.7952V73.7082L485.52 77.1057L482.148 73.7082V52.7952ZM482.148 44.7923V23.8793L485.52 20.4818L488.892 23.8793V44.7923L485.52 48.1898L482.148 44.7923ZM508.001 52.7952L511.373 49.3977L514.745 52.7952V73.7082L511.373 77.1057L508.001 73.7082V52.7952ZM508.001 44.7923V23.8793L511.373 20.4818L514.745 23.8793V44.7923L511.373 48.1898L508.001 44.7923Z" fill="#D01319"/>
<path d="M528.862 45.3963H546.771L550.143 48.7937L546.771 52.1912H528.862L525.49 48.7937L528.862 45.3963ZM546.771 77.1057H524.89L521.518 73.7082L524.89 70.3108H546.771L550.143 73.7082L546.771 77.1057ZM547.371 44.7923V23.8793L550.743 20.4818L554.115 23.8793V44.7923L550.743 48.1898L547.371 44.7923ZM521.518 44.7923V23.8793L524.89 20.4818L528.262 23.8793V44.7923L524.89 48.1898L521.518 44.7923ZM547.371 52.7952L550.743 49.3977L554.115 52.7952V69.7068L550.743 73.1042L547.371 69.7068V52.7952Z" fill="#D01319"/>
<path d="M568.232 45.3963H574.976L578.348 48.7937L574.976 52.1912H568.232L564.86 48.7937L568.232 45.3963ZM560.888 52.7952L564.26 49.3977L567.632 52.7952V73.7082L564.26 77.1057L560.888 73.7082V52.7952ZM560.888 44.7923V23.8793L564.26 20.4818L567.632 23.8793V44.7923L564.26 48.1898L560.888 44.7923ZM582.919 20.4818H598.655L602.027 23.8793L598.655 27.2767H582.919L579.547 23.8793L582.919 20.4818ZM582.919 70.3108H598.655L602.027 73.7082L598.655 77.1057H582.844L579.547 73.7082L582.919 70.3108ZM599.255 52.1912L602.627 48.7937L599.255 45.5473V27.8807L602.627 24.4833L605.999 27.8807V45.3963L602.627 48.7937L605.999 52.1912V69.7068L602.627 73.1042L599.255 69.7068V52.1912ZM575.575 27.8807L578.948 24.4833L582.32 27.8807V44.7923L578.948 48.1898L575.575 44.7923V27.8807ZM575.575 52.7952L578.948 49.3977L582.32 52.7952V69.7068L578.948 73.1042L575.575 69.7068V52.7952Z" fill="#D01319"/>
<path d="M288.382 40.5999L296.962 0L262.64 57.5514H282.522H296.962L307.217 40.5999H288.382Z" fill="#D01319"/>
<path d="M281.476 57.5514L272.896 98.1513L307.217 40.5999L287.336 40.5999L272.896 40.5999L262.641 57.5514L281.476 57.5514Z" fill="#D01319"/>
<path d="M282.731 44.3669L297.59 40.5999H288.382L296.962 3.33786e-06L282.731 44.3669Z" fill="#B1161B"/>
<path d="M287.543 53.575L272.684 57.5513L281.474 57.5513L272.893 98.1512L287.543 53.575Z" fill="#B1161B"/>
<path d="M12.6936 148.427H43.6503L49.479 154.21L43.6503 159.993H12.6936L6.86488 154.21L12.6936 148.427ZM0 161.021L5.82867 155.238L11.6573 161.021V196.617L5.82867 202.4L0 196.617V161.021ZM0 147.399V111.802L5.82867 106.019L11.6573 111.802V147.399L5.82867 153.182L0 147.399ZM44.6865 161.021L50.5152 155.238L56.3439 161.021V196.617L50.5152 202.4L44.6865 196.617V161.021ZM44.6865 147.399V111.802L50.5152 106.019L56.3439 111.802V147.399L50.5152 153.182L44.6865 147.399Z" fill="#0094FF"/>
<path d="M80.7454 106.019H123.359L111.702 117.585H80.7454L74.9167 111.802L80.7454 106.019ZM80.7454 148.427H111.702L117.531 154.21L111.702 159.993H80.7454L74.9167 154.21L80.7454 148.427ZM68.0518 161.021L73.8805 155.238L79.7092 161.021V196.617L73.8805 202.4L68.0518 196.617V161.021ZM112.738 118.613L124.396 107.047V147.399L118.567 153.182L112.738 147.399V118.613ZM68.0518 118.613L73.8805 112.83L79.7092 118.613V147.399L73.8805 153.182L68.0518 147.399V118.613ZM112.738 161.021L118.567 155.238L124.396 161.021V196.617L118.567 202.4L112.738 196.617V161.021Z" fill="#0094FF"/>
<path d="M170.28 106.019H225.588L213.931 117.585H181.938L170.28 106.019ZM169.244 107.047L180.901 118.613V148.427L175.073 154.21L180.901 159.993V196.617L175.073 202.4L169.244 196.617V159.993L175.073 154.21L169.244 148.427V107.047ZM214.967 118.613L226.624 107.047V148.427L220.795 154.21L226.624 159.993V196.617L220.795 202.4L214.967 196.617V159.993L220.795 154.21L214.967 148.427V118.613Z" fill="#0094FF"/>
<path d="M251.001 106.019H281.958L287.787 111.802L281.958 117.585H251.001L245.173 111.802L251.001 106.019ZM251.001 190.834H281.958L287.787 196.617L281.958 202.4H250.872L245.173 196.617L251.001 190.834ZM282.994 159.993L288.823 154.21L282.994 148.684V118.613L288.823 112.83L294.652 118.613V148.427L288.823 154.21L294.652 159.993V189.806L288.823 195.589L282.994 189.806V159.993ZM238.308 159.993L244.136 154.21L238.308 148.427V118.613L244.136 112.83L249.965 118.613V148.427L244.136 154.21L249.965 159.993V189.806L244.136 195.589L238.308 189.806V159.993Z" fill="#0094FF"/>
<path d="M307.396 106.019H356.875L362.703 111.802L356.875 117.585H319.053L307.396 106.019ZM319.053 148.427H350.01L355.839 154.21L350.01 159.993H319.053L313.224 154.21L319.053 148.427ZM306.36 161.021L312.188 155.238L318.017 161.021V189.806L306.36 201.372V161.021ZM319.053 190.834H350.01L355.839 196.617L350.01 202.4H307.396L319.053 190.834ZM306.36 107.047L318.017 118.613V147.399L312.188 153.182L306.36 147.399V107.047ZM351.046 161.021L356.875 155.238L362.703 161.021V189.806L356.875 195.589L351.046 189.806V161.021Z" fill="#0094FF"/>
<path d="M375.448 106.019H419.098L424.927 111.802L419.098 117.585H387.105L375.448 106.019ZM387.105 148.427H419.098L424.927 154.21L419.098 159.993H387.105L381.276 154.21L387.105 148.427ZM374.411 161.021L380.24 155.238L386.069 161.021V189.806L374.411 201.372V161.021ZM374.411 107.047L386.069 118.613V147.399L380.24 153.182L374.411 147.399V107.047ZM375.448 202.4L387.105 190.834H419.098L424.927 196.617L419.098 202.4H375.448Z" fill="#0094FF"/>
<path d="M460.451 117.585L454.622 111.802L460.322 106.019H503.065L491.408 117.585H460.451ZM492.444 148.427V118.613L504.101 107.047V148.427L498.273 154.21L504.101 159.993V189.806L498.273 195.589L492.444 189.806V159.736L498.273 154.21L492.444 148.427ZM447.758 148.427V118.613L453.586 112.83L459.415 118.613V148.427L453.586 154.21L459.415 159.993V189.806L453.586 195.589L447.758 189.806V159.993L453.586 154.21L447.758 148.427ZM460.451 190.834H491.408L497.237 196.617L491.408 202.4H460.322L454.622 196.617L460.451 190.834ZM432.344 196.617L438.173 190.834H446.721L452.55 196.617L446.721 202.4H438.173L432.344 196.617ZM499.309 196.617L505.138 190.834H513.686L519.515 196.617L513.686 202.4H505.138L499.309 196.617Z" fill="#0094FF"/>
<path d="M532.169 202.4L543.826 190.834H569.991L575.819 196.617L569.991 202.4H532.169ZM543.826 159.993L537.998 154.21L543.826 148.427H569.991L575.819 154.21L569.991 159.993H543.826ZM531.133 147.399V111.802L536.962 106.019L542.79 111.802V147.399L536.962 153.182L531.133 147.399ZM531.133 201.372V161.021L536.962 155.238L542.79 161.021V189.806L531.133 201.372ZM582.684 161.021V189.806L576.856 195.589L571.027 189.806V161.021L576.856 155.238L582.684 161.021ZM594.342 159.993L600.17 154.21L594.342 148.427V111.802L600.17 106.019L605.999 111.802V148.427L600.17 154.21L605.999 159.993V196.617L600.17 202.4L594.342 196.617V159.993Z" fill="#0094FF"/>
<path d="M13.4602 251.357V240.952L15.0586 239.31L13.4602 237.667V227.262L15.0586 225.619L16.657 227.262V237.667L15.0586 239.31L16.657 240.952V251.357L15.0586 253L13.4602 251.357ZM4.40256 240.952V251.357L2.80416 253L1.20575 251.357V240.952L2.80416 239.31L1.20575 237.667V227.262L2.80416 225.619L4.40256 227.262V237.667L2.80416 239.31L4.40256 240.952ZM13.034 240.952V243.143L6.96001 251.357H4.8288V249.167L10.9027 240.952H13.034Z" fill="#E30613"/>
<path d="M29.24 225.619H40.9262L42.5246 227.262L40.9262 228.905H32.4368L29.24 225.619ZM32.4368 237.667H40.9262L42.5246 239.31L40.9262 240.952H32.4368L30.8384 239.31L32.4368 237.667ZM28.9559 241.244L30.5543 239.602L32.1527 241.244V249.422L28.9559 252.708V241.244ZM32.4368 249.714H40.9262L42.5246 251.357L40.9262 253H29.24L32.4368 249.714ZM41.2103 229.197L42.8087 227.554L44.4071 229.197V237.375L42.8087 239.017L41.2103 237.375V229.197ZM28.9559 225.911L32.1527 229.197V237.375L30.5543 239.017L28.9559 237.375V225.911ZM41.2103 241.244L42.8087 239.602L44.4071 241.244V249.422L42.8087 251.065L41.2103 249.422V241.244Z" fill="#E30613"/>
<path d="M47.902 253L51.0988 249.714H58.2739L59.8723 251.357L58.2739 253H47.902ZM51.0988 240.952L49.5004 239.31L51.0988 237.667H58.2739L59.8723 239.31L58.2739 240.952H51.0988ZM47.6178 237.375V227.262L49.2162 225.619L50.8146 227.262V237.375L49.2162 239.017L47.6178 237.375ZM47.6178 252.708V241.244L49.2162 239.602L50.8146 241.244V249.422L47.6178 252.708ZM61.7548 241.244V249.422L60.1564 251.065L58.558 249.422V241.244L60.1564 239.602L61.7548 241.244ZM64.9516 240.952L66.5501 239.31L64.9516 237.667V227.262L66.5501 225.619L68.1485 227.262V237.667L66.5501 239.31L68.1485 240.952V251.357L66.5501 253L64.9516 251.357V240.952Z" fill="#E30613"/>
<path d="M83.5986 251.357V240.952L85.197 239.31L83.5986 237.667V227.262L85.197 225.619L86.7954 227.262V237.667L85.197 239.31L86.7954 240.952V251.357L85.197 253L83.5986 251.357ZM74.541 240.952V251.357L72.9426 253L71.3442 251.357V240.952L72.9426 239.31L71.3442 237.667V227.262L72.9426 225.619L74.541 227.262V237.667L72.9426 239.31L74.541 240.952ZM83.1724 240.952V243.143L77.0984 251.357H74.9672V249.167L81.0412 240.952H83.1724Z" fill="#E30613"/>
<path d="M90.2903 225.619H102.261L103.859 227.262L102.261 228.905H93.4871L90.2903 225.619ZM90.0061 225.911L93.2029 229.197V237.667L91.6045 239.31L93.2029 240.952V251.357L91.6045 253L90.0061 251.357V240.952L91.6045 239.31L90.0061 237.667V225.911Z" fill="#E30613"/>
<path d="M107.357 225.619H119.327L120.925 227.262L119.327 228.905H110.553L107.357 225.619ZM110.553 237.667H119.327L120.925 239.31L119.327 240.952H110.553L108.955 239.31L110.553 237.667ZM107.072 241.244L108.671 239.602L110.269 241.244V251.357L108.671 253L107.072 251.357V241.244ZM107.072 225.911L110.269 229.197V237.375L108.671 239.017L107.072 237.375V225.911ZM122.808 237.375L121.209 239.017L119.611 237.375V229.197L121.209 227.554L122.808 229.197V237.375Z" fill="#E30613"/>
<path d="M129.493 225.619H141.179L137.982 228.905H129.493L127.894 227.262L129.493 225.619ZM129.493 237.667H137.982L139.581 239.31L137.982 240.952H129.493L127.894 239.31L129.493 237.667ZM126.012 241.244L127.61 239.602L129.209 241.244V251.357L127.61 253L126.012 251.357V241.244ZM138.266 229.197L141.463 225.911V237.375L139.865 239.017L138.266 237.375V229.197ZM126.012 229.197L127.61 227.554L129.209 229.197V237.375L127.61 239.017L126.012 237.375V229.197ZM138.266 241.244L139.865 239.602L141.463 241.244V251.357L139.865 253L138.266 251.357V241.244Z" fill="#E30613"/>
<path d="M156.928 251.357V240.952L158.527 239.31L156.928 237.667V227.262L158.527 225.619L160.125 227.262V237.667L158.527 239.31L160.125 240.952V251.357L158.527 253L156.928 251.357ZM147.871 240.952V251.357L146.272 253L144.674 251.357V240.952L146.272 239.31L144.674 237.667V227.262L146.272 225.619L147.871 227.262V237.667L146.272 239.31L147.871 240.952ZM156.502 240.952V243.143L150.428 251.357H148.297V249.167L154.371 240.952H156.502Z" fill="#E30613"/>
<path d="M172.708 225.619H184.394L185.993 227.262L184.394 228.905H175.905L172.708 225.619ZM175.905 237.667H184.394L185.993 239.31L184.394 240.952H175.905L174.307 239.31L175.905 237.667ZM172.424 241.244L174.022 239.602L175.621 241.244V249.422L172.424 252.708V241.244ZM175.905 249.714H184.394L185.993 251.357L184.394 253H172.708L175.905 249.714ZM184.678 229.197L186.277 227.554L187.875 229.197V237.375L186.277 239.017L184.678 237.375V229.197ZM172.424 225.911L175.621 229.197V237.375L174.022 239.017L172.424 237.375V225.911ZM184.678 241.244L186.277 239.602L187.875 241.244V249.422L186.277 251.065L184.678 249.422V241.244Z" fill="#E30613"/>
<path d="M194.567 225.619H203.056L204.655 227.262L203.056 228.905H194.567L192.968 227.262L194.567 225.619ZM191.086 229.197L192.684 227.554L194.283 229.197V237.667L192.684 239.31L194.283 240.952V249.422L192.684 251.065L191.086 249.422V240.952L192.684 239.31L191.086 237.667V229.197ZM194.567 249.714H203.056L204.655 251.357L203.056 253H194.567L192.968 251.357L194.567 249.714ZM204.939 244.494L206.537 246.137V249.422L204.939 251.065L203.34 249.422V246.137L204.939 244.494ZM206.537 229.197V232.483L204.939 234.125L203.34 232.483V229.197L204.939 227.554L206.537 229.197Z" fill="#E30613"/>
<path d="M216.426 229.197L218.024 227.554L219.622 229.16V237.667L218.024 239.31L219.622 240.952V251.357L218.024 253L216.426 251.357V240.952L218.024 239.31L216.426 237.667V229.197ZM218.308 227.262L219.907 225.619H226.3L227.899 227.262L226.3 228.905H219.907L218.308 227.262ZM216.141 228.905H209.748L208.149 227.262L209.748 225.619H216.141L217.74 227.262L216.141 228.905Z" fill="#E30613"/>
<path d="M229.769 225.619H241.74L243.338 227.262L241.74 228.905H232.966L229.769 225.619ZM232.966 237.667H241.74L243.338 239.31L241.74 240.952H232.966L231.368 239.31L232.966 237.667ZM229.485 241.244L231.084 239.602L232.682 241.244V251.357L231.084 253L229.485 251.357V241.244ZM229.485 225.911L232.682 229.197V237.375L231.084 239.017L229.485 237.375V225.911ZM245.221 237.375L243.622 239.017L242.024 237.375V229.197L243.622 227.554L245.221 229.197V237.375Z" fill="#E30613"/>
<path d="M248.709 225.619H260.679L262.277 227.262L260.679 228.905H251.906L248.709 225.619ZM251.906 237.667H260.679L262.277 239.31L260.679 240.952H251.906L250.307 239.31L251.906 237.667ZM248.425 241.244L250.023 239.602L251.621 241.244V249.422L248.425 252.708V241.244ZM248.425 225.911L251.621 229.197V237.375L250.023 239.017L248.425 237.375V225.911ZM248.709 253L251.906 249.714H260.679L262.277 251.357L260.679 253H248.709Z" fill="#E30613"/>
<path d="M264.312 227.262L265.91 225.619L267.508 227.262V237.375L265.91 239.017L264.312 237.375V227.262ZM279.763 237.375L278.164 239.017L276.566 237.375V227.262L278.164 225.619L279.763 227.262V237.375ZM267.792 237.667H276.282L277.88 239.31L276.282 240.952H267.686L266.194 239.31L267.792 237.667ZM276.566 241.244L278.164 239.602L279.763 241.244V251.357L278.164 253L276.566 251.357V241.244Z" fill="#E30613"/>
<path d="M286.454 237.667H294.944L296.542 239.31L294.944 240.952H286.454L284.856 239.31L286.454 237.667ZM294.944 253H284.572L282.973 251.357L284.572 249.714H294.944L296.542 251.357L294.944 253ZM295.228 237.375V227.262L296.826 225.619L298.425 227.262V237.375L296.826 239.017L295.228 237.375ZM282.973 237.375V227.262L284.572 225.619L286.17 227.262V237.375L284.572 239.017L282.973 237.375ZM295.228 241.244L296.826 239.602L298.425 241.244V249.422L296.826 251.065L295.228 249.422V241.244Z" fill="#E30613"/>
<path d="M314.205 225.619H322.694L324.292 227.262L322.694 228.905H314.205L312.606 227.262L314.205 225.619ZM310.724 229.197L312.322 227.554L313.92 229.197V237.667L312.322 239.31L313.92 240.952V249.422L312.322 251.065L310.724 249.422V240.952L312.322 239.31L310.724 237.667V229.197ZM314.205 249.714H322.694L324.292 251.357L322.694 253H314.205L312.606 251.357L314.205 249.714ZM324.576 244.494L326.175 246.137V249.422L324.576 251.065L322.978 249.422V246.137L324.576 244.494ZM326.175 229.197V232.483L324.576 234.125L322.978 232.483V229.197L324.576 227.554L326.175 229.197Z" fill="#E30613"/>
<path d="M341.955 237.667H350.444L352.042 239.31L350.444 240.952H341.955L340.356 239.31L341.955 237.667ZM338.474 241.244L340.072 239.602L341.671 241.244V251.357L340.072 253L338.474 251.357V241.244ZM338.474 237.375V227.262L340.072 225.619L341.671 227.262V237.375L340.072 239.017L338.474 237.375ZM350.728 241.244L352.327 239.602L353.925 241.244V251.357L352.327 253L350.728 251.357V241.244ZM350.728 237.375V227.262L352.327 225.619L353.925 227.262V237.375L352.327 239.017L350.728 237.375Z" fill="#E30613"/>
<path d="M360.617 225.619H372.303L369.106 228.905H360.617L359.018 227.262L360.617 225.619ZM360.617 237.667H369.106L370.704 239.31L369.106 240.952H360.617L359.018 239.31L360.617 237.667ZM357.136 241.244L358.734 239.602L360.332 241.244V251.357L358.734 253L357.136 251.357V241.244ZM369.39 229.197L372.587 225.911V237.375L370.989 239.017L369.39 237.375V229.197ZM357.136 229.197L358.734 227.554L360.332 229.197V237.375L358.734 239.017L357.136 237.375V229.197ZM369.39 241.244L370.989 239.602L372.587 241.244V251.357L370.989 253L369.39 251.357V241.244Z" fill="#E30613"/>
<path d="M388.443 253L386.844 251.357L388.443 249.714H393.842L395.44 251.357L393.842 253H388.443ZM384.962 227.262L386.56 225.619L388.159 227.262V237.667L386.56 239.31L388.159 240.952V249.422L386.56 251.065L384.962 249.422V240.952L386.56 239.31L384.962 237.667V227.262ZM384.678 253H379.279L377.68 251.357L379.279 249.714H384.678L386.276 251.357L384.678 253ZM394.126 227.262L395.724 225.619L397.323 227.262V237.667L395.724 239.31L397.323 240.952V249.422L395.724 251.065L394.126 249.422V240.952L395.724 239.31L394.126 237.667V227.262ZM375.798 227.262L377.396 225.619L378.994 227.262V237.667L377.396 239.31L378.994 240.952V249.422L377.396 251.065L375.798 249.422V240.952L377.396 239.31L375.798 237.667V227.262Z" fill="#E30613"/>
<path d="M412.784 251.357V240.952L414.383 239.31L412.784 237.667V227.262L414.383 225.619L415.981 227.262V237.667L414.383 239.31L415.981 240.952V251.357L414.383 253L412.784 251.357ZM403.727 240.952V251.357L402.128 253L400.53 251.357V240.952L402.128 239.31L400.53 237.667V227.262L402.128 225.619L403.727 227.262V237.667L402.128 239.31L403.727 240.952ZM412.358 240.952V243.143L406.284 251.357H404.153V249.167L410.227 240.952H412.358Z" fill="#E30613"/>
<path d="M422.389 237.667L420.79 239.31L422.389 240.952V251.357L420.79 253L419.192 251.357V240.952L420.79 239.31L419.192 237.667V227.262L420.79 225.619L422.389 227.262V237.667ZM429.812 234.271V239.31L422.815 229.452V227.262H424.946L429.812 234.271ZM437.662 237.667V227.262L439.261 225.619L440.859 227.262V237.667L439.261 239.31L440.859 240.952V251.357L439.261 253L437.662 251.357V240.952L439.261 239.31L437.662 237.667ZM430.239 234.271L435.105 227.262H437.236V229.452L430.239 239.31V234.271Z" fill="#E30613"/>
<path d="M456.317 251.357V240.952L457.916 239.31L456.317 237.667V227.262L457.916 225.619L459.514 227.262V237.667L457.916 239.31L459.514 240.952V251.357L457.916 253L456.317 251.357ZM447.26 240.952V251.357L445.661 253L444.063 251.357V240.952L445.661 239.31L444.063 237.667V227.262L445.661 225.619L447.26 227.262V237.667L445.661 239.31L447.26 240.952ZM455.891 240.952V243.143L449.817 251.357H447.686V249.167L453.76 240.952H455.891Z" fill="#E30613"/>
<path d="M472.097 225.619H487.264L484.067 228.905H475.294L472.097 225.619ZM471.813 225.911L475.01 229.197V237.667L473.411 239.31L475.01 240.952V251.357L473.411 253L471.813 251.357V240.952L473.411 239.31L471.813 237.667V225.911ZM484.352 229.197L487.548 225.911V237.667L485.95 239.31L487.548 240.952V251.357L485.95 253L484.352 251.357V240.952L485.95 239.31L484.352 237.667V229.197Z" fill="#E30613"/>
<path d="M494.233 225.619H505.92L502.723 228.905H494.233L492.635 227.262L494.233 225.619ZM494.233 237.667H502.723L504.321 239.31L502.723 240.952H494.233L492.635 239.31L494.233 237.667ZM490.752 241.244L492.351 239.602L493.949 241.244V251.357L492.351 253L490.752 251.357V241.244ZM503.007 229.197L506.204 225.911V237.375L504.605 239.017L503.007 237.375V229.197ZM490.752 229.197L492.351 227.554L493.949 229.197V237.375L492.351 239.017L490.752 237.375V229.197ZM503.007 241.244L504.605 239.602L506.204 241.244V251.357L504.605 253L503.007 251.357V241.244Z" fill="#E30613"/>
<path d="M509.699 225.619H521.669L523.267 227.262L521.669 228.905H512.895L509.699 225.619ZM512.895 237.667H521.669L523.267 239.31L521.669 240.952H512.895L511.297 239.31L512.895 237.667ZM509.414 241.244L511.013 239.602L512.611 241.244V251.357L511.013 253L509.414 251.357V241.244ZM509.414 225.911L512.611 229.197V237.375L511.013 239.017L509.414 237.375V225.911ZM525.15 237.375L523.551 239.017L521.953 237.375V229.197L523.551 227.554L525.15 229.197V237.375Z" fill="#E30613"/>
<path d="M531.835 237.667H540.324L541.923 239.31L540.324 240.952H531.835L530.236 239.31L531.835 237.667ZM528.354 241.244L529.952 239.602L531.551 241.244V251.357L529.952 253L528.354 251.357V241.244ZM528.354 237.375V227.262L529.952 225.619L531.551 227.262V237.375L529.952 239.017L528.354 237.375ZM540.608 241.244L542.207 239.602L543.805 241.244V251.357L542.207 253L540.608 251.357V241.244ZM540.608 237.375V227.262L542.207 225.619L543.805 227.262V237.375L542.207 239.017L540.608 237.375Z" fill="#E30613"/>
<path d="M558.986 240.952H550.497L548.898 239.31L550.497 237.667H558.986L560.584 239.31L558.986 240.952ZM562.467 237.375L560.869 239.017L559.27 237.375V229.197L562.467 225.911V237.375ZM562.467 241.244V251.357L560.869 253L559.27 251.357V241.244L560.869 239.602L562.467 241.244ZM550.213 237.375L548.614 239.017L547.016 237.375V229.197L548.614 227.554L550.213 229.197V237.375ZM556.713 241.39H558.844V243.581L549.68 253H547.549V250.81L556.713 241.39ZM562.183 225.619L558.986 228.905H550.497L548.898 227.262L550.497 225.619H562.183Z" fill="#E30613"/>
<path d="M568.875 237.667L567.276 239.31L568.875 240.952V251.357L567.276 253L565.678 251.357V240.952L567.276 239.31L565.678 237.667V227.262L567.276 225.619L568.875 227.262V237.667ZM576.298 234.271V239.31L569.301 229.452V227.262H571.432L576.298 234.271ZM584.148 237.667V227.262L585.747 225.619L587.345 227.262V237.667L585.747 239.31L587.345 240.952V251.357L585.747 253L584.148 251.357V240.952L585.747 239.31L584.148 237.667ZM576.725 234.271L581.591 227.262H583.722V229.452L576.725 239.31V234.271Z" fill="#E30613"/>
<path d="M602.803 251.357V240.952L604.402 239.31L602.803 237.667V227.262L604.402 225.619L606 227.262V237.667L604.402 239.31L606 240.952V251.357L604.402 253L602.803 251.357ZM593.746 240.952V251.357L592.147 253L590.549 251.357V240.952L592.147 239.31L590.549 237.667V227.262L592.147 225.619L593.746 227.262V237.667L592.147 239.31L593.746 240.952ZM602.377 240.952V243.143L596.303 251.357H594.172V249.167L600.246 240.952H602.377Z" fill="#E30613"/>
<path d="M152.09 225.619V223.343L150.538 221.717H148.297V223.957L149.883 225.619H152.09Z" fill="#E30613"/>
<path d="M156.262 223.993V221.717H154.056L152.504 223.343V225.619H154.711L156.262 223.993Z" fill="#E30613"/>
</svg>
