<svg width="78" height="941" viewBox="0 0 78 941" fill="none" xmlns="http://www.w3.org/2000/svg">
<g opacity="0.6" filter="url(#filter0_f)">
<path d="M66.7542 891.411L71.8387 881.404L58.8416 894.038L64.0363 895.43L67.8094 896.441L71.6756 892.73L66.7542 891.411Z" fill="#D01319"/>
<path d="M63.7641 895.356L58.6797 905.364L71.6768 892.729L66.482 891.337L62.709 890.326L58.8427 894.038L63.7641 895.356Z" fill="#D01319"/>
<path d="M65.015 891.999L69.1611 892.055L66.7551 891.411L71.8396 881.403L65.015 891.999Z" fill="#B1161B"/>
<path d="M65.628 894.742L61.4672 894.741L63.7639 895.356L58.6794 905.364L65.628 894.742Z" fill="#B1161B"/>
</g>
<path d="M23.8096 895.116L12.7897 867.096L14.9885 915.666L27.0313 907.725L35.7781 901.957L35.2185 887.593L23.8096 895.116Z" fill="#0094FF"/>
<path d="M26.3973 908.143L37.4172 936.163L35.2184 887.593L23.1757 895.534L14.4288 901.302L14.9884 915.666L26.3973 908.143Z" fill="#0094FF"/>
<path d="M21.8915 899.655L29.3872 891.438L23.8095 895.116L12.7896 867.096L21.8915 899.655Z" fill="#0878CA"/>
<path d="M28.4854 903.31L21.0733 911.654L26.3974 908.143L37.4173 936.163L28.4854 903.31Z" fill="#0878CA"/>
<g filter="url(#filter1_f)">
<path d="M44.0659 631.826L51.8958 617.966L32.691 635.053L39.9637 637.35L45.2461 639.018L50.9559 634.002L44.0659 631.826Z" fill="#008EF5"/>
<path d="M39.58 637.229L31.7502 651.089L50.955 634.002L43.6822 631.705L38.3999 630.037L32.69 635.053L39.58 637.229Z" fill="#008EF5"/>
<path d="M41.5632 632.551L47.4339 632.89L44.0655 631.826L51.8953 617.966L41.5632 632.551Z" fill="#005593"/>
<path d="M42.2598 636.476L36.3649 636.214L39.5802 637.229L31.7504 651.09L42.2598 636.476Z" fill="#005593"/>
</g>
<path d="M10.6848 549.858L-5.22827 514.647L0.690419 576.76L15.619 565.813L26.4619 557.861L24.8277 539.486L10.6848 549.858Z" fill="#D01319"/>
<path d="M14.8332 566.389L30.7463 601.6L24.8276 539.486L9.89897 550.434L-0.943906 558.385L0.690278 576.76L14.8332 566.389Z" fill="#D01319"/>
<path d="M8.51618 555.797L17.5991 544.787L10.6848 549.857L-5.22833 514.647L8.51618 555.797Z" fill="#B1161B"/>
<path d="M17.2004 560.061L8.23272 571.228L14.8327 566.388L30.7458 601.599L17.2004 560.061Z" fill="#B1161B"/>
<path d="M14.2739 319.585L26.4714 290.978L-7.11131 328.316L7.50672 331.199L18.124 333.294L28.1226 322.317L14.2739 319.585Z" fill="white"/>
<path d="M6.73861 331.047L-5.45893 359.654L28.1238 322.317L13.5058 319.433L2.88846 317.339L-7.11006 328.315L6.73861 331.047Z" fill="white"/>
<path d="M9.57297 321.536L21.0444 320.921L14.2739 319.585L26.4715 290.978L9.57297 321.536Z" fill="#EEEEEE"/>
<path d="M11.7769 329.004L0.275077 329.773L6.73779 331.048L-5.45976 359.655L11.7769 329.004Z" fill="#EEEEEE"/>
<path d="M8.3155 211.79L-4.95564 181.744L-0.375476 234.586L12.3939 225.388L21.6685 218.708L20.4128 203.077L8.3155 211.79Z" fill="#0094FF"/>
<path d="M11.7217 225.873L24.9928 255.919L20.4127 203.077L7.64327 212.275L-1.63134 218.955L-0.375625 234.586L11.7217 225.873Z" fill="#0094FF"/>
<path d="M6.4291 216.824L14.2299 207.53L8.31563 211.79L-4.95551 181.744L6.4291 216.824Z" fill="#0878CA"/>
<path d="M13.7803 220.511L6.0763 229.939L11.7217 225.872L24.9928 255.918L13.7803 220.511Z" fill="#0878CA"/>
<path d="M16.6668 36.6385L-2.00972 6.41392L10.7361 62.3527L23.0538 50.6038L32.0003 42.0704L28.3362 25.5079L16.6668 36.6385Z" fill="#D01319"/>
<path d="M22.4053 51.2229L41.0818 81.4475L28.3359 25.5087L16.0182 37.2577L7.07171 45.7911L10.7359 62.3535L22.4053 51.2229Z" fill="#D01319"/>
<path d="M15.3916 42.3118L22.3714 31.1972L16.6663 36.6388L-2.01016 6.41421L15.3916 42.3118Z" fill="#B1161B"/>
<path d="M23.815 45.1726L16.9589 56.4169L22.4046 51.2226L41.0811 81.4472L23.815 45.1726Z" fill="#B1161B"/>
<defs>
<filter id="filter0_f" x="53.0002" y="876.001" width="24.5179" height="34.7661" filterUnits="userSpaceOnUse" color-interpolation-filters="sRGB">
<feFlood flood-opacity="0" result="BackgroundImageFix"/>
<feBlend mode="normal" in="SourceGraphic" in2="BackgroundImageFix" result="shape"/>
<feGaussianBlur stdDeviation="1.5" result="effect1_foregroundBlur"/>
</filter>
<filter id="filter1_f" x="21.9989" y="608" width="39.648" height="53.0551" filterUnits="userSpaceOnUse" color-interpolation-filters="sRGB">
<feFlood flood-opacity="0" result="BackgroundImageFix"/>
<feBlend mode="normal" in="SourceGraphic" in2="BackgroundImageFix" result="shape"/>
<feGaussianBlur stdDeviation="3" result="effect1_foregroundBlur"/>
</filter>
</defs>
</svg>
