<svg width="375" height="952" viewBox="0 0 375 952" fill="none" xmlns="http://www.w3.org/2000/svg">
<g opacity="0.6" filter="url(#filter0_f)">
<path d="M66.7542 891.411L71.8387 881.404L58.8416 894.038L64.0363 895.43L67.8094 896.441L71.6756 892.73L66.7542 891.411Z" fill="#D01319"/>
<path d="M63.7641 895.356L58.6797 905.364L71.6768 892.729L66.482 891.337L62.709 890.326L58.8427 894.038L63.7641 895.356Z" fill="#D01319"/>
<path d="M65.015 891.999L69.1611 892.055L66.7551 891.411L71.8396 881.403L65.015 891.999Z" fill="#B1161B"/>
<path d="M65.628 894.742L61.4672 894.741L63.7639 895.356L58.6794 905.364L65.628 894.742Z" fill="#B1161B"/>
</g>
<path d="M8.3155 211.79L-4.95564 181.744L-0.375476 234.586L12.3939 225.388L21.6685 218.708L20.4128 203.077L8.3155 211.79Z" fill="#0094FF"/>
<path d="M11.7217 225.873L24.9928 255.919L20.4127 203.077L7.64327 212.275L-1.63134 218.955L-0.375625 234.586L11.7217 225.873Z" fill="#0094FF"/>
<path d="M6.4291 216.824L14.2299 207.53L8.31563 211.79L-4.95551 181.744L6.4291 216.824Z" fill="#0878CA"/>
<path d="M13.7803 220.511L6.0763 229.939L11.7217 225.872L24.9928 255.918L13.7803 220.511Z" fill="#0878CA"/>
<g filter="url(#filter1_f)">
<path opacity="0.6" d="M331.822 199.099L338.966 189.067L322.809 200.663L328.219 203.018L332.149 204.728L336.947 201.33L331.822 199.099Z" fill="#D01319"/>
<path opacity="0.6" d="M327.935 202.893L320.791 212.926L336.949 201.329L331.538 198.974L327.608 197.264L322.81 200.662L327.935 202.893Z" fill="#D01319"/>
<path d="M329.839 199.454L334.328 200.189L331.823 199.098L338.967 189.066L329.839 199.454Z" fill="#B4B4B4"/>
<path d="M330.058 202.53L325.543 201.852L327.935 202.893L320.791 212.926L330.058 202.53Z" fill="#B4B4B4"/>
</g>
<path d="M350.456 65.6185L360.84 43.6454L333.494 71.7938L344.823 74.4846L353.051 76.439L361.189 68.1677L350.456 65.6185Z" fill="#008CF2"/>
<path d="M344.227 74.3427L333.842 96.3157L361.188 68.1673L349.86 65.4765L341.632 63.5222L333.494 71.7935L344.227 74.3427Z" fill="#008CF2"/>
<path d="M346.727 66.9999L355.703 66.8644L350.456 65.6181L360.84 43.645L346.727 66.9999Z" fill="#0878CA"/>
<path d="M348.223 72.8985L339.219 73.1532L344.227 74.3428L333.843 96.3159L348.223 72.8985Z" fill="#0878CA"/>
<path d="M275.335 49.4283L269.957 35.9876L271.152 59.334L276.92 55.4814L281.109 52.6832L280.799 45.7785L275.335 49.4283Z" fill="white"/>
<path d="M276.617 55.6843L281.995 69.125L280.799 45.7786L275.032 49.6312L270.843 52.4294L271.153 59.3341L276.617 55.6843Z" fill="white"/>
<path d="M274.426 51.6159L278.007 47.6438L275.335 49.4281L269.957 35.9875L274.426 51.6159Z" fill="#EEEEEE"/>
<path d="M277.607 53.3543L274.067 57.3872L276.617 55.6839L281.995 69.1246L277.607 53.3543Z" fill="#EEEEEE"/>
<path d="M16.6668 36.6385L-2.00972 6.41392L10.7361 62.3527L23.0538 50.6038L32.0003 42.0704L28.3362 25.5079L16.6668 36.6385Z" fill="#D01319"/>
<path d="M22.4053 51.2229L41.0818 81.4475L28.3359 25.5087L16.0182 37.2577L7.07171 45.7911L10.7359 62.3535L22.4053 51.2229Z" fill="#D01319"/>
<path d="M15.3916 42.3118L22.3714 31.1972L16.6663 36.6388L-2.01016 6.41421L15.3916 42.3118Z" fill="#B1161B"/>
<path d="M23.815 45.1726L16.9589 56.4169L22.4046 51.2226L41.0811 81.4472L23.815 45.1726Z" fill="#B1161B"/>
<path d="M10.6848 549.858L-5.22827 514.647L0.690419 576.76L15.619 565.813L26.4619 557.861L24.8277 539.486L10.6848 549.858Z" fill="#D01319"/>
<path d="M14.8332 566.389L30.7463 601.6L24.8276 539.486L9.89897 550.434L-0.943906 558.385L0.690278 576.76L14.8332 566.389Z" fill="#D01319"/>
<path d="M8.51618 555.797L17.5991 544.787L10.6848 549.857L-5.22833 514.647L8.51618 555.797Z" fill="#B1161B"/>
<path d="M17.2004 560.061L8.23272 571.228L14.8327 566.388L30.7458 601.599L17.2004 560.061Z" fill="#B1161B"/>
<path d="M353.115 901.496L366.446 869.278L329.244 911.541L345.668 914.598L357.596 916.819L368.674 904.393L353.115 901.496Z" fill="#D01319"/>
<path d="M344.803 914.437L331.472 946.655L368.673 904.392L352.25 901.335L340.321 899.115L329.244 911.541L344.803 914.437Z" fill="#D01319"/>
<path d="M347.868 903.739L360.721 902.912L353.115 901.496L366.446 869.278L347.868 903.739Z" fill="#B1161B"/>
<path d="M350.429 912.086L337.543 913.085L344.804 914.437L331.473 946.655L350.429 912.086Z" fill="#B1161B"/>
<path d="M366.289 737.031L359.792 722.322L362.034 748.191L368.285 743.688L372.826 740.418L372.211 732.765L366.289 737.031Z" fill="#0094FF"/>
<path d="M367.956 743.925L374.453 758.635L372.211 732.766L365.96 737.268L361.419 740.539L362.034 748.191L367.956 743.925Z" fill="#0094FF"/>
<path d="M365.365 739.495L369.184 734.946L366.289 737.031L359.792 722.322L365.365 739.495Z" fill="#0878CA"/>
<path d="M368.964 741.3L365.192 745.916L367.956 743.925L374.453 758.634L368.964 741.3Z" fill="#0878CA"/>
<path d="M368.964 222.221L391.95 185.284L337.531 229.713L357.123 236.829L371.352 241.997L387.524 228.962L368.964 222.221Z" fill="white"/>
<path d="M356.091 236.454L333.105 273.391L387.524 228.962L367.933 221.847L353.703 216.679L337.531 229.713L356.091 236.454Z" fill="white"/>
<path d="M362.048 223.911L378.038 225.517L368.964 222.222L391.95 185.284L362.048 223.911Z" fill="#EEEEEE"/>
<path d="M363.496 234.708L347.43 233.309L356.092 236.455L333.106 273.392L363.496 234.708Z" fill="#EEEEEE"/>
<path d="M14.2739 319.585L26.4714 290.978L-7.11131 328.316L7.50672 331.199L18.124 333.294L28.1226 322.317L14.2739 319.585Z" fill="white"/>
<path d="M6.73861 331.047L-5.45893 359.654L28.1238 322.317L13.5058 319.433L2.88846 317.339L-7.11006 328.315L6.73861 331.047Z" fill="white"/>
<path d="M9.57297 321.536L21.0444 320.921L14.2739 319.585L26.4715 290.978L9.57297 321.536Z" fill="#EEEEEE"/>
<path d="M11.7769 329.004L0.275077 329.773L6.73779 331.048L-5.45976 359.655L11.7769 329.004Z" fill="#EEEEEE"/>
<g filter="url(#filter2_f)">
<path d="M353.813 363.521L339.446 333.983L345.966 386.621L358.388 376.96L367.411 369.943L365.581 354.368L353.813 363.521Z" fill="#008EF5"/>
<path d="M357.734 377.469L372.101 407.006L365.581 354.369L353.159 364.03L344.136 371.046L345.966 386.621L357.734 377.469Z" fill="#008EF5"/>
<path d="M352.113 368.62L359.566 359.046L353.813 363.521L339.446 333.983L352.113 368.62Z" fill="#005593"/>
<path d="M359.594 372.034L352.242 381.739L357.734 377.468L372.101 407.006L359.594 372.034Z" fill="#005593"/>
</g>
<g filter="url(#filter3_f)">
<path d="M44.0659 631.826L51.8958 617.966L32.691 635.053L39.9637 637.35L45.2461 639.018L50.9559 634.002L44.0659 631.826Z" fill="#008EF5"/>
<path d="M39.58 637.229L31.7502 651.089L50.955 634.002L43.6822 631.705L38.3999 630.037L32.69 635.053L39.58 637.229Z" fill="#008EF5"/>
<path d="M41.5632 632.551L47.4339 632.89L44.0655 631.826L51.8953 617.966L41.5632 632.551Z" fill="#005593"/>
<path d="M42.2598 636.476L36.3649 636.214L39.5802 637.229L31.7504 651.09L42.2598 636.476Z" fill="#005593"/>
</g>
<g filter="url(#filter4_f)">
<path d="M351.167 575.725L359.833 559.184L337.95 579.931L346.562 582.354L352.818 584.115L359.326 578.022L351.167 575.725Z" fill="white"/>
<path d="M346.108 582.227L337.442 598.768L359.325 578.022L350.713 575.598L344.458 573.838L337.949 579.931L346.108 582.227Z" fill="white"/>
<path d="M348.26 576.669L355.156 576.848L351.167 575.726L359.834 559.184L348.26 576.669Z" fill="#EEEEEE"/>
<path d="M349.223 581.244L342.301 581.155L346.109 582.227L337.443 598.768L349.223 581.244Z" fill="#EEEEEE"/>
</g>
<path d="M23.8096 895.116L12.7897 867.096L14.9885 915.666L27.0313 907.725L35.7781 901.957L35.2185 887.593L23.8096 895.116Z" fill="#0094FF"/>
<path d="M26.3973 908.143L37.4172 936.163L35.2184 887.593L23.1757 895.534L14.4288 901.302L14.9884 915.666L26.3973 908.143Z" fill="#0094FF"/>
<path d="M21.8915 899.655L29.3872 891.438L23.8095 895.116L12.7896 867.096L21.8915 899.655Z" fill="#0878CA"/>
<path d="M28.4854 903.31L21.0733 911.654L26.3974 908.143L37.4173 936.163L28.4854 903.31Z" fill="#0878CA"/>
<defs>
<filter id="filter0_f" x="55.6794" y="878.403" width="19.1602" height="29.9611" filterUnits="userSpaceOnUse" color-interpolation-filters="sRGB">
<feFlood flood-opacity="0" result="BackgroundImageFix"/>
<feBlend mode="normal" in="SourceGraphic" in2="BackgroundImageFix" result="shape"/>
<feGaussianBlur stdDeviation="1.5" result="effect1_foregroundBlur"/>
</filter>
<filter id="filter1_f" x="315.791" y="184.066" width="28.1756" height="33.8596" filterUnits="userSpaceOnUse" color-interpolation-filters="sRGB">
<feFlood flood-opacity="0" result="BackgroundImageFix"/>
<feBlend mode="normal" in="SourceGraphic" in2="BackgroundImageFix" result="shape"/>
<feGaussianBlur stdDeviation="2.5" result="effect1_foregroundBlur"/>
</filter>
<filter id="filter2_f" x="312" y="323" width="75.2545" height="90.1072" filterUnits="userSpaceOnUse" color-interpolation-filters="sRGB">
<feFlood flood-opacity="0" result="BackgroundImageFix"/>
<feBlend mode="normal" in="SourceGraphic" in2="BackgroundImageFix" result="shape"/>
<feGaussianBlur stdDeviation="3" result="effect1_foregroundBlur"/>
</filter>
<filter id="filter3_f" x="25.7501" y="611.966" width="32.1456" height="45.124" filterUnits="userSpaceOnUse" color-interpolation-filters="sRGB">
<feFlood flood-opacity="0" result="BackgroundImageFix"/>
<feBlend mode="normal" in="SourceGraphic" in2="BackgroundImageFix" result="shape"/>
<feGaussianBlur stdDeviation="3" result="effect1_foregroundBlur"/>
</filter>
<filter id="filter4_f" x="328" y="550" width="41.2761" height="57.9522" filterUnits="userSpaceOnUse" color-interpolation-filters="sRGB">
<feFlood flood-opacity="0" result="BackgroundImageFix"/>
<feBlend mode="normal" in="SourceGraphic" in2="BackgroundImageFix" result="shape"/>
<feGaussianBlur stdDeviation="2.5" result="effect1_foregroundBlur"/>
</filter>
</defs>
</svg>
