<svg width="321" height="879" viewBox="0 0 321 879" fill="none" xmlns="http://www.w3.org/2000/svg">
<path d="M122.788 98.1601L94.4503 11.2902L92.3636 158.827L130.277 136.938L157.814 121.039L158.706 77.4229L122.788 98.1601Z" fill="#D01319"/>
<path d="M128.282 138.09L156.619 224.96L158.706 77.4231L120.793 99.3124L93.2555 115.211L92.3637 158.827L128.282 138.09Z" fill="#D01319"/>
<path d="M116.16 111.565L140.348 88.0218L122.788 98.16L94.4505 11.2902L116.16 111.565Z" fill="#B1161B"/>
<path d="M135.477 123.825L111.52 147.767L128.281 138.09L156.619 224.959L135.477 123.825Z" fill="#B1161B"/>
<path d="M173.425 787.882L197.359 730.039L130.57 805.915L160.055 811.404L181.47 815.39L201.358 793.081L173.425 787.882Z" fill="#0094FF"/>
<path d="M158.503 811.115L134.569 868.958L201.358 793.081L171.873 787.593L150.458 783.606L130.57 805.915L158.503 811.115Z" fill="#0094FF"/>
<path d="M164.006 791.908L187.082 790.423L173.426 787.881L197.359 730.038L164.006 791.908Z" fill="#0878CA"/>
<path d="M168.602 806.893L145.468 808.688L158.503 811.115L134.57 868.957L168.602 806.893Z" fill="#0878CA"/>
<path d="M35.3154 469.79L22.0443 439.744L26.6245 492.586L39.3939 483.388L48.6685 476.708L47.4127 461.076L35.3154 469.79Z" fill="#0094FF"/>
<path d="M38.7216 483.873L51.9928 513.919L47.4126 461.077L34.6432 470.274L25.3686 476.955L26.6243 492.586L38.7216 483.873Z" fill="#0094FF"/>
<path d="M33.4291 474.823L41.2299 465.53L35.3156 469.79L22.0445 439.744L33.4291 474.823Z" fill="#0878CA"/>
<path d="M40.7803 478.511L33.0763 487.938L38.7217 483.872L51.9928 513.918L40.7803 478.511Z" fill="#0878CA"/>
<path d="M72.3368 679.285L62.1504 648.058L61.4003 701.093L75.0288 693.225L84.9275 687.51L85.248 671.831L72.3368 679.285Z" fill="white"/>
<path d="M74.3113 693.639L84.4977 724.866L85.2478 671.831L71.6193 679.7L61.7206 685.415L61.4001 701.093L74.3113 693.639Z" fill="white"/>
<path d="M69.9544 684.104L78.6491 675.641L72.3369 679.285L62.1505 648.058L69.9544 684.104Z" fill="#EDEDED"/>
<path d="M76.898 688.511L68.2862 697.117L74.3114 693.639L84.4978 724.865L76.898 688.511Z" fill="#EDEDED"/>
<path d="M287.042 326.392L306.713 300.088L262.914 330.002L277.193 336.617L287.564 341.422L300.569 332.659L287.042 326.392Z" fill="white"/>
<path d="M276.441 336.269L256.769 362.573L300.569 332.659L286.29 326.044L275.919 321.239L262.913 330.002L276.441 336.269Z" fill="white"/>
<path d="M281.73 327.217L293.655 329.456L287.042 326.392L306.713 300.088L281.73 327.217Z" fill="#F1F1F1"/>
<path d="M282.123 335.432L270.129 333.344L276.441 336.269L256.77 362.573L282.123 335.432Z" fill="#F1F1F1"/>
<g opacity="0.6" filter="url(#filter0_f)">
<path d="M258.7 158.959L252.426 143.019L253.684 170.652L260.534 166.132L265.51 162.849L265.189 154.677L258.7 158.959Z" fill="#0094FF"/>
<path d="M260.174 166.37L266.447 182.31L265.189 154.677L258.339 159.197L253.363 162.48L253.684 170.652L260.174 166.37Z" fill="#0094FF"/>
<path d="M257.609 161.541L261.872 156.865L258.699 158.959L252.425 143.019L257.609 161.541Z" fill="#005593"/>
<path d="M261.361 163.62L257.145 168.368L260.174 166.37L266.447 182.31L261.361 163.62Z" fill="#005593"/>
</g>
<g opacity="0.6" filter="url(#filter1_f)">
<path d="M201.022 483.413L217.579 450.825L175.256 491.967L192.172 496.5L204.458 499.792L217.048 487.707L201.022 483.413Z" fill="#D01319"/>
<path d="M191.281 496.261L174.725 528.848L217.047 487.706L200.132 483.174L187.845 479.882L175.256 491.967L191.281 496.261Z" fill="#D01319"/>
<path d="M195.356 485.329L208.857 485.511L201.022 483.412L217.579 450.825L195.356 485.329Z" fill="#B1161B"/>
<path d="M197.352 494.261L183.803 494.257L191.282 496.261L174.725 528.848L197.352 494.261Z" fill="#B1161B"/>
</g>
<g opacity="0.6" filter="url(#filter2_f)">
<path d="M290.365 725.86L303.007 700.976L270.69 732.392L283.607 735.853L292.988 738.367L302.601 729.139L290.365 725.86Z" fill="#D01319"/>
<path d="M282.927 735.669L270.284 760.552L302.601 729.137L289.685 725.676L280.303 723.162L270.69 732.39L282.927 735.669Z" fill="#D01319"/>
<path d="M286.037 727.322L296.347 727.461L290.364 725.858L303.006 700.975L286.037 727.322Z" fill="#B1161B"/>
<path d="M287.562 734.142L277.216 734.139L282.927 735.669L270.285 760.553L287.562 734.142Z" fill="#B1161B"/>
</g>
<defs>
<filter id="filter0_f" x="229.6" y="129.688" width="59.6737" height="65.9536" filterUnits="userSpaceOnUse" color-interpolation-filters="sRGB">
<feFlood flood-opacity="0" result="BackgroundImageFix"/>
<feBlend mode="normal" in="SourceGraphic" in2="BackgroundImageFix" result="shape"/>
<feGaussianBlur stdDeviation="5.5" result="effect1_foregroundBlur"/>
</filter>
<filter id="filter1_f" x="155" y="432.001" width="82.3039" height="115.672" filterUnits="userSpaceOnUse" color-interpolation-filters="sRGB">
<feFlood flood-opacity="0" result="BackgroundImageFix"/>
<feBlend mode="normal" in="SourceGraphic" in2="BackgroundImageFix" result="shape"/>
<feGaussianBlur stdDeviation="5.5" result="effect1_foregroundBlur"/>
</filter>
<filter id="filter2_f" x="252.622" y="684.002" width="68.047" height="93.5255" filterUnits="userSpaceOnUse" color-interpolation-filters="sRGB">
<feFlood flood-opacity="0" result="BackgroundImageFix"/>
<feBlend mode="normal" in="SourceGraphic" in2="BackgroundImageFix" result="shape"/>
<feGaussianBlur stdDeviation="5.5" result="effect1_foregroundBlur"/>
</filter>
</defs>
</svg>
