<svg width="353" height="951" viewBox="0 0 353 951" fill="none" xmlns="http://www.w3.org/2000/svg">
<path d="M187.725 856.872L165.419 798.382L168.943 899.405L194.15 883.155L212.459 871.352L211.606 841.477L187.725 856.872Z" fill="white"/>
<path d="M192.824 884.01L215.129 942.5L211.605 841.477L186.398 857.727L168.089 869.53L168.943 899.405L192.824 884.01Z" fill="white"/>
<path d="M183.639 866.266L199.4 849.345L187.725 856.872L165.419 798.382L183.639 866.266Z" fill="#EEEEEE"/>
<path d="M197.268 874.007L181.679 891.194L192.824 884.009L215.129 942.499L197.268 874.007Z" fill="#EEEEEE"/>
<path d="M250.95 471.79L237.679 441.744L242.259 494.586L255.029 485.389L264.303 478.708L263.048 463.077L250.95 471.79Z" fill="#0094FF"/>
<path d="M254.357 485.873L267.628 515.919L263.047 463.077L250.278 472.275L241.003 478.955L242.259 494.587L254.357 485.873Z" fill="#0094FF"/>
<path d="M249.064 476.824L256.865 467.53L250.951 471.79L237.679 441.744L249.064 476.824Z" fill="#0878CA"/>
<path d="M256.415 480.511L248.711 489.939L254.357 485.873L267.628 515.918L256.415 480.511Z" fill="#0878CA"/>
<g filter="url(#filter0_f)">
<path d="M46.8126 780.94L32.4455 751.403L38.9658 804.04L51.3883 794.38L60.411 787.363L58.5813 771.788L46.8126 780.94Z" fill="#008EF5"/>
<path d="M50.7343 794.889L65.1014 824.426L58.5811 771.789L46.1586 781.449L37.1359 788.466L38.9656 804.041L50.7343 794.889Z" fill="#008EF5"/>
<path d="M45.1126 786.04L52.5664 776.466L46.8128 780.941L32.4457 751.403L45.1126 786.04Z" fill="#005593"/>
<path d="M52.5944 789.454L45.2423 799.159L50.7344 794.888L65.1015 824.425L52.5944 789.454Z" fill="#005593"/>
</g>
<g filter="url(#filter1_f)">
<path opacity="0.6" d="M193.925 338.841L215.127 309.067L167.175 343.483L183.233 350.472L194.895 355.548L209.137 345.462L193.925 338.841Z" fill="#D01319"/>
<path opacity="0.6" d="M182.387 350.103L161.184 379.878L209.136 345.462L193.079 338.472L181.416 333.396L167.175 343.482L182.387 350.103Z" fill="#D01319"/>
<path d="M188.037 339.896L201.362 342.077L193.925 338.84L215.127 309.066L188.037 339.896Z" fill="#B4B4B4"/>
<path d="M188.687 349.025L175.288 347.013L182.387 350.103L161.185 379.878L188.687 349.025Z" fill="#B4B4B4"/>
</g>
<g opacity="0.6" filter="url(#filter2_f)">
<path d="M321.935 761.86L334.578 736.977L302.261 768.392L315.177 771.853L324.559 774.367L334.172 765.139L321.935 761.86Z" fill="#D01319"/>
<path d="M314.497 771.669L301.855 796.553L334.172 765.137L321.255 761.676L311.874 759.162L302.261 768.39L314.497 771.669Z" fill="#D01319"/>
<path d="M317.608 763.322L327.917 763.461L321.935 761.858L334.577 736.975L317.608 763.322Z" fill="#B1161B"/>
<path d="M319.133 770.143L308.787 770.139L314.498 771.669L301.855 796.553L319.133 770.143Z" fill="#B1161B"/>
</g>
<path d="M231.353 112.433L266.242 38.6075L174.364 133.181L212.427 142.222L240.072 148.788L267.412 120.998L231.353 112.433Z" fill="#008CF2"/>
<path d="M210.424 141.746L175.535 215.571L267.413 120.998L229.35 111.957L201.705 105.391L174.365 133.181L210.424 141.746Z" fill="#008CF2"/>
<path d="M218.823 117.075L248.983 116.62L231.354 112.433L266.243 38.6071L218.823 117.075Z" fill="#0878CA"/>
<path d="M223.852 136.894L193.597 137.749L210.425 141.746L175.536 215.572L223.852 136.894Z" fill="#0878CA"/>
<path d="M67.7935 35.004L55.5908 4.50857L58.3036 57.479L71.3895 48.7379L80.8941 42.389L80.1907 26.7229L67.7935 35.004Z" fill="white"/>
<path d="M70.7007 49.1984L82.9033 79.6938L80.1906 26.7234L67.1046 35.4645L57.6001 41.8133L58.3034 57.4794L70.7007 49.1984Z" fill="white"/>
<path d="M65.7308 39.9678L73.8546 30.9555L67.7937 35.004L55.5911 4.50858L65.7308 39.9678Z" fill="#EEEEEE"/>
<path d="M72.9472 43.9122L64.9153 53.0622L70.7007 49.1977L82.9034 79.6932L72.9472 43.9122Z" fill="#EEEEEE"/>
<defs>
<filter id="filter0_f" x="0.000305176" y="735.42" width="97.5463" height="104.989" filterUnits="userSpaceOnUse" color-interpolation-filters="sRGB">
<feFlood flood-opacity="0" result="BackgroundImageFix"/>
<feBlend mode="normal" in="SourceGraphic" in2="BackgroundImageFix" result="shape"/>
<feGaussianBlur stdDeviation="5.5" result="effect1_foregroundBlur"/>
</filter>
<filter id="filter1_f" x="141.902" y="286.001" width="92.5074" height="116.942" filterUnits="userSpaceOnUse" color-interpolation-filters="sRGB">
<feFlood flood-opacity="0" result="BackgroundImageFix"/>
<feBlend mode="normal" in="SourceGraphic" in2="BackgroundImageFix" result="shape"/>
<feGaussianBlur stdDeviation="5.5" result="effect1_foregroundBlur"/>
</filter>
<filter id="filter2_f" x="284.193" y="720.002" width="68.047" height="93.5255" filterUnits="userSpaceOnUse" color-interpolation-filters="sRGB">
<feFlood flood-opacity="0" result="BackgroundImageFix"/>
<feBlend mode="normal" in="SourceGraphic" in2="BackgroundImageFix" result="shape"/>
<feGaussianBlur stdDeviation="5.5" result="effect1_foregroundBlur"/>
</filter>
</defs>
</svg>
