<svg width="115" height="918" viewBox="0 0 115 918" fill="none" xmlns="http://www.w3.org/2000/svg">
<path d="M93.1148 867.496L106.446 835.278L69.2445 877.541L85.6676 880.598L97.596 882.819L108.674 870.393L93.1148 867.496Z" fill="#D01319"/>
<path d="M84.8027 880.437L71.4717 912.655L108.673 870.392L92.2499 867.335L80.3215 865.115L69.2439 877.541L84.8027 880.437Z" fill="#D01319"/>
<path d="M87.8681 869.739L100.721 868.912L93.115 867.496L106.446 835.278L87.8681 869.739Z" fill="#B1161B"/>
<path d="M90.4286 878.086L77.543 879.085L84.8037 880.437L71.4727 912.655L90.4286 878.086Z" fill="#B1161B"/>
<path d="M106.289 703.031L99.792 688.322L102.034 714.191L108.285 709.688L112.826 706.418L112.211 698.765L106.289 703.031Z" fill="#0094FF"/>
<path d="M107.956 709.925L114.453 724.635L112.211 698.766L105.96 703.268L101.419 706.539L102.034 714.191L107.956 709.925Z" fill="#0094FF"/>
<path d="M105.365 705.495L109.184 700.946L106.289 703.031L99.7921 688.322L105.365 705.495Z" fill="#0878CA"/>
<path d="M108.964 707.3L105.192 711.916L107.956 709.925L114.453 724.634L108.964 707.3Z" fill="#0878CA"/>
<g filter="url(#filter0_f)">
<path d="M91.1671 541.725L99.8334 525.184L77.9498 545.931L86.5622 548.354L92.8176 550.115L99.3263 544.022L91.1671 541.725Z" fill="white"/>
<path d="M86.108 548.227L77.4417 564.768L99.3253 544.022L90.7129 541.598L84.4576 539.838L77.9489 545.931L86.108 548.227Z" fill="white"/>
<path d="M88.2605 542.669L95.1563 542.848L91.1674 541.726L99.8337 525.184L88.2605 542.669Z" fill="#EEEEEE"/>
<path d="M89.2228 547.244L82.3014 547.155L86.109 548.227L77.4427 564.768L89.2228 547.244Z" fill="#EEEEEE"/>
</g>
<g filter="url(#filter1_f)">
<path d="M93.8126 329.521L79.4456 299.983L85.9659 352.621L98.3884 342.96L107.411 335.943L105.581 320.368L93.8126 329.521Z" fill="#008EF5"/>
<path d="M97.7343 343.469L112.101 373.006L105.581 320.369L93.1586 330.03L84.1359 337.046L85.9656 352.621L97.7343 343.469Z" fill="#008EF5"/>
<path d="M92.1126 334.62L99.5663 325.046L93.8127 329.521L79.4456 299.983L92.1126 334.62Z" fill="#005593"/>
<path d="M99.5944 338.034L92.2423 347.739L97.7344 343.468L112.101 373.006L99.5944 338.034Z" fill="#005593"/>
</g>
<path d="M108.964 188.221L131.95 151.284L77.5308 195.713L97.1225 202.829L111.352 207.997L127.524 194.962L108.964 188.221Z" fill="white"/>
<path d="M96.0914 202.454L73.1055 239.391L127.524 194.962L107.933 187.847L93.7029 182.679L77.5308 195.713L96.0914 202.454Z" fill="white"/>
<path d="M102.048 189.911L118.038 191.517L108.964 188.222L131.95 151.284L102.048 189.911Z" fill="#EEEEEE"/>
<path d="M103.496 200.708L87.4304 199.309L96.092 202.455L73.1061 239.392L103.496 200.708Z" fill="#EEEEEE"/>
<g filter="url(#filter2_f)">
<path opacity="0.6" d="M71.8218 165.099L78.966 155.067L62.8087 166.663L68.2192 169.018L72.1489 170.728L76.9475 167.33L71.8218 165.099Z" fill="#D01319"/>
<path opacity="0.6" d="M67.9355 168.893L60.7913 178.926L76.9485 167.329L71.5381 164.974L67.6084 163.264L62.8098 166.662L67.9355 168.893Z" fill="#D01319"/>
<path d="M69.8386 165.454L74.3284 166.189L71.8225 165.098L78.9667 155.066L69.8386 165.454Z" fill="#B4B4B4"/>
<path d="M70.058 168.53L65.5434 167.852L67.9354 168.893L60.7912 178.926L70.058 168.53Z" fill="#B4B4B4"/>
</g>
<path d="M90.4561 31.6185L100.84 9.64542L73.4942 37.7938L84.8228 40.4846L93.051 42.439L101.189 34.1677L90.4561 31.6185Z" fill="#008CF2"/>
<path d="M84.2265 40.3427L73.8424 62.3157L101.188 34.1673L89.8597 31.4765L81.6315 29.5222L73.4941 37.7935L84.2265 40.3427Z" fill="#008CF2"/>
<path d="M86.7267 32.9999L95.7032 32.8644L90.4563 31.6181L100.84 9.64504L86.7267 32.9999Z" fill="#0878CA"/>
<path d="M88.2234 38.8985L79.2186 39.1532L84.227 40.3428L73.8429 62.3159L88.2234 38.8985Z" fill="#0878CA"/>
<path d="M15.3349 15.4283L9.95664 1.98763L11.1523 25.334L16.9198 21.4814L21.1089 18.6832L20.7989 11.7785L15.3349 15.4283Z" fill="white"/>
<path d="M16.6168 21.6843L21.995 35.125L20.7994 11.7786L15.0318 15.6312L10.8428 18.4294L11.1528 25.3341L16.6168 21.6843Z" fill="white"/>
<path d="M14.426 17.6159L18.0065 13.6438L15.3352 15.4281L9.95698 1.98747L14.426 17.6159Z" fill="#EEEEEE"/>
<path d="M17.6066 19.3543L14.0667 23.3872L16.6165 21.6839L21.9948 35.1246L17.6066 19.3543Z" fill="#EEEEEE"/>
<defs>
<filter id="filter0_f" x="67.9995" y="516" width="41.2761" height="57.9522" filterUnits="userSpaceOnUse" color-interpolation-filters="sRGB">
<feFlood flood-opacity="0" result="BackgroundImageFix"/>
<feBlend mode="normal" in="SourceGraphic" in2="BackgroundImageFix" result="shape"/>
<feGaussianBlur stdDeviation="2.5" result="effect1_foregroundBlur"/>
</filter>
<filter id="filter1_f" x="52.0004" y="289" width="87.5462" height="94.9891" filterUnits="userSpaceOnUse" color-interpolation-filters="sRGB">
<feFlood flood-opacity="0" result="BackgroundImageFix"/>
<feBlend mode="normal" in="SourceGraphic" in2="BackgroundImageFix" result="shape"/>
<feGaussianBlur stdDeviation="3" result="effect1_foregroundBlur"/>
</filter>
<filter id="filter2_f" x="53.0006" y="146.001" width="33.756" height="41.9898" filterUnits="userSpaceOnUse" color-interpolation-filters="sRGB">
<feFlood flood-opacity="0" result="BackgroundImageFix"/>
<feBlend mode="normal" in="SourceGraphic" in2="BackgroundImageFix" result="shape"/>
<feGaussianBlur stdDeviation="2.5" result="effect1_foregroundBlur"/>
</filter>
</defs>
</svg>
