<svg width="119" height="72" viewBox="0 0 119 72" fill="none" xmlns="http://www.w3.org/2000/svg">
<rect x="6" width="107" height="72" fill="#FEBD2C"/>
<path d="M26.696 26.028L23.588 47H26.164L26.976 41.54H31.344L32.156 47H34.732L31.624 26.028H26.696ZM29.412 28.576L30.98 38.992H27.34L28.88 28.576H29.412ZM40.0341 34.512V26.084H37.4861V47H40.0341V37.06H41.3781L46.0261 47H48.8261L43.5901 35.8L48.1821 26.084H45.3821L41.3781 34.512H40.0341ZM51.0753 47H60.0073V49.1H62.4153V44.648H60.9033V26.056H58.3553V44.564H53.6233V26.084H51.0753V47ZM65.1853 47H67.9013L71.1773 36.696L73.1093 29.388H73.1933L72.7733 36.92V47H75.3213V26.084H71.8773L69.4973 33.588L67.4253 42.24H67.3413L67.7333 33.448V26.084H65.1853V47ZM86.0133 39.944V47H88.5613V26.028H82.4013L79.1813 29.276V36.528L81.4493 38.964L77.7253 47H80.5253L83.8013 39.944H86.0133ZM86.0133 28.604V37.396H83.4653L81.7293 35.52V30.312L83.4373 28.604H86.0133ZM95.0197 42.66V25.916H92.4437V42.66H95.0197ZM92.2757 47.112H95.1037V44.592H92.2757V47.112Z" fill="#D01319"/>
<path d="M119 6L113 0V6H119Z" fill="#CB9419"/>
<path d="M0 6L6 0V6H0Z" fill="#CB9419"/>
<path d="M119 66L113 72V66H119Z" fill="#CB9419"/>
<path d="M0 66L6 72V66H0Z" fill="#CB9419"/>
</svg>
