<svg width="351" height="110" viewBox="0 0 351 110" fill="none" xmlns="http://www.w3.org/2000/svg">
<rect x="14" width="323" height="110" fill="#FEBD2C"/>
<mask id="mask0" mask-type="alpha" maskUnits="userSpaceOnUse" x="14" y="0" width="323" height="110">
<rect x="14" width="323" height="110" fill="#FEBD2C"/>
</mask>
<g mask="url(#mask0)">
<path d="M32.8498 51.6155C32.8498 51.6155 0.0364378 83.4789 -36.8075 61.8723C-36.8075 61.8723 2.84878 84.1303 37.0931 38.4187C37.0905 38.4243 31.677 51.2233 32.8498 51.6155Z" fill="white"/>
<path d="M49.3756 79.4831C49.3756 79.4831 2.05456 102.613 -40.6119 62.8554C-40.6119 62.8554 -0.744031 99.128 41.4785 74.5362C41.4811 74.5307 48.2512 77.1372 49.3756 79.4831Z" fill="#E30613"/>
<path d="M36.0593 68.9917C36.0593 68.9917 10.6136 85.285 -24.2177 70.7696C-24.2177 70.7696 11.5287 83.4254 33.2793 60.9287C33.2737 60.9261 34.559 66.0926 36.0593 68.9917Z" fill="#0878CA"/>
<ellipse cx="59.6655" cy="53.6237" rx="26.5893" ry="27.5062" fill="#FBFBFB"/>
<path d="M55.9191 25.4349C41.7747 27.22 31.3699 39.2199 31.1631 53.0895L31.1494 53.0894C31.1521 53.1223 31.1601 53.1524 31.1628 53.1852C31.1501 54.4672 31.2194 55.7632 31.3843 57.0731C33.3452 72.5631 47.5381 83.566 63.0226 81.6079C78.5125 79.6471 89.5154 65.4541 87.5573 49.9697C85.602 34.477 71.4091 23.4741 55.9191 25.4349ZM73.4952 70.5431C72.181 70.3554 69.0994 69.7952 66.8571 68.437C66.6058 64.4478 66.113 57.6039 66.0348 56.4965C67.5373 55.2197 71.5595 51.7456 72.9924 50.0393C75.2921 50.6186 79.7819 51.8452 82.113 52.8183C83.0085 55.4921 82.9973 58.7314 82.884 60.65C80.7479 65.6861 75.254 69.4394 73.4952 70.5431ZM54.2288 51.6443C51.0378 53.4784 45.67 56.33 44.2925 57.0606C42.9583 56.337 39.9054 54.6097 38.524 53.2955C37.7512 47.5522 39.1588 42.12 39.618 40.5552C41.2383 39.1722 45.0213 36.1237 47.8235 35.2805C49.2695 36.092 53.1897 38.3718 55.8003 40.7482C55.465 42.8382 54.4027 49.5865 54.2288 51.6443ZM34.6648 57.8144C34.1743 57.389 33.6133 56.7665 33.1434 55.8874C32.5932 49.836 34.155 44.0407 37.2333 39.2539L38.3955 40.7177C37.8363 42.7277 36.7342 47.5788 37.3308 52.8977C36.6056 53.8984 35.24 55.9329 34.6648 57.8144ZM56.4214 39.799C53.7807 37.4307 50.0542 35.2391 48.4991 34.3726C49.1046 33.1856 51.5069 30.187 51.5069 30.187C51.5836 30.1626 59.1411 28.0676 64.8427 29.0415C66.5762 29.7172 69.3547 30.9598 70.5253 32.3443C69.4879 34.3253 68.0902 36.9146 67.1333 38.5214C65.0783 38.3393 58.5103 38.8659 56.4214 39.799ZM82.1854 51.6431C79.4993 50.5731 75.0913 49.4151 73.3897 48.9828C72.73 47.6793 69.3116 40.9892 68.0853 39.107C69.2071 37.2411 70.7205 34.3897 71.4745 32.9517C72.9816 33.4873 77.8728 35.6201 77.8728 35.6201C77.9136 35.6749 82.1325 40.9108 84.0897 48.0113C84.0952 48.0086 82.7678 50.836 82.1854 51.6431ZM85.0842 47.3751C84.0011 43.6071 82.3557 40.4113 81.0075 38.2006C82.9553 40.9328 84.4096 44.0596 85.2096 47.4766C85.1633 47.4382 85.1197 47.4053 85.0842 47.3751ZM63.8423 27.4498C63.8119 27.5535 63.7869 27.6546 63.7538 27.7529C58.0589 27.1918 51.5028 29.0088 51.2046 29.0952L51.2099 29.1198L49.6331 28.9804C51.6807 28.1565 53.8642 27.5791 56.1559 27.2891C58.7786 26.9647 61.3616 27.0284 63.8423 27.4498ZM34.5754 59.1618C34.9692 60.6994 36.3819 65.5729 39.0461 68.2501C39.1479 68.841 39.3439 69.8695 39.5971 70.9447C36.5175 67.4431 34.3348 63.0946 33.4552 58.223C33.8611 58.629 34.2536 58.9392 34.5754 59.1618ZM41.2477 72.6507C40.8933 71.5916 40.5485 70.1115 40.3015 68.8286C41.4578 68.849 43.9592 68.7893 45.9028 68.017C45.9028 68.017 44.8303 60.4166 44.8659 58.0248C46.3092 57.2617 51.4935 54.5078 54.6735 52.6792C56.4705 53.9784 62.8747 56.5211 64.9317 56.9273C65.0542 58.6472 65.4739 64.504 65.7098 68.2007C64.9171 68.9825 62.5455 71.0108 57.5606 73.0245C53.6836 72.4561 45.6683 67.0348 45.5892 66.9854L45.8946 68.0143L45.1642 68.1511C45.4697 68.3545 52.6507 73.125 56.8627 74.039C57.362 75.1014 58.3769 77.259 58.9745 78.3408C57.2659 79.1604 55.267 79.353 53.9684 79.3758C49.1472 78.3477 44.7488 75.9842 41.2477 72.6507ZM58.0232 79.9175C58.8113 79.677 59.597 79.3489 60.3175 78.8895C62.1962 78.6882 66.4542 78.1946 68.5857 77.6088C68.8559 77.741 69.2382 77.8516 69.7657 77.8699C67.5893 78.7917 65.2526 79.4315 62.794 79.7428C61.1777 79.9504 59.5865 80.0022 58.0232 79.9175ZM74.1148 75.5232C71.9518 76.5271 70.6443 76.7521 69.8845 76.7331C70.7986 75.6319 72.7175 73.2822 73.6276 71.7873C74.6164 71.2085 80.476 67.6287 83.3237 62.3354L84.3705 62.3965C82.452 67.7477 78.8413 72.3686 74.1148 75.5232Z" fill="#323232"/>
<path d="M55.9936 47.2496C55.9936 47.2496 57.0215 40.9412 57.856 40.7255C59.6782 40.2589 66.2026 39.6856 66.9691 40.1585C67.7411 40.6286 70.6858 45.9639 70.6858 45.9639C70.6858 45.9639 66.9613 40.8446 66.5512 40.8432C63.599 40.8329 58.5209 41.3374 58.0502 42.287C56.1698 46.1185 56.5733 46.4233 55.9936 47.2496Z" fill="#FBFBFB"/>
<path d="M61.2439 72.6931C61.5477 72.5902 65.8114 69.6582 66.3712 69.8379C66.9309 70.0175 70.8659 71.2258 70.8659 71.2258C70.8659 71.2258 67.1506 70.5294 66.2943 70.7287C65.4407 70.9335 61.2439 72.6931 61.2439 72.6931Z" fill="#FBFBFB"/>
<path d="M35.7545 57.3291C35.7545 57.3291 37.2538 53.8298 37.6603 54.0581C38.0695 54.2919 43.2747 57.3197 43.4262 57.7768C43.5777 58.2338 44.2264 61.1255 44.2264 61.1255C44.2264 61.1255 43.0064 58.2236 42.6849 57.9191C42.0937 57.3457 37.8702 55.0047 37.6046 55.1295C37.3362 55.2625 35.7545 57.3291 35.7545 57.3291Z" fill="#FBFBFB"/>
</g>
<path d="M14 15V0L0 15H14Z" fill="#CB9419"/>
<path d="M337 15V0L351 15H337Z" fill="#CB9419"/>
<path d="M14 95V110L0 95H14Z" fill="#CB9419"/>
<path d="M337 95V110L351 95H337Z" fill="#CB9419"/>
<path d="M107.356 25.283L103.693 50H106.729L107.686 43.565H112.834L113.791 50H116.827L113.164 25.283H107.356ZM110.557 28.286L112.405 40.562H108.115L109.93 28.286H110.557ZM123.076 35.282V25.349H120.073V50H123.076V38.285H124.66L130.138 50H133.438L127.267 36.8L132.679 25.349H129.379L124.66 35.282H123.076ZM136.089 50H146.616V52.475H149.454V47.228H147.672V25.316H144.669V47.129H139.092V25.349H136.089V50ZM152.718 50H155.919L159.78 37.856L162.057 29.243H162.156L161.661 38.12V50H164.664V25.349H160.605L157.8 34.193L155.358 44.39H155.259L155.721 34.028V25.349H152.718V50ZM177.266 41.684V50H180.269V25.283H173.009L169.214 29.111V37.658L171.887 40.529L167.498 50H170.798L174.659 41.684H177.266ZM177.266 28.319V38.681H174.263L172.217 36.47V30.332L174.23 28.319H177.266ZM190.971 50H193.974V28.187H199.551V50H202.554V25.316H190.971V50ZM218.893 29.045L215.065 25.283H207.31V50H210.313V41.882H215.098L218.893 37.889V29.045ZM213.811 38.879H210.313V28.286H213.844L215.857 30.299V36.701L213.811 38.879ZM235.372 46.139V28.682L231.643 24.953H226.924L223.195 28.682V46.139L226.891 50.099H231.643L235.372 46.139ZM232.369 44.984L230.356 47.129H228.178L226.165 44.984V29.903L228.145 27.923H230.389L232.369 29.903V44.984ZM238.434 52.475H241.338V50H251.766V52.475H254.67V47.36H252.558V25.283H243.945L240.81 47.36H238.434V52.475ZM249.555 28.22V47.36H243.846L246.585 28.22H249.555ZM261.073 25.283L257.905 47.228H255.991V50H260.578L263.68 28.22H266.65V50H269.653V25.283H261.073ZM283.35 36.272H277.377V28.286H284.505V25.283H274.374V50H284.967V46.997H277.377V39.275H283.35V36.272ZM289.295 50H292.298V39.11H297.875V50H300.878V25.349H297.875V36.239H292.298V25.349H289.295V50ZM307.547 25.283L303.884 50H306.92L307.877 43.565H313.025L313.982 50H317.018L313.355 25.283H307.547ZM310.748 28.286L312.596 40.562H308.306L310.121 28.286H310.748ZM103.759 85.475H106.663V83H117.091V85.475H119.995V80.36H117.883V58.283H109.27L106.135 80.36H103.759V85.475ZM114.88 61.22V80.36H109.171L111.91 61.22H114.88ZM135.308 79.139V61.682L131.579 57.953H126.86L123.131 61.682V79.139L126.827 83.099H131.579L135.308 79.139ZM132.305 77.984L130.292 80.129H128.114L126.101 77.984V62.903L128.081 60.923H130.325L132.305 62.903V77.984ZM145.453 58.25V63.662H148.456V61.055H153.703V63.431L148.654 69.602L149.611 71.45H152.119L154 73.562V78.017L152.119 79.997H150.04L148.192 78.017V74.717H145.189V79.205L148.753 83H153.439L157.003 79.205V72.44L153.472 68.447L156.706 64.487V58.25H145.453ZM166.562 58.283H160.094V61.286H163.559V80.228H159.83V83H170.291V80.228H166.562V58.283ZM192.932 61.22V82.967H195.935V58.283H189.962L188.576 68.084L187.718 77.06H187.619L186.728 67.952L185.342 58.283H179.369V82.967H182.372V61.22H182.735L185.804 81.086H189.599L192.569 61.22H192.932ZM202.553 58.283L198.89 83H201.926L202.883 76.565H208.031L208.988 83H212.024L208.361 58.283H202.553ZM205.754 61.286L207.602 73.562H203.312L205.127 61.286H205.754ZM223.124 74.684V83H226.127V58.283H218.867L215.072 62.111V70.658L217.745 73.529L213.356 83H216.656L220.517 74.684H223.124ZM223.124 61.319V71.681H220.121L218.075 69.47V63.332L220.088 61.319H223.124ZM236.367 61.913V65.642H239.37V63.035L241.086 61.154H242.868L244.551 63.035V67.127L236.235 76.763V83H247.785V77.588H244.749V80.195H239.205V77.852L247.587 68.249V61.913L244.221 58.151H239.7L236.367 61.913ZM260.651 83.132L264.38 79.139V61.946L260.618 58.151H255.833L252.038 61.946V79.139L255.8 83.132H260.651ZM260.783 62.54L255.041 74.453V63.167L257.087 61.154H259.364L260.783 62.54ZM255.668 78.644L261.41 66.731V77.951L259.331 80.162H257.087L255.668 78.644ZM268.626 61.913V65.642H271.629V63.035L273.345 61.154H275.127L276.81 63.035V67.127L268.494 76.763V83H280.044V77.588H277.008V80.195H271.464V77.852L279.846 68.249V61.913L276.48 58.151H271.959L268.626 61.913ZM292.909 83.132L296.638 79.139V61.946L292.876 58.151H288.091L284.296 61.946V79.139L288.058 83.132H292.909ZM293.041 62.54L287.299 74.453V63.167L289.345 61.154H291.622L293.041 62.54ZM287.926 78.644L293.668 66.731V77.951L291.589 80.162H289.345L287.926 78.644Z" fill="#D01319"/>
</svg>
