<svg width="103" height="145" viewBox="0 0 103 145" fill="none" xmlns="http://www.w3.org/2000/svg">
<g filter="url(#filter0_d)">
<path d="M91.444 99.6111C91.8263 96.3369 91.9155 92.9986 91.495 89.673C91.495 89.6345 91.4822 89.596 91.4822 89.5446V18.1164C91.4822 17.0378 90.1569 16.5371 89.4433 17.346L84.397 23.0983C83.9765 23.5862 83.2374 23.6247 82.7532 23.201L80.9437 21.596C80.4594 21.1723 79.7331 21.2108 79.2998 21.6987L69.3984 32.9978C68.8122 33.6655 67.7418 33.46 67.4359 32.6255L65.4608 27.1942L63.1925 21.0696L60.5801 13.9948C60.3508 13.3913 59.6881 13.0832 59.0892 13.3014L56.8209 14.1489C56.222 14.38 55.5466 14.0718 55.33 13.4555L51.0101 1.75838C50.6405 0.744032 49.2005 0.744032 48.831 1.75838L44.8169 12.6594C44.5875 13.2629 43.9249 13.5711 43.326 13.3528L41.0704 12.5054C40.4715 12.2742 39.7961 12.5824 39.5795 13.1987L37.7827 18.0779C37.4896 18.8739 36.4702 19.1051 35.8712 18.5016L30.1241 12.775C29.6653 12.3256 28.939 12.3256 28.4802 12.775C28.0215 13.2372 27.2951 13.2372 26.8363 12.775L26.7981 12.7365C26.3649 12.2999 25.6512 12.2742 25.1925 12.698L15.5587 21.4548C15.0744 21.8913 14.3353 21.8528 13.9148 21.3649L10.4105 17.3588C9.69685 16.5371 8.37156 17.0378 8.37156 18.1164V39.1738C8.37156 39.8158 7.84909 40.3422 7.21194 40.3422H3.15962C2.52247 40.3422 2 40.8687 2 41.5106V45.3755V50.4087V50.5499V55.4419V55.5831V60.4751V60.6164V65.5084V65.6496V70.6829V74.5477C2 75.1896 2.52247 75.7161 3.15962 75.7161H7.19919C7.83635 75.7161 8.35882 76.2425 8.35882 76.8845V89.5061C8.35882 89.5446 8.35882 89.5832 8.34608 89.6217C8.1167 91.3936 8.15493 93.1526 8.16767 94.886V95.3483C8.16767 117.369 25.7787 135.678 47.7351 136.872L47.8243 136.962L49.4299 136.949C59.6244 136.834 68.8377 133.56 76.165 127.615C76.6237 127.243 77.2736 127.268 77.6942 127.666C78.5989 128.539 79.5037 129.4 80.3957 130.273C80.8162 130.671 81.4661 130.709 81.9121 130.35C84.3588 128.372 87.3025 125.548 89.9913 121.644C94.77 114.698 96.3756 107.354 96.9745 103.027C97.051 102.423 96.6559 101.858 96.0697 101.73C94.7827 101.434 93.5721 101.152 92.3233 100.869C91.7626 100.767 91.3803 100.215 91.444 99.6111Z" fill="white"/>
</g>
<path d="M42.2193 17.0455L41.3486 19.4044L43.6897 20.2816L44.5604 17.9228L42.2193 17.0455Z" fill="#323232"/>
<path d="M38.7423 26.4867L37.8716 28.8455L40.2126 29.7228L41.0833 27.364L38.7423 26.4867Z" fill="#323232"/>
<path d="M36.9947 31.2072L36.124 33.566L38.4651 34.4433L39.3358 32.0844L36.9947 31.2072Z" fill="#323232"/>
<path d="M40.483 21.7601L39.6123 24.119L41.9534 24.9963L42.824 22.6374L40.483 21.7601Z" fill="#323232"/>
<path d="M20.1323 27.0609L18.2593 28.7259L26.7154 38.3834L28.5884 36.7184L20.1323 27.0609Z" fill="#323232"/>
<path d="M80.4371 26.2572L71.9531 35.941L73.8256 37.6065L82.3096 27.9227L80.4371 26.2572Z" fill="#3160F4"/>
<path d="M59.6692 22.56L57.3286 23.4385L58.2005 25.7969L60.5411 24.9183L59.6692 22.56Z" fill="#323232"/>
<path d="M63.1628 32.0082L60.8223 32.8868L61.6942 35.2451L64.0348 34.3665L63.1628 32.0082Z" fill="#323232"/>
<path d="M57.9294 17.8479L55.5884 18.7252L56.4591 21.084L58.8001 20.2067L57.9294 17.8479Z" fill="#323232"/>
<path d="M61.4167 27.2824L59.0757 28.1597L59.9464 30.5186L62.2874 29.6413L61.4167 27.2824Z" fill="#323232"/>
<path d="M50.1308 38.6981C46.4863 38.6981 43.6318 42.8582 43.6318 48.1611C43.6318 53.4768 46.4863 57.6369 50.1308 57.6369C53.7626 57.6369 56.6171 53.4768 56.6171 48.1611C56.6171 42.8582 53.7626 38.6981 50.1308 38.6981ZM50.1308 55.1074C47.9645 55.1074 46.1422 51.936 46.1422 48.1611C46.1422 44.399 47.9645 41.2147 50.1308 41.2147C52.2844 41.2147 54.1194 44.399 54.1194 48.1611C54.1194 51.936 52.2844 55.1074 50.1308 55.1074Z" fill="#323232"/>
<path d="M22.1084 51.5892C19.7764 51.5892 17.9414 54.1443 17.9414 57.4056C17.9414 60.667 19.7764 63.2221 22.1084 63.2221C24.4404 63.2221 26.2627 60.667 26.2627 57.4056C26.2627 54.1443 24.4404 51.5892 22.1084 51.5892ZM22.1084 60.7055C21.3438 60.7055 20.4391 59.2674 20.4391 57.4056C20.4391 55.5439 21.3438 54.1058 22.1084 54.1058C22.873 54.1058 23.765 55.5439 23.765 57.4056C23.765 59.2674 22.873 60.7055 22.1084 60.7055Z" fill="#323232"/>
<path d="M77.7578 51.5892C75.4258 51.5892 73.6035 54.1443 73.6035 57.4056C73.6035 60.667 75.4258 63.2221 77.7578 63.2221C80.0898 63.2221 81.912 60.667 81.912 57.4056C81.912 54.1443 80.0898 51.5892 77.7578 51.5892ZM77.7578 60.7055C76.9932 60.7055 76.1012 59.2674 76.1012 57.4056C76.1012 55.5439 76.9932 54.1058 77.7578 54.1058C78.5224 54.1058 79.4144 55.5439 79.4144 57.4056C79.4144 59.2674 78.5224 60.7055 77.7578 60.7055Z" fill="#323232"/>
<path d="M89.8384 106.788L92.2341 107.52C92.4889 106.685 92.7056 105.85 92.9095 105.016L90.4755 104.438C90.2844 105.234 90.0678 106.017 89.8384 106.788Z" fill="#323232"/>
<path d="M86.1555 115.391L85.9644 115.724L88.1179 116.996L88.3218 116.649C88.6786 116.02 89.0354 115.378 89.354 114.723L87.124 113.58C86.8181 114.196 86.4868 114.8 86.1555 115.391Z" fill="#323232"/>
<path d="M88.1689 111.385L90.4627 112.399C90.8068 111.603 91.1253 110.807 91.4184 109.985L89.0737 109.112C88.7934 109.882 88.4875 110.627 88.1689 111.385Z" fill="#323232"/>
<path d="M83.25 119.769L85.2379 121.297C85.7604 120.616 86.2574 119.91 86.7416 119.191L84.6772 117.779C84.2057 118.459 83.7342 119.127 83.25 119.769Z" fill="#323232"/>
<path d="M80.0771 123.467L81.8739 125.226C82.4729 124.61 83.059 123.968 83.6197 123.313L81.7338 121.669C81.1858 122.286 80.6378 122.876 80.0771 123.467Z" fill="#323232"/>
<path d="M86.7544 85.756H87.6719V25.2031L65.1038 50.9599L49.9268 9.85944L34.7624 50.9727L12.1944 25.2031V85.756H13.1246C12.3855 88.7605 11.9905 91.8292 12.0032 94.9236V95.3859C12.0032 115.416 28.3909 132.763 49.3916 133.109L49.4043 133.122C76.2541 132.814 92.3869 108.662 86.7544 85.756ZM14.692 77.6668H70.5324V75.1502H14.692V69.2182H28.0978V66.6887H14.692V31.867L35.6545 55.8005L49.9268 17.0883L64.2246 55.7877L85.1742 31.867V66.6887H32.0736V69.2182H85.1742V75.1502H73.9603V77.6668H85.1742V83.2265H14.692V77.6668ZM85.2125 91.6751L80.2554 86.6804L80.5103 85.756H84.193C84.7028 87.6948 85.0341 89.685 85.2125 91.6751ZM60.9878 85.756H77.9107L77.8342 86.0384L64.7598 89.5694L60.9878 85.756ZM62.9885 91.3413L59.4968 104.515L46.4224 108.059L45.8107 107.443L36.8651 98.4289L40.2547 85.756H57.458L59.6115 87.9259L62.9885 91.3413ZM15.686 85.756H37.6169L34.4311 97.7484L21.3312 101.292L14.5136 94.41C14.5391 91.5082 14.9214 88.6321 15.686 85.756ZM14.6538 98.1208L19.5726 103.077L17.7631 109.856C16.0683 106.159 15.0233 102.178 14.6538 98.1208ZM19.4834 113.131L21.9684 103.77L35.1065 100.226L42.9435 108.123L44.6511 109.831L41.134 123.017L31.7551 125.547C26.6578 122.465 22.4908 118.241 19.4834 113.131ZM35.0046 127.28L41.7839 125.444L46.741 130.439C42.6632 130.066 38.6873 129.001 35.0046 127.28ZM67.2064 126.073C61.8926 129.052 56.2091 130.503 50.4237 130.593L43.5552 123.672L47.0723 110.498L60.1468 106.967L69.7168 116.61L67.2064 126.073ZM70.3285 124.083L72.138 117.265L78.9046 115.442C76.4707 118.909 73.7564 121.643 70.3285 124.083ZM80.8798 112.296L71.4881 114.825L66.6967 110.01L61.9053 105.183L65.4224 92.009L78.4968 88.478L85.3527 95.3859C85.2889 101.292 83.7852 107.057 80.8798 112.296Z" fill="#323232"/>
<path d="M46.7413 130.439C42.6635 130.067 38.6876 129.001 35.0049 127.28L41.7842 125.444L46.7413 130.439Z" fill="#1C1C1C"/>
<path d="M19.5727 103.077L17.7631 109.857C16.0683 106.159 15.0234 102.178 14.6538 98.1209L19.5727 103.077Z" fill="#1C1C1C"/>
<path d="M44.6511 109.831L41.134 123.017L31.755 125.547C26.6578 122.465 22.4908 118.241 19.4834 113.131L21.9683 103.77L35.1065 100.227L42.9435 108.123L44.6511 109.831Z" fill="#CCCCCC"/>
<path d="M69.7168 116.61L67.2064 126.073C61.8925 129.052 56.2091 130.503 50.4237 130.593L43.5552 123.672L47.0723 110.499L60.1467 106.968L69.7168 116.61Z" fill="#CCCCCC"/>
<path d="M78.9047 115.442C76.4708 118.909 73.7565 121.644 70.3286 124.083L72.1381 117.265L78.9047 115.442Z" fill="#1C1C1C"/>
<path d="M85.3526 95.386C85.2889 101.292 83.7852 107.057 80.8798 112.296L71.4881 114.826L66.6967 110.011L61.9053 105.183L65.4224 92.0091L78.4968 88.4781L85.3526 95.386Z" fill="#CCCCCC"/>
<path d="M85.2125 91.6753L80.2554 86.6806L80.5102 85.7562H84.193C84.7027 87.695 85.0341 89.6852 85.2125 91.6753Z" fill="#1C1C1C"/>
<path d="M77.9107 85.7562L77.8342 86.0386L64.7598 89.5696L60.9878 85.7562H77.9107Z" fill="#CCCCCC"/>
<path d="M62.9886 91.3415L59.497 104.515L46.4226 108.059L45.8109 107.443L36.8652 98.4291L40.2549 85.7562H57.4581L59.6117 87.9261L62.9886 91.3415Z" fill="#1C1C1C"/>
<path d="M37.617 85.7562L34.4312 97.7486L21.3312 101.292L14.5137 94.4102C14.5392 91.5084 14.9215 88.6323 15.686 85.7562H37.617Z" fill="#CCCCCC"/>
<path d="M85.1746 66.6889V31.8671L64.2249 55.7878L49.9271 17.0884L35.6548 55.8007L14.6924 31.8671V66.6889H28.0981V69.2184H14.6924V75.1504H70.5328V77.667H14.6924V83.2267H85.1746V77.667H73.9607V75.1504H85.1746V69.2184H32.074V66.6889H85.1746ZM77.7581 51.5892C80.0901 51.5892 81.9124 54.1443 81.9124 57.4057C81.9124 60.667 80.0901 63.2221 77.7581 63.2221C75.4261 63.2221 73.6038 60.667 73.6038 57.4057C73.6038 54.1443 75.4261 51.5892 77.7581 51.5892ZM50.131 38.698C53.7628 38.698 56.6173 42.8581 56.6173 48.1609C56.6173 53.4767 53.7628 57.6368 50.131 57.6368C46.4865 57.6368 43.632 53.4767 43.632 48.1609C43.632 42.8581 46.4865 38.698 50.131 38.698ZM22.1089 63.2221C19.7769 63.2221 17.9419 60.667 17.9419 57.4057C17.9419 54.1443 19.7769 51.5892 22.1089 51.5892C24.4409 51.5892 26.2631 54.1443 26.2631 57.4057C26.2631 60.667 24.4409 63.2221 22.1089 63.2221Z" fill="#FEBD2C"/>
<path d="M23.7654 57.4056C23.7654 59.2674 22.8734 60.7055 22.1088 60.7055C21.3442 60.7055 20.4395 59.2674 20.4395 57.4056C20.4395 55.5438 21.3442 54.1058 22.1088 54.1058C22.8734 54.1058 23.7654 55.5438 23.7654 57.4056Z" fill="white"/>
<path d="M79.4143 57.4056C79.4143 59.2674 78.5223 60.7055 77.7577 60.7055C76.9931 60.7055 76.1011 59.2674 76.1011 57.4056C76.1011 55.5438 76.9931 54.1058 77.7577 54.1058C78.5223 54.1058 79.4143 55.5438 79.4143 57.4056Z" fill="#B1161B"/>
<path d="M50.1307 55.1074C52.3335 55.1074 54.1193 51.9974 54.1193 48.161C54.1193 44.3247 52.3335 41.2147 50.1307 41.2147C47.9278 41.2147 46.1421 44.3247 46.1421 48.161C46.1421 51.9974 47.9278 55.1074 50.1307 55.1074Z" fill="#3160F4"/>
<path d="M29.2958 17.3965L27.6519 19.04L26.0081 17.3965L24.2495 19.1684L25.8806 20.8248L24.2495 22.4683L26.0081 24.253L27.6519 22.6095L29.2958 24.253L31.0543 22.4683L29.4232 20.8248L31.0543 19.1684L29.2958 17.3965Z" fill="#B1161B"/>
<path d="M8.32041 44.1934H5.82275V46.71H8.32041V44.1934Z" fill="#323232"/>
<path d="M8.32041 54.2728H5.82275V56.7894H8.32041V54.2728Z" fill="#323232"/>
<path d="M8.32041 49.2396H5.82275V51.7562H8.32041V49.2396Z" fill="#323232"/>
<path d="M8.32041 59.3187H5.82275V61.8353H8.32041V59.3187Z" fill="#323232"/>
<path d="M8.32041 64.3521H5.82275V66.8687H8.32041V64.3521Z" fill="#323232"/>
<path d="M8.32041 69.3853H5.82275V71.9019H8.32041V69.3853Z" fill="#323232"/>
<defs>
<filter id="filter0_d" x="0" y="0.99762" width="102.984" height="143.965" filterUnits="userSpaceOnUse" color-interpolation-filters="sRGB">
<feFlood flood-opacity="0" result="BackgroundImageFix"/>
<feColorMatrix in="SourceAlpha" type="matrix" values="0 0 0 0 0 0 0 0 0 0 0 0 0 0 0 0 0 0 127 0"/>
<feOffset dx="2" dy="4"/>
<feGaussianBlur stdDeviation="2"/>
<feColorMatrix type="matrix" values="0 0 0 0 0 0 0 0 0 0 0 0 0 0 0 0 0 0 0.25 0"/>
<feBlend mode="normal" in2="BackgroundImageFix" result="effect1_dropShadow"/>
<feBlend mode="normal" in="SourceGraphic" in2="effect1_dropShadow" result="shape"/>
</filter>
</defs>
</svg>
