<svg width="383" height="158" viewBox="0 0 383 158" fill="none" xmlns="http://www.w3.org/2000/svg">
<path d="M13.8848 13.3691L16.0246 15.4848L13.8848 17.6005H2.13979L0 15.4848L2.13979 13.3691H13.8848ZM13.8848 28.8841L16.0246 30.9998L13.8848 33.1155H3.42366L1.28387 30.9998L3.42366 28.8841H13.8848ZM18.5448 33.4916V44.023L16.405 46.1387L14.2652 44.023V33.4916L16.405 31.3759L18.5448 33.4916ZM18.5448 17.9766V28.508L16.405 30.6237L14.2652 28.508V17.9766L16.405 15.8609L18.5448 17.9766ZM13.8848 48.6305H2.13979L0 46.5148L2.13979 44.3991H13.8848L16.0246 46.5148L13.8848 48.6305Z" fill="white"/>
<path d="M27.5067 13.3691H43.1509L38.8713 17.6005H27.5067L25.3669 15.4848L27.5067 13.3691ZM27.5067 28.8841H38.8713L41.0111 30.9998L38.8713 33.1155H27.5067L25.3669 30.9998L27.5067 28.8841ZM22.8467 33.4916L24.9865 31.3759L27.1263 33.4916V46.5148L24.9865 48.6305L22.8467 46.5148V33.4916ZM39.2517 17.9766L43.5313 13.7453V28.508L41.3915 30.6237L39.2517 28.508V17.9766ZM22.8467 17.9766L24.9865 15.8609L27.1263 17.9766V28.508L24.9865 30.6237L22.8467 28.508V17.9766ZM39.2517 33.4916L41.3915 31.3759L43.5313 33.4916V46.5148L41.3915 48.6305L39.2517 46.5148V33.4916Z" fill="white"/>
<path d="M48.2098 13.3691H64.2345L66.3743 15.4848L64.2345 17.6005H52.4894L48.2098 13.3691ZM52.4894 28.8841H64.2345L66.3743 30.9998L64.2345 33.1155H52.4894L50.3496 30.9998L52.4894 28.8841ZM47.8294 33.4916L49.9692 31.3759L52.109 33.4916V46.5148L49.9692 48.6305L47.8294 46.5148V33.4916ZM47.8294 13.7453L52.109 17.9766V28.508L49.9692 30.6237L47.8294 28.508V13.7453ZM68.8944 28.508L66.7547 30.6237L64.6149 28.508V17.9766L66.7547 15.8609L68.8944 17.9766V28.508Z" fill="white"/>
<path d="M89.2083 33.1155H77.8437L75.7039 30.9998L77.8437 28.8841H89.2083L91.3481 30.9998L89.2083 33.1155ZM93.8683 28.508L91.7285 30.6237L89.5887 28.508V17.9766L93.8683 13.7453V28.508ZM93.8683 33.4916V46.5148L91.7285 48.6305L89.5887 46.5148V33.4916L91.7285 31.3759L93.8683 33.4916ZM77.4632 28.508L75.3235 30.6237L73.1837 28.508V17.9766L75.3235 15.8609L77.4632 17.9766V28.508ZM86.1651 33.6797H89.0181V36.5006L76.75 48.6305H73.8969V45.8096L86.1651 33.6797ZM93.4879 13.3691L89.2083 17.6005H77.8437L75.7039 15.4848L77.8437 13.3691H93.4879Z" fill="white"/>
<path d="M108.485 17.6005L106.345 15.4848L108.437 13.3691H124.129L119.85 17.6005H108.485ZM120.23 28.8841V17.9766L124.51 13.7453V28.8841L122.37 30.9998L124.51 33.1155V44.023L122.37 46.1387L120.23 44.023V33.0215L122.37 30.9998L120.23 28.8841ZM103.825 28.8841V17.9766L105.965 15.8609L108.105 17.9766V28.8841L105.965 30.9998L108.105 33.1155V44.023L105.965 46.1387L103.825 44.023V33.1155L105.965 30.9998L103.825 28.8841ZM108.485 44.3991H119.85L121.989 46.5148L119.85 48.6305H108.437L106.345 46.5148L108.485 44.3991ZM98.1664 46.5148L100.306 44.3991H103.445L105.584 46.5148L103.445 48.6305H100.306L98.1664 46.5148ZM122.75 46.5148L124.89 44.3991H128.028L130.168 46.5148L128.028 48.6305H124.89L122.75 46.5148Z" fill="white"/>
<path d="M150.838 46.5148V33.1155L152.978 30.9998L150.838 28.8841V15.4848L152.978 13.3691L155.118 15.4848V28.8841L152.978 30.9998L155.118 33.1155V46.5148L152.978 48.6305L150.838 46.5148ZM138.713 33.1155V46.5148L136.573 48.6305L134.433 46.5148V33.1155L136.573 30.9998L134.433 28.8841V15.4848L136.573 13.3691L138.713 15.4848V28.8841L136.573 30.9998L138.713 33.1155ZM150.268 33.1155V35.9364L142.136 46.5148H139.283V43.6939L147.415 33.1155H150.268Z" fill="white"/>
<path d="M209.118 13.3691H220.444L222.576 15.4848L220.444 17.6005H209.118L206.985 15.4848L209.118 13.3691ZM204.474 17.9766L206.606 15.8609L208.739 17.9766V28.8841L206.606 30.9998L208.739 33.1155V44.023L206.606 46.1387L204.474 44.023V33.1155L206.606 30.9998L204.474 28.8841V17.9766ZM209.118 44.3991H220.444L222.576 46.5148L220.444 48.6305H209.118L206.985 46.5148L209.118 44.3991ZM222.956 37.676L225.088 39.7916V44.023L222.956 46.1387L220.823 44.023V39.7916L222.956 37.676ZM225.088 17.9766V22.208L222.956 24.3237L220.823 22.208V17.9766L222.956 15.8609L225.088 17.9766Z" fill="white"/>
<path d="M229.751 13.3691H247.853L249.986 15.4848L247.853 17.6005H234.016L229.751 13.3691ZM234.016 28.8841H245.342L247.474 30.9998L245.342 33.1155H234.016L231.883 30.9998L234.016 28.8841ZM229.372 33.4916L231.504 31.3759L233.637 33.4916V44.023L229.372 48.2544V33.4916ZM234.016 44.3991H245.342L247.474 46.5148L245.342 48.6305H229.751L234.016 44.3991ZM229.372 13.7453L233.637 17.9766V28.508L231.504 30.6237L229.372 28.508V13.7453ZM245.721 33.4916L247.853 31.3759L249.986 33.4916V44.023L247.853 46.1387L245.721 44.023V33.4916Z" fill="white"/>
<path d="M258.913 13.3691H270.239L272.372 15.4848L270.239 17.6005H258.913L256.781 15.4848L258.913 13.3691ZM258.913 44.3991H270.239L272.372 46.5148L270.239 48.6305H258.866L256.781 46.5148L258.913 44.3991ZM270.619 33.1155L272.751 30.9998L270.619 28.9782V17.9766L272.751 15.8609L274.884 17.9766V28.8841L272.751 30.9998L274.884 33.1155V44.023L272.751 46.1387L270.619 44.023V33.1155ZM254.269 33.1155L256.402 30.9998L254.269 28.8841V17.9766L256.402 15.8609L258.534 17.9766V28.8841L256.402 30.9998L258.534 33.1155V44.023L256.402 46.1387L254.269 44.023V33.1155Z" fill="white"/>
<path d="M279.546 13.3691H295.516L297.649 15.4848L295.516 17.6005H283.811L279.546 13.3691ZM283.811 28.8841H295.516L297.649 30.9998L295.516 33.1155H283.811L281.679 30.9998L283.811 28.8841ZM279.167 33.4916L281.3 31.3759L283.432 33.4916V46.5148L281.3 48.6305L279.167 46.5148V33.4916ZM279.167 13.7453L283.432 17.9766V28.508L281.3 30.6237L279.167 28.508V13.7453ZM300.16 28.508L298.028 30.6237L295.895 28.508V17.9766L298.028 15.8609L300.16 17.9766V28.508Z" fill="white"/>
<path d="M309.079 28.8841H320.405L322.538 30.9998L320.405 33.1155H309.079L306.947 30.9998L309.079 28.8841ZM304.435 33.4916L306.568 31.3759L308.7 33.4916V46.5148L306.568 48.6305L304.435 46.5148V33.4916ZM304.435 28.508V15.4848L306.568 13.3691L308.7 15.4848V28.508L306.568 30.6237L304.435 28.508ZM320.784 33.4916L322.917 31.3759L325.049 33.4916V46.5148L322.917 48.6305L320.784 46.5148V33.4916ZM320.784 28.508V15.4848L322.917 13.3691L325.049 15.4848V28.508L322.917 30.6237L320.784 28.508Z" fill="white"/>
<path d="M333.977 28.8841H345.303L347.435 30.9998L345.303 33.1155H333.977L331.844 30.9998L333.977 28.8841ZM345.303 48.6305H331.465L329.333 46.5148L331.465 44.3991H345.303L347.435 46.5148L345.303 48.6305ZM345.682 28.508V15.4848L347.814 13.3691L349.947 15.4848V28.508L347.814 30.6237L345.682 28.508ZM329.333 28.508V15.4848L331.465 13.3691L333.598 15.4848V28.508L331.465 30.6237L329.333 28.508ZM345.682 33.4916L347.814 31.3759L349.947 33.4916V44.023L347.814 46.1387L345.682 44.023V33.4916Z" fill="white"/>
<path d="M358.875 28.8841H363.14L365.272 30.9998L363.14 33.1155H358.875L356.742 30.9998L358.875 28.8841ZM354.23 33.4916L356.363 31.3759L358.495 33.4916V46.5148L356.363 48.6305L354.23 46.5148V33.4916ZM354.23 28.508V15.4848L356.363 13.3691L358.495 15.4848V28.508L356.363 30.6237L354.23 28.508ZM368.163 13.3691H378.115L380.247 15.4848L378.115 17.6005H368.163L366.03 15.4848L368.163 13.3691ZM368.163 44.3991H378.115L380.247 46.5148L378.115 48.6305H368.115L366.03 46.5148L368.163 44.3991ZM378.494 33.1155L380.626 30.9998L378.494 28.9782V17.9766L380.626 15.8609L382.759 17.9766V28.8841L380.626 30.9998L382.759 33.1155V44.023L380.626 46.1387L378.494 44.023V33.1155ZM363.519 17.9766L365.651 15.8609L367.784 17.9766V28.508L365.651 30.6237L363.519 28.508V17.9766ZM363.519 33.4916L365.651 31.3759L367.784 33.4916V44.023L365.651 46.1387L363.519 44.023V33.4916Z" fill="white"/>
<path d="M182.157 25.6477L187.576 0L165.899 36.3562H178.456H187.576L194.052 25.6477H182.157Z" fill="#D01319"/>
<path d="M177.795 36.356L172.376 62.0037L194.053 25.6475L181.496 25.6475L172.376 25.6475L165.899 36.356L177.795 36.356Z" fill="#D01319"/>
<path d="M178.588 28.0274L187.972 25.6477H182.156L187.576 0L178.588 28.0274Z" fill="#B1161B"/>
<path d="M181.627 33.8445L172.242 36.3564L177.793 36.3564L172.374 62.004L181.627 33.8445Z" fill="#B1161B"/>
<path d="M8.01745 93.8051H27.5702L31.2517 97.4924L27.5702 101.18H8.01745L4.33597 97.4924L8.01745 93.8051ZM0 101.835L3.68148 98.1479L7.36296 101.835V124.533L3.68148 128.22L0 124.533V101.835ZM0 93.1495V70.452L3.68148 66.7646L7.36296 70.452V93.1495L3.68148 96.8369L0 93.1495ZM28.2247 101.835L31.9062 98.1479L35.5876 101.835V124.533L31.9062 128.22L28.2247 124.533V101.835ZM28.2247 93.1495V70.452L31.9062 66.7646L35.5876 70.452V93.1495L31.9062 96.8369L28.2247 93.1495Z" fill="#006EBD"/>
<path d="M51 66.7646H77.9157L70.5527 74.1393H51L47.3185 70.452L51 66.7646ZM51 93.8051H70.5527L74.2342 97.4924L70.5527 101.18H51L47.3185 97.4924L51 93.8051ZM42.9826 101.835L46.664 98.1479L50.3455 101.835V124.533L46.664 128.22L42.9826 124.533V101.835ZM71.2072 74.7948L78.5702 67.4202V93.1495L74.8887 96.8369L71.2072 93.1495V74.7948ZM42.9826 74.7948L46.664 71.1075L50.3455 74.7948V93.1495L46.664 96.8369L42.9826 93.1495V74.7948ZM71.2072 101.835L74.8887 98.1479L78.5702 101.835V124.533L74.8887 128.22L71.2072 124.533V101.835Z" fill="#006EBD"/>
<path d="M107.552 66.7646H142.485L135.122 74.1393H114.915L107.552 66.7646ZM106.897 67.4202L114.26 74.7948V93.8051L110.579 97.4924L114.26 101.18V124.533L110.579 128.22L106.897 124.533V101.18L110.579 97.4924L106.897 93.8051V67.4202ZM135.776 74.7948L143.139 67.4202V93.8051L139.458 97.4924L143.139 101.18V124.533L139.458 128.22L135.776 124.533V101.18L139.458 97.4924L135.776 93.8051V74.7948Z" fill="#006EBD"/>
<path d="M158.536 66.7646H178.089L181.771 70.452L178.089 74.1393H158.536L154.855 70.452L158.536 66.7646ZM158.536 120.845H178.089L181.771 124.533L178.089 128.22H158.454L154.855 124.533L158.536 120.845ZM178.744 101.18L182.425 97.4924L178.744 93.9689V74.7948L182.425 71.1075L186.106 74.7948V93.8051L182.425 97.4924L186.106 101.18V120.19L182.425 123.877L178.744 120.19V101.18ZM150.519 101.18L154.2 97.4924L150.519 93.8051V74.7948L154.2 71.1075L157.882 74.7948V93.8051L154.2 97.4924L157.882 101.18V120.19L154.2 123.877L150.519 120.19V101.18Z" fill="#006EBD"/>
<path d="M194.156 66.7646H225.408L229.089 70.452L225.408 74.1393H201.519L194.156 66.7646ZM201.519 93.8051H221.072L224.753 97.4924L221.072 101.18H201.519L197.837 97.4924L201.519 93.8051ZM193.501 101.835L197.183 98.1479L200.864 101.835V120.19L193.501 127.565V101.835ZM201.519 120.845H221.072L224.753 124.533L221.072 128.22H194.156L201.519 120.845ZM193.501 67.4202L200.864 74.7948V93.1495L197.183 96.8369L193.501 93.1495V67.4202ZM221.726 101.835L225.408 98.1479L229.089 101.835V120.19L225.408 123.877L221.726 120.19V101.835Z" fill="#006EBD"/>
<path d="M237.138 66.7646H264.709L268.39 70.452L264.709 74.1393H244.501L237.138 66.7646ZM244.501 93.8051H264.709L268.39 97.4924L264.709 101.18H244.501L240.82 97.4924L244.501 93.8051ZM236.484 101.835L240.165 98.1479L243.847 101.835V120.19L236.484 127.565V101.835ZM236.484 67.4202L243.847 74.7948V93.1495L240.165 96.8369L236.484 93.1495V67.4202ZM237.138 128.22L244.501 120.845H264.709L268.39 124.533L264.709 128.22H237.138Z" fill="#006EBD"/>
<path d="M290.828 74.1393L287.146 70.452L290.746 66.7646H317.744L310.381 74.1393H290.828ZM311.035 93.8051V74.7948L318.398 67.4202V93.8051L314.717 97.4924L318.398 101.18V120.19L314.717 123.877L311.035 120.19V101.016L314.717 97.4924L311.035 93.8051ZM282.811 93.8051V74.7948L286.492 71.1075L290.173 74.7948V93.8051L286.492 97.4924L290.173 101.18V120.19L286.492 123.877L282.811 120.19V101.18L286.492 97.4924L282.811 93.8051ZM290.828 120.845H310.381L314.062 124.533L310.381 128.22H290.746L287.146 124.533L290.828 120.845ZM273.075 124.533L276.757 120.845H282.156L285.838 124.533L282.156 128.22H276.757L273.075 124.533ZM315.371 124.533L319.053 120.845H324.452L328.134 124.533L324.452 128.22H319.053L315.371 124.533Z" fill="#006EBD"/>
<path d="M336.126 128.22L343.489 120.845H360.015L363.696 124.533L360.015 128.22H336.126ZM343.489 101.18L339.808 97.4924L343.489 93.8051H360.015L363.696 97.4924L360.015 101.18H343.489ZM335.472 93.1495V70.452L339.153 66.7646L342.835 70.452V93.1495L339.153 96.8369L335.472 93.1495ZM335.472 127.565V101.835L339.153 98.1479L342.835 101.835V120.19L335.472 127.565ZM368.032 101.835V120.19L364.351 123.877L360.669 120.19V101.835L364.351 98.1479L368.032 101.835ZM375.395 101.18L379.077 97.4924L375.395 93.8051V70.452L379.077 66.7646L382.758 70.452V93.8051L379.077 97.4924L382.758 101.18V124.533L379.077 128.22L375.395 124.533V101.18Z" fill="#006EBD"/>
<path d="M8.23879 156.948V150.282L9.24973 149.23L8.23879 148.177V141.511L9.24973 140.459L10.2607 141.511V148.177L9.24973 149.23L10.2607 150.282V156.948L9.24973 158L8.23879 156.948ZM2.51015 150.282V156.948L1.49922 158L0.488281 156.948V150.282L1.49922 149.23L0.488281 148.177V141.511L1.49922 140.459L2.51015 141.511V148.177L1.49922 149.23L2.51015 150.282ZM7.96921 150.282V151.685L4.12765 156.948H2.77974V155.544L6.6213 150.282H7.96921Z" fill="#E30613"/>
<path d="M18.219 140.459H25.6101L26.621 141.511L25.6101 142.564H20.2409L18.219 140.459ZM20.2409 148.177H25.6101L26.621 149.23L25.6101 150.282H20.2409L19.2299 149.23L20.2409 148.177ZM18.0393 150.469L19.0502 149.417L20.0611 150.469V155.708L18.0393 157.813V150.469ZM20.2409 155.895H25.6101L26.621 156.948L25.6101 158H18.219L20.2409 155.895ZM25.7898 142.751L26.8007 141.699L27.8116 142.751V147.99L26.8007 149.042L25.7898 147.99V142.751ZM18.0393 140.646L20.0611 142.751V147.99L19.0502 149.042L18.0393 147.99V140.646ZM25.7898 150.469L26.8007 149.417L27.8116 150.469V155.708L26.8007 156.76L25.7898 155.708V150.469Z" fill="#E30613"/>
<path d="M30.022 158L32.0439 155.895H36.5819L37.5928 156.948L36.5819 158H30.022ZM32.0439 150.282L31.033 149.23L32.0439 148.177H36.5819L37.5928 149.23L36.5819 150.282H32.0439ZM29.8423 147.99V141.511L30.8532 140.459L31.8642 141.511V147.99L30.8532 149.042L29.8423 147.99ZM29.8423 157.813V150.469L30.8532 149.417L31.8642 150.469V155.708L29.8423 157.813ZM38.7835 150.469V155.708L37.7725 156.76L36.7616 155.708V150.469L37.7725 149.417L38.7835 150.469ZM40.8053 150.282L41.8163 149.23L40.8053 148.177V141.511L41.8163 140.459L42.8272 141.511V148.177L41.8163 149.23L42.8272 150.282V156.948L41.8163 158L40.8053 156.948V150.282Z" fill="#E30613"/>
<path d="M52.5989 156.948V150.282L53.6098 149.23L52.5989 148.177V141.511L53.6098 140.459L54.6208 141.511V148.177L53.6098 149.23L54.6208 150.282V156.948L53.6098 158L52.5989 156.948ZM46.8703 150.282V156.948L45.8593 158L44.8484 156.948V150.282L45.8593 149.23L44.8484 148.177V141.511L45.8593 140.459L46.8703 141.511V148.177L45.8593 149.23L46.8703 150.282ZM52.3293 150.282V151.685L48.4878 156.948H47.1398V155.544L50.9814 150.282H52.3293Z" fill="#E30613"/>
<path d="M56.8311 140.459H64.4019L65.4129 141.511L64.4019 142.564H58.853L56.8311 140.459ZM56.6514 140.646L58.6733 142.751V148.177L57.6623 149.23L58.6733 150.282V156.948L57.6623 158L56.6514 156.948V150.282L57.6623 149.23L56.6514 148.177V140.646Z" fill="#E30613"/>
<path d="M67.625 140.459H75.1958L76.2067 141.511L75.1958 142.564H69.6469L67.625 140.459ZM69.6469 148.177H75.1958L76.2067 149.23L75.1958 150.282H69.6469L68.6359 149.23L69.6469 148.177ZM67.4453 150.469L68.4562 149.417L69.4671 150.469V156.948L68.4562 158L67.4453 156.948V150.469ZM67.4453 140.646L69.4671 142.751V147.99L68.4562 149.042L67.4453 147.99V140.646ZM77.3974 147.99L76.3864 149.042L75.3755 147.99V142.751L76.3864 141.699L77.3974 142.751V147.99Z" fill="#E30613"/>
<path d="M81.6254 140.459H89.0165L86.9946 142.564H81.6254L80.6145 141.511L81.6254 140.459ZM81.6254 148.177H86.9946L88.0055 149.23L86.9946 150.282H81.6254L80.6145 149.23L81.6254 148.177ZM79.4238 150.469L80.4347 149.417L81.4457 150.469V156.948L80.4347 158L79.4238 156.948V150.469ZM87.1743 142.751L89.1962 140.646V147.99L88.1853 149.042L87.1743 147.99V142.751ZM79.4238 142.751L80.4347 141.699L81.4457 142.751V147.99L80.4347 149.042L79.4238 147.99V142.751ZM87.1743 150.469L88.1853 149.417L89.1962 150.469V156.948L88.1853 158L87.1743 156.948V150.469Z" fill="#E30613"/>
<path d="M98.9774 156.948V150.282L99.9883 149.23L98.9774 148.177V141.511L99.9883 140.459L100.999 141.511V148.177L99.9883 149.23L100.999 150.282V156.948L99.9883 158L98.9774 156.948ZM93.2487 150.282V156.948L92.2378 158L91.2268 156.948V150.282L92.2378 149.23L91.2268 148.177V141.511L92.2378 140.459L93.2487 141.511V148.177L92.2378 149.23L93.2487 150.282ZM98.7078 150.282V151.685L94.8662 156.948H93.5183V155.544L97.3598 150.282H98.7078ZM95.9895 138.986V140.459H94.5517L93.5183 139.383V137.933H94.9785L95.9895 138.986ZM98.7078 137.933V139.407L97.6968 140.459H96.2591V138.986L97.27 137.933H98.7078Z" fill="#E30613"/>
<path d="M108.958 140.459H116.349L117.36 141.511L116.349 142.564H110.979L108.958 140.459ZM110.979 148.177H116.349L117.36 149.23L116.349 150.282H110.979L109.968 149.23L110.979 148.177ZM108.778 150.469L109.789 149.417L110.8 150.469V155.708L108.778 157.813V150.469ZM110.979 155.895H116.349L117.36 156.948L116.349 158H108.958L110.979 155.895ZM116.528 142.751L117.539 141.699L118.55 142.751V147.99L117.539 149.042L116.528 147.99V142.751ZM108.778 140.646L110.8 142.751V147.99L109.789 149.042L108.778 147.99V140.646ZM116.528 150.469L117.539 149.417L118.55 150.469V155.708L117.539 156.76L116.528 155.708V150.469Z" fill="#E30613"/>
<path d="M122.782 140.459H128.152L129.163 141.511L128.152 142.564H122.782L121.772 141.511L122.782 140.459ZM120.581 142.751L121.592 141.699L122.603 142.751V148.177L121.592 149.23L122.603 150.282V155.708L121.592 156.76L120.581 155.708V150.282L121.592 149.23L120.581 148.177V142.751ZM122.782 155.895H128.152L129.163 156.948L128.152 158H122.782L121.772 156.948L122.782 155.895ZM129.342 152.551L130.353 153.603V155.708L129.342 156.76L128.331 155.708V153.603L129.342 152.551ZM130.353 142.751V144.856L129.342 145.908L128.331 144.856V142.751L129.342 141.699L130.353 142.751Z" fill="#E30613"/>
<path d="M136.607 142.751L137.618 141.699L138.629 142.728V148.177L137.618 149.23L138.629 150.282V156.948L137.618 158L136.607 156.948V150.282L137.618 149.23L136.607 148.177V142.751ZM137.798 141.511L138.809 140.459H142.853L143.864 141.511L142.853 142.564H138.809L137.798 141.511ZM136.428 142.564H132.384L131.373 141.511L132.384 140.459H136.428L137.439 141.511L136.428 142.564Z" fill="#E30613"/>
<path d="M145.047 140.459H152.618L153.628 141.511L152.618 142.564H147.069L145.047 140.459ZM147.069 148.177H152.618L153.628 149.23L152.618 150.282H147.069L146.058 149.23L147.069 148.177ZM144.867 150.469L145.878 149.417L146.889 150.469V156.948L145.878 158L144.867 156.948V150.469ZM144.867 140.646L146.889 142.751V147.99L145.878 149.042L144.867 147.99V140.646ZM154.819 147.99L153.808 149.042L152.797 147.99V142.751L153.808 141.699L154.819 142.751V147.99Z" fill="#E30613"/>
<path d="M157.025 140.459H164.596L165.607 141.511L164.596 142.564H159.047L157.025 140.459ZM159.047 148.177H164.596L165.607 149.23L164.596 150.282H159.047L158.036 149.23L159.047 148.177ZM156.846 150.469L157.857 149.417L158.867 150.469V155.708L156.846 157.813V150.469ZM156.846 140.646L158.867 142.751V147.99L157.857 149.042L156.846 147.99V140.646ZM157.025 158L159.047 155.895H164.596L165.607 156.948L164.596 158H157.025Z" fill="#E30613"/>
<path d="M166.893 141.511L167.904 140.459L168.915 141.511V147.99L167.904 149.042L166.893 147.99V141.511ZM176.666 147.99L175.655 149.042L174.644 147.99V141.511L175.655 140.459L176.666 141.511V147.99ZM169.095 148.177H174.464L175.475 149.23L174.464 150.282H169.028L168.084 149.23L169.095 148.177ZM174.644 150.469L175.655 149.417L176.666 150.469V156.948L175.655 158L174.644 156.948V150.469Z" fill="#E30613"/>
<path d="M180.898 148.177H186.267L187.278 149.23L186.267 150.282H180.898L179.887 149.23L180.898 148.177ZM186.267 158H179.707L178.697 156.948L179.707 155.895H186.267L187.278 156.948L186.267 158ZM186.447 147.99V141.511L187.458 140.459L188.469 141.511V147.99L187.458 149.042L186.447 147.99ZM178.697 147.99V141.511L179.707 140.459L180.718 141.511V147.99L179.707 149.042L178.697 147.99ZM186.447 150.469L187.458 149.417L188.469 150.469V155.708L187.458 156.76L186.447 155.708V150.469Z" fill="#E30613"/>
<path d="M198.449 140.459H203.818L204.829 141.511L203.818 142.564H198.449L197.438 141.511L198.449 140.459ZM196.248 142.751L197.258 141.699L198.269 142.751V148.177L197.258 149.23L198.269 150.282V155.708L197.258 156.76L196.248 155.708V150.282L197.258 149.23L196.248 148.177V142.751ZM198.449 155.895H203.818L204.829 156.948L203.818 158H198.449L197.438 156.948L198.449 155.895ZM205.009 152.551L206.02 153.603V155.708L205.009 156.76L203.998 155.708V153.603L205.009 152.551ZM206.02 142.751V144.856L205.009 145.908L203.998 144.856V142.751L205.009 141.699L206.02 142.751Z" fill="#E30613"/>
<path d="M216 148.177H221.369L222.38 149.23L221.369 150.282H216L214.989 149.23L216 148.177ZM213.798 150.469L214.809 149.417L215.82 150.469V156.948L214.809 158L213.798 156.948V150.469ZM213.798 147.99V141.511L214.809 140.459L215.82 141.511V147.99L214.809 149.042L213.798 147.99ZM221.549 150.469L222.56 149.417L223.571 150.469V156.948L222.56 158L221.549 156.948V150.469ZM221.549 147.99V141.511L222.56 140.459L223.571 141.511V147.99L222.56 149.042L221.549 147.99Z" fill="#E30613"/>
<path d="M227.803 140.459H235.194L233.172 142.564H227.803L226.792 141.511L227.803 140.459ZM227.803 148.177H233.172L234.183 149.23L233.172 150.282H227.803L226.792 149.23L227.803 148.177ZM225.602 150.469L226.612 149.417L227.623 150.469V156.948L226.612 158L225.602 156.948V150.469ZM233.352 142.751L235.374 140.646V147.99L234.363 149.042L233.352 147.99V142.751ZM225.602 142.751L226.612 141.699L227.623 142.751V147.99L226.612 149.042L225.602 147.99V142.751ZM233.352 150.469L234.363 149.417L235.374 150.469V156.948L234.363 158L233.352 156.948V150.469Z" fill="#E30613"/>
<path d="M245.402 158L244.391 156.948L245.402 155.895H248.817L249.828 156.948L248.817 158H245.402ZM243.201 141.511L244.212 140.459L245.222 141.511V148.177L244.212 149.23L245.222 150.282V155.708L244.212 156.76L243.201 155.708V150.282L244.212 149.23L243.201 148.177V141.511ZM243.021 158H239.606L238.595 156.948L239.606 155.895H243.021L244.032 156.948L243.021 158ZM248.997 141.511L250.008 140.459L251.018 141.511V148.177L250.008 149.23L251.018 150.282V155.708L250.008 156.76L248.997 155.708V150.282L250.008 149.23L248.997 148.177V141.511ZM237.405 141.511L238.416 140.459L239.426 141.511V148.177L238.416 149.23L239.426 150.282V155.708L238.416 156.76L237.405 155.708V150.282L238.416 149.23L237.405 148.177V141.511Z" fill="#E30613"/>
<path d="M260.797 156.948V150.282L261.808 149.23L260.797 148.177V141.511L261.808 140.459L262.819 141.511V148.177L261.808 149.23L262.819 150.282V156.948L261.808 158L260.797 156.948ZM255.069 150.282V156.948L254.058 158L253.047 156.948V150.282L254.058 149.23L253.047 148.177V141.511L254.058 140.459L255.069 141.511V148.177L254.058 149.23L255.069 150.282ZM260.528 150.282V151.685L256.686 156.948H255.338V155.544L259.18 150.282H260.528Z" fill="#E30613"/>
<path d="M266.872 148.177L265.861 149.23L266.872 150.282V156.948L265.861 158L264.85 156.948V150.282L265.861 149.23L264.85 148.177V141.511L265.861 140.459L266.872 141.511V148.177ZM271.567 146.002V149.23L267.141 142.915V141.511H268.489L271.567 146.002ZM276.532 148.177V141.511L277.543 140.459L278.554 141.511V148.177L277.543 149.23L278.554 150.282V156.948L277.543 158L276.532 156.948V150.282L277.543 149.23L276.532 148.177ZM271.837 146.002L274.914 141.511H276.262V142.915L271.837 149.23V146.002Z" fill="#E30613"/>
<path d="M288.331 156.948V150.282L289.341 149.23L288.331 148.177V141.511L289.341 140.459L290.352 141.511V148.177L289.341 149.23L290.352 150.282V156.948L289.341 158L288.331 156.948ZM282.602 150.282V156.948L281.591 158L280.58 156.948V150.282L281.591 149.23L280.58 148.177V141.511L281.591 140.459L282.602 141.511V148.177L281.591 149.23L282.602 150.282ZM288.061 150.282V151.685L284.219 156.948H282.871V155.544L286.713 150.282H288.061Z" fill="#E30613"/>
<path d="M298.311 140.459H307.903L305.881 142.564H300.333L298.311 140.459ZM298.131 140.646L300.153 142.751V148.177L299.142 149.23L300.153 150.282V156.948L299.142 158L298.131 156.948V150.282L299.142 149.23L298.131 148.177V140.646ZM306.061 142.751L308.083 140.646V148.177L307.072 149.23L308.083 150.282V156.948L307.072 158L306.061 156.948V150.282L307.072 149.23L306.061 148.177V142.751Z" fill="#E30613"/>
<path d="M312.311 140.459H319.702L317.68 142.564H312.311L311.3 141.511L312.311 140.459ZM312.311 148.177H317.68L318.691 149.23L317.68 150.282H312.311L311.3 149.23L312.311 148.177ZM310.109 150.469L311.12 149.417L312.131 150.469V156.948L311.12 158L310.109 156.948V150.469ZM317.86 142.751L319.882 140.646V147.99L318.871 149.042L317.86 147.99V142.751ZM310.109 142.751L311.12 141.699L312.131 142.751V147.99L311.12 149.042L310.109 147.99V142.751ZM317.86 150.469L318.871 149.417L319.882 150.469V156.948L318.871 158L317.86 156.948V150.469Z" fill="#E30613"/>
<path d="M322.092 140.459H329.663L330.674 141.511L329.663 142.564H324.114L322.092 140.459ZM324.114 148.177H329.663L330.674 149.23L329.663 150.282H324.114L323.103 149.23L324.114 148.177ZM321.913 150.469L322.923 149.417L323.934 150.469V156.948L322.923 158L321.913 156.948V150.469ZM321.913 140.646L323.934 142.751V147.99L322.923 149.042L321.913 147.99V140.646ZM331.865 147.99L330.854 149.042L329.843 147.99V142.751L330.854 141.699L331.865 142.751V147.99Z" fill="#E30613"/>
<path d="M336.093 148.177H341.462L342.473 149.23L341.462 150.282H336.093L335.082 149.23L336.093 148.177ZM333.891 150.469L334.902 149.417L335.913 150.469V156.948L334.902 158L333.891 156.948V150.469ZM333.891 147.99V141.511L334.902 140.459L335.913 141.511V147.99L334.902 149.042L333.891 147.99ZM341.642 150.469L342.653 149.417L343.663 150.469V156.948L342.653 158L341.642 156.948V150.469ZM341.642 147.99V141.511L342.653 140.459L343.663 141.511V147.99L342.653 149.042L341.642 147.99Z" fill="#E30613"/>
<path d="M353.265 150.282H347.896L346.885 149.23L347.896 148.177H353.265L354.276 149.23L353.265 150.282ZM355.466 147.99L354.456 149.042L353.445 147.99V142.751L355.466 140.646V147.99ZM355.466 150.469V156.948L354.456 158L353.445 156.948V150.469L354.456 149.417L355.466 150.469ZM347.716 147.99L346.705 149.042L345.694 147.99V142.751L346.705 141.699L347.716 142.751V147.99ZM351.827 150.563H353.175V151.966L347.379 158H346.031V156.597L351.827 150.563ZM355.287 140.459L353.265 142.564H347.896L346.885 141.511L347.896 140.459H355.287Z" fill="#E30613"/>
<path d="M359.519 148.177L358.508 149.23L359.519 150.282V156.948L358.508 158L357.497 156.948V150.282L358.508 149.23L357.497 148.177V141.511L358.508 140.459L359.519 141.511V148.177ZM364.214 146.002V149.23L359.789 142.915V141.511H361.137L364.214 146.002ZM369.179 148.177V141.511L370.19 140.459L371.201 141.511V148.177L370.19 149.23L371.201 150.282V156.948L370.19 158L369.179 156.948V150.282L370.19 149.23L369.179 148.177ZM364.484 146.002L367.562 141.511H368.909V142.915L364.484 149.23V146.002Z" fill="#E30613"/>
<path d="M380.978 156.948V150.282L381.989 149.23L380.978 148.177V141.511L381.989 140.459L383 141.511V148.177L381.989 149.23L383 150.282V156.948L381.989 158L380.978 156.948ZM375.249 150.282V156.948L374.238 158L373.227 156.948V150.282L374.238 149.23L373.227 148.177V141.511L374.238 140.459L375.249 141.511V148.177L374.238 149.23L375.249 150.282ZM380.708 150.282V151.685L376.867 156.948H375.519V155.544L379.36 150.282H380.708Z" fill="#E30613"/>
</svg>
