<svg width="131" height="137" viewBox="0 0 131 137" fill="none" xmlns="http://www.w3.org/2000/svg">
<g filter="url(#filter0_d)">
<path d="M117.591 28.7945V27.2391C117.591 25.2031 115.934 23.5465 113.899 23.5465H113.304C111.269 23.5465 109.612 21.8899 109.612 19.8539V12.4688C109.612 5.57681 104.036 0 97.1455 0H29.3867C22.4958 0 16.9198 5.57681 16.9198 12.4688V19.8666C16.9198 21.9026 15.2635 23.5592 13.2278 23.5592H13.0634C11.0278 23.5592 9.3714 25.2158 9.3714 27.2517V28.8072C9.3714 30.8432 7.71505 32.4998 5.67938 32.4998C3.65635 32.4745 2 34.1311 2 36.167V70.3487V71.373V83.9556C2 85.9916 3.65635 87.6355 5.69202 87.6355C7.72769 87.6355 9.38405 89.2921 9.38405 91.3281V92.8835C9.38405 94.9195 11.0404 96.5761 13.0761 96.5761H13.2531C15.2888 96.5761 16.9451 98.2327 16.9451 100.269V116.531C16.9451 123.423 22.5211 129 29.412 129H97.1707C104.062 129 109.638 123.423 109.638 116.531V100.256C109.638 98.2201 111.294 96.5635 113.33 96.5635H113.924C115.96 96.5635 117.616 94.9069 117.616 92.8709V91.3155C117.616 89.2795 119.272 87.6229 121.308 87.6229C123.344 87.6229 125 85.9663 125 83.9303V47.6115V44.4627V36.167C125 34.1311 123.344 32.4745 121.308 32.4745C119.234 32.4745 117.591 30.8305 117.591 28.7945Z" fill="white"/>
</g>
<path d="M97.1449 3.79376H29.3861C24.6067 3.79376 20.7124 7.68867 20.7124 12.4688V116.519C20.7124 121.299 24.6067 125.194 29.3861 125.194H97.1449C101.924 125.194 105.819 121.299 105.819 116.519V12.4688C105.819 7.68867 101.924 3.79376 97.1449 3.79376ZM103.34 116.519C103.34 119.933 100.559 122.715 97.1449 122.715H29.3861C25.9723 122.715 23.1906 119.933 23.1906 116.519V109.842H103.34V116.519ZM103.34 107.363H23.1906V20.0436H103.34V107.363ZM103.34 17.5651H23.1906V12.4688C23.1906 9.05442 25.9723 6.27234 29.3861 6.27234H97.1449C100.559 6.27234 103.34 9.05442 103.34 12.4688V17.5651Z" fill="#323232"/>
<path d="M23.1909 109.842V116.519C23.1909 119.933 25.9726 122.715 29.3864 122.715H97.1452C100.559 122.715 103.341 119.933 103.341 116.519V109.842H23.1909ZM63.2595 120.616C60.8698 120.616 58.9353 118.668 58.9353 116.278C58.9353 113.888 60.8698 111.941 63.2595 111.941C65.6492 111.941 67.5964 113.888 67.5964 116.278C67.5964 118.668 65.6492 120.616 63.2595 120.616Z" fill="#CCCCCC"/>
<path d="M23.1909 20.0436V107.363H103.341V20.0436H23.1909ZM28.1473 83.0704H30.6255V87.2815H28.1473V83.0704ZM42.9407 102.962H28.1473V90.4682H30.6255V100.484H42.9407V102.962ZM98.3843 87.8126H95.9061V65.2019H98.3843V87.8126ZM98.3843 61.9139H95.9061V56.0589H98.3843V61.9139ZM98.3843 53.2516H95.9061V48.9014H98.3843V53.2516Z" fill="#3160F4"/>
<path d="M41.0367 48.95V55.4014H46.2365V50.8911L49.2078 47.6369H52.2934L55.2076 50.8911V57.9705L40.8081 74.6415V85.4319H60.8074V76.0688H55.5504V80.5791H45.9508V76.5255L60.4645 59.9117V48.95L54.6362 42.4415H46.8079L41.0367 48.95Z" fill="#FEBD2C"/>
<path d="M73.485 47.8652H85.5417V42.6698H68.5709L67.5424 63.1659H78.6848L81.7704 66.8769V76.9822L78.7419 80.3507H75.3706L72.3422 76.9822V71.3301H67.1424V78.9805L73.085 85.5461H81.0276L86.9131 78.9805V64.9358L81.0276 58.0276H72.9707L73.485 47.8652Z" fill="#FEBD2C"/>
<path d="M97.1452 6.27228H29.3864C25.9726 6.27228 23.1909 9.05436 23.1909 12.4687V17.565H103.341V12.4687C103.341 9.05436 100.559 6.27228 97.1452 6.27228ZM68.8481 13.1516H57.6709V10.673H68.8481V13.1516Z" fill="#CCCCCC"/>
<path d="M98.3845 48.9014H95.9062V53.2515H98.3845V48.9014Z" fill="white"/>
<path d="M98.3845 56.0589H95.9062V61.9139H98.3845V56.0589Z" fill="white"/>
<path d="M98.3845 65.2019H95.9062V87.8126H98.3845V65.2019Z" fill="white"/>
<path d="M42.9413 100.484V102.962H28.1479V90.4682H30.6262V100.484H42.9413Z" fill="white"/>
<path d="M30.6262 83.0704H28.1479V87.2814H30.6262V83.0704Z" fill="white"/>
<path d="M113.798 82.8681H111.319V92.7824H113.798V82.8681Z" fill="#323232"/>
<path d="M113.798 27.3403H111.319V75.6726H113.798V27.3403Z" fill="#323232"/>
<path d="M121.169 48.2565H118.691V83.8418H121.169V48.2565Z" fill="#323232"/>
<path d="M121.169 36.2683H118.691V43.8179H121.169V36.2683Z" fill="#323232"/>
<path d="M8.27166 74.1425H5.79346V83.8544H8.27166V74.1425Z" fill="#323232"/>
<path d="M8.27166 36.2683H5.79346V67.5667H8.27166V36.2683Z" fill="#323232"/>
<path d="M15.6428 42.9198H13.1646V92.7696H15.6428V42.9198Z" fill="#323232"/>
<path d="M15.6428 27.3403H13.1646V36.2682H15.6428V27.3403Z" fill="#323232"/>
<path d="M68.8481 10.673H57.6709V13.1516H68.8481V10.673Z" fill="#323232"/>
<path d="M63.2593 111.941C60.8696 111.941 58.9351 113.888 58.9351 116.278C58.9351 118.668 60.8696 120.616 63.2593 120.616C65.649 120.616 67.5961 118.668 67.5961 116.278C67.5961 113.888 65.649 111.941 63.2593 111.941ZM63.2593 118.137C62.2351 118.137 61.4133 117.303 61.4133 116.278C61.4133 115.254 62.2351 114.419 63.2593 114.419C64.2834 114.419 65.1179 115.254 65.1179 116.278C65.1179 117.303 64.2834 118.137 63.2593 118.137Z" fill="#323232"/>
<path d="M65.1187 116.278C65.1187 117.303 64.2842 118.137 63.2601 118.137C62.2359 118.137 61.4141 117.303 61.4141 116.278C61.4141 115.254 62.2359 114.419 63.2601 114.419C64.2842 114.419 65.1187 115.254 65.1187 116.278Z" fill="#B1161B"/>
<defs>
<filter id="filter0_d" x="0" y="0" width="131" height="137" filterUnits="userSpaceOnUse" color-interpolation-filters="sRGB">
<feFlood flood-opacity="0" result="BackgroundImageFix"/>
<feColorMatrix in="SourceAlpha" type="matrix" values="0 0 0 0 0 0 0 0 0 0 0 0 0 0 0 0 0 0 127 0"/>
<feOffset dx="2" dy="4"/>
<feGaussianBlur stdDeviation="2"/>
<feColorMatrix type="matrix" values="0 0 0 0 0 0 0 0 0 0 0 0 0 0 0 0 0 0 0.25 0"/>
<feBlend mode="normal" in2="BackgroundImageFix" result="effect1_dropShadow"/>
<feBlend mode="normal" in="SourceGraphic" in2="effect1_dropShadow" result="shape"/>
</filter>
</defs>
</svg>
