<svg width="202" height="72" viewBox="0 0 202 72" fill="none" xmlns="http://www.w3.org/2000/svg">
<rect x="6" width="190" height="72" fill="#FEBD2C"/>
<mask id="mask0" mask-type="alpha" maskUnits="userSpaceOnUse" x="6" y="0" width="190" height="72">
<rect x="6" width="190" height="72" fill="#FEBD2C"/>
</mask>
<g mask="url(#mask0)">
<path d="M23.509 33.5293C23.509 33.5293 2.37655 54.0499 -21.3516 40.1349C-21.3516 40.1349 4.18774 54.4694 26.2417 25.0303C26.24 25.0339 22.7537 33.2768 23.509 33.5293Z" fill="white"/>
<path d="M34.1519 51.4764C34.1519 51.4764 3.67631 66.3724 -23.8017 40.7679C-23.8017 40.7679 1.87397 64.1281 29.066 48.2905C29.0677 48.287 33.4278 49.9656 34.1519 51.4764Z" fill="#E30613"/>
<path d="M25.5759 44.7197C25.5759 44.7197 9.18839 55.2129 -13.2436 45.8647C-13.2436 45.8647 9.77773 54.0152 23.7855 39.5269C23.7819 39.5253 24.6097 42.8526 25.5759 44.7197Z" fill="#0878CA"/>
<ellipse cx="40.7787" cy="34.8226" rx="17.124" ry="17.7145" fill="#FBFBFB"/>
<path d="M38.366 16.6686C29.2567 17.8182 22.5558 25.5464 22.4227 34.4786L22.4139 34.4786C22.4155 34.4997 22.4208 34.5191 22.4225 34.5402C22.4143 35.3659 22.4589 36.2005 22.5651 37.0442C23.828 47.02 32.9684 54.106 42.9407 52.845C52.9165 51.5822 60.0026 42.4417 58.7415 32.4694C57.4823 22.4918 48.3418 15.4058 38.366 16.6686ZM49.6853 45.7191C48.8389 45.5982 46.8543 45.2374 45.4102 44.3627C45.2484 41.7936 44.931 37.386 44.8807 36.6728C45.8483 35.8505 48.4387 33.6131 49.3615 32.5143C50.8425 32.8874 53.734 33.6773 55.2353 34.304C55.812 36.026 55.8048 38.1121 55.7318 39.3477C54.3562 42.5911 50.818 45.0082 49.6853 45.7191ZM37.2774 33.5479C35.2223 34.7291 31.7654 36.5656 30.8782 37.0361C30.019 36.5701 28.0528 35.4577 27.1632 34.6113C26.6655 30.9125 27.572 27.4141 27.8678 26.4063C28.9113 25.5156 31.3476 23.5524 33.1522 23.0094C34.0835 23.5319 36.6082 25.0002 38.2894 26.5306C38.0735 27.8766 37.3894 32.2227 37.2774 33.5479ZM24.6778 37.5216C24.3619 37.2476 24.0006 36.8467 23.698 36.2805C23.3436 32.3833 24.3495 28.6511 26.332 25.5683L27.0805 26.511C26.7203 27.8055 26.0106 30.9296 26.3948 34.3551C25.9278 34.9996 25.0482 36.3099 24.6778 37.5216ZM38.6894 25.9193C36.9888 24.3941 34.5889 22.9827 33.5873 22.4246C33.9773 21.6602 35.5245 19.729 35.5245 19.729C35.5738 19.7133 40.441 18.3641 44.1129 18.9913C45.2293 19.4265 47.0187 20.2267 47.7726 21.1184C47.1045 22.3942 46.2044 24.0617 45.5881 25.0965C44.2646 24.9792 40.0348 25.3184 38.6894 25.9193ZM55.2819 33.5471C53.552 32.858 50.7132 32.1123 49.6174 31.8338C49.1925 30.9944 46.991 26.6858 46.2012 25.4736C46.9237 24.272 47.8983 22.4356 48.3839 21.5096C49.3545 21.8545 52.5046 23.228 52.5046 23.228C52.5308 23.2633 55.2479 26.6353 56.5083 31.2082C56.5119 31.2064 55.657 33.0273 55.2819 33.5471ZM57.1488 30.7984C56.4513 28.3718 55.3916 26.3136 54.5233 24.8899C55.7777 26.6495 56.7144 28.6632 57.2296 30.8639C57.1997 30.8391 57.1716 30.8179 57.1488 30.7984ZM43.4686 17.9662C43.449 18.033 43.433 18.0981 43.4116 18.1614C39.744 17.8001 35.5218 18.9702 35.3297 19.0259L35.3332 19.0418L34.3177 18.952C35.6364 18.4214 37.0426 18.0495 38.5185 17.8627C40.2075 17.6538 41.8711 17.6948 43.4686 17.9662ZM24.6202 38.3893C24.8738 39.3796 25.7837 42.5182 27.4994 44.2424C27.565 44.6229 27.6912 45.2852 27.8543 45.9777C25.871 43.7226 24.4653 40.9221 23.8988 37.7847C24.1602 38.0461 24.413 38.246 24.6202 38.3893ZM28.9173 47.0764C28.6891 46.3943 28.4671 45.4411 28.308 44.6149C29.0526 44.628 30.6636 44.5896 31.9153 44.0922C31.9153 44.0922 31.2246 39.1974 31.2475 37.6571C32.177 37.1656 35.5158 35.3921 37.5638 34.2144C38.7211 35.0511 42.8455 36.6886 44.1702 36.9503C44.2491 38.0579 44.5194 41.8298 44.6714 44.2105C44.1608 44.714 42.6335 46.0202 39.4231 47.3171C36.9262 46.9511 31.7643 43.4597 31.7134 43.4278L31.91 44.0904L31.4396 44.1786C31.6364 44.3096 36.261 47.3818 38.9737 47.9705C39.2952 48.6547 39.9488 50.0442 40.3337 50.7409C39.2333 51.2688 37.946 51.3928 37.1097 51.4075C34.0047 50.7453 31.1721 49.2232 28.9173 47.0764ZM39.721 51.7564C40.2286 51.6014 40.7346 51.3902 41.1986 51.0943C42.4085 50.9647 45.1507 50.6468 46.5235 50.2695C46.6975 50.3546 46.9437 50.4259 47.2834 50.4376C45.8818 51.0313 44.3769 51.4433 42.7935 51.6438C41.7526 51.7775 40.7279 51.8109 39.721 51.7564ZM50.0843 48.9263C48.6913 49.5728 47.8493 49.7178 47.3599 49.7055C47.9486 48.9963 49.1845 47.4831 49.7705 46.5204C50.4074 46.1476 54.1811 43.8422 56.015 40.4332L56.6892 40.4725C55.4536 43.9188 53.1282 46.8947 50.0843 48.9263Z" fill="#323232"/>
<path d="M38.414 30.7176C38.414 30.7176 39.076 26.6549 39.6134 26.516C40.7869 26.2155 44.9887 25.8463 45.4824 26.1508C45.9795 26.4536 47.876 29.8896 47.876 29.8896C47.876 29.8896 45.4773 26.5927 45.2133 26.5918C43.312 26.5852 40.0416 26.91 39.7384 27.5216C38.5274 29.9892 38.7873 30.1855 38.414 30.7176Z" fill="#FBFBFB"/>
<path d="M41.7952 47.1036C41.9908 47.0374 44.7367 45.1491 45.0972 45.2648C45.4577 45.3805 47.9919 46.1587 47.9919 46.1587C47.9919 46.1587 45.5992 45.7102 45.0477 45.8386C44.498 45.9705 41.7952 47.1036 41.7952 47.1036Z" fill="#FBFBFB"/>
<path d="M25.3797 37.2089C25.3797 37.2089 26.3452 34.9553 26.607 35.1024C26.8706 35.2529 30.2228 37.2029 30.3204 37.4972C30.4179 37.7916 30.8357 39.6538 30.8357 39.6538C30.8357 39.6538 30.05 37.785 29.8429 37.5889C29.4622 37.2196 26.7422 35.712 26.5712 35.7923C26.3983 35.878 25.3797 37.2089 25.3797 37.2089Z" fill="#FBFBFB"/>
</g>
<path d="M69.376 15.518L67.378 29H69.034L69.556 25.49H72.364L72.886 29H74.542L72.544 15.518H69.376ZM71.122 17.156L72.13 23.852H69.79L70.78 17.156H71.122ZM77.9505 20.972V15.554H76.3125V29H77.9505V22.61H78.8145L81.8025 29H83.6025L80.2365 21.8L83.1885 15.554H81.3885L78.8145 20.972H77.9505ZM85.0484 29H90.7904V30.35H92.3384V27.488H91.3664V15.536H89.7284V27.434H86.6864V15.554H85.0484V29ZM94.1191 29H95.8651L97.9711 22.376L99.2131 17.678H99.2671L98.9971 22.52V29H100.635V15.554H98.4211L96.8911 20.378L95.5591 25.94H95.5051L95.7571 20.288V15.554H94.1191V29ZM107.509 24.464V29H109.147V15.518H105.187L103.117 17.606V22.268L104.575 23.834L102.181 29H103.981L106.087 24.464H107.509ZM107.509 17.174V22.826H105.871L104.755 21.62V18.272L105.853 17.174H107.509ZM114.984 29H116.622V17.102H119.664V29H121.302V15.536H114.984V29ZM130.214 17.57L128.126 15.518H123.896V29H125.534V24.572H128.144L130.214 22.394V17.57ZM127.442 22.934H125.534V17.156H127.46L128.558 18.254V21.746L127.442 22.934ZM139.203 26.894V17.372L137.169 15.338H134.595L132.561 17.372V26.894L134.577 29.054H137.169L139.203 26.894ZM137.565 26.264L136.467 27.434H135.279L134.181 26.264V18.038L135.261 16.958H136.485L137.565 18.038V26.264ZM140.873 30.35H142.457V29H148.145V30.35H149.729V27.56H148.577V15.518H143.879L142.169 27.56H140.873V30.35ZM146.939 17.12V27.56H143.825L145.319 17.12H146.939ZM153.222 15.518L151.494 27.488H150.45V29H152.952L154.644 17.12H156.264V29H157.902V15.518H153.222ZM165.373 21.512H162.115V17.156H166.003V15.518H160.477V29H166.255V27.362H162.115V23.15H165.373V21.512ZM168.616 29H170.254V23.06H173.296V29H174.934V15.554H173.296V21.494H170.254V15.554H168.616V29ZM178.571 15.518L176.573 29H178.229L178.751 25.49H181.559L182.081 29H183.737L181.739 15.518H178.571ZM180.317 17.156L181.325 23.852H178.985L179.975 17.156H180.317ZM67.414 54.35H68.998V53H74.686V54.35H76.27V51.56H75.118V39.518H70.42L68.71 51.56H67.414V54.35ZM73.48 41.12V51.56H70.366L71.86 41.12H73.48ZM84.6227 50.894V41.372L82.5887 39.338H80.0147L77.9807 41.372V50.894L79.9967 53.054H82.5887L84.6227 50.894ZM82.9847 50.264L81.8867 51.434H80.6987L79.6007 50.264V42.038L80.6807 40.958H81.9047L82.9847 42.038V50.264ZM90.1564 39.5V42.452H91.7944V41.03H94.6564V42.326L91.9024 45.692L92.4244 46.7H93.7924L94.8184 47.852V50.282L93.7924 51.362H92.6584L91.6504 50.282V48.482H90.0124V50.93L91.9564 53H94.5124L96.4564 50.93V47.24L94.5304 45.062L96.2944 42.902V39.5H90.1564ZM101.67 39.518H98.1423V41.156H100.032V51.488H97.9983V53H103.704V51.488H101.67V39.518ZM116.054 41.12V52.982H117.692V39.518H114.434L113.678 44.864L113.21 49.76H113.156L112.67 44.792L111.914 39.518H108.656V52.982H110.294V41.12H110.492L112.166 51.956H114.236L115.856 41.12H116.054ZM121.302 39.518L119.304 53H120.96L121.482 49.49H124.29L124.812 53H126.468L124.47 39.518H121.302ZM123.048 41.156L124.056 47.852H121.716L122.706 41.156H123.048ZM132.522 48.464V53H134.16V39.518H130.2L128.13 41.606V46.268L129.588 47.834L127.194 53H128.994L131.1 48.464H132.522ZM132.522 41.174V46.826H130.884L129.768 45.62V42.272L130.866 41.174H132.522ZM139.746 41.498V43.532H141.384V42.11L142.32 41.084H143.292L144.21 42.11V44.342L139.674 49.598V53H145.974V50.048H144.318V51.47H141.294V50.192L145.866 44.954V41.498L144.03 39.446H141.564L139.746 41.498ZM152.991 53.072L155.025 50.894V41.516L152.973 39.446H150.363L148.293 41.516V50.894L150.345 53.072H152.991ZM153.063 41.84L149.931 48.338V42.182L151.047 41.084H152.289L153.063 41.84ZM150.273 50.624L153.405 44.126V50.246L152.271 51.452H151.047L150.273 50.624ZM157.341 41.498V43.532H158.979V42.11L159.915 41.084H160.887L161.805 42.11V44.342L157.269 49.598V53H163.569V50.048H161.913V51.47H158.889V50.192L163.461 44.954V41.498L161.625 39.446H159.159L157.341 41.498ZM170.587 53.072L172.621 50.894V41.516L170.569 39.446H167.959L165.889 41.516V50.894L167.941 53.072H170.587ZM170.659 41.84L167.527 48.338V42.182L168.643 41.084H169.885L170.659 41.84ZM167.869 50.624L171.001 44.126V50.246L169.867 51.452H168.643L167.869 50.624Z" fill="#D01319"/>
<path d="M202 6L196 0V6H202Z" fill="#CB9419"/>
<path d="M0 6L6 0V6H0Z" fill="#CB9419"/>
<path d="M202 66L196 72V66H202Z" fill="#CB9419"/>
<path d="M0 66L6 72V66H0Z" fill="#CB9419"/>
</svg>
