<svg width="318" height="110" viewBox="0 0 318 110" fill="none" xmlns="http://www.w3.org/2000/svg">
<rect x="14" width="290" height="110" fill="#FEBD2C"/>
<path d="M14 15V0L0 15H14Z" fill="#CB9419"/>
<path d="M304 15V0L318 15H304Z" fill="#CB9419"/>
<path d="M14 95V110L0 95H14Z" fill="#CB9419"/>
<path d="M304 95V110L318 95H304Z" fill="#CB9419"/>
<path d="M86.92 32.06L80.26 77H85.78L87.52 65.3H96.88L98.62 77H104.14L97.48 32.06H86.92ZM92.74 37.52L96.1 59.84H88.3L91.6 37.52H92.74ZM115.502 50.24V32.18H110.042V77H115.502V55.7H118.382L128.342 77H134.342L123.122 53L132.962 32.18H126.962L118.382 50.24H115.502ZM139.161 77H158.301V81.5H163.461V71.96H160.221V32.12H154.761V71.78H144.621V32.18H139.161V77ZM169.397 77H175.217L182.237 54.92L186.377 39.26H186.557L185.657 55.4V77H191.117V32.18H183.737L178.637 48.26L174.197 66.8H174.017L174.857 47.96V32.18H169.397V77ZM214.029 61.88V77H219.489V32.06H206.289L199.389 39.02V54.56L204.249 59.78L196.269 77H202.269L209.289 61.88H214.029ZM214.029 37.58V56.42H208.569L204.849 52.4V41.24L208.509 37.58H214.029ZM233.328 67.7V31.82H227.808V67.7H233.328ZM227.448 77.24H233.508V71.84H227.448V77.24Z" fill="#D01319"/>
</svg>
