<svg width="130" height="136" viewBox="0 0 130 136" fill="none" xmlns="http://www.w3.org/2000/svg">
<g filter="url(#filter0_d)">
<path d="M121.745 53.5196L120.154 53.3564C118.776 53.2058 117.774 51.9632 117.924 50.5825L120.931 23.3709C121.206 20.8732 120.492 18.4131 118.914 16.4425C117.335 14.4719 115.093 13.2419 112.613 12.9657L110.684 12.7524L110.984 10.1919C111.147 8.8112 110.17 7.5686 108.792 7.40543L90.6527 5.24658L81.32 4.14205C79.942 3.97888 78.7019 4.9579 78.539 6.33856L78.2133 9.15009L77.2863 9.04968L76.9481 7.46819C76.4345 5.02065 74.9938 2.912 72.8768 1.51879C71.3484 0.527223 69.5821 6.10352e-05 67.7782 6.10352e-05C67.1268 6.10352e-05 66.4629 0.0753699 65.8365 0.200885L9.4269 12.1624C6.97159 12.6896 4.87956 14.133 3.52663 16.2166C2.14865 18.3252 1.68515 20.8355 2.21128 23.2956L7.1595 46.7543C7.44762 48.1099 6.58325 49.4403 5.23032 49.729C3.87739 50.0177 3.01302 51.3482 3.30114 52.7037L4.9923 60.6865L7.58542 72.9618L10.1785 85.2372L12.7716 97.5125L15.1017 108.57C15.3898 109.926 16.7177 110.792 18.0706 110.503C19.4235 110.215 20.7514 111.081 21.0395 112.436L22.2296 118.097C23.1441 122.415 27.0025 125.54 31.3995 125.54C32.0759 125.54 32.7399 125.465 33.3412 125.339L48.1482 122.214L99.8852 127.937C100.249 127.988 100.612 128 100.963 128C105.76 128 109.782 124.398 110.32 119.603L110.696 116.177C110.846 114.808 112.074 113.804 113.452 113.955L115.331 114.156C116.709 114.306 117.937 113.302 118.087 111.922L121.82 76.6771L122.772 67.7153L123.987 56.2683C124.125 54.9002 123.123 53.6702 121.745 53.5196Z" fill="#FCFCFC"/>
</g>
<path d="M9.67084 52.6274L7.21979 53.147L8.12738 57.4447L10.5784 56.9251L9.67084 52.6274Z" fill="#323232"/>
<path d="M19.6516 99.9097L17.2003 100.429L18.4962 106.569L20.9475 106.05L19.6516 99.9097Z" fill="#323232"/>
<path d="M17.0593 87.634L14.608 88.1534L15.9039 94.2936L18.3552 93.7742L17.0593 87.634Z" fill="#323232"/>
<path d="M14.4636 75.3464L12.0123 75.8658L13.3082 82.006L15.7595 81.4866L14.4636 75.3464Z" fill="#323232"/>
<path d="M11.8718 63.071L9.42047 63.5904L10.7164 69.7306L13.1677 69.2112L11.8718 63.071Z" fill="#323232"/>
<path d="M112.199 16.7061L74.1664 12.4888L73.277 8.2464C72.9638 6.77787 72.0994 5.51018 70.8467 4.68178C69.5815 3.86593 68.0782 3.57725 66.6126 3.89103L10.2155 15.84C8.7498 16.1538 7.48456 17.0199 6.67029 18.275C5.8435 19.5427 5.56791 21.0364 5.88109 22.5174L25.8869 117.331C26.4506 119.98 28.7932 121.8 31.3863 121.8C31.7746 121.8 32.163 121.762 32.5513 121.674L47.9471 118.423L100.323 124.222C100.536 124.247 100.749 124.26 100.949 124.26C103.843 124.26 106.248 122.088 106.574 119.214L117.197 22.9567C117.535 19.8565 115.293 17.045 112.199 16.7061ZM32.0252 119.227C30.3465 119.578 28.693 118.499 28.3422 116.817L8.32387 21.9903C8.16102 21.1744 8.31135 20.346 8.77485 19.6431C9.22583 18.9528 9.91482 18.4633 10.7291 18.3001L67.1262 6.35112C67.9404 6.1754 68.7672 6.32602 69.4687 6.79043C70.1703 7.24228 70.6588 7.94516 70.8217 8.76101L71.5482 12.2001L54.9749 10.355C51.818 10.0162 49.0621 12.288 48.7238 15.3756L38.1008 111.62C37.938 113.127 38.3639 114.608 39.3034 115.787C39.817 116.428 40.4559 116.93 41.1574 117.294L32.0252 119.227ZM114.704 22.6806L104.081 118.938C103.893 120.657 102.352 121.925 100.599 121.724L43.3747 115.386C42.5354 115.298 41.7838 114.884 41.2577 114.219C40.7315 113.566 40.4935 112.737 40.5937 111.897L51.2167 15.6518C51.3921 14.0452 52.7325 12.8402 54.3485 12.8402C54.4613 12.8402 54.574 12.8402 54.6993 12.8528L111.923 19.2038C113.652 19.3921 114.905 20.9485 114.704 22.6806Z" fill="#323232"/>
<path d="M114.705 22.6805L104.082 118.938C103.894 120.657 102.353 121.925 100.599 121.724L43.3753 115.386C42.536 115.298 41.7844 114.884 41.2582 114.218C40.7321 113.566 40.4941 112.737 40.5943 111.896L51.2173 15.6517C51.3927 14.0451 52.7331 12.8402 54.3491 12.8402C54.4618 12.8402 54.5745 12.8402 54.6998 12.8527L111.924 19.2038C113.652 19.392 114.905 20.9484 114.705 22.6805Z" fill="#FEBD2C"/>
<path d="M71.5492 12.1999L54.9758 10.3548C51.819 10.0159 49.063 12.2877 48.7248 15.3754L38.1018 111.62C37.9389 113.126 38.3648 114.607 39.3044 115.787C39.818 116.427 40.4569 116.929 41.1584 117.293L32.0261 119.226C30.3475 119.578 28.6939 118.498 28.3431 116.816L8.3248 21.99C8.16195 21.1742 8.31228 20.3458 8.77578 19.6429C9.22676 18.9526 9.91575 18.4631 10.73 18.2999L67.1271 6.35089C67.9414 6.17517 68.7681 6.32579 69.4697 6.79019C70.1712 7.24204 70.6597 7.94493 70.8226 8.76077L71.5492 12.1999Z" fill="#D01319"/>
<path d="M88.7095 8.8233L88.4146 11.316L106.813 13.501L107.107 11.0082L88.7095 8.8233Z" fill="#323232"/>
<path d="M82.126 8.03421L81.8311 10.5269L86.1849 11.044L86.4798 8.55127L82.126 8.03421Z" fill="#323232"/>
<path d="M115.632 75.4682L111.976 110.029L114.468 110.293L118.124 75.7328L115.632 75.4682Z" fill="#323232"/>
<path d="M116.581 66.6051L115.981 72.284L118.472 72.5486L119.073 66.8697L116.581 66.6051Z" fill="#323232"/>
<path d="M117.618 56.8709L116.935 63.3236L119.427 63.5885L120.11 57.1357L117.618 56.8709Z" fill="#323232"/>
<defs>
<filter id="filter0_d" x="6.10352e-05" y="6.10352e-05" width="130" height="136" filterUnits="userSpaceOnUse" color-interpolation-filters="sRGB">
<feFlood flood-opacity="0" result="BackgroundImageFix"/>
<feColorMatrix in="SourceAlpha" type="matrix" values="0 0 0 0 0 0 0 0 0 0 0 0 0 0 0 0 0 0 127 0"/>
<feOffset dx="2" dy="4"/>
<feGaussianBlur stdDeviation="2"/>
<feColorMatrix type="matrix" values="0 0 0 0 0 0 0 0 0 0 0 0 0 0 0 0 0 0 0.25 0"/>
<feBlend mode="normal" in2="BackgroundImageFix" result="effect1_dropShadow"/>
<feBlend mode="normal" in="SourceGraphic" in2="effect1_dropShadow" result="shape"/>
</filter>
</defs>
</svg>
