<svg width="202" height="72" viewBox="0 0 202 72" fill="none" xmlns="http://www.w3.org/2000/svg">
<rect x="6" width="190" height="72" fill="#FEBD2C"/>
<mask id="mask0" mask-type="alpha" maskUnits="userSpaceOnUse" x="6" y="0" width="190" height="72">
<rect x="6" width="190" height="72" fill="#FEBD2C"/>
</mask>
<g mask="url(#mask0)">
<path d="M23.509 33.5293C23.509 33.5293 2.37655 54.0499 -21.3516 40.1349C-21.3516 40.1349 4.18774 54.4694 26.2417 25.0303C26.24 25.0339 22.7537 33.2768 23.509 33.5293Z" fill="white"/>
<path d="M34.1519 51.4764C34.1519 51.4764 3.67631 66.3724 -23.8017 40.7679C-23.8017 40.7679 1.87397 64.1281 29.066 48.2905C29.0677 48.287 33.4278 49.9656 34.1519 51.4764Z" fill="#E30613"/>
<path d="M25.5759 44.7197C25.5759 44.7197 9.18839 55.2129 -13.2436 45.8647C-13.2436 45.8647 9.77773 54.0152 23.7855 39.5269C23.7819 39.5253 24.6097 42.8526 25.5759 44.7197Z" fill="#0878CA"/>
<ellipse cx="40.7787" cy="34.8226" rx="17.124" ry="17.7145" fill="#FBFBFB"/>
<path d="M38.366 16.6686C29.2567 17.8182 22.5558 25.5464 22.4227 34.4786L22.4139 34.4786C22.4155 34.4997 22.4208 34.5191 22.4225 34.5402C22.4143 35.3659 22.4589 36.2005 22.5651 37.0442C23.828 47.02 32.9684 54.106 42.9407 52.845C52.9165 51.5822 60.0026 42.4417 58.7415 32.4694C57.4823 22.4918 48.3418 15.4058 38.366 16.6686ZM49.6853 45.7191C48.8389 45.5982 46.8543 45.2374 45.4102 44.3627C45.2484 41.7936 44.931 37.386 44.8807 36.6728C45.8483 35.8505 48.4387 33.6131 49.3615 32.5143C50.8425 32.8874 53.734 33.6773 55.2353 34.304C55.812 36.026 55.8048 38.1121 55.7318 39.3477C54.3562 42.5911 50.818 45.0082 49.6853 45.7191ZM37.2774 33.5479C35.2223 34.7291 31.7654 36.5656 30.8782 37.0361C30.019 36.5701 28.0528 35.4577 27.1632 34.6113C26.6655 30.9125 27.572 27.4141 27.8678 26.4063C28.9113 25.5156 31.3476 23.5524 33.1522 23.0094C34.0835 23.5319 36.6082 25.0002 38.2894 26.5306C38.0735 27.8766 37.3894 32.2227 37.2774 33.5479ZM24.6778 37.5216C24.3619 37.2476 24.0006 36.8467 23.698 36.2805C23.3436 32.3833 24.3495 28.6511 26.332 25.5683L27.0805 26.511C26.7203 27.8055 26.0106 30.9296 26.3948 34.3551C25.9278 34.9996 25.0482 36.3099 24.6778 37.5216ZM38.6894 25.9193C36.9888 24.3941 34.5889 22.9827 33.5873 22.4246C33.9773 21.6602 35.5245 19.729 35.5245 19.729C35.5738 19.7133 40.441 18.3641 44.1129 18.9913C45.2293 19.4265 47.0187 20.2267 47.7726 21.1184C47.1045 22.3942 46.2044 24.0617 45.5881 25.0965C44.2646 24.9792 40.0348 25.3184 38.6894 25.9193ZM55.2819 33.5471C53.552 32.858 50.7132 32.1123 49.6174 31.8338C49.1925 30.9944 46.991 26.6858 46.2012 25.4736C46.9237 24.272 47.8983 22.4356 48.3839 21.5096C49.3545 21.8545 52.5046 23.228 52.5046 23.228C52.5308 23.2633 55.2479 26.6353 56.5083 31.2082C56.5119 31.2064 55.657 33.0273 55.2819 33.5471ZM57.1488 30.7984C56.4513 28.3718 55.3916 26.3136 54.5233 24.8899C55.7777 26.6495 56.7144 28.6632 57.2296 30.8639C57.1997 30.8391 57.1716 30.8179 57.1488 30.7984ZM43.4686 17.9662C43.449 18.033 43.433 18.0981 43.4116 18.1614C39.744 17.8001 35.5218 18.9702 35.3297 19.0259L35.3332 19.0418L34.3177 18.952C35.6364 18.4214 37.0426 18.0495 38.5185 17.8627C40.2075 17.6538 41.8711 17.6948 43.4686 17.9662ZM24.6202 38.3893C24.8738 39.3796 25.7837 42.5182 27.4994 44.2424C27.565 44.6229 27.6912 45.2852 27.8543 45.9777C25.871 43.7226 24.4653 40.9221 23.8988 37.7847C24.1602 38.0461 24.413 38.246 24.6202 38.3893ZM28.9173 47.0764C28.6891 46.3943 28.4671 45.4411 28.308 44.6149C29.0526 44.628 30.6636 44.5896 31.9153 44.0922C31.9153 44.0922 31.2246 39.1974 31.2475 37.6571C32.177 37.1656 35.5158 35.3921 37.5638 34.2144C38.7211 35.0511 42.8455 36.6886 44.1702 36.9503C44.2491 38.0579 44.5194 41.8298 44.6714 44.2105C44.1608 44.714 42.6335 46.0202 39.4231 47.3171C36.9262 46.9511 31.7643 43.4597 31.7134 43.4278L31.91 44.0904L31.4396 44.1786C31.6364 44.3096 36.261 47.3818 38.9737 47.9705C39.2952 48.6547 39.9488 50.0442 40.3337 50.7409C39.2333 51.2688 37.946 51.3928 37.1097 51.4075C34.0047 50.7453 31.1721 49.2232 28.9173 47.0764ZM39.721 51.7564C40.2286 51.6014 40.7346 51.3902 41.1986 51.0943C42.4085 50.9647 45.1507 50.6468 46.5235 50.2695C46.6975 50.3546 46.9437 50.4259 47.2834 50.4376C45.8818 51.0313 44.3769 51.4433 42.7935 51.6438C41.7526 51.7775 40.7279 51.8109 39.721 51.7564ZM50.0843 48.9263C48.6913 49.5728 47.8493 49.7178 47.3599 49.7055C47.9486 48.9963 49.1845 47.4831 49.7705 46.5204C50.4074 46.1476 54.1811 43.8422 56.015 40.4332L56.6892 40.4725C55.4536 43.9188 53.1282 46.8947 50.0843 48.9263Z" fill="#323232"/>
<path d="M38.414 30.7176C38.414 30.7176 39.076 26.6549 39.6134 26.516C40.7869 26.2155 44.9887 25.8463 45.4824 26.1508C45.9795 26.4536 47.876 29.8896 47.876 29.8896C47.876 29.8896 45.4773 26.5927 45.2133 26.5918C43.312 26.5852 40.0416 26.91 39.7384 27.5216C38.5274 29.9892 38.7873 30.1855 38.414 30.7176Z" fill="#FBFBFB"/>
<path d="M41.7952 47.1036C41.9908 47.0374 44.7367 45.1491 45.0972 45.2648C45.4577 45.3805 47.9919 46.1587 47.9919 46.1587C47.9919 46.1587 45.5992 45.7102 45.0477 45.8386C44.498 45.9705 41.7952 47.1036 41.7952 47.1036Z" fill="#FBFBFB"/>
<path d="M25.3797 37.2089C25.3797 37.2089 26.3452 34.9553 26.607 35.1024C26.8706 35.2529 30.2228 37.2029 30.3204 37.4972C30.4179 37.7916 30.8357 39.6538 30.8357 39.6538C30.8357 39.6538 30.05 37.785 29.8429 37.5889C29.4622 37.2196 26.7422 35.712 26.5712 35.7923C26.3983 35.878 25.3797 37.2089 25.3797 37.2089Z" fill="#FBFBFB"/>
</g>
<path d="M72.724 15.518L74.722 29H73.066L72.544 25.49H69.736L69.214 29H67.558L69.214 17.696L69.898 17.282V17.156H68.494V15.518H72.724ZM70.96 17.156L69.97 23.852H72.31L71.302 17.156H70.96ZM79.1133 20.972L81.6873 15.554H83.4873L80.5353 21.8L83.9013 29H82.1013L79.1133 22.61H78.2493V29H76.6113V15.554H78.2493V20.972H79.1133ZM85.3472 15.554H86.9852V27.434H90.0272V15.536H91.6652V27.488H92.6372V30.35H91.0892V29H85.3472V15.554ZM94.4179 15.554H96.0559V20.288L95.8039 25.94H95.8579L97.1899 20.378L98.7199 15.554H100.934V29H99.2959V22.52L99.5659 17.678H99.5119L98.2699 22.376L96.1639 29H94.4179V15.554ZM106.385 24.464L104.279 29H102.479L104.873 23.834L103.415 22.268V17.606L105.485 15.518H109.445V29H107.807V24.464H106.385ZM106.151 17.174L105.053 18.272V21.62L106.169 22.826H107.807V17.174H106.151ZM115.283 15.536H121.601V29H119.963V17.102H116.921V29H115.283V15.536ZM130.513 22.394L128.443 24.572H125.833V29H124.195V15.518H128.425L130.513 17.57V22.394ZM128.857 21.746V18.254L127.759 17.156H125.833V22.934H127.741L128.857 21.746ZM137.468 29.054H134.876L132.86 26.894V17.372L134.894 15.338H137.468L139.502 17.372V26.894L137.468 29.054ZM137.864 18.038L136.784 16.958H135.56L134.48 18.038V26.264L135.578 27.434H136.766L137.864 26.264V18.038ZM141.172 27.56H142.468L144.178 15.518H148.876V27.56H150.028V30.35H148.444V29H142.756V30.35H141.172V27.56ZM145.618 17.12L144.124 27.56H147.238V17.12H145.618ZM158.201 15.518V29H156.563V17.12H154.943L153.251 29H150.749V27.488H151.793L153.521 15.518H158.201ZM165.671 23.15H162.413V27.362H166.553V29H160.775V15.518H166.301V17.156H162.413V21.512H165.671V23.15ZM168.914 15.554H170.552V21.494H173.594V15.554H175.232V29H173.594V23.06H170.552V29H168.914V15.554ZM182.038 15.518L184.036 29H182.38L181.858 25.49H179.05L178.528 29H176.872L178.87 15.518H182.038ZM180.274 17.156L179.284 23.852H181.624L180.616 17.156H180.274ZM67.414 51.56H68.71L70.42 39.518H75.118V51.56H76.27V54.35H74.686V53H68.998V54.35H67.414V51.56ZM71.86 41.12L70.366 51.56H73.48V41.12H71.86ZM82.5887 53.054H79.9967L77.9807 50.894V41.372L80.0147 39.338H82.5887L84.6227 41.372V50.894L82.5887 53.054ZM82.9847 42.038L81.9047 40.958H80.6807L79.6007 42.038V50.264L80.6987 51.434H81.8867L82.9847 50.264V42.038ZM96.2944 39.5V42.902L94.5304 45.062L96.4564 47.24V50.93L94.5124 53H91.9564L90.0124 50.93V48.482H91.6504V50.282L92.6584 51.362H93.7924L94.8184 50.282V47.852L93.7924 46.7H92.4244L91.9024 45.692L94.6564 42.326V41.03H91.7944V42.452H90.1564V39.5H96.2944ZM101.67 51.488H103.704V53H97.9983V51.488H100.032V41.156H98.1423V39.518H101.67V51.488ZM108.674 39.554H110.312V44.288L110.06 49.94H110.114L111.446 44.378L112.976 39.554H115.19V53H113.552V46.52L113.822 41.678H113.768L112.526 46.376L110.42 53H108.674V39.554ZM125.663 53.054H123.215L121.199 50.894V47.06H119.417V53H117.779V39.554H119.417V45.494H121.199V41.372L123.233 39.338H125.663L127.697 41.372V50.894L125.663 53.054ZM126.059 42.038L124.979 40.958H123.899L122.819 42.038V50.264L123.917 51.434H124.961L126.059 50.264V42.038ZM136.685 39.518V53H135.047V41.12H133.427L131.735 53H129.233V51.488H130.277L132.005 39.518H136.685ZM142.122 48.464L140.016 53H138.216L140.61 47.834L139.152 46.268V41.606L141.222 39.518H145.182V53H143.544V48.464H142.122ZM141.888 41.174L140.79 42.272V45.62L141.906 46.826H143.544V41.174H141.888ZM152.585 39.446H155.051L156.887 41.498V44.954L152.315 50.192V51.47H155.339V50.048H156.995V53H150.695V49.598L155.231 44.342V42.11L154.313 41.084H153.341L152.405 42.11V43.532H150.767V41.498L152.585 39.446ZM161.367 53.072L159.315 50.894V41.516L161.385 39.446H163.995L166.047 41.516V50.894L164.013 53.072H161.367ZM163.311 41.084H162.069L160.953 42.182V48.338L164.085 41.84L163.311 41.084ZM162.069 51.452H163.293L164.427 50.246V44.126L161.295 50.624L162.069 51.452ZM170.181 39.446H172.647L174.483 41.498V44.954L169.911 50.192V51.47H172.935V50.048H174.591V53H168.291V49.598L172.827 44.342V42.11L171.909 41.084H170.937L170.001 42.11V43.532H168.363V41.498L170.181 39.446ZM178.962 53.072L176.91 50.894V41.516L178.98 39.446H181.59L183.642 41.516V50.894L181.608 53.072H178.962ZM180.906 41.084H179.664L178.548 42.182V48.338L181.68 41.84L180.906 41.084ZM179.664 51.452H180.888L182.022 50.246V44.126L178.89 50.624L179.664 51.452Z" fill="#D01319"/>
<path d="M202 6L196 0V6H202Z" fill="#CB9419"/>
<path d="M0 6L6 0V6H0Z" fill="#CB9419"/>
<path d="M202 66L196 72V66H202Z" fill="#CB9419"/>
<path d="M0 66L6 72V66H0Z" fill="#CB9419"/>
</svg>
