<svg width="160" height="146" viewBox="0 0 160 146" fill="none" xmlns="http://www.w3.org/2000/svg">
<g filter="url(#filter0_d)">
<path d="M153.654 106.524L153.52 104.783C153.12 97.6844 150.185 90.5858 144.981 85.0945L144.447 84.5587C139.243 79.3352 131.904 75.9868 122.564 75.9868C120.029 75.9868 117.627 76.2547 115.359 76.7905L114.692 76.9244C113.491 77.1923 112.423 76.3886 112.423 75.1832V56.1643C112.423 55.2268 113.224 54.4232 114.158 54.2892L130.97 53.0838C131.771 53.0838 132.438 52.4141 132.705 51.6105L137.242 24.6894L137.775 21.341L138.042 19.4659C138.176 18.5283 137.642 17.7247 136.841 17.4568L135.907 17.189L134.44 16.6532H134.306H134.173L132.438 15.9835C130.703 15.3139 128.035 14.3763 123.765 12.903L90.6738 1.11666C90.5404 0.982728 90.2735 0.982727 90.0067 0.982727H52.1119L51.4448 1.2506C49.5767 1.92028 11.682 15.3139 5.41065 17.4568L3.67604 18.1265C2.87544 18.3944 2.34171 19.3319 2.47515 20.1356L7.94587 52.2802C8.0793 53.0838 8.74646 53.7535 9.68048 53.7535L26.4929 54.9589C27.427 55.0928 28.2276 55.7625 28.2276 56.834V60.986C28.2276 62.0575 27.427 62.8611 26.3595 62.8611H22.6234C21.5559 62.8611 20.7554 63.6647 20.7554 64.7362V91.7913V95.9433V102.908V107.462V116.703C20.7554 117.775 21.5559 118.578 22.6234 118.578H26.3595C27.427 118.578 28.2276 119.382 28.2276 120.454V136.124C28.2276 137.196 29.0281 137.999 30.0956 137.999H110.555C111.623 137.999 112.423 137.196 112.423 136.124V135.856C115.759 137.062 119.362 137.731 122.964 137.731C124.299 137.731 125.766 137.597 127.101 137.463C128.302 137.329 129.369 137.062 130.437 136.794L131.637 136.392C140.311 133.713 147.783 127.15 151.252 118.712C151.652 117.641 152.053 116.569 152.319 115.498L152.586 114.426C153.52 110.944 153.654 108.131 153.654 106.524Z" fill="white"/>
</g>
<path d="M132.451 104.088L129.87 113.632L120.362 116.223L113.57 109.269L116.015 99.7249L125.524 97.1343L132.451 104.088Z" fill="#1C1C1C"/>
<path d="M121.419 132.012C117.936 131.708 114.605 130.796 111.577 129.277L117.331 127.757L121.419 132.012Z" fill="#1C1C1C"/>
<path d="M148.42 106.921C148.42 111.155 147.318 115.253 145.113 119.214L138.224 120.989L131.197 114.023L133.815 104.462L143.46 101.867L148.42 106.921Z" fill="#CCCCCC"/>
<path d="M127.748 86.3184L125.179 95.8179L115.716 98.3963L108.821 91.4753L110.578 84.6899C114.364 82.5186 118.42 81.433 122.611 81.433L127.748 86.3184Z" fill="#CCCCCC"/>
<path d="M149.651 106.256C149.251 77.3262 109.488 69.424 98.4129 96.3451C90.5404 115.498 106.285 135.856 126.567 133.177C136.308 131.838 144.314 125.007 147.649 116.837C149.918 111.48 149.651 106.524 149.651 106.256ZM147.916 104.649L144.18 100.899L145.514 95.8094C146.982 98.622 147.783 101.569 147.916 104.649ZM144.58 93.8003L142.846 100.497L133.506 103.042L126.7 96.2112L129.236 86.8357L135.907 85.0945C139.243 87.1035 142.312 90.0501 144.58 93.8003ZM132.305 104.113L129.769 113.489L120.429 116.034L113.758 109.203L116.293 99.8274L125.633 97.2826L132.305 104.113ZM133.639 83.8891L128.569 85.2284L124.966 81.6122C128.035 81.88 130.97 82.6836 133.639 83.8891ZM110.822 84.6927C114.558 82.5497 118.561 81.4782 122.698 81.4782L127.635 86.4338L125.099 95.8094L115.759 98.3541L108.954 91.5234L110.822 84.6927ZM108.821 85.8981L107.486 90.9877L102.416 92.327C104.15 89.9162 106.152 87.7732 108.821 85.8981ZM101.082 94.3361L107.753 92.5949L114.558 99.4256L112.023 108.801L102.683 111.346L97.8792 106.39C98.0126 102.104 99.08 98.0863 101.082 94.3361ZM98.0126 108.667L101.615 112.417L100.281 117.507C99.08 114.694 98.2794 111.748 98.0126 108.667ZM101.482 119.516L103.216 112.819L112.557 110.274L119.362 117.105L116.827 126.481L110.155 128.222C106.552 126.079 103.617 123.132 101.482 119.516ZM112.29 129.427L117.36 128.088L121.096 131.838C117.894 131.436 114.958 130.633 112.29 129.427ZM135.24 128.624C131.504 130.767 127.368 131.838 123.231 131.838L118.294 126.882L120.829 117.507L130.17 114.962L130.57 115.498L136.975 121.927L135.24 128.624ZM137.242 127.418L138.576 122.329L143.646 120.989C141.912 123.534 139.777 125.543 137.242 127.418ZM144.847 118.98L138.176 120.721L131.371 113.891L133.906 104.515L143.246 101.97L148.183 106.926C148.05 111.078 146.982 115.096 144.847 118.98Z" fill="#373737"/>
<path d="M108.821 85.8981L107.486 90.9877L102.416 92.327C104.15 89.9162 106.152 87.7732 108.821 85.8981Z" fill="#1C1C1C"/>
<path d="M143.646 120.989C141.912 123.534 139.777 125.677 137.242 127.418L138.576 122.329L143.646 120.989Z" fill="#1C1C1C"/>
<path d="M147.916 104.649L144.18 100.899L145.514 95.8094C146.982 98.622 147.783 101.569 147.916 104.649Z" fill="#1C1C1C"/>
<path d="M133.639 83.8891L128.569 85.2284L124.966 81.6121C128.035 81.88 130.97 82.6836 133.639 83.8891Z" fill="#1C1C1C"/>
<path d="M144.58 93.8003L142.846 100.497L133.506 103.042L126.701 96.2112L129.236 86.8356L135.907 85.0945C139.243 87.1035 142.312 90.0501 144.58 93.8003Z" fill="#CCCCCC"/>
<path d="M114.692 99.4256L112.156 108.801L102.816 111.346L98.0126 106.39C98.0126 102.238 99.08 98.0863 101.215 94.3361L107.887 92.5949L114.692 99.4256Z" fill="#CCCCCC"/>
<path d="M119.362 117.105L116.827 126.481L110.155 128.222C106.552 126.079 103.617 123.132 101.482 119.382L103.216 112.685L112.557 110.14L119.362 117.105Z" fill="#CCCCCC"/>
<path d="M136.975 121.927L135.24 128.624C131.504 130.767 127.368 131.838 123.231 131.838L118.294 126.882L120.829 117.507L130.17 114.962L130.57 115.498L136.975 121.927Z" fill="#CCCCCC"/>
<path d="M133.772 20.5374C133.639 20.5374 133.639 20.5374 133.772 20.5374C133.639 20.5374 133.639 20.5374 133.506 20.4034C133.372 20.4034 133.372 20.4034 133.372 20.4034H133.239H133.105C131.904 20.0016 128.969 18.9301 122.431 16.6532C115.892 14.3763 105.618 10.7601 89.7398 5.13474C55.7146 5.13474 88.1386 5.13474 52.9125 5.13474C50.7776 5.80442 13.0163 19.198 7.01184 21.341L11.8154 50.0033L32.364 51.4766V133.713H108.42V50.673L128.969 49.1997L133.772 20.5374ZM88.1386 7.67952C88.1386 15.4478 84.9362 25.7609 71.3261 33.797C57.5826 25.7609 54.3803 15.4478 54.3803 7.67952H88.1386ZM126.567 46.6549L122.564 46.9227L125.766 28.0378L123.098 27.502L119.762 47.0567L105.618 48.1282V122.195H60.3847V124.873H105.618V130.901H34.8992V124.873H45.04V122.195H34.8992V48.7979L21.2891 47.8603L17.8198 27.2342L15.1512 27.636L18.6204 47.5924L14.0837 47.3246L9.94735 22.9482L14.2172 21.4749L14.7509 24.6894L17.4195 24.2876L16.7524 20.6713C20.2216 19.4659 48.109 9.68856 51.7116 8.3492C52.2453 28.0378 70.9258 36.4757 71.1927 36.8776C71.4596 36.6097 90.1401 28.1717 90.6738 8.21527L124.299 20.1356L123.632 24.2876L126.3 24.6894L126.967 20.9392L130.703 22.2785L126.567 46.6549Z" fill="#373737"/>
<path d="M88.1386 7.67952C88.1386 15.4478 84.9362 25.7609 71.3261 33.797C57.5826 25.7609 54.3802 15.4478 54.3802 7.67952H88.1386Z" fill="#8B0D11"/>
<path d="M130.703 22.2785L126.567 46.6549L122.564 46.9227L125.766 28.0378L123.098 27.502L119.762 47.0567L105.618 48.1282V122.195H60.3847V124.873H105.618V130.901H34.8992V124.873H45.04V122.195H34.8992V48.7978L21.2891 47.8603L17.8199 27.2342L15.1512 27.636L18.6205 47.5924L14.0838 47.3245L9.94736 22.9482L14.2172 21.4749L14.7509 24.6894L17.4196 24.2876L16.7524 20.6713C20.2216 19.4659 48.109 9.68856 51.7116 8.3492C52.2454 28.0378 70.9259 36.4757 71.1927 36.8775C71.4596 36.6097 90.1401 28.1717 90.6738 8.21526L124.299 20.1356L123.632 24.2876L126.3 24.6894L126.967 20.9392L130.703 22.2785Z" fill="#B1161B"/>
<path d="M51.845 20.6713C51.4447 19.7338 51.0444 18.7962 50.7776 17.7247L48.2424 18.5283C48.6427 19.5998 49.043 20.6713 49.4433 21.7428L51.845 20.6713Z" fill="#373737"/>
<path d="M59.9844 35.5382L61.719 33.5292C57.9829 30.4486 55.0474 26.8324 52.9125 22.8143L50.5107 24.0197C52.7791 28.3057 55.9815 32.1898 59.9844 35.5382Z" fill="#373737"/>
<path d="M27.5604 106.658H24.8918V114.293H27.5604V106.658Z" fill="#373737"/>
<path d="M27.5604 95.5415H24.8918V103.176H27.5604V95.5415Z" fill="#373737"/>
<path d="M27.5604 66.7453H24.8918V91.6573H27.5604V66.7453Z" fill="#373737"/>
<path d="M57.4492 122.195H47.7086V124.873H57.4492V122.195Z" fill="#373737"/>
<path d="M86.8598 40.2786C86.9948 40.6712 87.3727 40.933 87.8047 40.933H89.2624C89.6943 40.933 90.0723 40.6712 90.2072 40.2786L90.5042 39.3624C90.7741 38.5771 90.1802 37.7656 89.3164 37.7656H89.1274V37.7395C89.1814 37.5824 89.1274 37.3992 89.0194 37.2945L88.8575 37.1374C88.6685 36.9542 88.3986 36.9542 88.2096 37.1374L88.0476 37.2945C87.9126 37.4254 87.8856 37.5824 87.9396 37.7395V37.7656H87.7507C86.8868 37.7656 86.2929 38.5771 86.5629 39.3624L86.8598 40.2786Z" fill="#FEBD2C"/>
<path d="M98.5758 40.5927C98.5488 40.5142 98.5218 40.4618 98.4678 40.4095C98.4138 40.3571 98.3328 40.3309 98.2518 40.3309C98.1708 40.3309 98.0899 40.3309 98.0359 40.3833C97.9819 40.4095 97.9279 40.4618 97.8739 40.5403C97.6309 40.9592 97.172 41.7183 96.7401 42.3203C95.4713 44.1003 94.1755 45.3568 92.3399 45.4091C92.1239 45.4091 91.9079 45.3568 91.719 45.2783C91.1251 45.0165 90.7741 44.3883 90.8821 43.76C90.8821 43.4721 90.9901 43.2103 91.1251 42.9747C91.287 42.7392 91.503 42.5559 91.773 42.425C92.1509 42.2418 92.6638 42.2156 93.0687 42.2942C93.2847 42.3203 93.5007 42.3989 93.6896 42.5036C93.8786 42.6083 93.9866 42.5821 94.0136 42.3465C94.0406 41.7968 93.9326 41.0639 93.4197 40.7236C92.7718 40.2786 91.746 40.5927 91.0981 40.933C90.4232 41.2733 89.8563 41.7968 89.3704 42.3727C89.0464 42.7653 88.7225 43.1842 88.5065 43.6553C88.2636 43.2103 87.9666 42.7653 87.6427 42.3727C87.1568 41.7968 86.5899 41.2733 85.915 40.933C85.2941 40.5927 84.2683 40.2786 83.5934 40.7236C83.0805 41.0639 82.9725 41.7968 82.9995 42.3465C83.0265 42.5559 83.1345 42.6083 83.3234 42.5036C83.5124 42.3989 83.7284 42.3203 83.9443 42.2942C84.3763 42.2156 84.8622 42.2418 85.2401 42.425C85.5101 42.5559 85.726 42.7392 85.888 42.9747C86.05 43.2103 86.1309 43.4983 86.1309 43.76C86.2119 44.3883 85.861 45.0165 85.2941 45.2783C85.1051 45.3568 84.8892 45.4091 84.6732 45.4091C82.8375 45.3568 81.5418 44.1003 80.273 42.3203C79.841 41.7183 79.3821 40.9592 79.1392 40.5403C79.1122 40.4618 79.0582 40.4095 78.9772 40.3833C78.9232 40.3571 78.8422 40.3309 78.7612 40.3309C78.6803 40.3309 78.6263 40.3571 78.5453 40.4095C78.4913 40.4618 78.4373 40.5142 78.4373 40.5927C77.9514 42.3727 77.8704 44.2312 78.1943 46.0636C78.4373 47.4771 79.3011 49.6497 80.7589 50.3827C82.2166 51.1156 83.4314 50.5659 84.2683 50.1471C84.7542 49.8853 85.0781 49.7544 85.3481 49.8068C85.5371 49.833 85.618 50.0424 85.4831 50.1994L84.4033 51.5082C84.1063 51.8224 84.0253 52.2412 84.1063 52.6338L82.6216 53.9165L82.2976 53.6285C82.4056 53.4191 82.4596 53.1574 82.4596 52.9218C82.4596 52.6338 82.2166 52.3982 81.9197 52.3982C81.6227 52.3982 81.3798 52.6338 81.3798 52.9218C81.3798 53.2621 81.0828 53.5238 80.7589 53.5238C80.4619 53.5238 80.219 53.7594 80.219 54.0474C80.219 54.3353 80.4619 54.5709 80.7589 54.5709C81.0558 54.5709 81.3258 54.4924 81.5687 54.3876L82.2976 55.0159L83.5934 56.1415C83.8094 56.3247 84.1603 56.3247 84.3493 56.0891C84.5382 55.8797 84.5382 55.5394 84.2953 55.3562L83.4584 54.6232L84.7542 53.4976C84.9432 53.6024 85.1861 53.6547 85.4291 53.6024C86.1309 53.5238 86.8328 53.1835 87.4537 52.8432C87.8047 53.9426 86.3199 54.8326 85.618 55.4609C85.3481 55.7226 84.8892 56.1153 85.2131 56.5079C85.4021 56.7435 85.78 56.822 86.05 56.9006C86.1849 56.9268 86.3199 56.9529 86.4549 57.0053C87.0218 57.1362 87.5617 57.3718 88.0476 57.712C88.1556 57.7906 88.2366 57.8429 88.3176 57.9215C88.3716 57.9738 88.4525 58 88.5335 58C88.6145 58 88.6955 57.9738 88.7495 57.9215C88.8305 57.8691 88.9115 57.7906 89.0194 57.712C89.4784 57.3718 90.0183 57.11 90.6122 57.0053C90.7471 56.9791 90.8821 56.9529 91.0171 56.9006C91.314 56.822 91.665 56.7435 91.854 56.5079C92.1779 56.1153 91.719 55.6965 91.449 55.4609C90.7741 54.8326 89.2624 53.9426 89.6133 52.8432C90.2342 53.1835 90.9361 53.4976 91.638 53.6024C91.8809 53.6285 92.0969 53.6024 92.2859 53.4976L93.5547 54.5971C93.5547 54.6494 93.5277 54.7279 93.5277 54.7803C93.5277 55.6965 94.2835 56.4294 95.2284 56.4294C96.1732 56.4294 96.9291 55.6965 96.9291 54.7803C96.9291 53.8641 96.1732 53.1312 95.2284 53.1312C94.7424 53.1312 94.3105 53.3144 94.0136 53.6285L92.9338 52.6862C93.0147 52.2935 92.9338 51.8747 92.6368 51.5344L91.557 50.2256C91.449 50.0947 91.53 49.8591 91.692 49.833C91.9619 49.7806 92.2859 49.9377 92.7718 50.1733C93.6086 50.5921 94.8234 51.168 96.2812 50.4088C97.7389 49.6759 98.5758 47.5033 98.8457 46.0897C99.1157 44.2574 99.0347 42.3989 98.5758 40.5927ZM94.6345 54.5447C94.7155 54.3091 94.9584 54.1259 95.2284 54.1259C95.5793 54.1259 95.8493 54.4138 95.8493 54.7279C95.8493 55.0682 95.5523 55.33 95.2284 55.33C94.8774 55.33 94.6075 55.0421 94.6075 54.7279C94.6075 54.6756 94.6075 54.5971 94.6345 54.5447Z" fill="#FEBD2C"/>
<defs>
<filter id="filter0_d" x="0.454712" y="0.982727" width="159.199" height="145.016" filterUnits="userSpaceOnUse" color-interpolation-filters="sRGB">
<feFlood flood-opacity="0" result="BackgroundImageFix"/>
<feColorMatrix in="SourceAlpha" type="matrix" values="0 0 0 0 0 0 0 0 0 0 0 0 0 0 0 0 0 0 127 0"/>
<feOffset dx="2" dy="4"/>
<feGaussianBlur stdDeviation="2"/>
<feColorMatrix type="matrix" values="0 0 0 0 0 0 0 0 0 0 0 0 0 0 0 0 0 0 0.25 0"/>
<feBlend mode="normal" in2="BackgroundImageFix" result="effect1_dropShadow"/>
<feBlend mode="normal" in="SourceGraphic" in2="effect1_dropShadow" result="shape"/>
</filter>
</defs>
</svg>
