<svg width="202" height="72" viewBox="0 0 202 72" fill="none" xmlns="http://www.w3.org/2000/svg">
<rect x="6" width="190" height="72" fill="#FEBD2C"/>
<mask id="mask0" mask-type="alpha" maskUnits="userSpaceOnUse" x="6" y="0" width="190" height="72">
<rect x="6" width="190" height="72" fill="#FEBD2C"/>
</mask>
<g mask="url(#mask0)">
<path d="M23.509 33.5293C23.509 33.5293 2.37655 54.0499 -21.3516 40.1349C-21.3516 40.1349 4.18774 54.4694 26.2417 25.0303C26.24 25.0339 22.7537 33.2768 23.509 33.5293Z" fill="white"/>
<path d="M34.1519 51.4764C34.1519 51.4764 3.67631 66.3724 -23.8017 40.7679C-23.8017 40.7679 1.87397 64.1281 29.066 48.2905C29.0677 48.287 33.4278 49.9656 34.1519 51.4764Z" fill="#E30613"/>
<path d="M25.5759 44.7197C25.5759 44.7197 9.18839 55.2129 -13.2436 45.8647C-13.2436 45.8647 9.77773 54.0152 23.7855 39.5269C23.7819 39.5253 24.6097 42.8526 25.5759 44.7197Z" fill="#0878CA"/>
<ellipse cx="40.7787" cy="34.8226" rx="17.124" ry="17.7145" fill="#FBFBFB"/>
<path d="M38.366 16.6686C29.2567 17.8182 22.5558 25.5464 22.4227 34.4786L22.4139 34.4786C22.4155 34.4997 22.4208 34.5191 22.4225 34.5402C22.4143 35.3659 22.4589 36.2005 22.5651 37.0442C23.828 47.02 32.9684 54.106 42.9407 52.845C52.9165 51.5822 60.0026 42.4417 58.7415 32.4694C57.4823 22.4918 48.3418 15.4058 38.366 16.6686ZM49.6853 45.7191C48.8389 45.5982 46.8543 45.2374 45.4102 44.3627C45.2484 41.7936 44.931 37.386 44.8807 36.6728C45.8483 35.8505 48.4387 33.6131 49.3615 32.5143C50.8425 32.8874 53.734 33.6773 55.2353 34.304C55.812 36.026 55.8048 38.1121 55.7318 39.3477C54.3562 42.5911 50.818 45.0082 49.6853 45.7191ZM37.2774 33.5479C35.2223 34.7291 31.7654 36.5656 30.8782 37.0361C30.019 36.5701 28.0528 35.4577 27.1632 34.6113C26.6655 30.9125 27.572 27.4141 27.8678 26.4063C28.9113 25.5156 31.3476 23.5524 33.1522 23.0094C34.0835 23.5319 36.6082 25.0002 38.2894 26.5306C38.0735 27.8766 37.3894 32.2227 37.2774 33.5479ZM24.6778 37.5216C24.3619 37.2476 24.0006 36.8467 23.698 36.2805C23.3436 32.3833 24.3495 28.6511 26.332 25.5683L27.0805 26.511C26.7203 27.8055 26.0106 30.9296 26.3948 34.3551C25.9278 34.9996 25.0482 36.3099 24.6778 37.5216ZM38.6894 25.9193C36.9888 24.3941 34.5889 22.9827 33.5873 22.4246C33.9773 21.6602 35.5245 19.729 35.5245 19.729C35.5738 19.7133 40.441 18.3641 44.1129 18.9913C45.2293 19.4265 47.0187 20.2267 47.7726 21.1184C47.1045 22.3942 46.2044 24.0617 45.5881 25.0965C44.2646 24.9792 40.0348 25.3184 38.6894 25.9193ZM55.2819 33.5471C53.552 32.858 50.7132 32.1123 49.6174 31.8338C49.1925 30.9944 46.991 26.6858 46.2012 25.4736C46.9237 24.272 47.8983 22.4356 48.3839 21.5096C49.3545 21.8545 52.5046 23.228 52.5046 23.228C52.5308 23.2633 55.2479 26.6353 56.5083 31.2082C56.5119 31.2064 55.657 33.0273 55.2819 33.5471ZM57.1488 30.7984C56.4513 28.3718 55.3916 26.3136 54.5233 24.8899C55.7777 26.6495 56.7144 28.6632 57.2296 30.8639C57.1997 30.8391 57.1716 30.8179 57.1488 30.7984ZM43.4686 17.9662C43.449 18.033 43.433 18.0981 43.4116 18.1614C39.744 17.8001 35.5218 18.9702 35.3297 19.0259L35.3332 19.0418L34.3177 18.952C35.6364 18.4214 37.0426 18.0495 38.5185 17.8627C40.2075 17.6538 41.8711 17.6948 43.4686 17.9662ZM24.6202 38.3893C24.8738 39.3796 25.7837 42.5182 27.4994 44.2424C27.565 44.6229 27.6912 45.2852 27.8543 45.9777C25.871 43.7226 24.4653 40.9221 23.8988 37.7847C24.1602 38.0461 24.413 38.246 24.6202 38.3893ZM28.9173 47.0764C28.6891 46.3943 28.4671 45.4411 28.308 44.6149C29.0526 44.628 30.6636 44.5896 31.9153 44.0922C31.9153 44.0922 31.2246 39.1974 31.2475 37.6571C32.177 37.1656 35.5158 35.3921 37.5638 34.2144C38.7211 35.0511 42.8455 36.6886 44.1702 36.9503C44.2491 38.0579 44.5194 41.8298 44.6714 44.2105C44.1608 44.714 42.6335 46.0202 39.4231 47.3171C36.9262 46.9511 31.7643 43.4597 31.7134 43.4278L31.91 44.0904L31.4396 44.1786C31.6364 44.3096 36.261 47.3818 38.9737 47.9705C39.2952 48.6547 39.9488 50.0442 40.3337 50.7409C39.2333 51.2688 37.946 51.3928 37.1097 51.4075C34.0047 50.7453 31.1721 49.2232 28.9173 47.0764ZM39.721 51.7564C40.2286 51.6014 40.7346 51.3902 41.1986 51.0943C42.4085 50.9647 45.1507 50.6468 46.5235 50.2695C46.6975 50.3546 46.9437 50.4259 47.2834 50.4376C45.8818 51.0313 44.3769 51.4433 42.7935 51.6438C41.7526 51.7775 40.7279 51.8109 39.721 51.7564ZM50.0843 48.9263C48.6913 49.5728 47.8493 49.7178 47.3599 49.7055C47.9486 48.9963 49.1845 47.4831 49.7705 46.5204C50.4074 46.1476 54.1811 43.8422 56.015 40.4332L56.6892 40.4725C55.4536 43.9188 53.1282 46.8947 50.0843 48.9263Z" fill="#323232"/>
<path d="M38.414 30.7176C38.414 30.7176 39.076 26.6549 39.6134 26.516C40.7869 26.2155 44.9887 25.8463 45.4824 26.1508C45.9795 26.4536 47.876 29.8896 47.876 29.8896C47.876 29.8896 45.4773 26.5927 45.2133 26.5918C43.312 26.5852 40.0416 26.91 39.7384 27.5216C38.5274 29.9892 38.7873 30.1855 38.414 30.7176Z" fill="#FBFBFB"/>
<path d="M41.7952 47.1036C41.9908 47.0374 44.7367 45.1491 45.0972 45.2648C45.4577 45.3805 47.9919 46.1587 47.9919 46.1587C47.9919 46.1587 45.5992 45.7102 45.0477 45.8386C44.498 45.9705 41.7952 47.1036 41.7952 47.1036Z" fill="#FBFBFB"/>
<path d="M25.3797 37.2089C25.3797 37.2089 26.3452 34.9553 26.607 35.1024C26.8706 35.2529 30.2228 37.2029 30.3204 37.4972C30.4179 37.7916 30.8357 39.6538 30.8357 39.6538C30.8357 39.6538 30.05 37.785 29.8429 37.5889C29.4622 37.2196 26.7422 35.712 26.5712 35.7923C26.3983 35.878 25.3797 37.2089 25.3797 37.2089Z" fill="#FBFBFB"/>
</g>
<path d="M72.544 15.518L74.542 29H72.886L72.364 25.49H69.556L69.034 29H67.378L69.376 15.518H72.544ZM70.78 17.156L69.79 23.852H72.13L71.122 17.156H70.78ZM78.8145 20.972L81.3885 15.554H83.1885L80.2365 21.8L83.6025 29H81.8025L78.8145 22.61H77.9505V29H76.3125V15.554H77.9505V20.972H78.8145ZM85.0484 15.554H86.6864V27.434H89.7284V15.536H91.3664V27.488H92.3384V30.35H90.7904V29H85.0484V15.554ZM94.1191 15.554H95.7571V20.288L95.5051 25.94H95.5591L96.8911 20.378L98.4211 15.554H100.635V29H98.9971V22.52L99.2671 17.678H99.2131L97.9711 22.376L95.8651 29H94.1191V15.554ZM106.087 24.464L103.981 29H102.181L104.575 23.834L103.117 22.268V17.606L105.187 15.518H109.147V29H107.509V24.464H106.087ZM105.853 17.174L104.755 18.272V21.62L105.871 22.826H107.509V17.174H105.853ZM114.984 15.536H121.302V29H119.664V17.102H116.622V29H114.984V15.536ZM130.214 22.394L128.144 24.572H125.534V29H123.896V15.518H128.126L130.214 17.57V22.394ZM128.558 21.746V18.254L127.46 17.156H125.534V22.934H127.442L128.558 21.746ZM137.169 29.054H134.577L132.561 26.894V17.372L134.595 15.338H137.169L139.203 17.372V26.894L137.169 29.054ZM137.565 18.038L136.485 16.958H135.261L134.181 18.038V26.264L135.279 27.434H136.467L137.565 26.264V18.038ZM140.873 27.56H142.169L143.879 15.518H148.577V27.56H149.729V30.35H148.145V29H142.457V30.35H140.873V27.56ZM145.319 17.12L143.825 27.56H146.939V17.12H145.319ZM157.902 15.518V29H156.264V17.12H154.644L152.952 29H150.45V27.488H151.494L153.222 15.518H157.902ZM165.373 23.15H162.115V27.362H166.255V29H160.477V15.518H166.003V17.156H162.115V21.512H165.373V23.15ZM168.616 15.554H170.254V21.494H173.296V15.554H174.934V29H173.296V23.06H170.254V29H168.616V15.554ZM181.739 15.518L183.737 29H182.081L181.559 25.49H178.751L178.229 29H176.573L178.571 15.518H181.739ZM179.975 17.156L178.985 23.852H181.325L180.317 17.156H179.975ZM67.414 51.56H68.71L70.42 39.518H75.118V51.56H76.27V54.35H74.686V53H68.998V54.35H67.414V51.56ZM71.86 41.12L70.366 51.56H73.48V41.12H71.86ZM82.5887 53.054H79.9967L77.9807 50.894V41.372L80.0147 39.338H82.5887L84.6227 41.372V50.894L82.5887 53.054ZM82.9847 42.038L81.9047 40.958H80.6807L79.6007 42.038V50.264L80.6987 51.434H81.8867L82.9847 50.264V42.038ZM96.2944 39.5V42.902L94.5304 45.062L96.4564 47.24V50.93L94.5124 53H91.9564L90.0124 50.93V48.482H91.6504V50.282L92.6584 51.362H93.7924L94.8184 50.282V47.852L93.7924 46.7H92.4244L91.9024 45.692L94.6564 42.326V41.03H91.7944V42.452H90.1564V39.5H96.2944ZM100.968 53.072L98.9163 50.894V41.516L100.986 39.446H103.596L105.648 41.516V50.894L103.614 53.072H100.968ZM102.912 41.084H101.67L100.554 42.182V48.338L103.686 41.84L102.912 41.084ZM101.67 51.452H102.894L104.028 50.246V44.126L100.896 50.624L101.67 51.452ZM111.504 39.554H113.142V44.288L112.89 49.94H112.944L114.276 44.378L115.806 39.554H118.02V53H116.382V46.52L116.652 41.678H116.598L115.356 46.376L113.25 53H111.504V39.554ZM128.493 53.054H126.045L124.029 50.894V47.06H122.247V53H120.609V39.554H122.247V45.494H124.029V41.372L126.063 39.338H128.493L130.527 41.372V50.894L128.493 53.054ZM128.889 42.038L127.809 40.958H126.729L125.649 42.038V50.264L126.747 51.434H127.791L128.889 50.264V42.038ZM133.143 39.554H134.781V45.494H137.823V39.554H139.461V53H137.823V47.06H134.781V53H133.143V39.554ZM144.917 48.464L142.811 53H141.011L143.405 47.834L141.947 46.268V41.606L144.017 39.518H147.977V53H146.339V48.464H144.917ZM144.683 41.174L143.585 42.272V45.62L144.701 46.826H146.339V41.174H144.683ZM155.38 39.446H157.846L159.682 41.498V44.954L155.11 50.192V51.47H158.134V50.048H159.79V53H153.49V49.598L158.026 44.342V42.11L157.108 41.084H156.136L155.2 42.11V43.532H153.562V41.498L155.38 39.446ZM164.162 53.072L162.11 50.894V41.516L164.18 39.446H166.79L168.842 41.516V50.894L166.808 53.072H164.162ZM166.106 41.084H164.864L163.748 42.182V48.338L166.88 41.84L166.106 41.084ZM164.864 51.452H166.088L167.222 50.246V44.126L164.09 50.624L164.864 51.452ZM172.976 39.446H175.442L177.278 41.498V44.954L172.706 50.192V51.47H175.73V50.048H177.386V53H171.086V49.598L175.622 44.342V42.11L174.704 41.084H173.732L172.796 42.11V43.532H171.158V41.498L172.976 39.446ZM181.757 53.072L179.705 50.894V41.516L181.775 39.446H184.385L186.437 41.516V50.894L184.403 53.072H181.757ZM183.701 41.084H182.459L181.343 42.182V48.338L184.475 41.84L183.701 41.084ZM182.459 51.452H183.683L184.817 50.246V44.126L181.685 50.624L182.459 51.452Z" fill="#D01319"/>
<path d="M202 6L196 0V6H202Z" fill="#CB9419"/>
<path d="M0 6L6 0V6H0Z" fill="#CB9419"/>
<path d="M202 66L196 72V66H202Z" fill="#CB9419"/>
<path d="M0 66L6 72V66H0Z" fill="#CB9419"/>
</svg>
