<svg width="548" height="121" viewBox="0 0 548 121" fill="none" xmlns="http://www.w3.org/2000/svg">
<path d="M39.3201 98.0047L42.1198 95.2453L39.3201 92.6085V82.1226L42.1198 79.3632L44.9195 82.1226V92.4858L42.1198 95.2453L44.9195 98.0047V108.368L42.1198 111.127L39.3201 108.368V98.0047ZM19.6601 98.0047L22.4597 95.2453L19.6601 92.4858V82.1226L22.4597 79.3632L25.2594 82.1226V92.4858L22.4597 95.2453L25.2594 98.0047V108.368L22.4597 111.127L19.6601 108.368V98.0047ZM0 98.0047L2.79969 95.2453L0 92.4858V82.1226L2.79969 79.3632L5.59938 82.1226V92.4858L2.79969 95.2453L5.59938 98.0047V108.368L2.79969 111.127L0 108.368V98.0047ZM25.7572 108.858H38.8224L41.6221 111.618L38.8224 114.377H25.7572L22.9575 111.618L25.7572 108.858ZM6.09711 108.858H19.1623L21.962 111.618L19.1623 114.377H6.09711L3.29741 111.618L6.09711 108.858ZM25.7572 76.1132H38.8224L41.6221 78.8726L38.8224 81.6321H25.7572L22.9575 78.8726L25.7572 76.1132ZM6.09711 76.1132H19.1623L21.962 78.8726L19.1623 81.6321H6.09711L3.29741 78.8726L6.09711 76.1132ZM25.2594 118.241L22.4597 121L19.6601 118.241V114.868L22.4597 112.108L25.2594 114.868V118.241ZM25.2594 75.6226L22.4597 78.3821L19.6601 75.6226V71.7594L22.4597 69L25.2594 71.7594V75.6226Z" fill="#0878CA"/>
<path d="M56.5863 92.4858H71.4558L74.2555 95.2453L71.4558 98.0047H56.5863L53.7866 95.2453L56.5863 92.4858ZM71.4558 118.241H53.2889L50.4892 115.481L53.2889 112.722H71.4558L74.2555 115.481L71.4558 118.241ZM71.9535 91.9953V75.0094L74.7532 72.25L77.5529 75.0094V91.9953L74.7532 94.7547L71.9535 91.9953ZM50.4892 91.9953V75.0094L53.2889 72.25L56.0886 75.0094V91.9953L53.2889 94.7547L50.4892 91.9953ZM71.9535 98.4953L74.7532 95.7358L77.5529 98.4953V112.231L74.7532 114.991L71.9535 112.231V98.4953Z" fill="#0878CA"/>
<path d="M94.8731 78.2594L97.6728 75.5L100.472 78.1981V92.4858L97.6728 95.2453L100.472 98.0047V115.481L97.6728 118.241L94.8731 115.481V98.0047L97.6728 95.2453L94.8731 92.4858V78.2594ZM98.1705 75.0094L100.97 72.25H112.169L114.969 75.0094L112.169 77.7689H100.97L98.1705 75.0094ZM94.3754 77.7689H83.1766L80.3769 75.0094L83.1766 72.25H94.3754L97.1751 75.0094L94.3754 77.7689Z" fill="#0878CA"/>
<path d="M118.245 72.25H142.011L144.811 75.0094L142.011 77.7689H123.845L118.245 72.25ZM123.845 92.4858H138.714L141.514 95.2453L138.714 98.0047H123.845L121.045 95.2453L123.845 92.4858ZM117.747 98.4953L120.547 95.7358L123.347 98.4953V112.231L117.747 117.75V98.4953ZM123.845 112.722H138.714L141.514 115.481L138.714 118.241H118.245L123.845 112.722ZM117.747 72.7406L123.347 78.2594V91.9953L120.547 94.7547L117.747 91.9953V72.7406ZM139.212 98.4953L142.011 95.7358L144.811 98.4953V112.231L142.011 114.991L139.212 112.231V98.4953Z" fill="#0878CA"/>
<path d="M156.532 72.25H171.401L174.201 75.0094L171.401 77.7689H156.532L153.732 75.0094L156.532 72.25ZM156.532 112.722H171.401L174.201 115.481L171.401 118.241H156.47L153.732 115.481L156.532 112.722ZM171.899 98.0047L174.699 95.2453L171.899 92.6085V78.2594L174.699 75.5L177.498 78.2594V92.4858L174.699 95.2453L177.498 98.0047V112.231L174.699 114.991L171.899 112.231V98.0047ZM150.435 98.0047L153.234 95.2453L150.435 92.4858V78.2594L153.234 75.5L156.034 78.2594V92.4858L153.234 95.2453L156.034 98.0047V112.231L153.234 114.991L150.435 112.231V98.0047Z" fill="#0878CA"/>
<path d="M196.561 72.25H217.092L211.492 77.7689H196.623L193.823 75.0094L196.561 72.25ZM217.589 98.0047V115.481L214.79 118.241L211.99 115.481V97.8821L214.79 95.2453L211.99 92.4858V78.2594L217.589 72.7406V92.4858L214.79 95.2453L217.589 98.0047ZM190.526 112.231V98.0047L193.325 95.2453L190.526 92.4858V78.2594L193.325 75.5L196.125 78.2594V92.4858L193.325 95.2453L196.125 98.0047V112.231L193.325 114.991L190.526 112.231ZM183.122 115.481L185.922 112.722H190.028L192.828 115.481L190.028 118.241H185.922L183.122 115.481Z" fill="#0878CA"/>
<path d="M239.577 72.25H263.344L266.143 75.0094L263.344 77.7689H245.177L239.577 72.25ZM245.177 92.4858H260.046L262.846 95.2453L260.046 98.0047H245.177L242.377 95.2453L245.177 92.4858ZM239.08 98.4953L241.879 95.7358L244.679 98.4953V112.231L239.08 117.75V98.4953ZM245.177 112.722H260.046L262.846 115.481L260.046 118.241H239.577L245.177 112.722ZM239.08 72.7406L244.679 78.2594V91.9953L241.879 94.7547L239.08 91.9953V72.7406ZM260.544 98.4953L263.344 95.7358L266.143 98.4953V112.231L263.344 114.991L260.544 112.231V98.4953Z" fill="#0878CA"/>
<path d="M272.265 72.25H293.231L296.031 75.0094L293.231 77.7689H277.864L272.265 72.25ZM277.864 92.4858H293.231L296.031 95.2453L293.231 98.0047H277.864L275.064 95.2453L277.864 92.4858ZM271.767 98.4953L274.567 95.7358L277.366 98.4953V112.231L271.767 117.75V98.4953ZM271.767 72.7406L277.366 78.2594V91.9953L274.567 94.7547L271.767 91.9953V72.7406ZM272.265 118.241L277.864 112.722H293.231L296.031 115.481L293.231 118.241H272.265Z" fill="#0878CA"/>
<path d="M317.761 72.25L320.56 75.0094L317.761 77.7689H302.393L299.594 75.0094L302.393 72.25H317.761ZM317.761 92.4858L320.56 95.2453L317.761 98.0047H304.073L301.274 95.2453L304.073 92.4858H317.761ZM323.858 98.4953V112.231L321.058 114.991L318.258 112.231V98.4953L321.058 95.7358L323.858 98.4953ZM323.858 78.2594V91.9953L321.058 94.7547L318.258 91.9953V78.2594L321.058 75.5L323.858 78.2594ZM317.761 118.241H302.393L299.594 115.481L302.393 112.722H317.761L320.56 115.481L317.761 118.241Z" fill="#0878CA"/>
<path d="M345.902 72.25H366.869L369.669 75.0094L366.869 77.7689H351.502L345.902 72.25ZM345.405 72.7406L351.004 78.2594V92.4858L348.204 95.2453L351.004 98.0047V115.481L348.204 118.241L345.405 115.481V98.0047L348.204 95.2453L345.405 92.4858V72.7406Z" fill="#0878CA"/>
<path d="M375.795 72.25H396.761L399.561 75.0094L396.761 77.7689H381.394L375.795 72.25ZM381.394 92.4858H396.761L399.561 95.2453L396.761 98.0047H381.394L378.595 95.2453L381.394 92.4858ZM375.297 98.4953L378.097 95.7358L380.897 98.4953V115.481L378.097 118.241L375.297 115.481V98.4953ZM375.297 72.7406L380.897 78.2594V91.9953L378.097 94.7547L375.297 91.9953V72.7406ZM402.859 91.9953L400.059 94.7547L397.259 91.9953V78.2594L400.059 75.5L402.859 78.2594V91.9953Z" fill="#0878CA"/>
<path d="M414.568 72.25H435.037L429.437 77.7689H414.568L411.768 75.0094L414.568 72.25ZM414.568 92.4858H429.437L432.237 95.2453L429.437 98.0047H414.568L411.768 95.2453L414.568 92.4858ZM408.471 98.4953L411.27 95.7358L414.07 98.4953V115.481L411.27 118.241L408.471 115.481V98.4953ZM429.935 78.2594L435.534 72.7406V91.9953L432.735 94.7547L429.935 91.9953V78.2594ZM408.471 78.2594L411.27 75.5L414.07 78.2594V91.9953L411.27 94.7547L408.471 91.9953V78.2594ZM429.935 98.4953L432.735 95.7358L435.534 98.4953V115.481L432.735 118.241L429.935 115.481V98.4953Z" fill="#0878CA"/>
<path d="M447.255 92.4858H462.125L464.924 95.2453L462.125 98.0047H447.255L444.455 95.2453L447.255 92.4858ZM441.158 98.4953L443.958 95.7358L446.757 98.4953V115.481L443.958 118.241L441.158 115.481V98.4953ZM441.158 91.9953V75.0094L443.958 72.25L446.757 75.0094V91.9953L443.958 94.7547L441.158 91.9953ZM462.622 98.4953L465.422 95.7358L468.222 98.4953V115.481L465.422 118.241L462.622 115.481V98.4953ZM462.622 91.9953V75.0094L465.422 72.25L468.222 75.0094V91.9953L465.422 94.7547L462.622 91.9953Z" fill="#0878CA"/>
<path d="M495.31 115.481V98.0047L498.109 95.2453L495.31 92.4858V75.0094L498.109 72.25L500.909 75.0094V92.4858L498.109 95.2453L500.909 98.0047V115.481L498.109 118.241L495.31 115.481ZM479.445 98.0047V115.481L476.645 118.241L473.845 115.481V98.0047L476.645 95.2453L473.845 92.4858V75.0094L476.645 72.25L479.445 75.0094V92.4858L476.645 95.2453L479.445 98.0047ZM494.563 98.0047V101.684L483.924 115.481H480.191V111.802L490.83 98.0047H494.563Z" fill="#0878CA"/>
<path d="M512.63 112.722H527.499L530.299 115.481L527.499 118.241H512.568L509.83 115.481L512.63 112.722ZM527.997 98.0047L530.797 95.2453L527.997 92.6085V75.0094L530.797 72.25L533.596 75.0094V92.4858L530.797 95.2453L533.596 98.0047V112.231L530.797 114.991L527.997 112.231V98.0047ZM506.533 98.0047L509.332 95.2453L506.533 92.4858V75.0094L509.332 72.25L512.132 75.0094V92.4858L509.332 95.2453L512.132 98.0047V112.231L509.332 114.991L506.533 112.231V98.0047ZM531.294 115.481L534.094 112.722H545.2L548 115.481L545.2 118.241H534.094L531.294 115.481Z" fill="#0878CA"/>
<path d="M180.975 6.54545H195.546L198.289 9.27273L195.546 12H180.975L178.231 9.27273L180.975 6.54545ZM180.975 46.5455H195.546L198.289 49.2727L195.546 52H180.914L178.231 49.2727L180.975 46.5455ZM196.034 32L198.777 29.2727L196.034 26.6667V12.4849L198.777 9.75758L201.521 12.4849V26.5455L198.777 29.2727L201.521 32V46.0606L198.777 48.7879L196.034 46.0606V32ZM175 32L177.744 29.2727L175 26.5455V12.4849L177.744 9.75758L180.487 12.4849V26.5455L177.744 29.2727L180.487 32V46.0606L177.744 48.7879L175 46.0606V32Z" fill="#D01319"/>
<path d="M218.493 12.4849L221.237 9.75758L223.98 12.4242V26.5455L221.237 29.2727L223.98 32V49.2727L221.237 52L218.493 49.2727V32L221.237 29.2727L218.493 26.5455V12.4849ZM221.725 9.27273L224.468 6.54545H235.442L238.186 9.27273L235.442 12H224.468L221.725 9.27273ZM218.006 12H207.031L204.288 9.27273L207.031 6.54545H218.006L220.749 9.27273L218.006 12Z" fill="#D01319"/>
<path d="M246.883 26.5455H261.455L264.198 29.2727L261.455 32H246.883L244.14 29.2727L246.883 26.5455ZM240.909 32.4848L243.652 29.7576L246.396 32.4848V49.2727L243.652 52L240.909 49.2727V32.4848ZM240.909 26.0606V9.27273L243.652 6.54545L246.396 9.27273V26.0606L243.652 28.7879L240.909 26.0606ZM261.942 32.4848L264.686 29.7576L267.429 32.4848V49.2727L264.686 52L261.942 49.2727V32.4848ZM261.028 6.54545H264.686V10.1818L250.785 25.8182H247.127V22.1818L261.028 6.54545Z" fill="#D01319"/>
<path d="M273.428 6.54545H293.974L296.717 9.27273L293.974 12H278.915L273.428 6.54545ZM278.915 26.5455H293.974L296.717 29.2727L293.974 32H278.915L276.171 29.2727L278.915 26.5455ZM272.94 32.4848L275.684 29.7576L278.427 32.4848V49.2727L275.684 52L272.94 49.2727V32.4848ZM272.94 7.0303L278.427 12.4849V26.0606L275.684 28.7879L272.94 26.0606V7.0303ZM299.948 26.0606L297.205 28.7879L294.461 26.0606V12.4849L297.205 9.75758L299.948 12.4849V26.0606Z" fill="#D01319"/>
<path d="M311.423 6.54545H325.994L328.737 9.27273L325.994 12H311.423L308.679 9.27273L311.423 6.54545ZM311.423 46.5455H325.994L328.737 49.2727L325.994 52H311.362L308.679 49.2727L311.423 46.5455ZM326.482 32L329.225 29.2727L326.482 26.6667V12.4849L329.225 9.75758L331.969 12.4849V26.5455L329.225 29.2727L331.969 32V46.0606L329.225 48.7879L326.482 46.0606V32ZM305.448 32L308.191 29.2727L305.448 26.5455V12.4849L308.191 9.75758L310.935 12.4849V26.5455L308.191 29.2727L310.935 32V46.0606L308.191 48.7879L305.448 46.0606V32Z" fill="#D01319"/>
<path d="M358.513 49.2727V32L361.257 29.2727L358.513 26.5455V9.27273L361.257 6.54545L364 9.27273V26.5455L361.257 29.2727L364 32V49.2727L361.257 52L358.513 49.2727ZM342.966 32V49.2727L340.223 52L337.479 49.2727V32L340.223 29.2727L337.479 26.5455V9.27273L340.223 6.54545L342.966 9.27273V26.5455L340.223 29.2727L342.966 32ZM357.781 32V35.6364L347.356 49.2727H343.698V45.6364L354.123 32H357.781ZM350.404 2.72727V6.54545H346.502L343.698 3.75757V0H347.661L350.404 2.72727ZM357.781 0V3.81818L355.038 6.54545H351.136V2.72727L353.879 0H357.781Z" fill="#D01319"/>
</svg>
