<svg width="351" height="110" viewBox="0 0 351 110" fill="none" xmlns="http://www.w3.org/2000/svg">
<rect x="14" width="323" height="110" fill="#FEBD2C"/>
<mask id="mask0" mask-type="alpha" maskUnits="userSpaceOnUse" x="14" y="0" width="323" height="110">
<rect x="14" width="323" height="110" fill="#FEBD2C"/>
</mask>
<g mask="url(#mask0)">
<path d="M32.8498 51.6155C32.8498 51.6155 0.0364378 83.4789 -36.8075 61.8723C-36.8075 61.8723 2.84878 84.1303 37.0931 38.4187C37.0905 38.4243 31.677 51.2233 32.8498 51.6155Z" fill="white"/>
<path d="M49.3756 79.4831C49.3756 79.4831 2.05456 102.613 -40.6119 62.8554C-40.6119 62.8554 -0.744031 99.128 41.4785 74.5362C41.4811 74.5307 48.2512 77.1372 49.3756 79.4831Z" fill="#E30613"/>
<path d="M36.0593 68.9917C36.0593 68.9917 10.6136 85.285 -24.2177 70.7696C-24.2177 70.7696 11.5287 83.4254 33.2793 60.9287C33.2737 60.9261 34.559 66.0926 36.0593 68.9917Z" fill="#0878CA"/>
<ellipse cx="59.6655" cy="53.6237" rx="26.5893" ry="27.5062" fill="#FBFBFB"/>
<path d="M55.9191 25.4349C41.7747 27.22 31.3699 39.2199 31.1631 53.0895L31.1494 53.0894C31.1521 53.1223 31.1601 53.1524 31.1628 53.1852C31.1501 54.4672 31.2194 55.7632 31.3843 57.0731C33.3452 72.5631 47.5381 83.566 63.0226 81.6079C78.5125 79.6471 89.5154 65.4541 87.5573 49.9697C85.602 34.477 71.4091 23.4741 55.9191 25.4349ZM73.4952 70.5431C72.181 70.3554 69.0994 69.7952 66.8571 68.437C66.6058 64.4478 66.113 57.6039 66.0348 56.4965C67.5373 55.2197 71.5595 51.7456 72.9924 50.0393C75.2921 50.6186 79.7819 51.8452 82.113 52.8183C83.0085 55.4921 82.9973 58.7314 82.884 60.65C80.7479 65.6861 75.254 69.4394 73.4952 70.5431ZM54.2288 51.6443C51.0378 53.4784 45.67 56.33 44.2925 57.0606C42.9583 56.337 39.9054 54.6097 38.524 53.2955C37.7512 47.5522 39.1588 42.12 39.618 40.5552C41.2383 39.1722 45.0213 36.1237 47.8235 35.2805C49.2695 36.092 53.1897 38.3718 55.8003 40.7482C55.465 42.8382 54.4027 49.5865 54.2288 51.6443ZM34.6648 57.8144C34.1743 57.389 33.6133 56.7665 33.1434 55.8874C32.5932 49.836 34.155 44.0407 37.2333 39.2539L38.3955 40.7177C37.8363 42.7277 36.7342 47.5788 37.3308 52.8977C36.6056 53.8984 35.24 55.9329 34.6648 57.8144ZM56.4214 39.799C53.7807 37.4307 50.0542 35.2391 48.4991 34.3726C49.1046 33.1856 51.5069 30.187 51.5069 30.187C51.5836 30.1626 59.1411 28.0676 64.8427 29.0415C66.5762 29.7172 69.3547 30.9598 70.5253 32.3443C69.4879 34.3253 68.0902 36.9146 67.1333 38.5214C65.0783 38.3393 58.5103 38.8659 56.4214 39.799ZM82.1854 51.6431C79.4993 50.5731 75.0913 49.4151 73.3897 48.9828C72.73 47.6793 69.3116 40.9892 68.0853 39.107C69.2071 37.2411 70.7205 34.3897 71.4745 32.9517C72.9816 33.4873 77.8728 35.6201 77.8728 35.6201C77.9136 35.6749 82.1325 40.9108 84.0897 48.0113C84.0952 48.0086 82.7678 50.836 82.1854 51.6431ZM85.0842 47.3751C84.0011 43.6071 82.3557 40.4113 81.0075 38.2006C82.9553 40.9328 84.4096 44.0596 85.2096 47.4766C85.1633 47.4382 85.1197 47.4053 85.0842 47.3751ZM63.8423 27.4498C63.8119 27.5535 63.7869 27.6546 63.7538 27.7529C58.0589 27.1918 51.5028 29.0088 51.2046 29.0952L51.2099 29.1198L49.6331 28.9804C51.6807 28.1565 53.8642 27.5791 56.1559 27.2891C58.7786 26.9647 61.3616 27.0284 63.8423 27.4498ZM34.5754 59.1618C34.9692 60.6994 36.3819 65.5729 39.0461 68.2501C39.1479 68.841 39.3439 69.8695 39.5971 70.9447C36.5175 67.4431 34.3348 63.0946 33.4552 58.223C33.8611 58.629 34.2536 58.9392 34.5754 59.1618ZM41.2477 72.6507C40.8933 71.5916 40.5485 70.1115 40.3015 68.8286C41.4578 68.849 43.9592 68.7893 45.9028 68.017C45.9028 68.017 44.8303 60.4166 44.8659 58.0248C46.3092 57.2617 51.4935 54.5078 54.6735 52.6792C56.4705 53.9784 62.8747 56.5211 64.9317 56.9273C65.0542 58.6472 65.4739 64.504 65.7098 68.2007C64.9171 68.9825 62.5455 71.0108 57.5606 73.0245C53.6836 72.4561 45.6683 67.0348 45.5892 66.9854L45.8946 68.0143L45.1642 68.1511C45.4697 68.3545 52.6507 73.125 56.8627 74.039C57.362 75.1014 58.3769 77.259 58.9745 78.3408C57.2659 79.1604 55.267 79.353 53.9684 79.3758C49.1472 78.3477 44.7488 75.9842 41.2477 72.6507ZM58.0232 79.9175C58.8113 79.677 59.597 79.3489 60.3175 78.8895C62.1962 78.6882 66.4542 78.1946 68.5857 77.6088C68.8559 77.741 69.2382 77.8516 69.7657 77.8699C67.5893 78.7917 65.2526 79.4315 62.794 79.7428C61.1777 79.9504 59.5865 80.0022 58.0232 79.9175ZM74.1148 75.5232C71.9518 76.5271 70.6443 76.7521 69.8845 76.7331C70.7986 75.6319 72.7175 73.2822 73.6276 71.7873C74.6164 71.2085 80.476 67.6287 83.3237 62.3354L84.3705 62.3965C82.452 67.7477 78.8413 72.3686 74.1148 75.5232Z" fill="#323232"/>
<path d="M55.9936 47.2496C55.9936 47.2496 57.0215 40.9412 57.856 40.7255C59.6782 40.2589 66.2026 39.6856 66.9691 40.1585C67.7411 40.6286 70.6858 45.9639 70.6858 45.9639C70.6858 45.9639 66.9613 40.8446 66.5512 40.8432C63.599 40.8329 58.5209 41.3374 58.0502 42.287C56.1698 46.1185 56.5733 46.4233 55.9936 47.2496Z" fill="#FBFBFB"/>
<path d="M61.2439 72.6931C61.5477 72.5902 65.8114 69.6582 66.3712 69.8379C66.9309 70.0175 70.8659 71.2258 70.8659 71.2258C70.8659 71.2258 67.1506 70.5294 66.2943 70.7287C65.4407 70.9335 61.2439 72.6931 61.2439 72.6931Z" fill="#FBFBFB"/>
<path d="M35.7545 57.3291C35.7545 57.3291 37.2538 53.8298 37.6603 54.0581C38.0695 54.2919 43.2747 57.3197 43.4262 57.7768C43.5777 58.2338 44.2264 61.1255 44.2264 61.1255C44.2264 61.1255 43.0064 58.2236 42.6849 57.9191C42.0937 57.3457 37.8702 55.0047 37.6046 55.1295C37.3362 55.2625 35.7545 57.3291 35.7545 57.3291Z" fill="#FBFBFB"/>
</g>
<path d="M14 15V0L0 15H14Z" fill="#CB9419"/>
<path d="M337 15V0L351 15H337Z" fill="#CB9419"/>
<path d="M14 95V110L0 95H14Z" fill="#CB9419"/>
<path d="M337 95V110L351 95H337Z" fill="#CB9419"/>
<path d="M113.494 25.283L117.157 50H114.121L113.164 43.565H108.016L107.059 50H104.023L107.059 29.276L108.313 28.517V28.286H105.739V25.283H113.494ZM110.26 28.286L108.445 40.562H112.735L110.887 28.286H110.26ZM125.208 35.282L129.927 25.349H133.227L127.815 36.8L133.986 50H130.686L125.208 38.285H123.624V50H120.621V25.349H123.624V35.282H125.208ZM136.637 25.349H139.64V47.129H145.217V25.316H148.22V47.228H150.002V52.475H147.164V50H136.637V25.349ZM153.266 25.349H156.269V34.028L155.807 44.39H155.906L158.348 34.193L161.153 25.349H165.212V50H162.209V38.12L162.704 29.243H162.605L160.328 37.856L156.467 50H153.266V25.349ZM175.207 41.684L171.346 50H168.046L172.435 40.529L169.762 37.658V29.111L173.557 25.283H180.817V50H177.814V41.684H175.207ZM174.778 28.319L172.765 30.332V36.47L174.811 38.681H177.814V28.319H174.778ZM191.518 25.316H203.101V50H200.098V28.187H194.521V50H191.518V25.316ZM219.441 37.889L215.646 41.882H210.861V50H207.858V25.283H215.613L219.441 29.045V37.889ZM216.405 36.701V30.299L214.392 28.286H210.861V38.879H214.359L216.405 36.701ZM232.191 50.099H227.439L223.743 46.139V28.682L227.472 24.953H232.191L235.92 28.682V46.139L232.191 50.099ZM232.917 29.903L230.937 27.923H228.693L226.713 29.903V44.984L228.726 47.129H230.904L232.917 44.984V29.903ZM238.982 47.36H241.358L244.493 25.283H253.106V47.36H255.218V52.475H252.314V50H241.886V52.475H238.982V47.36ZM247.133 28.22L244.394 47.36H250.103V28.22H247.133ZM270.201 25.283V50H267.198V28.22H264.228L261.126 50H256.539V47.228H258.453L261.621 25.283H270.201ZM283.897 39.275H277.924V46.997H285.514V50H274.921V25.283H285.052V28.286H277.924V36.272H283.897V39.275ZM289.843 25.349H292.846V36.239H298.423V25.349H301.426V50H298.423V39.11H292.846V50H289.843V25.349ZM313.903 25.283L317.566 50H314.53L313.573 43.565H308.425L307.468 50H304.432L308.095 25.283H313.903ZM310.669 28.286L308.854 40.562H313.144L311.296 28.286H310.669ZM103.759 80.36H106.135L109.27 58.283H117.883V80.36H119.995V85.475H117.091V83H106.663V85.475H103.759V80.36ZM111.91 61.22L109.171 80.36H114.88V61.22H111.91ZM131.579 83.099H126.827L123.131 79.139V61.682L126.86 57.953H131.579L135.308 61.682V79.139L131.579 83.099ZM132.305 62.903L130.325 60.923H128.081L126.101 62.903V77.984L128.114 80.129H130.292L132.305 77.984V62.903ZM156.706 58.25V64.487L153.472 68.447L157.003 72.44V79.205L153.439 83H148.753L145.189 79.205V74.717H148.192V78.017L150.04 79.997H152.119L154 78.017V73.562L152.119 71.45H149.611L148.654 69.602L153.703 63.431V61.055H148.456V63.662H145.453V58.25H156.706ZM166.562 80.228H170.291V83H159.83V80.228H163.559V61.286H160.094V58.283H166.562V80.228ZM179.402 58.349H182.405V67.028L181.943 77.39H182.042L184.484 67.193L187.289 58.349H191.348V83H188.345V71.12L188.84 62.243H188.741L186.464 70.856L182.603 83H179.402V58.349ZM210.549 83.099H206.061L202.365 79.139V72.11H199.098V83H196.095V58.349H199.098V69.239H202.365V61.682L206.094 57.953H210.549L214.278 61.682V79.139L210.549 83.099ZM211.275 62.903L209.295 60.923H207.315L205.335 62.903V77.984L207.348 80.129H209.262L211.275 77.984V62.903ZM230.756 58.283V83H227.753V61.22H224.783L221.681 83H217.094V80.228H219.008L222.176 58.283H230.756ZM240.723 74.684L236.862 83H233.562L237.951 73.529L235.278 70.658V62.111L239.073 58.283H246.333V83H243.33V74.684H240.723ZM240.294 61.319L238.281 63.332V69.47L240.327 71.681H243.33V61.319H240.294ZM259.906 58.151H264.427L267.793 61.913V68.249L259.411 77.852V80.195H264.955V77.588H267.991V83H256.441V76.763L264.757 67.127V63.035L263.074 61.154H261.292L259.576 63.035V65.642H256.573V61.913L259.906 58.151ZM276.006 83.132L272.244 79.139V61.946L276.039 58.151H280.824L284.586 61.946V79.139L280.857 83.132H276.006ZM279.57 61.154H277.293L275.247 63.167V74.453L280.989 62.54L279.57 61.154ZM277.293 80.162H279.537L281.616 77.951V66.731L275.874 78.644L277.293 80.162ZM292.165 58.151H296.686L300.052 61.913V68.249L291.67 77.852V80.195H297.214V77.588H300.25V83H288.7V76.763L297.016 67.127V63.035L295.333 61.154H293.551L291.835 63.035V65.642H288.832V61.913L292.165 58.151ZM308.264 83.132L304.502 79.139V61.946L308.297 58.151H313.082L316.844 61.946V79.139L313.115 83.132H308.264ZM311.828 61.154H309.551L307.505 63.167V74.453L313.247 62.54L311.828 61.154ZM309.551 80.162H311.795L313.874 77.951V66.731L308.132 78.644L309.551 80.162Z" fill="#D01319"/>
</svg>
