<svg width="177" height="134" viewBox="0 0 177 134" fill="none" xmlns="http://www.w3.org/2000/svg">
<g filter="url(#filter0_d)">
<path d="M100.434 13.4656L98.7387 11.4946C96.5164 8.89328 92.2551 10.5434 92.3582 13.9583L92.4383 16.5596C92.656 23.5842 92.2551 31.6402 87.673 38.1835C86.4473 39.9368 85.0727 41.4265 83.5263 42.6756C85.004 39.6733 86.0578 36.1781 86.2411 32.0871L86.3099 30.4943C86.4588 27.0794 82.4495 25.1656 79.8835 27.4231L78.7151 28.4545C77.8789 29.1879 77.1114 29.8984 76.3324 30.6318C74.9922 31.8809 73.7321 33.0612 72.4492 33.9665C71.5786 34.5853 70.6278 35.1124 69.5854 35.5593C69.0699 32.1903 68.0275 29.0045 66.4467 25.9105C61.2919 15.895 49.4472 9.56938 40.4206 8.51512L36.2166 8.02236C33.3528 7.69004 31.6689 11.1393 33.685 13.1906C35.1169 14.6459 35.8386 16.6742 35.6438 18.714L34.9221 26.1397C34.842 26.8387 34.7961 27.5148 34.7618 28.0992C34.6816 29.1535 34.6014 30.2422 34.4067 31.1589C33.8568 33.7373 31.9438 35.9375 29.8704 38.2981C27.3618 41.1859 24.3834 45.0592 22.9515 50.0669C22.6193 50.2388 22.2871 50.4336 21.9435 50.6284L21.5425 50.8576L19.8128 51.8661V51.9692C17.5905 53.4475 15.5286 55.1205 13.6614 56.9884C11.5766 59.0855 9.72085 61.4117 8.1515 63.8984L8.10568 63.9214L7.33819 65.2277C6.47905 66.706 5.71156 68.2874 5.03571 69.9146C3.00815 74.8078 1.98864 79.9416 2.0001 85.1786L2.01155 87.0235L2.05737 87.0694C2.33229 92.7074 3.81001 98.2652 6.37596 103.296L6.76543 104.11L7.62456 105.576C8.82735 107.593 10.2249 109.53 11.7942 111.317C12.4128 112.028 13.0428 112.704 13.6614 113.323C16.1243 115.787 18.8964 117.918 21.7946 119.591L22.184 119.832L23.8909 120.863L24.0169 120.794C29.1144 123.338 34.7503 124.771 40.4893 124.966L40.5581 125H41.841C43.5822 125 45.3349 124.885 47.0531 124.656C51.9559 124.003 56.6296 122.467 60.9367 120.118H60.9482L63.4569 118.674V118.594C63.4683 118.583 63.4798 118.583 63.4912 118.571C65.6792 117.15 68.1306 116.165 70.7309 115.844C72.8272 115.592 74.8662 115.202 76.8136 114.675C85.7486 112.292 93.16 107.192 98.2346 99.9154C100.228 97.0849 101.832 94.3117 103.149 91.4469C104.329 88.8456 105.245 86.2214 105.864 83.6315L107.387 77.2487C107.834 75.3578 105.692 73.9254 104.123 75.0599C107.284 70.6824 109.896 65.6174 111.557 59.7043C116.105 43.3976 109.22 23.7103 100.434 13.4656Z" fill="white"/>
</g>
<path d="M108.246 58.7761C112.473 43.6268 106.036 25.2803 97.8223 15.7002L95.7833 13.3166L95.8749 16.4565C96.104 24.0427 95.6458 32.7862 90.491 40.1546C86.3328 46.102 80.6281 49.5284 72.7012 50.7889C77.9934 46.0791 82.4266 40.3608 82.8046 31.9382L82.9191 29.3369L80.9718 31.0558C80.1585 31.7663 79.4139 32.4653 78.6807 33.1529C77.2488 34.4936 75.8857 35.7656 74.4309 36.7855C71.9909 38.5044 69.3104 39.5014 66.5383 40.1431C66.4467 35.5937 65.4157 31.434 63.3996 27.4919C58.8404 18.6338 47.9581 12.8583 40.0197 11.9301L36.9039 11.5634L39.1033 13.7979C42.368 17.1441 45.8274 21.2924 46.572 26.7356C47.1104 30.6777 46.2398 34.2301 43.8457 37.7137C44.0633 33.6686 43.3989 29.6005 40.2831 25.9105L38.5878 23.9051L38.3358 26.5064C38.267 27.1482 38.2212 27.767 38.1868 28.3514C38.0952 29.6005 38.0036 30.7808 37.763 31.8694C37.0299 35.3416 34.7045 37.9888 32.4593 40.5557C29.9277 43.4663 26.9379 47.4198 25.9069 52.4276C25.1395 52.7943 24.3834 53.1954 23.6388 53.6194L23.2379 53.8486V53.8715C20.6376 55.4185 18.232 57.2749 16.0899 59.4178C13.9478 61.5722 12.0921 63.9672 10.5571 66.5571L10.5342 66.5685L10.3051 66.9581C9.5032 68.3447 8.80443 69.7771 8.19731 71.244C6.37595 75.6444 5.42517 80.3886 5.43663 85.1786V85.637L5.44808 85.6484C5.52827 91.699 7.12053 97.6464 10.0645 102.918L10.179 103.113L10.3623 103.468C11.5078 105.45 12.8596 107.33 14.3831 109.071C14.9329 109.702 15.5057 110.321 16.0899 110.905C18.3351 113.151 20.8667 115.099 23.6045 116.681L23.9939 116.921L24.0168 116.91C29.2748 119.866 35.2429 121.471 41.337 121.562L41.3599 121.574H41.8525C43.4562 121.574 45.037 121.471 46.6064 121.264C51.3259 120.634 55.8965 119.087 60.0318 116.703C60.0318 116.703 60.0318 116.692 60.0432 116.692L60.4213 116.474L60.4327 116.451C62.2312 115.374 63.9494 114.148 65.5417 112.773C69.1501 112.716 72.6439 112.257 75.943 111.375C84.0761 109.209 90.8232 104.568 95.4396 97.9558C97.3297 95.2743 98.8303 92.673 100.033 90.0374C101.11 87.6767 101.958 85.2588 102.53 82.8523L103.218 79.9531L100.801 81.6949C97.135 84.3421 94.9012 85.8776 91.3387 88.0205C88.5436 89.7051 84.6718 91.4011 80.8687 90.9312C92.2322 83.8608 103.882 74.4297 108.246 58.7761ZM34.1317 42.011C36.4457 39.3639 39.0689 36.3615 39.928 32.3393C40.0999 31.5256 40.2029 30.712 40.2831 29.8755C41.9441 33.1758 41.8983 36.8428 41.2568 41.1401L40.7413 44.6696L43.1698 42.0683C47.7061 37.1866 49.5389 32.0757 48.7599 26.4377C48.107 21.682 45.69 17.8889 42.9865 14.7491C49.8367 16.5367 57.8095 21.4643 61.4293 28.5118C63.3538 32.259 64.2931 36.2125 64.3389 40.5786C62.3801 40.9109 60.3983 41.1286 58.451 41.3349C51.8643 42.0339 43.4562 43.558 36.6633 49.1273C33.8568 49.5284 31.1076 50.2618 28.4729 51.3046C29.3779 48.3366 31.1763 45.3915 34.1317 42.011ZM25.1395 55.3268C25.4258 55.1664 25.7122 55.0174 25.9986 54.8685C26.2964 54.7195 26.5828 54.5591 26.8806 54.4101C27.2472 54.2267 27.6367 54.0663 28.0147 53.8944C28.3011 53.7684 28.576 53.6423 28.8624 53.5277C29.2862 53.3444 29.733 53.1954 30.1683 53.035C30.4088 52.9433 30.6494 52.8401 30.8899 52.7599C31.5543 52.5422 32.2302 52.3359 32.906 52.1526C32.9289 52.1411 32.9519 52.1411 32.9748 52.1297C33.6735 51.9463 34.3837 51.7859 35.094 51.6369C35.3231 51.5911 35.5522 51.5681 35.7927 51.5223C36.2509 51.4421 36.7206 51.3504 37.1903 51.2931H37.5224L37.5797 51.2473C37.7516 51.2244 37.9348 51.2129 38.1067 51.19C38.5534 51.1441 38.9887 51.0869 39.424 51.0639C39.7447 51.041 40.054 51.0296 40.3748 51.0181C40.7184 51.0066 41.0621 50.9952 41.4057 50.9837L48.0383 57.6187L44.6361 70.3157L31.9438 73.7077L22.6995 64.46L25.1395 55.3268ZM56.6525 82.3252L69.3219 78.9218L76.0002 85.5911C75.9888 85.9464 75.9773 86.3016 75.9659 86.6569C75.9544 86.9548 75.943 87.2528 75.9201 87.5622C75.8971 88.0091 75.8399 88.456 75.794 88.8914C75.7597 89.1779 75.7368 89.453 75.7024 89.728C75.6337 90.2322 75.5535 90.725 75.4618 91.2177C75.416 91.4354 75.3931 91.6646 75.3473 91.8823C75.0609 93.3148 74.6829 94.7243 74.2247 96.0994C74.156 96.3057 74.0643 96.512 73.9956 96.7068C73.8238 97.1881 73.6519 97.6694 73.4572 98.1392C73.3541 98.3913 73.2395 98.6319 73.1365 98.884C72.9532 99.2966 72.7699 99.7206 72.5637 100.133C72.4377 100.397 72.3002 100.649 72.1628 100.901C72.0024 101.222 71.8306 101.543 71.6587 101.864L62.529 104.304L53.2389 95.0108L56.6525 82.3252ZM51.0968 94.4378L38.416 97.8298L29.1602 88.5706L32.5509 75.885L45.2432 72.4816L54.499 81.7408L51.0968 94.4378ZM70.8798 77.3518L72.7126 70.5335C74.4652 74.2349 75.542 78.2457 75.8742 82.3481L70.8798 77.3518ZM68.7491 76.7789L56.0683 80.1823L46.8126 70.9116L50.2262 58.1802L59.2643 55.7623C59.5507 55.9342 59.8485 56.1175 60.1349 56.3009C60.3983 56.4613 60.6618 56.6218 60.9138 56.7936C61.2804 57.0457 61.6355 57.2979 61.9792 57.5614C62.2197 57.7333 62.4603 57.8937 62.6894 58.0771C63.0788 58.375 63.4454 58.6844 63.8234 59.0053C64.0067 59.1657 64.2015 59.3147 64.3847 59.4751C64.9346 59.9564 65.473 60.4607 65.9999 60.9878C66.5154 61.5035 67.008 62.0306 67.4891 62.5806C67.6265 62.7411 67.7525 62.9015 67.89 63.0619C68.2222 63.4516 68.5544 63.8526 68.8751 64.2537C69.047 64.4714 69.1959 64.7006 69.3563 64.9184C69.6312 65.2851 69.8947 65.6403 70.1467 66.0185C70.3299 66.282 70.4903 66.5571 70.6621 66.8206C70.8454 67.1071 71.0173 67.3821 71.1891 67.6686L68.7491 76.7789ZM49.5962 56.0602L44.6475 51.0983C48.7141 51.4306 52.7005 52.4964 56.389 54.2382L49.5962 56.0602ZM17.6593 60.9878C19.1141 59.5324 20.7063 58.2146 22.3902 57.0572L20.5574 63.887L13.7301 65.7091C14.8986 64.0245 16.2044 62.4431 17.6593 60.9878ZM7.69329 83.6774C7.70474 83.3795 7.7162 83.0701 7.73911 82.7721C7.76202 82.3252 7.81929 81.8897 7.86511 81.4428C7.89948 81.1563 7.92239 80.8813 7.95675 80.5948C8.01403 80.1135 8.10567 79.6437 8.18586 79.1624C8.23168 78.9218 8.26604 78.6811 8.31186 78.4405C8.44933 77.7644 8.6097 77.0768 8.78152 76.4121C8.80443 76.3434 8.82734 76.2746 8.8388 76.2059C9.02208 75.5412 9.21682 74.888 9.43447 74.2349C9.51465 73.9942 9.61775 73.765 9.69793 73.5244C9.85831 73.0775 10.0187 72.6305 10.202 72.1951C10.3051 71.9201 10.4425 71.6565 10.5571 71.3929C10.7289 70.9918 10.9007 70.5908 11.0955 70.2011C11.2329 69.9261 11.3818 69.6511 11.5193 69.3875C11.6797 69.0781 11.84 68.7687 12.0119 68.4593L21.1302 66.0185L30.3859 75.2777L26.9837 87.9747L14.2914 91.3667L7.65892 84.7317C7.67038 84.3764 7.68183 84.0327 7.69329 83.6774ZM7.77347 87.9862L12.7335 92.9366L10.9122 99.732C9.171 96.0421 8.11713 92.0542 7.77347 87.9862ZM23.4441 113.988C23.1921 113.816 22.9401 113.667 22.6881 113.495C22.3215 113.254 21.9778 112.991 21.6227 112.727C21.3936 112.555 21.1531 112.395 20.924 112.223C20.5459 111.925 20.1794 111.615 19.8128 111.306C19.6295 111.146 19.4348 110.997 19.2515 110.836C18.7017 110.355 18.1747 109.862 17.6593 109.346C17.1323 108.819 16.6397 108.292 16.1472 107.742C15.9753 107.536 15.815 107.33 15.6431 107.123C15.3453 106.768 15.0475 106.413 14.7611 106.046C14.5664 105.806 14.3945 105.553 14.2227 105.301C13.9707 104.958 13.7187 104.614 13.4781 104.27C13.3063 104.006 13.1345 103.731 12.9741 103.468C12.7908 103.181 12.6075 102.895 12.4357 102.597L14.8527 93.5554L27.5909 90.1405L36.8466 99.3997L33.4444 112.097L24.3376 114.538C24.0398 114.354 23.7419 114.171 23.4441 113.988ZM27.1899 116.062L34.0172 114.228L39.0116 119.224C34.8992 118.892 30.8899 117.815 27.1899 116.062ZM58.5312 114.996C58.2333 115.156 57.9355 115.317 57.6262 115.477C57.3513 115.626 57.0764 115.775 56.79 115.913C56.4005 116.108 55.9996 116.279 55.5986 116.451C55.3352 116.566 55.0717 116.692 54.8082 116.807C54.3615 116.99 53.9033 117.15 53.4565 117.311C53.2274 117.391 52.9983 117.483 52.7692 117.563C52.1507 117.769 51.5206 117.964 50.8906 118.136C50.8219 118.159 50.7531 118.182 50.6844 118.193C49.9856 118.388 49.2754 118.548 48.5537 118.697C48.359 118.732 48.1414 118.766 47.9466 118.801C47.4311 118.892 46.9271 118.984 46.4116 119.053C46.1367 119.087 45.8503 119.11 45.5754 119.144C45.1287 119.19 44.6934 119.236 44.2466 119.27C43.9373 119.293 43.628 119.293 43.3073 119.316C42.9636 119.328 42.6085 119.339 42.2649 119.351L35.5865 112.67L39.0002 99.9841L51.681 96.5807L60.9596 105.874L58.5312 114.996ZM61.2804 113.277L63.1018 106.447L69.929 104.614C68.7606 106.298 67.4547 107.891 65.9999 109.346C64.5451 110.802 62.9528 112.108 61.2804 113.277ZM82.186 93.2231C85.3591 93.2231 88.8414 92.1115 92.4842 89.9113C95.1876 88.2841 97.1464 87.0006 99.5176 85.339C99.0938 86.5996 98.5898 87.8601 98.0285 89.1092C96.8715 91.6302 95.4396 94.1169 93.6297 96.6838C89.3111 102.86 82.9993 107.204 75.3702 109.243C73.0105 109.874 70.5361 110.275 67.9931 110.458C69.9519 108.418 71.6702 106.184 73.1135 103.766L73.1365 103.754L73.3656 103.365C75.3473 99.9269 76.7448 96.1911 77.5123 92.3178L77.6498 92.3636C79.0702 92.9366 80.5823 93.2231 82.186 93.2231ZM77.8789 90.152C78.108 88.5018 78.2225 86.8288 78.2225 85.1442V84.6858L78.2111 84.6744C78.1194 78.5894 76.5272 72.6305 73.5717 67.3478L73.6176 67.1529L73.2625 66.7977C71.6816 64.1047 69.7686 61.6295 67.5693 59.4178C66.9965 58.8449 66.4008 58.2948 65.8052 57.7677C63.9953 56.1863 62.0479 54.7882 59.986 53.6079L59.585 53.3787H59.5736C54.3042 50.4451 48.359 48.8523 42.2763 48.7721L42.2649 48.7606H41.7952C41.5203 48.7606 41.2454 48.7835 40.959 48.7835C46.7209 45.2311 53.3305 44.0966 58.6801 43.5351C64.19 42.9507 70.4445 42.286 75.7024 38.5961C77.2832 37.4845 78.7037 36.1667 80.1928 34.7687C80.2272 34.7343 80.2616 34.7114 80.2959 34.677C79.0931 41.6214 74.6714 46.4802 68.4857 51.4421L65.7135 53.6652L69.2646 53.4017C79.6659 52.6453 87.2034 48.7262 92.3009 41.4266C97.0777 34.5968 98.0972 26.8158 98.1316 19.6995C104.97 29.2911 109.793 45.0248 106.116 58.1802C101.728 73.9025 89.9869 82.8638 77.8789 90.152Z" fill="#323232"/>
<path d="M69.9289 104.614C68.7605 106.298 67.4546 107.891 65.9998 109.347C64.545 110.802 62.9527 112.108 61.2803 113.277L63.1016 106.447L69.9289 104.614Z" fill="#1C1C1C"/>
<path d="M39.0121 119.224C34.8997 118.892 30.8904 117.815 27.1904 116.062L34.0177 114.228L39.0121 119.224Z" fill="#1C1C1C"/>
<path d="M60.9595 105.874L58.5311 114.996C58.2332 115.156 57.9354 115.317 57.6261 115.477C57.3512 115.626 57.0763 115.775 56.7899 115.913C56.4004 116.108 55.9995 116.279 55.5985 116.451C55.3351 116.566 55.0716 116.692 54.8081 116.807C54.3614 116.99 53.9032 117.15 53.4564 117.311C53.2273 117.391 52.9982 117.483 52.7691 117.563C52.1505 117.769 51.5205 117.964 50.8905 118.136C50.8218 118.159 50.753 118.182 50.6843 118.193C49.9855 118.388 49.2753 118.548 48.5536 118.697C48.3589 118.732 48.1413 118.766 47.9465 118.8C47.431 118.892 46.927 118.984 46.4115 119.053C46.1366 119.087 45.8502 119.11 45.5753 119.144C45.1286 119.19 44.6933 119.236 44.2465 119.27C43.9372 119.293 43.6279 119.293 43.3072 119.316C42.9635 119.328 42.6084 119.339 42.2648 119.351L35.5864 112.67L39.0001 99.9841L51.6809 96.5807L60.9595 105.874Z" fill="#CCCCCC"/>
<path d="M75.8738 82.348L70.8794 77.3517L72.7122 70.5334C74.4648 74.2347 75.5416 78.2455 75.8738 82.348Z" fill="#1C1C1C"/>
<path d="M76.0001 85.5911C75.9887 85.9463 75.9772 86.3016 75.9657 86.6568C75.9543 86.9547 75.9428 87.2527 75.9199 87.5621C75.897 88.009 75.8397 88.4559 75.7939 88.8914C75.7596 89.1779 75.7366 89.4529 75.7023 89.7279C75.6335 90.2321 75.5534 90.7249 75.4617 91.2176C75.4159 91.4354 75.393 91.6646 75.3472 91.8823C75.0608 93.3147 74.6828 94.7242 74.2246 96.0993C74.1558 96.3056 74.0642 96.5119 73.9955 96.7067C73.8236 97.188 73.6518 97.6693 73.4571 98.1391C73.354 98.3912 73.2394 98.6319 73.1363 98.884C72.953 99.2965 72.7698 99.7205 72.5636 100.133C72.4376 100.397 72.3001 100.649 72.1626 100.901C72.0023 101.222 71.8304 101.543 71.6586 101.863L62.5289 104.304L53.2388 95.0107L56.6524 82.3251L69.3218 78.9217L76.0001 85.5911Z" fill="#CCCCCC"/>
<path d="M54.4989 81.7408L51.0967 94.4378L38.4159 97.8298L29.1602 88.5706L32.5509 75.885L45.2432 72.4816L54.4989 81.7408Z" fill="#1C1C1C"/>
<path d="M71.189 67.6687L68.7491 76.7789L56.0682 80.1823L46.8125 70.9117L50.2261 58.1803L59.2642 55.7623C59.5506 55.9342 59.8484 56.1176 60.1348 56.3009C60.3983 56.4614 60.6618 56.6218 60.9138 56.7937C61.2803 57.0458 61.6354 57.2979 61.9791 57.5615C62.2197 57.7333 62.4602 57.8938 62.6893 58.0771C63.0788 58.3751 63.4454 58.6845 63.8234 59.0053C64.0067 59.1658 64.2014 59.3147 64.3847 59.4752C64.9345 59.9565 65.4729 60.4607 65.9998 60.9878C66.5153 61.5035 67.0079 62.0306 67.489 62.5807C67.6265 62.7411 67.7525 62.9015 67.8899 63.062C68.2221 63.4516 68.5543 63.8527 68.8751 64.2538C69.0469 64.4715 69.1958 64.7007 69.3562 64.9184C69.6311 65.2851 69.8946 65.6403 70.1466 66.0185C70.3299 66.2821 70.4903 66.5571 70.6621 66.8207C70.8454 67.1071 71.0172 67.3822 71.189 67.6687Z" fill="#CCCCCC"/>
<path d="M56.389 54.2381L49.5961 56.0602L44.6475 51.0982C48.714 51.4306 52.7004 52.4963 56.389 54.2381Z" fill="#1C1C1C"/>
<path d="M22.3905 57.0573L20.5577 63.8871L13.7305 65.7091C14.8989 64.0246 16.2048 62.4432 17.6596 60.9878C19.1144 59.5325 20.7066 58.2147 22.3905 57.0573Z" fill="#1C1C1C"/>
<path d="M12.7335 92.9366L10.9121 99.732C9.17096 96.0421 8.11709 92.0542 7.77344 87.9861L12.7335 92.9366Z" fill="#1C1C1C"/>
<path d="M36.8464 99.3998L33.4443 112.097L24.3374 114.538C24.0396 114.354 23.7418 114.171 23.4439 113.988C23.1919 113.816 22.9399 113.667 22.6879 113.495C22.3213 113.254 21.9777 112.991 21.6226 112.727C21.3935 112.555 21.1529 112.395 20.9238 112.223C20.5458 111.925 20.1792 111.616 19.8127 111.306C19.6294 111.146 19.4346 110.997 19.2514 110.836C18.7015 110.355 18.1746 109.862 17.6591 109.347C17.1322 108.819 16.6396 108.292 16.147 107.742C15.9752 107.536 15.8148 107.33 15.643 107.123C15.3452 106.768 15.0473 106.413 14.7609 106.046C14.5662 105.806 14.3944 105.554 14.2225 105.301C13.9705 104.958 13.7185 104.614 13.478 104.27C13.3061 104.006 13.1343 103.731 12.9739 103.468C12.7907 103.181 12.6074 102.895 12.4355 102.597L14.8526 93.5555L27.5907 90.1406L36.8464 99.3998Z" fill="#CCCCCC"/>
<path d="M30.3857 75.2777L26.9835 87.9747L14.2912 91.3667L7.65869 84.7317C7.67015 84.3764 7.6816 84.0327 7.69306 83.6774C7.70451 83.3795 7.71597 83.0701 7.73888 82.7721C7.76179 82.3252 7.81906 81.8897 7.86488 81.4428C7.89925 81.1563 7.92216 80.8813 7.95652 80.5948C8.0138 80.1135 8.10544 79.6437 8.18563 79.1624C8.23145 78.9218 8.26581 78.6811 8.31163 78.4405C8.4491 77.7644 8.60947 77.0768 8.78129 76.4121C8.8042 76.3434 8.82711 76.2746 8.83857 76.2059C9.02185 75.5412 9.21659 74.888 9.43424 74.2349C9.51442 73.9942 9.61752 73.765 9.6977 73.5244C9.85808 73.0775 10.0184 72.6305 10.2017 72.1951C10.3048 71.9201 10.4423 71.6565 10.5568 71.3929C10.7287 70.9918 10.9005 70.5908 11.0952 70.2011C11.2327 69.9261 11.3816 69.6511 11.5191 69.3875C11.6794 69.0781 11.8398 68.7687 12.0116 68.4593L21.1299 66.0185L30.3857 75.2777Z" fill="#CCCCCC"/>
<path d="M48.0385 57.6187L44.6363 70.3157L31.944 73.7077L22.6997 64.4599L25.1397 55.3268C25.426 55.1664 25.7124 55.0174 25.9988 54.8684C26.2966 54.7194 26.583 54.559 26.8808 54.41C27.2474 54.2267 27.6369 54.0663 28.0149 53.8944C28.3013 53.7683 28.5762 53.6423 28.8626 53.5277C29.2864 53.3443 29.7332 53.1953 30.1685 53.0349C30.409 52.9432 30.6496 52.8401 30.8901 52.7599C31.5545 52.5422 32.2304 52.3359 32.9062 52.1525C32.9291 52.1411 32.9521 52.1411 32.975 52.1296C33.6737 51.9463 34.3839 51.7858 35.0942 51.6369C35.3233 51.591 35.5524 51.5681 35.7929 51.5223C36.2511 51.4421 36.7208 51.3504 37.1904 51.2931H37.5226L37.5799 51.2472C37.7517 51.2243 37.935 51.2129 38.1069 51.1899C38.5536 51.1441 38.9889 51.0868 39.4242 51.0639C39.7449 51.041 40.0542 51.0295 40.375 51.0181C40.7186 51.0066 41.0623 50.9951 41.4059 50.9837L48.0385 57.6187Z" fill="#CCCCCC"/>
<path d="M64.3387 40.5786C62.3798 40.9109 60.3981 41.1286 58.4507 41.3349C51.864 42.0339 43.456 43.558 36.6631 49.1273C33.8566 49.5284 31.1073 50.2618 28.4727 51.3046C29.3776 48.3366 31.1761 45.3915 34.1315 42.011C36.4454 39.3639 39.0687 36.3615 39.9278 32.3393C40.0996 31.5257 40.2027 30.712 40.2829 29.8755C41.9439 33.1758 41.8981 36.8428 41.2566 41.1401L40.7411 44.6696L43.1696 42.0683C47.7058 37.1866 49.5386 32.0757 48.7597 26.4377C48.1067 21.682 45.6897 17.889 42.9863 14.7491C49.8365 16.5368 57.8092 21.4643 61.4291 28.5118C63.3535 32.2591 64.2928 36.2126 64.3387 40.5786Z" fill="#D01319"/>
<path d="M98.132 19.6995C98.0977 26.8158 97.0782 34.5967 92.3014 41.4265C87.2038 48.7261 79.6664 52.6453 69.2651 53.4016L65.714 53.6651L68.4862 51.442C74.6719 46.4801 79.0936 41.6213 80.2964 34.6769C80.262 34.7113 80.2277 34.7342 80.1933 34.7686C78.7041 36.1666 77.2837 37.4845 75.7029 38.596C70.445 42.286 64.1905 42.9506 58.6806 43.535C53.331 44.0965 46.7214 45.231 40.9595 48.7834C41.2459 48.7834 41.5208 48.7605 41.7957 48.7605H42.2654L42.2768 48.772C48.3595 48.8522 54.3047 50.4451 59.5741 53.3787H59.5855L59.9864 53.6078C62.0484 54.7882 63.9957 56.1862 65.8057 57.7676C66.4013 58.2948 66.997 58.8448 67.5697 59.4178C69.7691 61.6294 71.6821 64.1047 73.2629 66.7976L73.6181 67.1529L73.5722 67.3477C76.5277 72.6305 78.1199 78.5894 78.2116 84.6743L78.223 84.6858V85.1441C78.223 86.8287 78.1085 88.5018 77.8794 90.1519C89.9874 82.8637 101.729 73.9025 106.116 58.1802C109.793 45.0248 104.971 29.291 98.132 19.6995ZM86.1271 79.5863L84.7639 77.8445C91.6713 72.4242 96.2878 66.5341 98.8766 59.8532L100.95 60.6554C98.2008 67.7144 93.3552 73.9139 86.1271 79.5863ZM102.13 57.0686C102.084 57.229 102.038 57.4009 101.992 57.5728L99.8618 56.9425L99.9992 56.4727C100.32 55.3268 100.572 54.135 100.744 52.9088L102.932 53.2297C102.748 54.5361 102.485 55.831 102.13 57.0686Z" fill="#FAB218"/>
<path d="M92.4837 89.9113C88.841 92.1115 85.3587 93.2231 82.1856 93.2231C80.5819 93.2231 79.0698 92.9366 77.6494 92.3636L77.5119 92.3178C76.7444 96.1911 75.3469 99.9268 73.3651 103.365L73.136 103.754L73.1131 103.766C71.6698 106.184 69.9515 108.418 67.9927 110.458C70.5357 110.275 73.01 109.874 75.3698 109.243C82.9989 107.204 89.3107 102.86 93.6293 96.6838C95.4392 94.1169 96.8711 91.6302 98.028 89.1091C98.5893 87.8601 99.0934 86.5995 99.5172 85.339C97.146 87.0006 95.1872 88.2841 92.4837 89.9113ZM75.9998 104.728L75.3125 102.62C75.8165 102.459 76.3206 102.276 76.8246 102.081L77.6264 104.144C77.0766 104.362 76.5382 104.556 75.9998 104.728ZM79.8602 103.17L78.898 101.176C79.5738 100.844 80.2497 100.488 80.8797 100.099L82.0252 102.001C81.3264 102.414 80.6048 102.815 79.8602 103.17ZM84.0757 100.637L82.7698 98.8496C83.1936 98.5402 83.6175 98.2079 84.0184 97.8641L85.4503 99.5601C84.9921 99.9383 84.5453 100.294 84.0757 100.637Z" fill="#D01319"/>
<path d="M102.931 53.2296C102.748 54.536 102.485 55.8309 102.129 57.0685C102.084 57.2289 102.038 57.4008 101.992 57.5727L99.8613 56.9424L99.9988 56.4726C100.32 55.3267 100.572 54.1349 100.743 52.9087L102.931 53.2296Z" fill="#323232"/>
<path d="M100.95 60.6555C98.2005 67.7145 93.355 73.914 86.1268 79.5864L84.7637 77.8446C91.6711 72.4243 96.2875 66.5342 98.8764 59.8533L100.95 60.6555Z" fill="#323232"/>
<path d="M77.6269 104.144C77.0771 104.362 76.5387 104.556 76.0003 104.728L75.313 102.62C75.817 102.459 76.321 102.276 76.8251 102.081L77.6269 104.144Z" fill="#323232"/>
<path d="M82.0252 102.001C81.3264 102.413 80.6048 102.815 79.8602 103.17L78.8979 101.176C79.5738 100.844 80.2497 100.488 80.8797 100.099L82.0252 102.001Z" fill="#323232"/>
<path d="M85.451 99.5601C84.9928 99.9383 84.5461 100.294 84.0764 100.637L82.7705 98.8496C83.1943 98.5402 83.6182 98.2079 84.0191 97.8641L85.451 99.5601Z" fill="#323232"/>
<path d="M164.554 49.3201C167.773 46.6918 170.11 43.1111 171.207 39.0302C174.078 28.3915 167.796 17.4149 157.229 14.5748C152.376 13.2706 147.217 13.8991 142.835 16.2266C142.337 15.6992 141.765 15.2237 141.145 14.8423C140.431 14.412 139.701 14.0847 138.96 13.8856C135.235 12.8845 132.187 15.1414 130.795 16.1743C121.95 22.4055 115.905 33.4786 110.739 44.7168C106.398 46.185 98.6856 48.9054 95.5273 50.8227C92.5295 52.6281 87.6211 57.4851 86.5613 61.5164C86.385 62.1725 86.258 62.8656 86.1721 63.5818L85.8005 63.9946L86.1177 63.9606C85.5122 69.521 87.2237 76.5148 88.8834 83.3039C90.066 88.1645 91.1927 92.7477 91.156 95.7066C91.1211 98.1296 89.9508 104.909 88.0843 113.398L88.0445 113.59L87.0737 117.907L122.102 127.322L123.271 122.795C125.208 115.458 127.998 106.312 129.572 103.587C132.487 98.5166 138.957 91.4205 145.229 84.5335L146.301 83.367C157.03 71.6688 166.799 59.7959 165.549 52.2343C165.366 51.1481 165.043 50.1908 164.554 49.3201Z" fill="white"/>
<path d="M159.116 48.7407C163.287 46.7142 166.605 42.9679 167.902 38.1419C170.269 29.335 165.075 20.2606 156.332 17.9107C151.015 16.4817 145.606 17.8657 141.647 21.1297C141.367 19.7906 140.574 18.5521 139.344 17.7923C136.942 16.3239 134.97 17.3558 132.75 19.0007C124.271 24.9726 118.35 36.1985 113.221 47.5183C110.854 48.3008 100.693 51.7103 97.2821 53.7743C94.8319 55.2619 90.6373 59.5357 89.8773 62.4076C87.6021 70.9172 94.6952 87.4771 94.5856 95.7341C94.5233 100.332 91.4161 114.186 91.3913 114.322L91.1486 115.402L119.645 123.06L119.935 121.934C119.977 121.779 124.015 106.314 126.591 101.844C129.702 96.4445 136.308 89.1943 142.696 82.1835C147.791 76.5897 163.376 60.1872 162.155 52.7769C161.847 50.8817 160.784 49.6779 159.116 48.7407ZM165.694 37.5366C164.645 41.4396 162.076 44.5168 158.806 46.3206L155.661 39.5018L158.803 34.647L165.715 37.4587L165.694 37.5366ZM156.716 47.2612C154.04 48.2231 151.124 48.3574 148.349 47.6117C145.475 46.8393 143.054 45.2227 141.263 43.1081L147.476 38.7329L153.534 40.3609L156.716 47.2612ZM156.825 20.4873C162.91 22.6714 166.695 28.7439 166.104 35.1309L159.139 32.2932L155.028 27.1703L156.825 20.4873ZM156.971 33.2605L153.855 38.0627L148.361 36.5862L148.073 30.869L153.4 28.8192L156.971 33.2605ZM139.988 26.4664C140.051 26.3641 140.114 26.2618 140.174 26.1707C143.225 21.4345 148.898 18.8459 154.614 19.8932L152.818 26.5762L146.682 28.9451L139.233 27.9089C139.462 27.41 139.71 26.9282 139.988 26.4664ZM138.402 30.1179L145.793 31.1504L146.08 36.915L139.93 41.2354C138.016 38.0382 137.335 34.0877 138.378 30.2068L138.402 30.1179ZM147.752 49.8357C148.249 49.9694 148.766 50.0727 149.265 50.1589C146.027 52.4602 142.96 56.0235 140.264 59.174C138.091 61.702 134.813 65.5187 133.719 65.2246C130.88 63.3527 129.764 60.2746 129.459 56.8662C129.165 53.4607 129.694 49.7279 130.141 46.5215C130.512 43.688 133.059 38.5304 135.613 33.923C135.614 41.1963 140.434 47.869 147.752 49.8357ZM114.693 49.4518C117.829 48.9832 118.495 49.4603 118.503 49.4744C120.915 51.4817 122.547 59.7419 122.348 65.507C122.22 69.0732 118.504 69.4458 117.926 69.7911C117.994 69.2728 118.018 68.7427 117.961 68.203C116.888 59.1869 115.122 53.7641 112.707 52.0777C112.038 51.6118 111.137 51.2622 110.142 50.9948C111.568 50.4958 113.173 49.9493 114.693 49.4518ZM105.387 52.7216C107.925 52.7598 110.385 53.2659 111.405 53.9692C113.151 55.1896 114.75 60.6153 115.681 68.4844C115.863 70.0592 115.092 71.6047 113.757 72.4263C113.689 71.8836 113.547 71.3564 113.331 70.8336C110.722 64.6238 108.381 60.9423 106.387 59.8937C104.393 58.8452 99.0195 58.8197 94.367 59.4173C97.7059 55.5932 99.7951 54.8313 105.387 52.7216ZM92.088 63.0018C92.1687 62.7015 92.3026 62.3798 92.4756 62.0448C97.6856 61.0485 103.803 61.1307 105.318 61.9314C106.751 62.6861 108.953 66.3541 111.228 71.7349C111.826 73.1713 111.539 74.8586 110.492 76.0199C108.667 78.0454 105.831 75.7212 104.59 73.3726C102.253 68.8815 96.4316 69.0219 92.1646 71.4042C91.6573 68.1322 91.4963 65.2035 92.088 63.0018ZM141.018 80.6235C134.544 87.7307 127.85 95.0883 124.61 100.704C122.281 104.74 119.022 116.514 118.021 120.239L93.8575 113.745C94.6083 110.334 96.8181 99.8634 96.8654 95.7626C96.9448 90.2636 94.0947 81.5091 92.5936 73.8207C94.4851 72.6479 96.6975 71.6925 100.205 72.3133C100.689 72.4076 101.95 73.2712 102.569 74.4511C104.679 78.4639 109.222 80.8771 112.187 77.5606C112.814 76.8588 113.271 76.0398 113.541 75.1702C114.171 74.7672 115.623 74.3467 116.833 72.6213C118.249 71.8093 124.425 71.4067 124.638 65.5859C124.844 59.8823 123.325 50.496 119.976 47.7001C119.473 47.2787 118.498 46.8023 115.981 46.9961C120.808 36.4896 126.393 26.294 134.084 20.8734C136.272 19.2559 137.009 19.0724 138.151 19.7609C139.359 20.5148 139.824 22.0942 139.213 23.3966C139.09 23.59 138.726 24.1482 138.216 24.9887C138.176 25.0495 138.136 25.1102 138.096 25.171C135.328 29.6494 128.546 41.0373 127.861 46.2306C126.821 53.7606 125.849 62.7995 132.455 67.1502C135.385 69.0822 139.514 63.551 141.994 60.6762C145.393 56.7134 151.789 48.8819 156.807 50.2306C158.244 50.6168 159.647 51.614 159.895 53.1592C160.914 59.3349 145.236 75.9983 141.018 80.6235Z" fill="#323232"/>
<path d="M156.716 47.2611C154.04 48.2229 151.124 48.3573 148.349 47.6116C145.476 46.8392 143.054 45.2225 141.264 43.1079L147.477 38.7327L153.534 40.3607L156.716 47.2611Z" fill="#E29B01"/>
<path d="M165.715 37.4588L165.694 37.5367C164.645 41.4397 162.076 44.5169 158.806 46.3207L155.661 39.5019L158.803 34.6471L165.715 37.4588Z" fill="#E29B01"/>
<path d="M166.104 35.1309L159.139 32.2932L155.028 27.1704L156.825 20.4874C162.91 22.6714 166.695 28.7439 166.104 35.1309Z" fill="#E29B01"/>
<path d="M156.971 33.2605L153.855 38.0627L148.361 36.5862L148.073 30.869L153.4 28.8192L156.971 33.2605Z" fill="#E29B01"/>
<path d="M154.614 19.893L152.818 26.576L146.682 28.9449L139.233 27.9087C139.462 27.4098 139.71 26.928 139.988 26.4662C140.051 26.3639 140.114 26.2617 140.174 26.1705C143.225 21.4343 148.898 18.8457 154.614 19.893Z" fill="#E29B01"/>
<path d="M146.08 36.9151L139.93 41.2355C138.016 38.0383 137.335 34.0878 138.378 30.2069L138.402 30.118L145.793 31.1505L146.08 36.9151Z" fill="#E29B01"/>
<path d="M117.925 69.7909C117.993 69.2727 118.017 68.7426 117.961 68.2028C116.888 59.1867 115.122 53.7639 112.707 52.0776C112.038 51.6116 111.136 51.262 110.141 50.9946C111.567 50.4956 113.172 49.9492 114.692 49.4516C117.829 48.9831 118.495 49.4601 118.503 49.4742C120.914 51.4816 122.546 59.7417 122.348 65.5068C122.219 69.073 118.504 69.4457 117.925 69.7909Z" fill="#FCD45E"/>
<path d="M113.756 72.4262C113.689 71.8835 113.546 71.3562 113.331 70.8335C110.722 64.6236 108.381 60.9422 106.387 59.8936C104.393 58.8451 99.0192 58.8196 94.3667 59.4172C97.7056 55.5931 99.7949 54.8311 105.387 52.7214C107.925 52.7597 110.385 53.2657 111.404 53.9691C113.151 55.1895 114.75 60.6152 115.681 68.4843C115.862 70.0591 115.091 71.6046 113.756 72.4262Z" fill="#FCD45E"/>
<path d="M110.492 76.02C108.667 78.0455 105.831 75.7213 104.59 73.3727C102.253 68.8816 96.4315 69.022 92.1645 71.4044C91.6572 68.1323 91.4962 65.2036 92.0879 63.0019C92.1686 62.7016 92.3025 62.3799 92.4755 62.0449C97.6855 61.0486 103.803 61.1308 105.318 61.9315C106.751 62.6862 108.953 66.3543 111.228 71.735C111.826 73.1714 111.538 74.8587 110.492 76.02Z" fill="#FCD45E"/>
<path d="M159.895 53.1591C159.647 51.6139 158.244 50.6168 156.807 50.2306C151.788 48.8818 145.393 56.7134 141.993 60.6761C139.514 63.5509 135.384 69.0822 132.455 67.1502C125.849 62.7994 126.821 53.7606 127.861 46.2305C128.545 41.0372 135.328 29.6493 138.096 25.1709C138.136 25.1102 138.176 25.0494 138.216 24.9886C138.726 24.1481 139.089 23.59 139.213 23.3965C139.823 22.0941 139.359 20.5147 138.151 19.7609C137.009 19.0723 136.272 19.2558 134.083 20.8733C126.392 26.2939 120.808 36.4895 115.981 46.996C118.498 46.8022 119.472 47.2787 119.975 47.7C123.325 50.496 124.843 59.8822 124.638 65.5859C124.425 71.4066 118.248 71.8093 116.833 72.6212C115.622 74.3467 114.17 74.7671 113.54 75.1701C113.271 76.0397 112.814 76.8587 112.187 77.5606C109.221 80.877 104.679 78.4638 102.569 74.451C101.95 73.2712 100.689 72.4076 100.204 72.3132C96.6971 71.6925 94.4848 72.6479 92.5933 73.8206C94.0943 81.5091 96.9444 90.2635 96.865 95.7626C96.8177 99.8633 94.608 110.334 93.8572 113.745L118.02 120.239C119.021 116.514 122.281 104.74 124.61 100.704C127.85 95.0882 134.544 87.7306 141.017 80.6234C145.235 75.9982 160.914 59.3348 159.895 53.1591ZM96.6538 81.2908L98.875 80.7432L99.1689 81.9429L96.9366 82.4876L96.6538 81.2908ZM97.4747 84.7187L99.704 84.1852C99.8784 84.9475 100.045 85.6956 100.211 86.4438L97.9796 86.941C97.8214 86.2069 97.641 85.4669 97.4747 84.7187ZM98.4264 89.1595L100.676 88.7268C100.83 89.5195 100.969 90.2839 101.074 91.0395L98.8118 91.3854C98.6978 90.6632 98.5757 89.9269 98.4264 89.1595ZM99.1588 95.7829C99.1715 95.1186 99.1437 94.3839 99.0697 93.6009L101.354 93.3921C101.432 94.2477 101.461 95.0663 101.45 95.8144L99.1588 95.7829ZM122.632 99.5521L120.654 98.4005C123.437 93.5566 128.405 87.7737 132.905 82.7594L134.604 84.289C130.186 89.218 125.317 94.8965 122.632 99.5521ZM136.275 82.4369L134.582 80.8851L136.616 78.6537L138.298 80.2025L136.275 82.4369Z" fill="#FCD45E"/>
<path d="M134.604 84.289C130.186 89.2181 125.317 94.8966 122.632 99.5521L120.654 98.4005C123.437 93.5567 128.405 87.7737 132.905 82.7594L134.604 84.289Z" fill="#323232"/>
<path d="M138.299 80.2026L136.276 82.437L134.583 80.8852L136.617 78.6537L138.299 80.2026Z" fill="#323232"/>
<path d="M99.1693 81.943L96.937 82.4877L96.6542 81.2909L98.8755 80.7433L99.1693 81.943Z" fill="#323232"/>
<path d="M101.45 95.8145L99.1594 95.783C99.172 95.1187 99.1443 94.3839 99.0702 93.601L101.355 93.3922C101.433 94.2478 101.462 95.0664 101.45 95.8145Z" fill="#323232"/>
<path d="M100.211 86.4437L97.9798 86.9409C97.8215 86.2069 97.6412 85.4668 97.4748 84.7187L99.7042 84.1852C99.8786 84.9474 100.045 85.6956 100.211 86.4437Z" fill="#323232"/>
<path d="M101.074 91.0394L98.8123 91.3853C98.6983 90.6631 98.5762 89.9268 98.4269 89.1594L100.677 88.7267C100.831 89.5193 100.969 90.2838 101.074 91.0394Z" fill="#323232"/>
<path d="M148.191 47.9148C156.123 50.0469 164.227 45.5521 166.29 37.8755C168.353 30.1989 163.595 22.2473 155.662 20.1152C147.729 17.9832 139.626 22.4779 137.563 30.1545C135.499 37.8312 140.258 45.7827 148.191 47.9148Z" fill="#D28F00"/>
<path d="M148.794 45.6924C155.51 47.4972 162.358 43.7328 164.091 37.2845C165.824 30.8361 161.786 24.1456 155.07 22.3408C148.355 20.536 141.507 24.3003 139.774 30.7487C138.04 37.1971 142.079 43.8876 148.794 45.6924Z" fill="#FAB218"/>
<path d="M150.288 40.1325C153.951 41.1169 157.656 39.1768 158.564 35.799C159.472 32.4213 157.239 28.8851 153.576 27.9006C149.913 26.9162 146.208 28.8563 145.3 32.2341C144.392 35.6118 146.626 39.148 150.288 40.1325Z" fill="#D28F00"/>
<defs>
<filter id="filter0_d" x="0" y="8" width="119" height="125" filterUnits="userSpaceOnUse" color-interpolation-filters="sRGB">
<feFlood flood-opacity="0" result="BackgroundImageFix"/>
<feColorMatrix in="SourceAlpha" type="matrix" values="0 0 0 0 0 0 0 0 0 0 0 0 0 0 0 0 0 0 127 0"/>
<feOffset dx="2" dy="4"/>
<feGaussianBlur stdDeviation="2"/>
<feColorMatrix type="matrix" values="0 0 0 0 0 0 0 0 0 0 0 0 0 0 0 0 0 0 0.25 0"/>
<feBlend mode="normal" in2="BackgroundImageFix" result="effect1_dropShadow"/>
<feBlend mode="normal" in="SourceGraphic" in2="effect1_dropShadow" result="shape"/>
</filter>
</defs>
</svg>
