<svg width="351" height="110" viewBox="0 0 351 110" fill="none" xmlns="http://www.w3.org/2000/svg">
<rect x="14" width="323" height="110" fill="#FEBD2C"/>
<mask id="mask0" mask-type="alpha" maskUnits="userSpaceOnUse" x="14" y="0" width="323" height="110">
<rect x="14" width="323" height="110" fill="#FEBD2C"/>
</mask>
<g mask="url(#mask0)">
<path d="M32.8498 51.6155C32.8498 51.6155 0.0364378 83.4789 -36.8075 61.8723C-36.8075 61.8723 2.84878 84.1303 37.0931 38.4187C37.0905 38.4243 31.677 51.2233 32.8498 51.6155Z" fill="white"/>
<path d="M49.3756 79.4831C49.3756 79.4831 2.05456 102.613 -40.6119 62.8554C-40.6119 62.8554 -0.744031 99.128 41.4785 74.5362C41.4811 74.5307 48.2512 77.1372 49.3756 79.4831Z" fill="#E30613"/>
<path d="M36.0593 68.9917C36.0593 68.9917 10.6136 85.285 -24.2177 70.7696C-24.2177 70.7696 11.5287 83.4254 33.2793 60.9287C33.2737 60.9261 34.559 66.0926 36.0593 68.9917Z" fill="#0878CA"/>
<ellipse cx="59.6655" cy="53.6237" rx="26.5893" ry="27.5062" fill="#FBFBFB"/>
<path d="M55.9191 25.4349C41.7747 27.22 31.3699 39.2199 31.1631 53.0895L31.1494 53.0894C31.1521 53.1223 31.1601 53.1524 31.1628 53.1852C31.1501 54.4672 31.2194 55.7632 31.3843 57.0731C33.3452 72.5631 47.5381 83.566 63.0226 81.6079C78.5125 79.6471 89.5154 65.4541 87.5573 49.9697C85.602 34.477 71.4091 23.4741 55.9191 25.4349ZM73.4952 70.5431C72.181 70.3554 69.0994 69.7952 66.8571 68.437C66.6058 64.4478 66.113 57.6039 66.0348 56.4965C67.5373 55.2197 71.5595 51.7456 72.9924 50.0393C75.2921 50.6186 79.7819 51.8452 82.113 52.8183C83.0085 55.4921 82.9973 58.7314 82.884 60.65C80.7479 65.6861 75.254 69.4394 73.4952 70.5431ZM54.2288 51.6443C51.0378 53.4784 45.67 56.33 44.2925 57.0606C42.9583 56.337 39.9054 54.6097 38.524 53.2955C37.7512 47.5522 39.1588 42.12 39.618 40.5552C41.2383 39.1722 45.0213 36.1237 47.8235 35.2805C49.2695 36.092 53.1897 38.3718 55.8003 40.7482C55.465 42.8382 54.4027 49.5865 54.2288 51.6443ZM34.6648 57.8144C34.1743 57.389 33.6133 56.7665 33.1434 55.8874C32.5932 49.836 34.155 44.0407 37.2333 39.2539L38.3955 40.7177C37.8363 42.7277 36.7342 47.5788 37.3308 52.8977C36.6056 53.8984 35.24 55.9329 34.6648 57.8144ZM56.4214 39.799C53.7807 37.4307 50.0542 35.2391 48.4991 34.3726C49.1046 33.1856 51.5069 30.187 51.5069 30.187C51.5836 30.1626 59.1411 28.0676 64.8427 29.0415C66.5762 29.7172 69.3547 30.9598 70.5253 32.3443C69.4879 34.3253 68.0902 36.9146 67.1333 38.5214C65.0783 38.3393 58.5103 38.8659 56.4214 39.799ZM82.1854 51.6431C79.4993 50.5731 75.0913 49.4151 73.3897 48.9828C72.73 47.6793 69.3116 40.9892 68.0853 39.107C69.2071 37.2411 70.7205 34.3897 71.4745 32.9517C72.9816 33.4873 77.8728 35.6201 77.8728 35.6201C77.9136 35.6749 82.1325 40.9108 84.0897 48.0113C84.0952 48.0086 82.7678 50.836 82.1854 51.6431ZM85.0842 47.3751C84.0011 43.6071 82.3557 40.4113 81.0075 38.2006C82.9553 40.9328 84.4096 44.0596 85.2096 47.4766C85.1633 47.4382 85.1197 47.4053 85.0842 47.3751ZM63.8423 27.4498C63.8119 27.5535 63.7869 27.6546 63.7538 27.7529C58.0589 27.1918 51.5028 29.0088 51.2046 29.0952L51.2099 29.1198L49.6331 28.9804C51.6807 28.1565 53.8642 27.5791 56.1559 27.2891C58.7786 26.9647 61.3616 27.0284 63.8423 27.4498ZM34.5754 59.1618C34.9692 60.6994 36.3819 65.5729 39.0461 68.2501C39.1479 68.841 39.3439 69.8695 39.5971 70.9447C36.5175 67.4431 34.3348 63.0946 33.4552 58.223C33.8611 58.629 34.2536 58.9392 34.5754 59.1618ZM41.2477 72.6507C40.8933 71.5916 40.5485 70.1115 40.3015 68.8286C41.4578 68.849 43.9592 68.7893 45.9028 68.017C45.9028 68.017 44.8303 60.4166 44.8659 58.0248C46.3092 57.2617 51.4935 54.5078 54.6735 52.6792C56.4705 53.9784 62.8747 56.5211 64.9317 56.9273C65.0542 58.6472 65.4739 64.504 65.7098 68.2007C64.9171 68.9825 62.5455 71.0108 57.5606 73.0245C53.6836 72.4561 45.6683 67.0348 45.5892 66.9854L45.8946 68.0143L45.1642 68.1511C45.4697 68.3545 52.6507 73.125 56.8627 74.039C57.362 75.1014 58.3769 77.259 58.9745 78.3408C57.2659 79.1604 55.267 79.353 53.9684 79.3758C49.1472 78.3477 44.7488 75.9842 41.2477 72.6507ZM58.0232 79.9175C58.8113 79.677 59.597 79.3489 60.3175 78.8895C62.1962 78.6882 66.4542 78.1946 68.5857 77.6088C68.8559 77.741 69.2382 77.8516 69.7657 77.8699C67.5893 78.7917 65.2526 79.4315 62.794 79.7428C61.1777 79.9504 59.5865 80.0022 58.0232 79.9175ZM74.1148 75.5232C71.9518 76.5271 70.6443 76.7521 69.8845 76.7331C70.7986 75.6319 72.7175 73.2822 73.6276 71.7873C74.6164 71.2085 80.476 67.6287 83.3237 62.3354L84.3705 62.3965C82.452 67.7477 78.8413 72.3686 74.1148 75.5232Z" fill="#323232"/>
<path d="M55.9936 47.2496C55.9936 47.2496 57.0215 40.9412 57.856 40.7255C59.6782 40.2589 66.2026 39.6856 66.9691 40.1585C67.7411 40.6286 70.6858 45.9639 70.6858 45.9639C70.6858 45.9639 66.9613 40.8446 66.5512 40.8432C63.599 40.8329 58.5209 41.3374 58.0502 42.287C56.1698 46.1185 56.5733 46.4233 55.9936 47.2496Z" fill="#FBFBFB"/>
<path d="M61.2439 72.6931C61.5477 72.5902 65.8114 69.6582 66.3712 69.8379C66.9309 70.0175 70.8659 71.2258 70.8659 71.2258C70.8659 71.2258 67.1506 70.5294 66.2943 70.7287C65.4407 70.9335 61.2439 72.6931 61.2439 72.6931Z" fill="#FBFBFB"/>
<path d="M35.7545 57.3291C35.7545 57.3291 37.2538 53.8298 37.6603 54.0581C38.0695 54.2919 43.2747 57.3197 43.4262 57.7768C43.5777 58.2338 44.2264 61.1255 44.2264 61.1255C44.2264 61.1255 43.0064 58.2236 42.6849 57.9191C42.0937 57.3457 37.8702 55.0047 37.6046 55.1295C37.3362 55.2625 35.7545 57.3291 35.7545 57.3291Z" fill="#FBFBFB"/>
</g>
<path d="M14 15V0L0 15H14Z" fill="#CB9419"/>
<path d="M337 15V0L351 15H337Z" fill="#CB9419"/>
<path d="M14 95V110L0 95H14Z" fill="#CB9419"/>
<path d="M337 95V110L351 95H337Z" fill="#CB9419"/>
<path d="M113.164 25.283L116.827 50H113.791L112.834 43.565H107.686L106.729 50H103.693L107.356 25.283H113.164ZM109.93 28.286L108.115 40.562H112.405L110.557 28.286H109.93ZM124.66 35.282L129.379 25.349H132.679L127.267 36.8L133.438 50H130.138L124.66 38.285H123.076V50H120.073V25.349H123.076V35.282H124.66ZM136.089 25.349H139.092V47.129H144.669V25.316H147.672V47.228H149.454V52.475H146.616V50H136.089V25.349ZM152.718 25.349H155.721V34.028L155.259 44.39H155.358L157.8 34.193L160.605 25.349H164.664V50H161.661V38.12L162.156 29.243H162.057L159.78 37.856L155.919 50H152.718V25.349ZM174.659 41.684L170.798 50H167.498L171.887 40.529L169.214 37.658V29.111L173.009 25.283H180.269V50H177.266V41.684H174.659ZM174.23 28.319L172.217 30.332V36.47L174.263 38.681H177.266V28.319H174.23ZM190.971 25.316H202.554V50H199.551V28.187H193.974V50H190.971V25.316ZM218.893 37.889L215.098 41.882H210.313V50H207.31V25.283H215.065L218.893 29.045V37.889ZM215.857 36.701V30.299L213.844 28.286H210.313V38.879H213.811L215.857 36.701ZM231.643 50.099H226.891L223.195 46.139V28.682L226.924 24.953H231.643L235.372 28.682V46.139L231.643 50.099ZM232.369 29.903L230.389 27.923H228.145L226.165 29.903V44.984L228.178 47.129H230.356L232.369 44.984V29.903ZM238.434 47.36H240.81L243.945 25.283H252.558V47.36H254.67V52.475H251.766V50H241.338V52.475H238.434V47.36ZM246.585 28.22L243.846 47.36H249.555V28.22H246.585ZM269.653 25.283V50H266.65V28.22H263.68L260.578 50H255.991V47.228H257.905L261.073 25.283H269.653ZM283.35 39.275H277.377V46.997H284.967V50H274.374V25.283H284.505V28.286H277.377V36.272H283.35V39.275ZM289.295 25.349H292.298V36.239H297.875V25.349H300.878V50H297.875V39.11H292.298V50H289.295V25.349ZM313.355 25.283L317.018 50H313.982L313.025 43.565H307.877L306.92 50H303.884L307.547 25.283H313.355ZM310.121 28.286L308.306 40.562H312.596L310.748 28.286H310.121ZM103.759 80.36H106.135L109.27 58.283H117.883V80.36H119.995V85.475H117.091V83H106.663V85.475H103.759V80.36ZM111.91 61.22L109.171 80.36H114.88V61.22H111.91ZM131.579 83.099H126.827L123.131 79.139V61.682L126.86 57.953H131.579L135.308 61.682V79.139L131.579 83.099ZM132.305 62.903L130.325 60.923H128.081L126.101 62.903V77.984L128.114 80.129H130.292L132.305 77.984V62.903ZM156.706 58.25V64.487L153.472 68.447L157.003 72.44V79.205L153.439 83H148.753L145.189 79.205V74.717H148.192V78.017L150.04 79.997H152.119L154 78.017V73.562L152.119 71.45H149.611L148.654 69.602L153.703 63.431V61.055H148.456V63.662H145.453V58.25H156.706ZM165.275 83.132L161.513 79.139V61.946L165.308 58.151H170.093L173.855 61.946V79.139L170.126 83.132H165.275ZM168.839 61.154H166.562L164.516 63.167V74.453L170.258 62.54L168.839 61.154ZM166.562 80.162H168.806L170.885 77.951V66.731L165.143 78.644L166.562 80.162ZM184.59 58.349H187.593V67.028L187.131 77.39H187.23L189.672 67.193L192.477 58.349H196.536V83H193.533V71.12L194.028 62.243H193.929L191.652 70.856L187.791 83H184.59V58.349ZM215.738 83.099H211.25L207.554 79.139V72.11H204.287V83H201.284V58.349H204.287V69.239H207.554V61.682L211.283 57.953H215.738L219.467 61.682V79.139L215.738 83.099ZM216.464 62.903L214.484 60.923H212.504L210.524 62.903V77.984L212.537 80.129H214.451L216.464 77.984V62.903ZM224.262 58.349H227.265V69.239H232.842V58.349H235.845V83H232.842V72.11H227.265V83H224.262V58.349ZM245.847 74.684L241.986 83H238.686L243.075 73.529L240.402 70.658V62.111L244.197 58.283H251.457V83H248.454V74.684H245.847ZM245.418 61.319L243.405 63.332V69.47L245.451 71.681H248.454V61.319H245.418ZM265.03 58.151H269.551L272.917 61.913V68.249L264.535 77.852V80.195H270.079V77.588H273.115V83H261.565V76.763L269.881 67.127V63.035L268.198 61.154H266.416L264.7 63.035V65.642H261.697V61.913L265.03 58.151ZM281.13 83.132L277.368 79.139V61.946L281.163 58.151H285.948L289.71 61.946V79.139L285.981 83.132H281.13ZM284.694 61.154H282.417L280.371 63.167V74.453L286.113 62.54L284.694 61.154ZM282.417 80.162H284.661L286.74 77.951V66.731L280.998 78.644L282.417 80.162ZM297.289 58.151H301.81L305.176 61.913V68.249L296.794 77.852V80.195H302.338V77.588H305.374V83H293.824V76.763L302.14 67.127V63.035L300.457 61.154H298.675L296.959 63.035V65.642H293.956V61.913L297.289 58.151ZM313.388 83.132L309.626 79.139V61.946L313.421 58.151H318.206L321.968 61.946V79.139L318.239 83.132H313.388ZM316.952 61.154H314.675L312.629 63.167V74.453L318.371 62.54L316.952 61.154ZM314.675 80.162H316.919L318.998 77.951V66.731L313.256 78.644L314.675 80.162Z" fill="#D01319"/>
</svg>
