<svg width="32" height="32" viewBox="0 0 32 32" fill="none" xmlns="http://www.w3.org/2000/svg">
<path d="M24.9983 7.21538H25.6295V7.94463H26.2606V7.21538H27V6.69067H26.2606V5.96143H25.6295V6.69067H24.9983V7.21538Z" fill="#3565F0"/>
<path d="M7.58691 11.3864H8.32629V12.0178H8.85828V11.3864H9.59765V10.7639H8.85828V10.1324H8.32629V10.7639H7.58691V11.3864Z" fill="black"/>
<path d="M8.64185 4.6008H9.28203V5.23222H9.91321V4.6008H10.5534V3.97827H9.91321V3.24902H9.28203V3.97827H8.64185V4.6008Z" fill="black"/>
<path d="M6 7.21538H6.73937V7.94463H7.27136V7.21538H8.01073V6.69067H7.27136V5.96143H6.73937V6.69067H6V7.21538Z" fill="#3565F0"/>
<path d="M22.1399 4.60077H22.8793V5.2322H23.4022V4.60077H24.1506V3.97824H23.4022V3.35571H22.8793V3.97824H22.1399V4.60077Z" fill="black"/>
<path d="M23.5105 10.3459H24.2499V11.0751H24.7819V10.3459H25.5212V9.82117H24.7819V9.09192H24.2499V9.82117H23.5105V10.3459Z" fill="#3565F0"/>
<path d="M20.1291 28.3992H12.2305V28.9328H20.1291V28.3992Z" fill="black"/>
<path d="M20.1291 29.4664H12.2305V30H20.1291V29.4664Z" fill="black"/>
<path d="M20.8236 11.3063L20.5441 16.7667C19.5883 16.5622 18.6686 16.2509 17.803 15.8596C17.253 15.6106 16.8563 15.3794 16.5046 15.1837C16.0087 14.8992 15.5759 14.659 14.9537 14.4901C13.9619 14.2322 12.8709 14.2766 11.7077 14.6146L11.5364 11.3063H20.8236Z" fill="black"/>
<path d="M19.7416 6.44168C19.1285 6.11263 18.3801 5.87251 17.5505 5.73911V4.62745C17.9112 4.57409 18.2719 4.53852 18.6325 4.52073C18.6416 4.52073 18.6416 4.52073 18.6416 4.52073C18.7317 4.52073 18.8219 4.51184 18.9121 4.51184C18.9842 4.51184 19.0653 4.51184 19.1375 4.51184C19.3359 4.51184 19.5342 4.52073 19.7416 4.52963V6.44168Z" fill="black"/>
<path d="M11.7346 15.166C12.8527 14.8191 13.8806 14.7658 14.8093 15.0148C15.3684 15.1571 15.7471 15.3794 16.234 15.6551C16.5946 15.8596 17.0004 16.0909 17.5685 16.3488C18.5062 16.7756 19.489 17.0958 20.5169 17.3181L20.0481 26.5671C20.03 26.7895 19.8407 26.9673 19.6153 26.9673H12.7445C12.7174 26.9673 12.6904 26.9673 12.6633 26.9585C12.474 26.9229 12.3207 26.7628 12.3117 26.5671L11.8518 17.5049L11.7346 15.166Z" fill="black"/>
<path d="M14.6111 4.71641C15.1972 4.4585 15.8103 4.24507 16.4325 4.09388C17.821 3.75593 19.2457 3.6759 20.6794 3.87155L20.6613 3.94269C20.6523 4.01384 20.5802 4.0672 20.508 4.05831C20.4179 4.04052 20.3277 4.03163 20.2375 4.02273L20.0482 4.00495C19.9219 3.99605 19.8047 3.98716 19.6785 3.98716C19.6785 3.98716 19.6695 3.98716 19.6605 3.98716C19.5523 3.97827 19.4441 3.97827 19.3359 3.96937C19.3268 3.96937 19.3268 3.96937 19.3178 3.96937C19.0834 3.96937 18.858 3.96937 18.6235 3.97827H18.6145C18.2719 3.99605 17.9202 4.03163 17.5776 4.07609H17.5686C17.4333 4.10277 17.3071 4.12056 17.1718 4.14724L17.0005 4.17392C16.8292 4.20949 16.6579 4.24507 16.4866 4.28953C15.8824 4.44072 15.2873 4.63637 14.7103 4.89427C14.6832 4.82313 14.6472 4.76977 14.6111 4.71641Z" fill="#FCBC3F"/>
<path d="M16.1799 5.64123C15.702 5.64123 15.2511 5.6768 14.8093 5.73905V5.43668C15.3954 5.17878 15.9995 4.96534 16.6127 4.81415C16.7389 4.77858 16.8742 4.7519 17.0004 4.72522V5.6768C16.7299 5.65012 16.4594 5.64123 16.1799 5.64123Z" fill="#FCBC3F"/>
<path d="M20.7244 8.0692H11.6355C11.7166 7.90022 11.8248 7.74904 11.9691 7.59785L12.0773 7.49113C12.6364 6.95754 13.529 6.53955 14.593 6.33501L14.6741 6.31722C15.143 6.22829 15.657 6.17493 16.1799 6.17493C16.5496 6.17493 16.9103 6.20161 17.2619 6.24607C17.316 6.25497 17.3611 6.26386 17.4152 6.27275C17.4242 6.27275 17.4333 6.27275 17.4423 6.27275C18.38 6.41505 19.2366 6.72631 19.8588 7.15319L20.0121 7.25101C20.3276 7.50003 20.5801 7.77572 20.7244 8.0692Z" fill="#C4C4C4"/>
<path d="M13.9888 4.88539C14.1421 4.96543 14.2503 5.11662 14.2593 5.28559V5.29448C14.2593 5.30338 14.2593 5.31227 14.2593 5.32116V5.84587C13.4929 6.02373 12.8166 6.29942 12.2666 6.64626L12.5101 5.24112C12.5461 5.001 12.7535 4.83203 13.006 4.83203H13.7634C13.8445 4.83203 13.9167 4.84982 13.9888 4.88539Z" fill="black"/>
<path d="M10.8871 8.61157H21.4728H21.6531V10.7726H21.3916H10.9593H10.7068V8.61157H10.8871Z" fill="#C4C4C4"/>
<path d="M18.6325 4.52072C18.2718 4.53851 17.9111 4.57408 17.5505 4.62744V5.7391C18.38 5.8725 19.1284 6.11262 19.7415 6.44167V4.52961C19.5342 4.52072 19.3358 4.51183 19.1374 4.51183C19.0653 4.51183 18.9841 4.51183 18.912 4.51183C18.8218 4.51183 18.7317 4.52072 18.6415 4.52072C18.6415 4.52072 18.6415 4.52072 18.6325 4.52072ZM14.8094 5.7391C15.2512 5.67685 15.702 5.64127 16.1799 5.64127C16.4594 5.64127 16.7299 5.65017 17.0004 5.67685V4.72527C16.8742 4.75195 16.739 4.77863 16.6127 4.8142C15.9996 4.96538 15.3955 5.17882 14.8094 5.43673V5.7391ZM16.4324 4.09384C15.8102 4.24503 15.1971 4.45847 14.611 4.71637C14.6471 4.76973 14.6831 4.82309 14.7102 4.89424C15.2873 4.63633 15.8824 4.44068 16.4865 4.28949C16.6578 4.24503 16.8291 4.20946 17.0004 4.17388L17.1718 4.1472C17.307 4.12052 17.4333 4.10274 17.5685 4.07606H17.5775C17.9202 4.03159 18.2718 3.99602 18.6144 3.97823H18.6235C18.8579 3.96934 19.0833 3.96934 19.3178 3.96934C19.3268 3.96934 19.3268 3.96934 19.3358 3.96934C19.444 3.97823 19.5522 3.97823 19.6604 3.98712C19.6694 3.98712 19.6784 3.98712 19.6784 3.98712C19.8047 3.98712 19.9219 3.99602 20.0481 4.00491L20.2375 4.0227C20.3276 4.03159 20.4178 4.04048 20.508 4.05827C20.5801 4.06716 20.6522 4.0138 20.6612 3.94266L20.6793 3.87151C19.2456 3.67586 17.821 3.7559 16.4324 4.09384ZM14.8094 15.0148C13.8807 14.7658 12.8527 14.8191 11.7347 15.166L11.8519 17.5049L12.3117 26.5672C12.3208 26.7628 12.474 26.9229 12.6634 26.9585C12.6904 26.9674 12.7175 26.9674 12.7445 26.9674H19.6153C19.8407 26.9674 20.0301 26.7895 20.0481 26.5672L20.517 17.3182C19.4891 17.0958 18.5062 16.7757 17.5685 16.3488C17.0004 16.0909 16.5947 15.8597 16.234 15.6551C15.7471 15.3794 15.3684 15.1571 14.8094 15.0148ZM14.2594 5.28554C14.2503 5.11657 14.1421 4.96538 13.9889 4.88534C13.9167 4.84977 13.8446 4.83198 13.7634 4.83198H13.006C12.7536 4.83198 12.5462 5.00096 12.5101 5.24108L12.2667 6.64621C12.8167 6.29938 13.4929 6.02368 14.2594 5.84582V5.32112C14.2594 5.31222 14.2594 5.30333 14.2594 5.28554ZM21.4728 8.61163H10.8871H10.7068V10.7727H10.9592H21.3916H21.6531V8.61163H21.4728ZM11.6355 8.06914H20.7244C20.5801 7.77566 20.3276 7.49997 20.012 7.25096L19.8588 7.15313C19.2366 6.72625 18.38 6.41499 17.4423 6.2727C17.4333 6.2727 17.4242 6.2727 17.4152 6.2727C17.3611 6.2638 17.316 6.25491 17.2619 6.24602C16.9103 6.20155 16.5496 6.17487 16.1799 6.17487C15.657 6.17487 15.143 6.22823 14.6741 6.31716L14.593 6.33495C13.529 6.53949 12.6363 6.95748 12.0773 7.49108L11.9691 7.5978C11.8248 7.74898 11.7166 7.90017 11.6355 8.06914ZM11.6265 7.17092L11.9691 5.15214C12.0503 4.65412 12.4921 4.28949 13.006 4.28949H13.7634C13.8807 4.28949 13.9979 4.30728 14.1061 4.35175C14.8094 4.0138 15.5488 3.7559 16.2971 3.56914C17.848 3.18673 19.435 3.12448 21.0309 3.38238L21.3014 3.41795L21.2023 4.0227C21.1482 4.38732 20.8055 4.63633 20.4358 4.59187C20.3907 4.58297 20.3366 4.58297 20.2825 4.57408V6.78851C20.7875 7.15313 21.1391 7.5889 21.3195 8.06914H21.7252C21.9867 8.06914 22.2031 8.28258 22.2031 8.54048V10.8349C22.2031 11.0929 21.9867 11.3063 21.7252 11.3063H21.3646L21.085 16.8824L20.5891 26.5938C20.5621 27.1097 20.1383 27.5098 19.6153 27.5098H12.7445C12.7085 27.5098 12.6814 27.5098 12.6454 27.5098C12.6454 27.501 12.6363 27.501 12.6273 27.501C12.6003 27.501 12.5822 27.501 12.5552 27.4921C12.5462 27.4921 12.5462 27.4921 12.5462 27.4921C12.5191 27.4832 12.4921 27.4743 12.465 27.4654C12.456 27.4654 12.456 27.4654 12.447 27.4654C12.429 27.4565 12.4019 27.4476 12.3749 27.4387H12.3658C12.3388 27.4209 12.3117 27.412 12.2937 27.4031C12.2847 27.4031 12.2847 27.3942 12.2847 27.3942C12.2576 27.3853 12.2306 27.3676 12.2126 27.3587C12.2126 27.3498 12.2035 27.3498 12.2035 27.3498C12.1765 27.332 12.1585 27.3231 12.1404 27.3053C12.1314 27.3053 12.1314 27.2964 12.1314 27.2964C12.1134 27.2786 12.0863 27.2608 12.0683 27.2431C11.897 27.0741 11.7798 26.8517 11.7707 26.5938L11.1666 14.7925L10.9953 11.3063H10.6346C10.3731 11.3063 10.1567 11.0929 10.1567 10.8349V8.54048C10.1567 8.28258 10.3731 8.06914 10.6346 8.06914H11.0404C11.1576 7.74898 11.356 7.44661 11.6265 7.17092ZM11.7076 14.6146C12.8708 14.2766 13.9618 14.2322 14.9536 14.4901C15.5758 14.6591 16.0086 14.8992 16.5045 15.1838C16.8562 15.3794 17.2529 15.6106 17.8029 15.8597C18.6685 16.251 19.5883 16.5622 20.544 16.7668L20.8236 11.3063H11.5363L11.7076 14.6146Z" fill="black"/>
<path d="M16.856 23.49C16.9552 23.659 17.0544 23.8191 17.1356 23.9792C17.2167 24.1303 17.2888 24.2282 17.4962 24.157C17.6946 24.0859 17.8749 24.157 17.929 24.3794C17.9831 24.5661 17.911 24.7173 17.7126 24.7885C17.4962 24.8685 17.3159 24.7707 17.2708 24.575C17.1626 24.1037 16.7118 24.2815 16.4052 24.0592C16.4413 24.3616 16.6306 24.4683 16.7839 24.6017C16.9282 24.7351 16.9282 24.8596 16.7208 24.8952C16.4954 24.9307 16.3331 25.162 16.0896 25.0819C15.8912 25.0197 15.6117 24.9663 15.5306 24.824C15.3953 24.5928 15.756 24.5394 15.8552 24.3616C15.8912 24.2904 15.9724 24.2371 15.9183 24.1215C15.747 24.157 15.5666 24.1748 15.3953 24.2371C15.2601 24.2904 15.0166 24.3438 15.2511 24.575C15.2961 24.6195 15.3142 24.6728 15.2691 24.7262C15.206 24.7973 15.1338 24.7529 15.0797 24.7084C14.8904 24.5394 14.701 24.3883 14.4305 24.326C14.6199 24.3438 14.6289 23.6679 14.9535 24.2104C14.9806 24.2549 15.1879 24.1037 15.224 23.9881C15.2781 23.8013 15.4224 23.6857 15.4945 23.5078C15.3773 23.3833 15.2871 23.49 15.197 23.5345C14.8092 23.7124 14.4937 23.6056 14.2592 23.2766C13.8625 22.7163 13.9166 22.0938 14.0699 21.3823C14.3043 21.6847 14.4846 21.9159 14.665 22.1383C14.8002 22.3072 14.9896 22.4139 15.197 22.4762C15.4314 22.5473 15.6027 22.4584 15.6478 22.2272C15.6929 21.9871 15.5486 21.8803 15.3142 21.8359C15.206 21.8181 14.9896 22.0049 15.0166 21.7114C15.0347 21.489 15.224 21.4624 15.4134 21.4979C15.747 21.5602 15.9544 21.8003 16.1437 22.0582C16.315 22.0049 16.3511 21.8359 16.4683 21.7469C16.6577 21.5958 16.856 21.4535 17.1265 21.5068C17.2528 21.5335 17.3249 21.6224 17.3249 21.7469C17.3339 21.9248 17.1987 21.8537 17.1085 21.8448C16.9192 21.8359 16.7659 21.8715 16.7028 22.0671C16.6577 22.1916 16.6847 22.2894 16.7659 22.3784C16.9011 22.5296 17.0724 22.5029 17.2438 22.4406C17.5593 22.325 17.7397 22.076 17.938 21.8359C18.0372 21.7114 18.0823 21.5246 18.3168 21.4446C18.4069 22.0226 18.47 22.574 18.2176 23.1076C17.9741 23.5968 17.6495 23.7213 17.1356 23.5078C17.0544 23.49 16.9823 23.4367 16.856 23.49Z" fill="#FBBB3F"/>
<path d="M16.1978 21.578C15.9093 21.5958 15.8011 21.4446 15.783 21.2045C15.765 20.9199 16.0535 20.8043 16.1798 20.8043C16.324 20.8043 16.6216 20.911 16.6126 21.1778C16.6036 21.418 16.4863 21.6136 16.1978 21.578Z" fill="#F8B43D"/>
<path d="M12.272 15.1394L11.7317 15.1654L12.0617 21.8274L12.6021 21.8013L12.272 15.1394Z" fill="white"/>
<path d="M12.1314 12.913L11.5911 12.9391L11.6615 14.3603L12.2018 14.3343L12.1314 12.913Z" fill="white"/>
</svg>
