<svg width="32" height="32" viewBox="0 0 32 32" fill="none" xmlns="http://www.w3.org/2000/svg">
<g clip-path="url(#clip0)">
<path d="M29 19.6617H28.5803V21.0375H29V19.6617Z" fill="black"/>
<path d="M29 14.2446H28.5803V18.716H29V14.2446Z" fill="black"/>
<path d="M7.41969 17.8561H7V26.7128H7.41969V17.8561Z" fill="#AF1922"/>
<path d="M7.41969 15.0184H7V16.6522H7.41969V15.0184Z" fill="#AF1922"/>
<path d="M25.802 15.3969C25.802 14.9583 25.3907 14.6144 24.887 14.6144H22.8054V12.8947H23.0572H26.0454C26.8596 12.8947 27.5227 13.445 27.5227 14.1243V21.158C27.3884 21.9233 26.8596 22.3876 26.0454 22.3876H23.0068H22.7634V20.6421H24.8786C25.3823 20.6421 25.7096 20.3497 25.7852 19.8596L25.802 15.3969Z" fill="#1682D8"/>
<path d="M22.7635 20.6421V22.3876V26.6268C22.7635 26.6268 22.646 28.6131 19.9936 28.7851H10.9703C10.9703 28.7851 8.7208 28.5013 8.53613 26.6268V10.7535H22.7635V14.6144V20.6421Z" fill="#1682D8"/>
<path d="M22.7634 20.642H24.8786C25.3823 20.642 25.7096 20.3496 25.7852 19.8595L25.802 15.3968C25.802 14.9582 25.3907 14.6143 24.887 14.6143H22.8054V12.8945H23.0572H26.0454C26.8596 12.8945 27.5227 13.4448 27.5227 14.1241V21.1579C27.3884 21.9232 26.8596 22.3875 26.0454 22.3875H23.0068H22.7634" stroke="black" stroke-width="0.5" stroke-miterlimit="10"/>
<path d="M22.7635 22.3876V26.6268C22.7635 26.6268 22.646 28.6131 19.9936 28.7851H10.9703C10.9703 28.7851 8.7208 28.5013 8.53613 26.6268V10.7535H22.7635V14.6144V20.6421V22.3876Z" stroke="black" stroke-width="0.5" stroke-miterlimit="10"/>
<path d="M13.522 2.21497H15.3014" stroke="black" stroke-width="0.5" stroke-miterlimit="10"/>
<path d="M18.4407 3.27258H14.8481" stroke="black" stroke-width="0.5" stroke-miterlimit="10"/>
<path d="M12.5317 6.25636H10.1143C9.68618 6.25636 9.34204 5.90381 9.34204 5.46528C9.34204 5.02674 9.68618 4.67419 10.1143 4.67419H17.5931" stroke="black" stroke-width="0.5" stroke-miterlimit="10"/>
<path d="M19.5739 7.89871H21.1855C21.6136 7.89871 21.9577 7.54616 21.9577 7.11622V7.04743C21.9577 6.6089 21.6136 6.25635 21.1855 6.25635H14.3362" stroke="black" stroke-width="0.5" stroke-miterlimit="10"/>
<path d="M15.7546 9.00792V8.68976C15.7546 8.25983 16.0988 7.89868 16.5269 7.89868H18.7764" stroke="black" stroke-width="0.5" stroke-miterlimit="10"/>
<path d="M16.9719 20.1434C17.1481 20.4616 17.3244 20.7539 17.4755 21.0549C17.6182 21.3386 17.7525 21.5192 18.1218 21.3902C18.4743 21.2612 18.8017 21.3988 18.9108 21.803C19.0031 22.1469 18.8688 22.4393 18.5247 22.5683C18.1386 22.7144 17.8028 22.5339 17.7189 22.1727C17.5174 21.2956 16.72 21.6224 16.1661 21.2011C16.2332 21.76 16.569 21.9663 16.8459 22.2071C17.1145 22.4479 17.1062 22.6972 16.7368 22.766C16.3423 22.8348 16.0401 23.2648 15.6037 23.1186C15.2427 22.9982 14.7391 22.9036 14.588 22.6284C14.353 22.1899 14.9993 22.0867 15.1672 21.7686C15.2427 21.6396 15.377 21.5278 15.2847 21.3214C14.9741 21.3902 14.6468 21.416 14.3446 21.5364C14.1012 21.631 13.6563 21.7428 14.0928 22.1641C14.1683 22.2415 14.2103 22.3447 14.1264 22.4393C14.0089 22.5769 13.883 22.4909 13.7906 22.4049C13.4549 22.0953 13.1023 21.803 12.6155 21.6912C12.9596 21.7256 12.9764 20.4702 13.5472 21.4848C13.5976 21.5708 13.9753 21.287 14.0256 21.0721C14.118 20.7281 14.3866 20.5046 14.5125 20.1778C14.3026 19.9456 14.1348 20.152 13.9753 20.2208C13.2786 20.5476 12.6994 20.3584 12.2881 19.7393C11.5747 18.6816 11.667 17.538 11.9524 16.2052C12.3973 16.7899 12.7078 17.2198 13.0436 17.6412C13.2954 17.9507 13.6227 18.1571 14.0005 18.2689C14.4285 18.3979 14.7391 18.2431 14.8231 17.8046C14.907 17.3574 14.6384 17.1511 14.2187 17.0651C14.034 17.0307 13.6311 17.3746 13.6815 16.8329C13.7235 16.4202 14.0592 16.3686 14.3866 16.4288C14.9909 16.5406 15.3519 16.9877 15.696 17.4778C15.9982 17.3832 16.0737 17.0651 16.2836 16.8931C16.6277 16.6093 16.9886 16.3514 17.4671 16.4374C17.7021 16.4804 17.8196 16.6523 17.828 16.8845C17.8364 17.2113 17.6014 17.0823 17.4419 17.0737C17.1062 17.0565 16.8292 17.1339 16.7033 17.495C16.6277 17.7186 16.6697 17.9163 16.8124 18.0797C17.0558 18.3549 17.358 18.3119 17.6685 18.2001C18.2309 17.9851 18.5667 17.5208 18.9192 17.0651C19.1039 16.8243 19.171 16.489 19.6075 16.3342C19.767 17.409 19.8845 18.4409 19.4228 19.4383C18.9947 20.3584 18.3988 20.582 17.4671 20.195C17.3244 20.1434 17.1985 20.0402 16.9719 20.1434Z" fill="white"/>
<path d="M15.78 16.5749C15.2679 16.6093 15.0581 16.3341 15.0245 15.8698C14.9909 15.3453 15.503 15.1217 15.7464 15.1217C16.015 15.1303 16.5354 15.3195 16.527 15.8182C16.5102 16.2739 16.3004 16.6265 15.78 16.5749Z" fill="white"/>
<path d="M9.96289 21.287V24.3825" stroke="#FCBC3F" stroke-width="0.5" stroke-miterlimit="10"/>
<path d="M9.96287 25.2423C9.96287 25.2423 9.76142 27.392 11.7759 27.478" stroke="#FCBC3F" stroke-width="0.5" stroke-miterlimit="10"/>
<path d="M21.5295 11.9487V17.108" stroke="#FCBC3F" stroke-width="0.5" stroke-miterlimit="10"/>
</g>
<defs>
<clipPath id="clip0">
<rect x="7" y="2" width="22" height="27" fill="white"/>
</clipPath>
</defs>
</svg>
