<svg width="32" height="32" viewBox="0 0 32 32" fill="none" xmlns="http://www.w3.org/2000/svg">
<g clip-path="url(#clip0)">
<path d="M29.9207 12.8911V12.175H30.7508V11.459H29.9207V10.7429H29.3277V11.459H28.4976V12.175H29.3277V12.8911H29.9207Z" fill="black"/>
<path d="M4.42313 25.0642V24.2288H5.25328V23.5127H4.42313V22.7966H3.83016V23.5127H3V24.2288H3.83016V25.0642H4.42313Z" fill="black"/>
<path d="M8.45513 21.8419H24.7025C25.2954 21.8419 25.7698 22.4386 25.7698 23.0353C25.7698 23.7514 25.2954 24.2287 24.7025 24.2287H8.45513C7.1506 24.2287 6.08325 23.1546 6.08325 21.7225C6.08325 20.2904 7.1506 19.2163 8.45513 19.2163H24.8211C26.7186 19.2163 28.2603 20.8871 28.2603 22.916C28.2603 24.9448 26.7186 26.6156 24.8211 26.6156H7.1506C6.55763 26.6156 6.08325 26.0189 6.08325 25.4222C6.08325 24.7061 6.55763 24.2287 7.1506 24.2287H8.45513" fill="#AF1922"/>
<path d="M8.45513 21.8419H24.7025C25.2954 21.8419 25.7698 22.4386 25.7698 23.0353C25.7698 23.7514 25.2954 24.2287 24.7025 24.2287H8.45513C7.1506 24.2287 6.08325 23.1546 6.08325 21.7225C6.08325 20.2904 7.1506 19.2163 8.45513 19.2163H24.8211C26.7186 19.2163 28.2603 20.8871 28.2603 22.916C28.2603 24.9448 26.7186 26.6156 24.8211 26.6156H7.1506C6.55763 26.6156 6.08325 26.0189 6.08325 25.4222C6.08325 24.7061 6.55763 24.2287 7.1506 24.2287H8.45513" stroke="black" stroke-width="0.5" stroke-miterlimit="10"/>
<path d="M25.6514 14.3232H9.40401C8.81104 14.3232 8.33666 14.9199 8.33666 15.5166C8.33666 16.2327 8.81104 16.7101 9.40401 16.7101H25.6514C26.9559 16.7101 28.0232 15.636 28.0232 14.2038C28.0232 12.7717 26.9559 11.6976 25.6514 11.6976H9.28541C7.38791 11.6976 5.84619 13.3684 5.84619 15.3973C5.84619 17.4261 7.38791 19.0969 9.28541 19.0969H26.9559C27.5489 19.0969 28.0232 18.5002 28.0232 17.9035C28.0232 17.1874 27.5489 16.7101 26.9559 16.7101H25.6514" fill="#1682D8"/>
<path d="M25.6514 14.3232H9.40401C8.81104 14.3232 8.33666 14.9199 8.33666 15.5166C8.33666 16.2327 8.81104 16.7101 9.40401 16.7101H25.6514C26.9559 16.7101 28.0232 15.636 28.0232 14.2038C28.0232 12.7717 26.9559 11.6976 25.6514 11.6976H9.28541C7.38791 11.6976 5.84619 13.3684 5.84619 15.3973C5.84619 17.4261 7.38791 19.0969 9.28541 19.0969H26.9559C27.5489 19.0969 28.0232 18.5002 28.0232 17.9035C28.0232 17.1874 27.5489 16.7101 26.9559 16.7101H25.6514" stroke="black" stroke-width="0.5" stroke-miterlimit="10"/>
<path d="M8.45513 6.9239H24.7025C25.2954 6.9239 25.7698 7.52062 25.7698 8.11734C25.7698 8.8334 25.2954 9.31077 24.7025 9.31077H8.45513C7.1506 9.31077 6.08325 8.23668 6.08325 6.80456C6.08325 5.37243 7.1506 4.29834 8.45513 4.29834H24.8211C26.7186 4.29834 28.2603 5.96915 28.2603 7.99799C28.2603 10.0268 26.7186 11.6976 24.8211 11.6976H7.1506C6.55763 11.6976 6.08325 11.1009 6.08325 10.5042C6.08325 9.78815 6.55763 9.31077 7.1506 9.31077H8.45513" fill="white"/>
<path d="M8.45513 6.9239H24.7025C25.2954 6.9239 25.7698 7.52062 25.7698 8.11734C25.7698 8.8334 25.2954 9.31077 24.7025 9.31077H8.45513C7.1506 9.31077 6.08325 8.23668 6.08325 6.80456C6.08325 5.37243 7.1506 4.29834 8.45513 4.29834H24.8211C26.7186 4.29834 28.2603 5.96915 28.2603 7.99799C28.2603 10.0268 26.7186 11.6976 24.8211 11.6976H7.1506C6.55763 11.6976 6.08325 11.1009 6.08325 10.5042C6.08325 9.78815 6.55763 9.31077 7.1506 9.31077H8.45513" stroke="black" stroke-width="0.5" stroke-miterlimit="10"/>
<path d="M5.37178 18.5002L4.77881 18.8583C4.8974 19.097 5.016 19.2163 5.13459 19.455L5.72756 19.097C5.49037 18.7389 5.37178 18.6196 5.37178 18.5002Z" fill="black"/>
<path d="M4.42299 16.1133H3.71143V16.2326C3.71143 16.4713 3.83002 16.5907 3.83002 16.8293L4.42299 16.5907C4.54158 16.4713 4.42299 16.352 4.42299 16.1133Z" fill="black"/>
<path d="M4.77876 17.3068L4.18579 17.5455C4.30438 17.7841 4.30438 17.9035 4.42298 18.1422L5.01595 17.9035C4.89735 17.6648 4.89735 17.4261 4.77876 17.3068Z" fill="black"/>
<path d="M4.18593 14.8005L3.47437 14.9199C3.47437 15.1586 3.59296 15.3973 3.59296 15.6359L4.18593 15.5166C4.18593 15.2779 4.18593 15.0392 4.18593 14.8005Z" fill="black"/>
<path d="M4.06728 13.4878H3.35571C3.35571 13.7265 3.35571 13.9652 3.35571 14.2039H4.06728C4.06728 13.9652 4.06728 13.7265 4.06728 13.4878Z" fill="black"/>
<path d="M30.1819 22.9398L30.8579 23.095C30.929 22.8443 30.929 22.6653 31.0002 22.4147L30.3242 22.2715C30.253 22.6892 30.2649 22.8563 30.1819 22.9398Z" fill="black"/>
<path d="M29.2568 25.3386L29.7786 25.8279L29.8617 25.7444C30.0277 25.5654 30.0158 25.3983 30.1819 25.2312L29.5889 25.0045C29.411 24.9925 29.4229 25.1716 29.2568 25.3386Z" fill="black"/>
<path d="M29.8022 24.2287L30.3952 24.4554C30.4664 24.2048 30.5494 24.1093 30.6205 23.8587L30.0276 23.632C29.9683 23.8826 29.8022 24.0497 29.8022 24.2287Z" fill="black"/>
<path d="M28.5452 26.4604L29.15 26.8662C29.316 26.6872 29.3872 26.4365 29.5532 26.2575L29.0433 25.9353C28.8654 26.1143 28.6993 26.2933 28.5452 26.4604Z" fill="black"/>
<path d="M27.7388 27.5107L28.2606 28C28.4266 27.821 28.5808 27.6539 28.7468 27.4749L28.225 26.9856C28.059 27.1527 27.9048 27.3317 27.7388 27.5107Z" fill="black"/>
</g>
<defs>
<clipPath id="clip0">
<rect x="3" y="4" width="28" height="24" fill="white"/>
</clipPath>
</defs>
</svg>
