<svg width="32" height="32" viewBox="0 0 32 32" fill="none" xmlns="http://www.w3.org/2000/svg">
<g clip-path="url(#clip0)">
<path d="M28.3 9.00999H29.1201V9.70999H29.82V9.00999H30.5201V8.30999H29.82V7.48999H29.1201V8.30999H28.3V9.00999Z" fill="black"/>
<path d="M2.61011 14.73H3.31011V15.43H4.01011V14.73H4.83011V14.03H4.01011V13.21H3.31011V14.03H2.61011V14.73Z" fill="#AF1922"/>
<path d="M28.5499 16.76H27.95V17.36H28.5499V16.76Z" fill="black"/>
<path d="M28.5499 18.96H27.95V19.56H28.5499V18.96Z" fill="black"/>
<path d="M28.5499 17.86H27.95V18.46H28.5499V17.86Z" fill="black"/>
<path d="M28.5499 20.0601H27.95V20.6601H28.5499V20.0601Z" fill="black"/>
<path d="M28.5499 21.16H27.95V21.76H28.5499V21.16Z" fill="black"/>
<path d="M28.5499 22.26H27.95V22.86H28.5499V22.26Z" fill="black"/>
<path d="M13.9399 3.4H14.6399V4.22H15.3399V3.4H16.1599V2.82H15.3399V2H14.6399V2.82H13.9399V3.4Z" fill="black"/>
<path d="M11.47 27.27C11.54 27.35 11.59 27.46 11.59 27.57C11.59 27.69 11.54 27.8 11.47 27.87C11.39 27.95 11.29 28 11.17 28C11.13 28 11.1 27.99 11.06 27.98C11.12 27.91 11.14 27.8 11.09 27.71C11.02 27.59 10.87 27.54 10.75 27.61C10.75 27.6 10.75 27.59 10.75 27.57C10.75 27.46 10.79 27.35 10.87 27.27C10.95 27.2 11.05 27.15 11.17 27.15C11.29 27.15 11.39 27.2 11.47 27.27Z" fill="white"/>
<path d="M14.87 29.1601H10.98H10.97C10.9 29.1701 10.87 29.1701 10.83 29.1801C10.56 29.2101 10.24 29.2501 9.98 29.2001C9.74 29.1501 9.55 29.0101 9.5 28.6501C9.9 28.5401 10.29 28.3901 10.65 28.2201C10.79 28.3301 10.97 28.4001 11.17 28.4001C11.39 28.4001 11.6 28.3001 11.75 28.1601C11.9 28.0101 11.99 27.8001 11.99 27.5701C11.99 27.3401 11.9 27.1401 11.75 26.9901C11.6 26.8401 11.39 26.7501 11.17 26.7501C10.94 26.7501 10.73 26.8401 10.58 26.9901C10.44 27.1401 10.34 27.3401 10.34 27.5701C10.34 27.6501 10.35 27.7201 10.37 27.7901C10.1 27.9201 9.82 28.0301 9.52 28.1301C9.53 28.0901 9.53 28.0501 9.54 28.0201V28.0001V27.9901C9.58 26.9601 9.6 25.8401 9.61 24.6801C9.75 24.6601 9.88 24.6501 10.02 24.6501C11.18 24.6301 12.31 25.1801 13.18 25.9601C14.06 26.7501 14.68 27.7901 14.83 28.7601C14.85 28.8901 14.87 29.0301 14.87 29.1601Z" fill="black"/>
<path d="M23.6699 5.41003L23.6899 6.36003C23.4699 6.42003 23.2399 6.47003 22.9999 6.52003C22.9899 6.40003 22.9799 6.27003 22.9699 6.14003C22.9499 5.91003 22.9399 5.69003 22.9299 5.57003C23.1899 5.52003 23.4299 5.47003 23.6699 5.41003Z" fill="#AF1923"/>
<path d="M22.5999 6.59002C22.3799 6.63002 22.1599 6.67002 21.9299 6.71002L21.8799 5.75002C22.0999 5.72002 22.3199 5.69002 22.5399 5.65002C22.5399 5.78002 22.5599 5.97002 22.5699 6.17002C22.5799 6.31002 22.5899 6.46002 22.5999 6.59002Z" fill="#AF1923"/>
<path d="M21.48 5.81006L21.53 6.76006C20.9 6.85006 20.24 6.91006 19.58 6.95006L19.53 6.00006C20.19 5.96006 20.85 5.89006 21.48 5.81006Z" fill="#AF1923"/>
<path d="M19.13 6.02002L19.18 6.97002C18.89 6.99002 18.6 7.00002 18.32 7.00002L18.27 6.05002C18.56 6.04002 18.84 6.03002 19.13 6.02002Z" fill="#AF1923"/>
<path d="M17.8699 6.04997L17.9199 6.99997C17.1199 7.00997 16.3499 6.96997 15.6299 6.90997L15.6799 5.96997C16.3699 6.02997 17.1099 6.04997 17.8699 6.04997Z" fill="#AF1923"/>
<path d="M15.2799 5.93007L15.2299 6.86007C14.9299 6.83007 14.6299 6.79007 14.3499 6.74007L14.3999 5.82007C14.6799 5.86007 14.9799 5.90007 15.2799 5.93007Z" fill="#AF1923"/>
<path d="M13.9999 5.74999L13.9599 6.65999C13.5899 6.57999 13.2599 6.48999 12.9599 6.37999C12.9599 6.37999 12.9499 6.37999 12.9399 6.37999L12.9599 5.48999C13.2799 5.58999 13.6299 5.67999 13.9999 5.74999Z" fill="#AF1923"/>
<path d="M27.49 27.96C27.7 29.1 27.29 29.49 26.73 29.59C26.41 29.66 26.06 29.61 25.75 29.58C25.71 29.57 25.66 29.57 25.64 29.56H11C10.97 29.57 10.93 29.57 10.88 29.58C10.58 29.61 10.23 29.66 9.90996 29.59C9.50996 29.52 9.17996 29.3 9.10996 28.76C9.04996 28.78 8.99996 28.79 8.93996 28.8C8.02996 29 7.08996 29.03 6.26996 28.82C5.42996 28.61 4.71996 28.16 4.29996 27.39C4.27996 27.35 4.24996 27.3 4.22996 27.26C3.66996 27.08 3.20996 26.82 2.81996 26.51C1.91996 25.79 1.46996 24.77 1.30996 23.65C1.15996 22.56 1.29996 21.38 1.60996 20.3C2.03996 18.78 2.80996 17.46 3.53996 16.93C3.80996 16.73 4.08996 16.55 4.36996 16.37C4.80996 16.08 5.26996 15.79 5.71996 15.41C5.76996 13.93 5.94996 12.13 6.38996 10.5C6.77996 9.04003 7.39996 7.72003 8.33996 6.89003C8.39996 6.84003 8.47996 6.76003 8.56996 6.68003C9.27996 6.02003 10.17 5.21003 12.62 5.04003C12.64 5.04003 12.65 5.04003 12.67 5.04003C12.72 5.01003 12.78 5.01003 12.84 5.03003C14.03 5.46003 15.9 5.66003 17.88 5.65003C19.93 5.64003 22.1 5.41003 23.79 4.97003C23.89 4.94003 24 5.00003 24.03 5.10003C24.05 5.13003 24.06 5.17003 24.07 5.21003V5.30003C24.42 5.32003 24.76 5.27003 25.08 5.16003C25.38 5.06003 25.66 4.92003 25.93 4.74003C25.92 4.66003 25.93 4.57003 25.98 4.49003C26.03 4.40003 26.11 4.32003 26.21 4.26003C26.32 4.21003 26.43 4.18003 26.53 4.19003C26.66 4.20003 26.77 4.26003 26.83 4.37003C26.89 4.47003 26.88 4.60003 26.82 4.72003C26.77 4.80003 26.69 4.88003 26.59 4.94003C26.48 5.00003 26.37 5.03003 26.27 5.02003C26.19 5.01003 26.12 4.99003 26.06 4.95003C25.78 5.14003 25.48 5.29003 25.16 5.40003C24.82 5.51003 24.45 5.57003 24.07 5.55003L24.08 6.09003C24.35 6.11003 24.62 6.09003 24.88 6.04003C25.13 5.99003 25.37 5.92003 25.6 5.82003C25.59 5.74003 25.61 5.66003 25.65 5.59003C25.7 5.50003 25.78 5.42003 25.89 5.36003C25.99 5.31003 26.11 5.28003 26.21 5.29003C26.34 5.29003 26.45 5.35003 26.51 5.46003C26.57 5.57003 26.56 5.70003 26.5 5.81003C26.45 5.90003 26.37 5.98003 26.26 6.04003C26.16 6.10003 26.04 6.12003 25.94 6.12003C25.86 6.11003 25.78 6.09003 25.72 6.04003C25.46 6.15003 25.2 6.24003 24.93 6.29003C24.65 6.34003 24.37 6.36003 24.09 6.34003V6.46003C25.03 8.05003 25.76 9.38003 26.3 10.78C26.84 12.19 27.17 13.67 27.29 15.54C27.41 17.48 27.41 19.93 27.42 22.37C27.42 24.31 27.42 26.26 27.49 27.96ZM26.65 29.2C27 29.13 27.25 28.86 27.09 28.02V28.01V27.99C27.02 26.29 27.02 24.33 27.02 22.36C27.01 19.94 27.01 17.51 26.88 15.56C26.77 13.74 26.45 12.3 25.92 10.92C25.4 9.57003 24.69 8.28003 23.79 6.74003C23.26 6.88003 22.68 6.99003 22.07 7.09003C22.75 7.97003 22.91 8.63003 23.08 9.36003C23.11 9.49003 23.14 9.61003 23.17 9.76003C23.2 9.86003 23.14 9.97003 23.03 10C22.92 10.03 22.81 9.96003 22.79 9.85003C22.75 9.73003 22.72 9.59003 22.69 9.45003C22.52 8.72003 22.36 8.06003 21.61 7.15003C21.48 7.17003 21.35 7.19003 21.22 7.20003C21.56 7.62003 21.78 7.98003 21.93 8.33003C22.11 8.71003 22.2 9.06003 22.29 9.42003C22.3 9.49003 22.26 9.56003 22.2 9.57003C22.13 9.59003 22.06 9.55003 22.05 9.48003C21.96 9.13003 21.87 8.79003 21.71 8.43003C21.54 8.07003 21.3 7.69003 20.92 7.24003C19.95 7.34003 18.95 7.40003 17.97 7.40003C17.11 7.41003 16.27 7.37003 15.49 7.29003C15.15 7.70003 14.93 8.06003 14.78 8.40003C14.61 8.75003 14.52 9.08003 14.44 9.43003C14.42 9.49003 14.35 9.54003 14.29 9.52003C14.22 9.50003 14.18 9.44003 14.19 9.37003C14.28 9.01003 14.38 8.66003 14.55 8.29003C14.69 7.97003 14.9 7.64003 15.19 7.26003C15.08 7.25003 14.98 7.24003 14.87 7.22003C14.11 8.13003 13.96 8.79003 13.79 9.52003C13.76 9.66003 13.72 9.79003 13.69 9.92003C13.66 10.03 13.55 10.1 13.45 10.07C13.34 10.04 13.27 9.93003 13.3 9.83003C13.34 9.68003 13.37 9.56003 13.4 9.43003C13.57 8.70003 13.72 8.04003 14.41 7.15003C13.81 7.05003 13.28 6.92003 12.83 6.76003C11.93 8.28003 11.22 9.57003 10.71 10.92C10.18 12.3 9.85996 13.74 9.73996 15.56C9.61996 17.51 9.61996 19.94 9.60996 22.36C9.60996 23 9.60996 23.64 9.60996 24.27C9.73996 24.26 9.87996 24.25 10.02 24.25C11.29 24.23 12.51 24.82 13.45 25.67C14.39 26.52 15.06 27.64 15.23 28.7C15.25 28.85 15.26 29.01 15.27 29.16H25.65H25.66C25.73 29.17 25.76 29.17 25.8 29.18C26.07 29.21 26.39 29.25 26.65 29.2ZM23.69 6.36003L23.67 5.41003C23.43 5.47003 23.19 5.52003 22.93 5.57003C22.94 5.69003 22.95 5.91003 22.97 6.14003C22.98 6.27003 22.99 6.40003 23 6.52003C23.24 6.47003 23.47 6.42003 23.69 6.36003ZM21.93 6.71003C22.16 6.67003 22.38 6.63003 22.6 6.59003C22.59 6.46003 22.58 6.31003 22.57 6.17003C22.56 5.97003 22.54 5.78003 22.54 5.65003C22.32 5.69003 22.1 5.72003 21.88 5.75003L21.93 6.71003ZM21.53 6.76003L21.48 5.81003C20.85 5.89003 20.19 5.96003 19.53 6.00003L19.58 6.95003C20.24 6.91003 20.9 6.85003 21.53 6.76003ZM19.18 6.97003L19.13 6.02003C18.84 6.03003 18.56 6.04003 18.27 6.05003L18.32 7.00003C18.6 7.00003 18.89 6.99003 19.18 6.97003ZM17.92 7.00003L17.87 6.05003C17.11 6.05003 16.37 6.03003 15.68 5.97003L15.63 6.91003C16.35 6.97003 17.12 7.01003 17.92 7.00003ZM15.23 6.86003L15.28 5.93003C14.98 5.90003 14.68 5.86003 14.4 5.82003L14.35 6.74003C14.63 6.79003 14.93 6.83003 15.23 6.86003ZM10.98 29.16H14.87C14.87 29.03 14.85 28.89 14.83 28.76C14.68 27.79 14.06 26.75 13.18 25.96C12.31 25.18 11.18 24.63 10.02 24.65C9.87996 24.65 9.74996 24.66 9.60996 24.68C9.59996 25.84 9.57996 26.96 9.53996 27.99V28V28.02C9.52996 28.05 9.52996 28.09 9.51996 28.13C9.81996 28.03 10.1 27.92 10.37 27.79C10.35 27.72 10.34 27.65 10.34 27.57C10.34 27.34 10.44 27.14 10.58 26.99C10.73 26.84 10.94 26.75 11.17 26.75C11.39 26.75 11.6 26.84 11.75 26.99C11.9 27.14 11.99 27.34 11.99 27.57C11.99 27.8 11.9 28.01 11.75 28.16C11.6 28.3 11.39 28.4 11.17 28.4C10.97 28.4 10.79 28.33 10.65 28.22C10.29 28.39 9.89996 28.54 9.49996 28.65C9.54996 29.01 9.73996 29.15 9.97996 29.2C10.24 29.25 10.56 29.21 10.83 29.18C10.87 29.17 10.9 29.17 10.97 29.16H10.98ZM13.96 6.66003L14 5.75003C13.63 5.68003 13.28 5.59003 12.96 5.49003L12.94 6.38003C12.95 6.38003 12.96 6.38003 12.96 6.38003C13.26 6.49003 13.59 6.58003 13.96 6.66003ZM12.55 6.14003L12.56 5.55003C10.35 5.72003 9.55996 6.45003 8.89996 7.05003C8.82996 7.12003 8.75996 7.19003 8.65996 7.27003C7.80996 8.02003 7.23996 9.25003 6.86996 10.63C6.48996 12.04 6.30996 13.58 6.23996 14.93C6.71996 14.44 7.15996 13.82 7.51996 13C7.72996 12.52 7.90996 11.94 8.09996 11.32C8.81996 9.04003 9.66996 6.34003 12.55 6.14003ZM11.59 27.57C11.59 27.46 11.54 27.35 11.47 27.27C11.39 27.2 11.29 27.15 11.17 27.15C11.05 27.15 10.95 27.2 10.87 27.27C10.79 27.35 10.75 27.46 10.75 27.57C10.75 27.59 10.75 27.6 10.75 27.61C10.87 27.54 11.02 27.59 11.09 27.71C11.14 27.8 11.12 27.91 11.06 27.98C11.1 27.99 11.13 28 11.17 28C11.29 28 11.39 27.95 11.47 27.87C11.54 27.8 11.59 27.69 11.59 27.57ZM10.34 10.78C10.85 9.44003 11.55 8.16003 12.43 6.65003C10.01 6.92003 9.22996 9.39003 8.57996 11.47C8.37996 12.1 8.19996 12.69 7.97996 13.2C7.48996 14.32 6.86996 15.07 6.20996 15.65C6.20996 15.96 6.19996 16.25 6.19996 16.51C6.19996 18.53 5.65996 20.03 5.15996 21.44C4.58996 23.03 4.05996 24.5 4.47996 26.45C4.50996 26.59 4.54996 26.72 4.59996 26.84C4.92996 26.93 5.30996 27 5.71996 27.03C6.37996 27.08 7.00996 27.1 7.57996 27.12C8.19996 27.15 8.74996 27.17 9.16996 27.21C9.20996 25.7 9.20996 24.03 9.21996 22.37C9.21996 19.92 9.21996 17.48 9.34996 15.54C9.45996 13.67 9.79996 12.19 10.34 10.78ZM9.14996 27.96C9.14996 27.88 9.14996 27.8 9.14996 27.72C8.74996 27.67 8.18996 27.65 7.55996 27.62C6.97996 27.6 6.32996 27.58 5.67996 27.53C5.40996 27.51 5.15996 27.48 4.91996 27.43C5.26996 27.89 5.78996 28.18 6.38996 28.33C7.12996 28.52 7.98996 28.49 8.83996 28.31C8.91996 28.29 9.00996 28.27 9.09996 28.25C9.10996 28.16 9.12996 28.06 9.14996 27.96ZM5.69996 16.51C5.69996 16.37 5.69996 16.22 5.69996 16.07C5.34996 16.34 4.98996 16.57 4.63996 16.79C4.35996 16.97 4.08996 17.15 3.83996 17.33C3.18996 17.81 2.48996 19.02 2.08996 20.44C1.79996 21.45 1.66996 22.57 1.80996 23.59C1.94996 24.58 2.34996 25.49 3.12996 26.12C3.38996 26.33 3.67996 26.5 4.00996 26.64C4.00996 26.61 3.99996 26.59 3.98996 26.56C3.53996 24.46 4.08996 22.93 4.68996 21.27C5.17996 19.91 5.69996 18.45 5.69996 16.51Z" fill="black"/>
<path d="M27.0899 28.02C27.2499 28.86 26.9999 29.13 26.6499 29.2C26.3899 29.25 26.0699 29.21 25.7999 29.18C25.7599 29.17 25.7299 29.17 25.6599 29.16H25.6499H15.2699C15.2599 29.01 15.2499 28.85 15.2299 28.7C15.0599 27.64 14.3899 26.52 13.4499 25.67C12.5099 24.82 11.2899 24.23 10.0199 24.25C9.87986 24.25 9.73986 24.26 9.60986 24.27C9.60986 23.64 9.60986 23 9.60986 22.36C9.61986 19.94 9.61986 17.51 9.73986 15.56C9.85986 13.74 10.1799 12.3 10.7099 10.92C11.2199 9.56999 11.9299 8.27999 12.8299 6.75999C13.2799 6.91999 13.8099 7.04999 14.4099 7.14999C13.7199 8.03999 13.5699 8.69999 13.3999 9.42999C13.3699 9.55999 13.3399 9.67999 13.2999 9.82999C13.2699 9.92999 13.3399 10.04 13.4499 10.07C13.5499 10.1 13.6599 10.03 13.6899 9.91999C13.7199 9.78999 13.7599 9.65999 13.7899 9.51999C13.9599 8.78999 14.1099 8.12999 14.8699 7.21999C14.9799 7.23999 15.0799 7.24999 15.1899 7.25999C14.8999 7.63999 14.6899 7.96999 14.5499 8.28999C14.3799 8.65999 14.2799 9.00999 14.1899 9.36999C14.1799 9.43999 14.2199 9.49999 14.2899 9.51999C14.3499 9.53999 14.4199 9.48999 14.4399 9.42999C14.5199 9.07999 14.6099 8.74999 14.7799 8.39999C14.9299 8.05999 15.1499 7.69999 15.4899 7.28999C16.2699 7.36999 17.1099 7.40999 17.9699 7.39999C18.9499 7.39999 19.9499 7.33999 20.9199 7.23999C21.2999 7.68999 21.5399 8.06999 21.7099 8.42999C21.8699 8.78999 21.9599 9.12999 22.0499 9.47999C22.0599 9.54999 22.1299 9.58999 22.1999 9.56999C22.2599 9.55999 22.2999 9.48999 22.2899 9.41999C22.1999 9.05999 22.1099 8.70999 21.9299 8.32999C21.7799 7.97999 21.5599 7.61999 21.2199 7.19999C21.3499 7.18999 21.4799 7.16999 21.6099 7.14999C22.3599 8.05999 22.5199 8.71999 22.6899 9.44999C22.7199 9.58999 22.7499 9.72999 22.7899 9.84999C22.8099 9.95999 22.9199 10.03 23.0299 9.99999C23.1399 9.96999 23.1999 9.85999 23.1699 9.75999C23.1399 9.60999 23.1099 9.48999 23.0799 9.35999C22.9099 8.62999 22.7499 7.96999 22.0699 7.08999C22.6799 6.98999 23.2599 6.87999 23.7899 6.73999C24.6899 8.27999 25.3999 9.56999 25.9199 10.92C26.4499 12.3 26.7699 13.74 26.8799 15.56C27.0099 17.51 27.0099 19.94 27.0199 22.36C27.0199 24.33 27.0199 26.29 27.0899 27.99V28.01V28.02ZM16.2999 28.71C16.3899 28.67 16.4499 28.58 16.4299 28.48V28.47L16.4199 28.43V28.4L16.4099 28.37V28.34L16.3999 28.3L16.3899 28.27L16.3799 28.24V28.21L16.3699 28.17L16.3599 28.14L16.3499 28.11L16.3399 28.08V28.04L16.3299 28.01L16.3199 27.98L16.3099 27.95L16.2999 27.91L16.2899 27.88L16.2799 27.85L16.2699 27.82L16.2599 27.78L16.2499 27.75L16.2399 27.72L16.2199 27.69V27.67C16.1699 27.54 15.9999 27.49 15.8999 27.59C15.8299 27.64 15.8099 27.73 15.8399 27.81L15.8499 27.82L15.8599 27.85L15.8699 27.88L15.8799 27.91L15.8899 27.94L15.8999 27.97V28L15.9099 28.03L15.9199 28.06L15.9299 28.09L15.9399 28.12L15.9499 28.15L15.9599 28.18V28.21L15.9699 28.24L15.9799 28.27L15.9899 28.3V28.33L15.9999 28.36L16.0099 28.39V28.42L16.0199 28.45V28.48L16.0299 28.51V28.54L16.0399 28.55C16.0599 28.67 16.1799 28.74 16.2999 28.71ZM15.6699 26.78C15.7199 26.71 15.7299 26.62 15.6799 26.55L15.6699 26.54L15.6599 26.5L15.6399 26.47L15.6199 26.44L15.5999 26.41L15.5799 26.38L15.5599 26.35L15.5399 26.32L15.5199 26.29L15.4999 26.26L15.4799 26.23L15.4499 26.2L15.4299 26.17L15.4099 26.13L15.3899 26.1L15.3699 26.07L15.3499 26.04L15.3299 26.01L15.2999 25.98L15.2799 25.95L15.2599 25.92L15.2399 25.9L15.2199 25.87C15.1299 25.76 14.9499 25.77 14.8799 25.9C14.8399 25.97 14.8499 26.05 14.8999 26.12L14.9199 26.14L14.9399 26.17L14.9599 26.19L14.9799 26.22L14.9999 26.25L15.0199 26.28L15.0399 26.31L15.0599 26.34L15.0799 26.37L15.0999 26.39L15.1199 26.42L15.1399 26.45L15.1599 26.48L15.1799 26.51L15.1999 26.54L15.2199 26.57L15.2399 26.6L15.2599 26.63L15.2799 26.66L15.2999 26.68L15.3099 26.71L15.3299 26.74L15.3399 26.76C15.4099 26.88 15.5899 26.89 15.6699 26.78ZM14.4399 25.18C14.4699 25.1 14.4499 25.02 14.3899 24.96L14.3699 24.94L14.3399 24.92L14.3099 24.89L14.2899 24.87L14.2599 24.84L14.2299 24.82L14.1999 24.79L14.1699 24.77L14.1399 24.74L14.1099 24.72L14.0799 24.69L14.0499 24.67L14.0199 24.64L13.9899 24.62L13.9599 24.59L13.9299 24.57L13.8999 24.55L13.8699 24.52L13.8399 24.5L13.8099 24.48L13.7799 24.45L13.7499 24.43C13.6399 24.34 13.4699 24.41 13.4399 24.55C13.4199 24.63 13.4499 24.71 13.5099 24.75L13.5399 24.77L13.5699 24.79L13.5999 24.82L13.6299 24.84L13.6599 24.86L13.6799 24.88L13.7099 24.91L13.7399 24.93L13.7699 24.95L13.7999 24.98L13.8299 25L13.8499 25.02L13.8799 25.05L13.9099 25.07L13.9399 25.09L13.9599 25.12L13.9899 25.14L14.0199 25.17L14.0399 25.19L14.0699 25.21L14.0999 25.24L14.1099 25.25C14.2199 25.35 14.3799 25.31 14.4399 25.18ZM12.8099 23.97C12.8199 23.89 12.7699 23.82 12.6999 23.78L12.6699 23.76L12.6399 23.75L12.5999 23.73L12.5699 23.71L12.5299 23.7L12.4999 23.68L12.4599 23.67L12.4299 23.65L12.3899 23.63L12.3599 23.62L12.3199 23.6L12.2899 23.59L12.2499 23.57L12.2199 23.56L12.1799 23.55L12.1499 23.53L12.1099 23.52L12.0699 23.51L12.0399 23.49L11.9999 23.48L11.9699 23.47L11.9399 23.46C11.7999 23.41 11.6599 23.52 11.6699 23.66C11.6799 23.74 11.7299 23.81 11.8099 23.84L11.8299 23.85L11.8699 23.86L11.8999 23.87L11.9299 23.88L11.9699 23.89L11.9999 23.91L12.0299 23.92L12.0699 23.93L12.0999 23.95L12.1299 23.96L12.1699 23.97L12.1999 23.99L12.2299 24L12.2699 24.02L12.2999 24.03L12.3299 24.05L12.3599 24.06L12.3999 24.08L12.4299 24.09L12.4599 24.11L12.4899 24.12L12.5199 24.14C12.6499 24.2 12.7999 24.12 12.8099 23.97ZM10.8899 23.44C10.9299 23.32 10.8499 23.2 10.7199 23.18H10.6999H10.6599L10.6199 23.17H10.5799H10.5499H10.5099L10.4699 23.16H10.4299H10.3899H10.3499H10.3099H10.2799H10.2399H10.1999H10.1599H10.1199H10.0799H10.0399H10.0099H9.96986H9.92986H9.88986C9.74986 23.17 9.65986 23.32 9.71986 23.45C9.74986 23.52 9.82986 23.57 9.90986 23.56H9.94986H9.97986H10.0199H10.0599H10.0899H10.1299H10.1599H10.1999H10.2299H10.2699H10.2999H10.3399H10.3799H10.4099H10.4499L10.4799 23.57H10.5199H10.5499H10.5899L10.6199 23.58H10.6599H10.6799C10.7799 23.59 10.8599 23.53 10.8899 23.44Z" fill="#AF1923"/>
<path d="M16.4299 28.4801C16.4499 28.5801 16.3899 28.6701 16.2999 28.7101C16.1799 28.7401 16.0599 28.6701 16.0399 28.5501L16.0299 28.5401V28.5101L16.0199 28.4801V28.4501L16.0099 28.4201V28.3901L15.9999 28.3601L15.9899 28.3301V28.3001L15.9799 28.2701L15.9699 28.2401L15.9599 28.2101V28.1801L15.9499 28.1501L15.9399 28.1201L15.9299 28.0901L15.9199 28.0601L15.9099 28.0301L15.8999 28.0001V27.9701L15.8899 27.9401L15.8799 27.9101L15.8699 27.8801L15.8599 27.8501L15.8499 27.8201L15.8399 27.8101C15.8099 27.7301 15.8299 27.6401 15.8999 27.5901C15.9999 27.4901 16.1699 27.5401 16.2199 27.6701V27.6901L16.2399 27.7201L16.2499 27.7501L16.2599 27.7801L16.2699 27.8201L16.2799 27.8501L16.2899 27.8801L16.2999 27.9101L16.3099 27.9501L16.3199 27.9801L16.3299 28.0101L16.3399 28.0401V28.0801L16.3499 28.1101L16.3599 28.1401L16.3699 28.1701L16.3799 28.2101V28.2401L16.3899 28.2701L16.3999 28.3001L16.4099 28.3401V28.3701L16.4199 28.4001V28.4301L16.4299 28.4701V28.4801Z" fill="white"/>
<path d="M15.6799 26.5501C15.7299 26.6201 15.7199 26.7101 15.6699 26.7801C15.5899 26.8901 15.4099 26.8801 15.3399 26.7601L15.3299 26.7401L15.3099 26.7101L15.2999 26.6801L15.2799 26.6601L15.2599 26.6301L15.2399 26.6001L15.2199 26.5701L15.1999 26.5401L15.1799 26.5101L15.1599 26.4801L15.1399 26.4501L15.1199 26.4201L15.0999 26.3901L15.0799 26.3701L15.0599 26.3401L15.0399 26.3101L15.0199 26.2801L14.9999 26.2501L14.9799 26.2201L14.9599 26.1901L14.9399 26.1701L14.9199 26.1401L14.8999 26.1201C14.8499 26.0501 14.8399 25.9701 14.8799 25.9001C14.9499 25.7701 15.1299 25.7601 15.2199 25.8701L15.2399 25.9001L15.2599 25.9201L15.2799 25.9501L15.2999 25.9801L15.3299 26.0101L15.3499 26.0401L15.3699 26.0701L15.3899 26.1001L15.4099 26.1301L15.4299 26.1701L15.4499 26.2001L15.4799 26.2301L15.4999 26.2601L15.5199 26.2901L15.5399 26.3201L15.5599 26.3501L15.5799 26.3801L15.5999 26.4101L15.6199 26.4401L15.6399 26.4701L15.6599 26.5001L15.6699 26.5401L15.6799 26.5501Z" fill="white"/>
<path d="M14.39 24.96C14.45 25.02 14.47 25.1 14.44 25.18C14.38 25.31 14.22 25.35 14.11 25.25L14.1 25.24L14.07 25.21L14.04 25.19L14.02 25.17L13.99 25.14L13.96 25.12L13.94 25.09L13.91 25.07L13.88 25.05L13.85 25.02L13.83 25L13.8 24.98L13.77 24.95L13.74 24.93L13.71 24.91L13.68 24.88L13.66 24.86L13.63 24.84L13.6 24.82L13.57 24.79L13.54 24.77L13.51 24.75C13.45 24.71 13.42 24.63 13.44 24.55C13.47 24.41 13.64 24.34 13.75 24.43L13.78 24.45L13.81 24.48L13.84 24.5L13.87 24.52L13.9 24.55L13.93 24.57L13.96 24.59L13.99 24.62L14.02 24.64L14.05 24.67L14.08 24.69L14.11 24.72L14.14 24.74L14.17 24.77L14.2 24.79L14.23 24.82L14.26 24.84L14.29 24.87L14.31 24.89L14.34 24.92L14.37 24.94L14.39 24.96Z" fill="white"/>
<path d="M12.6999 23.78C12.7699 23.82 12.8199 23.89 12.8099 23.97C12.7999 24.12 12.6499 24.2 12.5199 24.14L12.4899 24.12L12.4599 24.11L12.4299 24.09L12.3999 24.08L12.3599 24.06L12.3299 24.05L12.2999 24.03L12.2699 24.02L12.2299 24L12.1999 23.99L12.1699 23.97L12.1299 23.96L12.0999 23.95L12.0699 23.93L12.0299 23.92L11.9999 23.91L11.9699 23.89L11.9299 23.88L11.8999 23.87L11.8699 23.86L11.8299 23.85L11.8099 23.84C11.7299 23.81 11.6799 23.74 11.6699 23.66C11.6599 23.52 11.7999 23.41 11.9399 23.46L11.9699 23.47L11.9999 23.48L12.0399 23.49L12.0699 23.51L12.1099 23.52L12.1499 23.53L12.1799 23.55L12.2199 23.56L12.2499 23.57L12.2899 23.59L12.3199 23.6L12.3599 23.62L12.3899 23.63L12.4299 23.65L12.4599 23.67L12.4999 23.68L12.5299 23.7L12.5699 23.71L12.5999 23.73L12.6399 23.75L12.6699 23.76L12.6999 23.78Z" fill="white"/>
<path d="M10.7201 23.18C10.8501 23.2 10.9301 23.32 10.8901 23.44C10.8601 23.53 10.7801 23.59 10.6801 23.58H10.6601H10.6201L10.5901 23.57H10.5501H10.5201H10.4801L10.4501 23.56H10.4101H10.3801H10.3401H10.3001H10.2701H10.2301H10.2001H10.1601H10.1301H10.0901H10.0601H10.0201H9.98006H9.95006H9.91006C9.83006 23.57 9.75006 23.52 9.72006 23.45C9.66006 23.32 9.75006 23.17 9.89006 23.16H9.93006H9.97006H10.0101H10.0401H10.0801H10.1201H10.1601H10.2001H10.2401H10.2801H10.3101H10.3501H10.3901H10.4301H10.4701L10.5101 23.17H10.5501H10.5801H10.6201L10.6601 23.18H10.7001H10.7201Z" fill="white"/>
<path d="M20.1801 19.1601C20.3901 19.5301 20.6001 19.8701 20.7801 20.2201C20.9501 20.5501 21.1101 20.7601 21.5501 20.6101C21.9701 20.4601 22.3601 20.6201 22.4901 21.0901C22.6001 21.4901 22.4401 21.8301 22.0301 21.9801C21.5701 22.1501 21.1701 21.9401 21.0701 21.5301C20.8301 20.5101 19.8801 20.8901 19.2201 20.4001C19.3001 21.0501 19.7001 21.2901 20.0301 21.5701C20.3501 21.8501 20.3401 22.1401 19.9001 22.2201C19.4201 22.3001 19.0701 22.8001 18.5501 22.6301C18.1201 22.4901 17.5201 22.3801 17.3401 22.0601C17.0601 21.5501 17.8301 21.4301 18.0301 21.0601C18.1201 20.9101 18.2801 20.7801 18.1701 20.5401C17.8001 20.6201 17.4101 20.6501 17.0501 20.7901C16.7601 20.9001 16.2301 21.0301 16.7501 21.5201C16.8401 21.6101 16.8901 21.7301 16.7901 21.8401C16.6501 22.0001 16.5001 21.9001 16.3901 21.8001C15.9901 21.4401 15.5701 21.1001 14.9901 20.9701C15.4001 21.0101 15.4201 19.5501 16.1001 20.7301C16.1601 20.8301 16.6101 20.5001 16.6701 20.2501C16.7801 19.8501 17.1001 19.5901 17.2501 19.2101C17.0001 18.9401 16.8001 19.1801 16.6101 19.2601C15.7801 19.6401 15.0901 19.4201 14.6001 18.7001C13.7501 17.4701 13.8601 16.1401 14.2001 14.5901C14.7101 15.2401 15.0801 15.7501 15.4801 16.2401C15.7801 16.6001 16.1701 16.8401 16.6301 16.9701C17.1401 17.1201 17.5101 16.9401 17.6101 16.4301C17.7101 15.9101 17.3901 15.6701 16.8901 15.5701C16.6701 15.5301 16.1901 15.9301 16.2501 15.3001C16.3001 14.8201 16.7001 14.7601 17.0901 14.8301C17.8101 14.9601 18.2401 15.4801 18.6501 16.0501C19.0101 15.9401 19.1001 15.5701 19.3501 15.3701C19.7601 15.0401 20.1901 14.7401 20.7601 14.8401C21.0401 14.8901 21.1801 15.0901 21.1901 15.3601C21.2001 15.7401 20.9201 15.5901 20.7301 15.5801C20.3301 15.5601 20.0001 15.6501 19.8501 16.0701C19.7601 16.3301 19.8101 16.5601 19.9801 16.7501C20.2701 17.0701 20.6301 17.0201 21.0001 16.8901C21.6701 16.6501 22.0701 16.1001 22.4901 15.5701C22.7101 15.2901 22.7901 14.9001 23.3101 14.7201C23.5001 15.9701 23.6401 17.1701 23.0901 18.3301C22.5801 19.4001 21.8701 19.6601 20.7601 19.2101C20.6001 19.1601 20.4401 19.0401 20.1801 19.1601Z" fill="#FBBB3F"/>
<path d="M18.76 15.0001C18.15 15.0401 17.9 14.7201 17.86 14.1801C17.82 13.5701 18.43 13.3101 18.72 13.3101C19.04 13.3201 19.66 13.5401 19.65 14.1201C19.63 14.6601 19.38 15.0701 18.76 15.0001Z" fill="#F8B43D"/>
</g>
<defs>
<clipPath id="clip0">
<rect x="1" y="2" width="29.52" height="27.88" fill="white"/>
</clipPath>
</defs>
</svg>
