<svg width="119" height="117" viewBox="0 0 119 117" fill="none" xmlns="http://www.w3.org/2000/svg">
<g filter="url(#filter0_d)">
<path d="M104.142 49.6667C98.037 42.7084 89.5054 38.4179 80.3752 37.6339C79.5917 37.5686 79.1782 36.6865 79.5699 36.0114C83.7596 28.8461 85.8381 20.7662 85.8925 11.521C86.1972 4.432 80.5493 0.370241 74.7927 0.0326683C74.5206 0.0108894 74.2594 0 73.9983 0C72.6598 0 71.3539 0.19601 70.1242 0.566251L20.9041 0.402909L17.6721 0.522693C16.4751 0.18512 15.2127 0 13.9177 0C13.6457 0 13.3845 0.0108894 13.1125 0.0217789C7.3449 0.359352 1.69705 4.39933 2.01264 11.4557C2.14322 36.2945 17.0409 47.38 24.2123 52.7049C24.5061 52.9227 24.8108 53.1514 25.1155 53.38C25.7031 53.8265 25.6161 54.7412 24.9523 55.0679L24.7129 55.1877C23.5702 55.743 23.0805 57.1151 23.6246 58.2585L25.2026 61.6233C25.8337 62.9736 27.4334 63.5508 28.7828 62.9192C28.9787 62.8321 29.1963 62.9518 29.229 63.1696C29.2399 63.2459 29.2507 63.3221 29.2725 63.3874C29.4248 64.1932 29.2834 65.0535 28.8046 65.7178C26.5302 68.8866 25.2787 72.5019 25.1155 76.433C25.0829 77.1626 24.4517 77.7288 23.7226 77.7288C23.4288 77.7288 23.1785 77.9248 23.1132 78.208L16.6383 104.539C16.0833 106.782 17.7809 108.949 20.0988 108.949H72.9971C74.9124 109.036 75.3803 108.992 77.0888 108.96C80.4949 108.905 83.2808 108.393 85.9687 107.838L86.7739 107.675L88.341 107.337C102.88 102.568 113 88.6509 113 73.2206C113 64.5308 109.855 56.1677 104.142 49.6667Z" fill="white"/>
</g>
<path d="M53.7794 45.6159C52.5606 48.3818 51.135 50.9953 49.5245 53.391L47.718 52.1714C49.2524 49.8846 50.6236 47.3909 51.788 44.7339L53.7794 45.6159Z" fill="#323232"/>
<path d="M59.9492 11.7933C59.7533 23.6628 58.2515 33.4088 55.3678 41.5868L53.311 40.8572C56.1186 32.9079 57.5768 23.3906 57.7727 11.7498L59.9492 11.7933Z" fill="#323232"/>
<path d="M34.8874 41.8917L32.8524 42.654C29.7184 34.28 28.0861 24.1855 27.8684 11.7933L30.0448 11.7498C30.2625 23.8915 31.8404 33.7573 34.8874 41.8917Z" fill="#323232"/>
<path d="M40.111 52.1714L38.3046 53.391C37.1728 51.7032 36.1173 49.8955 35.1814 48.0116L37.1184 47.0425C38.0216 48.8283 39.0228 50.5598 40.111 52.1714Z" fill="#323232"/>
<path d="M101.682 51.8228C94.2498 43.3508 82.9323 39.3109 71.7563 41.2492C79.1345 32.8317 82.5732 23.2163 82.6276 11.4339C82.8888 6.1743 78.6448 3.52816 74.5966 3.2886C71.789 3.12526 68.8834 4.11619 66.9573 6.22875C66.9573 6.21786 66.9573 6.20697 66.9573 6.20697C66.9573 6.09807 66.9464 5.59716 66.9138 3.66973H20.9039C20.9039 3.77862 20.8604 6.04363 20.8604 6.15252C18.956 4.08353 16.0831 3.12526 13.3081 3.2886C9.25998 3.52816 5.01593 6.1743 5.2771 11.3795C5.40768 42.9153 30.5673 50.429 30.2843 54.2076C30.1973 55.4708 28.9023 56.8646 26.987 57.7576L27.912 59.7286C29.7511 58.8683 31.1114 57.6487 31.8514 56.2984C32.5043 57.3329 33.2008 58.3238 33.919 59.293C32.9178 59.979 32.4064 61.0244 32.4064 62.1351C32.4064 63.2785 32.9722 64.2912 33.8428 64.9119C29.2723 69.2133 27.542 74.6144 28.6738 81.0065H25.7682L19.7178 105.682H68.8617L68.5679 104.441C69.5146 104.669 71.4408 105.138 71.506 105.159C73.5845 105.54 75.4127 105.693 77.0777 105.693C80.473 105.693 83.2044 105.061 86.1099 104.473L86.1208 104.451C100.028 100.531 109.735 87.8124 109.735 73.2206C109.735 65.6851 107.156 58.0516 101.682 51.8228ZM106.405 64.9555L102.259 72.1316H90.7131L84.9455 62.1242L90.7131 52.1277H98.9944C102.596 55.8301 105.067 60.2077 106.405 64.9555ZM53.9096 59.3039C54.6387 58.3129 55.346 57.2893 56.0207 56.2331C56.7498 57.616 58.121 58.8574 59.9927 59.7286L60.9177 57.7576C59.0024 56.8646 57.7074 55.4708 57.6204 54.2076C57.566 53.5216 57.8816 52.9553 58.5563 52.5089C59.9274 51.5942 61.2333 50.6686 62.4847 49.7212L69.6234 62.1242L63.845 72.1316H58.6977C57.8271 69.4637 56.2601 67.0572 53.9966 64.9228C54.9542 64.2368 55.4331 63.1805 55.4331 62.1351C55.4331 60.9591 54.8237 59.9137 53.9096 59.3039ZM71.506 63.2132H83.052L88.8196 73.2206L83.052 83.228H71.5496L65.7603 73.1879L71.506 63.2132ZM96.6221 49.9498H90.7131L87.7531 44.8209C90.9743 46.0079 93.9777 47.7393 96.6221 49.9498ZM81.485 43.242C82.7473 43.4271 83.7594 43.634 84.6952 43.8735L88.8196 51.0388L83.052 61.0353H71.506L64.2259 48.3818C65.8582 47.075 67.3708 45.7465 68.7746 44.3853C75.761 42.3708 78.2639 42.8064 81.485 43.242ZM67.7626 17.63L68.3284 15.5283C68.274 15.5065 66.7723 14.973 66.9899 11.6952C67.2838 7.13257 71.0816 5.28136 74.4769 5.46649C77.5892 5.64072 80.6362 7.52459 80.4512 11.3795C80.3859 27.0385 74.0416 38.7011 59.9927 48.85C63.8994 40.1494 66.1194 29.7282 66.7723 17.1291C67.2946 17.4993 67.719 17.6191 67.7626 17.63ZM7.45353 11.325C7.26854 7.52459 10.3155 5.64072 13.4279 5.46649C16.7143 5.28136 20.338 7.01279 20.8604 11.2161C20.8713 11.8477 20.8821 12.4902 20.893 13.1109C20.6645 15.1363 19.6307 15.5065 19.6089 15.5174L20.1422 17.63C20.1857 17.6191 20.5774 17.5102 21.0563 17.1835C21.7092 29.7282 23.9292 40.1058 27.8032 48.7738C13.8305 38.6466 7.51883 26.9949 7.45353 11.325ZM23.0695 13.1435C23.0695 13.1327 22.9824 8.83132 23.0368 5.84762H64.7917C65.1944 29.6955 61.0047 46.5306 51.6569 58.705H36.1716C26.3123 45.8881 23.483 29.1837 23.0695 13.1435ZM53.2566 62.1351C53.2566 62.8321 52.7234 63.3874 52.0052 63.3874H35.8234C35.1378 63.3765 34.5828 62.8212 34.5828 62.1351C34.5828 61.2531 35.2357 61.0571 35.7581 60.8937C35.769 60.8937 35.769 60.8937 35.7798 60.8937H35.8125C35.8125 60.8937 35.8125 60.8937 35.8234 60.8937H35.9648C36.7484 60.8937 40.0892 60.8937 52.0161 60.8829C52.1249 60.9373 53.2566 60.9809 53.2566 62.1351ZM36.3784 65.5871L51.4284 65.5653L51.4502 65.5871C56.3798 69.6162 58.1754 74.6689 56.9457 81.0065H53.3002V71.0318H51.1237V81.0065H47.7611V71.0318H45.5847V81.0065H42.233V70.7813H40.0565V81.0065H36.7048V71.0318H34.5284V81.0065H30.8829C29.6423 74.6798 31.4487 69.6271 36.3784 65.5871ZM22.4927 103.504L27.4767 83.1844H61.1027L66.0867 103.504H22.4927ZM65.412 91.602L62.8112 81.0065H59.1548C59.5683 78.6326 59.6009 76.4003 59.2309 74.3095H63.8559L69.6234 84.3169L66.1302 90.3714L65.412 91.602ZM84.6844 102.579C80.3097 103.678 76.1745 104.56 68.0237 102.263L66.1738 94.7055L71.5496 85.4059H83.052L88.8196 95.4133L84.6844 102.579ZM87.7423 101.631L90.7022 96.5022H96.633C93.9669 98.7128 90.9634 100.444 87.7423 101.631ZM98.9944 94.3243H90.7131L84.9455 84.3169L90.7131 74.3095H102.259L106.405 81.4857C105.088 86.1572 102.662 90.5457 98.9944 94.3243ZM104.153 73.2206L107.113 68.0917C107.7 71.5109 107.722 74.7669 107.113 78.3495L104.153 73.2206Z" fill="#323232"/>
<path d="M61.1029 83.1843H27.477L22.4929 103.504H66.0869L61.1029 83.1843ZM55.5965 100.041H32.9833V86.6472H55.5965V100.041Z" fill="#FEBD2C"/>
<path d="M56.9459 81.0067H53.3004V71.0319H51.1239V81.0067H47.7613V71.0319H45.5849V81.0067H42.2332V70.7815H40.0567V81.0067H36.705V71.0319H34.5286V81.0067H30.8831C29.6425 74.6799 31.4489 69.6272 36.3786 65.5872L51.4286 65.5654L51.4504 65.5872C56.38 69.6163 58.1756 74.669 56.9459 81.0067Z" fill="#FEBD2C"/>
<path d="M53.2566 62.1351C53.2566 62.832 52.7234 63.3874 52.0051 63.3874H35.8233C35.1378 63.3765 34.5828 62.8211 34.5828 62.1351C34.5828 61.2531 35.2357 61.057 35.758 60.8937C35.7689 60.8937 35.7689 60.8937 35.7798 60.8937H35.8124C35.8124 60.8937 35.8124 60.8937 35.8233 60.8937H35.9648C36.7483 60.8937 40.0891 60.8937 52.016 60.8828C52.1248 60.9373 53.2566 60.9808 53.2566 62.1351Z" fill="#FEBD2C"/>
<path d="M64.7919 5.84766H23.0369C22.9825 8.83136 23.0696 13.1327 23.0696 13.1436C23.4831 29.1837 26.3125 45.8881 36.1717 58.705H51.6571C61.0049 46.5306 65.1945 29.6955 64.7919 5.84766ZM32.8527 42.654C29.7186 34.28 28.0863 24.1855 27.8686 11.7933L30.0451 11.7497C30.2627 23.8915 31.8406 33.7573 34.8876 41.8917L32.8527 42.654ZM38.3046 53.391C37.1729 51.7031 36.1173 49.8954 35.1814 48.0116L37.1185 47.0424C38.0217 48.8283 39.0229 50.5597 40.1111 52.1713L38.3046 53.391ZM39.6649 32.3852C39.0229 32.8535 38.0652 32.6901 37.5973 32.0477C37.3252 31.6665 37.2491 31.1874 37.3905 30.73L39.012 25.7318L34.7679 22.6392C34.2456 22.2689 34.0388 21.6047 34.2347 20.9949C34.4306 20.3851 34.9964 19.9713 35.6385 19.9713H40.8837L42.516 14.973C42.7119 14.3632 43.2778 13.9494 43.9198 13.9494C44.5619 13.9494 45.1278 14.3632 45.3236 14.973L46.9451 19.9713H52.1903C52.8323 19.9713 53.3982 20.3851 53.5941 20.9949C53.8009 21.6047 53.5832 22.2689 53.0609 22.6501L48.8168 25.7318L50.4383 30.73C50.5906 31.1874 50.5144 31.6665 50.2315 32.0477C49.7527 32.701 48.8386 32.8752 48.1639 32.3852L43.9198 29.2926L39.6649 32.3852ZM49.5242 53.391L47.7177 52.1713C49.2521 49.8846 50.6233 47.3909 51.7877 44.7339L53.7791 45.6159C52.5603 48.3818 51.1347 50.9953 49.5242 53.391ZM55.3679 41.5868L53.3112 40.8572C56.1188 32.9079 57.577 23.3905 57.7729 11.7497L59.9493 11.7933C59.7534 23.6628 58.2517 33.4088 55.3679 41.5868Z" fill="#FEBD2C"/>
<path d="M69.6235 62.1243L63.8451 72.1317H58.6978C57.8273 69.4637 56.2602 67.0572 53.9967 64.9228C54.9544 64.2368 55.4332 63.1805 55.4332 62.1352C55.4332 60.9591 54.8238 59.9137 53.9097 59.3039C54.6388 58.313 55.3461 57.2894 56.0208 56.2331C56.7499 57.616 58.1211 58.8574 59.9928 59.7286L60.9178 57.7576C59.0025 56.8647 57.7075 55.4708 57.6205 54.2076C57.5661 53.5216 57.8817 52.9554 58.5564 52.5089C59.9275 51.5942 61.2334 50.6686 62.4848 49.7212L69.6235 62.1243Z" fill="#EDEDED"/>
<path d="M88.8198 73.2208L83.0523 83.2282H71.5498L65.7605 73.1881L71.5063 63.2134H83.0523L88.8198 73.2208Z" fill="#606060"/>
<path d="M69.6232 84.317L66.13 90.3715L65.4118 91.602L62.811 81.0066H59.1545C59.5681 78.6327 59.6007 76.4003 59.2307 74.3096H63.8556L69.6232 84.317Z" fill="#EDEDED"/>
<path d="M88.8199 95.4134L84.6847 102.579C80.31 103.678 76.1748 104.561 68.024 102.263L66.1741 94.7056L71.5499 85.406H83.0523L88.8199 95.4134Z" fill="#EDEDED"/>
<path d="M96.6334 96.5022C93.9673 98.7128 90.9638 100.444 87.7427 101.631L90.7026 96.5022H96.6334Z" fill="#606060"/>
<path d="M106.405 81.4857C105.088 86.1573 102.662 90.5457 98.9945 94.3244H90.7131L84.9456 84.317L90.7131 74.3096H102.259L106.405 81.4857Z" fill="#EDEDED"/>
<path d="M107.113 78.3494L104.153 73.2205L107.113 68.0916C107.7 71.5108 107.722 74.7668 107.113 78.3494Z" fill="#606060"/>
<path d="M96.6224 49.9497H90.7134L87.7534 44.8208C90.9745 46.0077 93.978 47.7392 96.6224 49.9497Z" fill="#606060"/>
<path d="M106.405 64.9557L102.259 72.1318H90.7131L84.9456 62.1244L90.7131 52.1279H98.9945C102.596 55.8303 105.067 60.2079 106.405 64.9557Z" fill="#EDEDED"/>
<path d="M88.8195 51.0389L83.052 61.0354H71.506L64.2258 48.3819C65.8582 47.0752 67.3708 45.7466 68.7746 44.3855C75.7609 42.3709 78.2638 42.8065 81.485 43.2421C82.7473 43.4272 83.7593 43.6341 84.6952 43.8737L88.8195 51.0389Z" fill="#EDEDED"/>
<path d="M32.9834 86.6472V100.041H55.5966V86.6472H32.9834ZM53.4201 97.8633H35.1598V88.8251H53.4201V97.8633Z" fill="#323232"/>
<path d="M53.4197 88.8252H35.1594V97.8634H53.4197V88.8252Z" fill="#FEBD2C"/>
<path d="M53.594 20.9949C53.3982 20.3851 52.8323 19.9713 52.1902 19.9713H46.945L45.3236 14.9731C45.1277 14.3633 44.5618 13.9495 43.9198 13.9495C43.2777 13.9495 42.7119 14.3633 42.516 14.9731L40.8837 19.9713H35.6384C34.9964 19.9713 34.4305 20.3851 34.2346 20.9949C34.0388 21.6047 34.2455 22.269 34.7679 22.6392L39.0119 25.7318L37.3905 30.7301C37.249 31.1874 37.3252 31.6666 37.5972 32.0477C38.0652 32.6902 39.0228 32.8535 39.6648 32.3853L43.9198 29.2927L48.1638 32.3853C48.8385 32.8753 49.7526 32.7011 50.2314 32.0477C50.5144 31.6666 50.5906 31.1874 50.4382 30.7301L48.8168 25.7318L53.0608 22.6501C53.5832 22.269 53.8008 21.6047 53.594 20.9949ZM47.1191 24.2727C46.6077 24.6429 46.39 25.3071 46.5859 25.917L47.7068 29.358L44.7795 27.2346C44.2789 26.8643 43.5607 26.8643 43.0492 27.2346L40.1328 29.358L41.2428 25.917C41.4386 25.3071 41.221 24.6429 40.7095 24.2727L37.7931 22.1492H41.3951C42.0372 22.1492 42.603 21.7354 42.7989 21.1256L43.9198 17.6954L45.0298 21.1256C45.2365 21.7354 45.7915 22.1492 46.4336 22.1492H50.0465L47.1191 24.2727Z" fill="#323232"/>
<path d="M46.5858 25.9168L47.7066 29.3579L44.7793 27.2345C44.2788 26.8642 43.5605 26.8642 43.0491 27.2345L40.1326 29.3579L41.2426 25.9168C41.4385 25.307 41.2209 24.6428 40.7094 24.2725L37.793 22.1491H41.395C42.037 22.1491 42.6029 21.7353 42.7988 21.1255L43.9196 17.6953L45.0296 21.1255C45.2364 21.7353 45.7914 22.1491 46.4334 22.1491H50.0463L47.119 24.2725C46.6075 24.6428 46.3899 25.307 46.5858 25.9168Z" fill="#D57F1E"/>
<defs>
<filter id="filter0_d" x="0" y="0" width="119" height="117" filterUnits="userSpaceOnUse" color-interpolation-filters="sRGB">
<feFlood flood-opacity="0" result="BackgroundImageFix"/>
<feColorMatrix in="SourceAlpha" type="matrix" values="0 0 0 0 0 0 0 0 0 0 0 0 0 0 0 0 0 0 127 0"/>
<feOffset dx="2" dy="4"/>
<feGaussianBlur stdDeviation="2"/>
<feColorMatrix type="matrix" values="0 0 0 0 0 0 0 0 0 0 0 0 0 0 0 0 0 0 0.25 0"/>
<feBlend mode="normal" in2="BackgroundImageFix" result="effect1_dropShadow"/>
<feBlend mode="normal" in="SourceGraphic" in2="effect1_dropShadow" result="shape"/>
</filter>
</defs>
</svg>
