<svg width="31" height="30" viewBox="0 0 31 30" fill="none" xmlns="http://www.w3.org/2000/svg">
<path d="M28.5261 13.6697C26.8211 11.7546 24.4384 10.5737 21.8886 10.358C21.6698 10.34 21.5543 10.0972 21.6637 9.91139C22.8338 7.9393 23.4142 5.71546 23.4294 3.17092C23.5145 1.21982 21.9372 0.101901 20.3295 0.00899128C20.2535 0.00299709 20.1806 0 20.1076 0C19.7338 0 19.3691 0.0539477 19.0257 0.155849L5.27952 0.110892L4.37689 0.14386C4.04258 0.0509506 3.69004 0 3.32838 0C3.2524 0 3.17946 0.00299709 3.10348 0.00599419C1.49272 0.0989041 -0.0846069 1.21083 0.00352893 3.15294C0.0399989 9.98931 4.20062 13.0404 6.20343 14.5059C6.28549 14.5659 6.37059 14.6288 6.45568 14.6918C6.6198 14.8146 6.59548 15.0664 6.41009 15.1563L6.34323 15.1893C6.02412 15.3421 5.88736 15.7198 6.03932 16.0345L6.48 16.9606C6.65627 17.3322 7.10303 17.491 7.47988 17.3172C7.53459 17.2932 7.59537 17.3262 7.60449 17.3861C7.60753 17.4071 7.61057 17.4281 7.61664 17.4461C7.65919 17.6679 7.61968 17.9046 7.48596 18.0875C6.85077 18.9596 6.50127 19.9546 6.45568 21.0366C6.44656 21.2374 6.27029 21.3933 6.06667 21.3933C5.98461 21.3933 5.91471 21.4472 5.89648 21.5251L4.08817 28.7721C3.93317 29.3895 4.40728 29.9859 5.05463 29.9859H19.828C20.3629 30.0099 20.4936 29.9979 20.9707 29.9889C21.922 29.9739 22.7 29.8331 23.4507 29.6802L23.6756 29.6353L24.1132 29.5424C28.1736 28.2296 31 24.3993 31 20.1525C31 17.7608 30.1217 15.459 28.5261 13.6697Z" fill="white"/>
<path d="M14.4604 12.5548C14.12 13.316 13.7219 14.0353 13.2721 14.6947L12.7676 14.359C13.1961 13.7296 13.579 13.0433 13.9042 12.312L14.4604 12.5548Z" fill="#323232"/>
<path d="M16.184 3.24588C16.1293 6.51271 15.7099 9.1951 14.9045 11.4459L14.3301 11.2451C15.1142 9.05724 15.5214 6.43778 15.5761 3.23389L16.184 3.24588Z" fill="#323232"/>
<path d="M9.18487 11.5298L8.61655 11.7396C7.74127 9.43487 7.28539 6.65657 7.22461 3.24588L7.83244 3.23389C7.89323 6.57565 8.33391 9.29101 9.18487 11.5298Z" fill="#323232"/>
<path d="M10.6424 14.3591L10.1379 14.6948C9.82179 14.2303 9.52699 13.7327 9.26562 13.2143L9.8066 12.9475C10.0588 13.439 10.3385 13.9156 10.6424 14.3591Z" fill="#323232"/>
<path d="M27.8393 14.2631C25.7635 11.9314 22.6028 10.8194 19.4816 11.3529C21.5421 9.03617 22.5025 6.38974 22.5177 3.14688C22.5907 1.69929 21.4054 0.970994 20.2748 0.905058C19.4907 0.860102 18.6792 1.13284 18.1413 1.71427C18.1413 1.71128 18.1413 1.70828 18.1413 1.70828C18.1413 1.67831 18.1383 1.54044 18.1292 1.00996H5.27956C5.27956 1.03993 5.2674 1.66332 5.2674 1.69329C4.73555 1.12385 3.93321 0.860102 3.15822 0.905058C2.02765 0.970994 0.842373 1.69929 0.915313 3.1319C0.951783 11.8115 7.97834 13.8795 7.89932 14.9195C7.87501 15.2671 7.51335 15.6508 6.97845 15.8965L7.23678 16.439C7.7504 16.2022 8.1303 15.8665 8.33696 15.4949C8.51931 15.7796 8.71382 16.0524 8.9144 16.3191C8.6348 16.5079 8.49196 16.7956 8.49196 17.1014C8.49196 17.416 8.64999 17.6948 8.89313 17.8656C7.61668 19.0495 7.13345 20.536 7.44952 22.2953H6.63807L4.94829 29.0867H18.6732L18.5911 28.7451C18.8555 28.808 19.3935 28.9369 19.4117 28.9429C19.9922 29.0478 20.5027 29.0897 20.9677 29.0897C21.916 29.0897 22.6788 28.9159 23.4902 28.754L23.4933 28.7481C27.3773 27.6691 30.0883 24.1685 30.0883 20.1524C30.0883 18.0784 29.368 15.9774 27.8393 14.2631ZM29.1583 17.8776L28.0004 19.8527H24.7758L23.1651 17.0984L24.7758 14.347H27.0886C28.0946 15.366 28.7845 16.5709 29.1583 17.8776ZM14.4974 16.3221C14.701 16.0494 14.8985 15.7676 15.087 15.4769C15.2906 15.8576 15.6735 16.1992 16.1962 16.439L16.4546 15.8965C15.9197 15.6508 15.558 15.2671 15.5337 14.9195C15.5185 14.7306 15.6066 14.5748 15.7951 14.4519C16.178 14.2002 16.5427 13.9454 16.8922 13.6847L18.8859 17.0984L17.2721 19.8527H15.8346C15.5915 19.1184 15.1538 18.456 14.5217 17.8686C14.7891 17.6798 14.9228 17.3891 14.9228 17.1014C14.9228 16.7777 14.7526 16.4899 14.4974 16.3221ZM19.4117 17.3981H22.6362L24.247 20.1524L22.6362 22.9067H19.4238L17.807 20.1434L19.4117 17.3981ZM26.4261 13.7476H24.7758L23.9492 12.336C24.8488 12.6627 25.6876 13.1392 26.4261 13.7476ZM22.1986 11.9014C22.5511 11.9523 22.8338 12.0093 23.0952 12.0752L24.247 14.0473L22.6362 16.7986H19.4117L17.3785 13.316C17.8344 12.9564 18.2568 12.5907 18.6489 12.2161C20.6 11.6616 21.299 11.7815 22.1986 11.9014ZM18.3662 4.85223L18.5243 4.27379C18.5091 4.2678 18.0896 4.12094 18.1504 3.21881C18.2325 1.96303 19.2932 1.45353 20.2414 1.50448C21.1106 1.55243 21.9615 2.07093 21.9099 3.1319C21.8916 7.44172 20.1198 10.6516 16.1962 13.4449C17.2873 11.0502 17.9073 8.182 18.0896 4.71436C18.2355 4.81626 18.3541 4.84923 18.3662 4.85223ZM1.52315 3.11691C1.47148 2.07093 2.32245 1.55243 3.19165 1.50448C4.10948 1.45353 5.12152 1.93006 5.2674 3.08694C5.27044 3.26077 5.27348 3.4376 5.27652 3.60844C5.2127 4.1659 4.92398 4.2678 4.9179 4.27079L5.06682 4.85223C5.07897 4.84923 5.18838 4.81926 5.32211 4.72935C5.50446 8.182 6.12445 11.0382 7.20639 13.4239C3.3041 10.6366 1.54138 7.42973 1.52315 3.11691ZM5.88435 3.61743C5.88435 3.61443 5.86004 2.43058 5.87523 1.60937H17.5365C17.649 8.17301 16.4789 12.8065 13.8682 16.1573H9.54351C6.79002 12.6297 5.99984 8.03215 5.88435 3.61743ZM14.315 17.1014C14.315 17.2932 14.1661 17.446 13.9655 17.446H9.44626C9.25479 17.443 9.09979 17.2902 9.09979 17.1014C9.09979 16.8586 9.28214 16.8046 9.42802 16.7597C9.43106 16.7597 9.43106 16.7597 9.4341 16.7597H9.44322C9.44322 16.7597 9.44322 16.7597 9.44626 16.7597H9.48577C9.70459 16.7597 10.6376 16.7597 13.9685 16.7567C13.9989 16.7717 14.315 16.7837 14.315 17.1014ZM9.60125 18.0514L13.8044 18.0454L13.8105 18.0514C15.1872 19.1604 15.6887 20.551 15.3453 22.2953H14.3272V19.55H13.7193V22.2953H12.7802V19.55H12.1724V22.2953H11.2363V19.481H10.6285V22.2953H9.69243V19.55H9.0846V22.2953H8.06647C7.72001 20.554 8.22451 19.1633 9.60125 18.0514ZM5.72328 28.4873L7.11521 22.8947H16.5062L17.8982 28.4873H5.72328ZM17.7098 25.2115L16.9834 22.2953H15.9622C16.0777 21.6419 16.0868 21.0275 15.9835 20.4521H17.2752L18.8859 23.2064L17.9103 24.8728L17.7098 25.2115ZM23.0921 28.2326C21.8704 28.5353 20.7155 28.778 18.4392 28.1456L17.9225 26.0657L19.4238 23.5061H22.6362L24.247 26.2605L23.0921 28.2326ZM23.9461 27.9718L24.7728 26.5602H26.4291C25.6845 27.1686 24.8457 27.6451 23.9461 27.9718ZM27.0886 25.9608H24.7758L23.1651 23.2064L24.7758 20.4521H28.0004L29.1583 22.4272C28.7906 23.7129 28.1128 24.9208 27.0886 25.9608ZM28.5292 20.1524L29.3558 18.7408C29.52 19.6818 29.526 20.578 29.3558 21.564L28.5292 20.1524Z" fill="#323232"/>
<path d="M16.5056 22.8948H7.11459L5.72266 28.4874H17.8976L16.5056 22.8948ZM14.9678 27.5343H8.65241V23.8479H14.9678V27.5343Z" fill="#FEBD2C"/>
<path d="M15.3454 22.2955H14.3272V19.5502H13.7194V22.2955H12.7803V19.5502H12.1725V22.2955H11.2364V19.4813H10.6286V22.2955H9.69251V19.5502H9.08468V22.2955H8.06655C7.72009 20.5542 8.22459 19.1636 9.60133 18.0516L13.8045 18.0457L13.8106 18.0516C15.1873 19.1606 15.6888 20.5512 15.3454 22.2955Z" fill="#FEBD2C"/>
<path d="M14.3148 17.1015C14.3148 17.2933 14.1659 17.4462 13.9653 17.4462H9.44607C9.25461 17.4432 9.09961 17.2903 9.09961 17.1015C9.09961 16.8587 9.28196 16.8048 9.42784 16.7598C9.43088 16.7598 9.43088 16.7598 9.43392 16.7598H9.44304C9.44304 16.7598 9.44304 16.7598 9.44607 16.7598H9.48558C9.7044 16.7598 10.6374 16.7598 13.9684 16.7568C13.9987 16.7718 14.3148 16.7838 14.3148 17.1015Z" fill="#FEBD2C"/>
<path d="M17.5374 1.60938H5.87609C5.86089 2.43058 5.88521 3.61443 5.88521 3.61743C6.0007 8.03215 6.79088 12.6297 9.54437 16.1573H13.8691C16.4797 12.8065 17.6498 8.17301 17.5374 1.60938ZM8.61742 11.7396C7.74214 9.43479 7.28626 6.65648 7.22548 3.24579L7.83331 3.2338C7.8941 6.57556 8.33478 9.29093 9.18574 11.5298L8.61742 11.7396ZM10.14 14.6947C9.82397 14.2301 9.52917 13.7326 9.2678 13.2141L9.80877 12.9474C10.061 13.4389 10.3406 13.9154 10.6445 14.359L10.14 14.6947ZM10.5199 8.91329C10.3406 9.04217 10.0732 8.99721 9.9425 8.82038C9.86652 8.71549 9.84524 8.58361 9.88475 8.45773L10.3376 7.08207L9.15231 6.23089C9.00643 6.12899 8.94869 5.94617 9.00339 5.77833C9.0581 5.6105 9.21614 5.49661 9.39545 5.49661H10.8603L11.3162 4.12094C11.3709 3.9531 11.5289 3.83921 11.7083 3.83921C11.8876 3.83921 12.0456 3.9531 12.1003 4.12094L12.5531 5.49661H14.018C14.1973 5.49661 14.3554 5.6105 14.4101 5.77833C14.4678 5.94617 14.407 6.12899 14.2612 6.23389L13.0759 7.08207L13.5287 8.45773C13.5713 8.58361 13.55 8.71549 13.471 8.82038C13.3372 9.00021 13.082 9.04816 12.8935 8.91329L11.7083 8.06212L10.5199 8.91329ZM13.2734 14.6947L12.7689 14.359C13.1974 13.7296 13.5804 13.0433 13.9056 12.312L14.4617 12.5548C14.1214 13.316 13.7232 14.0353 13.2734 14.6947ZM14.9055 11.4458L14.3311 11.245C15.1152 9.05715 15.5224 6.43769 15.5771 3.2338L16.1849 3.24579C16.1302 6.51262 15.7108 9.19502 14.9055 11.4458Z" fill="#FEBD2C"/>
<path d="M18.8847 17.0985L17.2709 19.8528H15.8333C15.5902 19.1185 15.1526 18.4562 14.5204 17.8688C14.7879 17.6799 14.9216 17.3892 14.9216 17.1015C14.9216 16.7778 14.7514 16.4901 14.4961 16.3223C14.6997 16.0495 14.8973 15.7678 15.0857 15.4771C15.2893 15.8577 15.6723 16.1994 16.195 16.4391L16.4533 15.8967C15.9184 15.6509 15.5568 15.2673 15.5324 14.9196C15.5173 14.7308 15.6054 14.575 15.7938 14.4521C16.1768 14.2003 16.5415 13.9456 16.891 13.6848L18.8847 17.0985Z" fill="#EDEDED"/>
<path d="M24.2466 20.1525L22.6359 22.9069H19.4235L17.8066 20.1435L19.4113 17.3982H22.6359L24.2466 20.1525Z" fill="#606060"/>
<path d="M18.8846 23.2067L17.909 24.8731L17.7085 25.2118L16.9821 22.2956H15.9609C16.0764 21.6422 16.0855 21.0278 15.9822 20.4524H17.2739L18.8846 23.2067Z" fill="#EDEDED"/>
<path d="M24.2464 26.2607L23.0915 28.2328C21.8698 28.5355 20.7149 28.7782 18.4385 28.1458L17.9219 26.0659L19.4232 23.5063H22.6356L24.2464 26.2607Z" fill="#EDEDED"/>
<path d="M26.4283 26.5603C25.6837 27.1687 24.8449 27.6452 23.9453 27.9719L24.772 26.5603H26.4283Z" fill="#606060"/>
<path d="M29.1573 22.4275C28.7896 23.7132 28.1118 24.9211 27.0876 25.9611H24.7748L23.1641 23.2067L24.7748 20.4524H27.9994L29.1573 22.4275Z" fill="#EDEDED"/>
<path d="M29.356 21.564L28.5293 20.1524L29.356 18.7407C29.5201 19.6818 29.5261 20.5779 29.356 21.564Z" fill="#606060"/>
<path d="M26.4261 13.7476H24.7759L23.9492 12.3359C24.8488 12.6626 25.6876 13.1392 26.4261 13.7476Z" fill="#606060"/>
<path d="M29.1573 17.8777L27.9994 19.8528H24.7748L23.1641 17.0985L24.7748 14.3472H27.0876C28.0936 15.3662 28.7835 16.571 29.1573 17.8777Z" fill="#EDEDED"/>
<path d="M24.2474 14.0476L22.6367 16.7989H19.4121L17.3789 13.3163C17.8348 12.9566 18.2572 12.591 18.6493 12.2163C20.6004 11.6619 21.2994 11.7817 22.199 11.9016C22.5516 11.9526 22.8342 12.0095 23.0956 12.0755L24.2474 14.0476Z" fill="#EDEDED"/>
<path d="M8.65234 23.8479V27.5343H14.9677V23.8479H8.65234ZM14.3599 26.9349H9.26018V24.4473H14.3599V26.9349Z" fill="#323232"/>
<path d="M14.3614 24.4473H9.26172V26.9349H14.3614V24.4473Z" fill="#FEBD2C"/>
<path d="M14.4075 5.77847C14.3528 5.61064 14.1947 5.49675 14.0154 5.49675H12.5505L12.0977 4.12108C12.043 3.95324 11.885 3.83936 11.7057 3.83936C11.5263 3.83936 11.3683 3.95324 11.3136 4.12108L10.8577 5.49675H9.39285C9.21353 5.49675 9.0555 5.61064 9.00079 5.77847C8.94609 5.94631 9.00383 6.12913 9.14971 6.23104L10.335 7.08221L9.88215 8.45788C9.84264 8.58375 9.86392 8.71563 9.9399 8.82052C10.0706 8.99735 10.338 9.04231 10.5173 8.91343L11.7057 8.06226L12.8909 8.91343C13.0794 9.0483 13.3346 9.00035 13.4684 8.82052C13.5474 8.71563 13.5687 8.58375 13.5261 8.45788L13.0733 7.08221L14.2586 6.23403C14.4044 6.12913 14.4652 5.94631 14.4075 5.77847ZM12.5992 6.6806C12.4563 6.7825 12.3955 6.96532 12.4502 7.13316L12.7633 8.08024L11.9457 7.49581C11.8059 7.39391 11.6054 7.39391 11.4625 7.49581L10.648 8.08024L10.958 7.13316C11.0127 6.96532 10.9519 6.7825 10.8091 6.6806L9.9946 6.09617H11.0006C11.1799 6.09617 11.3379 5.98228 11.3926 5.81444L11.7057 4.87036L12.0156 5.81444C12.0734 5.98228 12.2284 6.09617 12.4077 6.09617H13.4167L12.5992 6.6806Z" fill="#323232"/>
<path d="M12.4517 7.13317L12.7648 8.08025L11.9472 7.49582C11.8074 7.39391 11.6069 7.39391 11.464 7.49582L10.6495 8.08025L10.9595 7.13317C11.0142 6.96533 10.9534 6.78251 10.8106 6.68061L9.99609 6.09617H11.0021C11.1814 6.09617 11.3394 5.98228 11.3941 5.81445L11.7071 4.87036L12.0171 5.81445C12.0749 5.98228 12.2299 6.09617 12.4092 6.09617H13.4182L12.6007 6.68061C12.4578 6.78251 12.397 6.96533 12.4517 7.13317Z" fill="#D57F1E"/>
</svg>
