<svg width="11" height="12" viewBox="0 0 11 12" fill="none" xmlns="http://www.w3.org/2000/svg">
<path fill-rule="evenodd" clip-rule="evenodd" d="M7 0.571429C7 0.255837 7.25584 0 7.57143 0H10.4286C10.7442 0 11 0.255837 11 0.571429V3.42857C11 3.74416 10.7442 4 10.4286 4C10.113 4 9.85714 3.74416 9.85714 3.42857V1.14286H7.57143C7.25584 1.14286 7 0.88702 7 0.571429Z" fill="white"/>
<path fill-rule="evenodd" clip-rule="evenodd" d="M10.8304 0.16957C11.0565 0.395663 11.0565 0.762232 10.8304 0.988325L0.988325 10.8304C0.762232 11.0565 0.395663 11.0565 0.16957 10.8304C-0.0565233 10.6043 -0.0565233 10.2378 0.16957 10.0117L10.0117 0.16957C10.2378 -0.0565233 10.6043 -0.0565233 10.8304 0.16957Z" fill="white"/>
<path fill-rule="evenodd" clip-rule="evenodd" d="M10.4286 8C10.7442 8 11 8.25584 11 8.57143V11.4286C11 11.7442 10.7442 12 10.4286 12H7.57143C7.25584 12 7 11.7442 7 11.4286C7 11.113 7.25584 10.8571 7.57143 10.8571H9.85714V8.57143C9.85714 8.25584 10.113 8 10.4286 8Z" fill="white"/>
<path fill-rule="evenodd" clip-rule="evenodd" d="M7.14645 7.18306C7.34171 6.93898 7.65829 6.93898 7.85355 7.18306L10.8536 10.9331C11.0488 11.1771 11.0488 11.5729 10.8536 11.8169C10.6583 12.061 10.3417 12.061 10.1464 11.8169L7.14645 8.06694C6.95118 7.82286 6.95118 7.42714 7.14645 7.18306Z" fill="white"/>
<path fill-rule="evenodd" clip-rule="evenodd" d="M0.167368 1.16737C0.390524 0.944211 0.752333 0.944211 0.97549 1.16737L3.83263 4.02451C4.05579 4.24767 4.05579 4.60948 3.83263 4.83263C3.60948 5.05579 3.24767 5.05579 3.02451 4.83263L0.167368 1.97549C-0.0557892 1.75233 -0.0557892 1.39052 0.167368 1.16737Z" fill="white"/>
</svg>
