<svg width="335" height="72" viewBox="0 0 335 72" fill="none" xmlns="http://www.w3.org/2000/svg">
<path d="M4.73172 -2.38419e-06H14.2917L16.0917 1.8L14.2917 3.6H4.73172L2.93172 1.8L4.73172 -2.38419e-06ZM4.73172 26.4H14.2917L16.0917 28.2L14.2917 30H4.69172L2.93172 28.2L4.73172 26.4ZM14.6117 16.8L16.4117 15L14.6117 13.28V3.92L16.4117 2.12L18.2117 3.92V13.2L16.4117 15L18.2117 16.8V26.08L16.4117 27.88L14.6117 26.08V16.8ZM0.811719 16.8L2.61172 15L0.811719 13.2V3.92L2.61172 2.12L4.41172 3.92V13.2L2.61172 15L4.41172 16.8V26.08L2.61172 27.88L0.811719 26.08V16.8ZM25.7473 -2.38419e-06H35.3073L37.1073 1.8L35.3073 3.6H25.7473L23.9473 1.8L25.7473 -2.38419e-06ZM21.8273 3.92L23.6273 2.12L25.4273 3.92V13.2L23.6273 15L25.4273 16.8V26.08L23.6273 27.88L21.8273 26.08V16.8L23.6273 15L21.8273 13.2V3.92ZM25.7473 26.4H35.3073L37.1073 28.2L35.3073 30H25.7473L23.9473 28.2L25.7473 26.4ZM37.4273 20.68L39.2273 22.48V26.08L37.4273 27.88L35.6273 26.08V22.48L37.4273 20.68ZM39.2273 3.92V7.52L37.4273 9.32L35.6273 7.52V3.92L37.4273 2.12L39.2273 3.92ZM50.363 3.92L52.163 2.12L53.963 3.88V13.2L52.163 15L53.963 16.8V28.2L52.163 30L50.363 28.2V16.8L52.163 15L50.363 13.2V3.92ZM52.483 1.8L54.283 -2.38419e-06H61.483L63.283 1.8L61.483 3.6H54.283L52.483 1.8ZM50.043 3.6H42.843L41.043 1.8L42.843 -2.38419e-06H50.043L51.843 1.8L50.043 3.6ZM68.9895 -2.38419e-06H82.1495L78.5495 3.6H68.9895L67.1895 1.8L68.9895 -2.38419e-06ZM68.9895 13.2H78.5495L80.3495 15L78.5495 16.8H68.9895L67.1895 15L68.9895 13.2ZM65.0695 17.12L66.8695 15.32L68.6695 17.12V28.2L66.8695 30L65.0695 28.2V17.12ZM78.8695 3.92L82.4695 0.319998V12.88L80.6695 14.68L78.8695 12.88V3.92ZM65.0695 3.92L66.8695 2.12L68.6695 3.92V12.88L66.8695 14.68L65.0695 12.88V3.92ZM78.8695 17.12L80.6695 15.32L82.4695 17.12V28.2L80.6695 30L78.8695 28.2V17.12ZM86.4052 -2.38419e-06H99.5652L101.365 1.8L99.5652 3.6H90.0052L86.4052 -2.38419e-06ZM90.0052 13.2H99.5652L101.365 15L99.5652 16.8H90.0052L88.2052 15L90.0052 13.2ZM86.0852 17.12L87.8852 15.32L89.6852 17.12V26.08L86.0852 29.68V17.12ZM90.0052 26.4H99.5652L101.365 28.2L99.5652 30H86.4052L90.0052 26.4ZM99.8852 3.92L101.685 2.12L103.485 3.92V12.88L101.685 14.68L99.8852 12.88V3.92ZM86.0852 0.319998L89.6852 3.92V12.88L87.8852 14.68L86.0852 12.88V0.319998ZM99.8852 17.12L101.685 15.32L103.485 17.12V26.08L101.685 27.88L99.8852 26.08V17.12ZM107.421 30L111.021 26.4H120.901L122.701 28.2L120.901 30H107.421ZM111.021 16.8L109.221 15L111.021 13.2H120.901L122.701 15L120.901 16.8H111.021ZM107.101 12.88V1.8L108.901 -2.38419e-06L110.701 1.8V12.88L108.901 14.68L107.101 12.88ZM107.101 29.68V17.12L108.901 15.32L110.701 17.12V26.08L107.101 29.68ZM124.821 17.12V26.08L123.021 27.88L121.221 26.08V17.12L123.021 15.32L124.821 17.12ZM138.983 -2.38419e-06H156.063L152.463 3.6H142.583L138.983 -2.38419e-06ZM138.663 0.319998L142.263 3.92V13.2L140.463 15L142.263 16.8V28.2L140.463 30L138.663 28.2V16.8L140.463 15L138.663 13.2V0.319998ZM152.783 3.92L156.383 0.319998V13.2L154.583 15L156.383 16.8V28.2L154.583 30L152.783 28.2V16.8L154.583 15L152.783 13.2V3.92ZM163.911 -2.38419e-06H173.471L175.271 1.8L173.471 3.6H163.911L162.111 1.8L163.911 -2.38419e-06ZM163.911 26.4H173.471L175.271 28.2L173.471 30H163.871L162.111 28.2L163.911 26.4ZM173.791 16.8L175.591 15L173.791 13.28V3.92L175.591 2.12L177.391 3.92V13.2L175.591 15L177.391 16.8V26.08L175.591 27.88L173.791 26.08V16.8ZM159.991 16.8L161.791 15L159.991 13.2V3.92L161.791 2.12L163.591 3.92V13.2L161.791 15L163.591 16.8V26.08L161.791 27.88L159.991 26.08V16.8ZM196.927 13.2H204.687L206.487 15L204.687 16.8H196.927L195.127 15L196.927 13.2ZM193.007 17.12L194.807 15.32L196.607 17.12V28.2L194.807 30L193.007 28.2V17.12ZM193.007 12.88V1.8L194.807 -2.38419e-06L196.607 1.8V12.88L194.807 14.68L193.007 12.88ZM206.207 -2.38419e-06H208.607V2.4L199.487 12.72H197.087V10.32L206.207 -2.38419e-06ZM192.687 13.2L194.487 15L192.687 16.8H184.927L183.127 15L184.927 13.2H192.687ZM208.607 17.12V28.2L206.807 30L205.007 28.2V17.12L206.807 15.32L208.607 17.12ZM183.407 -2.38419e-06L192.527 10.32V12.72H190.127L181.007 2.4V-2.38419e-06H183.407ZM184.607 17.12V28.2L182.807 30L181.007 28.2V17.12L182.807 15.32L184.607 17.12ZM212.538 -2.38419e-06H226.018L227.818 1.8L226.018 3.6H216.138L212.538 -2.38419e-06ZM216.138 13.2H226.018L227.818 15L226.018 16.8H216.138L214.338 15L216.138 13.2ZM212.218 17.12L214.018 15.32L215.818 17.12V26.08L212.218 29.68V17.12ZM212.218 0.319998L215.818 3.92V12.88L214.018 14.68L212.218 12.88V0.319998ZM212.538 30L216.138 26.4H226.018L227.818 28.2L226.018 30H212.538ZM238.749 -2.38419e-06H251.949L248.349 3.6H238.789L236.989 1.8L238.749 -2.38419e-06ZM252.269 16.8V28.2L250.469 30L248.669 28.2V16.72L250.469 15L248.669 13.2V3.92L252.269 0.319998V13.2L250.469 15L252.269 16.8ZM234.869 26.08V16.8L236.669 15L234.869 13.2V3.92L236.669 2.12L238.469 3.92V13.2L236.669 15L238.469 16.8V26.08L236.669 27.88L234.869 26.08ZM230.109 28.2L231.909 26.4H234.549L236.349 28.2L234.549 30H231.909L230.109 28.2ZM259.771 -2.38419e-06H272.931L269.331 3.6H259.771L257.971 1.8L259.771 -2.38419e-06ZM259.771 13.2H269.331L271.131 15L269.331 16.8H259.771L257.971 15L259.771 13.2ZM255.851 17.12L257.651 15.32L259.451 17.12V28.2L257.651 30L255.851 28.2V17.12ZM269.651 3.92L273.251 0.319998V12.88L271.451 14.68L269.651 12.88V3.92ZM255.851 3.92L257.651 2.12L259.451 3.92V12.88L257.651 14.68L255.851 12.88V3.92ZM269.651 17.12L271.451 15.32L273.251 17.12V28.2L271.451 30L269.651 28.2V17.12ZM280.786 13.2H290.346L292.146 15L290.346 16.8H280.786L278.986 15L280.786 13.2ZM276.866 17.12L278.666 15.32L280.466 17.12V28.2L278.666 30L276.866 28.2V17.12ZM276.866 12.88V1.8L278.666 -2.38419e-06L280.466 1.8V12.88L278.666 14.68L276.866 12.88ZM290.666 17.12L292.466 15.32L294.266 17.12V28.2L292.466 30L290.666 28.2V17.12ZM290.666 12.88V1.8L292.466 -2.38419e-06L294.266 1.8V12.88L292.466 14.68L290.666 12.88ZM311.682 28.2V16.8L313.482 15L311.682 13.2V1.8L313.482 -2.38419e-06L315.282 1.8V13.2L313.482 15L315.282 16.8V28.2L313.482 30L311.682 28.2ZM301.482 16.8V28.2L299.682 30L297.882 28.2V16.8L299.682 15L297.882 13.2V1.8L299.682 -2.38419e-06L301.482 1.8V13.2L299.682 15L301.482 16.8ZM311.202 16.8V19.2L304.362 28.2H301.962V25.8L308.802 16.8H311.202ZM319.218 -2.38419e-06H332.698L334.498 1.8L332.698 3.6H322.818L319.218 -2.38419e-06ZM322.818 13.2H332.698L334.498 15L332.698 16.8H322.818L321.018 15L322.818 13.2ZM318.898 17.12L320.698 15.32L322.498 17.12V26.08L318.898 29.68V17.12ZM318.898 0.319998L322.498 3.92V12.88L320.698 14.68L318.898 12.88V0.319998ZM319.218 30L322.818 26.4H332.698L334.498 28.2L332.698 30H319.218Z" fill="#0094FF"/>
<path d="M60.0191 45.6L58.2191 43.8L59.9791 42H73.1791L69.5791 45.6H60.0191ZM69.8991 55.2V45.92L73.4991 42.32V55.2L71.6991 57L73.4991 58.8V68.08L71.6991 69.88L69.8991 68.08V58.72L71.6991 57L69.8991 55.2ZM56.0991 55.2V45.92L57.8991 44.12L59.6991 45.92V55.2L57.8991 57L59.6991 58.8V68.08L57.8991 69.88L56.0991 68.08V58.8L57.8991 57L56.0991 55.2ZM60.0191 68.4H69.5791L71.3791 70.2L69.5791 72H59.9791L58.2191 70.2L60.0191 68.4ZM51.3391 70.2L53.1391 68.4H55.7791L57.5791 70.2L55.7791 72H53.1391L51.3391 70.2ZM72.0191 70.2L73.8191 68.4H76.4591L78.2591 70.2L76.4591 72H73.8191L72.0191 70.2ZM90.4869 42H103.687L100.087 45.6H90.5269L88.7269 43.8L90.4869 42ZM104.007 58.8V70.2L102.207 72L100.407 70.2V58.72L102.207 57L100.407 55.2V45.92L104.007 42.32V55.2L102.207 57L104.007 58.8ZM86.6069 68.08V58.8L88.4069 57L86.6069 55.2V45.92L88.4069 44.12L90.2069 45.92V55.2L88.4069 57L90.2069 58.8V68.08L88.4069 69.88L86.6069 68.08ZM81.8469 70.2L83.6469 68.4H86.2869L88.0869 70.2L86.2869 72H83.6469L81.8469 70.2ZM121.069 58.8H111.509L109.709 57L111.509 55.2H121.069L122.869 57L121.069 58.8ZM124.989 54.88L123.189 56.68L121.389 54.88V45.92L124.989 42.32V54.88ZM124.989 59.12V70.2L123.189 72L121.389 70.2V59.12L123.189 57.32L124.989 59.12ZM111.189 54.88L109.389 56.68L107.589 54.88V45.92L109.389 44.12L111.189 45.92V54.88ZM118.509 59.28H120.909V61.68L110.589 72H108.189V69.6L118.509 59.28ZM124.669 42L121.069 45.6H111.509L109.709 43.8L111.509 42H124.669ZM142.759 42H152.319L154.119 43.8L152.319 45.6H142.759L140.959 43.8L142.759 42ZM138.839 45.92L140.639 44.12L142.439 45.92V55.2L140.639 57L142.439 58.8V68.08L140.639 69.88L138.839 68.08V58.8L140.639 57L138.839 55.2V45.92ZM142.759 68.4H152.319L154.119 70.2L152.319 72H142.759L140.959 70.2L142.759 68.4ZM154.439 62.68L156.239 64.48V68.08L154.439 69.88L152.639 68.08V64.48L154.439 62.68ZM156.239 45.92V49.52L154.439 51.32L152.639 49.52V45.92L154.439 44.12L156.239 45.92ZM160.175 42H175.455L177.255 43.8L175.455 45.6H163.775L160.175 42ZM163.775 55.2H173.335L175.135 57L173.335 58.8H163.775L161.975 57L163.775 55.2ZM159.855 59.12L161.655 57.32L163.455 59.12V68.08L159.855 71.68V59.12ZM163.775 68.4H173.335L175.135 70.2L173.335 72H160.175L163.775 68.4ZM159.855 42.32L163.455 45.92V54.88L161.655 56.68L159.855 54.88V42.32ZM173.655 59.12L175.455 57.32L177.255 59.12V68.08L175.455 69.88L173.655 68.08V59.12ZM184.79 42H194.35L196.15 43.8L194.35 45.6H184.79L182.99 43.8L184.79 42ZM184.79 68.4H194.35L196.15 70.2L194.35 72H184.75L182.99 70.2L184.79 68.4ZM194.67 58.8L196.47 57L194.67 55.28V45.92L196.47 44.12L198.27 45.92V55.2L196.47 57L198.27 58.8V68.08L196.47 69.88L194.67 68.08V58.8ZM180.87 58.8L182.67 57L180.87 55.2V45.92L182.67 44.12L184.47 45.92V55.2L182.67 57L184.47 58.8V68.08L182.67 69.88L180.87 68.08V58.8ZM202.206 42H215.686L217.486 43.8L215.686 45.6H205.806L202.206 42ZM205.806 55.2H215.686L217.486 57L215.686 58.8H205.806L204.006 57L205.806 55.2ZM201.886 59.12L203.686 57.32L205.486 59.12V70.2L203.686 72L201.886 70.2V59.12ZM201.886 42.32L205.486 45.92V54.88L203.686 56.68L201.886 54.88V42.32ZM219.606 54.88L217.806 56.68L216.006 54.88V45.92L217.806 44.12L219.606 45.92V54.88ZM227.134 55.2H236.694L238.494 57L236.694 58.8H227.134L225.334 57L227.134 55.2ZM223.214 59.12L225.014 57.32L226.814 59.12V70.2L225.014 72L223.214 70.2V59.12ZM223.214 54.88V43.8L225.014 42L226.814 43.8V54.88L225.014 56.68L223.214 54.88ZM237.014 59.12L238.814 57.32L240.614 59.12V70.2L238.814 72L237.014 70.2V59.12ZM237.014 54.88V43.8L238.814 42L240.614 43.8V54.88L238.814 56.68L237.014 54.88ZM248.15 42H257.71L259.51 43.8L257.71 45.6H248.15L246.35 43.8L248.15 42ZM248.15 68.4H257.71L259.51 70.2L257.71 72H248.11L246.35 70.2L248.15 68.4ZM258.03 58.8L259.83 57L258.03 55.28V45.92L259.83 44.12L261.63 45.92V55.2L259.83 57L261.63 58.8V68.08L259.83 69.88L258.03 68.08V58.8ZM244.23 58.8L246.03 57L244.23 55.2V45.92L246.03 44.12L247.83 45.92V55.2L246.03 57L247.83 58.8V68.08L246.03 69.88L244.23 68.08V58.8ZM279.045 70.2V58.8L280.845 57L279.045 55.2V43.8L280.845 42L282.645 43.8V55.2L280.845 57L282.645 58.8V70.2L280.845 72L279.045 70.2ZM268.845 58.8V70.2L267.045 72L265.245 70.2V58.8L267.045 57L265.245 55.2V43.8L267.045 42L268.845 43.8V55.2L267.045 57L268.845 58.8ZM278.565 58.8V61.2L271.725 70.2H269.325V67.8L276.165 58.8H278.565ZM273.725 39.48V42H271.165L269.325 40.16V37.68H271.925L273.725 39.48ZM278.565 37.68V40.2L276.765 42H274.205V39.48L276.005 37.68H278.565Z" fill="#D01319"/>
</svg>
