<svg width="1184" height="71" viewBox="0 0 1184 71" fill="none" xmlns="http://www.w3.org/2000/svg">
<path d="M8.06487 9.5H27.6629L31.3529 13.19L27.6629 16.88H8.06487L4.37487 13.19L8.06487 9.5ZM8.06487 63.62H27.6629L31.3529 67.31L27.6629 71H7.98287L4.37487 67.31L8.06487 63.62ZM28.3189 43.94L32.0089 40.25L28.3189 36.724V17.536L32.0089 13.846L35.6989 17.536V36.56L32.0089 40.25L35.6989 43.94V62.964L32.0089 66.654L28.3189 62.964V43.94ZM0.0288673 43.94L3.71887 40.25L0.0288673 36.56V17.536L3.71887 13.846L7.40887 17.536V36.56L3.71887 40.25L7.40887 43.94V62.964L3.71887 66.654L0.0288673 62.964V43.94ZM51.1469 9.5H70.7449L74.4349 13.19L70.7449 16.88H51.1469L47.4569 13.19L51.1469 9.5ZM43.1109 17.536L46.8009 13.846L50.4909 17.536V36.56L46.8009 40.25L50.4909 43.94V62.964L46.8009 66.654L43.1109 62.964V43.94L46.8009 40.25L43.1109 36.56V17.536ZM51.1469 63.62H70.7449L74.4349 67.31L70.7449 71H51.1469L47.4569 67.31L51.1469 63.62ZM75.0909 51.894L78.7809 55.584V62.964L75.0909 66.654L71.4009 62.964V55.584L75.0909 51.894ZM78.7809 17.536V24.916L75.0909 28.606L71.4009 24.916V17.536L75.0909 13.846L78.7809 17.536ZM101.609 17.536L105.299 13.846L108.989 17.454V36.56L105.299 40.25L108.989 43.94V67.31L105.299 71L101.609 67.31V43.94L105.299 40.25L101.609 36.56V17.536ZM105.955 13.19L109.645 9.5H124.405L128.095 13.19L124.405 16.88H109.645L105.955 13.19ZM100.953 16.88H86.1929L82.5029 13.19L86.1929 9.5H100.953L104.643 13.19L100.953 16.88ZM139.793 9.5H166.771L159.391 16.88H139.793L136.103 13.19L139.793 9.5ZM139.793 36.56H159.391L163.081 40.25L159.391 43.94H139.793L136.103 40.25L139.793 36.56ZM131.757 44.596L135.447 40.906L139.137 44.596V67.31L135.447 71L131.757 67.31V44.596ZM160.047 17.536L167.427 10.156V35.904L163.737 39.594L160.047 35.904V17.536ZM131.757 17.536L135.447 13.846L139.137 17.536V35.904L135.447 39.594L131.757 35.904V17.536ZM160.047 44.596L163.737 40.906L167.427 44.596V67.31L163.737 71L160.047 67.31V44.596ZM175.495 9.5H202.473L206.163 13.19L202.473 16.88H182.875L175.495 9.5ZM182.875 36.56H202.473L206.163 40.25L202.473 43.94H182.875L179.185 40.25L182.875 36.56ZM174.839 44.596L178.529 40.906L182.219 44.596V62.964L174.839 70.344V44.596ZM182.875 63.62H202.473L206.163 67.31L202.473 71H175.495L182.875 63.62ZM203.129 17.536L206.819 13.846L210.509 17.536V35.904L206.819 39.594L203.129 35.904V17.536ZM174.839 10.156L182.219 17.536V35.904L178.529 39.594L174.839 35.904V10.156ZM203.129 44.596L206.819 40.906L210.509 44.596V62.964L206.819 66.654L203.129 62.964V44.596ZM218.577 71L225.957 63.62H246.211L249.901 67.31L246.211 71H218.577ZM225.957 43.94L222.267 40.25L225.957 36.56H246.211L249.901 40.25L246.211 43.94H225.957ZM217.921 35.904V13.19L221.611 9.5L225.301 13.19V35.904L221.611 39.594L217.921 35.904ZM217.921 70.344V44.596L221.611 40.906L225.301 44.596V62.964L217.921 70.344ZM254.247 44.596V62.964L250.557 66.654L246.867 62.964V44.596L250.557 40.906L254.247 44.596ZM283.281 9.5H318.295L310.915 16.88H290.661L283.281 9.5ZM282.625 10.156L290.005 17.536V36.56L286.315 40.25L290.005 43.94V67.31L286.315 71L282.625 67.31V43.94L286.315 40.25L282.625 36.56V10.156ZM311.571 17.536L318.951 10.156V36.56L315.261 40.25L318.951 43.94V67.31L315.261 71L311.571 67.31V43.94L315.261 40.25L311.571 36.56V17.536ZM334.383 9.5H353.981L357.671 13.19L353.981 16.88H334.383L330.693 13.19L334.383 9.5ZM334.383 63.62H353.981L357.671 67.31L353.981 71H334.301L330.693 67.31L334.383 63.62ZM354.637 43.94L358.327 40.25L354.637 36.724V17.536L358.327 13.846L362.017 17.536V36.56L358.327 40.25L362.017 43.94V62.964L358.327 66.654L354.637 62.964V43.94ZM326.347 43.94L330.037 40.25L326.347 36.56V17.536L330.037 13.846L333.727 17.536V36.56L330.037 40.25L333.727 43.94V62.964L330.037 66.654L326.347 62.964V43.94ZM402.065 36.56H417.973L421.663 40.25L417.973 43.94H402.065L398.375 40.25L402.065 36.56ZM394.029 44.596L397.719 40.906L401.409 44.596V67.31L397.719 71L394.029 67.31V44.596ZM394.029 35.904V13.19L397.719 9.5L401.409 13.19V35.904L397.719 39.594L394.029 35.904ZM421.089 9.5H426.009V14.42L407.313 35.576H402.393V30.656L421.089 9.5ZM393.373 36.56L397.063 40.25L393.373 43.94H377.465L373.775 40.25L377.465 36.56H393.373ZM426.009 44.596V67.31L422.319 71L418.629 67.31V44.596L422.319 40.906L426.009 44.596ZM374.349 9.5L393.045 30.656V35.576H388.125L369.429 14.42V9.5H374.349ZM376.809 44.596V67.31L373.119 71L369.429 67.31V44.596L373.119 40.906L376.809 44.596ZM434.068 9.5H461.702L465.392 13.19L461.702 16.88H441.448L434.068 9.5ZM441.448 36.56H461.702L465.392 40.25L461.702 43.94H441.448L437.758 40.25L441.448 36.56ZM433.412 44.596L437.102 40.906L440.792 44.596V62.964L433.412 70.344V44.596ZM433.412 10.156L440.792 17.536V35.904L437.102 39.594L433.412 35.904V10.156ZM434.068 71L441.448 63.62H461.702L465.392 67.31L461.702 71H434.068ZM487.799 9.5H514.859L507.479 16.88H487.881L484.191 13.19L487.799 9.5ZM515.515 43.94V67.31L511.825 71L508.135 67.31V43.776L511.825 40.25L508.135 36.56V17.536L515.515 10.156V36.56L511.825 40.25L515.515 43.94ZM479.845 62.964V43.94L483.535 40.25L479.845 36.56V17.536L483.535 13.846L487.225 17.536V36.56L483.535 40.25L487.225 43.94V62.964L483.535 66.654L479.845 62.964ZM470.087 67.31L473.777 63.62H479.189L482.879 67.31L479.189 71H473.777L470.087 67.31ZM530.895 9.5H557.873L550.493 16.88H530.895L527.205 13.19L530.895 9.5ZM530.895 36.56H550.493L554.183 40.25L550.493 43.94H530.895L527.205 40.25L530.895 36.56ZM522.859 44.596L526.549 40.906L530.239 44.596V67.31L526.549 71L522.859 67.31V44.596ZM551.149 17.536L558.529 10.156V35.904L554.839 39.594L551.149 35.904V17.536ZM522.859 17.536L526.549 13.846L530.239 17.536V35.904L526.549 39.594L522.859 35.904V17.536ZM551.149 44.596L554.839 40.906L558.529 44.596V67.31L554.839 71L551.149 67.31V44.596ZM573.977 36.56H593.575L597.265 40.25L593.575 43.94H573.977L570.287 40.25L573.977 36.56ZM565.941 44.596L569.631 40.906L573.321 44.596V67.31L569.631 71L565.941 67.31V44.596ZM565.941 35.904V13.19L569.631 9.5L573.321 13.19V35.904L569.631 39.594L565.941 35.904ZM594.231 44.596L597.921 40.906L601.611 44.596V67.31L597.921 71L594.231 67.31V44.596ZM594.231 35.904V13.19L597.921 9.5L601.611 13.19V35.904L597.921 39.594L594.231 35.904ZM637.313 67.31V43.94L641.003 40.25L637.313 36.56V13.19L641.003 9.5L644.693 13.19V36.56L641.003 40.25L644.693 43.94V67.31L641.003 71L637.313 67.31ZM616.403 43.94V67.31L612.713 71L609.023 67.31V43.94L612.713 40.25L609.023 36.56V13.19L612.713 9.5L616.403 13.19V36.56L612.713 40.25L616.403 43.94ZM636.329 43.94V48.86L622.307 67.31H617.387V62.39L631.409 43.94H636.329ZM652.761 9.5H680.395L684.085 13.19L680.395 16.88H660.141L652.761 9.5ZM660.141 36.56H680.395L684.085 40.25L680.395 43.94H660.141L656.451 40.25L660.141 36.56ZM652.105 44.596L655.795 40.906L659.485 44.596V62.964L652.105 70.344V44.596ZM652.105 10.156L659.485 17.536V35.904L655.795 39.594L652.105 35.904V10.156ZM652.761 71L660.141 63.62H680.395L684.085 67.31L680.395 71H652.761ZM727.555 16.88L723.865 13.19L727.473 9.5H754.533L747.153 16.88H727.555ZM747.809 36.56V17.536L755.189 10.156V36.56L751.499 40.25L755.189 43.94V62.964L751.499 66.654L747.809 62.964V43.776L751.499 40.25L747.809 36.56ZM719.519 36.56V17.536L723.209 13.846L726.899 17.536V36.56L723.209 40.25L726.899 43.94V62.964L723.209 66.654L719.519 62.964V43.94L723.209 40.25L719.519 36.56ZM727.555 63.62H747.153L750.843 67.31L747.153 71H727.473L723.865 67.31L727.555 63.62ZM709.761 67.31L713.451 63.62H718.863L722.553 67.31L718.863 71H713.451L709.761 67.31ZM752.155 67.31L755.845 63.62H761.257L764.947 67.31L761.257 71H755.845L752.155 67.31ZM790.014 9.5H817.074L809.694 16.88H790.096L786.406 13.19L790.014 9.5ZM817.73 43.94V67.31L814.04 71L810.35 67.31V43.776L814.04 40.25L810.35 36.56V17.536L817.73 10.156V36.56L814.04 40.25L817.73 43.94ZM782.06 62.964V43.94L785.75 40.25L782.06 36.56V17.536L785.75 13.846L789.44 17.536V36.56L785.75 40.25L789.44 43.94V62.964L785.75 66.654L782.06 62.964ZM772.302 67.31L775.992 63.62H781.404L785.094 67.31L781.404 71H775.992L772.302 67.31ZM852.708 43.94H833.11L829.42 40.25L833.11 36.56H852.708L856.398 40.25L852.708 43.94ZM860.744 35.904L857.054 39.594L853.364 35.904V17.536L860.744 10.156V35.904ZM860.744 44.596V67.31L857.054 71L853.364 67.31V44.596L857.054 40.906L860.744 44.596ZM832.454 35.904L828.764 39.594L825.074 35.904V17.536L828.764 13.846L832.454 17.536V35.904ZM847.46 44.924H852.38V49.844L831.224 71H826.304V66.08L847.46 44.924ZM860.088 9.5L852.708 16.88H833.11L829.42 13.19L833.11 9.5H860.088Z" fill="#0878CA"/>
<path d="M897.172 9.5H916.77L920.46 13.19L916.77 16.88H897.172L893.482 13.19L897.172 9.5ZM889.136 17.536L892.826 13.846L896.516 17.536V36.56L892.826 40.25L896.516 43.94V62.964L892.826 66.654L889.136 62.964V43.94L892.826 40.25L889.136 36.56V17.536ZM897.172 63.62H916.77L920.46 67.31L916.77 71H897.172L893.482 67.31L897.172 63.62ZM921.116 51.894L924.806 55.584V62.964L921.116 66.654L917.426 62.964V55.584L921.116 51.894ZM924.806 17.536V24.916L921.116 28.606L917.426 24.916V17.536L921.116 13.846L924.806 17.536ZM932.874 9.5H964.198L967.888 13.19L964.198 16.88H940.254L932.874 9.5ZM940.254 36.56H959.852L963.542 40.25L959.852 43.94H940.254L936.564 40.25L940.254 36.56ZM932.218 44.596L935.908 40.906L939.598 44.596V62.964L932.218 70.344V44.596ZM940.254 63.62H959.852L963.542 67.31L959.852 71H932.874L940.254 63.62ZM932.218 10.156L939.598 17.536V35.904L935.908 39.594L932.218 35.904V10.156ZM960.508 44.596L964.198 40.906L967.888 44.596V62.964L964.198 66.654L960.508 62.964V44.596ZM983.336 9.5H1002.93L1006.62 13.19L1002.93 16.88H983.336L979.646 13.19L983.336 9.5ZM983.336 63.62H1002.93L1006.62 67.31L1002.93 71H983.254L979.646 67.31L983.336 63.62ZM1003.59 43.94L1007.28 40.25L1003.59 36.724V17.536L1007.28 13.846L1010.97 17.536V36.56L1007.28 40.25L1010.97 43.94V62.964L1007.28 66.654L1003.59 62.964V43.94ZM975.3 43.94L978.99 40.25L975.3 36.56V17.536L978.99 13.846L982.68 17.536V36.56L978.99 40.25L982.68 43.94V62.964L978.99 66.654L975.3 62.964V43.94ZM1019.04 9.5H1046.67L1050.36 13.19L1046.67 16.88H1026.42L1019.04 9.5ZM1026.42 36.56H1046.67L1050.36 40.25L1046.67 43.94H1026.42L1022.73 40.25L1026.42 36.56ZM1018.38 44.596L1022.07 40.906L1025.76 44.596V67.31L1022.07 71L1018.38 67.31V44.596ZM1018.38 10.156L1025.76 17.536V35.904L1022.07 39.594L1018.38 35.904V10.156ZM1054.71 35.904L1051.02 39.594L1047.33 35.904V17.536L1051.02 13.846L1054.71 17.536V35.904ZM1070.14 36.56H1089.74L1093.43 40.25L1089.74 43.94H1070.14L1066.45 40.25L1070.14 36.56ZM1062.11 44.596L1065.8 40.906L1069.49 44.596V67.31L1065.8 71L1062.11 67.31V44.596ZM1062.11 35.904V13.19L1065.8 9.5L1069.49 13.19V35.904L1065.8 39.594L1062.11 35.904ZM1090.4 44.596L1094.09 40.906L1097.78 44.596V67.31L1094.09 71L1090.4 67.31V44.596ZM1090.4 35.904V13.19L1094.09 9.5L1097.78 13.19V35.904L1094.09 39.594L1090.4 35.904ZM1113.22 9.5H1132.82L1136.51 13.19L1132.82 16.88H1113.22L1109.53 13.19L1113.22 9.5ZM1113.22 63.62H1132.82L1136.51 67.31L1132.82 71H1113.14L1109.53 67.31L1113.22 63.62ZM1133.48 43.94L1137.17 40.25L1133.48 36.724V17.536L1137.17 13.846L1140.86 17.536V36.56L1137.17 40.25L1140.86 43.94V62.964L1137.17 66.654L1133.48 62.964V43.94ZM1105.19 43.94L1108.88 40.25L1105.19 36.56V17.536L1108.88 13.846L1112.57 17.536V36.56L1108.88 40.25L1112.57 43.94V62.964L1108.88 66.654L1105.19 62.964V43.94ZM1176.56 67.31V43.94L1180.25 40.25L1176.56 36.56V13.19L1180.25 9.5L1183.94 13.19V36.56L1180.25 40.25L1183.94 43.94V67.31L1180.25 71L1176.56 67.31ZM1155.65 43.94V67.31L1151.96 71L1148.27 67.31V43.94L1151.96 40.25L1148.27 36.56V13.19L1151.96 9.5L1155.65 13.19V36.56L1151.96 40.25L1155.65 43.94ZM1175.58 43.94V48.86L1161.55 67.31H1156.63V62.39L1170.66 43.94H1175.58ZM1165.65 4.334V9.5H1160.41L1156.63 5.72799V0.643997H1161.96L1165.65 4.334ZM1175.58 0.643997V5.81L1171.89 9.5H1166.64V4.334L1170.33 0.643997H1175.58Z" fill="#D01319"/>
</svg>
