<svg width="295" height="72" viewBox="0 0 295 72" fill="none" xmlns="http://www.w3.org/2000/svg">
<path d="M11.7613 -2.38419e-06L13.5613 1.8L11.7613 3.6H1.88125L0.0812501 1.8L1.88125 -2.38419e-06H11.7613ZM11.7613 13.2L13.5613 15L11.7613 16.8H2.96125L1.16125 15L2.96125 13.2H11.7613ZM15.6813 17.12V26.08L13.8813 27.88L12.0813 26.08V17.12L13.8813 15.32L15.6813 17.12ZM15.6813 3.92V12.88L13.8813 14.68L12.0813 12.88V3.92L13.8813 2.12L15.6813 3.92ZM11.7613 30H1.88125L0.0812501 28.2L1.88125 26.4H11.7613L13.5613 28.2L11.7613 30ZM23.22 -2.38419e-06H36.38L32.78 3.6H23.22L21.42 1.8L23.22 -2.38419e-06ZM23.22 13.2H32.78L34.58 15L32.78 16.8H23.22L21.42 15L23.22 13.2ZM19.3 17.12L21.1 15.32L22.9 17.12V28.2L21.1 30L19.3 28.2V17.12ZM33.1 3.92L36.7 0.319998V12.88L34.9 14.68L33.1 12.88V3.92ZM19.3 3.92L21.1 2.12L22.9 3.92V12.88L21.1 14.68L19.3 12.88V3.92ZM33.1 17.12L34.9 15.32L36.7 17.12V28.2L34.9 30L33.1 28.2V17.12ZM40.6356 -2.38419e-06H54.1156L55.9156 1.8L54.1156 3.6H44.2356L40.6356 -2.38419e-06ZM44.2356 13.2H54.1156L55.9156 15L54.1156 16.8H44.2356L42.4356 15L44.2356 13.2ZM40.3156 17.12L42.1156 15.32L43.9156 17.12V28.2L42.1156 30L40.3156 28.2V17.12ZM40.3156 0.319998L43.9156 3.92V12.88L42.1156 14.68L40.3156 12.88V0.319998ZM58.0356 12.88L56.2356 14.68L54.4356 12.88V3.92L56.2356 2.12L58.0356 3.92V12.88ZM75.1238 16.8H65.5638L63.7638 15L65.5638 13.2H75.1238L76.9238 15L75.1238 16.8ZM79.0438 12.88L77.2438 14.68L75.4438 12.88V3.92L79.0438 0.319998V12.88ZM79.0438 17.12V28.2L77.2438 30L75.4438 28.2V17.12L77.2438 15.32L79.0438 17.12ZM65.2438 12.88L63.4438 14.68L61.6438 12.88V3.92L63.4438 2.12L65.2438 3.92V12.88ZM72.5638 17.28H74.9638V19.68L64.6438 30H62.2438V27.6L72.5638 17.28ZM78.7238 -2.38419e-06L75.1238 3.6H65.5638L63.7638 1.8L65.5638 -2.38419e-06H78.7238ZM91.3394 3.6L89.5394 1.8L91.2994 -2.38419e-06H104.499L100.899 3.6H91.3394ZM101.219 13.2V3.92L104.819 0.319998V13.2L103.019 15L104.819 16.8V26.08L103.019 27.88L101.219 26.08V16.72L103.019 15L101.219 13.2ZM87.4194 13.2V3.92L89.2194 2.12L91.0194 3.92V13.2L89.2194 15L91.0194 16.8V26.08L89.2194 27.88L87.4194 26.08V16.8L89.2194 15L87.4194 13.2ZM91.3394 26.4H100.899L102.699 28.2L100.899 30H91.2994L89.5394 28.2L91.3394 26.4ZM82.6594 28.2L84.4594 26.4H87.0994L88.8994 28.2L87.0994 30H84.4594L82.6594 28.2ZM103.339 28.2L105.139 26.4H107.779L109.579 28.2L107.779 30H105.139L103.339 28.2ZM126.967 28.2V16.8L128.767 15L126.967 13.2V1.8L128.767 -2.38419e-06L130.567 1.8V13.2L128.767 15L130.567 16.8V28.2L128.767 30L126.967 28.2ZM116.767 16.8V28.2L114.967 30L113.167 28.2V16.8L114.967 15L113.167 13.2V1.8L114.967 -2.38419e-06L116.767 1.8V13.2L114.967 15L116.767 16.8ZM126.487 16.8V19.2L119.647 28.2H117.247V25.8L124.087 16.8H126.487ZM148.337 -2.38419e-06H157.897L159.697 1.8L157.897 3.6H148.337L146.537 1.8L148.337 -2.38419e-06ZM144.417 3.92L146.217 2.12L148.017 3.92V13.2L146.217 15L148.017 16.8V26.08L146.217 27.88L144.417 26.08V16.8L146.217 15L144.417 13.2V3.92ZM148.337 26.4H157.897L159.697 28.2L157.897 30H148.337L146.537 28.2L148.337 26.4ZM160.017 20.68L161.817 22.48V26.08L160.017 27.88L158.217 26.08V22.48L160.017 20.68ZM161.817 3.92V7.52L160.017 9.32L158.217 7.52V3.92L160.017 2.12L161.817 3.92ZM165.753 -2.38419e-06H181.033L182.833 1.8L181.033 3.6H169.353L165.753 -2.38419e-06ZM169.353 13.2H178.913L180.713 15L178.913 16.8H169.353L167.553 15L169.353 13.2ZM165.433 17.12L167.233 15.32L169.033 17.12V26.08L165.433 29.68V17.12ZM169.353 26.4H178.913L180.713 28.2L178.913 30H165.753L169.353 26.4ZM165.433 0.319998L169.033 3.92V12.88L167.233 14.68L165.433 12.88V0.319998ZM179.233 17.12L181.033 15.32L182.833 17.12V26.08L181.033 27.88L179.233 26.08V17.12ZM190.368 -2.38419e-06H199.928L201.728 1.8L199.928 3.6H190.368L188.568 1.8L190.368 -2.38419e-06ZM190.368 26.4H199.928L201.728 28.2L199.928 30H190.328L188.568 28.2L190.368 26.4ZM200.248 16.8L202.048 15L200.248 13.28V3.92L202.048 2.12L203.848 3.92V13.2L202.048 15L203.848 16.8V26.08L202.048 27.88L200.248 26.08V16.8ZM186.448 16.8L188.248 15L186.448 13.2V3.92L188.248 2.12L190.048 3.92V13.2L188.248 15L190.048 16.8V26.08L188.248 27.88L186.448 26.08V16.8ZM207.784 -2.38419e-06H221.264L223.064 1.8L221.264 3.6H211.384L207.784 -2.38419e-06ZM211.384 13.2H221.264L223.064 15L221.264 16.8H211.384L209.584 15L211.384 13.2ZM207.464 17.12L209.264 15.32L211.064 17.12V28.2L209.264 30L207.464 28.2V17.12ZM207.464 0.319998L211.064 3.92V12.88L209.264 14.68L207.464 12.88V0.319998ZM225.184 12.88L223.384 14.68L221.584 12.88V3.92L223.384 2.12L225.184 3.92V12.88ZM232.712 13.2H242.272L244.072 15L242.272 16.8H232.712L230.912 15L232.712 13.2ZM228.792 17.12L230.592 15.32L232.392 17.12V28.2L230.592 30L228.792 28.2V17.12ZM228.792 12.88V1.8L230.592 -2.38419e-06L232.392 1.8V12.88L230.592 14.68L228.792 12.88ZM242.592 17.12L244.392 15.32L246.192 17.12V28.2L244.392 30L242.592 28.2V17.12ZM242.592 12.88V1.8L244.392 -2.38419e-06L246.192 1.8V12.88L244.392 14.68L242.592 12.88ZM253.728 13.2H263.288L265.088 15L263.288 16.8H253.728L251.928 15L253.728 13.2ZM263.288 30H251.608L249.808 28.2L251.608 26.4H263.288L265.088 28.2L263.288 30ZM263.608 12.88V1.8L265.408 -2.38419e-06L267.208 1.8V12.88L265.408 14.68L263.608 12.88ZM249.808 12.88V1.8L251.608 -2.38419e-06L253.408 1.8V12.88L251.608 14.68L249.808 12.88ZM263.608 17.12L265.408 15.32L267.208 17.12V26.08L265.408 27.88L263.608 26.08V17.12ZM274.743 13.2H278.343L280.143 15L278.343 16.8H274.743L272.943 15L274.743 13.2ZM270.823 17.12L272.623 15.32L274.423 17.12V28.2L272.623 30L270.823 28.2V17.12ZM270.823 12.88V1.8L272.623 -2.38419e-06L274.423 1.8V12.88L272.623 14.68L270.823 12.88ZM282.583 -2.38419e-06H290.983L292.783 1.8L290.983 3.6H282.583L280.783 1.8L282.583 -2.38419e-06ZM282.583 26.4H290.983L292.783 28.2L290.983 30H282.543L280.783 28.2L282.583 26.4ZM291.303 16.8L293.103 15L291.303 13.28V3.92L293.103 2.12L294.903 3.92V13.2L293.103 15L294.903 16.8V26.08L293.103 27.88L291.303 26.08V16.8ZM278.663 3.92L280.463 2.12L282.263 3.92V12.88L280.463 14.68L278.663 12.88V3.92ZM278.663 17.12L280.463 15.32L282.263 17.12V26.08L280.463 27.88L278.663 26.08V17.12Z" fill="#0094FF"/>
<path d="M57.8489 55.2H67.4089L69.2089 57L67.4089 58.8H57.8489L56.0489 57L57.8489 55.2ZM53.9289 59.12L55.7289 57.32L57.5289 59.12V70.2L55.7289 72L53.9289 70.2V59.12ZM53.9289 54.88V43.8L55.7289 42L57.5289 43.8V54.88L55.7289 56.68L53.9289 54.88ZM67.7289 59.12L69.5289 57.32L71.3289 59.12V70.2L69.5289 72L67.7289 70.2V59.12ZM67.7289 54.88V43.8L69.5289 42L71.3289 43.8V54.88L69.5289 56.68L67.7289 54.88ZM78.8645 42H92.0245L88.4245 45.6H78.8645L77.0645 43.8L78.8645 42ZM78.8645 55.2H88.4245L90.2245 57L88.4245 58.8H78.8645L77.0645 57L78.8645 55.2ZM74.9445 59.12L76.7445 57.32L78.5445 59.12V70.2L76.7445 72L74.9445 70.2V59.12ZM88.7445 45.92L92.3445 42.32V54.88L90.5445 56.68L88.7445 54.88V45.92ZM74.9445 45.92L76.7445 44.12L78.5445 45.92V54.88L76.7445 56.68L74.9445 54.88V45.92ZM88.7445 59.12L90.5445 57.32L92.3445 59.12V70.2L90.5445 72L88.7445 70.2V59.12ZM106.515 42H123.595L119.995 45.6H110.115L106.515 42ZM106.195 42.32L109.795 45.92V55.2L107.995 57L109.795 58.8V70.2L107.995 72L106.195 70.2V58.8L107.995 57L106.195 55.2V42.32ZM120.315 45.92L123.915 42.32V55.2L122.115 57L123.915 58.8V70.2L122.115 72L120.315 70.2V58.8L122.115 57L120.315 55.2V45.92ZM131.443 42H141.003L142.803 43.8L141.003 45.6H131.443L129.643 43.8L131.443 42ZM131.443 68.4H141.003L142.803 70.2L141.003 72H131.403L129.643 70.2L131.443 68.4ZM141.323 58.8L143.123 57L141.323 55.28V45.92L143.123 44.12L144.923 45.92V55.2L143.123 57L144.923 58.8V68.08L143.123 69.88L141.323 68.08V58.8ZM127.523 58.8L129.323 57L127.523 55.2V45.92L129.323 44.12L131.123 45.92V55.2L129.323 57L131.123 58.8V68.08L129.323 69.88L127.523 68.08V58.8ZM148.858 42H164.138L165.938 43.8L164.138 45.6H152.458L148.858 42ZM152.458 55.2H162.018L163.818 57L162.018 58.8H152.458L150.658 57L152.458 55.2ZM148.538 59.12L150.338 57.32L152.138 59.12V68.08L148.538 71.68V59.12ZM152.458 68.4H162.018L163.818 70.2L162.018 72H148.858L152.458 68.4ZM148.538 42.32L152.138 45.92V54.88L150.338 56.68L148.538 54.88V42.32ZM162.338 59.12L164.138 57.32L165.938 59.12V68.08L164.138 69.88L162.338 68.08V59.12ZM169.874 42H183.354L185.154 43.8L183.354 45.6H173.474L169.874 42ZM173.474 55.2H183.354L185.154 57L183.354 58.8H173.474L171.674 57L173.474 55.2ZM169.554 59.12L171.354 57.32L173.154 59.12V68.08L169.554 71.68V59.12ZM169.554 42.32L173.154 45.92V54.88L171.354 56.68L169.554 54.88V42.32ZM169.874 72L173.474 68.4H183.354L185.154 70.2L183.354 72H169.874ZM196.125 45.6L194.325 43.8L196.085 42H209.285L205.685 45.6H196.125ZM206.005 55.2V45.92L209.605 42.32V55.2L207.805 57L209.605 58.8V68.08L207.805 69.88L206.005 68.08V58.72L207.805 57L206.005 55.2ZM192.205 55.2V45.92L194.005 44.12L195.805 45.92V55.2L194.005 57L195.805 58.8V68.08L194.005 69.88L192.205 68.08V58.8L194.005 57L192.205 55.2ZM196.125 68.4H205.685L207.485 70.2L205.685 72H196.085L194.325 70.2L196.125 68.4ZM187.445 70.2L189.245 68.4H191.885L193.685 70.2L191.885 72H189.245L187.445 70.2ZM208.125 70.2L209.925 68.4H212.565L214.365 70.2L212.565 72H209.925L208.125 70.2ZM218.272 72L221.872 68.4H229.952L231.752 70.2L229.952 72H218.272ZM221.872 58.8L220.072 57L221.872 55.2H229.952L231.752 57L229.952 58.8H221.872ZM217.952 54.88V43.8L219.752 42L221.552 43.8V54.88L219.752 56.68L217.952 54.88ZM217.952 71.68V59.12L219.752 57.32L221.552 59.12V68.08L217.952 71.68ZM233.872 59.12V68.08L232.072 69.88L230.272 68.08V59.12L232.072 57.32L233.872 59.12ZM237.472 58.8L239.272 57L237.472 55.2V43.8L239.272 42L241.072 43.8V55.2L239.272 57L241.072 58.8V70.2L239.272 72L237.472 70.2V58.8Z" fill="#D01319"/>
</svg>
