<svg width="1018" height="62" viewBox="0 0 1018 62" fill="none" xmlns="http://www.w3.org/2000/svg">
<path d="M24.7346 0.499995L28.4246 4.19L24.7346 7.88H4.48059L0.790586 4.19L4.48059 0.499995H24.7346ZM24.7346 27.56L28.4246 31.25L24.7346 34.94H6.69459L3.00459 31.25L6.69459 27.56H24.7346ZM32.7706 35.596V53.964L29.0806 57.654L25.3906 53.964V35.596L29.0806 31.906L32.7706 35.596ZM32.7706 8.536V26.904L29.0806 30.594L25.3906 26.904V8.536L29.0806 4.846L32.7706 8.536ZM24.7346 62H4.48059L0.790586 58.31L4.48059 54.62H24.7346L28.4246 58.31L24.7346 62ZM48.225 0.499995H75.203L67.823 7.88H48.225L44.535 4.19L48.225 0.499995ZM48.225 27.56H67.823L71.513 31.25L67.823 34.94H48.225L44.535 31.25L48.225 27.56ZM40.189 35.596L43.879 31.906L47.569 35.596V58.31L43.879 62L40.189 58.31V35.596ZM68.479 8.536L75.859 1.156V26.904L72.169 30.594L68.479 26.904V8.536ZM40.189 8.536L43.879 4.846L47.569 8.536V26.904L43.879 30.594L40.189 26.904V8.536ZM68.479 35.596L72.169 31.906L75.859 35.596V58.31L72.169 62L68.479 58.31V35.596ZM83.9271 0.499995H111.561L115.251 4.19L111.561 7.88H91.3071L83.9271 0.499995ZM91.3071 27.56H111.561L115.251 31.25L111.561 34.94H91.3071L87.6171 31.25L91.3071 27.56ZM83.2711 35.596L86.9611 31.906L90.6511 35.596V58.31L86.9611 62L83.2711 58.31V35.596ZM83.2711 1.156L90.6511 8.536V26.904L86.9611 30.594L83.2711 26.904V1.156ZM119.597 26.904L115.907 30.594L112.217 26.904V8.536L115.907 4.846L119.597 8.536V26.904ZM154.628 34.94H135.03L131.34 31.25L135.03 27.56H154.628L158.318 31.25L154.628 34.94ZM162.664 26.904L158.974 30.594L155.284 26.904V8.536L162.664 1.156V26.904ZM162.664 35.596V58.31L158.974 62L155.284 58.31V35.596L158.974 31.906L162.664 35.596ZM134.374 26.904L130.684 30.594L126.994 26.904V8.536L130.684 4.846L134.374 8.536V26.904ZM149.38 35.924H154.3V40.844L133.144 62H128.224V57.08L149.38 35.924ZM162.008 0.499995L154.628 7.88H135.03L131.34 4.19L135.03 0.499995H162.008ZM187.87 7.88L184.18 4.19L187.788 0.499995H214.848L207.468 7.88H187.87ZM208.124 27.56V8.536L215.504 1.156V27.56L211.814 31.25L215.504 34.94V53.964L211.814 57.654L208.124 53.964V34.776L211.814 31.25L208.124 27.56ZM179.834 27.56V8.536L183.524 4.846L187.214 8.536V27.56L183.524 31.25L187.214 34.94V53.964L183.524 57.654L179.834 53.964V34.94L183.524 31.25L179.834 27.56ZM187.87 54.62H207.468L211.158 58.31L207.468 62H187.788L184.18 58.31L187.87 54.62ZM170.076 58.31L173.766 54.62H179.178L182.868 58.31L179.178 62H173.766L170.076 58.31ZM212.47 58.31L216.16 54.62H221.572L225.262 58.31L221.572 62H216.16L212.47 58.31ZM260.907 58.31V34.94L264.597 31.25L260.907 27.56V4.19L264.597 0.499995L268.287 4.19V27.56L264.597 31.25L268.287 34.94V58.31L264.597 62L260.907 58.31ZM239.997 34.94V58.31L236.307 62L232.617 58.31V34.94L236.307 31.25L232.617 27.56V4.19L236.307 0.499995L239.997 4.19V27.56L236.307 31.25L239.997 34.94ZM259.923 34.94V39.86L245.901 58.31H240.981V53.39L255.003 34.94H259.923ZM304.715 0.499995H324.313L328.003 4.19L324.313 7.88H304.715L301.025 4.19L304.715 0.499995ZM296.679 8.536L300.369 4.846L304.059 8.536V27.56L300.369 31.25L304.059 34.94V53.964L300.369 57.654L296.679 53.964V34.94L300.369 31.25L296.679 27.56V8.536ZM304.715 54.62H324.313L328.003 58.31L324.313 62H304.715L301.025 58.31L304.715 54.62ZM328.659 42.894L332.349 46.584V53.964L328.659 57.654L324.969 53.964V46.584L328.659 42.894ZM332.349 8.536V15.916L328.659 19.606L324.969 15.916V8.536L328.659 4.846L332.349 8.536ZM340.417 0.499995H371.741L375.431 4.19L371.741 7.88H347.797L340.417 0.499995ZM347.797 27.56H367.395L371.085 31.25L367.395 34.94H347.797L344.107 31.25L347.797 27.56ZM339.761 35.596L343.451 31.906L347.141 35.596V53.964L339.761 61.344V35.596ZM347.797 54.62H367.395L371.085 58.31L367.395 62H340.417L347.797 54.62ZM339.761 1.156L347.141 8.536V26.904L343.451 30.594L339.761 26.904V1.156ZM368.051 35.596L371.741 31.906L375.431 35.596V53.964L371.741 57.654L368.051 53.964V35.596ZM390.879 0.499995H410.477L414.167 4.19L410.477 7.88H390.879L387.189 4.19L390.879 0.499995ZM390.879 54.62H410.477L414.167 58.31L410.477 62H390.797L387.189 58.31L390.879 54.62ZM411.133 34.94L414.823 31.25L411.133 27.724V8.536L414.823 4.846L418.513 8.536V27.56L414.823 31.25L418.513 34.94V53.964L414.823 57.654L411.133 53.964V34.94ZM382.843 34.94L386.533 31.25L382.843 27.56V8.536L386.533 4.846L390.223 8.536V27.56L386.533 31.25L390.223 34.94V53.964L386.533 57.654L382.843 53.964V34.94ZM426.581 0.499995H454.215L457.905 4.19L454.215 7.88H433.961L426.581 0.499995ZM433.961 27.56H454.215L457.905 31.25L454.215 34.94H433.961L430.271 31.25L433.961 27.56ZM425.925 35.596L429.615 31.906L433.305 35.596V58.31L429.615 62L425.925 58.31V35.596ZM425.925 1.156L433.305 8.536V26.904L429.615 30.594L425.925 26.904V1.156ZM462.251 26.904L458.561 30.594L454.871 26.904V8.536L458.561 4.846L462.251 8.536V26.904ZM477.684 27.56H497.282L500.972 31.25L497.282 34.94H477.684L473.994 31.25L477.684 27.56ZM469.648 35.596L473.338 31.906L477.028 35.596V58.31L473.338 62L469.648 58.31V35.596ZM469.648 26.904V4.19L473.338 0.499995L477.028 4.19V26.904L473.338 30.594L469.648 26.904ZM497.938 35.596L501.628 31.906L505.318 35.596V58.31L501.628 62L497.938 58.31V35.596ZM497.938 26.904V4.19L501.628 0.499995L505.318 4.19V26.904L501.628 30.594L497.938 26.904ZM520.766 27.56H540.364L544.054 31.25L540.364 34.94H520.766L517.076 31.25L520.766 27.56ZM540.364 62H516.42L512.73 58.31L516.42 54.62H540.364L544.054 58.31L540.364 62ZM541.02 26.904V4.19L544.71 0.499995L548.4 4.19V26.904L544.71 30.594L541.02 26.904ZM512.73 26.904V4.19L516.42 0.499995L520.11 4.19V26.904L516.42 30.594L512.73 26.904ZM541.02 35.596L544.71 31.906L548.4 35.596V53.964L544.71 57.654L541.02 53.964V35.596ZM563.848 27.56H571.228L574.918 31.25L571.228 34.94H563.848L560.158 31.25L563.848 27.56ZM555.812 35.596L559.502 31.906L563.192 35.596V58.31L559.502 62L555.812 58.31V35.596ZM555.812 26.904V4.19L559.502 0.499995L563.192 4.19V26.904L559.502 30.594L555.812 26.904ZM579.92 0.499995H597.14L600.83 4.19L597.14 7.88H579.92L576.23 4.19L579.92 0.499995ZM579.92 54.62H597.14L600.83 58.31L597.14 62H579.838L576.23 58.31L579.92 54.62ZM597.796 34.94L601.486 31.25L597.796 27.724V8.536L601.486 4.846L605.176 8.536V27.56L601.486 31.25L605.176 34.94V53.964L601.486 57.654L597.796 53.964V34.94ZM571.884 8.536L575.574 4.846L579.264 8.536V26.904L575.574 30.594L571.884 26.904V8.536ZM571.884 35.596L575.574 31.906L579.264 35.596V53.964L575.574 57.654L571.884 53.964V35.596Z" fill="#0094FF"/>
<path d="M641.604 27.56H661.202L664.892 31.25L661.202 34.94H641.604L637.914 31.25L641.604 27.56ZM633.568 35.596L637.258 31.906L640.948 35.596V58.31L637.258 62L633.568 58.31V35.596ZM633.568 26.904V4.19L637.258 0.499995L640.948 4.19V26.904L637.258 30.594L633.568 26.904ZM661.858 35.596L665.548 31.906L669.238 35.596V58.31L665.548 62L661.858 58.31V35.596ZM661.858 26.904V4.19L665.548 0.499995L669.238 4.19V26.904L665.548 30.594L661.858 26.904ZM684.686 0.499995H711.664L704.284 7.88H684.686L680.996 4.19L684.686 0.499995ZM684.686 27.56H704.284L707.974 31.25L704.284 34.94H684.686L680.996 31.25L684.686 27.56ZM676.65 35.596L680.34 31.906L684.03 35.596V58.31L680.34 62L676.65 58.31V35.596ZM704.94 8.536L712.32 1.156V26.904L708.63 30.594L704.94 26.904V8.536ZM676.65 8.536L680.34 4.846L684.03 8.536V26.904L680.34 30.594L676.65 26.904V8.536ZM704.94 35.596L708.63 31.906L712.32 35.596V58.31L708.63 62L704.94 58.31V35.596ZM741.368 0.499995H776.382L769.002 7.88H748.748L741.368 0.499995ZM740.712 1.156L748.092 8.536V27.56L744.402 31.25L748.092 34.94V58.31L744.402 62L740.712 58.31V34.94L744.402 31.25L740.712 27.56V1.156ZM769.658 8.536L777.038 1.156V27.56L773.348 31.25L777.038 34.94V58.31L773.348 62L769.658 58.31V34.94L773.348 31.25L769.658 27.56V8.536ZM792.471 0.499995H812.069L815.759 4.19L812.069 7.88H792.471L788.781 4.19L792.471 0.499995ZM792.471 54.62H812.069L815.759 58.31L812.069 62H792.389L788.781 58.31L792.471 54.62ZM812.725 34.94L816.415 31.25L812.725 27.724V8.536L816.415 4.846L820.105 8.536V27.56L816.415 31.25L820.105 34.94V53.964L816.415 57.654L812.725 53.964V34.94ZM784.435 34.94L788.125 31.25L784.435 27.56V8.536L788.125 4.846L791.815 8.536V27.56L788.125 31.25L791.815 34.94V53.964L788.125 57.654L784.435 53.964V34.94ZM828.173 0.499995H859.497L863.187 4.19L859.497 7.88H835.553L828.173 0.499995ZM835.553 27.56H855.151L858.841 31.25L855.151 34.94H835.553L831.863 31.25L835.553 27.56ZM827.517 35.596L831.207 31.906L834.897 35.596V53.964L827.517 61.344V35.596ZM835.553 54.62H855.151L858.841 58.31L855.151 62H828.173L835.553 54.62ZM827.517 1.156L834.897 8.536V26.904L831.207 30.594L827.517 26.904V1.156ZM855.807 35.596L859.497 31.906L863.187 35.596V53.964L859.497 57.654L855.807 53.964V35.596ZM871.255 0.499995H898.889L902.579 4.19L898.889 7.88H878.635L871.255 0.499995ZM878.635 27.56H898.889L902.579 31.25L898.889 34.94H878.635L874.945 31.25L878.635 27.56ZM870.599 35.596L874.289 31.906L877.979 35.596V53.964L870.599 61.344V35.596ZM870.599 1.156L877.979 8.536V26.904L874.289 30.594L870.599 26.904V1.156ZM871.255 62L878.635 54.62H898.889L902.579 58.31L898.889 62H871.255ZM925.069 7.88L921.379 4.19L924.987 0.499995H952.047L944.667 7.88H925.069ZM945.323 27.56V8.536L952.703 1.156V27.56L949.013 31.25L952.703 34.94V53.964L949.013 57.654L945.323 53.964V34.776L949.013 31.25L945.323 27.56ZM917.033 27.56V8.536L920.723 4.846L924.413 8.536V27.56L920.723 31.25L924.413 34.94V53.964L920.723 57.654L917.033 53.964V34.94L920.723 31.25L917.033 27.56ZM925.069 54.62H944.667L948.357 58.31L944.667 62H924.987L921.379 58.31L925.069 54.62ZM907.275 58.31L910.965 54.62H916.377L920.067 58.31L916.377 62H910.965L907.275 58.31ZM949.669 58.31L953.359 54.62H958.771L962.461 58.31L958.771 62H953.359L949.669 58.31ZM970.472 62L977.852 54.62H994.416L998.106 58.31L994.416 62H970.472ZM977.852 34.94L974.162 31.25L977.852 27.56H994.416L998.106 31.25L994.416 34.94H977.852ZM969.816 26.904V4.19L973.506 0.499995L977.196 4.19V26.904L973.506 30.594L969.816 26.904ZM969.816 61.344V35.596L973.506 31.906L977.196 35.596V53.964L969.816 61.344ZM1002.45 35.596V53.964L998.762 57.654L995.072 53.964V35.596L998.762 31.906L1002.45 35.596ZM1009.83 34.94L1013.52 31.25L1009.83 27.56V4.19L1013.52 0.499995L1017.21 4.19V27.56L1013.52 31.25L1017.21 34.94V58.31L1013.52 62L1009.83 58.31V34.94Z" fill="#D01319"/>
</svg>
