<svg width="63" height="66" viewBox="0 0 63 66" fill="none" xmlns="http://www.w3.org/2000/svg">
<g filter="url(#filter0_d)">
<path d="M55.9834 24.2512L55.2662 24.1772C54.6449 24.109 54.1931 23.5459 54.2609 22.9203L55.6163 10.59C55.7406 9.45825 55.4186 8.34352 54.7071 7.4506C53.9955 6.55768 52.9846 6.00032 51.8664 5.8752L50.9967 5.77851L51.1322 4.61828C51.2056 3.99267 50.7651 3.42962 50.1439 3.35568L41.9664 2.37745L37.759 1.87696C37.1378 1.80302 36.5787 2.24664 36.5053 2.87225L36.3584 4.14623L35.9405 4.10073L35.788 3.38412C35.5565 2.27508 34.907 1.3196 33.9526 0.688296C33.2636 0.238992 32.4673 0.00012207 31.6541 0.00012207C31.3604 0.00012207 31.0611 0.0342464 30.7787 0.0911203L5.34817 5.5112C4.24126 5.75007 3.29813 6.40412 2.68821 7.34823C2.06699 8.30371 1.85803 9.44119 2.09522 10.5559L4.32597 21.1856C4.45587 21.7999 4.06619 22.4027 3.45626 22.5336C2.84634 22.6644 2.45666 23.2672 2.58655 23.8815L3.34896 27.4986L4.51799 33.0609L5.68702 38.6232L6.85604 44.1855L7.90647 49.196C8.03636 49.8103 8.63499 50.2027 9.24492 50.0719C9.85485 49.9411 10.4535 50.3335 10.5834 50.9478L11.1199 53.5128C11.5321 55.4692 13.2716 56.8854 15.2538 56.8854C15.5588 56.8854 15.8581 56.8513 16.1292 56.7944L22.8045 55.3782L46.1286 57.9717C46.2923 57.9944 46.4561 58.0001 46.6142 58.0001C48.7772 58.0001 50.5901 56.3678 50.8329 54.1953L51.0023 52.6426C51.0701 52.0227 51.6235 51.5677 52.2448 51.6359L53.0919 51.7269C53.7131 51.7952 54.2666 51.3402 54.3343 50.7146L56.0173 34.7444L56.4465 30.6836L56.9943 25.4967C57.0564 24.8768 56.6046 24.3194 55.9834 24.2512Z" fill="#FCFCFC"/>
</g>
<path d="M5.45826 23.8469L4.35327 24.0824L4.76243 26.0298L5.86741 25.7943L5.45826 23.8469Z" fill="#323232"/>
<path d="M9.95764 45.2717L8.85254 45.5071L9.43677 48.2894L10.5419 48.054L9.95764 45.2717Z" fill="#323232"/>
<path d="M8.78893 39.7092L7.68384 39.9446L8.26807 42.7269L9.37317 42.4915L8.78893 39.7092Z" fill="#323232"/>
<path d="M7.61852 34.1415L6.51343 34.3768L7.09766 37.1591L8.20276 36.9238L7.61852 34.1415Z" fill="#323232"/>
<path d="M6.45031 28.5791L5.34521 28.8145L5.92945 31.5967L7.03454 31.3614L6.45031 28.5791Z" fill="#323232"/>
<path d="M51.6798 7.57001L34.5341 5.65905L34.1332 3.73671C33.992 3.07129 33.6023 2.49686 33.0375 2.1215C32.4672 1.75182 31.7895 1.62101 31.1287 1.76319L5.70379 7.17759C5.04303 7.31977 4.47264 7.7122 4.10555 8.28094C3.73282 8.85537 3.60858 9.53216 3.74976 10.2033L12.7688 53.1658C13.0229 54.3659 14.079 55.1905 15.248 55.1905C15.4231 55.1905 15.5982 55.1735 15.7732 55.1337L22.714 53.6606L46.326 56.2882C46.4221 56.2996 46.5181 56.3053 46.6084 56.3053C47.913 56.3053 48.9973 55.3213 49.1441 54.0189L53.9332 10.4023C54.0857 8.99755 53.0748 7.72357 51.6798 7.57001ZM15.536 54.0246C14.7793 54.1839 14.0338 53.6947 13.8757 52.9326L4.85102 9.96441C4.7776 9.59473 4.84537 9.21936 5.05433 8.90086C5.25764 8.58806 5.56825 8.36625 5.93533 8.29231L31.3602 2.87792C31.7273 2.7983 32.1001 2.86654 32.4163 3.07698C32.7326 3.28172 32.9528 3.60022 33.0263 3.9699L33.3538 5.52824L25.8822 4.6922C24.459 4.53864 23.2166 5.56805 23.0641 6.96715L18.2751 50.5781C18.2016 51.2605 18.3937 51.9317 18.8172 52.4663C19.0488 52.7563 19.3368 52.9838 19.653 53.1488L15.536 54.0246ZM52.8093 10.2772L48.0203 53.8938C47.9356 54.673 47.2409 55.2474 46.4503 55.1564L20.6526 52.2843C20.2743 52.2445 19.9354 52.0568 19.6982 51.7553C19.461 51.4596 19.3537 51.0842 19.3989 50.7032L24.188 7.09227C24.267 6.36429 24.8713 5.8183 25.5998 5.8183C25.6507 5.8183 25.7015 5.8183 25.758 5.82399L51.5556 8.70181C52.335 8.78712 52.8997 9.49235 52.8093 10.2772Z" fill="#323232"/>
<path d="M52.8097 10.2772L48.0207 53.8937C47.9359 54.6729 47.2413 55.2473 46.4507 55.1563L20.653 52.2842C20.2746 52.2444 19.9358 52.0567 19.6986 51.7553C19.4614 51.4595 19.3541 51.0842 19.3993 50.7031L24.1883 7.09221C24.2674 6.36423 24.8717 5.81824 25.6002 5.81824C25.651 5.81824 25.7019 5.81824 25.7583 5.82392L51.556 8.70174C52.3353 8.78706 52.9001 9.49229 52.8097 10.2772Z" fill="#FEBD2C"/>
<path d="M33.3539 5.52817L25.8823 4.69213C24.4592 4.53857 23.2167 5.56798 23.0642 6.96708L18.2752 50.578C18.2018 51.2605 18.3938 51.9316 18.8173 52.4662C19.0489 52.7563 19.3369 52.9837 19.6532 53.1487L15.5362 54.0245C14.7794 54.1838 14.0339 53.6947 13.8758 52.9326L4.85114 9.96434C4.77773 9.59466 4.84549 9.21929 5.05445 8.90079C5.25776 8.58799 5.56837 8.36618 5.93546 8.29224L31.3604 2.87785C31.7275 2.79823 32.1002 2.86647 32.4164 3.07691C32.7327 3.28165 32.953 3.60015 33.0264 3.96983L33.3539 5.52817Z" fill="#D01319"/>
<path d="M41.0905 3.99817L40.9575 5.12769L49.2517 6.11774L49.3846 4.98822L41.0905 3.99817Z" fill="#323232"/>
<path d="M38.1222 3.64063L37.9893 4.77014L39.952 5.00443L40.085 3.87492L38.1222 3.64063Z" fill="#323232"/>
<path d="M53.2278 34.1966L51.5796 49.8568L52.7028 49.9767L54.351 34.3165L53.2278 34.1966Z" fill="#323232"/>
<path d="M53.6556 30.1805L53.3848 32.7538L54.5079 32.8737L54.7788 30.3004L53.6556 30.1805Z" fill="#323232"/>
<path d="M54.1232 25.7697L53.8152 28.6936L54.9384 28.8136L55.2464 25.8897L54.1232 25.7697Z" fill="#323232"/>
<defs>
<filter id="filter0_d" x="0" y="0.00012207" width="63" height="66" filterUnits="userSpaceOnUse" color-interpolation-filters="sRGB">
<feFlood flood-opacity="0" result="BackgroundImageFix"/>
<feColorMatrix in="SourceAlpha" type="matrix" values="0 0 0 0 0 0 0 0 0 0 0 0 0 0 0 0 0 0 127 0"/>
<feOffset dx="2" dy="4"/>
<feGaussianBlur stdDeviation="2"/>
<feColorMatrix type="matrix" values="0 0 0 0 0 0 0 0 0 0 0 0 0 0 0 0 0 0 0.25 0"/>
<feBlend mode="normal" in2="BackgroundImageFix" result="effect1_dropShadow"/>
<feBlend mode="normal" in="SourceGraphic" in2="effect1_dropShadow" result="shape"/>
</filter>
</defs>
</svg>
