<svg width="128" height="126" viewBox="0 0 128 126" fill="none" xmlns="http://www.w3.org/2000/svg">
<g filter="url(#filter0_d)">
<path d="M119.776 102.393H119.765C118.541 102.393 117.541 101.395 117.541 100.173V98.9871C117.541 97.7657 116.541 96.7675 115.318 96.7675H114.365C113.141 96.7675 112.141 95.7693 112.141 94.548V75.4998C112.141 75.1945 112.176 74.8891 112.259 74.5838L114.765 65.2359C115.047 64.1789 114.824 63.0633 114.165 62.1943L103.176 47.7379C102.729 47.1507 102.035 46.8101 101.306 46.8101H100.471C99.1765 46.8101 98.1294 45.7649 98.1294 44.4731C98.1294 43.1813 99.1765 42.1361 100.471 42.1361H102.929C104.718 42.1361 106.224 40.7974 106.435 39.0241L110.506 3.93412C110.753 1.83201 109.106 0 107 0H74.1529C72.0471 0 70.4 1.83201 70.6471 3.93412L73.7765 30.8857C72.0471 28.6075 69.3529 27.21 66.3647 27.21C65.7529 27.21 65.1294 27.2687 64.5294 27.3861C62.8824 26.2118 60.8941 25.5776 58.8118 25.5776C55.1765 25.5776 51.9765 27.5271 50.2588 30.51L53.3412 3.93412C53.5882 1.83201 51.9412 0 49.8353 0H16.9882C14.8824 0 13.2353 1.83201 13.4824 3.93412L17.5647 39.0241C17.7765 40.7974 19.2824 42.1361 21.0706 42.1361H23.5412C24.8353 42.1361 25.8824 43.1813 25.8824 44.4731C25.8824 45.7649 24.8353 46.8101 23.5412 46.8101H22.6941C21.9647 46.8101 21.2706 47.1507 20.8235 47.7379L9.81176 62.206C9.15294 63.075 8.92941 64.2024 9.21177 65.2476L11.7412 74.6425C11.8235 74.9361 11.8588 75.2532 11.8588 75.5585V94.548C11.8588 95.7693 10.8588 96.7675 9.63529 96.7675H8.67059C7.44706 96.7675 6.44706 97.7657 6.44706 98.9871V100.173C6.44706 101.395 5.44706 102.393 4.22353 102.393C3 102.393 2 103.391 2 104.612V115.78C2 117.002 3 118 4.22353 118H119.776C121 118 122 117.002 122 115.78V104.612C122 103.391 121 102.393 119.776 102.393ZM100.247 59.4228L100.6 59.8808H99.9177L100.247 59.4228ZM100.388 9.3949L97.6824 32.7412H83.4706L80.7647 9.3949H100.388ZM90.9412 56.2168L90.6588 56.6043L90.3765 56.2168H90.9412ZM71.8118 56.2168L71.5294 56.6043L71.2471 56.2168H71.8118ZM62.2706 59.8808H61.7059L61.9882 59.4932L62.2706 59.8808ZM52.7177 56.2168L52.4353 56.6043L52.1529 56.2168H52.7177ZM58.3529 39.165V35.4188C58.3529 35.1722 58.5529 34.9608 58.8118 34.9608C59 34.9608 59.1412 34.9608 59.6235 35.959C59.7765 36.2761 59.9529 36.6519 60.2471 37.0159L62.3176 39.6465L65.0588 37.7323C65.4353 37.4622 65.7529 37.1803 66 36.9572C66.0941 36.875 66.2235 36.7576 66.3176 36.6871C66.3529 36.781 66.3765 36.9102 66.4118 37.0864C66.4588 37.3447 66.5529 37.8145 66.8706 38.3547L67.8 39.9166L68.0353 39.9401H55.8C55.8235 39.9166 58.3529 39.165 58.3529 39.165ZM23.6 9.3949H43.2353L40.5294 32.7412H26.3059L23.6 9.3949ZM33.6235 56.2168L33.3412 56.6043L33.0588 56.2168H33.6235ZM23.7412 59.4228L24.0706 59.8808H23.3882L23.7412 59.4228ZM42.0471 87.4666C41.4118 87.2669 40.7294 87.1612 40.0235 87.1612C38.2118 87.1612 36.5647 87.8658 35.3294 89.0167C34.0941 87.8658 32.4353 87.1612 30.6235 87.1612C28.5882 87.1612 26.7529 88.042 25.4824 89.4512L20.0471 69.2757H20.4118L24.7059 81.8414L33.6118 78.8232L30.3529 69.2639H32.6118L36.8941 81.8296L42.0235 80.0916V87.4666H42.0471ZM42.6 59.8808L42.8824 59.4932L43.1647 59.8808H42.6ZM65.4706 108.605H58.5177V93.632C58.5177 91.7178 60.0824 90.1558 62 90.1558C63.9176 90.1558 65.4706 91.7178 65.4706 93.632V108.605ZM72.5294 86.2217C70.2 82.9218 66.3412 80.7609 62 80.7609C57.6471 80.7609 53.8 82.9218 51.4588 86.2217V78.4122H72.5294V86.2217ZM80.7882 59.8808L81.0941 59.4697L81.4 59.8808H80.7882ZM98.5412 89.3455C97.2824 88.0068 95.4941 87.1612 93.5059 87.1612C91.6941 87.1612 90.0353 87.8658 88.8118 89.005C87.5765 87.8658 85.9294 87.1612 84.1059 87.1612C83.3529 87.1612 82.6235 87.2787 81.9412 87.5018V80.3264L86.4 81.8414L90.6824 69.2757H92.9412L89.6824 78.835L98.5882 81.8531L102.882 69.2874H103.929L98.5412 89.3455Z" fill="white"/>
</g>
<path d="M97.082 103.814L102.847 82.3934L109.788 83.3094V103.814H97.082Z" fill="white"/>
<path d="M88.9531 103.814V94.0547C88.9531 91.5533 91.0002 89.5099 93.5061 89.5099C96.0119 89.5099 98.059 91.5533 98.059 94.0547V103.814H88.9531Z" fill="white"/>
<path d="M79.5527 103.814V94.0547C79.5527 91.5533 81.5998 89.5099 84.1057 89.5099C86.6116 89.5099 88.6586 91.5533 88.6586 94.0547V103.814H79.5527Z" fill="white"/>
<path d="M115.189 99.1163H74.8828V109.439H115.189V99.1163Z" fill="white"/>
<path d="M119.648 104.741H74.8828V115.651H119.648V104.741Z" fill="white"/>
<path d="M49.106 104.741H4.35303V115.651H49.106V104.741Z" fill="white"/>
<path d="M14.2236 103.814V83.368L21.1648 82.452L26.9178 103.814H14.2236Z" fill="white"/>
<path d="M26.0703 103.814V94.0547C26.0703 91.5533 28.1174 89.5099 30.6233 89.5099C33.1291 89.5099 35.1762 91.5533 35.1762 94.0547V103.814H26.0703Z" fill="white"/>
<path d="M35.4824 103.814V94.0547C35.4824 91.5533 37.5177 89.5099 40.0236 89.5099C42.5295 89.5099 44.5765 91.5533 44.5765 94.0547V103.814H35.4824Z" fill="white"/>
<path d="M49.1057 99.1163H8.7998V109.439H49.1057V99.1163Z" fill="white"/>
<path d="M51.459 115.651V93.6319C51.459 87.8306 56.1884 83.1096 62.0002 83.1096C67.8119 83.1096 72.5296 87.8306 72.5296 93.6319V115.651H51.459Z" fill="white"/>
<path d="M67.8234 115.651V93.632C67.8234 90.4143 65.2117 87.8072 61.9999 87.8072C58.7881 87.8072 56.1646 90.4143 56.1646 93.632V115.651H44.3999V71.3661H79.5881V115.651H67.8234Z" fill="white"/>
<path d="M74.8825 103.814V76.0635H49.106V103.814H22.0472L10.8472 62.2295H113.153L101.953 103.814H74.8825Z" fill="white"/>
<path d="M66.9058 66.9269L81.094 47.5146L95.2822 66.9269H66.9058Z" fill="white"/>
<path d="M57.3413 49.1705H85.7178L71.5295 68.5593L57.3413 49.1705Z" fill="white"/>
<path d="M47.8003 66.9269L61.9885 47.5382L76.1532 66.9269H47.8003Z" fill="white"/>
<path d="M38.2471 49.1705H66.6235L52.4353 68.5593L38.2471 49.1705Z" fill="white"/>
<path d="M28.6938 66.9269L42.8821 47.5382L57.0703 66.9269H28.6938Z" fill="white"/>
<path d="M20 49.6873L47.5294 49.1705L33.3412 68.5593L20 49.6873Z" fill="white"/>
<path d="M77.1884 39.7873L72.8354 2.34863H108.318L103.977 39.7873H77.1884Z" fill="white"/>
<path d="M20.0238 39.7873L15.6709 2.34863H51.1533L46.8121 39.7873H20.0238Z" fill="white"/>
<path d="M31.741 5.36682H20.5527V14.7617H31.741V5.36682Z" fill="white"/>
<path d="M39.0115 5.36682H27.8115V14.7617H39.0115V5.36682Z" fill="white"/>
<path d="M46.2708 5.36682H35.0825V14.7617H46.2708V5.36682Z" fill="white"/>
<path d="M32.0939 10.7572H21.1763V20.1521H32.0939V10.7572Z" fill="white"/>
<path d="M38.8708 10.7572H27.9531V20.1521H38.8708V10.7572Z" fill="white"/>
<path d="M45.6471 10.7572H34.7412V20.1521H45.6471V10.7572Z" fill="white"/>
<path d="M32.3879 16.1476H21.7173V25.5425H32.3879V16.1476Z" fill="white"/>
<path d="M38.7532 16.1476H28.0708V25.5425H38.7532V16.1476Z" fill="white"/>
<path d="M45.1056 16.1476H34.4351V25.5425H45.1056V16.1476Z" fill="white"/>
<path d="M32.6585 21.5377H22.1997V30.9326H32.6585V21.5377Z" fill="white"/>
<path d="M38.6469 21.5377H28.1763V30.9326H38.6469V21.5377Z" fill="white"/>
<path d="M44.6351 21.5377H34.1646V30.9326H44.6351V21.5377Z" fill="white"/>
<path d="M32.8936 26.9282H22.623V36.3231H32.8936V26.9282Z" fill="white"/>
<path d="M38.5529 26.9282H28.2705V36.3231H38.5529V26.9282Z" fill="white"/>
<path d="M44.212 26.9282H33.9297V36.3231H44.212V26.9282Z" fill="white"/>
<path d="M88.9055 5.58997H77.7173V14.9849H88.9055V5.58997Z" fill="white"/>
<path d="M96.1765 5.58997H84.9883V14.9849H96.1765V5.58997Z" fill="white"/>
<path d="M103.435 5.58997H92.2471V14.9849H103.435V5.58997Z" fill="white"/>
<path d="M89.259 10.9803H78.3413V20.3753H89.259V10.9803Z" fill="white"/>
<path d="M96.0353 10.9803H85.1177V20.3753H96.0353V10.9803Z" fill="white"/>
<path d="M102.823 10.9803H91.9058V20.3753H102.823V10.9803Z" fill="white"/>
<path d="M89.5529 16.3705H78.8823V25.7654H89.5529V16.3705Z" fill="white"/>
<path d="M95.9177 16.3705H85.2354V25.7654H95.9177V16.3705Z" fill="white"/>
<path d="M102.271 16.3705H91.6001V25.7654H102.271V16.3705Z" fill="white"/>
<path d="M89.8231 21.761H79.3643V31.1559H89.8231V21.761Z" fill="white"/>
<path d="M95.8114 21.761H85.3408V31.1559H95.8114V21.761Z" fill="white"/>
<path d="M101.8 21.761H91.3296V31.1559H101.8V21.761Z" fill="white"/>
<path d="M90.0592 27.1512H79.7886V36.5461H90.0592V27.1512Z" fill="white"/>
<path d="M95.7174 27.1512H85.4351V36.5461H95.7174V27.1512Z" fill="white"/>
<path d="M101.377 27.1512H91.0942V36.5461H101.377V27.1512Z" fill="white"/>
<path d="M114.012 105.916V100.291H108.612V74.572L111.365 64.3316L100.729 50.3449H94.5999V38.613H102.929L107 3.52307H74.1528L78.2352 38.613H86.5764V50.3449H37.4352V38.613H45.7646L49.8352 3.52307H16.9881L21.0705 38.613H29.4116V50.3449H23.2705L12.6234 64.3316L15.3999 74.6308V100.291H9.97636V105.916H5.5293V114.477H118.47V105.916H114.012ZM111.659 102.639V105.916H78.4117V102.639C96.4822 102.639 84.0587 102.639 111.659 102.639ZM83.0822 100.291V94.0547C83.0822 93.491 83.5411 93.033 84.1058 93.033C84.6705 93.033 85.1293 93.491 85.1293 94.0547V100.291H83.0822ZM92.4822 100.291V94.0547C92.4822 93.491 92.9411 93.033 93.5058 93.033C94.0705 93.033 94.5293 93.491 94.5293 94.0547V100.291H92.4822ZM101.682 100.291L106.259 83.3093V100.291H101.682ZM107.718 63.4038H92.9764L100.188 53.5275L107.718 63.4038ZM80.3293 36.2643L76.7999 5.8718H104.353L100.835 36.2643H80.3293ZM92.2469 38.613V50.3449H88.9293V38.613H92.2469ZM97.894 52.6936L90.6587 62.5818L83.4234 52.6936H97.894ZM88.3411 63.4038H73.8469L81.094 53.4922L88.3411 63.4038ZM78.7646 52.6936L71.5293 62.5818L64.294 52.6936H78.7646ZM69.2117 63.4038H54.7528L61.9881 53.5157L69.2117 63.4038ZM59.6705 52.6936L52.4352 62.5818L45.1999 52.6936H59.6705ZM50.1175 63.4038H35.6469L42.8822 53.5157L50.1175 63.4038ZM23.1646 36.2643L19.6352 5.8718H47.1881L43.6705 36.2643H23.1646ZM35.0822 38.613V50.3449H31.7646V38.613H35.0822ZM40.5764 52.6936L33.3411 62.5818L26.1058 52.6936H40.5764ZM23.7999 53.5275L31.0234 63.4038H16.2822L23.7999 53.5275ZM45.5764 112.128H7.88224V108.265H45.5764V112.128ZM45.5764 105.916H12.3293V102.639H45.5764V105.916ZM17.7528 100.291V83.368L22.3175 100.291H17.7528ZM29.5999 100.291V94.0547C29.5999 93.491 30.0587 93.033 30.6234 93.033C31.1881 93.033 31.6469 93.491 31.6469 94.0547V100.291H29.5999ZM39.0117 100.291V94.0547C39.0117 93.491 39.4587 93.033 40.0234 93.033C40.5881 93.033 41.0469 93.491 41.0469 94.0547V100.291H39.0117ZM45.5764 100.291H43.3999V94.0547C43.3999 92.1992 41.8822 90.6843 40.0234 90.6843C38.1646 90.6843 36.6587 92.1992 36.6587 94.0547V100.291H33.9999V94.0547C33.9999 92.1992 32.4822 90.6843 30.6234 90.6843C28.7646 90.6843 27.2469 92.1992 27.2469 94.0547V100.291H24.7528L15.4469 65.7526H22.9411L26.9175 77.3788L29.1411 76.6272L25.4352 65.7526H35.1528L39.1175 77.3788L41.3411 76.6272L37.6352 65.7526H85.6822L81.9764 76.6272L84.1999 77.3788L88.1646 65.7526H97.8822L94.1764 76.6272L96.3999 77.3788L100.376 65.7526H108.553L99.247 100.291H96.8822V94.0547C96.8822 92.1992 95.3646 90.6843 93.5058 90.6843C91.6469 90.6843 90.1293 92.1992 90.1293 94.0547V100.291H87.4822V94.0547C87.4822 92.1992 85.9646 90.6843 84.1058 90.6843C82.2469 90.6843 80.7293 92.1992 80.7293 94.0547V100.291H78.4117V72.5404H45.5764V100.291ZM68.9999 112.128H54.9881V93.632C54.9881 89.7683 58.1293 86.6327 61.9999 86.6327C65.8587 86.6327 68.9999 89.7683 68.9999 93.632V112.128ZM76.0587 112.128H71.3528V93.632C71.3528 88.4765 67.1528 84.284 61.9999 84.284C56.8352 84.284 52.6352 88.4765 52.6352 93.632V112.128H47.9293C47.9293 111.823 47.9293 100.279 47.9293 100.279V74.8891H76.0587V112.128ZM116.118 112.128H78.4117V108.265H116.118V112.128Z" fill="#323232"/>
<path d="M106.259 83.3092V100.29H101.682L106.259 83.3092Z" fill="#8A8A8A"/>
<path d="M94.5295 94.0546V100.291H92.4824V94.0546C92.4824 93.491 92.9412 93.033 93.5059 93.033C94.0707 93.033 94.5295 93.491 94.5295 94.0546Z" fill="#8A8A8A"/>
<path d="M85.1291 94.0546V100.291H83.082V94.0546C83.082 93.491 83.5409 93.033 84.1056 93.033C84.6703 93.033 85.1291 93.491 85.1291 94.0546Z" fill="#8A8A8A"/>
<path d="M111.659 102.639V105.916H78.4121V102.639C96.4827 102.639 84.0592 102.639 111.659 102.639Z" fill="#B1161B"/>
<path d="M116.118 108.264H78.4121V112.128H116.118V108.264Z" fill="#B1161B"/>
<path d="M45.5764 108.264H7.88232V112.128H45.5764V108.264Z" fill="#B1161B"/>
<path d="M22.3176 100.29H17.7529V83.3679L22.3176 100.29Z" fill="#8A8A8A"/>
<path d="M31.6472 94.0546V100.291H29.6001V94.0546C29.6001 93.491 30.0589 93.033 30.6236 93.033C31.1883 93.033 31.6472 93.491 31.6472 94.0546Z" fill="#8A8A8A"/>
<path d="M41.047 94.0546V100.291H39.0117V94.0546C39.0117 93.491 39.4588 93.033 40.0235 93.033C40.5882 93.033 41.047 93.491 41.047 94.0546Z" fill="#8A8A8A"/>
<path d="M45.5762 102.639H12.3291V105.916H45.5762V102.639Z" fill="#B1161B"/>
<path d="M69 93.6319V112.128H54.9883V93.6319C54.9883 89.7682 58.1295 86.6327 62 86.6327C65.8589 86.6327 69 89.7682 69 93.6319Z" fill="#8A8A8A"/>
<path d="M76.0591 74.8892V112.128H71.3532V93.632C71.3532 88.4765 67.1532 84.2841 62.0003 84.2841C56.8356 84.2841 52.6356 88.4765 52.6356 93.632V112.128H47.9297C47.9297 111.823 47.9297 100.279 47.9297 100.279V74.8892H76.0591Z" fill="#CCCCCC"/>
<path d="M108.553 65.7526L99.2473 100.291H96.8826V94.0547C96.8826 92.1992 95.3649 90.6843 93.5061 90.6843C91.6473 90.6843 90.1296 92.1992 90.1296 94.0547V100.291H87.4826V94.0547C87.4826 92.1992 85.9649 90.6843 84.1061 90.6843C82.2473 90.6843 80.7296 92.1992 80.7296 94.0547V100.291H78.412V72.5404H45.5767V100.291H43.4002V94.0547C43.4002 92.1992 41.8826 90.6843 40.0237 90.6843C38.1649 90.6843 36.659 92.1992 36.659 94.0547V100.291H34.0002V94.0547C34.0002 92.1992 32.4826 90.6843 30.6237 90.6843C28.7649 90.6843 27.2473 92.1992 27.2473 94.0547V100.291H24.7531L15.4473 65.7526H22.9414L26.9179 77.3788L29.1414 76.6272L25.4355 65.7526H35.1531L39.1179 77.3788L41.3414 76.6272L37.6355 65.7526H85.6825L81.9767 76.6272L84.2002 77.3788L88.1649 65.7526H97.8826L94.1767 76.6272L96.4002 77.3788L100.377 65.7526H108.553Z" fill="#CCCCCC"/>
<path d="M107.718 63.4039H92.9766L100.188 53.5275L107.718 63.4039Z" fill="#0280DB"/>
<path d="M97.8939 52.6936L90.6586 62.5817L83.4233 52.6936H97.8939Z" fill="#156BBD"/>
<path d="M88.3408 63.4039H73.8467L81.0937 53.4923L88.3408 63.4039Z" fill="#0280DB"/>
<path d="M78.765 52.6936L71.5297 62.5817L64.2944 52.6936H78.765Z" fill="#156BBD"/>
<path d="M69.2118 63.4038H54.7529L61.9882 53.5156L69.2118 63.4038Z" fill="#0280DB"/>
<path d="M59.6708 52.6936L52.4355 62.5817L45.2002 52.6936H59.6708Z" fill="#156BBD"/>
<path d="M50.1176 63.4038H35.647L42.8823 53.5156L50.1176 63.4038Z" fill="#0280DB"/>
<path d="M40.5765 52.6936L33.3413 62.5817L26.106 52.6936H40.5765Z" fill="#156BBD"/>
<path d="M31.0239 63.4039H16.2827L23.8004 53.5275L31.0239 63.4039Z" fill="#0280DB"/>
<path d="M76.8003 5.87183L80.3297 36.2643H100.836L104.353 5.87183H76.8003ZM81.2474 9.11307H85.3768V11.4618H81.2474V9.11307ZM81.8709 14.5034H85.7297V16.8521H81.8709V14.5034ZM82.4121 19.8937H86.0238V22.2424H82.4121V19.8937ZM82.8944 25.284H86.2944V27.6328H82.8944V25.284ZM86.5297 33.0231H83.3179V30.6744H86.5297V33.0231ZM92.1885 33.0231H88.965V30.6744H92.1885V33.0231ZM92.2826 27.6328H88.8709V25.284H92.2826V27.6328ZM92.3885 22.2424H88.765V19.8937H92.3885V22.2424ZM92.5062 16.8521H88.6474V14.5034H92.5062V16.8521ZM92.6474 11.4618H88.5179V9.11307H92.6474V11.4618ZM97.8473 33.0231H94.6238V30.6744H97.8473V33.0231ZM98.2709 27.6328H94.8591V25.284H98.2709V27.6328ZM98.7415 22.2424H95.1297V19.8937H98.7415V22.2424ZM99.2944 16.8521H95.4356V14.5034H99.2944V16.8521ZM99.9062 11.4618H95.7768V9.11307H99.9062V11.4618Z" fill="#FAB218"/>
<path d="M19.6357 5.87183L23.1652 36.2643H43.671L47.1887 5.87183H19.6357ZM24.0828 8.88994H28.2122V11.2387H24.0828V8.88994ZM24.7063 14.2803H28.5652V16.629H24.7063V14.2803ZM25.2475 19.6706H28.8593V22.0193H25.2475V19.6706ZM25.7299 25.0609H29.1299V27.4096H25.7299V25.0609ZM29.3652 32.8H26.1534V30.4512H29.3652V32.8ZM35.024 32.8H31.8004V30.4512H35.024V32.8ZM35.1181 27.4096H31.7063V25.0609H35.1181V27.4096ZM35.224 22.0193H31.6004V19.6706H35.224V22.0193ZM35.3416 16.629H31.4828V14.2803H35.3416V16.629ZM35.4828 11.2387H31.3416V8.88994H35.4828V11.2387ZM40.6828 32.8H37.4593V30.4512H40.6828V32.8ZM41.1063 27.4096H37.6946V25.0609H41.1063V27.4096ZM41.5769 22.0193H37.9652V19.6706H41.5769V22.0193ZM42.1181 16.629H38.271V14.2803H42.1181V16.629ZM42.7416 11.2387H38.6122V8.88994H42.7416V11.2387Z" fill="#FAB218"/>
<path d="M28.2119 8.88977H24.0825V11.2385H28.2119V8.88977Z" fill="#323232"/>
<path d="M35.4825 8.88977H31.3413V11.2385H35.4825V8.88977Z" fill="#323232"/>
<path d="M42.7412 8.88977H38.6118V11.2385H42.7412V8.88977Z" fill="#323232"/>
<path d="M28.5644 14.2803H24.7056V16.629H28.5644V14.2803Z" fill="#323232"/>
<path d="M35.3412 14.2803H31.4824V16.629H35.3412V14.2803Z" fill="#323232"/>
<path d="M42.1176 14.2803H38.2705V16.629H42.1176V14.2803Z" fill="#323232"/>
<path d="M28.8583 19.6707H25.2466V22.0194H28.8583V19.6707Z" fill="#323232"/>
<path d="M35.2236 19.6707H31.6001V22.0194H35.2236V19.6707Z" fill="#323232"/>
<path d="M41.5761 19.6707H37.9644V22.0194H41.5761V19.6707Z" fill="#323232"/>
<path d="M29.1295 25.0609H25.7295V27.4096H29.1295V25.0609Z" fill="#323232"/>
<path d="M35.1178 25.0609H31.7061V27.4096H35.1178V25.0609Z" fill="#323232"/>
<path d="M41.1056 25.0609H37.6938V27.4096H41.1056V25.0609Z" fill="#323232"/>
<path d="M29.3646 30.4513H26.1528V32.8H29.3646V30.4513Z" fill="#323232"/>
<path d="M35.0238 30.4513H31.8003V32.8H35.0238V30.4513Z" fill="#323232"/>
<path d="M40.6825 30.4513H37.459V32.8H40.6825V30.4513Z" fill="#323232"/>
<path d="M85.3765 9.11304H81.2471V11.4618H85.3765V9.11304Z" fill="#323232"/>
<path d="M92.647 9.11304H88.5176V11.4618H92.647V9.11304Z" fill="#323232"/>
<path d="M99.9058 9.11304H95.7764V11.4618H99.9058V9.11304Z" fill="#323232"/>
<path d="M85.7294 14.5034H81.8706V16.8521H85.7294V14.5034Z" fill="#323232"/>
<path d="M92.5058 14.5034H88.647V16.8521H92.5058V14.5034Z" fill="#323232"/>
<path d="M99.2939 14.5034H95.4351V16.8521H99.2939V14.5034Z" fill="#323232"/>
<path d="M86.0239 19.8937H82.4121V22.2424H86.0239V19.8937Z" fill="#323232"/>
<path d="M92.3882 19.8937H88.7646V22.2424H92.3882V19.8937Z" fill="#323232"/>
<path d="M98.7412 19.8937H95.1294V22.2424H98.7412V19.8937Z" fill="#323232"/>
<path d="M86.294 25.2841H82.894V27.6328H86.294V25.2841Z" fill="#323232"/>
<path d="M92.2824 25.2841H88.8706V27.6328H92.2824V25.2841Z" fill="#323232"/>
<path d="M98.2707 25.2841H94.8589V27.6328H98.2707V25.2841Z" fill="#323232"/>
<path d="M86.5296 30.6743H83.3179V33.023H86.5296V30.6743Z" fill="#323232"/>
<path d="M92.1884 30.6743H88.9648V33.023H92.1884V30.6743Z" fill="#323232"/>
<path d="M97.8471 30.6743H94.6235V33.023H97.8471V30.6743Z" fill="#323232"/>
<path d="M71.753 34.3736C70.8942 32.1893 68.7883 30.7214 66.3648 30.7214C65.4354 30.7214 64.506 30.9445 63.6942 31.3673C62.506 29.9345 60.7295 29.089 58.8118 29.089C55.6707 29.089 53.0471 31.3907 52.553 34.3971C49.9883 34.996 48.106 37.2978 48.106 40.0106C48.106 43.2048 50.6942 45.7884 53.8824 45.7884H70.5177C73.7177 45.7884 76.306 43.2048 76.306 40.0106C76.306 37.2743 74.3648 34.9491 71.753 34.3736ZM70.5177 43.4397H53.8824C52.0001 43.4397 50.4589 41.9013 50.4589 40.0106C50.4589 36.2056 54.706 36.5697 54.8236 36.5345V35.4188C54.8236 33.2227 56.6118 31.4377 58.8118 31.4377C61.8824 31.4377 62.6824 34.4089 63.0236 34.8434C63.8118 34.2914 64.5765 33.0701 66.3648 33.0701C69.5648 33.0701 69.8354 36.417 69.906 36.5345L70.7648 36.6049C72.553 36.7223 73.953 38.2255 73.953 40.0106C73.953 41.9013 72.4118 43.4397 70.5177 43.4397Z" fill="#323232"/>
<path d="M73.9531 40.0106C73.9531 41.9013 72.4119 43.4397 70.5178 43.4397H53.8825C52.0002 43.4397 50.459 41.9013 50.459 40.0106C50.459 36.2057 54.706 36.5697 54.8237 36.5345V35.4188C54.8237 33.2228 56.6119 31.4377 58.8119 31.4377C61.8825 31.4377 62.6825 34.4089 63.0237 34.8434C63.8119 34.2914 64.5766 33.0701 66.3649 33.0701C69.5649 33.0701 69.8355 36.417 69.906 36.5345L70.7649 36.6049C72.5531 36.7224 73.9531 38.2256 73.9531 40.0106Z" fill="white"/>
<defs>
<filter id="filter0_d" x="0" y="0" width="128" height="126" filterUnits="userSpaceOnUse" color-interpolation-filters="sRGB">
<feFlood flood-opacity="0" result="BackgroundImageFix"/>
<feColorMatrix in="SourceAlpha" type="matrix" values="0 0 0 0 0 0 0 0 0 0 0 0 0 0 0 0 0 0 127 0"/>
<feOffset dx="2" dy="4"/>
<feGaussianBlur stdDeviation="2"/>
<feColorMatrix type="matrix" values="0 0 0 0 0 0 0 0 0 0 0 0 0 0 0 0 0 0 0.25 0"/>
<feBlend mode="normal" in2="BackgroundImageFix" result="effect1_dropShadow"/>
<feBlend mode="normal" in="SourceGraphic" in2="effect1_dropShadow" result="shape"/>
</filter>
</defs>
</svg>
