<svg width="123" height="128" viewBox="0 0 123 128" fill="none" xmlns="http://www.w3.org/2000/svg">
<g filter="url(#filter0_d)">
<path d="M112.119 52.2102L112.635 50.7158C113.338 48.7037 111.979 46.5621 109.87 46.3503L97.7655 45.0912C96.6992 44.9853 96.2891 43.6674 97.0741 42.9378C99.4293 40.7256 101.058 37.8545 101.773 34.6303C102.71 30.3942 101.949 26.0404 99.6285 22.4044C96.6523 17.6858 91.5435 14.8735 85.9778 14.8735C82.9195 14.8735 79.9316 15.756 77.3069 17.4152C75.2681 18.7213 73.5925 20.4393 72.3388 22.4397L71.6943 21.816C71.8583 21.3689 72.0107 20.91 72.1278 20.4393C74.4245 11.7788 69.2688 2.85938 60.6448 0.564817C59.2973 0.176505 57.903 0 56.4969 0C49.1735 0 42.7524 4.96568 40.8776 12.073C40.198 14.6264 40.1628 17.2504 40.7253 19.7686C39.5887 19.7686 38.4755 19.4509 37.503 18.8625L28.422 13.3556C28.2463 13.2497 28.0939 13.132 27.9065 13.0379L27.098 12.4966H27.0042C26.4652 12.1789 25.6684 11.6846 24.4616 10.9551C23.1844 10.1902 13.9276 4.62444 13.9276 4.62444L13.7636 4.55383C12.1935 3.81251 10.4944 3.58894 8.73684 3.90665C7.00267 4.21259 5.39738 5.08335 4.21393 6.38949C0.347196 10.6491 1.8353 17.0622 6.49882 19.4626L16.6109 25.5462C17.6889 26.1934 18.5912 27.0877 19.259 28.1585L20.3019 29.8294L24.942 39.2195L29.0431 47.5152C29.4063 48.2565 30.3085 48.5625 31.0584 48.1977L32.0193 47.7152C32.6169 47.4211 33.3082 47.8564 33.3082 48.5154V84.5695C33.3082 85.0755 33.4253 86.0757 32.3473 85.3226C32.3473 85.3226 29.1485 82.6868 28.3166 83.2751C26.6058 84.4989 23.6882 87.1583 22.5633 91.5827C21.3682 96.2659 22.8914 100.22 24.0632 102.373C24.6139 103.373 25.8325 103.785 26.8871 103.338C27.9065 102.903 29.0079 102.444 29.0079 102.444C29.8281 102.091 30.7655 102.244 31.4803 102.773C33.0504 103.95 34.9955 104.644 37.0929 104.644H38.8153C37.5147 106.786 36.964 109.433 37.6085 112.222C38.4873 116.046 41.6158 119.082 45.4474 119.812C51.8451 121.024 57.4694 116.105 57.4694 109.892C57.4694 107.974 56.9187 106.174 55.993 104.644H70.4288C69.6555 105.927 69.1634 107.398 69.0227 108.998C68.5189 114.54 72.6083 119.459 78.1506 119.965L78.3029 119.976C78.5607 119.988 78.795 120 79.0528 120C84.2905 120 88.6025 116.046 89.0712 110.786C89.2704 108.551 88.7079 106.421 87.6182 104.644H92.9379C95.5275 104.644 97.6249 102.538 97.6249 99.9372V99.8313C97.6249 97.3132 95.586 95.2657 93.0785 95.2657H87.7354C85.9075 95.2657 85.3568 92.7829 86.9972 91.9945C92.5395 89.3116 97.039 86.6523 100.402 84.8166C101.48 84.2283 102.265 83.2516 103.413 83.6517C105.253 84.2871 107.268 83.2987 107.901 81.4395L113.291 65.6011H113.303L115.869 58.0349C116.314 56.7288 115.623 55.3167 114.322 54.8696L113.279 54.5048C112.295 54.2224 111.791 53.1751 112.119 52.2102ZM44.6272 82.275L42.6352 82.4279V80.9806H44.6272V82.275ZM44.6272 71.6023H42.6352V71.3787H44.6272V71.6023ZM44.6272 62.0004H42.6352V61.7651H44.6272V62.0004ZM44.6272 52.3867H42.6352V48.8096L44.6272 49.0096V52.3867ZM47.3925 110.645C46.9941 110.645 46.666 110.316 46.666 109.916C46.666 109.516 46.9941 109.186 47.3925 109.186C47.7791 109.186 48.1189 109.527 48.1189 109.916C48.1189 110.316 47.7909 110.645 47.3925 110.645ZM55.3954 81.4513L53.9659 81.5572V80.9806H55.3954V81.4513ZM55.3954 71.6023H53.9659V71.3787H55.3954V71.6023ZM55.3954 62.0004H53.9659V61.7651H55.3954V62.0004ZM55.3954 52.3867H53.9659V49.9863L55.3954 50.1392V52.3867ZM63.1172 18.0035C62.3204 21.0159 59.602 23.1104 56.5203 23.1104C55.9227 23.1104 55.3368 23.028 54.7393 22.8751C52.9817 22.4044 51.5053 21.2865 50.5913 19.6862C49.6774 18.1094 49.4313 16.262 49.9 14.4852C50.6968 11.4728 53.4152 9.37831 56.4969 9.37831C57.0945 9.37831 57.6803 9.46068 58.2662 9.61365C61.9103 10.5903 64.0897 14.344 63.1172 18.0035ZM66.1637 71.6023H64.7342V71.3787H66.1637V71.6023ZM66.1637 62.0004H64.7342V61.7651H66.1637V62.0004ZM66.1637 52.3867H64.7342V51.1041L66.1637 51.2571V52.3867ZM76.932 71.6023H75.5024V71.3787H76.932V71.6023ZM76.932 62.0004H75.5024V61.7651H76.932V62.0004ZM76.932 52.3867H75.5024V52.222L76.932 52.375V52.3867ZM78.9708 110.645C78.9591 110.645 78.9591 110.645 78.9708 110.645C78.5724 110.61 78.2677 110.245 78.3146 109.845C78.3498 109.492 78.6779 109.186 79.0294 109.186C79.0294 109.186 79.1231 109.186 79.1583 109.186C79.5332 109.257 79.8027 109.586 79.7676 109.975C79.709 110.363 79.4043 110.645 78.9708 110.645ZM87.712 71.6023H86.2707V71.3787H87.712V71.6023ZM87.712 62.0004H86.2707V61.7651H87.712V62.0004ZM92.6684 32.6064C92.27 34.395 91.2037 35.9247 89.6688 36.9014C88.5673 37.6074 87.3018 37.9722 86.0129 37.9722C83.6577 37.9722 81.5017 36.7837 80.2363 34.7951C79.2637 33.2536 78.9356 31.4179 79.334 29.6176C79.7324 27.829 80.7987 26.2993 82.3337 25.3108C83.4351 24.6048 84.7006 24.24 85.9895 24.24C88.3447 24.24 90.5007 25.4285 91.7662 27.4289C92.7504 28.9704 93.0668 30.806 92.6684 32.6064ZM98.82 62.0004H97.0624V61.7651H98.9138L98.82 62.0004Z" fill="white"/>
</g>
<path d="M94.7429 64.3185H79.2408V78.6625H94.7429V64.3185Z" fill="#000DFF"/>
<path d="M83.963 64.3185H68.4727V78.6625H83.963V64.3185Z" fill="#000DFF"/>
<path d="M73.1949 64.3185H57.7045V78.6625H73.1949V64.3185Z" fill="#000DFF"/>
<path d="M62.4263 64.3185H46.9359V78.6625H62.4263V64.3185Z" fill="#000DFF"/>
<path d="M62.4263 54.7048H46.9359V69.0606H62.4263V54.7048Z" fill="#000DFF"/>
<path d="M73.1949 54.7048H57.7045V69.0606H73.1949V54.7048Z" fill="#000DFF"/>
<path d="M83.963 54.7048H68.4727V69.0606H83.963V54.7048Z" fill="#000DFF"/>
<path d="M94.7429 54.7048H79.2408V69.0606H94.7429V54.7048Z" fill="#000DFF"/>
<path d="M26.0324 16.0267C26.0558 16.0385 26.0792 16.0503 26.091 16.062C26.0558 16.0385 26.0206 16.015 25.9855 15.9915C25.9855 15.9915 25.9972 16.0032 26.0089 16.0032C26.0089 16.015 26.0206 16.0267 26.0324 16.0267Z" fill="#000DFF"/>
<path d="M28.353 97.8541C28.0835 97.2306 27.9077 96.5836 27.8139 95.913L25.5285 96.2424C25.6574 97.1012 25.8918 97.9483 26.2317 98.7483L28.353 97.8541Z" fill="#323232"/>
<path d="M30.0167 89.1113L28.3759 87.476C27.9774 87.8877 27.6024 88.3348 27.2625 88.8054L29.1494 90.1348C29.419 89.7701 29.712 89.4289 30.0167 89.1113Z" fill="#323232"/>
<path d="M28.2241 91.9354L26.0676 91.1237C25.7629 91.9354 25.5637 92.7942 25.4699 93.6531L27.767 93.8884C27.8373 93.2178 27.9897 92.5589 28.2241 91.9354Z" fill="#323232"/>
<path d="M79.6042 103.361C75.9484 103.055 72.8198 105.727 72.5035 109.339C72.1754 112.952 74.8469 116.14 78.4442 116.47C78.6434 116.482 78.8308 116.493 79.03 116.493C82.4398 116.493 85.2403 113.916 85.5449 110.504C85.8613 106.892 83.2014 103.691 79.6042 103.361ZM78.6434 114.164C76.3233 113.952 74.5892 111.881 74.8001 109.539C74.9875 107.362 76.8506 105.656 79.0183 105.656C79.1472 105.656 79.2761 105.668 79.3933 105.668C81.725 105.88 83.4592 107.951 83.2483 110.292C83.0374 112.634 80.9986 114.364 78.6434 114.164Z" fill="#323232"/>
<path d="M83.2484 110.292C83.0375 112.634 80.9987 114.364 78.6435 114.164C76.3235 113.952 74.5893 111.881 74.8002 109.539C74.9877 107.362 76.8508 105.656 79.0185 105.656C79.1474 105.656 79.2763 105.668 79.3934 105.668C81.7252 105.88 83.4593 107.951 83.2484 110.292Z" fill="#D01319"/>
<path d="M47.393 103.338C43.7841 103.338 40.843 106.291 40.843 109.916C40.843 113.54 43.7841 116.493 47.393 116.493C51.002 116.493 53.943 113.54 53.943 109.916C53.943 106.291 51.002 103.338 47.393 103.338ZM47.393 114.175C45.0496 114.175 43.1513 112.269 43.1513 109.916C43.1513 107.574 45.0496 105.656 47.393 105.656C49.7248 105.656 51.6347 107.574 51.6347 109.916C51.6347 112.269 49.7248 114.175 47.393 114.175Z" fill="#323232"/>
<path d="M51.635 109.916C51.635 112.269 49.7251 114.175 47.3933 114.175C45.0498 114.175 43.1516 112.269 43.1516 109.916C43.1516 107.574 45.0498 105.656 47.3933 105.656C49.7251 105.656 51.635 107.574 51.635 109.916Z" fill="#D01319"/>
<path d="M26.0909 16.062C26.1378 16.0973 26.1846 16.1208 26.1846 16.1208C26.1846 16.1208 26.1495 16.0973 26.0909 16.062Z" fill="black"/>
<path d="M38.4769 88.6174L97.2864 84.0871L109.226 49.8334L38.7112 42.526L28.6226 21.8632C29.3256 19.6392 28.3296 17.1681 26.1853 16.1209C26.115 16.0856 26.0682 16.0503 26.033 16.0267C26.0213 16.0267 26.0096 16.015 25.9979 16.015L25.9861 16.0032C25.6346 15.7914 24.7324 15.2501 22.6584 13.991C20.5727 12.7437 17.3153 10.7786 12.2651 7.74275C9.88647 6.62488 7.05086 7.67215 5.94943 10.0491C4.848 12.426 5.85569 15.2266 8.18745 16.368L22.0022 24.6872L22.1077 24.7461C23.8067 25.5345 25.7401 25.2403 27.1344 24.0871L36.813 43.8792V87.0171L32.876 91.0297C31.7745 92.1475 31.1769 93.6302 31.1769 95.1952C31.1769 98.4782 33.8251 101.138 37.0825 101.138H94.0875V98.8194H37.0825C35.1023 98.8194 33.4735 97.1956 33.4735 95.1952C33.4735 94.2421 33.8485 93.336 34.5164 92.6535L38.4769 88.6174ZM93.5368 50.5394L106.086 51.8455L104.668 55.9169H93.5368V50.5394ZM93.5368 58.235H103.86L101.305 65.5305H93.5368V58.235ZM93.5368 67.8487H100.497L97.9543 75.1324H93.5368V67.8487ZM93.5368 77.4505H97.1458L95.5991 81.8867L93.5368 82.0514V77.4505ZM82.7568 49.4215L91.2285 50.304V55.9169H82.7568V49.4215ZM82.7568 58.235H91.2285V65.5305H82.7568V58.235ZM82.7568 67.8487H91.2285V75.1324H82.7568V67.8487ZM82.7568 77.4505H91.2285V82.2279L82.7568 82.8751V77.4505ZM71.9886 48.3036L80.4485 49.1862V55.9169H71.9886V48.3036ZM71.9886 58.235H80.4485V65.5305H71.9886V58.235ZM71.9886 67.8487H80.4485V75.1324H71.9886V67.8487ZM71.9886 77.4505H80.4485V83.0516L71.9886 83.7106V77.4505ZM61.2203 47.1858L69.6802 48.0683V55.9169H61.2203V47.1858ZM61.2203 58.235H69.6802V65.5305H61.2203V58.235ZM61.2203 67.8487H69.6802V75.1324H61.2203V67.8487ZM61.2203 77.4505H69.6802V83.8871L61.2203 84.5343V77.4505ZM50.452 46.0797L58.912 46.9504V55.9169H50.452V46.0797ZM50.452 58.235H58.912V65.5305H50.452V58.235ZM50.452 67.8487H58.912V75.1324H50.452V67.8487ZM50.452 77.4505H58.912V84.7225L50.452 85.3697V77.4505ZM39.1213 44.903L48.1437 45.8326V55.9169H39.1213V44.903ZM39.1213 58.235H48.1437V65.5305H39.1213V58.235ZM39.1213 67.8487H48.1437V75.1324H39.1213V67.8487ZM39.1213 77.4505H48.1437V85.5462L39.1213 86.2405V77.4505ZM26.3259 21.4513C25.7869 22.628 24.3223 23.1928 23.1271 22.6633C23.1271 22.6633 23.1271 22.6633 23.1037 22.6516C23.1037 22.6516 23.1037 22.6398 23.092 22.6398C23.0802 22.6398 23.0802 22.6398 23.0802 22.6398C23.0802 22.628 23.0685 22.628 23.0568 22.6163C23.0334 22.6045 23.0216 22.6045 23.0099 22.5927C22.9982 22.5927 22.9982 22.581 22.9982 22.581C22.9748 22.5692 22.9513 22.5574 22.9279 22.5457C22.9162 22.5457 22.8928 22.5339 22.881 22.5221C22.881 22.5103 22.881 22.5103 22.881 22.5103C22.0843 22.0397 19.0846 20.2275 9.21858 14.297C7.99997 13.7204 7.47269 12.2613 8.04684 11.0375C8.58584 9.86081 10.0505 9.296 11.234 9.82551L25.0488 18.133L25.1542 18.1919C26.3728 18.7684 26.9001 20.2275 26.3259 21.4513Z" fill="#323232"/>
<path d="M26.3251 21.4513C25.7861 22.628 24.3214 23.1928 23.1262 22.6633C23.1262 22.6633 23.1262 22.6633 23.1028 22.6515C23.1028 22.6515 23.1028 22.6397 23.0911 22.6397C23.0794 22.6397 23.0794 22.6397 23.0794 22.6397C23.0794 22.628 23.0677 22.628 23.0559 22.6162C23.0325 22.6044 23.0208 22.6044 23.0091 22.5927C22.9974 22.5927 22.9974 22.5809 22.9974 22.5809C22.9739 22.5691 22.9505 22.5574 22.927 22.5456C22.9153 22.5456 22.8919 22.5338 22.8802 22.5221C22.8802 22.5103 22.8802 22.5103 22.8802 22.5103C22.0834 22.0396 19.0837 20.2275 9.21771 14.2969C7.99911 13.7203 7.47182 12.2612 8.04598 11.0375C8.58498 9.86076 10.0496 9.29595 11.2331 9.82546L25.0479 18.133L25.1533 18.1918C26.372 18.7684 26.8992 20.2275 26.3251 21.4513Z" fill="#D01319"/>
<path d="M48.1431 77.4504V85.5461L39.1207 86.2404V77.4504H48.1431Z" fill="#CCCCCC"/>
<path d="M58.9112 77.4504V84.7225L50.4512 85.3696V77.4504H58.9112Z" fill="#CCCCCC"/>
<path d="M69.6793 77.4504V83.887L61.2194 84.5342V77.4504H69.6793Z" fill="#CCCCCC"/>
<path d="M80.448 77.4504V83.0515L71.988 83.7105V77.4504H80.448Z" fill="#CCCCCC"/>
<path d="M91.2278 77.4504V82.2278L82.7562 82.875V77.4504H91.2278Z" fill="#CCCCCC"/>
<path d="M97.1458 77.4504L95.5987 81.8857L93.536 82.0504V77.4504H97.1458Z" fill="#CCCCCC"/>
<path d="M100.496 67.8486L97.9535 75.1324H93.536V67.8486H100.496Z" fill="#CCCCCC"/>
<path d="M91.2278 67.8486H82.7562V75.1324H91.2278V67.8486Z" fill="#CCCCCC"/>
<path d="M80.448 67.8486H71.988V75.1324H80.448V67.8486Z" fill="#CCCCCC"/>
<path d="M69.6793 67.8486H61.2194V75.1324H69.6793V67.8486Z" fill="#CCCCCC"/>
<path d="M58.9112 67.8486H50.4512V75.1324H58.9112V67.8486Z" fill="#CCCCCC"/>
<path d="M48.1431 67.8486H39.1207V75.1324H48.1431V67.8486Z" fill="#CCCCCC"/>
<path d="M48.1431 58.235H39.1207V65.5305H48.1431V58.235Z" fill="#CCCCCC"/>
<path d="M58.9112 58.235H50.4512V65.5305H58.9112V58.235Z" fill="#CCCCCC"/>
<path d="M69.6793 58.235H61.2194V65.5305H69.6793V58.235Z" fill="#CCCCCC"/>
<path d="M80.448 58.235H71.988V65.5305H80.448V58.235Z" fill="#CCCCCC"/>
<path d="M91.2278 58.235H82.7562V65.5305H91.2278V58.235Z" fill="#CCCCCC"/>
<path d="M103.859 58.235L101.305 65.5305H93.536V58.235H103.859Z" fill="#CCCCCC"/>
<path d="M106.085 51.8454L104.668 55.9168H93.536V50.5393L106.085 51.8454Z" fill="#CCCCCC"/>
<path d="M91.2278 50.3031V55.9159H82.7562V49.4205L91.2278 50.3031Z" fill="#CCCCCC"/>
<path d="M80.448 49.1854V55.9161H71.988V48.3029L80.448 49.1854Z" fill="#CCCCCC"/>
<path d="M69.6793 48.0678V55.9164H61.2194V47.1853L69.6793 48.0678Z" fill="#CCCCCC"/>
<path d="M58.9112 46.9501V55.9166H50.4512V46.0793L58.9112 46.9501Z" fill="#CCCCCC"/>
<path d="M48.1431 45.8325V55.9169H39.1207V44.903L48.1431 45.8325Z" fill="#CCCCCC"/>
<path d="M26.0324 16.0267C26.0558 16.0385 26.0792 16.0503 26.091 16.062C26.0558 16.0385 26.0206 16.015 25.9855 15.9915C25.9855 15.9915 25.9972 16.0032 26.0089 16.0032C26.0089 16.015 26.0206 16.0267 26.0324 16.0267Z" fill="black"/>
<path d="M86.7494 87.1014L81.4298 87.8959L81.7693 90.1883L87.0889 89.3938L86.7494 87.1014Z" fill="#323232"/>
<path d="M77.4947 88.2446L51.0351 90.6028L51.2391 92.9114L77.6988 90.5533L77.4947 88.2446Z" fill="#323232"/>
<path d="M47.1887 38.3186L46.9247 40.621L73.3126 43.6727L73.5766 41.3703L47.1887 38.3186Z" fill="#323232"/>
<path d="M107.737 63.8227L102.369 79.6016L104.553 80.3512L109.921 64.5723L107.737 63.8227Z" fill="#323232"/>
<path d="M110.004 57.1601L108.902 60.3999L111.087 61.1495L112.189 57.9097L110.004 57.1601Z" fill="#323232"/>
<path d="M29.6631 35.6093L27.595 36.6399L31.2983 44.1348L33.3664 43.1042L29.6631 35.6093Z" fill="#323232"/>
<path d="M37.678 27.8893L35.6098 28.9199L39.3131 36.4148L41.3813 35.3842L37.678 27.8893Z" fill="#323232"/>
<path d="M27.0757 30.3875L25.0076 31.4178L26.5175 34.4744L28.5856 33.444L27.0757 30.3875Z" fill="#323232"/>
<path d="M59.7551 3.95303C58.6888 3.67062 57.5991 3.52942 56.4977 3.52942C50.7679 3.52942 45.7411 7.41253 44.2764 12.9783C43.4094 16.2613 43.8663 19.6855 45.5536 22.6273C47.2527 25.5573 49.9945 27.6518 53.2637 28.5343C54.33 28.8167 55.4197 28.9579 56.5211 28.9579C62.2392 28.9579 67.2659 25.0748 68.7423 19.509C70.5351 12.7312 66.5043 5.75338 59.7551 3.95303ZM66.516 18.9089C65.3091 23.4627 61.1963 26.6398 56.5211 26.6398C55.6189 26.6398 54.7283 26.5222 53.8495 26.2868C51.178 25.5808 48.94 23.8628 47.5573 21.4623C46.1629 19.0619 45.7997 16.2613 46.5027 13.5784C47.7096 9.02461 51.8224 5.84752 56.4977 5.84752C57.3999 5.84752 58.2904 5.96519 59.1692 6.20053C64.6764 7.67141 67.9807 13.3666 66.516 18.9089Z" fill="#323232"/>
<path d="M66.5161 18.9095C65.3092 23.4634 61.1964 26.6405 56.5212 26.6405C55.6189 26.6405 54.7284 26.5228 53.8496 26.2874C51.178 25.5814 48.94 23.8634 47.5574 21.463C46.163 19.0625 45.7998 16.262 46.5028 13.5791C47.7097 9.02524 51.8225 5.84814 56.4977 5.84814C57.4 5.84814 58.2905 5.96581 59.1693 6.20116C64.6764 7.67203 67.9807 13.3673 66.5161 18.9095Z" fill="#FAB218"/>
<path d="M96.6763 24.2871C94.3446 20.5923 90.3489 18.3918 85.9901 18.3918C83.588 18.3918 81.2445 19.0861 79.2057 20.3805C76.3584 22.2044 74.3782 25.0402 73.64 28.3467C72.9135 31.665 73.5111 35.0657 75.3273 37.9369C77.659 41.6199 81.6547 43.8204 86.0135 43.8204C88.4156 43.8204 90.7591 43.1379 92.7979 41.8317C98.6917 38.0663 100.426 30.1942 96.6763 24.2871ZM91.5558 39.8784C89.892 40.9374 87.9703 41.5023 86.0135 41.5023C82.4514 41.5023 79.1823 39.7019 77.2724 36.6895C75.7842 34.3479 75.3038 31.5591 75.9014 28.8527C76.499 26.1463 78.116 23.8282 80.4478 22.3338C82.1116 21.2748 84.0333 20.7099 85.9901 20.7099C89.5522 20.7099 92.8213 22.5103 94.7312 25.5344C97.8012 30.3707 96.3717 36.8072 91.5558 39.8784Z" fill="#323232"/>
<path d="M91.5556 39.8784C89.8918 40.9375 87.9701 41.5023 86.0133 41.5023C82.4512 41.5023 79.1821 39.7019 77.2721 36.6896C75.784 34.3479 75.3036 31.5591 75.9012 28.8527C76.4988 26.1463 78.1158 23.8282 80.4476 22.3338C82.1114 21.2748 84.0331 20.71 85.9899 20.71C89.552 20.71 92.8211 22.5103 94.731 25.5344C97.801 30.3707 96.3715 36.8072 91.5556 39.8784Z" fill="#0094FF"/>
<defs>
<filter id="filter0_d" x="0.00390625" y="0" width="122" height="128" filterUnits="userSpaceOnUse" color-interpolation-filters="sRGB">
<feFlood flood-opacity="0" result="BackgroundImageFix"/>
<feColorMatrix in="SourceAlpha" type="matrix" values="0 0 0 0 0 0 0 0 0 0 0 0 0 0 0 0 0 0 127 0"/>
<feOffset dx="2" dy="4"/>
<feGaussianBlur stdDeviation="2"/>
<feColorMatrix type="matrix" values="0 0 0 0 0 0 0 0 0 0 0 0 0 0 0 0 0 0 0.25 0"/>
<feBlend mode="normal" in2="BackgroundImageFix" result="effect1_dropShadow"/>
<feBlend mode="normal" in="SourceGraphic" in2="effect1_dropShadow" result="shape"/>
</filter>
</defs>
</svg>
