<svg width="137" height="122" viewBox="0 0 137 122" fill="none" xmlns="http://www.w3.org/2000/svg">
<g filter="url(#filter0_d)">
<path d="M9.21569 113.985C7.18274 113.985 5.52627 112.331 5.52627 110.274V103.937H5.85255C3.36784 100.238 2 95.8329 2 91.1372V89.8245C2 87.7795 3.64392 86.1133 5.68941 86.1133C7.72235 86.1133 9.37882 84.4597 9.37882 82.4022V14.8319C9.36627 6.63964 15.9671 0 24.1114 0H107.864C116.008 0 122.621 6.63964 122.621 14.8445V82.4148C122.621 84.4597 124.265 86.126 126.311 86.126H126.323C128.356 86.126 130.013 87.7795 130.013 89.8371V91.1499C130.013 95.7825 128.594 100.226 126.085 103.949H126.474V110.286C126.474 112.331 124.83 113.997 122.784 113.997H9.21569V113.985ZM22.1788 96.1611C18.0376 96.1611 16.9961 102.119 20.9616 103.356C22.1537 103.735 23.4212 103.937 24.7263 103.937H107.286C108.591 103.937 109.859 103.735 111.051 103.356C115.004 102.119 113.975 96.1611 109.834 96.1611H22.1788ZM112.632 82.4148V14.8319C112.632 12.1811 110.499 10.0478 107.876 10.0478H24.1114C21.4761 10.0478 19.3553 12.1937 19.3553 14.8319V82.4022C19.3553 84.4471 20.9992 86.1133 23.0447 86.1133H108.955C110.988 86.1133 112.632 84.4597 112.632 82.4148Z" fill="white"/>
</g>
<path d="M126.235 91.1377V89.9007H118.856V11.1339C118.856 7.08193 115.581 3.78735 111.553 3.78735H20.4345C16.4062 3.78735 13.1309 7.08193 13.1309 11.1339V89.9007H5.76465V91.1377C5.76465 98.0424 9.39131 104.303 15.3897 107.724H9.30347V110.198H122.696V107.724H116.585C122.332 104.442 126.235 98.2444 126.235 91.1377ZM15.5905 11.1339C15.5905 8.4452 17.7615 6.26144 20.4345 6.26144H111.553C114.226 6.26144 116.397 8.4452 116.397 11.1339V89.9007H15.5905V11.1339ZM107.274 107.724H24.7137C15.9043 107.724 8.88935 100.845 8.2619 92.3748H123.725C123.098 100.946 115.958 107.724 107.274 107.724Z" fill="#323232"/>
<path d="M8.26221 92.3743C8.88966 100.844 15.9046 107.724 24.714 107.724H107.274C115.958 107.724 123.098 100.945 123.726 92.3743H8.26221ZM54.5681 101.286H42.132V98.8119H54.5681V101.286ZM66.0003 104.379C63.6285 104.379 61.6959 102.435 61.6959 100.049C61.6959 97.6633 63.6285 95.7193 66.0003 95.7193C68.372 95.7193 70.3046 97.6633 70.3046 100.049C70.3046 102.435 68.372 104.379 66.0003 104.379ZM89.8685 101.286H77.4324V98.8119H89.8685V101.286Z" fill="#CCCCCC"/>
<path d="M111.553 6.26184H20.4347C17.7618 6.26184 15.5908 8.4456 15.5908 11.1343V89.9011H116.397V11.1343C116.397 8.4456 114.226 6.26184 111.553 6.26184ZM104.099 70.4871V77.5307H93.1061V75.0566H101.652V70.4871H104.099ZM101.652 67.3187V63.494H104.099V67.3187H101.652ZM98.5273 60.1994H35.3304V30.4094H98.5273V60.1994ZM111.478 84.9529H38.5555V82.4788H109.018V13.6841H22.9696V82.4788H31.9422V84.9529H20.51V11.21H111.478V84.9529ZM27.8889 30.0939V17.9633H30.3485V30.0939H27.8889ZM30.3485 33.6914V38.6395H27.8889V33.6914H30.3485Z" fill="#CCCCCC"/>
<path d="M111.478 11.2091H20.5098V84.952H111.478V11.2091Z" fill="#3160F4"/>
<path d="M111.478 11.2091V84.952H38.5553V82.4779H109.018V13.6832H22.9694V82.4779H31.9419V84.952H20.5098V11.2091H111.478Z" fill="#323232"/>
<path d="M30.3483 33.6904H27.8887V38.6393H30.3483V33.6904Z" fill="#FCFCFC"/>
<path d="M30.3483 17.9623H27.8887V30.0929H30.3483V17.9623Z" fill="#FCFCFC"/>
<path d="M104.099 63.4932H101.652V67.3184H104.099V63.4932Z" fill="#FCFCFC"/>
<path d="M104.099 70.4861V77.5306H93.106V75.0562H101.652V70.4861H104.099Z" fill="#FCFCFC"/>
<path d="M66.0001 95.7192C63.6284 95.7192 61.6958 97.6632 61.6958 100.049C61.6958 102.435 63.6284 104.379 66.0001 104.379C68.3719 104.379 70.3044 102.435 70.3044 100.049C70.3044 97.6632 68.3719 95.7192 66.0001 95.7192ZM66.0001 101.904C64.9836 101.904 64.1554 101.071 64.1554 100.049C64.1554 99.0264 64.9836 98.1933 66.0001 98.1933C67.0166 98.1933 67.8448 99.0264 67.8448 100.049C67.8448 101.071 67.0166 101.904 66.0001 101.904Z" fill="#B7151A"/>
<path d="M67.8447 100.049C67.8447 101.072 67.0164 101.905 66 101.905C64.9835 101.905 64.1553 101.072 64.1553 100.049C64.1553 99.0266 64.9835 98.1934 66 98.1934C67.0164 98.1934 67.8447 99.0266 67.8447 100.049Z" fill="#FFC32D"/>
<path d="M89.8682 98.8119H77.4321V101.286H89.8682V98.8119Z" fill="#B7151A"/>
<path d="M54.5679 98.8119H42.1318V101.286H54.5679V98.8119Z" fill="#B7151A"/>
<path d="M35.3301 30.4084V60.1985H98.5269V30.4084H35.3301ZM96.0171 57.6739H37.8399V32.933H96.0171V57.6739Z" fill="#323232"/>
<path d="M96.0171 32.9333H37.8399V57.6742H96.0171V32.9333Z" fill="#FCFCFC"/>
<path d="M41.6628 49.1752L43.2865 49.9933L44.3801 47.6754L45.5399 49.9933L47.1306 49.1752L45.6394 46.0734L47.8265 45.153L47.1306 43.4146L45.3411 44.1986L45.2748 40.9945H43.4522L43.5185 44.1986L41.6628 43.4146L41 45.153L43.154 46.0734L41.6628 49.1752Z" fill="#B7151A"/>
<path d="M50.4975 49.1752L52.1212 49.9933L53.2148 47.6754L54.3746 49.9933L55.9653 49.1752L54.4741 46.0734L56.6612 45.153L55.9653 43.4146L54.1758 44.1986L54.1095 40.9945H52.2869L52.3532 44.1986L50.4975 43.4146L49.8347 45.153L51.9887 46.0734L50.4975 49.1752Z" fill="#B7151A"/>
<path d="M59.3322 49.1752L60.9559 49.9933L62.0495 47.6754L63.2093 49.9933L64.8 49.1752L63.3088 46.0734L65.4959 45.153L64.8 43.4146L63.0105 44.1986L62.9442 40.9945H61.1216L61.1879 44.1986L59.3322 43.4146L58.6694 45.153L60.8234 46.0734L59.3322 49.1752Z" fill="#B7151A"/>
<path d="M68.1669 49.1752L69.7906 49.9933L70.8842 47.6754L72.0441 49.9933L73.6347 49.1752L72.1435 46.0734L74.3306 45.153L73.6347 43.4146L71.8452 44.1986L71.7789 40.9945H69.9563L70.0226 44.1986L68.1669 43.4146L67.5041 45.153L69.6581 46.0734L68.1669 49.1752Z" fill="#B7151A"/>
<path d="M77.0016 49.1752L78.6254 49.9933L79.7189 47.6754L80.8788 49.9933L82.4694 49.1752L80.9782 46.0734L83.1653 45.153L82.4694 43.4146L80.6799 44.1986L80.6136 40.9945H78.791L78.8573 44.1986L77.0016 43.4146L76.3388 45.153L78.4928 46.0734L77.0016 49.1752Z" fill="#B7151A"/>
<path d="M85.8363 49.1752L87.4601 49.9933L88.5536 47.6754L89.7135 49.9933L91.3041 49.1752L89.8129 46.0734L92 45.153L91.3041 43.4146L89.5146 44.1986L89.4484 40.9945H87.6258L87.692 44.1986L85.8363 43.4146L85.1735 45.153L87.3275 46.0734L85.8363 49.1752Z" fill="#B7151A"/>
<defs>
<filter id="filter0_d" x="0" y="0" width="136.013" height="121.997" filterUnits="userSpaceOnUse" color-interpolation-filters="sRGB">
<feFlood flood-opacity="0" result="BackgroundImageFix"/>
<feColorMatrix in="SourceAlpha" type="matrix" values="0 0 0 0 0 0 0 0 0 0 0 0 0 0 0 0 0 0 127 0"/>
<feOffset dx="2" dy="4"/>
<feGaussianBlur stdDeviation="2"/>
<feColorMatrix type="matrix" values="0 0 0 0 0 0 0 0 0 0 0 0 0 0 0 0 0 0 0.25 0"/>
<feBlend mode="normal" in2="BackgroundImageFix" result="effect1_dropShadow"/>
<feBlend mode="normal" in="SourceGraphic" in2="effect1_dropShadow" result="shape"/>
</filter>
</defs>
</svg>
