<svg width="119" height="125" viewBox="0 0 119 125" fill="none" xmlns="http://www.w3.org/2000/svg">
<g filter="url(#filter0_d)">
<path d="M100.434 5.46558L98.7387 3.49456C96.5164 0.893279 92.2551 2.54343 92.3582 5.95834L92.4383 8.55962C92.656 15.5842 92.2551 23.6402 87.673 30.1835C86.4473 31.9368 85.0727 33.4265 83.5263 34.6756C85.004 31.6733 86.0578 28.1781 86.2411 24.0871L86.3099 22.4943C86.4588 19.0794 82.4495 17.1656 79.8835 19.4231L78.7151 20.4545C77.8789 21.1879 77.1114 21.8984 76.3324 22.6318C74.9922 23.8809 73.7321 25.0612 72.4492 25.9665C71.5786 26.5853 70.6278 27.1124 69.5854 27.5593C69.0699 24.1903 68.0275 21.0045 66.4467 17.9105C61.2919 7.89498 49.4472 1.56938 40.4206 0.515118L36.2166 0.0223636C33.3528 -0.309959 31.6689 3.13932 33.685 5.19056C35.1169 6.6459 35.8386 8.67422 35.6438 10.714L34.9221 18.1397C34.842 18.8387 34.7961 19.5148 34.7618 20.0992C34.6816 21.1535 34.6014 22.2422 34.4067 23.1589C33.8568 25.7373 31.9438 27.9375 29.8704 30.2981C27.3618 33.1859 24.3834 37.0592 22.9515 42.0669C22.6193 42.2388 22.2871 42.4336 21.9435 42.6284L21.5425 42.8576L19.8128 43.8661V43.9692C17.5905 45.4475 15.5286 47.1205 13.6614 48.9884C11.5766 51.0855 9.72085 53.4117 8.1515 55.8984L8.10568 55.9214L7.33819 57.2277C6.47905 58.706 5.71156 60.2874 5.03571 61.9146C3.00815 66.8078 1.98864 71.9416 2.0001 77.1786L2.01155 79.0235L2.05737 79.0694C2.33229 84.7074 3.81001 90.2652 6.37596 95.2959L6.76543 96.1095L7.62456 97.5763C8.82735 99.5932 10.2249 101.53 11.7942 103.317C12.4128 104.028 13.0428 104.704 13.6614 105.323C16.1243 107.787 18.8964 109.918 21.7946 111.591L22.184 111.832L23.8909 112.863L24.0169 112.794C29.1144 115.338 34.7503 116.771 40.4893 116.966L40.5581 117H41.841C43.5822 117 45.3349 116.885 47.0531 116.656C51.9559 116.003 56.6296 114.467 60.9367 112.118H60.9482L63.4569 110.674V110.594C63.4683 110.583 63.4798 110.583 63.4912 110.571C65.6792 109.15 68.1306 108.165 70.7309 107.844C72.8272 107.592 74.8662 107.202 76.8136 106.675C85.7486 104.292 93.16 99.1921 98.2346 91.9154C100.228 89.0849 101.832 86.3117 103.149 83.4469C104.329 80.8456 105.245 78.2214 105.864 75.6315L107.387 69.2487C107.834 67.3578 105.692 65.9254 104.123 67.0599C107.284 62.6824 109.896 57.6174 111.557 51.7043C116.105 35.3976 109.22 15.7103 100.434 5.46558Z" fill="white"/>
</g>
<path d="M108.246 50.7761C112.473 35.6268 106.036 17.2803 97.8223 7.7002L95.7833 5.31664L95.8749 8.45652C96.104 16.0427 95.6458 24.7862 90.491 32.1546C86.3328 38.102 80.6281 41.5284 72.7012 42.7889C77.9934 38.0791 82.4266 32.3608 82.8046 23.9382L82.9191 21.3369L80.9718 23.0558C80.1585 23.7663 79.4139 24.4653 78.6807 25.1529C77.2488 26.4936 75.8857 27.7656 74.4309 28.7855C71.9909 30.5044 69.3104 31.5014 66.5383 32.1431C66.4467 27.5937 65.4157 23.434 63.3996 19.4919C58.8404 10.6338 47.9581 4.85827 40.0197 3.93006L36.9039 3.56335L39.1033 5.79794C42.368 9.14409 45.8274 13.2924 46.572 18.7356C47.1104 22.6777 46.2398 26.2301 43.8457 29.7137C44.0633 25.6686 43.3989 21.6005 40.2831 17.9105L38.5878 15.9051L38.3358 18.5064C38.267 19.1482 38.2212 19.767 38.1868 20.3514C38.0952 21.6005 38.0036 22.7808 37.763 23.8694C37.0299 27.3416 34.7045 29.9888 32.4593 32.5557C29.9277 35.4663 26.9379 39.4198 25.9069 44.4276C25.1395 44.7943 24.3834 45.1954 23.6388 45.6194L23.2379 45.8486V45.8715C20.6376 47.4185 18.232 49.2749 16.0899 51.4178C13.9478 53.5722 12.0921 55.9672 10.5571 58.5571L10.5342 58.5685L10.3051 58.9581C9.5032 60.3447 8.80443 61.7771 8.19731 63.244C6.37595 67.6444 5.42517 72.3886 5.43663 77.1786V77.637L5.44808 77.6484C5.52827 83.699 7.12053 89.6464 10.0645 94.9178L10.179 95.1126L10.3623 95.4678C11.5078 97.4503 12.8596 99.3296 14.3831 101.071C14.9329 101.702 15.5057 102.321 16.0899 102.905C18.3351 105.151 20.8667 107.099 23.6045 108.681L23.9939 108.921L24.0168 108.91C29.2748 111.866 35.2429 113.471 41.337 113.562L41.3599 113.574H41.8525C43.4562 113.574 45.037 113.471 46.6064 113.264C51.3259 112.634 55.8965 111.087 60.0318 108.703C60.0318 108.703 60.0318 108.692 60.0432 108.692L60.4213 108.474L60.4327 108.451C62.2312 107.374 63.9494 106.148 65.5417 104.773C69.1501 104.716 72.6439 104.257 75.943 103.375C84.0761 101.209 90.8232 96.5679 95.4396 89.9558C97.3297 87.2743 98.8303 84.673 100.033 82.0374C101.11 79.6767 101.958 77.2588 102.53 74.8523L103.218 71.9531L100.801 73.6949C97.135 76.3421 94.9012 77.8776 91.3387 80.0205C88.5436 81.7051 84.6718 83.4011 80.8687 82.9312C92.2322 75.8608 103.882 66.4297 108.246 50.7761ZM34.1317 34.011C36.4457 31.3639 39.0689 28.3615 39.928 24.3393C40.0999 23.5256 40.2029 22.712 40.2831 21.8755C41.9441 25.1758 41.8983 28.8428 41.2568 33.1401L40.7413 36.6696L43.1698 34.0683C47.7061 29.1866 49.5389 24.0757 48.7599 18.4377C48.107 13.682 45.69 9.88895 42.9865 6.74907C49.8367 8.53674 57.8095 13.4643 61.4293 20.5118C63.3538 24.259 64.2931 28.2125 64.3389 32.5786C62.3801 32.9109 60.3983 33.1286 58.451 33.3349C51.8643 34.0339 43.4562 35.558 36.6633 41.1273C33.8568 41.5284 31.1076 42.2618 28.4729 43.3046C29.3779 40.3366 31.1763 37.3915 34.1317 34.011ZM25.1395 47.3268C25.4258 47.1664 25.7122 47.0174 25.9986 46.8685C26.2964 46.7195 26.5828 46.5591 26.8806 46.4101C27.2472 46.2267 27.6367 46.0663 28.0147 45.8944C28.3011 45.7684 28.576 45.6423 28.8624 45.5277C29.2862 45.3444 29.733 45.1954 30.1683 45.035C30.4088 44.9433 30.6494 44.8401 30.8899 44.7599C31.5543 44.5422 32.2302 44.3359 32.906 44.1526C32.9289 44.1411 32.9519 44.1411 32.9748 44.1297C33.6735 43.9463 34.3837 43.7859 35.094 43.6369C35.3231 43.5911 35.5522 43.5681 35.7927 43.5223C36.2509 43.4421 36.7206 43.3504 37.1903 43.2931H37.5224L37.5797 43.2473C37.7516 43.2244 37.9348 43.2129 38.1067 43.19C38.5534 43.1441 38.9887 43.0869 39.424 43.0639C39.7447 43.041 40.054 43.0296 40.3748 43.0181C40.7184 43.0066 41.0621 42.9952 41.4057 42.9837L48.0383 49.6187L44.6361 62.3157L31.9438 65.7077L22.6995 56.46L25.1395 47.3268ZM56.6525 74.3252L69.3219 70.9218L76.0002 77.5911C75.9888 77.9464 75.9773 78.3016 75.9659 78.6569C75.9544 78.9548 75.943 79.2528 75.9201 79.5622C75.8971 80.0091 75.8399 80.456 75.794 80.8914C75.7597 81.1779 75.7368 81.453 75.7024 81.728C75.6337 82.2322 75.5535 82.725 75.4618 83.2177C75.416 83.4354 75.3931 83.6646 75.3473 83.8823C75.0609 85.3148 74.6829 86.7243 74.2247 88.0994C74.156 88.3057 74.0643 88.512 73.9956 88.7068C73.8238 89.1881 73.6519 89.6694 73.4572 90.1392C73.3541 90.3913 73.2395 90.6319 73.1365 90.884C72.9532 91.2966 72.7699 91.7206 72.5637 92.1331C72.4377 92.3967 72.3002 92.6488 72.1628 92.9009C72.0024 93.2218 71.8306 93.5426 71.6587 93.8635L62.529 96.3044L53.2389 87.0108L56.6525 74.3252ZM51.0968 86.4378L38.416 89.8298L29.1602 80.5706L32.5509 67.885L45.2432 64.4816L54.499 73.7408L51.0968 86.4378ZM70.8798 69.3518L72.7126 62.5335C74.4652 66.2349 75.542 70.2457 75.8742 74.3481L70.8798 69.3518ZM68.7491 68.7789L56.0683 72.1823L46.8126 62.9116L50.2262 50.1802L59.2643 47.7623C59.5507 47.9342 59.8485 48.1175 60.1349 48.3009C60.3983 48.4613 60.6618 48.6218 60.9138 48.7936C61.2804 49.0457 61.6355 49.2979 61.9792 49.5614C62.2197 49.7333 62.4603 49.8937 62.6894 50.0771C63.0788 50.375 63.4454 50.6844 63.8234 51.0053C64.0067 51.1657 64.2015 51.3147 64.3847 51.4751C64.9346 51.9564 65.473 52.4607 65.9999 52.9878C66.5154 53.5035 67.008 54.0306 67.4891 54.5806C67.6265 54.7411 67.7525 54.9015 67.89 55.0619C68.2222 55.4516 68.5544 55.8526 68.8751 56.2537C69.047 56.4714 69.1959 56.7006 69.3563 56.9184C69.6312 57.2851 69.8947 57.6403 70.1467 58.0185C70.3299 58.282 70.4903 58.5571 70.6621 58.8206C70.8454 59.1071 71.0173 59.3821 71.1891 59.6686L68.7491 68.7789ZM49.5962 48.0602L44.6475 43.0983C48.7141 43.4306 52.7005 44.4964 56.389 46.2382L49.5962 48.0602ZM17.6593 52.9878C19.1141 51.5324 20.7063 50.2146 22.3902 49.0572L20.5574 55.887L13.7301 57.7091C14.8986 56.0245 16.2044 54.4431 17.6593 52.9878ZM7.69329 75.6774C7.70474 75.3795 7.7162 75.0701 7.73911 74.7721C7.76202 74.3252 7.81929 73.8897 7.86511 73.4428C7.89948 73.1563 7.92239 72.8813 7.95675 72.5948C8.01403 72.1135 8.10567 71.6437 8.18586 71.1624C8.23168 70.9218 8.26604 70.6811 8.31186 70.4405C8.44933 69.7644 8.6097 69.0768 8.78152 68.4121C8.80443 68.3434 8.82734 68.2746 8.8388 68.2059C9.02208 67.5412 9.21682 66.888 9.43447 66.2349C9.51465 65.9942 9.61775 65.765 9.69793 65.5244C9.85831 65.0775 10.0187 64.6305 10.202 64.1951C10.3051 63.9201 10.4425 63.6565 10.5571 63.3929C10.7289 62.9918 10.9007 62.5908 11.0955 62.2011C11.2329 61.9261 11.3818 61.6511 11.5193 61.3875C11.6797 61.0781 11.84 60.7687 12.0119 60.4593L21.1302 58.0185L30.3859 67.2777L26.9837 79.9747L14.2914 83.3667L7.65892 76.7317C7.67038 76.3764 7.68183 76.0327 7.69329 75.6774ZM7.77347 79.9862L12.7335 84.9366L10.9122 91.732C9.171 88.0421 8.11713 84.0542 7.77347 79.9862ZM23.4441 105.988C23.1921 105.816 22.9401 105.667 22.6881 105.495C22.3215 105.254 21.9778 104.991 21.6227 104.727C21.3936 104.555 21.1531 104.395 20.924 104.223C20.5459 103.925 20.1794 103.615 19.8128 103.306C19.6295 103.146 19.4348 102.997 19.2515 102.836C18.7017 102.355 18.1747 101.862 17.6593 101.346C17.1323 100.819 16.6397 100.292 16.1472 99.7422C15.9753 99.5359 15.815 99.3296 15.6431 99.1234C15.3453 98.7681 15.0475 98.4129 14.7611 98.0462C14.5664 97.8055 14.3945 97.5534 14.2227 97.3013C13.9707 96.9575 13.7187 96.6138 13.4781 96.27C13.3063 96.0064 13.1345 95.7314 12.9741 95.4678C12.7908 95.1813 12.6075 94.8948 12.4357 94.5969L14.8527 85.5554L27.5909 82.1405L36.8466 91.3997L33.4444 104.097L24.3376 106.538C24.0398 106.354 23.7419 106.171 23.4441 105.988ZM27.1899 108.062L34.0172 106.228L39.0116 111.224C34.8992 110.892 30.8899 109.815 27.1899 108.062ZM58.5312 106.996C58.2333 107.156 57.9355 107.317 57.6262 107.477C57.3513 107.626 57.0764 107.775 56.79 107.913C56.4005 108.108 55.9996 108.279 55.5986 108.451C55.3352 108.566 55.0717 108.692 54.8082 108.807C54.3615 108.99 53.9033 109.15 53.4565 109.311C53.2274 109.391 52.9983 109.483 52.7692 109.563C52.1507 109.769 51.5206 109.964 50.8906 110.136C50.8219 110.159 50.7531 110.182 50.6844 110.193C49.9856 110.388 49.2754 110.548 48.5537 110.697C48.359 110.732 48.1414 110.766 47.9466 110.801C47.4311 110.892 46.9271 110.984 46.4116 111.053C46.1367 111.087 45.8503 111.11 45.5754 111.144C45.1287 111.19 44.6934 111.236 44.2466 111.27C43.9373 111.293 43.628 111.293 43.3073 111.316C42.9636 111.328 42.6085 111.339 42.2649 111.351L35.5865 104.67L39.0002 91.9841L51.681 88.5807L60.9596 97.8743L58.5312 106.996ZM61.2804 105.277L63.1018 98.4473L69.929 96.6138C68.7606 98.2983 67.4547 99.8912 65.9999 101.346C64.5451 102.802 62.9528 104.108 61.2804 105.277ZM82.186 85.2231C85.3591 85.2231 88.8414 84.1115 92.4842 81.9113C95.1876 80.2841 97.1464 79.0006 99.5176 77.339C99.0938 78.5996 98.5898 79.8601 98.0285 81.1092C96.8715 83.6302 95.4396 86.1169 93.6297 88.6838C89.3111 94.8605 82.9993 99.2036 75.3702 101.243C73.0105 101.874 70.5361 102.275 67.9931 102.458C69.9519 100.418 71.6702 98.1837 73.1135 95.7658L73.1365 95.7543L73.3656 95.3647C75.3473 91.9269 76.7448 88.1911 77.5123 84.3178L77.6498 84.3636C79.0702 84.9366 80.5823 85.2231 82.186 85.2231ZM77.8789 82.152C78.108 80.5018 78.2225 78.8288 78.2225 77.1442V76.6858L78.2111 76.6744C78.1194 70.5894 76.5272 64.6305 73.5717 59.3478L73.6176 59.1529L73.2625 58.7977C71.6816 56.1047 69.7686 53.6295 67.5693 51.4178C66.9965 50.8449 66.4008 50.2948 65.8052 49.7677C63.9953 48.1863 62.0479 46.7882 59.986 45.6079L59.585 45.3787H59.5736C54.3042 42.4451 48.359 40.8523 42.2763 40.7721L42.2649 40.7606H41.7952C41.5203 40.7606 41.2454 40.7835 40.959 40.7835C46.7209 37.2311 53.3305 36.0966 58.6801 35.5351C64.19 34.9507 70.4445 34.286 75.7024 30.5961C77.2832 29.4845 78.7037 28.1667 80.1928 26.7687C80.2272 26.7343 80.2616 26.7114 80.2959 26.677C79.0931 33.6214 74.6714 38.4802 68.4857 43.4421L65.7135 45.6652L69.2646 45.4017C79.6659 44.6453 87.2034 40.7262 92.3009 33.4266C97.0777 26.5968 98.0972 18.8158 98.1316 11.6995C104.97 21.2911 109.793 37.0248 106.116 50.1802C101.728 65.9025 89.9869 74.8638 77.8789 82.152Z" fill="#323232"/>
<path d="M69.9289 96.6139C68.7605 98.2984 67.4546 99.8913 65.9998 101.347C64.545 102.802 62.9527 104.108 61.2803 105.277L63.1016 98.4474L69.9289 96.6139Z" fill="#1C1C1C"/>
<path d="M39.0121 111.224C34.8997 110.892 30.8904 109.815 27.1904 108.062L34.0177 106.228L39.0121 111.224Z" fill="#1C1C1C"/>
<path d="M60.9595 97.8743L58.5311 106.996C58.2332 107.156 57.9354 107.317 57.6261 107.477C57.3512 107.626 57.0763 107.775 56.7899 107.913C56.4004 108.108 55.9995 108.279 55.5985 108.451C55.3351 108.566 55.0716 108.692 54.8081 108.807C54.3614 108.99 53.9032 109.15 53.4564 109.311C53.2273 109.391 52.9982 109.483 52.7691 109.563C52.1505 109.769 51.5205 109.964 50.8905 110.136C50.8218 110.159 50.753 110.182 50.6843 110.193C49.9855 110.388 49.2753 110.548 48.5536 110.697C48.3589 110.732 48.1413 110.766 47.9465 110.8C47.431 110.892 46.927 110.984 46.4115 111.053C46.1366 111.087 45.8502 111.11 45.5753 111.144C45.1286 111.19 44.6933 111.236 44.2465 111.27C43.9372 111.293 43.6279 111.293 43.3072 111.316C42.9635 111.328 42.6084 111.339 42.2648 111.351L35.5864 104.67L39.0001 91.9841L51.6809 88.5807L60.9595 97.8743Z" fill="#CCCCCC"/>
<path d="M75.8738 74.348L70.8794 69.3517L72.7122 62.5333C74.4648 66.2347 75.5416 70.2455 75.8738 74.348Z" fill="#1C1C1C"/>
<path d="M76.0001 77.591C75.9887 77.9462 75.9772 78.3015 75.9657 78.6567C75.9543 78.9547 75.9428 79.2526 75.9199 79.562C75.897 80.0089 75.8397 80.4559 75.7939 80.8913C75.7596 81.1778 75.7366 81.4528 75.7023 81.7279C75.6335 82.2321 75.5534 82.7248 75.4617 83.2176C75.4159 83.4353 75.393 83.6645 75.3472 83.8822C75.0608 85.3146 74.6828 86.7242 74.2246 88.0993C74.1558 88.3055 74.0642 88.5118 73.9955 88.7066C73.8236 89.1879 73.6518 89.6692 73.4571 90.1391C73.354 90.3912 73.2394 90.6318 73.1363 90.8839C72.953 91.2965 72.7698 91.7205 72.5636 92.133C72.4376 92.3966 72.3001 92.6487 72.1626 92.9008C72.0023 93.2216 71.8304 93.5425 71.6586 93.8634L62.5289 96.3042L53.2388 87.0106L56.6524 74.3251L69.3218 70.9216L76.0001 77.591Z" fill="#CCCCCC"/>
<path d="M54.4989 73.7408L51.0967 86.4378L38.4159 89.8298L29.1602 80.5706L32.5509 67.885L45.2432 64.4816L54.4989 73.7408Z" fill="#1C1C1C"/>
<path d="M71.189 59.6687L68.7491 68.7789L56.0682 72.1823L46.8125 62.9117L50.2261 50.1803L59.2642 47.7623C59.5506 47.9342 59.8484 48.1176 60.1348 48.3009C60.3983 48.4614 60.6618 48.6218 60.9138 48.7937C61.2803 49.0458 61.6354 49.2979 61.9791 49.5615C62.2197 49.7333 62.4602 49.8938 62.6893 50.0771C63.0788 50.3751 63.4454 50.6845 63.8234 51.0053C64.0067 51.1658 64.2014 51.3147 64.3847 51.4752C64.9345 51.9565 65.4729 52.4607 65.9998 52.9878C66.5153 53.5035 67.0079 54.0306 67.489 54.5807C67.6265 54.7411 67.7525 54.9015 67.8899 55.062C68.2221 55.4516 68.5543 55.8527 68.8751 56.2538C69.0469 56.4715 69.1958 56.7007 69.3562 56.9184C69.6311 57.2851 69.8946 57.6403 70.1466 58.0185C70.3299 58.2821 70.4903 58.5571 70.6621 58.8207C70.8454 59.1071 71.0172 59.3822 71.189 59.6687Z" fill="#CCCCCC"/>
<path d="M56.389 46.2381L49.5961 48.0602L44.6475 43.0983C48.714 43.4306 52.7004 44.4963 56.389 46.2381Z" fill="#1C1C1C"/>
<path d="M22.3905 49.0573L20.5577 55.8871L13.7305 57.7091C14.8989 56.0246 16.2048 54.4432 17.6596 52.9878C19.1144 51.5325 20.7066 50.2147 22.3905 49.0573Z" fill="#1C1C1C"/>
<path d="M12.7335 84.9365L10.9121 91.732C9.17096 88.042 8.11709 84.0542 7.77344 79.9861L12.7335 84.9365Z" fill="#1C1C1C"/>
<path d="M36.8464 91.3998L33.4443 104.097L24.3374 106.538C24.0396 106.354 23.7418 106.171 23.4439 105.988C23.1919 105.816 22.9399 105.667 22.6879 105.495C22.3213 105.254 21.9777 104.991 21.6226 104.727C21.3935 104.555 21.1529 104.395 20.9238 104.223C20.5458 103.925 20.1792 103.616 19.8127 103.306C19.6294 103.146 19.4346 102.997 19.2514 102.836C18.7015 102.355 18.1746 101.862 17.6591 101.347C17.1322 100.819 16.6396 100.292 16.147 99.7423C15.9752 99.536 15.8148 99.3297 15.643 99.1235C15.3452 98.7682 15.0473 98.413 14.7609 98.0463C14.5662 97.8056 14.3944 97.5535 14.2225 97.3014C13.9705 96.9576 13.7185 96.6139 13.478 96.2701C13.3061 96.0065 13.1343 95.7315 12.9739 95.4679C12.7907 95.1814 12.6074 94.8949 12.4355 94.597L14.8526 85.5555L27.5907 82.1406L36.8464 91.3998Z" fill="#CCCCCC"/>
<path d="M30.3857 67.2776L26.9835 79.9747L14.2912 83.3666L7.65869 76.7316C7.67015 76.3764 7.6816 76.0326 7.69306 75.6774C7.70451 75.3794 7.71597 75.07 7.73888 74.7721C7.76179 74.3252 7.81906 73.8897 7.86488 73.4428C7.89925 73.1563 7.92216 72.8813 7.95652 72.5948C8.0138 72.1135 8.10544 71.6437 8.18563 71.1624C8.23145 70.9217 8.26581 70.6811 8.31163 70.4404C8.4491 69.7643 8.60947 69.0768 8.78129 68.4121C8.8042 68.3434 8.82711 68.2746 8.83857 68.2058C9.02185 67.5412 9.21659 66.888 9.43424 66.2348C9.51442 65.9942 9.61752 65.765 9.6977 65.5243C9.85808 65.0774 10.0184 64.6305 10.2017 64.1951C10.3048 63.92 10.4423 63.6565 10.5568 63.3929C10.7287 62.9918 10.9005 62.5907 11.0952 62.2011C11.2327 61.9261 11.3816 61.6511 11.5191 61.3875C11.6794 61.0781 11.8398 60.7687 12.0116 60.4593L21.1299 58.0184L30.3857 67.2776Z" fill="#CCCCCC"/>
<path d="M48.0385 49.6186L44.6363 62.3157L31.944 65.7077L22.6997 56.4599L25.1397 47.3268C25.426 47.1663 25.7124 47.0174 25.9988 46.8684C26.2966 46.7194 26.583 46.559 26.8808 46.41C27.2474 46.2267 27.6369 46.0662 28.0149 45.8943C28.3013 45.7683 28.5762 45.6422 28.8626 45.5276C29.2864 45.3443 29.7332 45.1953 30.1685 45.0349C30.409 44.9432 30.6496 44.8401 30.8901 44.7599C31.5545 44.5421 32.2304 44.3359 32.9062 44.1525C32.9291 44.141 32.9521 44.141 32.975 44.1296C33.6737 43.9462 34.3839 43.7858 35.0942 43.6368C35.3233 43.591 35.5524 43.5681 35.7929 43.5222C36.2511 43.442 36.7208 43.3503 37.1904 43.293H37.5226L37.5799 43.2472C37.7517 43.2243 37.935 43.2128 38.1069 43.1899C38.5536 43.1441 38.9889 43.0868 39.4242 43.0639C39.7449 43.0409 40.0542 43.0295 40.375 43.018C40.7186 43.0066 41.0623 42.9951 41.4059 42.9836L48.0385 49.6186Z" fill="#CCCCCC"/>
<path d="M64.3387 32.5785C62.3798 32.9109 60.3981 33.1286 58.4507 33.3349C51.864 34.0339 43.456 35.558 36.6631 41.1273C33.8566 41.5283 31.1073 42.2617 28.4727 43.3045C29.3776 40.3366 31.1761 37.3915 34.1315 34.011C36.4454 31.3638 39.0687 28.3615 39.9278 24.3392C40.0996 23.5256 40.2027 22.712 40.2829 21.8754C41.9439 25.1758 41.8981 28.8428 41.2566 33.14L40.7411 36.6695L43.1696 34.0683C47.7058 29.1865 49.5386 24.0757 48.7597 18.4376C48.1067 13.682 45.6897 9.8889 42.9863 6.74902C49.8365 8.53669 57.8092 13.4642 61.4291 20.5118C63.3535 24.259 64.2928 28.2125 64.3387 32.5785Z" fill="#D01319"/>
<path d="M98.132 11.6995C98.0977 18.8158 97.0782 26.5967 92.3014 33.4265C87.2038 40.7261 79.6664 44.6453 69.2651 45.4016L65.714 45.6651L68.4862 43.442C74.6719 38.4801 79.0936 33.6213 80.2964 26.6769C80.262 26.7113 80.2277 26.7342 80.1933 26.7686C78.7041 28.1666 77.2837 29.4845 75.7029 30.596C70.445 34.286 64.1905 34.9506 58.6806 35.535C53.331 36.0965 46.7214 37.231 40.9595 40.7834C41.2459 40.7834 41.5208 40.7605 41.7957 40.7605H42.2654L42.2768 40.772C48.3595 40.8522 54.3047 42.4451 59.5741 45.3787H59.5855L59.9864 45.6078C62.0484 46.7882 63.9957 48.1862 65.8057 49.7676C66.4013 50.2948 66.997 50.8448 67.5697 51.4178C69.7691 53.6294 71.6821 56.1047 73.2629 58.7976L73.6181 59.1529L73.5722 59.3477C76.5277 64.6305 78.1199 70.5894 78.2116 76.6743L78.223 76.6858V77.1441C78.223 78.8287 78.1085 80.5018 77.8794 82.1519C89.9874 74.8637 101.729 65.9025 106.116 50.1802C109.793 37.0248 104.971 21.291 98.132 11.6995ZM86.1271 71.5863L84.7639 69.8445C91.6713 64.4242 96.2878 58.5341 98.8766 51.8532L100.95 52.6554C98.2008 59.7144 93.3552 65.9139 86.1271 71.5863ZM102.13 49.0686C102.084 49.229 102.038 49.4009 101.992 49.5728L99.8618 48.9425L99.9992 48.4727C100.32 47.3268 100.572 46.135 100.744 44.9088L102.932 45.2297C102.748 46.5361 102.485 47.831 102.13 49.0686Z" fill="#FAB218"/>
<path d="M92.4837 81.9113C88.841 84.1115 85.3587 85.2231 82.1856 85.2231C80.5819 85.2231 79.0698 84.9366 77.6494 84.3636L77.5119 84.3178C76.7444 88.1911 75.3469 91.9268 73.3651 95.3646L73.136 95.7543L73.1131 95.7657C71.6698 98.1837 69.9515 100.418 67.9927 102.458C70.5357 102.275 73.01 101.874 75.3698 101.243C82.9989 99.2035 89.3107 94.8604 93.6293 88.6838C95.4392 86.1169 96.8711 83.6302 98.028 81.1091C98.5893 79.8601 99.0934 78.5995 99.5172 77.339C97.146 79.0006 95.1872 80.2841 92.4837 81.9113ZM75.9998 96.7283L75.3125 94.6198C75.8165 94.4593 76.3206 94.276 76.8246 94.0812L77.6264 96.1439C77.0766 96.3616 76.5382 96.5564 75.9998 96.7283ZM79.8602 95.1698L78.898 93.1759C79.5738 92.8436 80.2497 92.4883 80.8797 92.0987L82.0252 94.001C81.3264 94.4135 80.6048 94.8146 79.8602 95.1698ZM84.0757 92.6373L82.7698 90.8496C83.1936 90.5402 83.6175 90.2079 84.0184 89.8641L85.4503 91.5601C84.9921 91.9383 84.5453 92.2935 84.0757 92.6373Z" fill="#D01319"/>
<path d="M102.931 45.2296C102.748 46.5359 102.485 47.8308 102.129 49.0685C102.084 49.2289 102.038 49.4008 101.992 49.5727L99.8613 48.9424L99.9988 48.4726C100.32 47.3266 100.572 46.1348 100.743 44.9087L102.931 45.2296Z" fill="#323232"/>
<path d="M100.95 52.6554C98.2005 59.7144 93.355 65.914 86.1268 71.5864L84.7637 69.8445C91.6711 64.4242 96.2875 58.5341 98.8764 51.8533L100.95 52.6554Z" fill="#323232"/>
<path d="M77.6269 96.1439C77.0771 96.3616 76.5387 96.5564 76.0003 96.7283L75.313 94.6198C75.817 94.4593 76.321 94.276 76.8251 94.0812L77.6269 96.1439Z" fill="#323232"/>
<path d="M82.0252 94.0009C81.3264 94.4134 80.6048 94.8145 79.8602 95.1698L78.8979 93.1758C79.5738 92.8435 80.2497 92.4883 80.8797 92.0986L82.0252 94.0009Z" fill="#323232"/>
<path d="M85.451 91.5601C84.9928 91.9383 84.5461 92.2935 84.0764 92.6373L82.7705 90.8496C83.1943 90.5402 83.6182 90.2079 84.0191 89.8641L85.451 91.5601Z" fill="#323232"/>
<defs>
<filter id="filter0_d" x="0" y="0" width="119" height="125" filterUnits="userSpaceOnUse" color-interpolation-filters="sRGB">
<feFlood flood-opacity="0" result="BackgroundImageFix"/>
<feColorMatrix in="SourceAlpha" type="matrix" values="0 0 0 0 0 0 0 0 0 0 0 0 0 0 0 0 0 0 127 0"/>
<feOffset dx="2" dy="4"/>
<feGaussianBlur stdDeviation="2"/>
<feColorMatrix type="matrix" values="0 0 0 0 0 0 0 0 0 0 0 0 0 0 0 0 0 0 0.25 0"/>
<feBlend mode="normal" in2="BackgroundImageFix" result="effect1_dropShadow"/>
<feBlend mode="normal" in="SourceGraphic" in2="effect1_dropShadow" result="shape"/>
</filter>
</defs>
</svg>
