<svg width="132" height="116" viewBox="0 0 132 116" fill="none" xmlns="http://www.w3.org/2000/svg">
<g filter="url(#filter0_d)">
<path d="M115.34 25.939L110.983 28.1355C110.739 28.2569 110.472 28.3297 110.192 28.3297C109.997 28.3297 109.802 28.2933 109.62 28.2447C109.169 28.0991 108.816 27.7957 108.597 27.3588C108.317 26.8006 108.415 26.2788 108.5 26.0118C108.585 25.7448 108.816 25.2715 109.388 24.9803L113.721 22.7958L103.632 2.78422C102.366 0.284281 99.311 -0.71084 96.816 0.539129L4.7923 46.8365C2.28511 48.0986 1.2871 51.1446 2.54069 53.6324L9.42939 67.2607C9.78234 67.9646 9.97707 68.7534 9.97707 69.5422V77.0178H14.8454C15.8312 77.0178 16.6345 77.8187 16.6345 78.7896C16.6345 79.7604 15.8312 80.5614 14.8454 80.5614H9.97707V102.939C9.97707 105.731 12.253 108 15.0523 108H123.202V80.5735H118.334C117.36 80.5735 116.557 79.7726 116.557 78.8017C116.557 77.8309 117.36 77.0299 118.334 77.0299H123.202V52.7344C125.71 51.4723 126.72 48.4263 125.454 45.9263L115.34 25.939Z" fill="#FCFCFC"/>
</g>
<path d="M30.984 98.1216H28.5498V101.762H30.984V98.1216Z" fill="#323232"/>
<path d="M30.984 90.8402H28.5498V94.4809H30.984V90.8402Z" fill="#323232"/>
<path d="M30.984 76.2776H28.5498V79.9183H30.984V76.2776Z" fill="#323232"/>
<path d="M30.984 83.5588H28.5498V87.1995H30.984V83.5588Z" fill="#323232"/>
<path d="M30.984 68.9962H28.5498V72.6369H30.984V68.9962Z" fill="#323232"/>
<path d="M30.984 61.7148H28.5498V65.3555H30.984V61.7148Z" fill="#323232"/>
<path d="M38.3111 98.1216H35.877V101.762H38.3111V98.1216Z" fill="#323232"/>
<path d="M38.3111 90.8402H35.877V94.4809H38.3111V90.8402Z" fill="#323232"/>
<path d="M38.3111 68.9962H35.877V72.6369H38.3111V68.9962Z" fill="#323232"/>
<path d="M38.3111 76.2776H35.877V79.9183H38.3111V76.2776Z" fill="#323232"/>
<path d="M38.3111 83.5588H35.877V87.1995H38.3111V83.5588Z" fill="#323232"/>
<path d="M38.3111 61.7148H35.877V65.3555H38.3111V61.7148Z" fill="#323232"/>
<path d="M96.6096 73.365L96.6582 73.3529L96.3418 72.1758L96.0254 71.0107L95.9889 71.0229C95.6968 70.1612 95.3438 69.3239 94.93 68.5229C94.7718 68.1953 94.5892 67.8676 94.4066 67.54C93.5547 66.0958 92.5323 64.7609 91.3518 63.5716C91.0475 63.2682 90.731 62.9891 90.4146 62.71C89.4531 61.8726 88.4186 61.1323 87.3354 60.5013C86.2644 59.8824 85.1203 59.3727 83.9276 58.9722C83.5259 58.8266 83.1243 58.7052 82.7226 58.596L82.5279 58.5596C82.2115 58.4746 81.9072 58.4261 81.5908 58.3654C81.3108 58.3047 81.0431 58.2319 80.7631 58.1955C80.4102 58.1348 80.0451 58.1106 79.6921 58.0742C79.4243 58.0499 79.1566 58.0014 78.8888 57.9892C78.5237 57.9649 78.1464 57.9771 77.7813 57.9771C77.5257 57.9771 77.2701 57.9528 77.0145 57.9649C76.6372 57.9771 76.2599 58.0256 75.8705 58.062C75.627 58.0863 75.3836 58.0984 75.1524 58.1227C74.7629 58.1713 74.3856 58.2562 74.0083 58.329C73.7771 58.3776 73.5337 58.4018 73.3024 58.4625C72.9251 58.5475 72.56 58.6688 72.1827 58.778C71.9515 58.8508 71.7202 58.8994 71.489 58.9722C71.1117 59.1057 70.7344 59.2635 70.3449 59.4212C70.1502 59.5062 69.9433 59.5669 69.7485 59.6518C69.1765 59.9188 68.6166 60.1979 68.069 60.5134C66.9736 61.1445 65.9391 61.8848 64.9532 62.7464L64.9289 62.7221L64.0648 63.5716L63.2006 64.4332L63.2371 64.4575C62.3852 65.4284 61.6306 66.4599 61.0099 67.5521C59.306 70.4768 58.4175 73.8019 58.4175 77.1756C58.4175 77.5882 58.4297 78.0008 58.454 78.4135C58.4662 78.5591 58.4905 78.7047 58.5027 78.8503C58.527 79.1173 58.5392 79.3722 58.5757 79.6392C58.6 79.8091 58.6366 79.979 58.6609 80.1489C58.6974 80.3794 58.7339 80.6221 58.7704 80.8527C58.8069 81.0226 58.8556 81.2047 58.8921 81.3746C58.9408 81.5809 58.9773 81.775 59.026 81.9813L59.0747 82.1634C59.525 83.8017 60.1701 85.3429 60.9855 86.7628C61.3872 87.4545 61.8253 88.122 62.3243 88.7773C62.3365 88.8015 62.3487 88.8137 62.373 88.8379C62.8842 89.5054 63.444 90.1607 64.0648 90.7797C65.2332 91.9447 66.5719 92.9641 68.0446 93.8257C69.1278 94.4567 70.3084 94.9907 71.5376 95.3912V95.4276L72.706 95.7431L73.8866 96.0586L73.8988 96.0222C75.1159 96.2771 76.3816 96.3984 77.6961 96.4106C81.0796 96.4106 84.4266 95.5247 87.3597 93.8378C88.4673 93.1946 89.5018 92.4422 90.4633 91.6049L90.4876 91.6291L91.1692 90.9374C91.2301 90.8767 91.2909 90.8282 91.3518 90.7797L91.7047 90.4156V90.4034C91.7412 90.3549 91.7777 90.3064 91.8264 90.2578C92.2889 89.7603 92.7271 89.2627 93.1165 88.7287C93.1652 88.6681 93.2139 88.5952 93.2626 88.5224C93.6764 87.9763 94.0537 87.4059 94.4066 86.7992L94.4188 86.787C95.4655 84.9788 96.2201 83.0007 96.6217 80.9377C96.8652 79.712 96.999 78.4499 96.999 77.1756C96.999 75.8893 96.8652 74.615 96.6096 73.365ZM83.2338 61.3265C83.4529 61.4115 83.672 61.4721 83.891 61.5571C84.0614 61.6299 84.244 61.6906 84.4144 61.7634C84.9986 62.0182 85.5706 62.2974 86.1183 62.6008C87.3841 63.341 88.5768 64.2391 89.6235 65.2949C90.658 66.3264 91.5587 67.4914 92.3011 68.7656C92.3011 68.7656 92.3133 68.7778 92.3133 68.7899C92.6297 69.3482 92.9096 69.9307 93.1652 70.5132C93.2504 70.6831 93.3113 70.8651 93.3843 71.035C93.4573 71.2413 93.5182 71.4476 93.5912 71.6539L87.5301 73.2801L81.6151 67.3822L83.2338 61.3265ZM67.217 64.0449C67.363 63.9357 67.5091 63.8143 67.6551 63.7051C68.1785 63.3046 68.7262 62.9405 69.286 62.6129C69.7485 62.3459 70.211 62.1153 70.6979 61.8969C70.8439 61.8241 71.0021 61.7755 71.1482 61.7149C71.489 61.5692 71.8297 61.4357 72.1827 61.3144C72.3409 61.2537 72.5235 61.2052 72.6939 61.1566C73.0225 61.0474 73.3633 60.9503 73.7162 60.8654C73.8866 60.8168 74.057 60.7925 74.2274 60.7561C74.5804 60.6833 74.9333 60.6105 75.2863 60.562C75.4567 60.5377 75.627 60.5134 75.7974 60.5013C76.1626 60.4527 76.5277 60.4285 76.8806 60.4042C77.0632 60.4042 77.2336 60.3921 77.404 60.3921C77.7569 60.3799 78.1221 60.3921 78.475 60.4042C78.6576 60.4163 78.8401 60.4163 79.0105 60.4285C79.3635 60.4649 79.7043 60.5013 80.0451 60.5498C80.2398 60.5741 80.4345 60.5984 80.6293 60.6348C80.7023 60.6469 80.7875 60.6712 80.8605 60.6833L79.2418 66.7269L71.1238 68.8991L66.7058 64.4939C66.8762 64.3483 67.0344 64.1905 67.217 64.0449ZM61.1316 80.2095C61.0586 79.7969 60.9977 79.3843 60.9612 78.9596C60.9368 78.8382 60.9247 78.7169 60.9125 78.5955C60.876 78.1222 60.8516 77.6489 60.8516 77.1756C60.8516 74.2267 61.6306 71.3141 63.1154 68.7656C63.444 68.2074 63.8092 67.6613 64.1986 67.1395C64.3082 66.9938 64.4299 66.8482 64.5516 66.7026C64.6855 66.5327 64.8437 66.3749 64.9776 66.205L69.4077 70.6103L67.2292 78.6926L61.1559 80.3188C61.1437 80.2823 61.1438 80.2459 61.1316 80.2095ZM72.1827 93.0126C71.9636 92.9398 71.7567 92.8791 71.5498 92.8063C71.3673 92.7335 71.1847 92.6607 71.0143 92.5879C70.4179 92.333 69.8216 92.0539 69.2739 91.7262C67.9838 90.9738 66.8032 90.0758 65.793 89.0685C64.9167 88.1826 64.1621 87.2482 63.5292 86.2652C63.3832 86.0225 63.2371 85.7919 63.1033 85.5613C62.7868 85.0152 62.5069 84.4449 62.2635 83.8623C62.1783 83.6925 62.1174 83.5226 62.0444 83.3405C61.9592 83.1221 61.8983 82.9036 61.8131 82.6852L67.8864 81.059L73.8014 86.9569L72.1827 93.0126ZM69.6025 79.3479L71.7811 71.2656L79.8868 69.0933L85.8019 74.9912L83.6355 83.0735L75.5175 85.2458L69.6025 79.3479ZM88.1387 90.3549C87.9804 90.4763 87.8344 90.5976 87.6883 90.7068C87.1893 91.083 86.6782 91.4228 86.1426 91.7384C83.5746 93.2068 80.6658 93.9835 77.7083 93.9835C77.2214 93.9835 76.7346 93.947 76.2599 93.9106C76.1382 93.8985 76.0043 93.8864 75.8826 93.8742C75.481 93.8257 75.0915 93.7771 74.7142 93.7043C74.6534 93.6922 74.5925 93.6801 74.5195 93.6679L76.1626 87.6001L84.2683 85.4278L88.7229 89.8573C88.5281 90.0272 88.3334 90.1971 88.1387 90.3549ZM92.3133 85.5735C92.0698 85.9861 91.8143 86.3744 91.5465 86.7628C91.4735 86.8598 91.4004 86.9691 91.3274 87.0662C91.0718 87.4059 90.8162 87.7336 90.5485 88.0491C90.512 88.0855 90.4876 88.122 90.4511 88.1584L85.9844 83.7046L88.163 75.6223L92.508 74.4572L94.2606 73.9961C94.2606 74.0446 94.2728 74.0932 94.2849 74.1296C94.358 74.5422 94.4188 74.9548 94.4553 75.3674C94.4675 75.5009 94.4797 75.6223 94.4918 75.7436C94.5284 76.2169 94.5649 76.6902 94.5649 77.1756C94.5649 80.1367 93.7859 83.0493 92.3133 85.5735Z" fill="#323232"/>
<path d="M111.19 92.1752H94.9297V94.6023H111.19V92.1752Z" fill="#323232"/>
<path d="M111.19 97.2357H94.9297V99.6628H111.19V97.2357Z" fill="#323232"/>
<path d="M60.4741 92.1752H44.2261V94.6023H60.4741V92.1752Z" fill="#323232"/>
<path d="M60.4741 97.2357H44.2261V99.6628H60.4741V97.2357Z" fill="#323232"/>
<path d="M122.85 48.8389L113.734 30.8296L112.651 31.3757C111.36 32.031 109.888 32.1402 108.5 31.6912C107.125 31.2422 106.005 30.2835 105.36 28.985C104.009 26.3273 105.08 23.0628 107.758 21.7158L108.841 21.1697L99.7373 3.1604L5.16992 50.732L13.6408 67.4792V73.3892H14.8579C17.8519 73.3892 20.2983 75.8163 20.2983 78.8017C20.2983 81.7871 17.8519 84.2142 14.8579 84.2142H13.6408V104.371H119.564V84.2142H118.347C115.352 84.2142 112.918 81.7871 112.918 78.8017C112.918 75.8163 115.352 73.3892 118.347 73.3892H119.564V53.2198H114.111L122.85 48.8389ZM13.6408 53.2198V62.091L8.44388 51.8121L19.5802 46.2054L20.6756 48.3777L22.842 47.2855L21.7466 45.1132L26.1159 42.9167L27.2113 45.089L29.3899 43.9967L28.2945 41.8245L98.6663 6.42488L105.616 20.1745C102.524 22.3832 101.417 26.5943 103.182 30.0893C104.131 31.9461 105.75 33.3417 107.746 33.997C109.352 34.5188 111.044 34.5188 112.614 34.0091L119.576 47.7588L108.841 53.1591L108.865 53.2198H89.7329C90.2562 52.3461 90.7187 51.4359 91.096 50.5014L91.1204 50.5136L91.3881 49.6884C91.4246 49.5791 91.4733 49.482 91.5098 49.3728L91.7289 48.6447C91.7411 48.584 91.7411 48.5355 91.7533 48.4869C91.9358 47.8801 92.0697 47.2612 92.1792 46.6544L92.2157 46.3996C92.3253 45.7443 92.4105 45.089 92.447 44.4215C92.5443 42.7589 92.4226 41.0721 92.0697 39.4338C91.7776 38.0139 91.3029 36.6304 90.6944 35.2955C90.597 35.0892 90.5118 34.8829 90.4023 34.6766C89.8181 33.5358 89.1365 32.4558 88.3454 31.4485L88.3819 31.4242L87.5665 30.5262C87.5665 30.5262 87.5665 30.5262 87.5665 30.5141L86.751 29.616L86.6902 29.6646C85.7774 28.7787 84.8037 27.9413 83.7448 27.2496C82.333 26.3273 80.8117 25.5992 79.2173 25.0773C79.0712 25.0288 78.9252 24.9924 78.7913 24.956C78.1219 24.7497 77.4525 24.5798 76.7588 24.4463C75.9312 24.2885 75.0914 24.1793 74.2394 24.1429C73.4118 24.0943 72.5842 24.1065 71.7444 24.1672C70.9168 24.2278 70.0892 24.337 69.2737 24.5069L69.1642 24.5312C68.8477 24.604 68.5556 24.6768 68.2514 24.7618C68.1662 24.7861 68.0688 24.8103 67.9836 24.8346C67.801 24.8832 67.6307 24.9438 67.4481 24.9924C67.2168 25.0652 66.9978 25.138 66.7665 25.2108C66.6326 25.2594 66.5109 25.3079 66.3892 25.3564C66.1336 25.4535 65.8781 25.5506 65.6225 25.6598C65.2452 25.8176 64.8679 25.9875 64.5027 26.1695C64.3202 26.2666 64.1376 26.3758 63.9551 26.4729C61.387 27.8685 59.1719 29.8223 57.4802 32.2009C57.3341 32.3951 57.1881 32.5893 57.0542 32.7956C57.042 32.8077 57.0299 32.832 57.0299 32.8441C56.5917 33.5116 56.1901 34.2154 55.8371 34.9436L55.8249 34.9557C55.6302 35.3683 55.4476 35.7688 55.2773 36.1935L55.2407 36.1814L54.8756 37.2858C54.8756 37.2979 54.8634 37.31 54.8634 37.3222L54.474 38.4872L54.5227 38.4993C54.1941 39.7371 53.9871 40.9993 53.9263 42.2492C53.7316 45.6108 54.4375 48.9966 55.971 52.0184C56.1779 52.431 56.4213 52.8315 56.6526 53.2198H24.2173L25.5196 52.5645L24.4972 50.5257L22.3186 51.6301L23.1341 53.2198H13.6408ZM62.811 41.2298L64.5271 49.4092L60.243 53.2198H59.5736C59.038 52.5038 58.5634 51.7514 58.1374 50.9262C56.7986 48.2806 56.1779 45.3317 56.3605 42.3827C56.3848 41.9216 56.4335 41.4604 56.5065 40.9871C56.5187 40.8658 56.543 40.7444 56.5552 40.623C56.6282 40.2104 56.7012 39.81 56.7986 39.3973C56.8108 39.3609 56.8229 39.3124 56.8351 39.2639L62.811 41.2298ZM57.6384 36.9581C57.7236 36.7518 57.7966 36.5333 57.894 36.327C57.967 36.1571 58.0522 35.9872 58.1374 35.8173C58.4052 35.2591 58.7094 34.713 59.038 34.2154C59.0624 34.1912 59.0746 34.1548 59.0867 34.1305C59.1841 33.9849 59.2936 33.8635 59.391 33.73C60.9489 31.5213 63.0057 29.7131 65.3912 28.4632C65.4642 28.4268 65.5251 28.3782 65.5981 28.3418C65.6103 28.3297 65.6225 28.3297 65.6346 28.3175C66.2067 28.0384 66.803 27.7957 67.3994 27.5773C67.5698 27.5166 67.7524 27.4559 67.9228 27.4074C68.1297 27.3345 68.3487 27.286 68.5556 27.2253L69.8336 33.3295L63.5656 38.9119L57.6384 36.9581ZM66.1702 51.2296L69.4806 52.3096L72.2434 53.2198H63.9307L66.1702 51.2296ZM70.0527 49.9553L66.9369 48.9238L65.233 40.7323L71.4888 35.1499L79.4242 37.759L81.1403 45.9627L74.8845 51.533L70.0527 49.9553ZM70.9655 26.6914C71.428 26.6307 71.8783 26.5943 72.3408 26.57C72.4625 26.5579 72.5842 26.5579 72.7059 26.5457C73.1197 26.5457 73.5335 26.5457 73.9351 26.5579C73.996 26.5579 74.0569 26.5579 74.1177 26.57C74.8601 26.6064 75.5904 26.6914 76.3085 26.8249C76.8683 26.9341 77.416 27.0797 77.9637 27.2375C78.1341 27.286 78.2923 27.3345 78.4627 27.3831C79.8502 27.8442 81.1768 28.4874 82.406 29.2762C82.9659 29.6403 83.4893 30.0408 83.9883 30.4655C84.1343 30.5748 84.2682 30.6961 84.4021 30.8175C84.5603 30.9631 84.7185 31.133 84.8767 31.2908L80.191 35.4533L77.4403 34.5552L72.2434 32.8441L70.9655 26.6914ZM82.759 47.7709L88.747 49.7369C88.6497 49.9796 88.5523 50.2223 88.4306 50.465C88.3576 50.6349 88.2724 50.817 88.1872 50.9869C87.9194 51.5208 87.6273 52.0427 87.2987 52.5524C87.1405 52.7829 86.9823 53.0014 86.8241 53.2198H76.6492L82.759 47.7709ZM83.5258 45.4652L81.8218 37.2736L86.4954 33.099C86.6415 33.281 86.7875 33.4509 86.9214 33.6451C87.0188 33.7786 87.1162 33.912 87.2135 34.0577C87.5787 34.6159 87.9316 35.1863 88.2359 35.7809C88.3941 36.1086 88.5523 36.4363 88.6984 36.7761C89.1122 37.7469 89.4286 38.7663 89.6599 39.7978C89.9763 41.2662 90.098 42.7832 90.0128 44.288C90.0006 44.373 90.0006 44.4458 89.9885 44.5307C89.9641 44.9069 89.9276 45.2831 89.8789 45.6472C89.8546 45.805 89.8303 45.9506 89.8059 46.1083C89.7329 46.4967 89.6599 46.885 89.5625 47.2734C89.5503 47.3219 89.5382 47.3705 89.526 47.4311L83.5258 45.4652ZM117.129 55.6469V71.0592C113.369 71.6417 110.484 74.894 110.484 78.8017C110.484 82.7094 113.369 85.9617 117.129 86.5442V101.944H16.075V86.5442C19.8358 85.9617 22.7324 82.7094 22.7324 78.8017C22.7324 74.894 19.8358 71.6417 16.075 71.0592V55.6469H28.5501V58.0741H30.9843V55.6469H35.8769V58.0741H38.3111V55.6469H60.742L60.7298 54.4576L60.742 54.4698V55.6469H117.129Z" fill="#323232"/>
<path d="M72.2429 53.2199H63.9302L66.1696 51.2296L69.4801 52.3097L72.2429 53.2199Z" fill="#FAB218"/>
<path d="M88.7472 49.7368C88.6499 49.9796 88.5525 50.2223 88.4308 50.465C88.3578 50.6349 88.2726 50.8169 88.1874 50.9868C87.9196 51.5208 87.6275 52.0426 87.2989 52.5523C87.1407 52.7829 86.9825 53.0013 86.8242 53.2198H76.6494L82.7592 47.7709L88.7472 49.7368Z" fill="#FAB218"/>
<path d="M90.0127 44.288C90.0006 44.373 90.0006 44.4458 89.9884 44.5307C89.9641 44.907 89.9275 45.2832 89.8789 45.6472C89.8545 45.805 89.8302 45.9506 89.8058 46.1084C89.7328 46.4967 89.6598 46.8851 89.5624 47.2734C89.5503 47.3219 89.5381 47.3705 89.5259 47.4312L83.5257 45.4652L81.8218 37.2736L86.4954 33.099C86.6414 33.281 86.7875 33.4509 86.9214 33.6451C87.0187 33.7786 87.1161 33.9121 87.2135 34.0577C87.5786 34.6159 87.9315 35.1863 88.2358 35.781C88.394 36.1086 88.5523 36.4363 88.6983 36.7761C89.1121 37.7469 89.4285 38.7663 89.6598 39.7979C89.9762 41.2663 90.0979 42.7832 90.0127 44.288Z" fill="#FAB218"/>
<path d="M84.8766 31.2908L80.1908 35.4533L77.4402 34.5553L72.2433 32.8442L70.9653 26.6914C71.4278 26.6307 71.8781 26.5943 72.3406 26.57C72.4623 26.5579 72.5841 26.5579 72.7058 26.5458C73.1196 26.5458 73.5334 26.5458 73.935 26.5579C73.9959 26.5579 74.0567 26.5579 74.1176 26.57C74.86 26.6065 75.5902 26.6914 76.3083 26.8249C76.8682 26.9341 77.4159 27.0797 77.9636 27.2375C78.134 27.286 78.2922 27.3346 78.4626 27.3831C79.85 27.8443 81.1767 28.4875 82.4059 29.2763C82.9658 29.6404 83.4891 30.0408 83.9881 30.4656C84.1342 30.5748 84.2681 30.6962 84.4019 30.8175C84.5602 30.9631 84.7184 31.133 84.8766 31.2908Z" fill="#FAB218"/>
<path d="M69.8334 33.3297L63.5654 38.9121L57.6382 36.9582C57.7234 36.7519 57.7964 36.5335 57.8938 36.3272C57.9668 36.1573 58.052 35.9874 58.1372 35.8175C58.4049 35.2592 58.7092 34.7131 59.0378 34.2156C59.0622 34.1913 59.0743 34.1549 59.0865 34.1306C59.1839 33.985 59.2934 33.8636 59.3908 33.7302C60.9487 31.5215 63.0055 29.7133 65.391 28.4633C65.464 28.4269 65.5249 28.3783 65.5979 28.3419C65.6101 28.3298 65.6223 28.3298 65.6344 28.3177C66.2065 28.0385 66.8028 27.7958 67.3992 27.5774C67.5696 27.5167 67.7521 27.456 67.9225 27.4075C68.1294 27.3347 68.3485 27.2861 68.5554 27.2255L69.8334 33.3297Z" fill="#FAB218"/>
<path d="M64.527 49.4093L60.2428 53.2199H59.5734C59.0379 52.5039 58.5633 51.7515 58.1373 50.9262C56.7985 48.2807 56.1778 45.3317 56.3603 42.3828C56.3847 41.9216 56.4334 41.4605 56.5064 40.9872C56.5186 40.8658 56.5429 40.7445 56.5551 40.6231C56.6281 40.2105 56.7011 39.81 56.7985 39.3974C56.8107 39.361 56.8228 39.3125 56.835 39.2639L62.8109 41.2299L64.527 49.4093Z" fill="#FAB218"/>
<path d="M81.1402 45.9626L74.8844 51.5329L70.0526 49.9552L66.9368 48.9237L65.2329 40.7322L71.4887 35.1498L79.4241 37.7589L81.1402 45.9626Z" fill="#FAB218"/>
<path d="M117.129 71.0592V55.647H38.3108V58.0741H35.8767V55.647H30.984V58.0741H28.5498V55.647H16.0747V71.0592C19.8355 71.6417 22.7322 74.8941 22.7322 78.8017C22.7322 82.7094 19.8355 85.9617 16.0747 86.5442V101.944H117.129V86.5442C113.368 85.9617 110.484 82.7094 110.484 78.8017C110.484 74.8941 113.368 71.6417 117.129 71.0592ZM30.984 101.762H28.5498V98.1216H30.984V101.762ZM30.984 94.4809H28.5498V90.8403H30.984V94.4809ZM30.984 87.1996H28.5498V83.5589H30.984V87.1996ZM30.984 79.9182H28.5498V76.2775H30.984V79.9182ZM30.984 72.6368H28.5498V68.9961H30.984V72.6368ZM30.984 65.3555H28.5498V61.7148H30.984V65.3555ZM38.3108 101.762H35.8767V98.1216H38.3108V101.762ZM38.3108 94.4809H35.8767V90.8403H38.3108V94.4809ZM38.3108 87.1996H35.8767V83.5589H38.3108V87.1996ZM38.3108 79.9182H35.8767V76.2775H38.3108V79.9182ZM38.3108 72.6368H35.8767V68.9961H38.3108V72.6368ZM38.3108 65.3555H35.8767V61.7148H38.3108V65.3555ZM100.127 64.3725H102.792V61.7148H105.226V64.3725H107.879V66.7996H105.226V69.4452H102.792V66.7996H100.127V64.3725ZM45.1995 64.3725H47.8528V61.7148H50.2869V64.3725H52.9523V66.7996H50.2869V69.4452H47.8528V66.7996H45.1995V64.3725ZM60.4739 99.6629H44.2258V97.2357H60.4739V99.6629ZM60.4739 94.6023H44.2258V92.1752H60.4739V94.6023ZM94.4062 86.7991C94.0533 87.4059 93.676 87.9763 93.2621 88.5224C93.2135 88.5952 93.1648 88.668 93.1161 88.7287C92.7266 89.2626 92.2885 89.7602 91.826 90.2578C91.7773 90.3063 91.7408 90.3548 91.7043 90.4034V90.4155L91.3513 90.7796C91.2905 90.8281 91.2296 90.8767 91.1688 90.9373L90.4872 91.6291L90.4629 91.6048C89.5014 92.4422 88.4668 93.1946 87.3593 93.8378C84.4261 95.5246 81.0791 96.4105 77.6956 96.4105C76.3812 96.3984 75.1154 96.277 73.8983 96.0222L73.8862 96.0586L72.7056 95.743L71.5372 95.4275V95.3911C70.3079 94.9906 69.1274 94.4567 68.0442 93.8256C66.5715 92.964 65.2327 91.9446 64.0643 90.7796C63.4436 90.1607 62.8837 89.5053 62.3726 88.8379C62.3482 88.8136 62.3361 88.8015 62.3239 88.7772C61.8249 88.1219 61.3867 87.4544 60.9851 86.7627C60.1696 85.3428 59.5246 83.8016 59.0743 82.1633L59.0256 81.9813C58.9769 81.775 58.9404 81.5808 58.8917 81.3745C58.8552 81.2046 58.8065 81.0225 58.77 80.8527C58.7335 80.6221 58.697 80.3794 58.6605 80.1488C58.6361 79.9789 58.5996 79.809 58.5753 79.6391C58.5387 79.3721 58.5266 79.1173 58.5022 78.8503C58.4901 78.7046 58.4657 78.559 58.4536 78.4134C58.4292 78.0008 58.417 77.5882 58.417 77.1756C58.417 73.8019 59.3055 70.4767 61.0094 67.552C61.6301 66.4598 62.3847 65.4283 63.2367 64.4574L63.2002 64.4332L64.0643 63.5715L64.9284 62.722L64.9528 62.7463C65.9386 61.8847 66.9731 61.1444 68.0685 60.5134C68.6162 60.1978 69.1761 59.9187 69.7481 59.6517C69.9428 59.5668 70.1497 59.5061 70.3445 59.4211C70.7339 59.2634 71.1112 59.1056 71.4885 58.9721C71.7198 58.8993 71.951 58.8508 72.1823 58.778C72.5596 58.6687 72.9247 58.5474 73.302 58.4624C73.5332 58.4018 73.7766 58.3775 74.0079 58.3289C74.3852 58.2561 74.7625 58.1712 75.1519 58.1226C75.3832 58.0984 75.6266 58.0862 75.87 58.062C76.2595 58.0256 76.6368 57.977 77.0141 57.9649C77.2697 57.9527 77.5253 57.977 77.7808 57.977C78.146 57.977 78.5233 57.9649 78.8884 57.9891C79.1561 58.0013 79.4239 58.0498 79.6917 58.0741C80.0446 58.1105 80.4097 58.1348 80.7627 58.1955C81.0426 58.2319 81.3104 58.3047 81.5903 58.3654C81.9068 58.426 82.211 58.4746 82.5275 58.5595L82.7222 58.5959C83.1238 58.7051 83.5255 58.8265 83.9271 58.9721C85.1199 59.3726 86.2639 59.8823 87.3349 60.5012C88.4182 61.1323 89.4527 61.8725 90.4142 62.7099C90.7306 62.989 91.0471 63.2681 91.3513 63.5715C92.5319 64.7608 93.5542 66.0957 94.4062 67.5399C94.5888 67.8675 94.7713 68.1952 94.9296 68.5229C95.3434 69.3238 95.6963 70.1612 95.9884 71.0228L96.0249 71.0107L96.3414 72.1757L96.6578 73.3528L96.6091 73.365C96.8647 74.6149 96.9986 75.8892 96.9986 77.1756C96.9986 78.4498 96.8647 79.7119 96.6213 80.9376C96.2197 83.0007 95.4651 84.9788 94.4184 86.787L94.4062 86.7991ZM111.19 99.6629H94.9296V97.2357H111.19V99.6629ZM111.19 92.1752V94.6023H94.9296V92.1752H111.19Z" fill="#0280DB"/>
<path d="M94.5643 77.1755C94.5643 80.1366 93.7854 83.0491 92.3127 85.5734C92.0693 85.986 91.8137 86.3743 91.546 86.7626C91.4729 86.8597 91.3999 86.9689 91.3269 87.066C91.0713 87.4058 90.8157 87.7335 90.548 88.049C90.5114 88.0854 90.4871 88.1218 90.4506 88.1582L85.9839 83.7045L88.1625 75.6221L92.5075 74.4571L94.2601 73.996C94.2601 74.0445 94.2722 74.0931 94.2844 74.1295C94.3574 74.5421 94.4183 74.9547 94.4548 75.3673C94.467 75.5008 94.4791 75.6221 94.4913 75.7435C94.5278 76.2168 94.5643 76.6901 94.5643 77.1755Z" fill="#FAB218"/>
<path d="M88.7224 89.8574C88.5277 90.0273 88.3329 90.1972 88.1382 90.3549C87.98 90.4763 87.8339 90.5976 87.6879 90.7068C87.1889 91.0831 86.6777 91.4228 86.1422 91.7384C83.5741 93.2068 80.6653 93.9835 77.7078 93.9835C77.221 93.9835 76.7341 93.9471 76.2595 93.9107C76.1378 93.8985 76.0039 93.8864 75.8822 93.8742C75.4805 93.8257 75.0911 93.7772 74.7138 93.7043C74.6529 93.6922 74.5921 93.6801 74.519 93.6679L76.1621 87.6001L84.2679 85.4279L88.7224 89.8574Z" fill="#FAB218"/>
<path d="M73.8013 86.957L72.1825 93.0127C71.9635 92.9398 71.7566 92.8792 71.5497 92.8064C71.3671 92.7335 71.1845 92.6607 71.0141 92.5879C70.4178 92.3331 69.8214 92.054 69.2737 91.7263C67.9836 90.9739 66.803 90.0758 65.7929 89.0686C64.9166 88.1827 64.162 87.2482 63.5291 86.2653C63.383 86.0226 63.237 85.792 63.1031 85.5614C62.7867 85.0153 62.5067 84.4449 62.2633 83.8624C62.1781 83.6925 62.1173 83.5226 62.0442 83.3406C61.959 83.1221 61.8982 82.9037 61.813 82.6853L67.8862 81.0591L73.8013 86.957Z" fill="#FAB218"/>
<path d="M85.8014 74.9912L83.635 83.0735L75.5171 85.2458L69.6021 79.3479L71.7806 71.2655L79.8864 69.0933L85.8014 74.9912Z" fill="#FAB218"/>
<path d="M93.5908 71.654L87.5298 73.2801L81.6147 67.3822L83.2335 61.3265C83.4525 61.4115 83.6716 61.4722 83.8907 61.5571C84.0611 61.6299 84.2436 61.6906 84.414 61.7634C84.9982 62.0183 85.5703 62.2974 86.118 62.6008C87.3837 63.3411 88.5765 64.2391 89.6231 65.2949C90.6577 66.3264 91.5583 67.4914 92.3007 68.7657C92.3007 68.7657 92.3129 68.7778 92.3129 68.7899C92.6293 69.3482 92.9093 69.9307 93.1649 70.5132C93.2501 70.6831 93.3109 70.8651 93.3839 71.035C93.457 71.2413 93.5178 71.4476 93.5908 71.654Z" fill="#FAB218"/>
<path d="M80.8602 60.6832L79.2415 66.7268L71.1236 68.8991L66.7056 64.4938C66.876 64.3482 67.0342 64.1904 67.2167 64.0448C67.3628 63.9356 67.5088 63.8142 67.6549 63.705C68.1782 63.3045 68.7259 62.9405 69.2858 62.6128C69.7483 62.3458 70.2108 62.1152 70.6976 61.8968C70.8436 61.824 71.0019 61.7754 71.1479 61.7148C71.4887 61.5691 71.8295 61.4357 72.1824 61.3143C72.3407 61.2536 72.5232 61.2051 72.6936 61.1565C73.0222 61.0473 73.363 60.9502 73.716 60.8653C73.8864 60.8167 74.0568 60.7925 74.2271 60.7561C74.5801 60.6832 74.9331 60.6104 75.286 60.5619C75.4564 60.5376 75.6268 60.5133 75.7972 60.5012C76.1623 60.4527 76.5274 60.4284 76.8804 60.4041C77.0629 60.4041 77.2333 60.392 77.4037 60.392C77.7567 60.3799 78.1218 60.392 78.4748 60.4041C78.6573 60.4163 78.8399 60.4163 79.0103 60.4284C79.3632 60.4648 79.704 60.5012 80.0448 60.5498C80.2395 60.574 80.4343 60.5983 80.629 60.6347C80.702 60.6468 80.7872 60.6711 80.8602 60.6832Z" fill="#FAB218"/>
<path d="M69.4077 70.6103L67.2291 78.6926L61.1558 80.3188C61.1437 80.2824 61.1437 80.246 61.1315 80.2096C61.0585 79.797 60.9976 79.3844 60.9611 78.9596C60.9368 78.8383 60.9246 78.7169 60.9124 78.5955C60.8759 78.1223 60.8516 77.649 60.8516 77.1757C60.8516 74.2267 61.6305 71.3142 63.1153 68.7657C63.444 68.2075 63.8091 67.6614 64.1985 67.1395C64.3081 66.9939 64.4298 66.8483 64.5515 66.7026C64.6854 66.5327 64.8436 66.375 64.9775 66.2051L69.4077 70.6103Z" fill="#FAB218"/>
<path d="M119.576 47.7588L112.614 34.0092C111.044 34.5189 109.352 34.5189 107.746 33.997C105.75 33.3417 104.131 31.9461 103.182 30.0894C101.417 26.5943 102.524 22.3833 105.616 20.1746L98.6663 6.42493L28.2945 41.8245L29.3899 43.9968L27.2113 45.089L26.1159 42.9167L21.7466 45.1133L22.8419 47.2855L20.6755 48.3778L19.5802 46.2055L8.44385 51.8121L13.6408 62.091V53.2199H23.134L22.3186 51.6301L24.4972 50.5258L25.5195 52.5645L24.2173 53.2199H56.6525C56.4213 52.8315 56.1779 52.431 55.971 52.0184C54.4374 48.9967 53.7315 45.6108 53.9263 42.2493C53.9871 40.9993 54.194 39.7372 54.5226 38.4994L54.4739 38.4872L54.8634 37.3222C54.8634 37.3101 54.8756 37.2979 54.8756 37.2858L55.2407 36.1815L55.2772 36.1936C55.4476 35.7688 55.6302 35.3684 55.8249 34.9558L55.8371 34.9436C56.19 34.2155 56.5917 33.5116 57.0298 32.8442C57.0298 32.832 57.042 32.8078 57.0542 32.7956C57.188 32.5893 57.3341 32.3951 57.4801 32.201C59.1719 29.8224 61.387 27.8686 63.955 26.473C64.1376 26.3759 64.3202 26.2667 64.5027 26.1696C64.8678 25.9875 65.2451 25.8176 65.6224 25.6599C65.878 25.5507 66.1336 25.4536 66.3892 25.3565C66.5109 25.3079 66.6326 25.2594 66.7665 25.2109C66.9977 25.138 67.2168 25.0652 67.4481 24.9924C67.6306 24.9439 67.801 24.8832 67.9836 24.8347C68.0688 24.8104 68.1661 24.7861 68.2513 24.7618C68.5556 24.6769 68.8477 24.6041 69.1641 24.5313L69.2737 24.507C70.0891 24.3371 70.9167 24.2279 71.7444 24.1672C72.5842 24.1065 73.4118 24.0944 74.2394 24.1429C75.0913 24.1793 75.9311 24.2886 76.7587 24.4463C77.4525 24.5798 78.1219 24.7497 78.7913 24.956C78.9252 24.9924 79.0712 25.0288 79.2173 25.0774C80.8116 25.5992 82.333 26.3273 83.7448 27.2496C84.8037 27.9414 85.7773 28.7787 86.6902 29.6646L86.751 29.6161L87.5665 30.5141C87.5665 30.5263 87.5665 30.5263 87.5665 30.5263L88.3819 31.4243L88.3454 31.4486C89.1365 32.4558 89.8181 33.5359 90.4023 34.6766C90.5118 34.8829 90.597 35.0893 90.6944 35.2956C91.3029 36.6305 91.7776 38.0139 92.0697 39.4338C92.4226 41.0721 92.5443 42.759 92.447 44.4215C92.4104 45.089 92.3252 45.7443 92.2157 46.3996L92.1792 46.6545C92.0697 47.2613 91.9358 47.8802 91.7532 48.487C91.741 48.5355 91.7411 48.5841 91.7289 48.6447L91.5098 49.3729C91.4733 49.4821 91.4246 49.5792 91.3881 49.6884L91.1203 50.5136L91.096 50.5015C90.7187 51.4359 90.2562 52.3461 89.7329 53.2199H108.865L108.841 53.1592L119.576 47.7588ZM30.4609 51.4966L28.8543 48.3413L31.0329 47.2491L32.6273 50.4044L30.4609 51.4966ZM47.5122 45.9264H44.859V48.5841H42.4248V45.9264H39.7594V43.4992H42.4248V40.8537H44.859V43.4992H47.5122V45.9264ZM93.8344 22.7109H91.4003V20.0654H88.7349V17.6382H91.4003V14.9805H93.8344V17.6382H96.4877V20.0654H93.8344V22.7109ZM95.3314 48.9967L109.851 41.7032L110.947 43.8633L96.4268 51.1689L95.3314 48.9967ZM106.614 48.9967L112.139 46.2176L113.235 48.3899L107.709 51.1689L106.614 48.9967Z" fill="#B1161B"/>
<path d="M32.6275 50.4045L30.461 51.4967L28.8545 48.3415L31.0331 47.2493L32.6275 50.4045Z" fill="#323232"/>
<path d="M110.947 43.8633L96.4269 51.1689L95.3315 48.9966L109.851 41.7031L110.947 43.8633Z" fill="#323232"/>
<path d="M113.235 48.3898L107.709 51.1689L106.614 48.9966L112.139 46.2175L113.235 48.3898Z" fill="#323232"/>
<path d="M52.9525 64.3725V66.7997H50.2871V69.4452H47.8529V66.7997H45.1997V64.3725H47.8529V61.7148H50.2871V64.3725H52.9525Z" fill="#323232"/>
<path d="M47.5121 43.4993V45.9264H44.8589V48.5841H42.4247V45.9264H39.7593V43.4993H42.4247V40.8538H44.8589V43.4993H47.5121Z" fill="#323232"/>
<path d="M96.4872 17.6382V20.0653H93.8339V22.7109H91.3998V20.0653H88.7344V17.6382H91.3998V14.9805H93.8339V17.6382H96.4872Z" fill="#323232"/>
<path d="M107.88 64.3725V66.7997H105.227V69.4452H102.792V66.7997H100.127V64.3725H102.792V61.7148H105.227V64.3725H107.88Z" fill="#323232"/>
<defs>
<filter id="filter0_d" x="0" y="0" width="132" height="116" filterUnits="userSpaceOnUse" color-interpolation-filters="sRGB">
<feFlood flood-opacity="0" result="BackgroundImageFix"/>
<feColorMatrix in="SourceAlpha" type="matrix" values="0 0 0 0 0 0 0 0 0 0 0 0 0 0 0 0 0 0 127 0"/>
<feOffset dx="2" dy="4"/>
<feGaussianBlur stdDeviation="2"/>
<feColorMatrix type="matrix" values="0 0 0 0 0 0 0 0 0 0 0 0 0 0 0 0 0 0 0.25 0"/>
<feBlend mode="normal" in2="BackgroundImageFix" result="effect1_dropShadow"/>
<feBlend mode="normal" in="SourceGraphic" in2="effect1_dropShadow" result="shape"/>
</filter>
</defs>
</svg>
