<svg width="281" height="111" viewBox="0 0 281 111" fill="none" xmlns="http://www.w3.org/2000/svg">
<path d="M56.3508 20.8866C56.9973 17.6567 56.4586 14.7498 54.6269 12.2736C52.7952 9.79732 49.4551 8.50537 44.4988 8.50537H30.5997C23.5962 8.7207 20.1484 10.551 18.5322 18.7333L11.2055 55.5539H33.6165C40.62 55.5539 45.4685 54.1543 48.1622 51.4628C50.8558 48.6635 52.5797 45.5413 53.2262 42.0961C54.4114 36.2823 52.041 32.6218 46.2228 31.1145C49.0241 30.3609 51.179 29.0689 52.903 27.2387C54.7346 25.3007 55.8121 23.2551 56.3508 20.8866ZM39.5425 40.9118C39.3271 41.9884 38.6806 42.9574 37.7109 43.8187C36.7412 44.68 35.3405 45.1107 33.6165 45.1107H26.6131L28.337 36.6053H34.9095C37.0644 36.6053 38.3573 37.036 39.0038 38.0049C39.6503 38.8662 39.758 39.8352 39.5425 40.9118ZM42.4517 22.6092C42.2362 23.5781 41.6975 24.4394 40.8355 25.3007C39.9735 26.162 38.6806 26.5927 37.0644 26.5927H30.3842L31.3539 21.4249C32.1081 19.2716 33.5088 18.7333 35.8792 18.6257H38.3573C41.5897 18.6257 42.8827 19.9176 42.4517 22.6092Z" fill="white"/>
<path d="M135.651 25.0853C133.928 21.8554 131.018 20.2405 126.816 20.2405C121.968 20.2405 118.304 22.1784 115.826 25.9466L116.796 20.9941H113.671C106.991 21.3171 103.651 23.1474 102.143 31.2221L94.9237 67.8274H97.2941C104.729 67.8274 108.5 66.5354 110.439 59.2143L111.84 52.3239C113.24 55.3385 115.934 56.8458 119.921 56.8458C123.907 56.8458 127.463 55.2308 130.48 51.8933C133.604 48.5557 135.651 44.1416 136.729 38.5431C137.591 32.7293 137.375 28.3152 135.651 25.0853ZM122.291 38.6508C121.645 41.773 120.89 44.1416 119.921 45.6489C118.951 47.1561 117.766 47.9098 116.042 47.9098C114.964 47.9098 114.21 47.4791 113.671 46.6178C113.133 45.7565 113.025 44.5722 113.348 42.9573L115.395 32.9447C115.719 31.4374 116.365 30.3608 117.335 29.7148C118.304 29.0688 119.166 28.7458 120.028 28.7458C121.429 28.7458 122.399 29.4995 122.83 31.0067C123.261 32.514 123.045 35.0979 122.291 38.6508Z" fill="white"/>
<path d="M211.612 35.7439C209.78 33.6983 206.656 32.6217 202.238 32.6217H195.881L198.252 20.7788H194.265C187.585 20.9941 184.137 22.8244 182.521 30.4684L177.564 55.5538H197.713C199.76 55.5538 202.13 55.2308 204.608 54.4772C207.194 53.7236 209.134 52.4316 210.534 50.4937C211.935 48.5558 212.905 46.5102 213.336 44.2493C213.982 40.6964 213.444 37.7895 211.612 35.7439ZM201.376 44.0339C201.161 45.2182 200.73 46.1872 200.083 46.8332C199.437 47.4791 198.359 47.8021 196.851 47.8021H192.326L193.295 42.8496C193.834 40.9117 194.911 40.3734 196.851 40.3734H198.252C199.544 40.3734 200.514 40.5887 200.945 41.127C201.484 41.5577 201.592 42.5267 201.376 44.0339Z" fill="white"/>
<path d="M160.217 55.6614C168.083 55.6614 171.962 54.1541 173.578 45.6488L178.534 20.8864H174.548C167.76 21.1017 164.312 22.9319 162.696 31.1143L162.265 33.3752H155.8L158.278 20.8864H154.291C147.503 21.1017 144.056 22.9319 142.439 31.1143L137.591 55.769H139.961C147.611 55.769 151.382 54.3694 153.214 46.5101L154.184 41.5576H160.648L157.847 55.769" fill="white"/>
<path d="M215.922 55.6614C223.895 55.6614 227.666 54.1541 229.39 45.4334L234.238 20.8864H230.252C223.464 21.1017 220.016 22.9319 218.4 31.1143L213.551 55.769L215.922 55.6614Z" fill="white"/>
<path d="M254.387 55.6614H256.757C264.407 55.6614 268.178 54.2618 270.01 46.4024L275.074 20.8864H271.842C263.007 20.8864 261.821 23.4703 256.003 31.1143C256.003 31.1143 251.586 37.3587 249.538 40.4809C250.508 36.9281 253.848 20.8864 253.848 20.8864H249.862C243.181 21.1017 239.734 22.9319 238.117 30.6837L233.161 55.6614H236.824C245.66 55.6614 246.845 53.0775 252.555 45.4334L258.05 37.4664" fill="white"/>
<path d="M266.993 72.0262C273.673 72.3492 279.815 71.9185 281 68.1503C137.591 57.5994 31.2462 82.5771 30.3842 82.7925C15.4076 85.484 2.58589 92.8051 0 103.571C76.607 77.84 181.659 67.612 266.778 72.0262H266.993Z" fill="white"/>
<path d="M280.03 0C277.337 1.18429 268.394 5.49079 262.037 6.13677C257.512 6.56742 255.895 6.45976 252.016 4.95248C251.586 5.92144 254.279 19.5946 267.101 12.3812C267.963 11.8429 280.03 3.66053 280.03 0Z" fill="white"/>
<path d="M84.9034 44.1417H83.5027C82.7485 44.2494 81.7788 44.4647 81.1323 45.003C80.7013 45.4336 80.5936 45.7566 79.8393 46.4026C78.7619 47.2639 77.3612 47.4792 75.5295 47.4792C73.4824 47.4792 72.1894 46.9409 71.6507 45.8643C71.112 44.7877 71.112 43.1727 71.4352 40.9118H82.7485C92.3378 40.9118 97.0786 40.9118 95.4624 30.6839C95.0314 28.5306 94.1695 26.5927 92.8765 24.9777C90.0752 21.5325 85.8731 19.9176 80.2703 19.9176C74.4521 19.9176 69.4958 21.7479 65.2937 25.3007C61.0916 28.9613 58.5058 33.3754 57.4283 38.5432C56.4586 43.6034 57.3206 47.8022 60.2297 51.2474C63.0311 54.6926 67.4486 56.4152 73.3746 56.4152C78.6541 56.4152 83.1795 55.2309 86.7351 52.7547C90.2906 50.2785 92.5533 47.9099 93.954 44.1417H84.9034ZM78.7619 27.9923C80.1626 27.9923 81.24 28.4229 81.9943 29.1766C82.533 29.8226 82.8562 31.2222 82.6407 32.7295C82.6407 33.1601 82.4252 33.9137 81.4555 33.9137C80.4858 33.9137 72.6204 33.9137 72.6204 33.9137C73.4824 30.0379 75.5295 27.9923 78.7619 27.9923Z" fill="white"/>
<path d="M114.318 88.0679C113.995 87.9602 113.564 87.9602 112.809 87.9602C112.271 87.9602 111.947 87.9602 111.624 87.9602C111.301 87.9602 111.086 88.0679 110.87 88.0679C110.655 88.0679 110.547 88.1755 110.439 88.2832C110.331 88.3908 110.331 88.4985 110.331 88.6062C110.008 89.5751 109.793 90.5441 109.469 91.4054C109.146 92.3744 108.823 93.2357 108.392 94.2046C107.961 95.1736 107.53 96.0349 107.099 96.8962C106.668 97.7575 106.129 98.6188 105.483 99.4801L103.867 88.7138C103.867 88.4985 103.759 88.3908 103.759 88.2832C103.759 88.1755 103.651 88.0679 103.436 88.0679C103.328 87.9602 103.112 87.9602 102.789 87.9602C102.466 87.9602 102.143 87.9602 101.712 87.9602C101.281 87.9602 100.957 87.9602 100.634 87.9602C100.311 87.9602 100.095 88.0679 99.88 88.0679C99.6645 88.1755 99.5568 88.2832 99.449 88.3908C99.3413 88.4985 99.3413 88.7138 99.3413 88.9292C99.3413 89.0368 99.3413 89.1445 99.3413 89.3598C99.3413 89.5751 99.3413 89.6828 99.449 89.7905L102.035 104.648L98.0483 109.816C97.9406 110.031 97.8328 110.139 97.8328 110.354C97.8328 110.462 97.8328 110.569 98.0483 110.677C98.1561 110.785 98.3715 110.785 98.6948 110.892C99.018 110.892 99.449 111 99.88 111C100.311 111 100.742 111 101.065 111C101.388 111 101.712 110.892 101.927 110.892C102.143 110.785 102.358 110.785 102.466 110.677C102.574 110.569 102.789 110.462 102.897 110.354L107.099 104.325C108.069 102.925 108.931 101.633 109.685 100.341C110.439 99.0494 111.086 97.8652 111.732 96.5732C112.271 95.3889 112.809 94.2046 113.348 93.128C113.779 92.0514 114.21 90.8671 114.641 89.7905C114.749 89.5751 114.749 89.3598 114.749 89.2521C114.749 89.0368 114.749 88.9292 114.749 88.7138C114.641 88.2832 114.533 88.0679 114.318 88.0679ZM132.635 88.6062C132.635 88.4985 132.635 88.3908 132.635 88.2832C132.635 88.1755 132.527 88.1755 132.311 88.0679C132.204 87.9602 131.988 87.9602 131.665 87.9602C131.342 87.9602 131.018 87.9602 130.587 87.9602C130.156 87.9602 129.833 87.9602 129.51 87.9602C129.187 87.9602 128.971 88.0679 128.756 88.0679C128.54 88.1755 128.433 88.1755 128.325 88.2832C128.217 88.3908 128.217 88.4985 128.217 88.6062L127.032 94.4199H120.89L122.076 88.6062C122.076 88.4985 122.076 88.3908 122.076 88.2832C122.076 88.1755 121.968 88.1755 121.752 88.0679C121.645 87.9602 121.429 87.9602 121.106 87.9602C120.783 87.9602 120.459 87.9602 120.028 87.9602C119.597 87.9602 119.274 87.9602 118.951 87.9602C118.628 87.9602 118.412 88.0679 118.304 88.0679C118.089 88.1755 117.981 88.1755 117.873 88.2832C117.766 88.3908 117.766 88.4985 117.658 88.6062L114.533 104.002C114.533 104.11 114.533 104.217 114.533 104.325C114.533 104.433 114.641 104.433 114.857 104.54C114.964 104.648 115.18 104.648 115.503 104.648C115.826 104.648 116.15 104.648 116.581 104.648C117.011 104.648 117.335 104.648 117.658 104.648C117.981 104.648 118.197 104.54 118.412 104.54C118.628 104.433 118.735 104.433 118.843 104.325C118.951 104.217 118.951 104.11 119.059 104.002L120.244 97.9728H126.385L125.2 104.002C125.2 104.11 125.2 104.217 125.2 104.325C125.2 104.433 125.308 104.433 125.523 104.54C125.631 104.648 125.847 104.648 126.17 104.648C126.493 104.648 126.816 104.648 127.247 104.648C127.678 104.648 128.002 104.648 128.325 104.648C128.648 104.648 128.863 104.54 128.971 104.54C129.187 104.433 129.294 104.433 129.402 104.325C129.51 104.217 129.51 104.11 129.618 104.002L132.635 88.6062ZM151.382 88.6062C151.382 88.4985 151.382 88.3908 151.382 88.2832C151.382 88.1755 151.275 88.1755 151.059 88.0679C150.951 88.0679 150.736 87.9602 150.413 87.9602C150.089 87.9602 149.766 87.9602 149.335 87.9602C148.904 87.9602 148.581 87.9602 148.258 87.9602C147.934 87.9602 147.719 88.0679 147.611 88.0679C147.396 88.0679 147.288 88.1755 147.18 88.2832C147.072 88.3908 147.072 88.4985 147.072 88.6062L145.78 95.2813C145.564 96.1426 145.349 96.8962 144.918 97.6498C144.594 98.4035 144.163 99.0494 143.732 99.5878C143.301 100.126 142.763 100.557 142.224 100.88C141.685 101.203 141.254 101.31 140.715 101.31C140.5 101.31 140.285 101.31 140.069 101.203C139.854 101.095 139.746 100.987 139.638 100.88C139.53 100.772 139.423 100.557 139.423 100.341C139.423 100.126 139.315 99.9107 139.315 99.5878C139.315 99.3724 139.315 99.0494 139.315 98.8341C139.315 98.5111 139.423 98.2958 139.423 98.0805L141.254 88.8215C141.254 88.7138 141.254 88.6062 141.254 88.4985C141.254 88.3908 141.146 88.3908 140.931 88.2832C140.823 88.2832 140.608 88.1755 140.285 88.1755C139.961 88.1755 139.638 88.1755 139.207 88.1755C138.776 88.1755 138.453 88.1755 138.13 88.1755C137.806 88.1755 137.591 88.2832 137.375 88.2832C137.16 88.2832 137.052 88.3908 136.944 88.4985C136.837 88.6062 136.837 88.7138 136.729 88.8215L134.789 98.4035C134.682 98.8341 134.682 99.2648 134.574 99.6954C134.574 100.126 134.466 100.557 134.466 100.88C134.466 101.526 134.574 102.064 134.682 102.602C134.789 103.141 135.113 103.571 135.436 104.002C135.759 104.433 136.19 104.648 136.837 104.971C137.375 105.186 138.13 105.294 138.884 105.294C139.53 105.294 140.177 105.186 140.823 104.971C141.47 104.756 142.008 104.54 142.547 104.11C143.086 103.787 143.517 103.356 143.948 103.033C144.379 102.602 144.702 102.172 144.918 101.849L144.487 104.325C144.487 104.433 144.487 104.54 144.487 104.648C144.487 104.756 144.594 104.756 144.702 104.863C144.81 104.863 145.025 104.971 145.241 104.971C145.456 104.971 145.78 104.971 146.103 104.971C146.426 104.971 146.749 104.971 146.965 104.971C147.18 104.971 147.396 104.863 147.611 104.863C147.719 104.863 147.934 104.756 147.934 104.648C148.042 104.54 148.042 104.433 148.042 104.325L151.382 88.6062ZM167.652 97.8652C167.544 97.5422 167.329 97.2192 167.113 96.8962C166.898 96.5732 166.574 96.3579 166.251 96.1426C165.928 95.9272 165.389 95.8196 164.85 95.7119C165.389 95.6042 165.82 95.3889 166.359 95.1736C166.79 94.9583 167.221 94.6353 167.544 94.3123C167.867 93.9893 168.083 93.5586 168.298 93.128C168.514 92.6973 168.622 92.159 168.622 91.6207C168.622 91.0824 168.514 90.5441 168.298 90.1134C168.083 89.5751 167.76 89.2521 167.221 88.8215C166.682 88.4985 166.143 88.1755 165.389 87.9602C164.635 87.7449 163.773 87.6372 162.696 87.6372C161.295 87.6372 160.217 87.8525 159.14 88.2832C158.17 88.7138 157.308 89.2521 156.554 89.8981C155.8 90.5441 155.261 91.2977 154.83 92.159C154.399 93.0203 153.968 93.8816 153.753 94.7429C153.537 95.6042 153.322 96.4655 153.214 97.2192C153.106 97.9728 153.106 98.7265 153.106 99.2648C153.106 100.234 153.214 100.987 153.537 101.741C153.86 102.495 154.184 103.033 154.722 103.571C155.261 104.002 155.908 104.433 156.77 104.648C157.632 104.863 158.493 104.971 159.679 104.971C160.756 104.971 161.618 104.863 162.48 104.756C163.342 104.54 163.988 104.325 164.635 104.11C165.281 103.787 165.82 103.464 166.251 103.141C166.682 102.71 167.005 102.279 167.329 101.849C167.652 101.418 167.76 100.88 167.975 100.449C168.191 100.018 168.191 99.4801 168.191 98.9418C167.867 98.5111 167.76 98.1881 167.652 97.8652ZM164.204 93.128C164.096 93.451 163.881 93.6663 163.558 93.8816C163.234 94.097 162.911 94.2046 162.48 94.4199C162.049 94.5276 161.51 94.6353 160.972 94.6353H158.062C158.278 93.9893 158.493 93.451 158.817 92.9127C159.14 92.3744 159.463 91.9437 159.786 91.6207C160.11 91.2977 160.541 91.0824 160.972 90.8671C161.403 90.6518 161.834 90.6518 162.372 90.6518C162.803 90.6518 163.127 90.6518 163.342 90.7594C163.558 90.8671 163.773 90.9747 163.988 91.0824C164.204 91.1901 164.312 91.4054 164.419 91.6207C164.527 91.836 164.527 91.9437 164.527 92.159C164.419 92.482 164.312 92.9127 164.204 93.128ZM163.234 100.126C163.127 100.449 162.911 100.772 162.588 101.095C162.265 101.418 161.941 101.633 161.51 101.741C161.079 101.849 160.541 101.956 159.894 101.956C158.924 101.956 158.278 101.741 157.847 101.31C157.416 100.88 157.201 100.234 157.201 99.2648C157.201 98.9418 157.201 98.6188 157.201 98.2958C157.201 97.9728 157.308 97.6498 157.308 97.3268H160.217C160.864 97.3268 161.403 97.3268 161.834 97.4345C162.265 97.5422 162.588 97.6498 162.803 97.8652C163.019 97.9728 163.234 98.1881 163.234 98.4035C163.342 98.6188 163.342 98.8341 163.342 99.0494C163.45 99.3724 163.45 99.6954 163.234 100.126ZM185.861 90.3288C185.645 89.7905 185.214 89.3598 184.783 88.9292C184.245 88.4985 183.706 88.1755 182.952 87.9602C182.197 87.7449 181.336 87.6372 180.258 87.6372C179.073 87.6372 177.995 87.8525 177.026 88.1755C176.056 88.4985 175.194 89.0368 174.548 89.5751C173.793 90.2211 173.255 90.8671 172.716 91.6207C172.177 92.3744 171.746 93.2357 171.423 94.097C171.1 94.9583 170.884 95.8196 170.669 96.6809C170.561 97.5422 170.453 98.4035 170.453 99.1571C170.453 100.126 170.561 100.987 170.884 101.741C171.207 102.495 171.531 103.033 172.177 103.571C172.716 104.002 173.47 104.433 174.224 104.648C175.086 104.863 176.056 104.971 177.133 104.971C177.78 104.971 178.426 104.971 179.073 104.863C179.719 104.756 180.258 104.648 180.797 104.54C181.336 104.433 181.766 104.325 182.09 104.11C182.413 104.002 182.736 103.787 182.844 103.679C182.952 103.571 183.059 103.356 183.167 103.141C183.275 102.925 183.383 102.71 183.383 102.495C183.49 102.279 183.49 101.956 183.49 101.741C183.49 101.526 183.49 101.31 183.49 101.095C183.49 100.88 183.49 100.772 183.383 100.664C183.275 100.557 183.275 100.557 183.059 100.557C182.844 100.557 182.736 100.664 182.413 100.772C182.09 100.88 181.766 100.987 181.228 101.095C180.797 101.203 180.258 101.31 179.612 101.418C178.965 101.526 178.319 101.633 177.564 101.633C176.487 101.633 175.733 101.418 175.194 100.88C174.763 100.449 174.44 99.6954 174.44 98.7265C174.44 98.5111 174.44 98.2958 174.44 97.9728C174.44 97.7575 174.548 97.4345 174.548 97.2192H176.164C177.888 97.2192 179.288 97.1115 180.474 96.7885C181.659 96.5732 182.736 96.1426 183.49 95.7119C184.245 95.2813 184.891 94.6353 185.214 93.9893C185.538 93.3433 185.753 92.5897 185.753 91.7284C186.184 91.4054 186.076 90.8671 185.861 90.3288ZM181.659 93.2357C181.443 93.5586 181.228 93.774 180.797 93.9893C180.366 94.2046 179.935 94.3123 179.288 94.5276C178.642 94.6353 177.888 94.7429 176.918 94.7429H175.625C175.733 94.2046 175.948 93.6663 176.271 93.2357C176.487 92.805 176.81 92.3744 177.133 91.9437C177.457 91.6207 177.888 91.2977 178.319 91.0824C178.75 90.8671 179.288 90.7594 179.827 90.7594C180.474 90.7594 181.012 90.8671 181.443 91.1901C181.766 91.5131 181.982 91.8361 181.982 92.3744C181.982 92.5897 181.874 92.9127 181.659 93.2357ZM204.393 91.1901C204.178 90.4364 203.962 89.8981 203.531 89.3598C203.208 88.8215 202.669 88.3908 202.023 88.0679C201.376 87.7449 200.622 87.6372 199.76 87.6372C199.113 87.6372 198.467 87.7449 197.821 87.9602C197.174 88.1755 196.635 88.4985 196.097 88.8215C195.558 89.1445 195.127 89.5751 194.696 89.8981C194.373 90.3288 194.049 90.6518 193.834 91.0824L194.373 88.6062C194.373 88.4985 194.373 88.3908 194.373 88.2832C194.373 88.1755 194.265 88.1755 194.049 88.0679C193.942 88.0679 193.726 87.9602 193.511 87.9602C193.295 87.9602 192.972 87.9602 192.649 87.9602C191.895 87.9602 191.464 87.9602 191.14 88.0679C190.817 88.1755 190.602 88.3908 190.602 88.6062L186.292 110.139C186.292 110.246 186.292 110.354 186.292 110.462C186.292 110.569 186.4 110.677 186.615 110.677C186.723 110.785 186.938 110.785 187.262 110.785C187.477 110.785 187.908 110.785 188.339 110.785C188.77 110.785 189.093 110.785 189.416 110.785C189.74 110.785 189.955 110.677 190.171 110.677C190.386 110.569 190.494 110.569 190.602 110.462C190.709 110.354 190.709 110.246 190.817 110.139L192.218 103.141C192.433 103.356 192.649 103.679 192.972 103.894C193.295 104.11 193.511 104.325 193.942 104.433C194.265 104.648 194.696 104.756 195.019 104.863C195.45 104.971 195.881 104.971 196.312 104.971C197.282 104.971 198.252 104.756 199.006 104.433C199.868 104.11 200.514 103.571 201.161 103.033C201.807 102.387 202.346 101.741 202.777 100.987C203.208 100.234 203.639 99.3724 203.854 98.5111C204.178 97.6498 204.393 96.7885 204.501 95.9272C204.609 95.0659 204.716 94.2046 204.716 93.451C204.609 92.6974 204.501 91.9437 204.393 91.1901ZM199.975 95.3889C199.868 95.9272 199.76 96.4655 199.652 97.0039C199.544 97.5422 199.329 98.0805 199.113 98.6188C198.898 99.1571 198.575 99.5878 198.252 99.9107C197.928 100.341 197.605 100.557 197.174 100.88C196.743 101.095 196.312 101.203 195.881 101.203C195.235 101.203 194.696 101.095 194.157 100.772C193.618 100.449 193.188 100.018 192.864 99.3724L193.403 97.0039C193.511 96.2502 193.834 95.4966 194.157 94.7429C194.48 94.097 194.911 93.451 195.342 92.9127C195.773 92.3744 196.312 91.9437 196.851 91.6207C197.39 91.2977 197.928 91.1901 198.467 91.1901C198.79 91.1901 199.113 91.2977 199.329 91.4054C199.544 91.5131 199.76 91.7284 199.868 91.9437C199.975 92.159 200.083 92.482 200.191 92.805C200.299 93.128 200.299 93.451 200.299 93.8816C200.083 94.3123 200.083 94.8506 199.975 95.3889ZM220.339 89.2521C220.339 89.1445 220.232 89.0368 220.124 88.9292C220.016 88.8215 219.801 88.6062 219.477 88.4985C219.154 88.2832 218.831 88.1755 218.508 88.0679C218.184 87.9602 217.753 87.8525 217.322 87.7449C216.891 87.6372 216.46 87.6372 215.922 87.6372C214.737 87.6372 213.659 87.8525 212.797 88.1755C211.935 88.4985 211.073 89.0368 210.427 89.6828C209.78 90.3288 209.134 90.9747 208.703 91.8361C208.272 92.5897 207.841 93.451 207.518 94.3123C207.194 95.1736 206.979 96.0349 206.871 96.8962C206.763 97.7575 206.656 98.5111 206.656 99.2648C206.656 101.203 207.194 102.71 208.164 103.679C209.134 104.648 210.642 105.186 212.582 105.186C213.12 105.186 213.659 105.186 214.198 105.079C214.737 104.971 215.168 104.863 215.599 104.756C216.03 104.648 216.461 104.433 216.784 104.217C217.107 104.002 217.322 103.894 217.538 103.679C217.646 103.571 217.861 103.356 217.969 103.033C218.077 102.818 218.184 102.495 218.184 102.172C218.292 101.849 218.292 101.526 218.4 101.31C218.4 100.987 218.508 100.772 218.508 100.557C218.508 100.341 218.508 100.234 218.4 100.126C218.4 100.018 218.292 100.018 218.184 100.018C217.969 100.018 217.753 100.126 217.538 100.234C217.322 100.449 216.999 100.557 216.676 100.772C216.353 100.987 215.922 101.203 215.491 101.31C215.06 101.526 214.521 101.526 213.875 101.526C213.013 101.526 212.366 101.31 211.935 100.772C211.504 100.341 211.289 99.5878 211.289 98.6188C211.289 98.2958 211.289 97.8652 211.396 97.3268C211.504 96.7885 211.612 96.2502 211.72 95.7119C211.827 95.1736 212.043 94.6353 212.258 94.097C212.474 93.5587 212.797 93.128 213.12 92.6973C213.444 92.2667 213.875 91.9437 214.306 91.6207C214.737 91.4054 215.275 91.1901 215.922 91.1901C216.46 91.1901 216.999 91.2977 217.322 91.4054C217.646 91.5131 217.969 91.7284 218.184 91.8361C218.4 92.0514 218.615 92.159 218.831 92.2667C219.046 92.3744 219.154 92.482 219.37 92.482C219.585 92.482 219.693 92.3744 219.908 92.159C220.016 91.9437 220.232 91.7284 220.339 91.4054C220.447 91.0824 220.555 90.7594 220.555 90.4364C220.663 90.1134 220.663 89.7905 220.663 89.5751C220.447 89.4675 220.447 89.3598 220.339 89.2521ZM238.333 88.6062C238.333 88.4985 238.333 88.3908 238.333 88.2832C238.333 88.1755 238.225 88.1755 238.01 88.0679C237.902 88.0679 237.686 87.9602 237.471 87.9602C237.255 87.9602 236.932 87.9602 236.609 87.9602C235.855 87.9602 235.424 87.9602 235.1 88.0679C234.777 88.1755 234.562 88.3908 234.562 88.6062L234.238 90.0058C233.7 89.2521 233.053 88.7138 232.299 88.2832C231.545 87.8525 230.683 87.6372 229.713 87.6372C228.636 87.6372 227.774 87.8525 226.912 88.1755C226.05 88.4985 225.403 89.0368 224.757 89.6828C224.11 90.3288 223.572 90.9747 223.141 91.8361C222.71 92.5897 222.279 93.451 222.063 94.3123C221.74 95.1736 221.525 96.0349 221.417 96.8962C221.309 97.7575 221.201 98.5111 221.201 99.2648C221.201 100.018 221.309 100.772 221.417 101.526C221.525 102.279 221.848 102.818 222.171 103.356C222.494 103.894 223.033 104.325 223.679 104.648C224.326 104.971 225.08 105.186 225.942 105.186C226.589 105.186 227.235 105.079 227.882 104.863C228.528 104.648 229.067 104.325 229.605 104.002C230.144 103.679 230.575 103.248 231.006 102.925C231.437 102.602 231.653 102.172 231.868 101.741L231.329 104.217C231.329 104.325 231.329 104.433 231.329 104.54C231.329 104.648 231.437 104.648 231.653 104.756C231.76 104.756 231.976 104.863 232.191 104.863C232.407 104.863 232.73 104.863 233.053 104.863C233.808 104.863 234.238 104.863 234.562 104.756C234.885 104.648 235.1 104.433 235.1 104.217L238.333 88.6062ZM232.515 95.4966C232.407 96.2502 232.084 97.0039 231.76 97.7575C231.437 98.4035 231.006 99.0494 230.575 99.5878C230.144 100.126 229.605 100.557 229.067 100.88C228.528 101.203 227.989 101.31 227.558 101.31C227.235 101.31 226.912 101.203 226.696 101.095C226.481 100.987 226.265 100.772 226.158 100.557C226.05 100.341 225.942 100.018 225.834 99.6954C225.834 99.3724 225.727 99.0494 225.727 98.7265C225.727 98.2958 225.727 97.7575 225.834 97.2192C225.942 96.6809 226.05 96.1426 226.158 95.6042C226.265 95.0659 226.481 94.5276 226.696 93.9893C226.912 93.451 227.235 93.0203 227.558 92.6973C227.882 92.2667 228.205 92.0514 228.636 91.7284C229.067 91.5131 229.498 91.4054 229.929 91.4054C230.575 91.4054 231.114 91.5131 231.653 91.8361C232.191 92.159 232.622 92.5897 232.946 93.2357L232.515 95.4966ZM262.683 89.4675C262.791 88.9292 262.683 88.6062 262.468 88.3908C262.252 88.1755 261.821 88.0679 261.283 88.0679H258.912C258.481 88.0679 258.05 88.0679 257.727 88.1755C257.404 88.2832 257.081 88.3908 256.865 88.6062C256.65 88.8215 256.434 89.0368 256.219 89.3598C256.003 89.6828 255.788 90.0058 255.572 90.4364L252.771 95.7119C252.555 96.0349 252.447 96.3579 252.232 96.7885C252.016 97.1115 251.909 97.5422 251.693 97.8652C251.478 98.2958 251.37 98.6188 251.155 98.9418C251.047 99.2648 250.831 99.6954 250.724 99.9107C250.724 99.5878 250.724 99.2648 250.724 98.9418C250.724 98.6188 250.724 98.1881 250.724 97.8652C250.724 97.5422 250.724 97.1115 250.616 96.7885C250.616 96.4655 250.508 96.0349 250.508 95.7119L249.862 90.4364C249.862 90.0058 249.754 89.5751 249.646 89.3598C249.538 89.0368 249.431 88.8215 249.215 88.6062C249 88.3908 248.784 88.2832 248.461 88.2832C248.138 88.2832 247.814 88.1755 247.276 88.1755H245.229C244.69 88.1755 244.259 88.2832 243.936 88.4985C243.612 88.7138 243.397 89.1445 243.181 89.5751L238.764 104.002C238.764 104.11 238.656 104.325 238.764 104.325C238.764 104.433 238.872 104.54 238.979 104.54C239.087 104.648 239.303 104.648 239.518 104.648C239.734 104.648 240.057 104.648 240.488 104.648C240.919 104.648 241.35 104.648 241.565 104.648C241.888 104.648 242.104 104.648 242.212 104.54C242.427 104.433 242.535 104.433 242.643 104.325C242.75 104.217 242.75 104.11 242.858 104.002L245.336 95.8196C245.444 95.4966 245.552 95.1736 245.66 94.7429C245.767 94.3123 245.875 93.8816 245.983 93.5587C246.09 93.128 246.198 92.6973 246.306 92.2667C246.414 91.836 246.521 91.5131 246.629 91.0824C246.629 91.4054 246.629 91.7284 246.629 92.0514C246.629 92.3744 246.629 92.805 246.737 93.128C246.737 93.5586 246.845 93.8816 246.845 94.3123C246.845 94.7429 246.952 95.0659 246.952 95.3889L247.922 103.894C247.922 104.002 248.03 104.217 248.03 104.325C248.138 104.433 248.245 104.54 248.353 104.54C248.461 104.648 248.676 104.648 248.892 104.648C249.107 104.648 249.431 104.648 249.754 104.648C250.185 104.648 250.508 104.648 250.724 104.648C251.047 104.648 251.262 104.54 251.37 104.54C251.586 104.433 251.693 104.433 251.801 104.325C251.909 104.217 252.016 104.11 252.016 104.002L256.434 95.4966C256.542 95.1736 256.757 94.8506 256.973 94.5276C257.188 94.2046 257.296 93.774 257.512 93.3433C257.727 92.9127 257.835 92.5897 258.05 92.2667C258.266 91.9437 258.373 91.5131 258.589 91.2977C258.481 91.7284 258.481 92.0514 258.373 92.482C258.266 92.9127 258.266 93.3433 258.158 93.774C258.05 94.2046 258.05 94.6353 258.05 94.9583C258.05 95.3889 257.942 95.6042 257.942 95.9272L257.188 104.217C257.188 104.325 257.188 104.433 257.188 104.54C257.188 104.648 257.296 104.648 257.404 104.756C257.511 104.756 257.727 104.863 258.05 104.863C258.266 104.863 258.697 104.863 259.128 104.863C259.882 104.863 260.421 104.756 260.744 104.648C261.067 104.54 261.283 104.325 261.283 104.002L262.683 89.4675Z" fill="white"/>
</svg>
