<svg width="100" height="122" viewBox="0 0 100 122" fill="none" xmlns="http://www.w3.org/2000/svg">
<g filter="url(#filter0_d)">
<path d="M82.7228 80.8697C81.2581 79.3321 80.2855 77.3823 80.0507 75.2876C79.9389 74.2959 79.6482 73.3266 79.1674 72.424L71.6655 58.2625C71.3077 57.5829 70.8605 56.9589 70.3462 56.4241C68.7251 54.7416 67.7524 52.5132 68.0095 50.1957C68.1772 48.7026 68.2778 47.1428 68.289 45.5049C77.0432 34.6748 77.2444 22.0732 68.8704 8.00077L68.0431 6.57459C67.294 5.32668 65.7064 4.881 64.4206 5.56066C61.5585 7.06484 58.0032 5.97292 56.4938 3.12056C54.9845 0.268194 51.4403 -0.834868 48.5782 0.68045L8.89939 21.5161C6.03724 23.0202 4.94158 26.5523 6.45092 29.4046C7.96025 32.257 6.86458 35.789 4.00243 37.2932C2.23595 38.218 1.50923 40.3684 2.34775 42.1734L2.63844 42.7862C9.07828 56.6135 18.7045 63.633 31.2376 63.633H31.2711C33.0041 63.633 34.2898 65.2374 33.8985 66.9199L32.4786 73.0703L31.8078 73.4268C30.9693 71.8447 29.0127 71.243 27.4363 72.0787L16.3119 77.9171L14.456 78.8976C12.8237 79.7667 12.1976 81.7834 13.0585 83.4101L25.5021 106.953C26.3742 108.613 28.4313 109.248 30.0972 108.379L31.9308 107.432L43.1893 101.516C44.6763 100.736 45.2577 98.8975 44.475 97.4045L47.203 98.2625L49.2714 97.1705C51.418 96.0452 54.0453 97.2708 54.5485 99.6329L57.1646 111.789C57.556 113.605 59.5684 114.541 61.2119 113.672L91.9912 97.5048C94.1937 96.346 94.6857 93.4045 92.9639 91.6106L82.7228 80.8697Z" fill="white"/>
</g>
<path d="M51.1606 19.1867L35.8659 27.2198L34.8262 25.2478L50.1208 17.2146L51.1606 19.1867Z" fill="#323232"/>
<path d="M46.5551 56.6245L45.7278 58.6968C41.401 56.9699 36.5152 53.5048 31.9648 48.9256L33.5636 47.3657C37.8345 51.6664 42.5749 55.0424 46.5551 56.6245Z" fill="#323232"/>
<path d="M30.9916 44.6023L29.2922 46.0619C28.1071 44.6914 26.9891 43.2764 25.9717 41.8503L27.7829 40.5579C28.7667 41.9283 29.8401 43.2764 30.9916 44.6023Z" fill="#323232"/>
<path d="M78.1506 80.9143L72.3033 83.9894L70.7605 82.1065L74.2487 80.2792C76.5407 79.0758 77.4127 76.2569 76.2052 73.9728L68.7033 59.8001C67.5853 57.672 64.9914 56.6692 62.6324 57.7388C64.3094 54.0396 65.0138 49.3488 64.9467 44.2904C73.5667 34.3294 73.9245 23.0091 66.0088 9.70546L65.461 8.79181L55.9466 13.7946C55.3205 12.8809 54.672 12.023 54.0012 11.2208L56.3379 9.99516L52.3577 2.46313L8.24035 25.6386L12.2205 33.1595L14.5572 31.9338C14.8367 32.9366 15.1833 33.9505 15.597 34.9868L5.22168 40.4352L5.66889 41.3934C11.5721 54.0731 19.9573 60.3015 31.227 60.3015C32.7922 60.3015 34.4246 60.1678 36.1016 59.9226C36.9289 60.4909 37.7563 61.0146 38.5836 61.5048L35.3861 75.3321L30.3885 77.9505L28.8791 75.0981L17.8666 80.8808L16.0106 81.8613L17.0504 83.8223L28.4878 105.46L30.3549 104.491L41.3563 98.7081L39.724 95.6106L43.5141 93.6162L46.8682 94.6635L61.5703 86.9421L62.2523 89.2708L56.405 92.3348L60.2845 110.385L90.8961 94.307L78.1506 80.9143ZM64.6113 11.7556C71.0511 23.0313 71.107 32.3795 64.8014 40.9143C64.7119 39.7778 64.5889 38.6413 64.4324 37.4937C68.2449 31.1762 68.1778 24.0676 64.2088 15.789L63.7057 14.7528L58.2497 17.6163C57.892 16.9478 57.523 16.3015 57.1541 15.6776L64.6113 11.7556ZM63.8063 33.7834C62.8225 28.7918 61.246 23.8781 59.2448 19.6107L62.6771 17.8057C65.3716 23.867 65.7405 29.0369 63.8063 33.7834ZM13.1597 30.1511L11.2702 26.5745L51.4298 5.48263L53.3192 9.05922L13.1597 30.1511ZM8.15091 41.4157L16.4802 37.048C16.7821 37.7054 17.1063 38.3628 17.4641 39.0425L12.0416 41.8837L12.6342 42.8865C17.2069 50.775 23.0095 54.8419 30.3214 55.321C31.35 56.2569 32.4009 57.1371 33.4631 57.9728C22.171 58.8307 14.0653 53.516 8.15091 41.4157ZM18.5597 40.9812C20.9747 45.1037 24.1052 49.126 27.5934 52.6915C22.6517 51.5661 18.6268 48.3461 15.1609 42.7639L18.5597 40.9812ZM19.4542 38.0285C18.1349 35.5327 17.1734 33.1372 16.5697 30.8865L52 12.2793C61.6262 23.4882 66.8697 49.4491 58.9429 59.633L51.877 63.3544C40.3389 64.0786 25.3015 49.0814 19.4542 38.0285ZM29.304 102.519L18.9175 82.853L27.94 78.1065L28.4096 78.9978L37.7451 96.6468L38.3377 97.7722L29.304 102.519ZM60.9218 84.7583L46.6446 92.2569L43.2905 91.2095L38.6842 93.6385L31.4282 79.9226L37.3314 76.8251L40.6184 62.6302C44.4197 64.6023 47.9527 65.6162 51.1279 65.6162C51.8658 65.6162 52.3689 65.5605 52.5031 65.5494L60.4187 61.3934L63.415 59.8112C64.6225 59.1873 66.0983 59.6441 66.7356 60.8363L74.2263 75.009C74.8524 76.19 74.4164 77.6719 73.1978 78.307L69.3182 80.346L60.9218 84.7583ZM70.2797 85.048L64.2647 88.2011L63.5827 85.8836L68.748 83.1649L70.2797 85.048ZM58.9429 93.5159L77.6922 83.6775L87.2402 93.7053L61.8498 107.042L58.9429 93.5159Z" fill="#323232"/>
<path d="M70.279 85.0477L64.264 88.2008L63.582 85.8834L68.7473 83.1648L70.279 85.0477Z" fill="#FEBD2C"/>
<path d="M77.6917 83.6772L58.9424 93.5157L61.8493 107.042L87.2397 93.7051L77.6917 83.6772ZM76.0147 87.8444L77.0544 89.8165L64.376 96.4683L63.3362 94.4962L76.0147 87.8444ZM64.7897 102.218L63.7387 100.245L66.3214 98.8861L67.3723 100.858L64.7897 102.218ZM68.4792 100.268L67.4394 98.2956L69.7425 97.0923L70.7823 99.0644L68.4792 100.268ZM70.9053 96.4795L80.5539 91.4098L81.5936 93.382L71.945 98.4516L70.9053 96.4795Z" fill="#FE6B2C"/>
<path d="M37.7446 96.6468L28.409 78.9978L27.9395 78.1064L18.917 82.853L29.3035 102.519L38.3371 97.7722L37.7446 96.6468ZM32.2774 97.4379C30.6786 98.2847 28.6662 97.6942 27.8053 96.0674C26.9668 94.463 27.5705 92.4685 29.1917 91.6217C30.7904 90.775 32.7917 91.3655 33.6526 92.9922C34.5023 94.5967 33.8986 96.5911 32.2774 97.4379Z" fill="#0094FF"/>
<path d="M74.2258 75.0091L66.7351 60.8364C66.0978 59.6442 64.622 59.1874 63.4145 59.8113L60.4182 61.3935L52.5026 65.5495C52.3684 65.5606 51.8653 65.6163 51.1274 65.6163C47.9522 65.6163 44.4192 64.6024 40.6179 62.6303L37.3309 76.8252L31.4277 79.9227L38.6837 93.6386L43.29 91.2096L46.6441 92.257L60.9213 84.7584L69.3177 80.3461L73.1973 78.3071C74.4159 77.672 74.8519 76.1901 74.2258 75.0091ZM67.8978 78.9534L66.858 76.9812L69.7761 75.4436L67.2717 70.6971L69.2506 69.6609L72.8059 76.3796L67.8978 78.9534Z" fill="#FCD45E"/>
<path d="M64.8006 40.9141C64.7112 39.7776 64.5882 38.6411 64.4317 37.4935C68.2442 31.176 68.1771 24.0673 64.2081 15.7888L63.705 14.7526L58.249 17.6161C57.8912 16.9476 57.5223 16.3013 57.1533 15.6774L64.6106 11.7554C71.0504 23.0311 71.1063 32.3793 64.8006 40.9141Z" fill="#FEBD2C"/>
<path d="M33.4625 57.9728C22.1705 58.8308 14.0648 53.516 8.15039 41.4158L16.4797 37.0481C16.7816 37.7055 17.1058 38.3629 17.4636 39.0425L12.0411 41.8837L12.6337 42.8865C17.2064 50.7751 23.009 54.8419 30.3209 55.321C31.3495 56.257 32.4004 57.1372 33.4625 57.9728Z" fill="#FEBD2C"/>
<path d="M51.9996 12.2791L16.5693 30.8863C17.1731 33.137 18.1346 35.5325 19.4538 38.0283C25.3011 49.0812 40.3386 64.0784 51.8766 63.3542L58.9426 59.6327C66.8694 49.4489 61.6258 23.4879 51.9996 12.2791ZM29.2925 46.0617C28.1074 44.6912 26.9894 43.2762 25.9719 41.85L27.7832 40.5576C28.767 41.928 29.8403 43.2762 30.9919 44.6021L29.2925 46.0617ZM45.7275 58.6968C41.4007 56.9698 36.5149 53.5046 31.9646 48.9252L33.5634 47.3653C37.8342 51.6662 42.5747 55.0422 46.5548 56.6244L45.7275 58.6968ZM35.8665 27.2205L34.8267 25.2484L50.1213 17.215L51.1611 19.1871L35.8665 27.2205Z" fill="#FEBD2C"/>
<path d="M51.4236 5.49307L11.2656 26.5823L13.1576 30.1604L53.3156 9.0712L51.4236 5.49307Z" fill="#FEBD2C"/>
<path d="M72.8063 76.3793L67.8982 78.9531L66.8584 76.981L69.7765 75.4434L67.2721 70.6971L69.251 69.6609L72.8063 76.3793Z" fill="#323232"/>
<path d="M76.0173 87.8485L63.334 94.502L64.3755 96.4738L77.0588 89.8203L76.0173 87.8485Z" fill="#323232"/>
<path d="M81.5936 93.3822L71.945 98.4517L70.9053 96.4796L80.5538 91.4102L81.5936 93.3822Z" fill="#323232"/>
<path d="M69.7467 97.1008L67.4395 98.3062L68.4776 100.28L70.7849 99.0744L69.7467 97.1008Z" fill="#323232"/>
<path d="M67.3728 100.859L64.7902 102.218L63.7393 100.246L66.3219 98.8865L67.3728 100.859Z" fill="#323232"/>
<path d="M33.6528 92.9923C32.7919 91.3656 30.7906 90.7751 29.1919 91.6219C27.5707 92.4687 26.967 94.463 27.8055 96.0674C28.6664 97.6941 30.6788 98.2846 32.2776 97.4379C33.8988 96.5911 34.5025 94.5967 33.6528 92.9923ZM31.2267 95.4658C30.7124 95.7332 30.0528 95.5326 29.7844 95.0201C29.5161 94.4965 29.7173 93.8614 30.2316 93.594C30.7683 93.3154 31.4056 93.516 31.6739 94.0397C31.9534 94.5633 31.7522 95.1984 31.2267 95.4658Z" fill="#323232"/>
<path d="M31.2262 95.4659C30.7119 95.7333 30.0523 95.5327 29.784 95.0202C29.5156 94.4966 29.7169 93.8615 30.2312 93.5941C30.7678 93.3156 31.4051 93.5161 31.6734 94.0398C31.9529 94.5634 31.7517 95.1985 31.2262 95.4659Z" fill="#F90000"/>
<defs>
<filter id="filter0_d" x="0" y="0" width="100" height="122" filterUnits="userSpaceOnUse" color-interpolation-filters="sRGB">
<feFlood flood-opacity="0" result="BackgroundImageFix"/>
<feColorMatrix in="SourceAlpha" type="matrix" values="0 0 0 0 0 0 0 0 0 0 0 0 0 0 0 0 0 0 127 0"/>
<feOffset dx="2" dy="4"/>
<feGaussianBlur stdDeviation="2"/>
<feColorMatrix type="matrix" values="0 0 0 0 0 0 0 0 0 0 0 0 0 0 0 0 0 0 0.25 0"/>
<feBlend mode="normal" in2="BackgroundImageFix" result="effect1_dropShadow"/>
<feBlend mode="normal" in="SourceGraphic" in2="effect1_dropShadow" result="shape"/>
</filter>
</defs>
</svg>
